M48
; DRILL file {KiCad (6.0.8)} date Fri Jan 27 16:13:31 2023
; FORMAT={-:-/ absolute / inch / decimal}
; #@! TF.CreationDate,2023-01-27T16:13:31-07:00
; #@! TF.GenerationSoftware,Kicad,Pcbnew,(6.0.8)
; #@! TF.FileFunction,Plated,1,2,PTH
FMAT,2
INCH
; #@! TA.AperFunction,Plated,PTH,ComponentDrill
T1C0.0138
; #@! TA.AperFunction,Plated,PTH,ViaDrill
T2C0.0157
; #@! TA.AperFunction,Plated,PTH,ComponentDrill
T3C0.0157
; #@! TA.AperFunction,Plated,PTH,ComponentDrill
T4C0.0236
; #@! TA.AperFunction,Plated,PTH,ComponentDrill
T5C0.0256
; #@! TA.AperFunction,Plated,PTH,ComponentDrill
T6C0.0315
; #@! TA.AperFunction,Plated,PTH,ComponentDrill
T7C0.0394
; #@! TA.AperFunction,Plated,PTH,ComponentDrill
T8C0.0433
; #@! TA.AperFunction,Plated,PTH,ComponentDrill
T9C0.0472
; #@! TA.AperFunction,Plated,PTH,ComponentDrill
T10C0.0709
%
G90
G05
T1
X4.3293Y-2.2595
X4.3293Y-2.3097
X4.3293Y-2.3599
X4.3795Y-2.2595
X4.3795Y-2.3097
X4.3795Y-2.3599
X4.4297Y-2.2595
X4.4297Y-2.3097
X4.4297Y-2.3599
T2
X3.31Y-2.5497
X3.328Y-2.7614
X3.436Y-2.674
X3.76Y-2.31
X3.76Y-2.349
X4.0347Y-2.4047
X4.06Y-2.3175
X4.106Y-2.572
X4.1651Y-2.3451
X4.182Y-2.16
X4.248Y-2.46
X4.3742Y-2.5897
X4.4106Y-2.5897
X4.4646Y-2.1134
X4.538Y-2.46
X4.559Y-2.398
X4.56Y-2.18
X4.576Y-2.0531
X4.624Y-2.494
X4.6401Y-2.0948
X4.6504Y-2.186
X4.69Y-2.34
X4.803Y-2.494
X4.9522Y-2.5897
X4.9887Y-2.5897
T3
X3.6624Y-2.1553
X3.6624Y-2.2085
X3.6959Y-2.1553
X3.6959Y-2.2085
X3.7293Y-2.1553
X3.7293Y-2.2085
X3.7628Y-2.1553
X3.7628Y-2.2085
X3.7963Y-2.1553
X3.7963Y-2.2085
X3.8297Y-2.1553
X3.8297Y-2.2085
X3.8632Y-2.1553
X3.8632Y-2.2085
X3.8967Y-2.1553
X3.8967Y-2.2085
T5
X3.8698Y-2.531
X3.9198Y-2.531
X3.9698Y-2.531
X6.52Y-5.0698
X6.52Y-5.1198
X6.52Y-5.1698
T6
X4.874Y-2.2795
X4.874Y-2.4717
T7
X3.4688Y-3.6148
X3.4688Y-3.7132
X4.7903Y-2.06
X4.8903Y-2.06
X4.9903Y-2.06
X5.64Y-2.3502
X5.64Y-2.4502
X5.74Y-2.3502
X5.74Y-2.4502
X5.84Y-2.3502
X5.84Y-2.4502
X5.94Y-2.3502
X5.94Y-2.4502
X6.04Y-2.3502
X6.04Y-2.4502
X6.14Y-2.3502
X6.14Y-2.4502
X6.3698Y-2.4122
X6.4698Y-2.4122
T8
X3.25Y-3.035
X3.25Y-3.435
X3.3914Y-3.112
X3.3914Y-3.368
X3.5686Y-3.112
X3.5686Y-3.368
X5.1314Y-2.207
X5.1314Y-2.463
X5.3086Y-2.207
X5.3086Y-2.463
T9
X5.5147Y-2.154
X5.6131Y-2.154
X5.7116Y-2.154
X5.81Y-2.154
X5.9084Y-2.154
X6.0069Y-2.154
X6.1053Y-2.154
T10
X3.298Y-5.1201
X3.298Y-5.3366
X3.7189Y-4.195
X3.9355Y-4.195
X6.3045Y-5.758
X6.5211Y-5.758
X6.938Y-2.5329
X6.938Y-2.7495
T4
G00X3.6093Y-2.0526
M15
G01X3.6093Y-2.0211
M16
G05
G00X3.6093Y-2.1994
M15
G01X3.6093Y-2.1404
M16
G05
G00X3.9498Y-2.0526
M15
G01X3.9498Y-2.0211
M16
G05
G00X3.9498Y-2.1994
M15
G01X3.9498Y-2.1404
M16
G05
T0
M30
