%TF.GenerationSoftware,KiCad,Pcbnew,(6.0.8)*%
%TF.CreationDate,2023-01-27T01:29:18-07:00*%
%TF.ProjectId,Panel,50616e65-6c2e-46b6-9963-61645f706362,rev?*%
%TF.SameCoordinates,Original*%
%TF.FileFunction,Soldermask,Top*%
%TF.FilePolarity,Negative*%
%FSLAX46Y46*%
G04 Gerber Fmt 4.6, Leading zero omitted, Abs format (unit mm)*
G04 Created by KiCad (PCBNEW (6.0.8)) date 2023-01-27 01:29:18*
%MOMM*%
%LPD*%
G01*
G04 APERTURE LIST*
G04 Aperture macros list*
%AMRoundRect*
0 Rectangle with rounded corners*
0 $1 Rounding radius*
0 $2 $3 $4 $5 $6 $7 $8 $9 X,Y pos of 4 corners*
0 Add a 4 corners polygon primitive as box body*
4,1,4,$2,$3,$4,$5,$6,$7,$8,$9,$2,$3,0*
0 Add four circle primitives for the rounded corners*
1,1,$1+$1,$2,$3*
1,1,$1+$1,$4,$5*
1,1,$1+$1,$6,$7*
1,1,$1+$1,$8,$9*
0 Add four rect primitives between the rounded corners*
20,1,$1+$1,$2,$3,$4,$5,0*
20,1,$1+$1,$4,$5,$6,$7,0*
20,1,$1+$1,$6,$7,$8,$9,0*
20,1,$1+$1,$8,$9,$2,$3,0*%
G04 Aperture macros list end*
%ADD10C,0.300000*%
%ADD11R,1.500000X0.900000*%
%ADD12R,1.500000X2.000000*%
%ADD13R,3.800000X2.000000*%
%ADD14R,1.700000X1.700000*%
%ADD15O,1.700000X1.700000*%
%ADD16RoundRect,0.150000X0.150000X-0.650000X0.150000X0.650000X-0.150000X0.650000X-0.150000X-0.650000X0*%
%ADD17RoundRect,0.160000X0.197500X0.160000X-0.197500X0.160000X-0.197500X-0.160000X0.197500X-0.160000X0*%
%ADD18C,0.700000*%
%ADD19O,0.900000X1.700000*%
%ADD20O,0.900000X2.400000*%
%ADD21RoundRect,0.160000X-0.160000X0.197500X-0.160000X-0.197500X0.160000X-0.197500X0.160000X0.197500X0*%
%ADD22C,2.000000*%
%ADD23RoundRect,0.155000X-0.155000X0.212500X-0.155000X-0.212500X0.155000X-0.212500X0.155000X0.212500X0*%
%ADD24C,3.000000*%
%ADD25RoundRect,0.250001X1.099999X1.599999X-1.099999X1.599999X-1.099999X-1.599999X1.099999X-1.599999X0*%
%ADD26O,2.700000X3.700000*%
%ADD27RoundRect,0.155000X0.155000X-0.212500X0.155000X0.212500X-0.155000X0.212500X-0.155000X-0.212500X0*%
%ADD28RoundRect,0.155000X0.212500X0.155000X-0.212500X0.155000X-0.212500X-0.155000X0.212500X-0.155000X0*%
%ADD29RoundRect,0.155000X-0.212500X-0.155000X0.212500X-0.155000X0.212500X0.155000X-0.212500X0.155000X0*%
%ADD30RoundRect,0.160000X0.160000X-0.197500X0.160000X0.197500X-0.160000X0.197500X-0.160000X-0.197500X0*%
%ADD31R,1.800000X1.800000*%
%ADD32O,1.800000X1.800000*%
%ADD33R,2.200000X2.200000*%
%ADD34O,2.200000X2.200000*%
%ADD35RoundRect,0.050000X0.050000X-0.387500X0.050000X0.387500X-0.050000X0.387500X-0.050000X-0.387500X0*%
%ADD36RoundRect,0.050000X0.387500X-0.050000X0.387500X0.050000X-0.387500X0.050000X-0.387500X-0.050000X0*%
%ADD37RoundRect,0.144000X1.456000X-1.456000X1.456000X1.456000X-1.456000X1.456000X-1.456000X-1.456000X0*%
%ADD38C,1.500000*%
%ADD39R,1.000000X1.000000*%
%ADD40O,1.000000X1.000000*%
%ADD41RoundRect,0.250001X1.599999X-1.099999X1.599999X1.099999X-1.599999X1.099999X-1.599999X-1.099999X0*%
%ADD42O,3.700000X2.700000*%
%ADD43RoundRect,0.250001X-1.099999X-1.599999X1.099999X-1.599999X1.099999X1.599999X-1.099999X1.599999X0*%
%ADD44RoundRect,0.250001X-1.599999X1.099999X-1.599999X-1.099999X1.599999X-1.099999X1.599999X1.099999X0*%
%ADD45RoundRect,0.250000X-0.750000X0.600000X-0.750000X-0.600000X0.750000X-0.600000X0.750000X0.600000X0*%
%ADD46O,2.000000X1.700000*%
%ADD47RoundRect,0.160000X-0.197500X-0.160000X0.197500X-0.160000X0.197500X0.160000X-0.197500X0.160000X0*%
G04 APERTURE END LIST*
D10*
X96294149Y-147558012D02*
X96294149Y-146058012D01*
X96937007Y-147558012D02*
X96937007Y-146772298D01*
X96865578Y-146629441D01*
X96722721Y-146558012D01*
X96508435Y-146558012D01*
X96365578Y-146629441D01*
X96294149Y-146700869D01*
X97437007Y-146558012D02*
X98008435Y-146558012D01*
X97651292Y-146058012D02*
X97651292Y-147343726D01*
X97722721Y-147486583D01*
X97865578Y-147558012D01*
X98008435Y-147558012D01*
X98294149Y-146558012D02*
X98865578Y-146558012D01*
X98508435Y-146058012D02*
X98508435Y-147343726D01*
X98579864Y-147486583D01*
X98722721Y-147558012D01*
X98865578Y-147558012D01*
X99365578Y-146558012D02*
X99365578Y-148058012D01*
X99365578Y-146629441D02*
X99508435Y-146558012D01*
X99794149Y-146558012D01*
X99937007Y-146629441D01*
X100008435Y-146700869D01*
X100079864Y-146843726D01*
X100079864Y-147272298D01*
X100008435Y-147415155D01*
X99937007Y-147486583D01*
X99794149Y-147558012D01*
X99508435Y-147558012D01*
X99365578Y-147486583D01*
X100651292Y-147486583D02*
X100794149Y-147558012D01*
X101079864Y-147558012D01*
X101222721Y-147486583D01*
X101294149Y-147343726D01*
X101294149Y-147272298D01*
X101222721Y-147129441D01*
X101079864Y-147058012D01*
X100865578Y-147058012D01*
X100722721Y-146986583D01*
X100651292Y-146843726D01*
X100651292Y-146772298D01*
X100722721Y-146629441D01*
X100865578Y-146558012D01*
X101079864Y-146558012D01*
X101222721Y-146629441D01*
X101937007Y-147415155D02*
X102008435Y-147486583D01*
X101937007Y-147558012D01*
X101865578Y-147486583D01*
X101937007Y-147415155D01*
X101937007Y-147558012D01*
X101937007Y-146629441D02*
X102008435Y-146700869D01*
X101937007Y-146772298D01*
X101865578Y-146700869D01*
X101937007Y-146629441D01*
X101937007Y-146772298D01*
X103722721Y-145986583D02*
X102437007Y-147915155D01*
X105294149Y-145986583D02*
X104008435Y-147915155D01*
X106437007Y-146558012D02*
X106437007Y-147772298D01*
X106365578Y-147915155D01*
X106294149Y-147986583D01*
X106151292Y-148058012D01*
X105937007Y-148058012D01*
X105794149Y-147986583D01*
X106437007Y-147486583D02*
X106294149Y-147558012D01*
X106008435Y-147558012D01*
X105865578Y-147486583D01*
X105794149Y-147415155D01*
X105722721Y-147272298D01*
X105722721Y-146843726D01*
X105794149Y-146700869D01*
X105865578Y-146629441D01*
X106008435Y-146558012D01*
X106294149Y-146558012D01*
X106437007Y-146629441D01*
X107151292Y-147558012D02*
X107151292Y-146558012D01*
X107151292Y-146058012D02*
X107079864Y-146129441D01*
X107151292Y-146200869D01*
X107222721Y-146129441D01*
X107151292Y-146058012D01*
X107151292Y-146200869D01*
X107651292Y-146558012D02*
X108222721Y-146558012D01*
X107865578Y-146058012D02*
X107865578Y-147343726D01*
X107937007Y-147486583D01*
X108079864Y-147558012D01*
X108222721Y-147558012D01*
X108722721Y-147558012D02*
X108722721Y-146058012D01*
X109365578Y-147558012D02*
X109365578Y-146772298D01*
X109294149Y-146629441D01*
X109151292Y-146558012D01*
X108937007Y-146558012D01*
X108794149Y-146629441D01*
X108722721Y-146700869D01*
X110722721Y-146558012D02*
X110722721Y-147558012D01*
X110079864Y-146558012D02*
X110079864Y-147343726D01*
X110151292Y-147486583D01*
X110294149Y-147558012D01*
X110508435Y-147558012D01*
X110651292Y-147486583D01*
X110722721Y-147415155D01*
X111437007Y-147558012D02*
X111437007Y-146058012D01*
X111437007Y-146629441D02*
X111579864Y-146558012D01*
X111865578Y-146558012D01*
X112008435Y-146629441D01*
X112079864Y-146700869D01*
X112151292Y-146843726D01*
X112151292Y-147272298D01*
X112079864Y-147415155D01*
X112008435Y-147486583D01*
X111865578Y-147558012D01*
X111579864Y-147558012D01*
X111437007Y-147486583D01*
X112794149Y-147415155D02*
X112865578Y-147486583D01*
X112794149Y-147558012D01*
X112722721Y-147486583D01*
X112794149Y-147415155D01*
X112794149Y-147558012D01*
X114151292Y-147486583D02*
X114008435Y-147558012D01*
X113722721Y-147558012D01*
X113579864Y-147486583D01*
X113508435Y-147415155D01*
X113437007Y-147272298D01*
X113437007Y-146843726D01*
X113508435Y-146700869D01*
X113579864Y-146629441D01*
X113722721Y-146558012D01*
X114008435Y-146558012D01*
X114151292Y-146629441D01*
X115008435Y-147558012D02*
X114865578Y-147486583D01*
X114794149Y-147415155D01*
X114722721Y-147272298D01*
X114722721Y-146843726D01*
X114794149Y-146700869D01*
X114865578Y-146629441D01*
X115008435Y-146558012D01*
X115222721Y-146558012D01*
X115365578Y-146629441D01*
X115437007Y-146700869D01*
X115508435Y-146843726D01*
X115508435Y-147272298D01*
X115437007Y-147415155D01*
X115365578Y-147486583D01*
X115222721Y-147558012D01*
X115008435Y-147558012D01*
X116151292Y-147558012D02*
X116151292Y-146558012D01*
X116151292Y-146700869D02*
X116222721Y-146629441D01*
X116365578Y-146558012D01*
X116579864Y-146558012D01*
X116722721Y-146629441D01*
X116794149Y-146772298D01*
X116794149Y-147558012D01*
X116794149Y-146772298D02*
X116865578Y-146629441D01*
X117008435Y-146558012D01*
X117222721Y-146558012D01*
X117365578Y-146629441D01*
X117437007Y-146772298D01*
X117437007Y-147558012D01*
X119222721Y-145986583D02*
X117937007Y-147915155D01*
X120365578Y-147558012D02*
X120365578Y-146058012D01*
X120365578Y-147486583D02*
X120222721Y-147558012D01*
X119937007Y-147558012D01*
X119794149Y-147486583D01*
X119722721Y-147415155D01*
X119651292Y-147272298D01*
X119651292Y-146843726D01*
X119722721Y-146700869D01*
X119794149Y-146629441D01*
X119937007Y-146558012D01*
X120222721Y-146558012D01*
X120365578Y-146629441D01*
X121079864Y-146558012D02*
X121079864Y-147843726D01*
X121008435Y-147986583D01*
X120865578Y-148058012D01*
X120794149Y-148058012D01*
X121079864Y-146058012D02*
X121008435Y-146129441D01*
X121079864Y-146200869D01*
X121151292Y-146129441D01*
X121079864Y-146058012D01*
X121079864Y-146200869D01*
X122508435Y-146058012D02*
X121794149Y-146058012D01*
X121722721Y-146772298D01*
X121794149Y-146700869D01*
X121937007Y-146629441D01*
X122294149Y-146629441D01*
X122437007Y-146700869D01*
X122508435Y-146772298D01*
X122579864Y-146915155D01*
X122579864Y-147272298D01*
X122508435Y-147415155D01*
X122437007Y-147486583D01*
X122294149Y-147558012D01*
X121937007Y-147558012D01*
X121794149Y-147486583D01*
X121722721Y-147415155D01*
X123508435Y-146058012D02*
X123651292Y-146058012D01*
X123794149Y-146129441D01*
X123865578Y-146200869D01*
X123937007Y-146343726D01*
X124008435Y-146629441D01*
X124008435Y-146986583D01*
X123937007Y-147272298D01*
X123865578Y-147415155D01*
X123794149Y-147486583D01*
X123651292Y-147558012D01*
X123508435Y-147558012D01*
X123365578Y-147486583D01*
X123294149Y-147415155D01*
X123222721Y-147272298D01*
X123151292Y-146986583D01*
X123151292Y-146629441D01*
X123222721Y-146343726D01*
X123294149Y-146200869D01*
X123365578Y-146129441D01*
X123508435Y-146058012D01*
X125365578Y-146058012D02*
X124651292Y-146058012D01*
X124579864Y-146772298D01*
X124651292Y-146700869D01*
X124794149Y-146629441D01*
X125151292Y-146629441D01*
X125294149Y-146700869D01*
X125365578Y-146772298D01*
X125437007Y-146915155D01*
X125437007Y-147272298D01*
X125365578Y-147415155D01*
X125294149Y-147486583D01*
X125151292Y-147558012D01*
X124794149Y-147558012D01*
X124651292Y-147486583D01*
X124579864Y-147415155D01*
X127151292Y-145986583D02*
X125865578Y-147915155D01*
X127651292Y-147558012D02*
X127651292Y-146058012D01*
X128222721Y-146058012D01*
X128365578Y-146129441D01*
X128437007Y-146200869D01*
X128508435Y-146343726D01*
X128508435Y-146558012D01*
X128437007Y-146700869D01*
X128365578Y-146772298D01*
X128222721Y-146843726D01*
X127651292Y-146843726D01*
X129794149Y-147558012D02*
X129794149Y-146772298D01*
X129722721Y-146629441D01*
X129579864Y-146558012D01*
X129294149Y-146558012D01*
X129151292Y-146629441D01*
X129794149Y-147486583D02*
X129651292Y-147558012D01*
X129294149Y-147558012D01*
X129151292Y-147486583D01*
X129079864Y-147343726D01*
X129079864Y-147200869D01*
X129151292Y-147058012D01*
X129294149Y-146986583D01*
X129651292Y-146986583D01*
X129794149Y-146915155D01*
X131151292Y-147558012D02*
X131151292Y-146058012D01*
X131151292Y-147486583D02*
X131008435Y-147558012D01*
X130722721Y-147558012D01*
X130579864Y-147486583D01*
X130508435Y-147415155D01*
X130437007Y-147272298D01*
X130437007Y-146843726D01*
X130508435Y-146700869D01*
X130579864Y-146629441D01*
X130722721Y-146558012D01*
X131008435Y-146558012D01*
X131151292Y-146629441D01*
X131865578Y-146986583D02*
X133008435Y-146986583D01*
X134437007Y-147558012D02*
X133722721Y-147558012D01*
X133722721Y-146058012D01*
X134937007Y-147558012D02*
X134937007Y-146558012D01*
X134937007Y-146058012D02*
X134865578Y-146129441D01*
X134937007Y-146200869D01*
X135008435Y-146129441D01*
X134937007Y-146058012D01*
X134937007Y-146200869D01*
X136294149Y-146558012D02*
X136294149Y-147772298D01*
X136222721Y-147915155D01*
X136151292Y-147986583D01*
X136008435Y-148058012D01*
X135794149Y-148058012D01*
X135651292Y-147986583D01*
X136294149Y-147486583D02*
X136151292Y-147558012D01*
X135865578Y-147558012D01*
X135722721Y-147486583D01*
X135651292Y-147415155D01*
X135579864Y-147272298D01*
X135579864Y-146843726D01*
X135651292Y-146700869D01*
X135722721Y-146629441D01*
X135865578Y-146558012D01*
X136151292Y-146558012D01*
X136294149Y-146629441D01*
X137008435Y-147558012D02*
X137008435Y-146058012D01*
X137651292Y-147558012D02*
X137651292Y-146772298D01*
X137579864Y-146629441D01*
X137437007Y-146558012D01*
X137222721Y-146558012D01*
X137079864Y-146629441D01*
X137008435Y-146700869D01*
X138151292Y-146558012D02*
X138722721Y-146558012D01*
X138365578Y-146058012D02*
X138365578Y-147343726D01*
X138437007Y-147486583D01*
X138579864Y-147558012D01*
X138722721Y-147558012D01*
X139222721Y-146986583D02*
X140365578Y-146986583D01*
X141079864Y-147558012D02*
X141079864Y-146058012D01*
X141937007Y-147558012D02*
X141294149Y-146700869D01*
X141937007Y-146058012D02*
X141079864Y-146915155D01*
X142579864Y-147558012D02*
X142579864Y-146558012D01*
X142579864Y-146058012D02*
X142508435Y-146129441D01*
X142579864Y-146200869D01*
X142651292Y-146129441D01*
X142579864Y-146058012D01*
X142579864Y-146200869D01*
X143079864Y-146558012D02*
X143651292Y-146558012D01*
X143294149Y-146058012D02*
X143294149Y-147343726D01*
X143365578Y-147486583D01*
X143508435Y-147558012D01*
X143651292Y-147558012D01*
X96579864Y-143010012D02*
X96865578Y-143010012D01*
X97008435Y-143081441D01*
X97151292Y-143224298D01*
X97222721Y-143510012D01*
X97222721Y-144010012D01*
X97151292Y-144295726D01*
X97008435Y-144438583D01*
X96865578Y-144510012D01*
X96579864Y-144510012D01*
X96437007Y-144438583D01*
X96294149Y-144295726D01*
X96222721Y-144010012D01*
X96222721Y-143510012D01*
X96294149Y-143224298D01*
X96437007Y-143081441D01*
X96579864Y-143010012D01*
X97722721Y-143510012D02*
X98079864Y-144510012D01*
X98437007Y-143510012D01*
X99579864Y-144438583D02*
X99437007Y-144510012D01*
X99151292Y-144510012D01*
X99008435Y-144438583D01*
X98937007Y-144295726D01*
X98937007Y-143724298D01*
X99008435Y-143581441D01*
X99151292Y-143510012D01*
X99437007Y-143510012D01*
X99579864Y-143581441D01*
X99651292Y-143724298D01*
X99651292Y-143867155D01*
X98937007Y-144010012D01*
X100294149Y-144510012D02*
X100294149Y-143510012D01*
X100294149Y-143795726D02*
X100365578Y-143652869D01*
X100437007Y-143581441D01*
X100579864Y-143510012D01*
X100722721Y-143510012D01*
X101222721Y-144510012D02*
X101222721Y-143010012D01*
X101365578Y-143938583D02*
X101794149Y-144510012D01*
X101794149Y-143510012D02*
X101222721Y-144081441D01*
X102437007Y-144510012D02*
X102437007Y-143510012D01*
X102437007Y-143010012D02*
X102365578Y-143081441D01*
X102437007Y-143152869D01*
X102508435Y-143081441D01*
X102437007Y-143010012D01*
X102437007Y-143152869D01*
X103365578Y-144510012D02*
X103222721Y-144438583D01*
X103151292Y-144295726D01*
X103151292Y-143010012D01*
X104151292Y-144510012D02*
X104008435Y-144438583D01*
X103937007Y-144295726D01*
X103937007Y-143010012D01*
X105865578Y-144510012D02*
X105865578Y-143010012D01*
X106437007Y-143010012D01*
X106579864Y-143081441D01*
X106651292Y-143152869D01*
X106722721Y-143295726D01*
X106722721Y-143510012D01*
X106651292Y-143652869D01*
X106579864Y-143724298D01*
X106437007Y-143795726D01*
X105865578Y-143795726D01*
X107365578Y-144510012D02*
X107365578Y-143010012D01*
X108079864Y-143010012D02*
X108079864Y-144224298D01*
X108151292Y-144367155D01*
X108222721Y-144438583D01*
X108365578Y-144510012D01*
X108651292Y-144510012D01*
X108794149Y-144438583D01*
X108865578Y-144367155D01*
X108937007Y-144224298D01*
X108937007Y-143010012D01*
X110794149Y-144510012D02*
X110794149Y-143010012D01*
X111365578Y-143010012D01*
X111508435Y-143081441D01*
X111579864Y-143152869D01*
X111651292Y-143295726D01*
X111651292Y-143510012D01*
X111579864Y-143652869D01*
X111508435Y-143724298D01*
X111365578Y-143795726D01*
X110794149Y-143795726D01*
X112937007Y-144510012D02*
X112937007Y-143724298D01*
X112865578Y-143581441D01*
X112722721Y-143510012D01*
X112437007Y-143510012D01*
X112294149Y-143581441D01*
X112937007Y-144438583D02*
X112794149Y-144510012D01*
X112437007Y-144510012D01*
X112294149Y-144438583D01*
X112222721Y-144295726D01*
X112222721Y-144152869D01*
X112294149Y-144010012D01*
X112437007Y-143938583D01*
X112794149Y-143938583D01*
X112937007Y-143867155D01*
X114294149Y-144510012D02*
X114294149Y-143010012D01*
X114294149Y-144438583D02*
X114151292Y-144510012D01*
X113865578Y-144510012D01*
X113722721Y-144438583D01*
X113651292Y-144367155D01*
X113579864Y-144224298D01*
X113579864Y-143795726D01*
X113651292Y-143652869D01*
X113722721Y-143581441D01*
X113865578Y-143510012D01*
X114151292Y-143510012D01*
X114294149Y-143581441D01*
X116865578Y-144510012D02*
X116151292Y-144510012D01*
X116151292Y-143010012D01*
X117365578Y-144510012D02*
X117365578Y-143510012D01*
X117365578Y-143010012D02*
X117294149Y-143081441D01*
X117365578Y-143152869D01*
X117437007Y-143081441D01*
X117365578Y-143010012D01*
X117365578Y-143152869D01*
X118722721Y-143510012D02*
X118722721Y-144724298D01*
X118651292Y-144867155D01*
X118579864Y-144938583D01*
X118437007Y-145010012D01*
X118222721Y-145010012D01*
X118079864Y-144938583D01*
X118722721Y-144438583D02*
X118579864Y-144510012D01*
X118294149Y-144510012D01*
X118151292Y-144438583D01*
X118079864Y-144367155D01*
X118008435Y-144224298D01*
X118008435Y-143795726D01*
X118079864Y-143652869D01*
X118151292Y-143581441D01*
X118294149Y-143510012D01*
X118579864Y-143510012D01*
X118722721Y-143581441D01*
X119437007Y-144510012D02*
X119437007Y-143010012D01*
X120079864Y-144510012D02*
X120079864Y-143724298D01*
X120008435Y-143581441D01*
X119865578Y-143510012D01*
X119651292Y-143510012D01*
X119508435Y-143581441D01*
X119437007Y-143652869D01*
X120579864Y-143510012D02*
X121151292Y-143510012D01*
X120794149Y-143010012D02*
X120794149Y-144295726D01*
X120865578Y-144438583D01*
X121008435Y-144510012D01*
X121151292Y-144510012D01*
X121651292Y-144510012D02*
X121651292Y-143510012D01*
X121651292Y-143010012D02*
X121579864Y-143081441D01*
X121651292Y-143152869D01*
X121722721Y-143081441D01*
X121651292Y-143010012D01*
X121651292Y-143152869D01*
X122365578Y-143510012D02*
X122365578Y-144510012D01*
X122365578Y-143652869D02*
X122437007Y-143581441D01*
X122579864Y-143510012D01*
X122794149Y-143510012D01*
X122937007Y-143581441D01*
X123008435Y-143724298D01*
X123008435Y-144510012D01*
X124365578Y-143510012D02*
X124365578Y-144724298D01*
X124294149Y-144867155D01*
X124222721Y-144938583D01*
X124079864Y-145010012D01*
X123865578Y-145010012D01*
X123722721Y-144938583D01*
X124365578Y-144438583D02*
X124222721Y-144510012D01*
X123937007Y-144510012D01*
X123794149Y-144438583D01*
X123722721Y-144367155D01*
X123651292Y-144224298D01*
X123651292Y-143795726D01*
X123722721Y-143652869D01*
X123794149Y-143581441D01*
X123937007Y-143510012D01*
X124222721Y-143510012D01*
X124365578Y-143581441D01*
X126222721Y-144510012D02*
X126222721Y-143010012D01*
X127079864Y-144510012D02*
X126437007Y-143652869D01*
X127079864Y-143010012D02*
X126222721Y-143867155D01*
X127722721Y-144510012D02*
X127722721Y-143510012D01*
X127722721Y-143010012D02*
X127651292Y-143081441D01*
X127722721Y-143152869D01*
X127794149Y-143081441D01*
X127722721Y-143010012D01*
X127722721Y-143152869D01*
X128222721Y-143510012D02*
X128794149Y-143510012D01*
X128437007Y-143010012D02*
X128437007Y-144295726D01*
X128508435Y-144438583D01*
X128651292Y-144510012D01*
X128794149Y-144510012D01*
X120343571Y-75085471D02*
X120343571Y-75371185D01*
X120915000Y-75085471D02*
X120915000Y-75371185D01*
X121415000Y-75085471D02*
X121772143Y-76585471D01*
X122057857Y-75514042D01*
X122343571Y-76585471D01*
X122700714Y-75085471D01*
X123272143Y-76585471D02*
X123272143Y-75085471D01*
X123915000Y-76585471D02*
X123915000Y-75799757D01*
X123843571Y-75656900D01*
X123700714Y-75585471D01*
X123486428Y-75585471D01*
X123343571Y-75656900D01*
X123272143Y-75728328D01*
X124486428Y-75585471D02*
X124843571Y-76585471D01*
X125200714Y-75585471D02*
X124843571Y-76585471D01*
X124700714Y-76942614D01*
X124629286Y-77014042D01*
X124486428Y-77085471D01*
X126843571Y-76514042D02*
X126986428Y-76585471D01*
X127272143Y-76585471D01*
X127415000Y-76514042D01*
X127486428Y-76371185D01*
X127486428Y-76299757D01*
X127415000Y-76156900D01*
X127272143Y-76085471D01*
X127057857Y-76085471D01*
X126915000Y-76014042D01*
X126843571Y-75871185D01*
X126843571Y-75799757D01*
X126915000Y-75656900D01*
X127057857Y-75585471D01*
X127272143Y-75585471D01*
X127415000Y-75656900D01*
X128700714Y-76514042D02*
X128557857Y-76585471D01*
X128272143Y-76585471D01*
X128129286Y-76514042D01*
X128057857Y-76371185D01*
X128057857Y-75799757D01*
X128129286Y-75656900D01*
X128272143Y-75585471D01*
X128557857Y-75585471D01*
X128700714Y-75656900D01*
X128772143Y-75799757D01*
X128772143Y-75942614D01*
X128057857Y-76085471D01*
X129200714Y-75585471D02*
X129772143Y-75585471D01*
X129415000Y-75085471D02*
X129415000Y-76371185D01*
X129486428Y-76514042D01*
X129629286Y-76585471D01*
X129772143Y-76585471D01*
X130057857Y-75585471D02*
X130629286Y-75585471D01*
X130272143Y-75085471D02*
X130272143Y-76371185D01*
X130343571Y-76514042D01*
X130486428Y-76585471D01*
X130629286Y-76585471D01*
X131343571Y-76585471D02*
X131200714Y-76514042D01*
X131129286Y-76371185D01*
X131129286Y-75085471D01*
X132486428Y-76514042D02*
X132343571Y-76585471D01*
X132057857Y-76585471D01*
X131915000Y-76514042D01*
X131843571Y-76371185D01*
X131843571Y-75799757D01*
X131915000Y-75656900D01*
X132057857Y-75585471D01*
X132343571Y-75585471D01*
X132486428Y-75656900D01*
X132557857Y-75799757D01*
X132557857Y-75942614D01*
X131843571Y-76085471D01*
X134129286Y-75585471D02*
X134700714Y-75585471D01*
X134343571Y-76585471D02*
X134343571Y-75299757D01*
X134415000Y-75156900D01*
X134557857Y-75085471D01*
X134700714Y-75085471D01*
X135415000Y-76585471D02*
X135272143Y-76514042D01*
X135200714Y-76442614D01*
X135129286Y-76299757D01*
X135129286Y-75871185D01*
X135200714Y-75728328D01*
X135272143Y-75656900D01*
X135415000Y-75585471D01*
X135629286Y-75585471D01*
X135772143Y-75656900D01*
X135843571Y-75728328D01*
X135915000Y-75871185D01*
X135915000Y-76299757D01*
X135843571Y-76442614D01*
X135772143Y-76514042D01*
X135629286Y-76585471D01*
X135415000Y-76585471D01*
X136557857Y-76585471D02*
X136557857Y-75585471D01*
X136557857Y-75871185D02*
X136629286Y-75728328D01*
X136700714Y-75656900D01*
X136843571Y-75585471D01*
X136986428Y-75585471D01*
X139272143Y-75585471D02*
X139272143Y-76585471D01*
X138915000Y-75014042D02*
X138557857Y-76085471D01*
X139486428Y-76085471D01*
X116593571Y-78000471D02*
X116879286Y-79000471D01*
X117165000Y-78286185D01*
X117450714Y-79000471D01*
X117736428Y-78000471D01*
X118307857Y-79000471D02*
X118307857Y-77500471D01*
X118950714Y-79000471D02*
X118950714Y-78214757D01*
X118879286Y-78071900D01*
X118736428Y-78000471D01*
X118522143Y-78000471D01*
X118379286Y-78071900D01*
X118307857Y-78143328D01*
X120236428Y-78929042D02*
X120093571Y-79000471D01*
X119807857Y-79000471D01*
X119665000Y-78929042D01*
X119593571Y-78786185D01*
X119593571Y-78214757D01*
X119665000Y-78071900D01*
X119807857Y-78000471D01*
X120093571Y-78000471D01*
X120236428Y-78071900D01*
X120307857Y-78214757D01*
X120307857Y-78357614D01*
X119593571Y-78500471D01*
X120950714Y-78000471D02*
X120950714Y-79000471D01*
X120950714Y-78143328D02*
X121022143Y-78071900D01*
X121165000Y-78000471D01*
X121379286Y-78000471D01*
X121522143Y-78071900D01*
X121593571Y-78214757D01*
X121593571Y-79000471D01*
X123307857Y-78000471D02*
X123665000Y-79000471D01*
X124022143Y-78000471D02*
X123665000Y-79000471D01*
X123522143Y-79357614D01*
X123450714Y-79429042D01*
X123307857Y-79500471D01*
X124807857Y-79000471D02*
X124665000Y-78929042D01*
X124593571Y-78857614D01*
X124522143Y-78714757D01*
X124522143Y-78286185D01*
X124593571Y-78143328D01*
X124665000Y-78071900D01*
X124807857Y-78000471D01*
X125022143Y-78000471D01*
X125165000Y-78071900D01*
X125236428Y-78143328D01*
X125307857Y-78286185D01*
X125307857Y-78714757D01*
X125236428Y-78857614D01*
X125165000Y-78929042D01*
X125022143Y-79000471D01*
X124807857Y-79000471D01*
X126593571Y-78000471D02*
X126593571Y-79000471D01*
X125950714Y-78000471D02*
X125950714Y-78786185D01*
X126022143Y-78929042D01*
X126165000Y-79000471D01*
X126379286Y-79000471D01*
X126522143Y-78929042D01*
X126593571Y-78857614D01*
X129093571Y-78929042D02*
X128950714Y-79000471D01*
X128665000Y-79000471D01*
X128522143Y-78929042D01*
X128450714Y-78857614D01*
X128379286Y-78714757D01*
X128379286Y-78286185D01*
X128450714Y-78143328D01*
X128522143Y-78071900D01*
X128665000Y-78000471D01*
X128950714Y-78000471D01*
X129093571Y-78071900D01*
X130379286Y-79000471D02*
X130379286Y-78214757D01*
X130307857Y-78071900D01*
X130165000Y-78000471D01*
X129879286Y-78000471D01*
X129736428Y-78071900D01*
X130379286Y-78929042D02*
X130236428Y-79000471D01*
X129879286Y-79000471D01*
X129736428Y-78929042D01*
X129665000Y-78786185D01*
X129665000Y-78643328D01*
X129736428Y-78500471D01*
X129879286Y-78429042D01*
X130236428Y-78429042D01*
X130379286Y-78357614D01*
X131093571Y-78000471D02*
X131093571Y-79000471D01*
X131093571Y-78143328D02*
X131165000Y-78071900D01*
X131307857Y-78000471D01*
X131522143Y-78000471D01*
X131665000Y-78071900D01*
X131736428Y-78214757D01*
X131736428Y-79000471D01*
X133593571Y-79000471D02*
X133593571Y-77500471D01*
X134236428Y-79000471D02*
X134236428Y-78214757D01*
X134165000Y-78071900D01*
X134022143Y-78000471D01*
X133807857Y-78000471D01*
X133665000Y-78071900D01*
X133593571Y-78143328D01*
X135593571Y-79000471D02*
X135593571Y-78214757D01*
X135522143Y-78071900D01*
X135379286Y-78000471D01*
X135093571Y-78000471D01*
X134950714Y-78071900D01*
X135593571Y-78929042D02*
X135450714Y-79000471D01*
X135093571Y-79000471D01*
X134950714Y-78929042D01*
X134879286Y-78786185D01*
X134879286Y-78643328D01*
X134950714Y-78500471D01*
X135093571Y-78429042D01*
X135450714Y-78429042D01*
X135593571Y-78357614D01*
X136165000Y-78000471D02*
X136522143Y-79000471D01*
X136879286Y-78000471D01*
X138022143Y-78929042D02*
X137879286Y-79000471D01*
X137593571Y-79000471D01*
X137450714Y-78929042D01*
X137379286Y-78786185D01*
X137379286Y-78214757D01*
X137450714Y-78071900D01*
X137593571Y-78000471D01*
X137879286Y-78000471D01*
X138022143Y-78071900D01*
X138093571Y-78214757D01*
X138093571Y-78357614D01*
X137379286Y-78500471D01*
X140593571Y-77500471D02*
X139879286Y-77500471D01*
X139807857Y-78214757D01*
X139879286Y-78143328D01*
X140022143Y-78071900D01*
X140379286Y-78071900D01*
X140522143Y-78143328D01*
X140593571Y-78214757D01*
X140665000Y-78357614D01*
X140665000Y-78714757D01*
X140593571Y-78857614D01*
X140522143Y-78929042D01*
X140379286Y-79000471D01*
X140022143Y-79000471D01*
X139879286Y-78929042D01*
X139807857Y-78857614D01*
X141522143Y-78857614D02*
X141593571Y-78929042D01*
X141522143Y-79000471D01*
X141450714Y-78929042D01*
X141522143Y-78857614D01*
X141522143Y-79000471D01*
X141236428Y-77571900D02*
X141379286Y-77500471D01*
X141736428Y-77500471D01*
X141879286Y-77571900D01*
X141950714Y-77714757D01*
X141950714Y-77857614D01*
X141879286Y-78000471D01*
X141807857Y-78071900D01*
X141665000Y-78143328D01*
X141593571Y-78214757D01*
X141522143Y-78357614D01*
X141522143Y-78429042D01*
X142522143Y-77500471D02*
X142522143Y-77786185D01*
X143093571Y-77500471D02*
X143093571Y-77786185D01*
D11*
%TO.C,D23*%
X157550000Y-83350000D03*
X157550000Y-86650000D03*
X162450000Y-86650000D03*
X162450000Y-83350000D03*
%TD*%
%TO.C,D18*%
X142550000Y-83350000D03*
X142550000Y-86650000D03*
X147450000Y-86650000D03*
X147450000Y-83350000D03*
%TD*%
%TO.C,D13*%
X127550000Y-83350000D03*
X127550000Y-86650000D03*
X132450000Y-86650000D03*
X132450000Y-83350000D03*
%TD*%
%TO.C,D7*%
X112550000Y-83350000D03*
X112550000Y-86650000D03*
X117450000Y-86650000D03*
X117450000Y-83350000D03*
%TD*%
%TO.C,D2*%
X102450000Y-83350000D03*
X102450000Y-86650000D03*
X97550000Y-86650000D03*
X97550000Y-83350000D03*
%TD*%
%TO.C,D25*%
X157550000Y-113350000D03*
X157550000Y-116650000D03*
X162450000Y-116650000D03*
X162450000Y-113350000D03*
%TD*%
%TO.C,D20*%
X142550000Y-113350000D03*
X142550000Y-116650000D03*
X147450000Y-116650000D03*
X147450000Y-113350000D03*
%TD*%
%TO.C,D15*%
X127550000Y-113350000D03*
X127550000Y-116650000D03*
X132450000Y-116650000D03*
X132450000Y-113350000D03*
%TD*%
%TO.C,D9*%
X112550000Y-113350000D03*
X112550000Y-116650000D03*
X117450000Y-116650000D03*
X117450000Y-113350000D03*
%TD*%
%TO.C,D4*%
X102450000Y-113350000D03*
X102450000Y-116650000D03*
X97550000Y-116650000D03*
X97550000Y-113350000D03*
%TD*%
D12*
%TO.C,U3*%
X81850200Y-63195600D03*
X84150200Y-63195600D03*
D13*
X84150200Y-56895600D03*
D12*
X86450200Y-63195600D03*
%TD*%
D14*
%TO.C,J10*%
X161793000Y-61271000D03*
D15*
X164333000Y-61271000D03*
%TD*%
D11*
%TO.C,D5*%
X97550000Y-128350000D03*
X97550000Y-131650000D03*
X102450000Y-131650000D03*
X102450000Y-128350000D03*
%TD*%
D16*
%TO.C,U1*%
X86487000Y-73704000D03*
X87757000Y-73704000D03*
X89027000Y-73704000D03*
X90297000Y-73704000D03*
X90297000Y-66504000D03*
X89027000Y-66504000D03*
X87757000Y-66504000D03*
X86487000Y-66504000D03*
%TD*%
D11*
%TO.C,D1*%
X97550000Y-68350000D03*
X97550000Y-71650000D03*
X102450000Y-71650000D03*
X102450000Y-68350000D03*
%TD*%
D17*
%TO.C,R9*%
X165697500Y-65015626D03*
X164502500Y-65015626D03*
%TD*%
D18*
%TO.C,J2*%
X98975000Y-56095000D03*
X98125000Y-56095000D03*
X97275000Y-56095000D03*
X96425000Y-56095000D03*
X95575000Y-56095000D03*
X94725000Y-56095000D03*
X93875000Y-56095000D03*
X93025000Y-56095000D03*
X93025000Y-54745000D03*
X93875000Y-54745000D03*
X94725000Y-54745000D03*
X95575000Y-54745000D03*
X96425000Y-54745000D03*
X97275000Y-54745000D03*
X98125000Y-54745000D03*
X98975000Y-54745000D03*
D19*
X91675000Y-51735000D03*
X100325000Y-51735000D03*
D20*
X91675000Y-55115000D03*
X100325000Y-55115000D03*
%TD*%
D11*
%TO.C,D12*%
X127550000Y-68350000D03*
X127550000Y-71650000D03*
X132450000Y-71650000D03*
X132450000Y-68350000D03*
%TD*%
%TO.C,D19*%
X142550000Y-98350000D03*
X142550000Y-101650000D03*
X147450000Y-101650000D03*
X147450000Y-98350000D03*
%TD*%
D21*
%TO.C,R2*%
X116230400Y-53123500D03*
X116230400Y-54318500D03*
%TD*%
D22*
%TO.C,SW2*%
X130338000Y-56059000D03*
X130338000Y-62559000D03*
X134838000Y-56059000D03*
X134838000Y-62559000D03*
%TD*%
D11*
%TO.C,D21*%
X142550000Y-128350000D03*
X142550000Y-131650000D03*
X147450000Y-131650000D03*
X147450000Y-128350000D03*
%TD*%
D23*
%TO.C,C10*%
X120091200Y-60900500D03*
X120091200Y-62035500D03*
%TD*%
D14*
%TO.C,J4*%
X143256000Y-62235000D03*
D15*
X143256000Y-59695000D03*
X145796000Y-62235000D03*
X145796000Y-59695000D03*
X148336000Y-62235000D03*
X148336000Y-59695000D03*
X150876000Y-62235000D03*
X150876000Y-59695000D03*
X153416000Y-62235000D03*
X153416000Y-59695000D03*
X155956000Y-62235000D03*
X155956000Y-59695000D03*
%TD*%
D24*
%TO.C,J8*%
X83769200Y-142849600D03*
D25*
X83769200Y-135549600D03*
D26*
X83769200Y-130049600D03*
%TD*%
D11*
%TO.C,D3*%
X97550000Y-98350000D03*
X97550000Y-101650000D03*
X102450000Y-101650000D03*
X102450000Y-98350000D03*
%TD*%
D17*
%TO.C,R10*%
X161633500Y-65015626D03*
X160438500Y-65015626D03*
%TD*%
D23*
%TO.C,C11*%
X120091200Y-55414100D03*
X120091200Y-56549100D03*
%TD*%
D11*
%TO.C,D16*%
X127550000Y-128350000D03*
X127550000Y-131650000D03*
X132450000Y-131650000D03*
X132450000Y-128350000D03*
%TD*%
D27*
%TO.C,C7*%
X109270800Y-53704300D03*
X109270800Y-52569300D03*
%TD*%
D28*
%TO.C,C5*%
X107120500Y-64389000D03*
X105985500Y-64389000D03*
%TD*%
D21*
%TO.C,R7*%
X89276871Y-51362500D03*
X89276871Y-52557500D03*
%TD*%
D11*
%TO.C,D26*%
X157550000Y-128350000D03*
X157550000Y-131650000D03*
X162450000Y-131650000D03*
X162450000Y-128350000D03*
%TD*%
D29*
%TO.C,C12*%
X114621500Y-63677800D03*
X115756500Y-63677800D03*
%TD*%
D11*
%TO.C,D17*%
X142550000Y-68350000D03*
X142550000Y-71650000D03*
X147450000Y-71650000D03*
X147450000Y-68350000D03*
%TD*%
D17*
%TO.C,R8*%
X118301100Y-60502800D03*
X117106100Y-60502800D03*
%TD*%
D30*
%TO.C,R3*%
X103275000Y-65322500D03*
X103275000Y-64127500D03*
%TD*%
D31*
%TO.C,J5*%
X140074000Y-54712000D03*
D32*
X142574000Y-54712000D03*
X145074000Y-54712000D03*
X147574000Y-54712000D03*
X150074000Y-54712000D03*
X152574000Y-54712000D03*
X155074000Y-54712000D03*
%TD*%
D28*
%TO.C,C3*%
X105150657Y-55321200D03*
X104015657Y-55321200D03*
%TD*%
D29*
%TO.C,C2*%
X117136100Y-56997600D03*
X118271100Y-56997600D03*
%TD*%
D11*
%TO.C,D8*%
X112550000Y-98350000D03*
X112550000Y-101650000D03*
X117450000Y-101650000D03*
X117450000Y-98350000D03*
%TD*%
%TO.C,D14*%
X127550000Y-98350000D03*
X127550000Y-101650000D03*
X132450000Y-101650000D03*
X132450000Y-98350000D03*
%TD*%
D33*
%TO.C,D11*%
X82550000Y-77089000D03*
D34*
X82550000Y-87249000D03*
%TD*%
D22*
%TO.C,SW1*%
X86142000Y-79046000D03*
X86142000Y-85546000D03*
X90642000Y-85546000D03*
X90642000Y-79046000D03*
%TD*%
D23*
%TO.C,C13*%
X84526188Y-68012500D03*
X84526188Y-69147500D03*
%TD*%
D27*
%TO.C,C6*%
X106019600Y-53704300D03*
X106019600Y-52569300D03*
%TD*%
D35*
%TO.C,U2*%
X108639972Y-62103000D03*
X109039972Y-62103000D03*
X109439972Y-62103000D03*
X109839972Y-62103000D03*
X110239972Y-62103000D03*
X110639972Y-62103000D03*
X111039972Y-62103000D03*
X111439972Y-62103000D03*
X111839972Y-62103000D03*
X112239972Y-62103000D03*
X112639972Y-62103000D03*
X113039972Y-62103000D03*
X113439972Y-62103000D03*
X113839972Y-62103000D03*
D36*
X114677472Y-61265500D03*
X114677472Y-60865500D03*
X114677472Y-60465500D03*
X114677472Y-60065500D03*
X114677472Y-59665500D03*
X114677472Y-59265500D03*
X114677472Y-58865500D03*
X114677472Y-58465500D03*
X114677472Y-58065500D03*
X114677472Y-57665500D03*
X114677472Y-57265500D03*
X114677472Y-56865500D03*
X114677472Y-56465500D03*
X114677472Y-56065500D03*
D35*
X113839972Y-55228000D03*
X113439972Y-55228000D03*
X113039972Y-55228000D03*
X112639972Y-55228000D03*
X112239972Y-55228000D03*
X111839972Y-55228000D03*
X111439972Y-55228000D03*
X111039972Y-55228000D03*
X110639972Y-55228000D03*
X110239972Y-55228000D03*
X109839972Y-55228000D03*
X109439972Y-55228000D03*
X109039972Y-55228000D03*
X108639972Y-55228000D03*
D36*
X107802472Y-56065500D03*
X107802472Y-56465500D03*
X107802472Y-56865500D03*
X107802472Y-57265500D03*
X107802472Y-57665500D03*
X107802472Y-58065500D03*
X107802472Y-58465500D03*
X107802472Y-58865500D03*
X107802472Y-59265500D03*
X107802472Y-59665500D03*
X107802472Y-60065500D03*
X107802472Y-60465500D03*
X107802472Y-60865500D03*
X107802472Y-61265500D03*
D37*
X111239972Y-58665500D03*
%TD*%
D17*
%TO.C,R1*%
X88989500Y-76708000D03*
X87794500Y-76708000D03*
%TD*%
D27*
%TO.C,C8*%
X112217200Y-53602700D03*
X112217200Y-52467700D03*
%TD*%
D38*
%TO.C,Y1*%
X123799600Y-57900400D03*
X123799600Y-62780400D03*
%TD*%
D11*
%TO.C,D6*%
X112550000Y-68350000D03*
X112550000Y-71650000D03*
X117450000Y-71650000D03*
X117450000Y-68350000D03*
%TD*%
D27*
%TO.C,C15*%
X107645200Y-53704300D03*
X107645200Y-52569300D03*
%TD*%
D17*
%TO.C,R5*%
X97701700Y-57683400D03*
X96506700Y-57683400D03*
%TD*%
D11*
%TO.C,D22*%
X157550000Y-68350000D03*
X157550000Y-71650000D03*
X162450000Y-71650000D03*
X162450000Y-68350000D03*
%TD*%
D39*
%TO.C,J12*%
X98293000Y-64287400D03*
D40*
X99563000Y-64287400D03*
X100833000Y-64287400D03*
%TD*%
D23*
%TO.C,C4*%
X84531200Y-71144200D03*
X84531200Y-72279200D03*
%TD*%
D28*
%TO.C,C9*%
X103056500Y-59944000D03*
X101921500Y-59944000D03*
%TD*%
%TO.C,C16*%
X82840588Y-66022100D03*
X81705588Y-66022100D03*
%TD*%
D23*
%TO.C,C1*%
X104648000Y-59884500D03*
X104648000Y-61019500D03*
%TD*%
D29*
%TO.C,C14*%
X116831300Y-58674000D03*
X117966300Y-58674000D03*
%TD*%
D14*
%TO.C,J1*%
X124221000Y-52324000D03*
D15*
X126761000Y-52324000D03*
X129301000Y-52324000D03*
%TD*%
D24*
%TO.C,J9*%
X87161000Y-107569000D03*
D41*
X94461000Y-107569000D03*
D42*
X99961000Y-107569000D03*
%TD*%
D39*
%TO.C,J11*%
X165608000Y-128773000D03*
D40*
X165608000Y-130043000D03*
X165608000Y-131313000D03*
%TD*%
D24*
%TO.C,J6*%
X176225200Y-57036600D03*
D43*
X176225200Y-64336600D03*
D26*
X176225200Y-69836600D03*
%TD*%
D11*
%TO.C,D24*%
X157550000Y-98350000D03*
X157550000Y-101650000D03*
X162450000Y-101650000D03*
X162450000Y-98350000D03*
%TD*%
D24*
%TO.C,J7*%
X172935000Y-146253200D03*
D44*
X165635000Y-146253200D03*
D42*
X160135000Y-146253200D03*
%TD*%
D11*
%TO.C,D10*%
X112550000Y-128350000D03*
X112550000Y-131650000D03*
X117450000Y-131650000D03*
X117450000Y-128350000D03*
%TD*%
D45*
%TO.C,J3*%
X89708400Y-91815600D03*
D46*
X89708400Y-94315600D03*
%TD*%
D47*
%TO.C,R6*%
X96506700Y-59664600D03*
X97701700Y-59664600D03*
%TD*%
D17*
%TO.C,R4*%
X97701700Y-58674000D03*
X96506700Y-58674000D03*
%TD*%
M02*
