%TF.GenerationSoftware,KiCad,Pcbnew,(6.0.8)*%
%TF.CreationDate,2023-01-27T01:29:18-07:00*%
%TF.ProjectId,Panel,50616e65-6c2e-46b6-9963-61645f706362,rev?*%
%TF.SameCoordinates,Original*%
%TF.FileFunction,Soldermask,Bot*%
%TF.FilePolarity,Negative*%
%FSLAX46Y46*%
G04 Gerber Fmt 4.6, Leading zero omitted, Abs format (unit mm)*
G04 Created by KiCad (PCBNEW (6.0.8)) date 2023-01-27 01:29:18*
%MOMM*%
%LPD*%
G01*
G04 APERTURE LIST*
G04 Aperture macros list*
%AMRoundRect*
0 Rectangle with rounded corners*
0 $1 Rounding radius*
0 $2 $3 $4 $5 $6 $7 $8 $9 X,Y pos of 4 corners*
0 Add a 4 corners polygon primitive as box body*
4,1,4,$2,$3,$4,$5,$6,$7,$8,$9,$2,$3,0*
0 Add four circle primitives for the rounded corners*
1,1,$1+$1,$2,$3*
1,1,$1+$1,$4,$5*
1,1,$1+$1,$6,$7*
1,1,$1+$1,$8,$9*
0 Add four rect primitives between the rounded corners*
20,1,$1+$1,$2,$3,$4,$5,0*
20,1,$1+$1,$4,$5,$6,$7,0*
20,1,$1+$1,$6,$7,$8,$9,0*
20,1,$1+$1,$8,$9,$2,$3,0*%
G04 Aperture macros list end*
%ADD10R,1.700000X1.700000*%
%ADD11O,1.700000X1.700000*%
%ADD12C,0.700000*%
%ADD13O,0.900000X1.700000*%
%ADD14O,0.900000X2.400000*%
%ADD15C,2.000000*%
%ADD16C,3.000000*%
%ADD17RoundRect,0.250001X1.099999X1.599999X-1.099999X1.599999X-1.099999X-1.599999X1.099999X-1.599999X0*%
%ADD18O,2.700000X3.700000*%
%ADD19R,1.800000X1.800000*%
%ADD20O,1.800000X1.800000*%
%ADD21R,2.200000X2.200000*%
%ADD22O,2.200000X2.200000*%
%ADD23C,1.500000*%
%ADD24R,1.000000X1.000000*%
%ADD25O,1.000000X1.000000*%
%ADD26RoundRect,0.250001X1.599999X-1.099999X1.599999X1.099999X-1.599999X1.099999X-1.599999X-1.099999X0*%
%ADD27O,3.700000X2.700000*%
%ADD28RoundRect,0.250001X-1.099999X-1.599999X1.099999X-1.599999X1.099999X1.599999X-1.099999X1.599999X0*%
%ADD29RoundRect,0.250001X-1.599999X1.099999X-1.599999X-1.099999X1.599999X-1.099999X1.599999X1.099999X0*%
%ADD30RoundRect,0.250000X-0.750000X0.600000X-0.750000X-0.600000X0.750000X-0.600000X0.750000X0.600000X0*%
%ADD31O,2.000000X1.700000*%
G04 APERTURE END LIST*
D10*
%TO.C,J10*%
X161793000Y-61271000D03*
D11*
X164333000Y-61271000D03*
%TD*%
D12*
%TO.C,J2*%
X98975000Y-56095000D03*
X98125000Y-56095000D03*
X97275000Y-56095000D03*
X96425000Y-56095000D03*
X95575000Y-56095000D03*
X94725000Y-56095000D03*
X93875000Y-56095000D03*
X93025000Y-56095000D03*
X93025000Y-54745000D03*
X93875000Y-54745000D03*
X94725000Y-54745000D03*
X95575000Y-54745000D03*
X96425000Y-54745000D03*
X97275000Y-54745000D03*
X98125000Y-54745000D03*
X98975000Y-54745000D03*
D13*
X91675000Y-51735000D03*
X100325000Y-51735000D03*
D14*
X91675000Y-55115000D03*
X100325000Y-55115000D03*
%TD*%
D15*
%TO.C,SW2*%
X130338000Y-56059000D03*
X130338000Y-62559000D03*
X134838000Y-56059000D03*
X134838000Y-62559000D03*
%TD*%
D10*
%TO.C,J4*%
X143256000Y-62235000D03*
D11*
X143256000Y-59695000D03*
X145796000Y-62235000D03*
X145796000Y-59695000D03*
X148336000Y-62235000D03*
X148336000Y-59695000D03*
X150876000Y-62235000D03*
X150876000Y-59695000D03*
X153416000Y-62235000D03*
X153416000Y-59695000D03*
X155956000Y-62235000D03*
X155956000Y-59695000D03*
%TD*%
D16*
%TO.C,J8*%
X83769200Y-142849600D03*
D17*
X83769200Y-135549600D03*
D18*
X83769200Y-130049600D03*
%TD*%
D19*
%TO.C,J5*%
X140074000Y-54712000D03*
D20*
X142574000Y-54712000D03*
X145074000Y-54712000D03*
X147574000Y-54712000D03*
X150074000Y-54712000D03*
X152574000Y-54712000D03*
X155074000Y-54712000D03*
%TD*%
D21*
%TO.C,D11*%
X82550000Y-77089000D03*
D22*
X82550000Y-87249000D03*
%TD*%
D15*
%TO.C,SW1*%
X86142000Y-79046000D03*
X86142000Y-85546000D03*
X90642000Y-85546000D03*
X90642000Y-79046000D03*
%TD*%
D23*
%TO.C,Y1*%
X123799600Y-57900400D03*
X123799600Y-62780400D03*
%TD*%
D24*
%TO.C,J12*%
X98293000Y-64287400D03*
D25*
X99563000Y-64287400D03*
X100833000Y-64287400D03*
%TD*%
D10*
%TO.C,J1*%
X124221000Y-52324000D03*
D11*
X126761000Y-52324000D03*
X129301000Y-52324000D03*
%TD*%
D16*
%TO.C,J9*%
X87161000Y-107569000D03*
D26*
X94461000Y-107569000D03*
D27*
X99961000Y-107569000D03*
%TD*%
D24*
%TO.C,J11*%
X165608000Y-128773000D03*
D25*
X165608000Y-130043000D03*
X165608000Y-131313000D03*
%TD*%
D16*
%TO.C,J6*%
X176225200Y-57036600D03*
D28*
X176225200Y-64336600D03*
D18*
X176225200Y-69836600D03*
%TD*%
D16*
%TO.C,J7*%
X172935000Y-146253200D03*
D29*
X165635000Y-146253200D03*
D27*
X160135000Y-146253200D03*
%TD*%
D30*
%TO.C,J3*%
X89708400Y-91815600D03*
D31*
X89708400Y-94315600D03*
%TD*%
M02*
