%TF.GenerationSoftware,KiCad,Pcbnew,(6.0.8)*%
%TF.CreationDate,2023-01-27T02:12:52-07:00*%
%TF.ProjectId,Panel,50616e65-6c2e-46b6-9963-61645f706362,rev?*%
%TF.SameCoordinates,Original*%
%TF.FileFunction,Drillmap*%
%TF.FilePolarity,Positive*%
%FSLAX45Y45*%
G04 Gerber Fmt 4.5, Leading zero omitted, Abs format (unit mm)*
G04 Created by KiCad (PCBNEW (6.0.8)) date 2023-01-27 02:12:52*
%MOMM*%
%LPD*%
G01*
G04 APERTURE LIST*
%ADD10C,0.352776*%
%ADD11C,0.100000*%
%ADD12C,0.200000*%
%ADD13C,0.035000*%
%ADD14C,0.040000*%
%ADD15C,0.060000*%
%ADD16C,0.065000*%
%ADD17C,0.080000*%
%ADD18C,0.110000*%
%ADD19C,0.120000*%
%ADD20C,0.180000*%
G04 APERTURE END LIST*
D10*
X9013090Y-13804771D02*
X9021349Y-13803722D01*
X8945953Y-14104744D02*
X8939482Y-14100143D01*
X16953371Y-5887757D02*
X16953371Y-5887757D01*
X8905978Y-14066639D02*
X8901377Y-14060169D01*
X17017608Y-5900726D02*
X17024918Y-5904031D01*
X16789193Y-13984805D02*
X16788556Y-13976425D01*
X9136961Y-5920507D02*
X9143196Y-5925406D01*
X17017558Y-13815907D02*
X17024867Y-13819212D01*
X9193237Y-13911157D02*
X9195832Y-13918825D01*
X9029730Y-14132714D02*
X9021349Y-14132077D01*
X17118329Y-13967935D02*
X17118329Y-13967935D01*
X9143196Y-5925406D02*
X9149184Y-5930593D01*
X9193237Y-14024642D02*
X9190282Y-14032136D01*
X9201350Y-6077883D02*
X9199898Y-6086010D01*
X16836667Y-14084604D02*
X16831204Y-14078873D01*
X9179359Y-6138324D02*
X9175067Y-6145020D01*
X9130491Y-13831054D02*
X9136961Y-13835655D01*
X8873193Y-6052751D02*
X8873193Y-6052751D01*
X16791694Y-6086045D02*
X16790243Y-6077918D01*
X8880612Y-6101825D02*
X8878388Y-6093994D01*
X16861086Y-13831120D02*
X16867780Y-13826828D01*
X9071481Y-5891075D02*
X9079465Y-5892917D01*
X9038222Y-5887722D02*
X9038222Y-5887722D01*
X9004963Y-6214427D02*
X8996979Y-6212584D01*
X16920112Y-6214462D02*
X16912128Y-6212620D01*
X17105431Y-6117023D02*
X17102127Y-6124333D01*
X8910877Y-13862925D02*
X8916064Y-13856937D01*
X17075529Y-5941824D02*
X17080716Y-5947812D01*
X8910877Y-6157724D02*
X8905978Y-6151490D01*
X9198055Y-13926656D02*
X9199898Y-13934640D01*
X17108386Y-6109529D02*
X17105431Y-6117023D01*
X17080716Y-5947812D02*
X17085615Y-5954047D01*
X9203251Y-6052751D02*
X9203036Y-6061243D01*
X16874689Y-13822855D02*
X16881804Y-13819212D01*
X9203251Y-6052751D02*
X9203251Y-6052751D01*
X16801310Y-6117023D02*
X16798355Y-6109529D01*
X9203251Y-13967900D02*
X9203036Y-13976392D01*
X8878388Y-14009143D02*
X8876545Y-14001159D01*
X8897085Y-5967177D02*
X8901377Y-5960481D01*
X17064274Y-13845804D02*
X17070004Y-13851267D01*
X17094443Y-14053491D02*
X17090151Y-14060185D01*
X16831204Y-13856997D02*
X16836667Y-13851267D01*
X16812233Y-6138360D02*
X16808259Y-6131449D01*
X16928239Y-6215914D02*
X16920112Y-6214462D01*
X8981479Y-5897736D02*
X8989147Y-5895141D01*
X16904296Y-5895176D02*
X16912128Y-5892952D01*
X9102459Y-5900691D02*
X9109769Y-5903995D01*
X9021349Y-13803722D02*
X9029730Y-13803084D01*
X8897085Y-13882326D02*
X8901377Y-13875630D01*
X9202399Y-13951026D02*
X9203036Y-13959407D01*
X9202399Y-13984773D02*
X9201350Y-13993032D01*
X9154915Y-13851206D02*
X9160379Y-13856937D01*
X16920083Y-13806294D02*
X16928208Y-13804843D01*
X17010114Y-5897771D02*
X17017608Y-5900726D01*
X16854617Y-13835720D02*
X16861086Y-13831120D01*
X8905978Y-5954011D02*
X8910877Y-5947777D01*
D11*
X17400000Y-15000000D02*
X18000000Y-14400000D01*
D10*
X17038891Y-13826828D02*
X17045585Y-13831120D01*
X9165566Y-6157724D02*
X9160379Y-6163712D01*
X16861086Y-14104751D02*
X16854617Y-14100151D01*
X17017558Y-14119963D02*
X17010066Y-14122917D01*
X8981479Y-13812884D02*
X8989147Y-13810289D01*
X8989147Y-13810289D02*
X8996979Y-13808065D01*
X8883207Y-5996008D02*
X8886162Y-5988514D01*
X16842397Y-13845804D02*
X16848384Y-13840618D01*
X16848397Y-5925442D02*
X16854631Y-5920542D01*
X16791694Y-6019527D02*
X16793537Y-6011543D01*
X16808255Y-14046581D02*
X16804611Y-14039467D01*
X16808255Y-13889289D02*
X16812228Y-13882380D01*
X9004963Y-14129576D02*
X8996979Y-14127733D01*
X17058345Y-5925442D02*
X17064333Y-5930629D01*
X8883207Y-13911157D02*
X8886162Y-13903663D01*
X9193237Y-5996008D02*
X9195832Y-6003676D01*
X8966675Y-5903995D02*
X8973985Y-5900691D01*
X9190282Y-6116987D02*
X9186977Y-6124298D01*
X8939482Y-6184994D02*
X8933248Y-6180095D01*
X16944845Y-13803156D02*
X16953335Y-13802941D01*
X9201350Y-13942767D02*
X9202399Y-13951026D01*
X9038222Y-13802870D02*
X9046714Y-13803084D01*
X8996979Y-6212584D02*
X8989147Y-6210360D01*
X9202399Y-6069624D02*
X9201350Y-6077883D01*
X16848384Y-14095252D02*
X16842397Y-14090067D01*
X8966675Y-6201506D02*
X8959559Y-6197862D01*
X9102459Y-6204811D02*
X9094964Y-6207766D01*
X16808259Y-5974123D02*
X16812233Y-5967213D01*
X16928239Y-5889658D02*
X16936498Y-5888609D01*
X9130491Y-14104744D02*
X9123795Y-14109037D01*
X16788556Y-6044294D02*
X16789193Y-6035913D01*
X9160379Y-5941789D02*
X9165566Y-5947777D01*
X16874708Y-6197897D02*
X16867797Y-6193923D01*
X9199898Y-14001159D02*
X9198055Y-14009143D01*
X16788341Y-6052786D02*
X16788556Y-6044294D01*
X9195832Y-13918825D02*
X9198055Y-13926656D01*
X9116884Y-6197862D02*
X9109769Y-6201506D01*
X17105363Y-14032158D02*
X17102059Y-14039467D01*
X16831213Y-5941824D02*
X16836677Y-5936093D01*
X8916064Y-14078861D02*
X8910877Y-14072873D01*
X9130491Y-6189595D02*
X9123795Y-6193888D01*
X17052111Y-5920542D02*
X17058345Y-5925442D01*
X17032034Y-5907675D02*
X17038945Y-5911649D01*
X17070064Y-6169479D02*
X17064333Y-6174944D01*
X17031981Y-14113015D02*
X17024867Y-14116659D01*
X16953335Y-14132929D02*
X16944845Y-14132714D01*
X16953371Y-6217815D02*
X16944879Y-6217600D01*
X8889466Y-13896353D02*
X8893111Y-13889237D01*
X17085551Y-13869217D02*
X17090151Y-13875685D01*
X16936466Y-14132077D02*
X16928208Y-14131028D01*
X9143196Y-14095244D02*
X9136961Y-14100143D01*
X16795761Y-6101861D02*
X16793537Y-6094029D01*
X9186977Y-5981204D02*
X9190282Y-5988514D01*
X17090151Y-13875685D02*
X17094443Y-13882380D01*
X9029730Y-6217565D02*
X9021349Y-6216928D01*
X17002399Y-14125511D02*
X16994570Y-14127734D01*
X17075467Y-14078873D02*
X17070004Y-14084604D01*
X16978462Y-13804843D02*
X16986587Y-13806294D01*
X17002399Y-13810359D02*
X17010066Y-13812953D01*
X8886162Y-5988514D02*
X8889466Y-5981204D01*
X16904271Y-14125511D02*
X16896605Y-14122917D01*
X9195832Y-6101825D02*
X9193237Y-6109493D01*
X16889134Y-6204846D02*
X16881824Y-6201541D01*
X8893111Y-5974088D02*
X8897085Y-5967177D01*
X9079465Y-5892917D02*
X9087296Y-5895141D01*
X8952648Y-6193888D02*
X8945953Y-6189595D01*
X17110981Y-6003712D02*
X17113205Y-6011543D01*
X17085615Y-6151526D02*
X17080716Y-6157760D01*
X17118400Y-6052786D02*
X17118185Y-6061279D01*
X17070064Y-5936093D02*
X17075529Y-5941824D01*
X16801310Y-5988549D02*
X16804615Y-5981239D01*
X9021349Y-5888574D02*
X9029730Y-5887936D01*
X8939482Y-14100143D02*
X8933248Y-14095244D01*
X9004963Y-13806223D02*
X9013090Y-13804771D01*
X8910877Y-14072873D02*
X8905978Y-14066639D01*
X16936498Y-6216963D02*
X16928239Y-6215914D01*
X9193237Y-6109493D02*
X9190282Y-6116987D01*
X8939482Y-5920507D02*
X8945953Y-5915906D01*
X8952648Y-14109037D02*
X8945953Y-14104744D01*
X9094964Y-13812884D02*
X9102459Y-13815839D01*
X8873407Y-6061243D02*
X8873193Y-6052751D01*
X9038222Y-6217780D02*
X9029730Y-6217565D01*
X17108317Y-13911205D02*
X17110911Y-13918871D01*
X9149184Y-6174908D02*
X9143196Y-6180095D01*
X8921529Y-14084593D02*
X8916064Y-14078861D01*
X16867797Y-6193923D02*
X16861101Y-6189631D01*
X17113205Y-6094029D02*
X17110981Y-6101861D01*
X16826026Y-5947812D02*
X16831213Y-5941824D01*
X9087296Y-5895141D02*
X9094964Y-5897736D01*
X8880612Y-6003676D02*
X8883207Y-5996008D01*
X17098415Y-14046581D02*
X17094443Y-14053491D01*
X9160379Y-6163712D02*
X9154915Y-6169444D01*
X16791693Y-13934683D02*
X16793536Y-13926700D01*
X16994614Y-6212620D02*
X16986630Y-6214462D01*
X16793537Y-6011543D02*
X16795761Y-6003712D01*
X8989147Y-6210360D02*
X8981479Y-6207766D01*
X16826018Y-14072887D02*
X16821120Y-14066654D01*
X8905978Y-6151490D02*
X8901377Y-6145020D01*
X16889134Y-5900726D02*
X16896628Y-5897771D01*
X9046714Y-5887936D02*
X9055095Y-5888574D01*
X9199898Y-13934640D02*
X9201350Y-13942767D01*
X16928208Y-14131028D02*
X16920083Y-14129577D01*
X9175067Y-14060169D02*
X9170466Y-14066639D01*
X9021349Y-14132077D02*
X9013090Y-14131027D01*
X9013090Y-5889623D02*
X9021349Y-5888574D01*
X17117477Y-13984805D02*
X17116428Y-13993062D01*
X8878388Y-13926656D02*
X8880612Y-13918825D01*
X17070004Y-13851267D02*
X17075467Y-13856997D01*
X17118329Y-13967935D02*
X17118115Y-13976425D01*
X17064274Y-14090067D02*
X17058287Y-14095252D01*
X9154915Y-14084593D02*
X9149184Y-14090057D01*
X16816526Y-5960517D02*
X16821127Y-5954047D01*
X9190282Y-13903663D02*
X9193237Y-13911157D01*
X17045585Y-13831120D02*
X17052054Y-13835720D01*
X16812233Y-5967213D02*
X16816526Y-5960517D01*
X16994614Y-5892952D02*
X17002446Y-5895176D01*
X16793536Y-13926700D02*
X16795759Y-13918871D01*
X16928208Y-13804843D02*
X16936466Y-13803793D01*
X16798355Y-5996044D02*
X16801310Y-5988549D01*
X17115047Y-6019527D02*
X17116499Y-6027654D01*
X9198055Y-6093994D02*
X9195832Y-6101825D01*
X8889466Y-5981204D02*
X8893111Y-5974088D01*
X17114977Y-14001187D02*
X17113135Y-14009170D01*
X16831204Y-14078873D02*
X16826018Y-14072887D01*
X16790243Y-6027654D02*
X16791694Y-6019527D01*
D11*
X18000000Y-5600000D02*
X18000000Y-14400000D01*
D10*
X9038222Y-5887722D02*
X9046714Y-5887936D01*
X8933248Y-5925406D02*
X8939482Y-5920507D01*
X16789193Y-6035913D02*
X16790243Y-6027654D01*
X8945953Y-5915906D02*
X8952648Y-5911614D01*
X16936498Y-5888609D02*
X16944879Y-5887972D01*
X9179359Y-14053473D02*
X9175067Y-14060169D01*
X9038222Y-6217780D02*
X9038222Y-6217780D01*
X16867797Y-5911649D02*
X16874708Y-5907675D01*
X8927260Y-5930593D02*
X8933248Y-5925406D01*
X17064333Y-6174944D02*
X17058345Y-6180130D01*
X8981479Y-14122915D02*
X8973985Y-14119960D01*
X8996979Y-5892917D02*
X9004963Y-5891075D01*
X16793537Y-6094029D02*
X16791694Y-6086045D01*
X16986587Y-13806294D02*
X16994570Y-13808136D01*
X17102059Y-13896403D02*
X17105363Y-13903712D01*
X16842397Y-14090067D02*
X16836667Y-14084604D01*
X16790242Y-13993062D02*
X16789193Y-13984805D01*
X8893111Y-13889237D02*
X8897085Y-13882326D01*
X9055095Y-6216928D02*
X9046714Y-6217565D01*
X9149184Y-5930593D02*
X9154915Y-5936058D01*
X16986630Y-5891110D02*
X16994614Y-5892952D01*
X17118400Y-6052786D02*
X17118400Y-6052786D01*
X9186977Y-13896353D02*
X9190282Y-13903663D01*
X16867780Y-14109042D02*
X16861086Y-14104751D01*
X9190282Y-5988514D02*
X9193237Y-5996008D01*
X9154915Y-6169444D02*
X9149184Y-6174908D01*
X17094508Y-6138360D02*
X17090216Y-6145055D01*
X9038222Y-14132929D02*
X9038222Y-14132929D01*
X8981479Y-6207766D02*
X8973985Y-6204811D01*
X17113135Y-13926700D02*
X17114977Y-13934683D01*
X16790243Y-6077918D02*
X16789193Y-6069659D01*
X8973985Y-5900691D02*
X8981479Y-5897736D01*
X8921529Y-5936058D02*
X8927260Y-5930593D01*
X9201350Y-6027618D02*
X9202399Y-6035877D01*
X8878388Y-6011507D02*
X8880612Y-6003676D01*
X17098415Y-13889289D02*
X17102059Y-13896403D01*
X9165566Y-5947777D02*
X9170466Y-5954011D01*
X16808259Y-6131449D02*
X16804615Y-6124333D01*
X16795759Y-13918871D02*
X16798353Y-13911205D01*
X16848397Y-6180130D02*
X16842409Y-6174944D01*
X9029730Y-13803084D02*
X9038222Y-13802870D01*
X9179359Y-13882326D02*
X9183333Y-13889237D01*
X17117477Y-13951065D02*
X17118115Y-13959444D01*
X9109769Y-14116655D02*
X9102459Y-14119960D01*
X8876545Y-6086010D02*
X8875094Y-6077883D01*
X9203251Y-13967900D02*
X9203251Y-13967900D01*
X16978503Y-6215914D02*
X16970244Y-6216963D01*
X9143196Y-13840555D02*
X9149184Y-13845742D01*
X9038222Y-14132929D02*
X9029730Y-14132714D01*
X9160379Y-14078861D02*
X9154915Y-14084593D01*
X8886162Y-6116987D02*
X8883207Y-6109493D01*
X9046714Y-13803084D02*
X9055095Y-13803722D01*
X17075467Y-13856997D02*
X17080653Y-13862984D01*
X8880612Y-14016974D02*
X8878388Y-14009143D01*
D11*
X18000000Y-5600000D02*
X17400000Y-5000000D01*
D10*
X16788341Y-13967935D02*
X16788341Y-13967935D01*
X16994570Y-13808136D02*
X17002399Y-13810359D01*
X9186977Y-6124298D02*
X9183333Y-6131413D01*
X17064333Y-5930629D02*
X17070064Y-5936093D01*
X9087296Y-14125509D02*
X9079465Y-14127733D01*
X16804615Y-5981239D02*
X16808259Y-5974123D01*
X9029730Y-5887936D02*
X9038222Y-5887722D01*
X8945953Y-6189595D02*
X8939482Y-6184994D01*
X16986630Y-6214462D02*
X16978503Y-6215914D01*
X9165566Y-14072873D02*
X9160379Y-14078861D01*
D11*
X17400000Y-15000000D02*
X8600000Y-15000000D01*
D10*
X16791693Y-14001187D02*
X16790242Y-13993062D01*
X9136961Y-14100143D02*
X9130491Y-14104744D01*
X9021349Y-6216928D02*
X9013090Y-6215878D01*
X9203036Y-6044258D02*
X9203251Y-6052751D01*
X9109769Y-5903995D02*
X9116884Y-5907640D01*
X9130491Y-5915906D02*
X9136961Y-5920507D01*
X9123795Y-13826762D02*
X9130491Y-13831054D01*
X17052111Y-6185030D02*
X17045640Y-6189631D01*
X17116428Y-13942808D02*
X17117477Y-13951065D01*
X8876545Y-14001159D02*
X8875094Y-13993032D01*
X8875094Y-6077883D02*
X8874045Y-6069624D01*
X9170466Y-5954011D02*
X9175067Y-5960481D01*
X16821127Y-5954047D02*
X16826026Y-5947812D01*
X16798353Y-14024666D02*
X16795759Y-14016999D01*
X16816526Y-6145055D02*
X16812233Y-6138360D01*
X8945953Y-13831054D02*
X8952648Y-13826762D01*
X9004963Y-5891075D02*
X9013090Y-5889623D01*
X16912128Y-5892952D02*
X16920112Y-5891110D01*
X17080716Y-6157760D02*
X17075529Y-6163748D01*
D11*
X8000000Y-14400000D02*
X8000000Y-5600000D01*
D10*
X16961863Y-5887972D02*
X16970244Y-5888609D01*
X9071481Y-14129576D02*
X9063354Y-14131027D01*
X16944879Y-5887972D02*
X16953371Y-5887757D01*
X17114977Y-13934683D02*
X17116428Y-13942808D01*
X16821120Y-14066654D02*
X16816520Y-14060185D01*
X17118115Y-13976425D02*
X17117477Y-13984805D01*
X16896628Y-6207801D02*
X16889134Y-6204846D01*
X16961826Y-14132714D02*
X16953335Y-14132929D01*
X8880612Y-13918825D02*
X8883207Y-13911157D01*
X17024867Y-14116659D02*
X17017558Y-14119963D01*
X16836667Y-13851267D02*
X16842397Y-13845804D01*
X9079465Y-14127733D02*
X9071481Y-14129576D01*
X9203251Y-6052751D02*
X9203251Y-6052751D01*
X9094964Y-6207766D02*
X9087296Y-6210360D01*
X17090151Y-14060185D02*
X17085551Y-14066654D01*
X17108317Y-14024666D02*
X17105363Y-14032158D01*
X9203036Y-13959407D02*
X9203251Y-13967900D01*
X17058287Y-14095252D02*
X17052054Y-14100151D01*
X17118185Y-6044294D02*
X17118400Y-6052786D01*
X16826026Y-6157760D02*
X16821127Y-6151526D01*
X8883207Y-14024642D02*
X8880612Y-14016974D01*
X9186977Y-14039447D02*
X9183333Y-14046562D01*
X17045640Y-6189631D02*
X17038945Y-6193923D01*
X17094443Y-13882380D02*
X17098415Y-13889289D01*
X8933248Y-14095244D02*
X8927260Y-14090057D01*
X8973985Y-13815839D02*
X8981479Y-13812884D01*
X16896605Y-13812953D02*
X16904271Y-13810359D01*
X16804615Y-6124333D02*
X16801310Y-6117023D01*
X16986587Y-14129577D02*
X16978462Y-14131028D01*
X9179359Y-5967177D02*
X9183333Y-5974088D01*
X9136961Y-13835655D02*
X9143196Y-13840555D01*
X9199898Y-6019492D02*
X9201350Y-6027618D01*
X17118115Y-13959444D02*
X17118329Y-13967935D01*
X16788556Y-6061279D02*
X16788341Y-6052786D01*
X16904271Y-13810359D02*
X16912101Y-13808136D01*
X9079465Y-6212584D02*
X9071481Y-6214427D01*
X17113205Y-6011543D02*
X17115047Y-6019527D01*
X9071481Y-6214427D02*
X9063354Y-6215878D01*
X16854631Y-6185030D02*
X16848397Y-6180130D01*
X16826018Y-13862984D02*
X16831204Y-13856997D01*
X17102127Y-5981239D02*
X17105431Y-5988549D01*
X16904296Y-6210396D02*
X16896628Y-6207801D01*
X16944879Y-6217600D02*
X16936498Y-6216963D01*
X17045585Y-14104751D02*
X17038891Y-14109042D01*
X8875094Y-13993032D02*
X8874045Y-13984773D01*
X8874045Y-6069624D02*
X8873407Y-6061243D01*
X9116884Y-14113011D02*
X9109769Y-14116655D01*
X9046714Y-14132714D02*
X9038222Y-14132929D01*
X16842409Y-5930629D02*
X16848397Y-5925442D01*
X16978462Y-14131028D02*
X16970205Y-14132077D01*
X8996979Y-13808065D02*
X9004963Y-13806223D01*
X17024918Y-6201541D02*
X17017608Y-6204846D01*
X8875094Y-6027618D02*
X8876545Y-6019492D01*
X16881804Y-14116659D02*
X16874689Y-14113015D01*
X16801307Y-13903712D02*
X16804611Y-13896403D01*
X9123795Y-6193888D02*
X9116884Y-6197862D01*
X16788556Y-13976425D02*
X16788341Y-13967935D01*
X9071481Y-13806223D02*
X9079465Y-13808065D01*
X9123795Y-14109037D02*
X9116884Y-14113011D01*
X9116884Y-13822788D02*
X9123795Y-13826762D01*
X16912101Y-14127734D02*
X16904271Y-14125511D01*
X16920112Y-5891110D02*
X16928239Y-5889658D01*
X9195832Y-6003676D02*
X9198055Y-6011507D01*
X8893111Y-14046562D02*
X8889466Y-14039447D01*
X9160379Y-13856937D02*
X9165566Y-13862925D01*
X9165566Y-13862925D02*
X9170466Y-13869160D01*
X8883207Y-6109493D02*
X8880612Y-6101825D01*
X8927260Y-14090057D02*
X8921529Y-14084593D01*
X16821120Y-13869217D02*
X16826018Y-13862984D01*
X17108386Y-5996044D02*
X17110981Y-6003712D01*
X17116499Y-6077918D02*
X17115047Y-6086045D01*
X16944845Y-14132714D02*
X16936466Y-14132077D01*
X8996979Y-14127733D02*
X8989147Y-14125509D01*
X17080653Y-13862984D02*
X17085551Y-13869217D01*
X17110911Y-13918871D02*
X17113135Y-13926700D01*
X16970205Y-13803793D02*
X16978462Y-13804843D01*
X9094964Y-14122915D02*
X9087296Y-14125509D01*
X8873193Y-6052751D02*
X8873407Y-6044258D01*
X16961826Y-13803156D02*
X16970205Y-13803793D01*
X17110911Y-14016999D02*
X17108317Y-14024666D01*
X9094964Y-5897736D02*
X9102459Y-5900691D01*
X9063354Y-5889623D02*
X9071481Y-5891075D01*
X16936466Y-13803793D02*
X16944845Y-13803156D01*
X8959559Y-5907640D02*
X8966675Y-5903995D01*
X16861101Y-6189631D02*
X16854631Y-6185030D01*
X16953335Y-13802941D02*
X16953335Y-13802941D01*
X17024918Y-5904031D02*
X17032034Y-5907675D01*
X8916064Y-5941789D02*
X8921529Y-5936058D01*
X16812228Y-14053491D02*
X16808255Y-14046581D01*
D11*
X8000000Y-14400000D02*
X8600000Y-15000000D01*
D10*
X8873407Y-13976392D02*
X8873193Y-13967900D01*
X8910877Y-5947777D02*
X8916064Y-5941789D01*
X17085551Y-14066654D02*
X17080653Y-14072887D01*
X8889466Y-6124298D02*
X8886162Y-6116987D01*
X8921529Y-13851206D02*
X8927260Y-13845742D01*
X8873193Y-13967900D02*
X8873193Y-13967900D01*
X8927260Y-6174908D02*
X8921529Y-6169444D01*
X17045640Y-5915941D02*
X17052111Y-5920542D01*
X9190282Y-14032136D02*
X9186977Y-14039447D01*
X8874045Y-13984773D02*
X8873407Y-13976392D01*
X16798353Y-13911205D02*
X16801307Y-13903712D01*
X9055095Y-14132077D02*
X9046714Y-14132714D01*
X8989147Y-5895141D02*
X8996979Y-5892917D01*
D11*
X8600000Y-5000000D02*
X17400000Y-5000000D01*
D10*
X16816520Y-14060185D02*
X16812228Y-14053491D01*
X8873193Y-13967900D02*
X8873407Y-13959407D01*
X9198055Y-6011507D02*
X9199898Y-6019492D01*
X16804611Y-14039467D02*
X16801307Y-14032158D01*
X17094508Y-5967213D02*
X17098482Y-5974123D01*
X17038945Y-5911649D02*
X17045640Y-5915941D01*
X16953335Y-14132929D02*
X16953335Y-14132929D01*
X16789193Y-6069659D02*
X16788556Y-6061279D01*
X17038891Y-14109042D02*
X17031981Y-14113015D01*
X17002446Y-6210396D02*
X16994614Y-6212620D01*
X16881824Y-6201541D02*
X16874708Y-6197897D01*
X8901377Y-13875630D02*
X8905978Y-13869160D01*
X17058287Y-13840618D02*
X17064274Y-13845804D01*
X17110981Y-6101861D02*
X17108386Y-6109529D01*
X17105431Y-5988549D02*
X17108386Y-5996044D01*
X9203036Y-13976392D02*
X9202399Y-13984773D01*
X17118400Y-6052786D02*
X17118400Y-6052786D01*
X17058345Y-6180130D02*
X17052111Y-6185030D01*
X16874689Y-14113015D02*
X16867780Y-14109042D01*
X8973985Y-14119960D02*
X8966675Y-14116655D01*
X16889112Y-14119963D02*
X16881804Y-14116659D01*
X17116428Y-13993062D02*
X17114977Y-14001187D01*
X9063354Y-13804771D02*
X9071481Y-13806223D01*
X9013090Y-6215878D02*
X9004963Y-6214427D01*
X9175067Y-6145020D02*
X9170466Y-6151490D01*
X9087296Y-6210360D02*
X9079465Y-6212584D01*
X16970205Y-14132077D02*
X16961826Y-14132714D01*
X8989147Y-14125509D02*
X8981479Y-14122915D01*
X8921529Y-6169444D02*
X8916064Y-6163712D01*
X9102459Y-13815839D02*
X9109769Y-13819144D01*
X9183333Y-13889237D02*
X9186977Y-13896353D01*
X16867780Y-13826828D02*
X16874689Y-13822855D01*
X9170466Y-6151490D02*
X9165566Y-6157724D01*
X8873407Y-6044258D02*
X8874045Y-6035877D01*
X16953335Y-13802941D02*
X16961826Y-13803156D01*
X8933248Y-6180095D02*
X8927260Y-6174908D01*
X17038945Y-6193923D02*
X17032034Y-6197897D01*
X16816520Y-13875685D02*
X16821120Y-13869217D01*
X16953371Y-5887757D02*
X16961863Y-5887972D01*
X8916064Y-13856937D02*
X8921529Y-13851206D01*
X16953371Y-6217815D02*
X16953371Y-6217815D01*
X16874708Y-5907675D02*
X16881824Y-5904031D01*
X8952648Y-13826762D02*
X8959559Y-13822788D01*
X9203251Y-13967900D02*
X9203251Y-13967900D01*
X16793536Y-14009170D02*
X16791693Y-14001187D01*
X9175067Y-13875630D02*
X9179359Y-13882326D01*
X17118329Y-13967935D02*
X17118329Y-13967935D01*
X17102127Y-6124333D02*
X17098482Y-6131449D01*
X16920083Y-14129577D02*
X16912101Y-14127734D01*
X16842409Y-6174944D02*
X16836677Y-6169479D01*
X16994570Y-14127734D02*
X16986587Y-14129577D01*
X8874045Y-6035877D02*
X8875094Y-6027618D01*
X8966675Y-14116655D02*
X8959559Y-14113011D01*
X9149184Y-14090057D02*
X9143196Y-14095244D01*
X16788341Y-6052786D02*
X16788341Y-6052786D01*
X9195832Y-14016974D02*
X9193237Y-14024642D01*
X8893111Y-6131413D02*
X8889466Y-6124298D01*
X9123795Y-5911614D02*
X9130491Y-5915906D01*
X17105363Y-13903712D02*
X17108317Y-13911205D01*
X16836677Y-5936093D02*
X16842409Y-5930629D01*
X9079465Y-13808065D02*
X9087296Y-13810289D01*
X8939482Y-13835655D02*
X8945953Y-13831054D01*
X17031981Y-13822855D02*
X17038891Y-13826828D01*
X16961863Y-6217600D02*
X16953371Y-6217815D01*
X16889112Y-13815907D02*
X16896605Y-13812953D01*
X17010066Y-13812953D02*
X17017558Y-13815907D01*
X9013090Y-14131027D02*
X9004963Y-14129576D01*
X8886162Y-13903663D02*
X8889466Y-13896353D01*
X16795761Y-6003712D02*
X16798355Y-5996044D01*
X17098482Y-6131449D02*
X17094508Y-6138360D01*
X17098482Y-5974123D02*
X17102127Y-5981239D01*
X16970244Y-5888609D02*
X16978503Y-5889658D01*
X8952648Y-5911614D02*
X8959559Y-5907640D01*
X17113135Y-14009170D02*
X17110911Y-14016999D01*
X9109769Y-13819144D02*
X9116884Y-13822788D01*
X9038222Y-13802870D02*
X9038222Y-13802870D01*
X8959559Y-13822788D02*
X8966675Y-13819144D01*
X16795759Y-14016999D02*
X16793536Y-14009170D01*
X9055095Y-5888574D02*
X9063354Y-5889623D01*
X8927260Y-13845742D02*
X8933248Y-13840555D01*
X16812228Y-13882380D02*
X16816520Y-13875685D01*
X9183333Y-14046562D02*
X9179359Y-14053473D01*
X9175067Y-5960481D02*
X9179359Y-5967177D01*
X9198055Y-14009143D02*
X9195832Y-14016974D01*
X17052054Y-13835720D02*
X17058287Y-13840618D01*
X9201350Y-13993032D02*
X9199898Y-14001159D01*
X9055095Y-13803722D02*
X9063354Y-13804771D01*
X16821127Y-6151526D02*
X16816526Y-6145055D01*
X9136961Y-6184994D02*
X9130491Y-6189595D01*
X9143196Y-6180095D02*
X9136961Y-6184994D01*
X16881804Y-13819212D02*
X16889112Y-13815907D01*
X16789193Y-13951065D02*
X16790242Y-13942808D01*
X9116884Y-5907640D02*
X9123795Y-5911614D01*
X8874045Y-13951026D02*
X8875094Y-13942767D01*
X17085615Y-5954047D02*
X17090216Y-5960517D01*
X17117548Y-6035913D02*
X17118185Y-6044294D01*
X9170466Y-14066639D02*
X9165566Y-14072873D01*
X17075529Y-6163748D02*
X17070064Y-6169479D01*
X16912101Y-13808136D02*
X16920083Y-13806294D01*
X16881824Y-5904031D02*
X16889134Y-5900726D01*
X16836677Y-6169479D02*
X16831213Y-6163748D01*
X16788556Y-13959444D02*
X16789193Y-13951065D01*
X17032034Y-6197897D02*
X17024918Y-6201541D01*
X9154915Y-5936058D02*
X9160379Y-5941789D01*
X16912128Y-6212620D02*
X16904296Y-6210396D01*
X17070004Y-14084604D02*
X17064274Y-14090067D01*
X8889466Y-14039447D02*
X8886162Y-14032136D01*
X17002446Y-5895176D02*
X17010114Y-5897771D01*
X16798355Y-6109529D02*
X16795761Y-6101861D01*
X17115047Y-6086045D02*
X17113205Y-6094029D01*
X17052054Y-14100151D02*
X17045585Y-14104751D01*
X9170466Y-13869160D02*
X9175067Y-13875630D01*
X16896628Y-5897771D02*
X16904296Y-5895176D01*
X17024867Y-13819212D02*
X17031981Y-13822855D01*
X17090216Y-6145055D02*
X17085615Y-6151526D01*
X8876545Y-6019492D02*
X8878388Y-6011507D01*
X8897085Y-6138324D02*
X8893111Y-6131413D01*
X8933248Y-13840555D02*
X8939482Y-13835655D01*
X17090216Y-5960517D02*
X17094508Y-5967213D01*
X9183333Y-5974088D02*
X9186977Y-5981204D01*
X17102059Y-14039467D02*
X17098415Y-14046581D01*
X9203036Y-6061243D02*
X9202399Y-6069624D01*
X16978503Y-5889658D02*
X16986630Y-5891110D01*
X8901377Y-5960481D02*
X8905978Y-5954011D01*
X8966675Y-13819144D02*
X8973985Y-13815839D01*
X8959559Y-14113011D02*
X8952648Y-14109037D01*
X9109769Y-6201506D02*
X9102459Y-6204811D01*
X9046714Y-6217565D02*
X9038222Y-6217780D01*
X8901377Y-6145020D02*
X8897085Y-6138324D01*
X8875094Y-13942767D02*
X8876545Y-13934640D01*
X9202399Y-6035877D02*
X9203036Y-6044258D01*
X16801307Y-14032158D02*
X16798353Y-14024666D01*
X8973985Y-6204811D02*
X8966675Y-6201506D01*
X8901377Y-14060169D02*
X8897085Y-14053473D01*
X9063354Y-6215878D02*
X9055095Y-6216928D01*
X17017608Y-6204846D02*
X17010114Y-6207801D01*
X17080653Y-14072887D02*
X17075467Y-14078873D01*
X17010066Y-14122917D02*
X17002399Y-14125511D01*
X16861101Y-5915941D02*
X16867797Y-5911649D01*
X8916064Y-6163712D02*
X8910877Y-6157724D01*
X17117548Y-6069659D02*
X17116499Y-6077918D01*
X16790242Y-13942808D02*
X16791693Y-13934683D01*
X16804611Y-13896403D02*
X16808255Y-13889289D01*
X16788341Y-13967935D02*
X16788556Y-13959444D01*
X8878388Y-6093994D02*
X8876545Y-6086010D01*
X9087296Y-13810289D02*
X9094964Y-13812884D01*
X16831213Y-6163748D02*
X16826026Y-6157760D01*
X16854631Y-5920542D02*
X16861101Y-5915941D01*
X8873407Y-13959407D02*
X8874045Y-13951026D01*
X16896605Y-14122917D02*
X16889112Y-14119963D01*
X8905978Y-13869160D02*
X8910877Y-13862925D01*
X9199898Y-6086010D02*
X9198055Y-6093994D01*
X9063354Y-14131027D02*
X9055095Y-14132077D01*
X16970244Y-6216963D02*
X16961863Y-6217600D01*
X8886162Y-14032136D02*
X8883207Y-14024642D01*
X16854617Y-14100151D02*
X16848384Y-14095252D01*
X17010114Y-6207801D02*
X17002446Y-6210396D01*
X9183333Y-6131413D02*
X9179359Y-6138324D01*
X17116499Y-6027654D02*
X17117548Y-6035913D01*
X9102459Y-14119960D02*
X9094964Y-14122915D01*
X9149184Y-13845742D02*
X9154915Y-13851206D01*
X16848384Y-13840618D02*
X16854617Y-13835720D01*
X8897085Y-14053473D02*
X8893111Y-14046562D01*
X8876545Y-13934640D02*
X8878388Y-13926656D01*
D11*
X8000000Y-5600000D02*
X8600000Y-5000000D01*
D10*
X8959559Y-6197862D02*
X8952648Y-6193888D01*
X17118185Y-6061279D02*
X17117548Y-6069659D01*
D12*
D13*
X10978997Y-5721550D02*
X11013997Y-5756550D01*
X11013997Y-5721550D02*
X10978997Y-5756550D01*
X10978997Y-5849050D02*
X11013997Y-5884050D01*
X11013997Y-5849050D02*
X10978997Y-5884050D01*
X10978997Y-5976550D02*
X11013997Y-6011550D01*
X11013997Y-5976550D02*
X10978997Y-6011550D01*
X11106497Y-5721550D02*
X11141497Y-5756550D01*
X11141497Y-5721550D02*
X11106497Y-5756550D01*
X11106497Y-5849050D02*
X11141497Y-5884050D01*
X11141497Y-5849050D02*
X11106497Y-5884050D01*
X11106497Y-5976550D02*
X11141497Y-6011550D01*
X11141497Y-5976550D02*
X11106497Y-6011550D01*
X11233997Y-5721550D02*
X11268997Y-5756550D01*
X11268997Y-5721550D02*
X11233997Y-5756550D01*
X11233997Y-5849050D02*
X11268997Y-5884050D01*
X11268997Y-5849050D02*
X11233997Y-5884050D01*
X11233997Y-5976550D02*
X11268997Y-6011550D01*
X11268997Y-5976550D02*
X11233997Y-6011550D01*
D14*
X8427400Y-6476279D02*
G75*
G03*
X8427400Y-6476279I-20000J0D01*
G01*
X8473120Y-7014020D02*
G75*
G03*
X8473120Y-7014020I-20000J0D01*
G01*
X8747440Y-6791960D02*
G75*
G03*
X8747440Y-6791960I-20000J0D01*
G01*
X9570400Y-5867400D02*
G75*
G03*
X9570400Y-5867400I-20000J0D01*
G01*
X9570400Y-5966460D02*
G75*
G03*
X9570400Y-5966460I-20000J0D01*
G01*
X10268150Y-6107950D02*
G75*
G03*
X10268150Y-6107950I-20000J0D01*
G01*
X10332400Y-5886430D02*
G75*
G03*
X10332400Y-5886430I-20000J0D01*
G01*
X10449240Y-6532880D02*
G75*
G03*
X10449240Y-6532880I-20000J0D01*
G01*
X10599250Y-5956450D02*
G75*
G03*
X10599250Y-5956450I-20000J0D01*
G01*
X10642280Y-5486400D02*
G75*
G03*
X10642280Y-5486400I-20000J0D01*
G01*
X10809920Y-6248400D02*
G75*
G03*
X10809920Y-6248400I-20000J0D01*
G01*
X11130374Y-6577750D02*
G75*
G03*
X11130374Y-6577750I-20000J0D01*
G01*
X11223024Y-6577750D02*
G75*
G03*
X11223024Y-6577750I-20000J0D01*
G01*
X11360000Y-5368000D02*
G75*
G03*
X11360000Y-5368000I-20000J0D01*
G01*
X11546520Y-6248400D02*
G75*
G03*
X11546520Y-6248400I-20000J0D01*
G01*
X11599860Y-6090920D02*
G75*
G03*
X11599860Y-6090920I-20000J0D01*
G01*
X11602400Y-5537200D02*
G75*
G03*
X11602400Y-5537200I-20000J0D01*
G01*
X11643000Y-5215000D02*
G75*
G03*
X11643000Y-5215000I-20000J0D01*
G01*
X11764960Y-6334760D02*
G75*
G03*
X11764960Y-6334760I-20000J0D01*
G01*
X11805875Y-5320725D02*
G75*
G03*
X11805875Y-5320725I-20000J0D01*
G01*
X11832050Y-5552440D02*
G75*
G03*
X11832050Y-5552440I-20000J0D01*
G01*
X11932600Y-5943600D02*
G75*
G03*
X11932600Y-5943600I-20000J0D01*
G01*
X12219620Y-6334760D02*
G75*
G03*
X12219620Y-6334760I-20000J0D01*
G01*
X12598652Y-6577750D02*
G75*
G03*
X12598652Y-6577750I-20000J0D01*
G01*
X12691302Y-6577750D02*
G75*
G03*
X12691302Y-6577750I-20000J0D01*
G01*
X9302500Y-5454500D02*
X9302500Y-5494500D01*
X9282500Y-5474500D02*
X9322500Y-5474500D01*
X9302500Y-5589500D02*
X9302500Y-5629500D01*
X9282500Y-5609500D02*
X9322500Y-5609500D01*
X9387500Y-5454500D02*
X9387500Y-5494500D01*
X9367500Y-5474500D02*
X9407500Y-5474500D01*
X9387500Y-5589500D02*
X9387500Y-5629500D01*
X9367500Y-5609500D02*
X9407500Y-5609500D01*
X9472500Y-5454500D02*
X9472500Y-5494500D01*
X9452500Y-5474500D02*
X9492500Y-5474500D01*
X9472500Y-5589500D02*
X9472500Y-5629500D01*
X9452500Y-5609500D02*
X9492500Y-5609500D01*
X9557500Y-5454500D02*
X9557500Y-5494500D01*
X9537500Y-5474500D02*
X9577500Y-5474500D01*
X9557500Y-5589500D02*
X9557500Y-5629500D01*
X9537500Y-5609500D02*
X9577500Y-5609500D01*
X9642500Y-5454500D02*
X9642500Y-5494500D01*
X9622500Y-5474500D02*
X9662500Y-5474500D01*
X9642500Y-5589500D02*
X9642500Y-5629500D01*
X9622500Y-5609500D02*
X9662500Y-5609500D01*
X9727500Y-5454500D02*
X9727500Y-5494500D01*
X9707500Y-5474500D02*
X9747500Y-5474500D01*
X9727500Y-5589500D02*
X9727500Y-5629500D01*
X9707500Y-5609500D02*
X9747500Y-5609500D01*
X9812500Y-5454500D02*
X9812500Y-5494500D01*
X9792500Y-5474500D02*
X9832500Y-5474500D01*
X9812500Y-5589500D02*
X9812500Y-5629500D01*
X9792500Y-5609500D02*
X9832500Y-5609500D01*
X9897500Y-5454500D02*
X9897500Y-5494500D01*
X9877500Y-5474500D02*
X9917500Y-5474500D01*
X9897500Y-5589500D02*
X9897500Y-5629500D01*
X9877500Y-5609500D02*
X9917500Y-5609500D01*
D15*
X9188713Y-5194713D02*
X9188713Y-5152287D01*
X9146287Y-5152287D01*
X9146287Y-5194713D01*
X9188713Y-5194713D01*
D12*
X9197500Y-5213500D02*
X9197500Y-5133500D01*
X9137500Y-5213500D02*
X9137500Y-5133500D01*
X9197500Y-5133500D02*
G75*
G03*
X9137500Y-5133500I-30000J0D01*
G01*
X9137500Y-5213500D02*
G75*
G03*
X9197500Y-5213500I30000J0D01*
G01*
D15*
X9188713Y-5532713D02*
X9188713Y-5490287D01*
X9146287Y-5490287D01*
X9146287Y-5532713D01*
X9188713Y-5532713D01*
D12*
X9197500Y-5586500D02*
X9197500Y-5436500D01*
X9137500Y-5586500D02*
X9137500Y-5436500D01*
X9197500Y-5436500D02*
G75*
G03*
X9137500Y-5436500I-30000J0D01*
G01*
X9137500Y-5586500D02*
G75*
G03*
X9197500Y-5586500I30000J0D01*
G01*
D15*
X10053713Y-5194713D02*
X10053713Y-5152287D01*
X10011287Y-5152287D01*
X10011287Y-5194713D01*
X10053713Y-5194713D01*
D12*
X10062500Y-5213500D02*
X10062500Y-5133500D01*
X10002500Y-5213500D02*
X10002500Y-5133500D01*
X10062500Y-5133500D02*
G75*
G03*
X10002500Y-5133500I-30000J0D01*
G01*
X10002500Y-5213500D02*
G75*
G03*
X10062500Y-5213500I30000J0D01*
G01*
D15*
X10053713Y-5532713D02*
X10053713Y-5490287D01*
X10011287Y-5490287D01*
X10011287Y-5532713D01*
X10053713Y-5532713D01*
D12*
X10062500Y-5586500D02*
X10062500Y-5436500D01*
X10002500Y-5586500D02*
X10002500Y-5436500D01*
X10062500Y-5436500D02*
G75*
G03*
X10002500Y-5436500I-30000J0D01*
G01*
X10002500Y-5586500D02*
G75*
G03*
X10062500Y-5586500I30000J0D01*
G01*
D16*
X9829300Y-6461240D02*
X9861800Y-6428740D01*
X9829300Y-6396240D01*
X9796800Y-6428740D01*
X9829300Y-6461240D01*
X9956300Y-6461240D02*
X9988800Y-6428740D01*
X9956300Y-6396240D01*
X9923800Y-6428740D01*
X9956300Y-6461240D01*
X10083300Y-6461240D02*
X10115800Y-6428740D01*
X10083300Y-6396240D01*
X10050800Y-6428740D01*
X10083300Y-6461240D01*
X16560800Y-12909800D02*
X16593300Y-12877300D01*
X16560800Y-12844800D01*
X16528300Y-12877300D01*
X16560800Y-12909800D01*
X16560800Y-13036800D02*
X16593300Y-13004300D01*
X16560800Y-12971800D01*
X16528300Y-13004300D01*
X16560800Y-13036800D01*
X16560800Y-13163800D02*
X16593300Y-13131300D01*
X16560800Y-13098800D01*
X16528300Y-13131300D01*
X16560800Y-13163800D01*
D17*
X12339960Y-5750040D02*
X12419960Y-5830040D01*
X12419960Y-5750040D02*
X12339960Y-5830040D01*
X12419960Y-5790040D02*
G75*
G03*
X12419960Y-5790040I-40000J0D01*
G01*
X12339960Y-6238040D02*
X12419960Y-6318040D01*
X12419960Y-6238040D02*
X12339960Y-6318040D01*
X12419960Y-6278040D02*
G75*
G03*
X12419960Y-6278040I-40000J0D01*
G01*
D11*
X8760840Y-9131560D02*
X8860840Y-9231560D01*
X8860840Y-9131560D02*
X8760840Y-9231560D01*
X8810840Y-9131560D02*
X8810840Y-9231560D01*
X8760840Y-9181560D02*
X8860840Y-9181560D01*
X8760840Y-9381560D02*
X8860840Y-9481560D01*
X8860840Y-9381560D02*
X8760840Y-9481560D01*
X8810840Y-9381560D02*
X8810840Y-9481560D01*
X8760840Y-9431560D02*
X8860840Y-9431560D01*
X12372100Y-5182400D02*
X12472100Y-5282400D01*
X12472100Y-5182400D02*
X12372100Y-5282400D01*
X12422100Y-5182400D02*
X12422100Y-5282400D01*
X12372100Y-5232400D02*
X12472100Y-5232400D01*
X12626100Y-5182400D02*
X12726100Y-5282400D01*
X12726100Y-5182400D02*
X12626100Y-5282400D01*
X12676100Y-5182400D02*
X12676100Y-5282400D01*
X12626100Y-5232400D02*
X12726100Y-5232400D01*
X12880100Y-5182400D02*
X12980100Y-5282400D01*
X12980100Y-5182400D02*
X12880100Y-5282400D01*
X12930100Y-5182400D02*
X12930100Y-5282400D01*
X12880100Y-5232400D02*
X12980100Y-5232400D01*
X14275600Y-5919500D02*
X14375600Y-6019500D01*
X14375600Y-5919500D02*
X14275600Y-6019500D01*
X14325600Y-5919500D02*
X14325600Y-6019500D01*
X14275600Y-5969500D02*
X14375600Y-5969500D01*
X14275600Y-6173500D02*
X14375600Y-6273500D01*
X14375600Y-6173500D02*
X14275600Y-6273500D01*
X14325600Y-6173500D02*
X14325600Y-6273500D01*
X14275600Y-6223500D02*
X14375600Y-6223500D01*
X14529600Y-5919500D02*
X14629600Y-6019500D01*
X14629600Y-5919500D02*
X14529600Y-6019500D01*
X14579600Y-5919500D02*
X14579600Y-6019500D01*
X14529600Y-5969500D02*
X14629600Y-5969500D01*
X14529600Y-6173500D02*
X14629600Y-6273500D01*
X14629600Y-6173500D02*
X14529600Y-6273500D01*
X14579600Y-6173500D02*
X14579600Y-6273500D01*
X14529600Y-6223500D02*
X14629600Y-6223500D01*
X14783600Y-5919500D02*
X14883600Y-6019500D01*
X14883600Y-5919500D02*
X14783600Y-6019500D01*
X14833600Y-5919500D02*
X14833600Y-6019500D01*
X14783600Y-5969500D02*
X14883600Y-5969500D01*
X14783600Y-6173500D02*
X14883600Y-6273500D01*
X14883600Y-6173500D02*
X14783600Y-6273500D01*
X14833600Y-6173500D02*
X14833600Y-6273500D01*
X14783600Y-6223500D02*
X14883600Y-6223500D01*
X15037600Y-5919500D02*
X15137600Y-6019500D01*
X15137600Y-5919500D02*
X15037600Y-6019500D01*
X15087600Y-5919500D02*
X15087600Y-6019500D01*
X15037600Y-5969500D02*
X15137600Y-5969500D01*
X15037600Y-6173500D02*
X15137600Y-6273500D01*
X15137600Y-6173500D02*
X15037600Y-6273500D01*
X15087600Y-6173500D02*
X15087600Y-6273500D01*
X15037600Y-6223500D02*
X15137600Y-6223500D01*
X15291600Y-5919500D02*
X15391600Y-6019500D01*
X15391600Y-5919500D02*
X15291600Y-6019500D01*
X15341600Y-5919500D02*
X15341600Y-6019500D01*
X15291600Y-5969500D02*
X15391600Y-5969500D01*
X15291600Y-6173500D02*
X15391600Y-6273500D01*
X15391600Y-6173500D02*
X15291600Y-6273500D01*
X15341600Y-6173500D02*
X15341600Y-6273500D01*
X15291600Y-6223500D02*
X15391600Y-6223500D01*
X15545600Y-5919500D02*
X15645600Y-6019500D01*
X15645600Y-5919500D02*
X15545600Y-6019500D01*
X15595600Y-5919500D02*
X15595600Y-6019500D01*
X15545600Y-5969500D02*
X15645600Y-5969500D01*
X15545600Y-6173500D02*
X15645600Y-6273500D01*
X15645600Y-6173500D02*
X15545600Y-6273500D01*
X15595600Y-6173500D02*
X15595600Y-6273500D01*
X15545600Y-6223500D02*
X15645600Y-6223500D01*
X16129300Y-6077100D02*
X16229300Y-6177100D01*
X16229300Y-6077100D02*
X16129300Y-6177100D01*
X16179300Y-6077100D02*
X16179300Y-6177100D01*
X16129300Y-6127100D02*
X16229300Y-6127100D01*
X16383300Y-6077100D02*
X16483300Y-6177100D01*
X16483300Y-6077100D02*
X16383300Y-6177100D01*
X16433300Y-6077100D02*
X16433300Y-6177100D01*
X16383300Y-6127100D02*
X16483300Y-6127100D01*
D18*
X8200000Y-7653900D02*
X8310000Y-7763900D01*
X8310000Y-7653900D02*
X8200000Y-7763900D01*
X8293891Y-7747791D02*
X8293891Y-7670009D01*
X8216109Y-7670009D01*
X8216109Y-7747791D01*
X8293891Y-7747791D01*
X8200000Y-8669900D02*
X8310000Y-8779900D01*
X8310000Y-8669900D02*
X8200000Y-8779900D01*
X8293891Y-8763791D02*
X8293891Y-8686009D01*
X8216109Y-8686009D01*
X8216109Y-8763791D01*
X8293891Y-8763791D01*
X8559200Y-7849600D02*
X8669200Y-7959600D01*
X8669200Y-7849600D02*
X8559200Y-7959600D01*
X8653091Y-7943491D02*
X8653091Y-7865709D01*
X8575309Y-7865709D01*
X8575309Y-7943491D01*
X8653091Y-7943491D01*
X8559200Y-8499600D02*
X8669200Y-8609600D01*
X8669200Y-8499600D02*
X8559200Y-8609600D01*
X8653091Y-8593491D02*
X8653091Y-8515709D01*
X8575309Y-8515709D01*
X8575309Y-8593491D01*
X8653091Y-8593491D01*
X9009200Y-7849600D02*
X9119200Y-7959600D01*
X9119200Y-7849600D02*
X9009200Y-7959600D01*
X9103091Y-7943491D02*
X9103091Y-7865709D01*
X9025309Y-7865709D01*
X9025309Y-7943491D01*
X9103091Y-7943491D01*
X9009200Y-8499600D02*
X9119200Y-8609600D01*
X9119200Y-8499600D02*
X9009200Y-8609600D01*
X9103091Y-8593491D02*
X9103091Y-8515709D01*
X9025309Y-8515709D01*
X9025309Y-8593491D01*
X9103091Y-8593491D01*
X12978800Y-5550900D02*
X13088800Y-5660900D01*
X13088800Y-5550900D02*
X12978800Y-5660900D01*
X13072691Y-5644791D02*
X13072691Y-5567009D01*
X12994909Y-5567009D01*
X12994909Y-5644791D01*
X13072691Y-5644791D01*
X12978800Y-6200900D02*
X13088800Y-6310900D01*
X13088800Y-6200900D02*
X12978800Y-6310900D01*
X13072691Y-6294791D02*
X13072691Y-6217009D01*
X12994909Y-6217009D01*
X12994909Y-6294791D01*
X13072691Y-6294791D01*
X13428800Y-5550900D02*
X13538800Y-5660900D01*
X13538800Y-5550900D02*
X13428800Y-5660900D01*
X13522691Y-5644791D02*
X13522691Y-5567009D01*
X13444909Y-5567009D01*
X13444909Y-5644791D01*
X13522691Y-5644791D01*
X13428800Y-6200900D02*
X13538800Y-6310900D01*
X13538800Y-6200900D02*
X13428800Y-6310900D01*
X13522691Y-6294791D02*
X13522691Y-6217009D01*
X13444909Y-6217009D01*
X13444909Y-6294791D01*
X13522691Y-6294791D01*
D19*
X13947400Y-5411200D02*
X14067400Y-5531200D01*
X14067400Y-5411200D02*
X13947400Y-5531200D01*
X14007400Y-5531200D02*
X14067400Y-5471200D01*
X14007400Y-5411200D01*
X13947400Y-5471200D01*
X14007400Y-5531200D01*
X14197400Y-5411200D02*
X14317400Y-5531200D01*
X14317400Y-5411200D02*
X14197400Y-5531200D01*
X14257400Y-5531200D02*
X14317400Y-5471200D01*
X14257400Y-5411200D01*
X14197400Y-5471200D01*
X14257400Y-5531200D01*
X14447400Y-5411200D02*
X14567400Y-5531200D01*
X14567400Y-5411200D02*
X14447400Y-5531200D01*
X14507400Y-5531200D02*
X14567400Y-5471200D01*
X14507400Y-5411200D01*
X14447400Y-5471200D01*
X14507400Y-5531200D01*
X14697400Y-5411200D02*
X14817400Y-5531200D01*
X14817400Y-5411200D02*
X14697400Y-5531200D01*
X14757400Y-5531200D02*
X14817400Y-5471200D01*
X14757400Y-5411200D01*
X14697400Y-5471200D01*
X14757400Y-5531200D01*
X14947400Y-5411200D02*
X15067400Y-5531200D01*
X15067400Y-5411200D02*
X14947400Y-5531200D01*
X15007400Y-5531200D02*
X15067400Y-5471200D01*
X15007400Y-5411200D01*
X14947400Y-5471200D01*
X15007400Y-5531200D01*
X15197400Y-5411200D02*
X15317400Y-5531200D01*
X15317400Y-5411200D02*
X15197400Y-5531200D01*
X15257400Y-5531200D02*
X15317400Y-5471200D01*
X15257400Y-5411200D01*
X15197400Y-5471200D01*
X15257400Y-5531200D01*
X15447400Y-5411200D02*
X15567400Y-5531200D01*
X15567400Y-5411200D02*
X15447400Y-5531200D01*
X15507400Y-5531200D02*
X15567400Y-5471200D01*
X15507400Y-5411200D01*
X15447400Y-5471200D01*
X15507400Y-5531200D01*
D20*
X8376920Y-12914960D02*
X8376920Y-13094960D01*
X8286920Y-13004960D02*
X8466920Y-13004960D01*
X8466920Y-13004960D02*
G75*
G03*
X8466920Y-13004960I-90000J0D01*
G01*
X8376920Y-13464960D02*
X8376920Y-13644960D01*
X8286920Y-13554960D02*
X8466920Y-13554960D01*
X8466920Y-13554960D02*
G75*
G03*
X8466920Y-13554960I-90000J0D01*
G01*
X9446100Y-10565300D02*
X9446100Y-10745300D01*
X9356100Y-10655300D02*
X9536100Y-10655300D01*
X9536100Y-10655300D02*
G75*
G03*
X9536100Y-10655300I-90000J0D01*
G01*
X9996100Y-10565300D02*
X9996100Y-10745300D01*
X9906100Y-10655300D02*
X10086100Y-10655300D01*
X10086100Y-10655300D02*
G75*
G03*
X10086100Y-10655300I-90000J0D01*
G01*
X16013500Y-14535320D02*
X16013500Y-14715320D01*
X15923500Y-14625320D02*
X16103500Y-14625320D01*
X16103500Y-14625320D02*
G75*
G03*
X16103500Y-14625320I-90000J0D01*
G01*
X16563500Y-14535320D02*
X16563500Y-14715320D01*
X16473500Y-14625320D02*
X16653500Y-14625320D01*
X16653500Y-14625320D02*
G75*
G03*
X16653500Y-14625320I-90000J0D01*
G01*
X17622520Y-6343660D02*
X17622520Y-6523660D01*
X17532520Y-6433660D02*
X17712520Y-6433660D01*
X17712520Y-6433660D02*
G75*
G03*
X17712520Y-6433660I-90000J0D01*
G01*
X17622520Y-6893660D02*
X17622520Y-7073660D01*
X17532520Y-6983660D02*
X17712520Y-6983660D01*
X17712520Y-6983660D02*
G75*
G03*
X17712520Y-6983660I-90000J0D01*
G01*
D12*
X8252619Y-15315476D02*
X8252619Y-15115476D01*
X8300238Y-15115476D01*
X8328809Y-15125000D01*
X8347857Y-15144048D01*
X8357381Y-15163095D01*
X8366905Y-15201190D01*
X8366905Y-15229762D01*
X8357381Y-15267857D01*
X8347857Y-15286905D01*
X8328809Y-15305952D01*
X8300238Y-15315476D01*
X8252619Y-15315476D01*
X8452619Y-15315476D02*
X8452619Y-15182143D01*
X8452619Y-15220238D02*
X8462143Y-15201190D01*
X8471667Y-15191667D01*
X8490714Y-15182143D01*
X8509762Y-15182143D01*
X8576429Y-15315476D02*
X8576429Y-15182143D01*
X8576429Y-15115476D02*
X8566905Y-15125000D01*
X8576429Y-15134524D01*
X8585952Y-15125000D01*
X8576429Y-15115476D01*
X8576429Y-15134524D01*
X8700238Y-15315476D02*
X8681190Y-15305952D01*
X8671667Y-15286905D01*
X8671667Y-15115476D01*
X8805000Y-15315476D02*
X8785952Y-15305952D01*
X8776429Y-15286905D01*
X8776429Y-15115476D01*
X9033571Y-15315476D02*
X9033571Y-15115476D01*
X9100238Y-15258333D01*
X9166905Y-15115476D01*
X9166905Y-15315476D01*
X9347857Y-15315476D02*
X9347857Y-15210714D01*
X9338333Y-15191667D01*
X9319286Y-15182143D01*
X9281190Y-15182143D01*
X9262143Y-15191667D01*
X9347857Y-15305952D02*
X9328810Y-15315476D01*
X9281190Y-15315476D01*
X9262143Y-15305952D01*
X9252619Y-15286905D01*
X9252619Y-15267857D01*
X9262143Y-15248809D01*
X9281190Y-15239286D01*
X9328810Y-15239286D01*
X9347857Y-15229762D01*
X9443095Y-15182143D02*
X9443095Y-15382143D01*
X9443095Y-15191667D02*
X9462143Y-15182143D01*
X9500238Y-15182143D01*
X9519286Y-15191667D01*
X9528810Y-15201190D01*
X9538333Y-15220238D01*
X9538333Y-15277381D01*
X9528810Y-15296428D01*
X9519286Y-15305952D01*
X9500238Y-15315476D01*
X9462143Y-15315476D01*
X9443095Y-15305952D01*
X9624048Y-15296428D02*
X9633571Y-15305952D01*
X9624048Y-15315476D01*
X9614524Y-15305952D01*
X9624048Y-15296428D01*
X9624048Y-15315476D01*
X9624048Y-15191667D02*
X9633571Y-15201190D01*
X9624048Y-15210714D01*
X9614524Y-15201190D01*
X9624048Y-15191667D01*
X9624048Y-15210714D01*
D13*
X7960000Y-15627500D02*
X7995000Y-15662500D01*
X7995000Y-15627500D02*
X7960000Y-15662500D01*
D12*
X8290714Y-15535476D02*
X8309762Y-15535476D01*
X8328809Y-15545000D01*
X8338333Y-15554524D01*
X8347857Y-15573571D01*
X8357381Y-15611667D01*
X8357381Y-15659286D01*
X8347857Y-15697381D01*
X8338333Y-15716428D01*
X8328809Y-15725952D01*
X8309762Y-15735476D01*
X8290714Y-15735476D01*
X8271667Y-15725952D01*
X8262143Y-15716428D01*
X8252619Y-15697381D01*
X8243095Y-15659286D01*
X8243095Y-15611667D01*
X8252619Y-15573571D01*
X8262143Y-15554524D01*
X8271667Y-15545000D01*
X8290714Y-15535476D01*
X8443095Y-15716428D02*
X8452619Y-15725952D01*
X8443095Y-15735476D01*
X8433571Y-15725952D01*
X8443095Y-15716428D01*
X8443095Y-15735476D01*
X8519286Y-15535476D02*
X8643095Y-15535476D01*
X8576429Y-15611667D01*
X8605000Y-15611667D01*
X8624048Y-15621190D01*
X8633571Y-15630714D01*
X8643095Y-15649762D01*
X8643095Y-15697381D01*
X8633571Y-15716428D01*
X8624048Y-15725952D01*
X8605000Y-15735476D01*
X8547857Y-15735476D01*
X8528810Y-15725952D01*
X8519286Y-15716428D01*
X8824048Y-15535476D02*
X8728810Y-15535476D01*
X8719286Y-15630714D01*
X8728810Y-15621190D01*
X8747857Y-15611667D01*
X8795476Y-15611667D01*
X8814524Y-15621190D01*
X8824048Y-15630714D01*
X8833571Y-15649762D01*
X8833571Y-15697381D01*
X8824048Y-15716428D01*
X8814524Y-15725952D01*
X8795476Y-15735476D01*
X8747857Y-15735476D01*
X8728810Y-15725952D01*
X8719286Y-15716428D01*
X8957381Y-15535476D02*
X8976429Y-15535476D01*
X8995476Y-15545000D01*
X9005000Y-15554524D01*
X9014524Y-15573571D01*
X9024048Y-15611667D01*
X9024048Y-15659286D01*
X9014524Y-15697381D01*
X9005000Y-15716428D01*
X8995476Y-15725952D01*
X8976429Y-15735476D01*
X8957381Y-15735476D01*
X8938333Y-15725952D01*
X8928810Y-15716428D01*
X8919286Y-15697381D01*
X8909762Y-15659286D01*
X8909762Y-15611667D01*
X8919286Y-15573571D01*
X8928810Y-15554524D01*
X8938333Y-15545000D01*
X8957381Y-15535476D01*
X9109762Y-15735476D02*
X9109762Y-15602143D01*
X9109762Y-15621190D02*
X9119286Y-15611667D01*
X9138333Y-15602143D01*
X9166905Y-15602143D01*
X9185952Y-15611667D01*
X9195476Y-15630714D01*
X9195476Y-15735476D01*
X9195476Y-15630714D02*
X9205000Y-15611667D01*
X9224048Y-15602143D01*
X9252619Y-15602143D01*
X9271667Y-15611667D01*
X9281190Y-15630714D01*
X9281190Y-15735476D01*
X9376429Y-15735476D02*
X9376429Y-15602143D01*
X9376429Y-15621190D02*
X9385952Y-15611667D01*
X9405000Y-15602143D01*
X9433571Y-15602143D01*
X9452619Y-15611667D01*
X9462143Y-15630714D01*
X9462143Y-15735476D01*
X9462143Y-15630714D02*
X9471667Y-15611667D01*
X9490714Y-15602143D01*
X9519286Y-15602143D01*
X9538333Y-15611667D01*
X9547857Y-15630714D01*
X9547857Y-15735476D01*
X9938333Y-15525952D02*
X9766905Y-15783095D01*
X10195476Y-15535476D02*
X10214524Y-15535476D01*
X10233571Y-15545000D01*
X10243095Y-15554524D01*
X10252619Y-15573571D01*
X10262143Y-15611667D01*
X10262143Y-15659286D01*
X10252619Y-15697381D01*
X10243095Y-15716428D01*
X10233571Y-15725952D01*
X10214524Y-15735476D01*
X10195476Y-15735476D01*
X10176429Y-15725952D01*
X10166905Y-15716428D01*
X10157381Y-15697381D01*
X10147857Y-15659286D01*
X10147857Y-15611667D01*
X10157381Y-15573571D01*
X10166905Y-15554524D01*
X10176429Y-15545000D01*
X10195476Y-15535476D01*
X10347857Y-15716428D02*
X10357381Y-15725952D01*
X10347857Y-15735476D01*
X10338333Y-15725952D01*
X10347857Y-15716428D01*
X10347857Y-15735476D01*
X10481190Y-15535476D02*
X10500238Y-15535476D01*
X10519286Y-15545000D01*
X10528810Y-15554524D01*
X10538333Y-15573571D01*
X10547857Y-15611667D01*
X10547857Y-15659286D01*
X10538333Y-15697381D01*
X10528810Y-15716428D01*
X10519286Y-15725952D01*
X10500238Y-15735476D01*
X10481190Y-15735476D01*
X10462143Y-15725952D01*
X10452619Y-15716428D01*
X10443095Y-15697381D01*
X10433571Y-15659286D01*
X10433571Y-15611667D01*
X10443095Y-15573571D01*
X10452619Y-15554524D01*
X10462143Y-15545000D01*
X10481190Y-15535476D01*
X10738333Y-15735476D02*
X10624048Y-15735476D01*
X10681190Y-15735476D02*
X10681190Y-15535476D01*
X10662143Y-15564048D01*
X10643095Y-15583095D01*
X10624048Y-15592619D01*
X10805000Y-15535476D02*
X10928810Y-15535476D01*
X10862143Y-15611667D01*
X10890714Y-15611667D01*
X10909762Y-15621190D01*
X10919286Y-15630714D01*
X10928810Y-15649762D01*
X10928810Y-15697381D01*
X10919286Y-15716428D01*
X10909762Y-15725952D01*
X10890714Y-15735476D01*
X10833571Y-15735476D01*
X10814524Y-15725952D01*
X10805000Y-15716428D01*
X11043095Y-15621190D02*
X11024048Y-15611667D01*
X11014524Y-15602143D01*
X11005000Y-15583095D01*
X11005000Y-15573571D01*
X11014524Y-15554524D01*
X11024048Y-15545000D01*
X11043095Y-15535476D01*
X11081190Y-15535476D01*
X11100238Y-15545000D01*
X11109762Y-15554524D01*
X11119286Y-15573571D01*
X11119286Y-15583095D01*
X11109762Y-15602143D01*
X11100238Y-15611667D01*
X11081190Y-15621190D01*
X11043095Y-15621190D01*
X11024048Y-15630714D01*
X11014524Y-15640238D01*
X11005000Y-15659286D01*
X11005000Y-15697381D01*
X11014524Y-15716428D01*
X11024048Y-15725952D01*
X11043095Y-15735476D01*
X11081190Y-15735476D01*
X11100238Y-15725952D01*
X11109762Y-15716428D01*
X11119286Y-15697381D01*
X11119286Y-15659286D01*
X11109762Y-15640238D01*
X11100238Y-15630714D01*
X11081190Y-15621190D01*
X11195476Y-15535476D02*
X11195476Y-15573571D01*
X11271667Y-15535476D02*
X11271667Y-15573571D01*
X11566905Y-15811667D02*
X11557381Y-15802143D01*
X11538333Y-15773571D01*
X11528809Y-15754524D01*
X11519286Y-15725952D01*
X11509762Y-15678333D01*
X11509762Y-15640238D01*
X11519286Y-15592619D01*
X11528809Y-15564048D01*
X11538333Y-15545000D01*
X11557381Y-15516428D01*
X11566905Y-15506905D01*
X11652619Y-15735476D02*
X11690714Y-15735476D01*
X11709762Y-15725952D01*
X11719286Y-15716428D01*
X11738333Y-15687857D01*
X11747857Y-15649762D01*
X11747857Y-15573571D01*
X11738333Y-15554524D01*
X11728809Y-15545000D01*
X11709762Y-15535476D01*
X11671667Y-15535476D01*
X11652619Y-15545000D01*
X11643095Y-15554524D01*
X11633571Y-15573571D01*
X11633571Y-15621190D01*
X11643095Y-15640238D01*
X11652619Y-15649762D01*
X11671667Y-15659286D01*
X11709762Y-15659286D01*
X11728809Y-15649762D01*
X11738333Y-15640238D01*
X11747857Y-15621190D01*
X11985952Y-15735476D02*
X11985952Y-15535476D01*
X12071667Y-15735476D02*
X12071667Y-15630714D01*
X12062143Y-15611667D01*
X12043095Y-15602143D01*
X12014524Y-15602143D01*
X11995476Y-15611667D01*
X11985952Y-15621190D01*
X12195476Y-15735476D02*
X12176428Y-15725952D01*
X12166905Y-15716428D01*
X12157381Y-15697381D01*
X12157381Y-15640238D01*
X12166905Y-15621190D01*
X12176428Y-15611667D01*
X12195476Y-15602143D01*
X12224048Y-15602143D01*
X12243095Y-15611667D01*
X12252619Y-15621190D01*
X12262143Y-15640238D01*
X12262143Y-15697381D01*
X12252619Y-15716428D01*
X12243095Y-15725952D01*
X12224048Y-15735476D01*
X12195476Y-15735476D01*
X12376428Y-15735476D02*
X12357381Y-15725952D01*
X12347857Y-15706905D01*
X12347857Y-15535476D01*
X12528809Y-15725952D02*
X12509762Y-15735476D01*
X12471667Y-15735476D01*
X12452619Y-15725952D01*
X12443095Y-15706905D01*
X12443095Y-15630714D01*
X12452619Y-15611667D01*
X12471667Y-15602143D01*
X12509762Y-15602143D01*
X12528809Y-15611667D01*
X12538333Y-15630714D01*
X12538333Y-15649762D01*
X12443095Y-15668809D01*
X12614524Y-15725952D02*
X12633571Y-15735476D01*
X12671667Y-15735476D01*
X12690714Y-15725952D01*
X12700238Y-15706905D01*
X12700238Y-15697381D01*
X12690714Y-15678333D01*
X12671667Y-15668809D01*
X12643095Y-15668809D01*
X12624048Y-15659286D01*
X12614524Y-15640238D01*
X12614524Y-15630714D01*
X12624048Y-15611667D01*
X12643095Y-15602143D01*
X12671667Y-15602143D01*
X12690714Y-15611667D01*
X12766905Y-15811667D02*
X12776428Y-15802143D01*
X12795476Y-15773571D01*
X12805000Y-15754524D01*
X12814524Y-15725952D01*
X12824048Y-15678333D01*
X12824048Y-15640238D01*
X12814524Y-15592619D01*
X12805000Y-15564048D01*
X12795476Y-15545000D01*
X12776428Y-15516428D01*
X12766905Y-15506905D01*
D14*
X7995000Y-15909000D02*
G75*
G03*
X7995000Y-15909000I-20000J0D01*
G01*
D12*
X8290714Y-15799476D02*
X8309762Y-15799476D01*
X8328809Y-15809000D01*
X8338333Y-15818524D01*
X8347857Y-15837571D01*
X8357381Y-15875667D01*
X8357381Y-15923286D01*
X8347857Y-15961381D01*
X8338333Y-15980428D01*
X8328809Y-15989952D01*
X8309762Y-15999476D01*
X8290714Y-15999476D01*
X8271667Y-15989952D01*
X8262143Y-15980428D01*
X8252619Y-15961381D01*
X8243095Y-15923286D01*
X8243095Y-15875667D01*
X8252619Y-15837571D01*
X8262143Y-15818524D01*
X8271667Y-15809000D01*
X8290714Y-15799476D01*
X8443095Y-15980428D02*
X8452619Y-15989952D01*
X8443095Y-15999476D01*
X8433571Y-15989952D01*
X8443095Y-15980428D01*
X8443095Y-15999476D01*
X8624048Y-15866143D02*
X8624048Y-15999476D01*
X8576429Y-15789952D02*
X8528810Y-15932809D01*
X8652619Y-15932809D01*
X8766905Y-15799476D02*
X8785952Y-15799476D01*
X8805000Y-15809000D01*
X8814524Y-15818524D01*
X8824048Y-15837571D01*
X8833571Y-15875667D01*
X8833571Y-15923286D01*
X8824048Y-15961381D01*
X8814524Y-15980428D01*
X8805000Y-15989952D01*
X8785952Y-15999476D01*
X8766905Y-15999476D01*
X8747857Y-15989952D01*
X8738333Y-15980428D01*
X8728810Y-15961381D01*
X8719286Y-15923286D01*
X8719286Y-15875667D01*
X8728810Y-15837571D01*
X8738333Y-15818524D01*
X8747857Y-15809000D01*
X8766905Y-15799476D01*
X8957381Y-15799476D02*
X8976429Y-15799476D01*
X8995476Y-15809000D01*
X9005000Y-15818524D01*
X9014524Y-15837571D01*
X9024048Y-15875667D01*
X9024048Y-15923286D01*
X9014524Y-15961381D01*
X9005000Y-15980428D01*
X8995476Y-15989952D01*
X8976429Y-15999476D01*
X8957381Y-15999476D01*
X8938333Y-15989952D01*
X8928810Y-15980428D01*
X8919286Y-15961381D01*
X8909762Y-15923286D01*
X8909762Y-15875667D01*
X8919286Y-15837571D01*
X8928810Y-15818524D01*
X8938333Y-15809000D01*
X8957381Y-15799476D01*
X9109762Y-15999476D02*
X9109762Y-15866143D01*
X9109762Y-15885190D02*
X9119286Y-15875667D01*
X9138333Y-15866143D01*
X9166905Y-15866143D01*
X9185952Y-15875667D01*
X9195476Y-15894714D01*
X9195476Y-15999476D01*
X9195476Y-15894714D02*
X9205000Y-15875667D01*
X9224048Y-15866143D01*
X9252619Y-15866143D01*
X9271667Y-15875667D01*
X9281190Y-15894714D01*
X9281190Y-15999476D01*
X9376429Y-15999476D02*
X9376429Y-15866143D01*
X9376429Y-15885190D02*
X9385952Y-15875667D01*
X9405000Y-15866143D01*
X9433571Y-15866143D01*
X9452619Y-15875667D01*
X9462143Y-15894714D01*
X9462143Y-15999476D01*
X9462143Y-15894714D02*
X9471667Y-15875667D01*
X9490714Y-15866143D01*
X9519286Y-15866143D01*
X9538333Y-15875667D01*
X9547857Y-15894714D01*
X9547857Y-15999476D01*
X9938333Y-15789952D02*
X9766905Y-16047095D01*
X10195476Y-15799476D02*
X10214524Y-15799476D01*
X10233571Y-15809000D01*
X10243095Y-15818524D01*
X10252619Y-15837571D01*
X10262143Y-15875667D01*
X10262143Y-15923286D01*
X10252619Y-15961381D01*
X10243095Y-15980428D01*
X10233571Y-15989952D01*
X10214524Y-15999476D01*
X10195476Y-15999476D01*
X10176429Y-15989952D01*
X10166905Y-15980428D01*
X10157381Y-15961381D01*
X10147857Y-15923286D01*
X10147857Y-15875667D01*
X10157381Y-15837571D01*
X10166905Y-15818524D01*
X10176429Y-15809000D01*
X10195476Y-15799476D01*
X10347857Y-15980428D02*
X10357381Y-15989952D01*
X10347857Y-15999476D01*
X10338333Y-15989952D01*
X10347857Y-15980428D01*
X10347857Y-15999476D01*
X10481190Y-15799476D02*
X10500238Y-15799476D01*
X10519286Y-15809000D01*
X10528810Y-15818524D01*
X10538333Y-15837571D01*
X10547857Y-15875667D01*
X10547857Y-15923286D01*
X10538333Y-15961381D01*
X10528810Y-15980428D01*
X10519286Y-15989952D01*
X10500238Y-15999476D01*
X10481190Y-15999476D01*
X10462143Y-15989952D01*
X10452619Y-15980428D01*
X10443095Y-15961381D01*
X10433571Y-15923286D01*
X10433571Y-15875667D01*
X10443095Y-15837571D01*
X10452619Y-15818524D01*
X10462143Y-15809000D01*
X10481190Y-15799476D01*
X10738333Y-15999476D02*
X10624048Y-15999476D01*
X10681190Y-15999476D02*
X10681190Y-15799476D01*
X10662143Y-15828048D01*
X10643095Y-15847095D01*
X10624048Y-15856619D01*
X10919286Y-15799476D02*
X10824048Y-15799476D01*
X10814524Y-15894714D01*
X10824048Y-15885190D01*
X10843095Y-15875667D01*
X10890714Y-15875667D01*
X10909762Y-15885190D01*
X10919286Y-15894714D01*
X10928810Y-15913762D01*
X10928810Y-15961381D01*
X10919286Y-15980428D01*
X10909762Y-15989952D01*
X10890714Y-15999476D01*
X10843095Y-15999476D01*
X10824048Y-15989952D01*
X10814524Y-15980428D01*
X10995476Y-15799476D02*
X11128810Y-15799476D01*
X11043095Y-15999476D01*
X11195476Y-15799476D02*
X11195476Y-15837571D01*
X11271667Y-15799476D02*
X11271667Y-15837571D01*
X11566905Y-16075667D02*
X11557381Y-16066143D01*
X11538333Y-16037571D01*
X11528809Y-16018524D01*
X11519286Y-15989952D01*
X11509762Y-15942333D01*
X11509762Y-15904238D01*
X11519286Y-15856619D01*
X11528809Y-15828048D01*
X11538333Y-15809000D01*
X11557381Y-15780428D01*
X11566905Y-15770905D01*
X11633571Y-15818524D02*
X11643095Y-15809000D01*
X11662143Y-15799476D01*
X11709762Y-15799476D01*
X11728809Y-15809000D01*
X11738333Y-15818524D01*
X11747857Y-15837571D01*
X11747857Y-15856619D01*
X11738333Y-15885190D01*
X11624048Y-15999476D01*
X11747857Y-15999476D01*
X11928809Y-15799476D02*
X11833571Y-15799476D01*
X11824048Y-15894714D01*
X11833571Y-15885190D01*
X11852619Y-15875667D01*
X11900238Y-15875667D01*
X11919286Y-15885190D01*
X11928809Y-15894714D01*
X11938333Y-15913762D01*
X11938333Y-15961381D01*
X11928809Y-15980428D01*
X11919286Y-15989952D01*
X11900238Y-15999476D01*
X11852619Y-15999476D01*
X11833571Y-15989952D01*
X11824048Y-15980428D01*
X12176428Y-15999476D02*
X12176428Y-15799476D01*
X12262143Y-15999476D02*
X12262143Y-15894714D01*
X12252619Y-15875667D01*
X12233571Y-15866143D01*
X12205000Y-15866143D01*
X12185952Y-15875667D01*
X12176428Y-15885190D01*
X12385952Y-15999476D02*
X12366905Y-15989952D01*
X12357381Y-15980428D01*
X12347857Y-15961381D01*
X12347857Y-15904238D01*
X12357381Y-15885190D01*
X12366905Y-15875667D01*
X12385952Y-15866143D01*
X12414524Y-15866143D01*
X12433571Y-15875667D01*
X12443095Y-15885190D01*
X12452619Y-15904238D01*
X12452619Y-15961381D01*
X12443095Y-15980428D01*
X12433571Y-15989952D01*
X12414524Y-15999476D01*
X12385952Y-15999476D01*
X12566905Y-15999476D02*
X12547857Y-15989952D01*
X12538333Y-15970905D01*
X12538333Y-15799476D01*
X12719286Y-15989952D02*
X12700238Y-15999476D01*
X12662143Y-15999476D01*
X12643095Y-15989952D01*
X12633571Y-15970905D01*
X12633571Y-15894714D01*
X12643095Y-15875667D01*
X12662143Y-15866143D01*
X12700238Y-15866143D01*
X12719286Y-15875667D01*
X12728809Y-15894714D01*
X12728809Y-15913762D01*
X12633571Y-15932809D01*
X12805000Y-15989952D02*
X12824048Y-15999476D01*
X12862143Y-15999476D01*
X12881190Y-15989952D01*
X12890714Y-15970905D01*
X12890714Y-15961381D01*
X12881190Y-15942333D01*
X12862143Y-15932809D01*
X12833571Y-15932809D01*
X12814524Y-15923286D01*
X12805000Y-15904238D01*
X12805000Y-15894714D01*
X12814524Y-15875667D01*
X12833571Y-15866143D01*
X12862143Y-15866143D01*
X12881190Y-15875667D01*
X12957381Y-16075667D02*
X12966905Y-16066143D01*
X12985952Y-16037571D01*
X12995476Y-16018524D01*
X13005000Y-15989952D01*
X13014524Y-15942333D01*
X13014524Y-15904238D01*
X13005000Y-15856619D01*
X12995476Y-15828048D01*
X12985952Y-15809000D01*
X12966905Y-15780428D01*
X12957381Y-15770905D01*
D14*
X7975000Y-16153000D02*
X7975000Y-16193000D01*
X7955000Y-16173000D02*
X7995000Y-16173000D01*
D12*
X8290714Y-16063476D02*
X8309762Y-16063476D01*
X8328809Y-16073000D01*
X8338333Y-16082524D01*
X8347857Y-16101571D01*
X8357381Y-16139667D01*
X8357381Y-16187286D01*
X8347857Y-16225381D01*
X8338333Y-16244428D01*
X8328809Y-16253952D01*
X8309762Y-16263476D01*
X8290714Y-16263476D01*
X8271667Y-16253952D01*
X8262143Y-16244428D01*
X8252619Y-16225381D01*
X8243095Y-16187286D01*
X8243095Y-16139667D01*
X8252619Y-16101571D01*
X8262143Y-16082524D01*
X8271667Y-16073000D01*
X8290714Y-16063476D01*
X8443095Y-16244428D02*
X8452619Y-16253952D01*
X8443095Y-16263476D01*
X8433571Y-16253952D01*
X8443095Y-16244428D01*
X8443095Y-16263476D01*
X8624048Y-16130143D02*
X8624048Y-16263476D01*
X8576429Y-16053952D02*
X8528810Y-16196809D01*
X8652619Y-16196809D01*
X8766905Y-16063476D02*
X8785952Y-16063476D01*
X8805000Y-16073000D01*
X8814524Y-16082524D01*
X8824048Y-16101571D01*
X8833571Y-16139667D01*
X8833571Y-16187286D01*
X8824048Y-16225381D01*
X8814524Y-16244428D01*
X8805000Y-16253952D01*
X8785952Y-16263476D01*
X8766905Y-16263476D01*
X8747857Y-16253952D01*
X8738333Y-16244428D01*
X8728810Y-16225381D01*
X8719286Y-16187286D01*
X8719286Y-16139667D01*
X8728810Y-16101571D01*
X8738333Y-16082524D01*
X8747857Y-16073000D01*
X8766905Y-16063476D01*
X8957381Y-16063476D02*
X8976429Y-16063476D01*
X8995476Y-16073000D01*
X9005000Y-16082524D01*
X9014524Y-16101571D01*
X9024048Y-16139667D01*
X9024048Y-16187286D01*
X9014524Y-16225381D01*
X9005000Y-16244428D01*
X8995476Y-16253952D01*
X8976429Y-16263476D01*
X8957381Y-16263476D01*
X8938333Y-16253952D01*
X8928810Y-16244428D01*
X8919286Y-16225381D01*
X8909762Y-16187286D01*
X8909762Y-16139667D01*
X8919286Y-16101571D01*
X8928810Y-16082524D01*
X8938333Y-16073000D01*
X8957381Y-16063476D01*
X9109762Y-16263476D02*
X9109762Y-16130143D01*
X9109762Y-16149190D02*
X9119286Y-16139667D01*
X9138333Y-16130143D01*
X9166905Y-16130143D01*
X9185952Y-16139667D01*
X9195476Y-16158714D01*
X9195476Y-16263476D01*
X9195476Y-16158714D02*
X9205000Y-16139667D01*
X9224048Y-16130143D01*
X9252619Y-16130143D01*
X9271667Y-16139667D01*
X9281190Y-16158714D01*
X9281190Y-16263476D01*
X9376429Y-16263476D02*
X9376429Y-16130143D01*
X9376429Y-16149190D02*
X9385952Y-16139667D01*
X9405000Y-16130143D01*
X9433571Y-16130143D01*
X9452619Y-16139667D01*
X9462143Y-16158714D01*
X9462143Y-16263476D01*
X9462143Y-16158714D02*
X9471667Y-16139667D01*
X9490714Y-16130143D01*
X9519286Y-16130143D01*
X9538333Y-16139667D01*
X9547857Y-16158714D01*
X9547857Y-16263476D01*
X9938333Y-16053952D02*
X9766905Y-16311095D01*
X10195476Y-16063476D02*
X10214524Y-16063476D01*
X10233571Y-16073000D01*
X10243095Y-16082524D01*
X10252619Y-16101571D01*
X10262143Y-16139667D01*
X10262143Y-16187286D01*
X10252619Y-16225381D01*
X10243095Y-16244428D01*
X10233571Y-16253952D01*
X10214524Y-16263476D01*
X10195476Y-16263476D01*
X10176429Y-16253952D01*
X10166905Y-16244428D01*
X10157381Y-16225381D01*
X10147857Y-16187286D01*
X10147857Y-16139667D01*
X10157381Y-16101571D01*
X10166905Y-16082524D01*
X10176429Y-16073000D01*
X10195476Y-16063476D01*
X10347857Y-16244428D02*
X10357381Y-16253952D01*
X10347857Y-16263476D01*
X10338333Y-16253952D01*
X10347857Y-16244428D01*
X10347857Y-16263476D01*
X10481190Y-16063476D02*
X10500238Y-16063476D01*
X10519286Y-16073000D01*
X10528810Y-16082524D01*
X10538333Y-16101571D01*
X10547857Y-16139667D01*
X10547857Y-16187286D01*
X10538333Y-16225381D01*
X10528810Y-16244428D01*
X10519286Y-16253952D01*
X10500238Y-16263476D01*
X10481190Y-16263476D01*
X10462143Y-16253952D01*
X10452619Y-16244428D01*
X10443095Y-16225381D01*
X10433571Y-16187286D01*
X10433571Y-16139667D01*
X10443095Y-16101571D01*
X10452619Y-16082524D01*
X10462143Y-16073000D01*
X10481190Y-16063476D01*
X10738333Y-16263476D02*
X10624048Y-16263476D01*
X10681190Y-16263476D02*
X10681190Y-16063476D01*
X10662143Y-16092048D01*
X10643095Y-16111095D01*
X10624048Y-16120619D01*
X10919286Y-16063476D02*
X10824048Y-16063476D01*
X10814524Y-16158714D01*
X10824048Y-16149190D01*
X10843095Y-16139667D01*
X10890714Y-16139667D01*
X10909762Y-16149190D01*
X10919286Y-16158714D01*
X10928810Y-16177762D01*
X10928810Y-16225381D01*
X10919286Y-16244428D01*
X10909762Y-16253952D01*
X10890714Y-16263476D01*
X10843095Y-16263476D01*
X10824048Y-16253952D01*
X10814524Y-16244428D01*
X10995476Y-16063476D02*
X11128810Y-16063476D01*
X11043095Y-16263476D01*
X11195476Y-16063476D02*
X11195476Y-16101571D01*
X11271667Y-16063476D02*
X11271667Y-16101571D01*
X11566905Y-16339667D02*
X11557381Y-16330143D01*
X11538333Y-16301571D01*
X11528809Y-16282524D01*
X11519286Y-16253952D01*
X11509762Y-16206333D01*
X11509762Y-16168238D01*
X11519286Y-16120619D01*
X11528809Y-16092048D01*
X11538333Y-16073000D01*
X11557381Y-16044428D01*
X11566905Y-16034905D01*
X11747857Y-16263476D02*
X11633571Y-16263476D01*
X11690714Y-16263476D02*
X11690714Y-16063476D01*
X11671667Y-16092048D01*
X11652619Y-16111095D01*
X11633571Y-16120619D01*
X11919286Y-16063476D02*
X11881190Y-16063476D01*
X11862143Y-16073000D01*
X11852619Y-16082524D01*
X11833571Y-16111095D01*
X11824048Y-16149190D01*
X11824048Y-16225381D01*
X11833571Y-16244428D01*
X11843095Y-16253952D01*
X11862143Y-16263476D01*
X11900238Y-16263476D01*
X11919286Y-16253952D01*
X11928809Y-16244428D01*
X11938333Y-16225381D01*
X11938333Y-16177762D01*
X11928809Y-16158714D01*
X11919286Y-16149190D01*
X11900238Y-16139667D01*
X11862143Y-16139667D01*
X11843095Y-16149190D01*
X11833571Y-16158714D01*
X11824048Y-16177762D01*
X12176428Y-16263476D02*
X12176428Y-16063476D01*
X12262143Y-16263476D02*
X12262143Y-16158714D01*
X12252619Y-16139667D01*
X12233571Y-16130143D01*
X12205000Y-16130143D01*
X12185952Y-16139667D01*
X12176428Y-16149190D01*
X12385952Y-16263476D02*
X12366905Y-16253952D01*
X12357381Y-16244428D01*
X12347857Y-16225381D01*
X12347857Y-16168238D01*
X12357381Y-16149190D01*
X12366905Y-16139667D01*
X12385952Y-16130143D01*
X12414524Y-16130143D01*
X12433571Y-16139667D01*
X12443095Y-16149190D01*
X12452619Y-16168238D01*
X12452619Y-16225381D01*
X12443095Y-16244428D01*
X12433571Y-16253952D01*
X12414524Y-16263476D01*
X12385952Y-16263476D01*
X12566905Y-16263476D02*
X12547857Y-16253952D01*
X12538333Y-16234905D01*
X12538333Y-16063476D01*
X12719286Y-16253952D02*
X12700238Y-16263476D01*
X12662143Y-16263476D01*
X12643095Y-16253952D01*
X12633571Y-16234905D01*
X12633571Y-16158714D01*
X12643095Y-16139667D01*
X12662143Y-16130143D01*
X12700238Y-16130143D01*
X12719286Y-16139667D01*
X12728809Y-16158714D01*
X12728809Y-16177762D01*
X12633571Y-16196809D01*
X12805000Y-16253952D02*
X12824048Y-16263476D01*
X12862143Y-16263476D01*
X12881190Y-16253952D01*
X12890714Y-16234905D01*
X12890714Y-16225381D01*
X12881190Y-16206333D01*
X12862143Y-16196809D01*
X12833571Y-16196809D01*
X12814524Y-16187286D01*
X12805000Y-16168238D01*
X12805000Y-16158714D01*
X12814524Y-16139667D01*
X12833571Y-16130143D01*
X12862143Y-16130143D01*
X12881190Y-16139667D01*
X12957381Y-16339667D02*
X12966905Y-16330143D01*
X12985952Y-16301571D01*
X12995476Y-16282524D01*
X13005000Y-16253952D01*
X13014524Y-16206333D01*
X13014524Y-16168238D01*
X13005000Y-16120619D01*
X12995476Y-16092048D01*
X12985952Y-16073000D01*
X12966905Y-16044428D01*
X12957381Y-16034905D01*
D15*
X7986213Y-16458213D02*
X7986213Y-16415787D01*
X7943787Y-16415787D01*
X7943787Y-16458213D01*
X7986213Y-16458213D01*
D12*
X8290714Y-16327476D02*
X8309762Y-16327476D01*
X8328809Y-16337000D01*
X8338333Y-16346524D01*
X8347857Y-16365571D01*
X8357381Y-16403667D01*
X8357381Y-16451286D01*
X8347857Y-16489381D01*
X8338333Y-16508428D01*
X8328809Y-16517952D01*
X8309762Y-16527476D01*
X8290714Y-16527476D01*
X8271667Y-16517952D01*
X8262143Y-16508428D01*
X8252619Y-16489381D01*
X8243095Y-16451286D01*
X8243095Y-16403667D01*
X8252619Y-16365571D01*
X8262143Y-16346524D01*
X8271667Y-16337000D01*
X8290714Y-16327476D01*
X8443095Y-16508428D02*
X8452619Y-16517952D01*
X8443095Y-16527476D01*
X8433571Y-16517952D01*
X8443095Y-16508428D01*
X8443095Y-16527476D01*
X8624048Y-16327476D02*
X8585952Y-16327476D01*
X8566905Y-16337000D01*
X8557381Y-16346524D01*
X8538333Y-16375095D01*
X8528810Y-16413190D01*
X8528810Y-16489381D01*
X8538333Y-16508428D01*
X8547857Y-16517952D01*
X8566905Y-16527476D01*
X8605000Y-16527476D01*
X8624048Y-16517952D01*
X8633571Y-16508428D01*
X8643095Y-16489381D01*
X8643095Y-16441762D01*
X8633571Y-16422714D01*
X8624048Y-16413190D01*
X8605000Y-16403667D01*
X8566905Y-16403667D01*
X8547857Y-16413190D01*
X8538333Y-16422714D01*
X8528810Y-16441762D01*
X8766905Y-16327476D02*
X8785952Y-16327476D01*
X8805000Y-16337000D01*
X8814524Y-16346524D01*
X8824048Y-16365571D01*
X8833571Y-16403667D01*
X8833571Y-16451286D01*
X8824048Y-16489381D01*
X8814524Y-16508428D01*
X8805000Y-16517952D01*
X8785952Y-16527476D01*
X8766905Y-16527476D01*
X8747857Y-16517952D01*
X8738333Y-16508428D01*
X8728810Y-16489381D01*
X8719286Y-16451286D01*
X8719286Y-16403667D01*
X8728810Y-16365571D01*
X8738333Y-16346524D01*
X8747857Y-16337000D01*
X8766905Y-16327476D01*
X8957381Y-16327476D02*
X8976429Y-16327476D01*
X8995476Y-16337000D01*
X9005000Y-16346524D01*
X9014524Y-16365571D01*
X9024048Y-16403667D01*
X9024048Y-16451286D01*
X9014524Y-16489381D01*
X9005000Y-16508428D01*
X8995476Y-16517952D01*
X8976429Y-16527476D01*
X8957381Y-16527476D01*
X8938333Y-16517952D01*
X8928810Y-16508428D01*
X8919286Y-16489381D01*
X8909762Y-16451286D01*
X8909762Y-16403667D01*
X8919286Y-16365571D01*
X8928810Y-16346524D01*
X8938333Y-16337000D01*
X8957381Y-16327476D01*
X9109762Y-16527476D02*
X9109762Y-16394143D01*
X9109762Y-16413190D02*
X9119286Y-16403667D01*
X9138333Y-16394143D01*
X9166905Y-16394143D01*
X9185952Y-16403667D01*
X9195476Y-16422714D01*
X9195476Y-16527476D01*
X9195476Y-16422714D02*
X9205000Y-16403667D01*
X9224048Y-16394143D01*
X9252619Y-16394143D01*
X9271667Y-16403667D01*
X9281190Y-16422714D01*
X9281190Y-16527476D01*
X9376429Y-16527476D02*
X9376429Y-16394143D01*
X9376429Y-16413190D02*
X9385952Y-16403667D01*
X9405000Y-16394143D01*
X9433571Y-16394143D01*
X9452619Y-16403667D01*
X9462143Y-16422714D01*
X9462143Y-16527476D01*
X9462143Y-16422714D02*
X9471667Y-16403667D01*
X9490714Y-16394143D01*
X9519286Y-16394143D01*
X9538333Y-16403667D01*
X9547857Y-16422714D01*
X9547857Y-16527476D01*
X9938333Y-16317952D02*
X9766905Y-16575095D01*
X10195476Y-16327476D02*
X10214524Y-16327476D01*
X10233571Y-16337000D01*
X10243095Y-16346524D01*
X10252619Y-16365571D01*
X10262143Y-16403667D01*
X10262143Y-16451286D01*
X10252619Y-16489381D01*
X10243095Y-16508428D01*
X10233571Y-16517952D01*
X10214524Y-16527476D01*
X10195476Y-16527476D01*
X10176429Y-16517952D01*
X10166905Y-16508428D01*
X10157381Y-16489381D01*
X10147857Y-16451286D01*
X10147857Y-16403667D01*
X10157381Y-16365571D01*
X10166905Y-16346524D01*
X10176429Y-16337000D01*
X10195476Y-16327476D01*
X10347857Y-16508428D02*
X10357381Y-16517952D01*
X10347857Y-16527476D01*
X10338333Y-16517952D01*
X10347857Y-16508428D01*
X10347857Y-16527476D01*
X10481190Y-16327476D02*
X10500238Y-16327476D01*
X10519286Y-16337000D01*
X10528810Y-16346524D01*
X10538333Y-16365571D01*
X10547857Y-16403667D01*
X10547857Y-16451286D01*
X10538333Y-16489381D01*
X10528810Y-16508428D01*
X10519286Y-16517952D01*
X10500238Y-16527476D01*
X10481190Y-16527476D01*
X10462143Y-16517952D01*
X10452619Y-16508428D01*
X10443095Y-16489381D01*
X10433571Y-16451286D01*
X10433571Y-16403667D01*
X10443095Y-16365571D01*
X10452619Y-16346524D01*
X10462143Y-16337000D01*
X10481190Y-16327476D01*
X10624048Y-16346524D02*
X10633571Y-16337000D01*
X10652619Y-16327476D01*
X10700238Y-16327476D01*
X10719286Y-16337000D01*
X10728810Y-16346524D01*
X10738333Y-16365571D01*
X10738333Y-16384619D01*
X10728810Y-16413190D01*
X10614524Y-16527476D01*
X10738333Y-16527476D01*
X10805000Y-16327476D02*
X10928810Y-16327476D01*
X10862143Y-16403667D01*
X10890714Y-16403667D01*
X10909762Y-16413190D01*
X10919286Y-16422714D01*
X10928810Y-16441762D01*
X10928810Y-16489381D01*
X10919286Y-16508428D01*
X10909762Y-16517952D01*
X10890714Y-16527476D01*
X10833571Y-16527476D01*
X10814524Y-16517952D01*
X10805000Y-16508428D01*
X11100238Y-16327476D02*
X11062143Y-16327476D01*
X11043095Y-16337000D01*
X11033571Y-16346524D01*
X11014524Y-16375095D01*
X11005000Y-16413190D01*
X11005000Y-16489381D01*
X11014524Y-16508428D01*
X11024048Y-16517952D01*
X11043095Y-16527476D01*
X11081190Y-16527476D01*
X11100238Y-16517952D01*
X11109762Y-16508428D01*
X11119286Y-16489381D01*
X11119286Y-16441762D01*
X11109762Y-16422714D01*
X11100238Y-16413190D01*
X11081190Y-16403667D01*
X11043095Y-16403667D01*
X11024048Y-16413190D01*
X11014524Y-16422714D01*
X11005000Y-16441762D01*
X11195476Y-16327476D02*
X11195476Y-16365571D01*
X11271667Y-16327476D02*
X11271667Y-16365571D01*
X11566905Y-16603667D02*
X11557381Y-16594143D01*
X11538333Y-16565571D01*
X11528809Y-16546524D01*
X11519286Y-16517952D01*
X11509762Y-16470333D01*
X11509762Y-16432238D01*
X11519286Y-16384619D01*
X11528809Y-16356048D01*
X11538333Y-16337000D01*
X11557381Y-16308428D01*
X11566905Y-16298905D01*
X11681190Y-16327476D02*
X11700238Y-16327476D01*
X11719286Y-16337000D01*
X11728809Y-16346524D01*
X11738333Y-16365571D01*
X11747857Y-16403667D01*
X11747857Y-16451286D01*
X11738333Y-16489381D01*
X11728809Y-16508428D01*
X11719286Y-16517952D01*
X11700238Y-16527476D01*
X11681190Y-16527476D01*
X11662143Y-16517952D01*
X11652619Y-16508428D01*
X11643095Y-16489381D01*
X11633571Y-16451286D01*
X11633571Y-16403667D01*
X11643095Y-16365571D01*
X11652619Y-16346524D01*
X11662143Y-16337000D01*
X11681190Y-16327476D01*
X11985952Y-16527476D02*
X11985952Y-16327476D01*
X12071667Y-16527476D02*
X12071667Y-16422714D01*
X12062143Y-16403667D01*
X12043095Y-16394143D01*
X12014524Y-16394143D01*
X11995476Y-16403667D01*
X11985952Y-16413190D01*
X12195476Y-16527476D02*
X12176428Y-16517952D01*
X12166905Y-16508428D01*
X12157381Y-16489381D01*
X12157381Y-16432238D01*
X12166905Y-16413190D01*
X12176428Y-16403667D01*
X12195476Y-16394143D01*
X12224048Y-16394143D01*
X12243095Y-16403667D01*
X12252619Y-16413190D01*
X12262143Y-16432238D01*
X12262143Y-16489381D01*
X12252619Y-16508428D01*
X12243095Y-16517952D01*
X12224048Y-16527476D01*
X12195476Y-16527476D01*
X12376428Y-16527476D02*
X12357381Y-16517952D01*
X12347857Y-16498905D01*
X12347857Y-16327476D01*
X12528809Y-16517952D02*
X12509762Y-16527476D01*
X12471667Y-16527476D01*
X12452619Y-16517952D01*
X12443095Y-16498905D01*
X12443095Y-16422714D01*
X12452619Y-16403667D01*
X12471667Y-16394143D01*
X12509762Y-16394143D01*
X12528809Y-16403667D01*
X12538333Y-16422714D01*
X12538333Y-16441762D01*
X12443095Y-16460809D01*
X12614524Y-16517952D02*
X12633571Y-16527476D01*
X12671667Y-16527476D01*
X12690714Y-16517952D01*
X12700238Y-16498905D01*
X12700238Y-16489381D01*
X12690714Y-16470333D01*
X12671667Y-16460809D01*
X12643095Y-16460809D01*
X12624048Y-16451286D01*
X12614524Y-16432238D01*
X12614524Y-16422714D01*
X12624048Y-16403667D01*
X12643095Y-16394143D01*
X12671667Y-16394143D01*
X12690714Y-16403667D01*
X12938333Y-16451286D02*
X13090714Y-16451286D01*
X13014524Y-16527476D02*
X13014524Y-16375095D01*
X13424048Y-16394143D02*
X13424048Y-16527476D01*
X13376428Y-16317952D02*
X13328809Y-16460809D01*
X13452619Y-16460809D01*
X13671667Y-16517952D02*
X13690714Y-16527476D01*
X13728809Y-16527476D01*
X13747857Y-16517952D01*
X13757381Y-16498905D01*
X13757381Y-16489381D01*
X13747857Y-16470333D01*
X13728809Y-16460809D01*
X13700238Y-16460809D01*
X13681190Y-16451286D01*
X13671667Y-16432238D01*
X13671667Y-16422714D01*
X13681190Y-16403667D01*
X13700238Y-16394143D01*
X13728809Y-16394143D01*
X13747857Y-16403667D01*
X13871667Y-16527476D02*
X13852619Y-16517952D01*
X13843095Y-16498905D01*
X13843095Y-16327476D01*
X13976428Y-16527476D02*
X13957381Y-16517952D01*
X13947857Y-16508428D01*
X13938333Y-16489381D01*
X13938333Y-16432238D01*
X13947857Y-16413190D01*
X13957381Y-16403667D01*
X13976428Y-16394143D01*
X14005000Y-16394143D01*
X14024048Y-16403667D01*
X14033571Y-16413190D01*
X14043095Y-16432238D01*
X14043095Y-16489381D01*
X14033571Y-16508428D01*
X14024048Y-16517952D01*
X14005000Y-16527476D01*
X13976428Y-16527476D01*
X14100238Y-16394143D02*
X14176428Y-16394143D01*
X14128809Y-16327476D02*
X14128809Y-16498905D01*
X14138333Y-16517952D01*
X14157381Y-16527476D01*
X14176428Y-16527476D01*
X14233571Y-16517952D02*
X14252619Y-16527476D01*
X14290714Y-16527476D01*
X14309762Y-16517952D01*
X14319286Y-16498905D01*
X14319286Y-16489381D01*
X14309762Y-16470333D01*
X14290714Y-16460809D01*
X14262143Y-16460809D01*
X14243095Y-16451286D01*
X14233571Y-16432238D01*
X14233571Y-16422714D01*
X14243095Y-16403667D01*
X14262143Y-16394143D01*
X14290714Y-16394143D01*
X14309762Y-16403667D01*
X14385952Y-16603667D02*
X14395476Y-16594143D01*
X14414524Y-16565571D01*
X14424048Y-16546524D01*
X14433571Y-16517952D01*
X14443095Y-16470333D01*
X14443095Y-16432238D01*
X14433571Y-16384619D01*
X14424048Y-16356048D01*
X14414524Y-16337000D01*
X14395476Y-16308428D01*
X14385952Y-16298905D01*
D16*
X7962500Y-16733500D02*
X7995000Y-16701000D01*
X7962500Y-16668500D01*
X7930000Y-16701000D01*
X7962500Y-16733500D01*
D12*
X8290714Y-16591476D02*
X8309762Y-16591476D01*
X8328809Y-16601000D01*
X8338333Y-16610524D01*
X8347857Y-16629571D01*
X8357381Y-16667667D01*
X8357381Y-16715286D01*
X8347857Y-16753381D01*
X8338333Y-16772428D01*
X8328809Y-16781952D01*
X8309762Y-16791476D01*
X8290714Y-16791476D01*
X8271667Y-16781952D01*
X8262143Y-16772428D01*
X8252619Y-16753381D01*
X8243095Y-16715286D01*
X8243095Y-16667667D01*
X8252619Y-16629571D01*
X8262143Y-16610524D01*
X8271667Y-16601000D01*
X8290714Y-16591476D01*
X8443095Y-16772428D02*
X8452619Y-16781952D01*
X8443095Y-16791476D01*
X8433571Y-16781952D01*
X8443095Y-16772428D01*
X8443095Y-16791476D01*
X8624048Y-16591476D02*
X8585952Y-16591476D01*
X8566905Y-16601000D01*
X8557381Y-16610524D01*
X8538333Y-16639095D01*
X8528810Y-16677190D01*
X8528810Y-16753381D01*
X8538333Y-16772428D01*
X8547857Y-16781952D01*
X8566905Y-16791476D01*
X8605000Y-16791476D01*
X8624048Y-16781952D01*
X8633571Y-16772428D01*
X8643095Y-16753381D01*
X8643095Y-16705762D01*
X8633571Y-16686714D01*
X8624048Y-16677190D01*
X8605000Y-16667667D01*
X8566905Y-16667667D01*
X8547857Y-16677190D01*
X8538333Y-16686714D01*
X8528810Y-16705762D01*
X8824048Y-16591476D02*
X8728810Y-16591476D01*
X8719286Y-16686714D01*
X8728810Y-16677190D01*
X8747857Y-16667667D01*
X8795476Y-16667667D01*
X8814524Y-16677190D01*
X8824048Y-16686714D01*
X8833571Y-16705762D01*
X8833571Y-16753381D01*
X8824048Y-16772428D01*
X8814524Y-16781952D01*
X8795476Y-16791476D01*
X8747857Y-16791476D01*
X8728810Y-16781952D01*
X8719286Y-16772428D01*
X8957381Y-16591476D02*
X8976429Y-16591476D01*
X8995476Y-16601000D01*
X9005000Y-16610524D01*
X9014524Y-16629571D01*
X9024048Y-16667667D01*
X9024048Y-16715286D01*
X9014524Y-16753381D01*
X9005000Y-16772428D01*
X8995476Y-16781952D01*
X8976429Y-16791476D01*
X8957381Y-16791476D01*
X8938333Y-16781952D01*
X8928810Y-16772428D01*
X8919286Y-16753381D01*
X8909762Y-16715286D01*
X8909762Y-16667667D01*
X8919286Y-16629571D01*
X8928810Y-16610524D01*
X8938333Y-16601000D01*
X8957381Y-16591476D01*
X9109762Y-16791476D02*
X9109762Y-16658143D01*
X9109762Y-16677190D02*
X9119286Y-16667667D01*
X9138333Y-16658143D01*
X9166905Y-16658143D01*
X9185952Y-16667667D01*
X9195476Y-16686714D01*
X9195476Y-16791476D01*
X9195476Y-16686714D02*
X9205000Y-16667667D01*
X9224048Y-16658143D01*
X9252619Y-16658143D01*
X9271667Y-16667667D01*
X9281190Y-16686714D01*
X9281190Y-16791476D01*
X9376429Y-16791476D02*
X9376429Y-16658143D01*
X9376429Y-16677190D02*
X9385952Y-16667667D01*
X9405000Y-16658143D01*
X9433571Y-16658143D01*
X9452619Y-16667667D01*
X9462143Y-16686714D01*
X9462143Y-16791476D01*
X9462143Y-16686714D02*
X9471667Y-16667667D01*
X9490714Y-16658143D01*
X9519286Y-16658143D01*
X9538333Y-16667667D01*
X9547857Y-16686714D01*
X9547857Y-16791476D01*
X9938333Y-16581952D02*
X9766905Y-16839095D01*
X10195476Y-16591476D02*
X10214524Y-16591476D01*
X10233571Y-16601000D01*
X10243095Y-16610524D01*
X10252619Y-16629571D01*
X10262143Y-16667667D01*
X10262143Y-16715286D01*
X10252619Y-16753381D01*
X10243095Y-16772428D01*
X10233571Y-16781952D01*
X10214524Y-16791476D01*
X10195476Y-16791476D01*
X10176429Y-16781952D01*
X10166905Y-16772428D01*
X10157381Y-16753381D01*
X10147857Y-16715286D01*
X10147857Y-16667667D01*
X10157381Y-16629571D01*
X10166905Y-16610524D01*
X10176429Y-16601000D01*
X10195476Y-16591476D01*
X10347857Y-16772428D02*
X10357381Y-16781952D01*
X10347857Y-16791476D01*
X10338333Y-16781952D01*
X10347857Y-16772428D01*
X10347857Y-16791476D01*
X10481190Y-16591476D02*
X10500238Y-16591476D01*
X10519286Y-16601000D01*
X10528810Y-16610524D01*
X10538333Y-16629571D01*
X10547857Y-16667667D01*
X10547857Y-16715286D01*
X10538333Y-16753381D01*
X10528810Y-16772428D01*
X10519286Y-16781952D01*
X10500238Y-16791476D01*
X10481190Y-16791476D01*
X10462143Y-16781952D01*
X10452619Y-16772428D01*
X10443095Y-16753381D01*
X10433571Y-16715286D01*
X10433571Y-16667667D01*
X10443095Y-16629571D01*
X10452619Y-16610524D01*
X10462143Y-16601000D01*
X10481190Y-16591476D01*
X10624048Y-16610524D02*
X10633571Y-16601000D01*
X10652619Y-16591476D01*
X10700238Y-16591476D01*
X10719286Y-16601000D01*
X10728810Y-16610524D01*
X10738333Y-16629571D01*
X10738333Y-16648619D01*
X10728810Y-16677190D01*
X10614524Y-16791476D01*
X10738333Y-16791476D01*
X10919286Y-16591476D02*
X10824048Y-16591476D01*
X10814524Y-16686714D01*
X10824048Y-16677190D01*
X10843095Y-16667667D01*
X10890714Y-16667667D01*
X10909762Y-16677190D01*
X10919286Y-16686714D01*
X10928810Y-16705762D01*
X10928810Y-16753381D01*
X10919286Y-16772428D01*
X10909762Y-16781952D01*
X10890714Y-16791476D01*
X10843095Y-16791476D01*
X10824048Y-16781952D01*
X10814524Y-16772428D01*
X11100238Y-16591476D02*
X11062143Y-16591476D01*
X11043095Y-16601000D01*
X11033571Y-16610524D01*
X11014524Y-16639095D01*
X11005000Y-16677190D01*
X11005000Y-16753381D01*
X11014524Y-16772428D01*
X11024048Y-16781952D01*
X11043095Y-16791476D01*
X11081190Y-16791476D01*
X11100238Y-16781952D01*
X11109762Y-16772428D01*
X11119286Y-16753381D01*
X11119286Y-16705762D01*
X11109762Y-16686714D01*
X11100238Y-16677190D01*
X11081190Y-16667667D01*
X11043095Y-16667667D01*
X11024048Y-16677190D01*
X11014524Y-16686714D01*
X11005000Y-16705762D01*
X11195476Y-16591476D02*
X11195476Y-16629571D01*
X11271667Y-16591476D02*
X11271667Y-16629571D01*
X11566905Y-16867667D02*
X11557381Y-16858143D01*
X11538333Y-16829571D01*
X11528809Y-16810524D01*
X11519286Y-16781952D01*
X11509762Y-16734333D01*
X11509762Y-16696238D01*
X11519286Y-16648619D01*
X11528809Y-16620048D01*
X11538333Y-16601000D01*
X11557381Y-16572428D01*
X11566905Y-16562905D01*
X11728809Y-16591476D02*
X11690714Y-16591476D01*
X11671667Y-16601000D01*
X11662143Y-16610524D01*
X11643095Y-16639095D01*
X11633571Y-16677190D01*
X11633571Y-16753381D01*
X11643095Y-16772428D01*
X11652619Y-16781952D01*
X11671667Y-16791476D01*
X11709762Y-16791476D01*
X11728809Y-16781952D01*
X11738333Y-16772428D01*
X11747857Y-16753381D01*
X11747857Y-16705762D01*
X11738333Y-16686714D01*
X11728809Y-16677190D01*
X11709762Y-16667667D01*
X11671667Y-16667667D01*
X11652619Y-16677190D01*
X11643095Y-16686714D01*
X11633571Y-16705762D01*
X11985952Y-16791476D02*
X11985952Y-16591476D01*
X12071667Y-16791476D02*
X12071667Y-16686714D01*
X12062143Y-16667667D01*
X12043095Y-16658143D01*
X12014524Y-16658143D01*
X11995476Y-16667667D01*
X11985952Y-16677190D01*
X12195476Y-16791476D02*
X12176428Y-16781952D01*
X12166905Y-16772428D01*
X12157381Y-16753381D01*
X12157381Y-16696238D01*
X12166905Y-16677190D01*
X12176428Y-16667667D01*
X12195476Y-16658143D01*
X12224048Y-16658143D01*
X12243095Y-16667667D01*
X12252619Y-16677190D01*
X12262143Y-16696238D01*
X12262143Y-16753381D01*
X12252619Y-16772428D01*
X12243095Y-16781952D01*
X12224048Y-16791476D01*
X12195476Y-16791476D01*
X12376428Y-16791476D02*
X12357381Y-16781952D01*
X12347857Y-16762905D01*
X12347857Y-16591476D01*
X12528809Y-16781952D02*
X12509762Y-16791476D01*
X12471667Y-16791476D01*
X12452619Y-16781952D01*
X12443095Y-16762905D01*
X12443095Y-16686714D01*
X12452619Y-16667667D01*
X12471667Y-16658143D01*
X12509762Y-16658143D01*
X12528809Y-16667667D01*
X12538333Y-16686714D01*
X12538333Y-16705762D01*
X12443095Y-16724809D01*
X12614524Y-16781952D02*
X12633571Y-16791476D01*
X12671667Y-16791476D01*
X12690714Y-16781952D01*
X12700238Y-16762905D01*
X12700238Y-16753381D01*
X12690714Y-16734333D01*
X12671667Y-16724809D01*
X12643095Y-16724809D01*
X12624048Y-16715286D01*
X12614524Y-16696238D01*
X12614524Y-16686714D01*
X12624048Y-16667667D01*
X12643095Y-16658143D01*
X12671667Y-16658143D01*
X12690714Y-16667667D01*
X12766905Y-16867667D02*
X12776428Y-16858143D01*
X12795476Y-16829571D01*
X12805000Y-16810524D01*
X12814524Y-16781952D01*
X12824048Y-16734333D01*
X12824048Y-16696238D01*
X12814524Y-16648619D01*
X12805000Y-16620048D01*
X12795476Y-16601000D01*
X12776428Y-16572428D01*
X12766905Y-16562905D01*
D17*
X7915000Y-16925000D02*
X7995000Y-17005000D01*
X7995000Y-16925000D02*
X7915000Y-17005000D01*
X7995000Y-16965000D02*
G75*
G03*
X7995000Y-16965000I-40000J0D01*
G01*
D12*
X8290714Y-16855476D02*
X8309762Y-16855476D01*
X8328809Y-16865000D01*
X8338333Y-16874524D01*
X8347857Y-16893571D01*
X8357381Y-16931667D01*
X8357381Y-16979286D01*
X8347857Y-17017381D01*
X8338333Y-17036429D01*
X8328809Y-17045952D01*
X8309762Y-17055476D01*
X8290714Y-17055476D01*
X8271667Y-17045952D01*
X8262143Y-17036429D01*
X8252619Y-17017381D01*
X8243095Y-16979286D01*
X8243095Y-16931667D01*
X8252619Y-16893571D01*
X8262143Y-16874524D01*
X8271667Y-16865000D01*
X8290714Y-16855476D01*
X8443095Y-17036429D02*
X8452619Y-17045952D01*
X8443095Y-17055476D01*
X8433571Y-17045952D01*
X8443095Y-17036429D01*
X8443095Y-17055476D01*
X8566905Y-16941190D02*
X8547857Y-16931667D01*
X8538333Y-16922143D01*
X8528810Y-16903095D01*
X8528810Y-16893571D01*
X8538333Y-16874524D01*
X8547857Y-16865000D01*
X8566905Y-16855476D01*
X8605000Y-16855476D01*
X8624048Y-16865000D01*
X8633571Y-16874524D01*
X8643095Y-16893571D01*
X8643095Y-16903095D01*
X8633571Y-16922143D01*
X8624048Y-16931667D01*
X8605000Y-16941190D01*
X8566905Y-16941190D01*
X8547857Y-16950714D01*
X8538333Y-16960238D01*
X8528810Y-16979286D01*
X8528810Y-17017381D01*
X8538333Y-17036429D01*
X8547857Y-17045952D01*
X8566905Y-17055476D01*
X8605000Y-17055476D01*
X8624048Y-17045952D01*
X8633571Y-17036429D01*
X8643095Y-17017381D01*
X8643095Y-16979286D01*
X8633571Y-16960238D01*
X8624048Y-16950714D01*
X8605000Y-16941190D01*
X8766905Y-16855476D02*
X8785952Y-16855476D01*
X8805000Y-16865000D01*
X8814524Y-16874524D01*
X8824048Y-16893571D01*
X8833571Y-16931667D01*
X8833571Y-16979286D01*
X8824048Y-17017381D01*
X8814524Y-17036429D01*
X8805000Y-17045952D01*
X8785952Y-17055476D01*
X8766905Y-17055476D01*
X8747857Y-17045952D01*
X8738333Y-17036429D01*
X8728810Y-17017381D01*
X8719286Y-16979286D01*
X8719286Y-16931667D01*
X8728810Y-16893571D01*
X8738333Y-16874524D01*
X8747857Y-16865000D01*
X8766905Y-16855476D01*
X8957381Y-16855476D02*
X8976429Y-16855476D01*
X8995476Y-16865000D01*
X9005000Y-16874524D01*
X9014524Y-16893571D01*
X9024048Y-16931667D01*
X9024048Y-16979286D01*
X9014524Y-17017381D01*
X9005000Y-17036429D01*
X8995476Y-17045952D01*
X8976429Y-17055476D01*
X8957381Y-17055476D01*
X8938333Y-17045952D01*
X8928810Y-17036429D01*
X8919286Y-17017381D01*
X8909762Y-16979286D01*
X8909762Y-16931667D01*
X8919286Y-16893571D01*
X8928810Y-16874524D01*
X8938333Y-16865000D01*
X8957381Y-16855476D01*
X9109762Y-17055476D02*
X9109762Y-16922143D01*
X9109762Y-16941190D02*
X9119286Y-16931667D01*
X9138333Y-16922143D01*
X9166905Y-16922143D01*
X9185952Y-16931667D01*
X9195476Y-16950714D01*
X9195476Y-17055476D01*
X9195476Y-16950714D02*
X9205000Y-16931667D01*
X9224048Y-16922143D01*
X9252619Y-16922143D01*
X9271667Y-16931667D01*
X9281190Y-16950714D01*
X9281190Y-17055476D01*
X9376429Y-17055476D02*
X9376429Y-16922143D01*
X9376429Y-16941190D02*
X9385952Y-16931667D01*
X9405000Y-16922143D01*
X9433571Y-16922143D01*
X9452619Y-16931667D01*
X9462143Y-16950714D01*
X9462143Y-17055476D01*
X9462143Y-16950714D02*
X9471667Y-16931667D01*
X9490714Y-16922143D01*
X9519286Y-16922143D01*
X9538333Y-16931667D01*
X9547857Y-16950714D01*
X9547857Y-17055476D01*
X9938333Y-16845952D02*
X9766905Y-17103095D01*
X10195476Y-16855476D02*
X10214524Y-16855476D01*
X10233571Y-16865000D01*
X10243095Y-16874524D01*
X10252619Y-16893571D01*
X10262143Y-16931667D01*
X10262143Y-16979286D01*
X10252619Y-17017381D01*
X10243095Y-17036429D01*
X10233571Y-17045952D01*
X10214524Y-17055476D01*
X10195476Y-17055476D01*
X10176429Y-17045952D01*
X10166905Y-17036429D01*
X10157381Y-17017381D01*
X10147857Y-16979286D01*
X10147857Y-16931667D01*
X10157381Y-16893571D01*
X10166905Y-16874524D01*
X10176429Y-16865000D01*
X10195476Y-16855476D01*
X10347857Y-17036429D02*
X10357381Y-17045952D01*
X10347857Y-17055476D01*
X10338333Y-17045952D01*
X10347857Y-17036429D01*
X10347857Y-17055476D01*
X10481190Y-16855476D02*
X10500238Y-16855476D01*
X10519286Y-16865000D01*
X10528810Y-16874524D01*
X10538333Y-16893571D01*
X10547857Y-16931667D01*
X10547857Y-16979286D01*
X10538333Y-17017381D01*
X10528810Y-17036429D01*
X10519286Y-17045952D01*
X10500238Y-17055476D01*
X10481190Y-17055476D01*
X10462143Y-17045952D01*
X10452619Y-17036429D01*
X10443095Y-17017381D01*
X10433571Y-16979286D01*
X10433571Y-16931667D01*
X10443095Y-16893571D01*
X10452619Y-16874524D01*
X10462143Y-16865000D01*
X10481190Y-16855476D01*
X10614524Y-16855476D02*
X10738333Y-16855476D01*
X10671667Y-16931667D01*
X10700238Y-16931667D01*
X10719286Y-16941190D01*
X10728810Y-16950714D01*
X10738333Y-16969762D01*
X10738333Y-17017381D01*
X10728810Y-17036429D01*
X10719286Y-17045952D01*
X10700238Y-17055476D01*
X10643095Y-17055476D01*
X10624048Y-17045952D01*
X10614524Y-17036429D01*
X10928810Y-17055476D02*
X10814524Y-17055476D01*
X10871667Y-17055476D02*
X10871667Y-16855476D01*
X10852619Y-16884048D01*
X10833571Y-16903095D01*
X10814524Y-16912619D01*
X11109762Y-16855476D02*
X11014524Y-16855476D01*
X11005000Y-16950714D01*
X11014524Y-16941190D01*
X11033571Y-16931667D01*
X11081190Y-16931667D01*
X11100238Y-16941190D01*
X11109762Y-16950714D01*
X11119286Y-16969762D01*
X11119286Y-17017381D01*
X11109762Y-17036429D01*
X11100238Y-17045952D01*
X11081190Y-17055476D01*
X11033571Y-17055476D01*
X11014524Y-17045952D01*
X11005000Y-17036429D01*
X11195476Y-16855476D02*
X11195476Y-16893571D01*
X11271667Y-16855476D02*
X11271667Y-16893571D01*
X11566905Y-17131667D02*
X11557381Y-17122143D01*
X11538333Y-17093571D01*
X11528809Y-17074524D01*
X11519286Y-17045952D01*
X11509762Y-16998333D01*
X11509762Y-16960238D01*
X11519286Y-16912619D01*
X11528809Y-16884048D01*
X11538333Y-16865000D01*
X11557381Y-16836429D01*
X11566905Y-16826905D01*
X11633571Y-16874524D02*
X11643095Y-16865000D01*
X11662143Y-16855476D01*
X11709762Y-16855476D01*
X11728809Y-16865000D01*
X11738333Y-16874524D01*
X11747857Y-16893571D01*
X11747857Y-16912619D01*
X11738333Y-16941190D01*
X11624048Y-17055476D01*
X11747857Y-17055476D01*
X11985952Y-17055476D02*
X11985952Y-16855476D01*
X12071667Y-17055476D02*
X12071667Y-16950714D01*
X12062143Y-16931667D01*
X12043095Y-16922143D01*
X12014524Y-16922143D01*
X11995476Y-16931667D01*
X11985952Y-16941190D01*
X12195476Y-17055476D02*
X12176428Y-17045952D01*
X12166905Y-17036429D01*
X12157381Y-17017381D01*
X12157381Y-16960238D01*
X12166905Y-16941190D01*
X12176428Y-16931667D01*
X12195476Y-16922143D01*
X12224048Y-16922143D01*
X12243095Y-16931667D01*
X12252619Y-16941190D01*
X12262143Y-16960238D01*
X12262143Y-17017381D01*
X12252619Y-17036429D01*
X12243095Y-17045952D01*
X12224048Y-17055476D01*
X12195476Y-17055476D01*
X12376428Y-17055476D02*
X12357381Y-17045952D01*
X12347857Y-17026905D01*
X12347857Y-16855476D01*
X12528809Y-17045952D02*
X12509762Y-17055476D01*
X12471667Y-17055476D01*
X12452619Y-17045952D01*
X12443095Y-17026905D01*
X12443095Y-16950714D01*
X12452619Y-16931667D01*
X12471667Y-16922143D01*
X12509762Y-16922143D01*
X12528809Y-16931667D01*
X12538333Y-16950714D01*
X12538333Y-16969762D01*
X12443095Y-16988810D01*
X12614524Y-17045952D02*
X12633571Y-17055476D01*
X12671667Y-17055476D01*
X12690714Y-17045952D01*
X12700238Y-17026905D01*
X12700238Y-17017381D01*
X12690714Y-16998333D01*
X12671667Y-16988810D01*
X12643095Y-16988810D01*
X12624048Y-16979286D01*
X12614524Y-16960238D01*
X12614524Y-16950714D01*
X12624048Y-16931667D01*
X12643095Y-16922143D01*
X12671667Y-16922143D01*
X12690714Y-16931667D01*
X12766905Y-17131667D02*
X12776428Y-17122143D01*
X12795476Y-17093571D01*
X12805000Y-17074524D01*
X12814524Y-17045952D01*
X12824048Y-16998333D01*
X12824048Y-16960238D01*
X12814524Y-16912619D01*
X12805000Y-16884048D01*
X12795476Y-16865000D01*
X12776428Y-16836429D01*
X12766905Y-16826905D01*
D11*
X7895000Y-17179000D02*
X7995000Y-17279000D01*
X7995000Y-17179000D02*
X7895000Y-17279000D01*
X7945000Y-17179000D02*
X7945000Y-17279000D01*
X7895000Y-17229000D02*
X7995000Y-17229000D01*
D12*
X8357381Y-17319476D02*
X8243095Y-17319476D01*
X8300238Y-17319476D02*
X8300238Y-17119476D01*
X8281190Y-17148048D01*
X8262143Y-17167095D01*
X8243095Y-17176619D01*
X8443095Y-17300429D02*
X8452619Y-17309952D01*
X8443095Y-17319476D01*
X8433571Y-17309952D01*
X8443095Y-17300429D01*
X8443095Y-17319476D01*
X8576429Y-17119476D02*
X8595476Y-17119476D01*
X8614524Y-17129000D01*
X8624048Y-17138524D01*
X8633571Y-17157571D01*
X8643095Y-17195667D01*
X8643095Y-17243286D01*
X8633571Y-17281381D01*
X8624048Y-17300429D01*
X8614524Y-17309952D01*
X8595476Y-17319476D01*
X8576429Y-17319476D01*
X8557381Y-17309952D01*
X8547857Y-17300429D01*
X8538333Y-17281381D01*
X8528810Y-17243286D01*
X8528810Y-17195667D01*
X8538333Y-17157571D01*
X8547857Y-17138524D01*
X8557381Y-17129000D01*
X8576429Y-17119476D01*
X8766905Y-17119476D02*
X8785952Y-17119476D01*
X8805000Y-17129000D01*
X8814524Y-17138524D01*
X8824048Y-17157571D01*
X8833571Y-17195667D01*
X8833571Y-17243286D01*
X8824048Y-17281381D01*
X8814524Y-17300429D01*
X8805000Y-17309952D01*
X8785952Y-17319476D01*
X8766905Y-17319476D01*
X8747857Y-17309952D01*
X8738333Y-17300429D01*
X8728810Y-17281381D01*
X8719286Y-17243286D01*
X8719286Y-17195667D01*
X8728810Y-17157571D01*
X8738333Y-17138524D01*
X8747857Y-17129000D01*
X8766905Y-17119476D01*
X8957381Y-17119476D02*
X8976429Y-17119476D01*
X8995476Y-17129000D01*
X9005000Y-17138524D01*
X9014524Y-17157571D01*
X9024048Y-17195667D01*
X9024048Y-17243286D01*
X9014524Y-17281381D01*
X9005000Y-17300429D01*
X8995476Y-17309952D01*
X8976429Y-17319476D01*
X8957381Y-17319476D01*
X8938333Y-17309952D01*
X8928810Y-17300429D01*
X8919286Y-17281381D01*
X8909762Y-17243286D01*
X8909762Y-17195667D01*
X8919286Y-17157571D01*
X8928810Y-17138524D01*
X8938333Y-17129000D01*
X8957381Y-17119476D01*
X9109762Y-17319476D02*
X9109762Y-17186143D01*
X9109762Y-17205190D02*
X9119286Y-17195667D01*
X9138333Y-17186143D01*
X9166905Y-17186143D01*
X9185952Y-17195667D01*
X9195476Y-17214714D01*
X9195476Y-17319476D01*
X9195476Y-17214714D02*
X9205000Y-17195667D01*
X9224048Y-17186143D01*
X9252619Y-17186143D01*
X9271667Y-17195667D01*
X9281190Y-17214714D01*
X9281190Y-17319476D01*
X9376429Y-17319476D02*
X9376429Y-17186143D01*
X9376429Y-17205190D02*
X9385952Y-17195667D01*
X9405000Y-17186143D01*
X9433571Y-17186143D01*
X9452619Y-17195667D01*
X9462143Y-17214714D01*
X9462143Y-17319476D01*
X9462143Y-17214714D02*
X9471667Y-17195667D01*
X9490714Y-17186143D01*
X9519286Y-17186143D01*
X9538333Y-17195667D01*
X9547857Y-17214714D01*
X9547857Y-17319476D01*
X9938333Y-17109952D02*
X9766905Y-17367095D01*
X10195476Y-17119476D02*
X10214524Y-17119476D01*
X10233571Y-17129000D01*
X10243095Y-17138524D01*
X10252619Y-17157571D01*
X10262143Y-17195667D01*
X10262143Y-17243286D01*
X10252619Y-17281381D01*
X10243095Y-17300429D01*
X10233571Y-17309952D01*
X10214524Y-17319476D01*
X10195476Y-17319476D01*
X10176429Y-17309952D01*
X10166905Y-17300429D01*
X10157381Y-17281381D01*
X10147857Y-17243286D01*
X10147857Y-17195667D01*
X10157381Y-17157571D01*
X10166905Y-17138524D01*
X10176429Y-17129000D01*
X10195476Y-17119476D01*
X10347857Y-17300429D02*
X10357381Y-17309952D01*
X10347857Y-17319476D01*
X10338333Y-17309952D01*
X10347857Y-17300429D01*
X10347857Y-17319476D01*
X10481190Y-17119476D02*
X10500238Y-17119476D01*
X10519286Y-17129000D01*
X10528810Y-17138524D01*
X10538333Y-17157571D01*
X10547857Y-17195667D01*
X10547857Y-17243286D01*
X10538333Y-17281381D01*
X10528810Y-17300429D01*
X10519286Y-17309952D01*
X10500238Y-17319476D01*
X10481190Y-17319476D01*
X10462143Y-17309952D01*
X10452619Y-17300429D01*
X10443095Y-17281381D01*
X10433571Y-17243286D01*
X10433571Y-17195667D01*
X10443095Y-17157571D01*
X10452619Y-17138524D01*
X10462143Y-17129000D01*
X10481190Y-17119476D01*
X10614524Y-17119476D02*
X10738333Y-17119476D01*
X10671667Y-17195667D01*
X10700238Y-17195667D01*
X10719286Y-17205190D01*
X10728810Y-17214714D01*
X10738333Y-17233762D01*
X10738333Y-17281381D01*
X10728810Y-17300429D01*
X10719286Y-17309952D01*
X10700238Y-17319476D01*
X10643095Y-17319476D01*
X10624048Y-17309952D01*
X10614524Y-17300429D01*
X10833571Y-17319476D02*
X10871667Y-17319476D01*
X10890714Y-17309952D01*
X10900238Y-17300429D01*
X10919286Y-17271857D01*
X10928810Y-17233762D01*
X10928810Y-17157571D01*
X10919286Y-17138524D01*
X10909762Y-17129000D01*
X10890714Y-17119476D01*
X10852619Y-17119476D01*
X10833571Y-17129000D01*
X10824048Y-17138524D01*
X10814524Y-17157571D01*
X10814524Y-17205190D01*
X10824048Y-17224238D01*
X10833571Y-17233762D01*
X10852619Y-17243286D01*
X10890714Y-17243286D01*
X10909762Y-17233762D01*
X10919286Y-17224238D01*
X10928810Y-17205190D01*
X11100238Y-17186143D02*
X11100238Y-17319476D01*
X11052619Y-17109952D02*
X11005000Y-17252810D01*
X11128810Y-17252810D01*
X11195476Y-17119476D02*
X11195476Y-17157571D01*
X11271667Y-17119476D02*
X11271667Y-17157571D01*
X11566905Y-17395667D02*
X11557381Y-17386143D01*
X11538333Y-17357571D01*
X11528809Y-17338524D01*
X11519286Y-17309952D01*
X11509762Y-17262333D01*
X11509762Y-17224238D01*
X11519286Y-17176619D01*
X11528809Y-17148048D01*
X11538333Y-17129000D01*
X11557381Y-17100429D01*
X11566905Y-17090905D01*
X11747857Y-17319476D02*
X11633571Y-17319476D01*
X11690714Y-17319476D02*
X11690714Y-17119476D01*
X11671667Y-17148048D01*
X11652619Y-17167095D01*
X11633571Y-17176619D01*
X11843095Y-17319476D02*
X11881190Y-17319476D01*
X11900238Y-17309952D01*
X11909762Y-17300429D01*
X11928809Y-17271857D01*
X11938333Y-17233762D01*
X11938333Y-17157571D01*
X11928809Y-17138524D01*
X11919286Y-17129000D01*
X11900238Y-17119476D01*
X11862143Y-17119476D01*
X11843095Y-17129000D01*
X11833571Y-17138524D01*
X11824048Y-17157571D01*
X11824048Y-17205190D01*
X11833571Y-17224238D01*
X11843095Y-17233762D01*
X11862143Y-17243286D01*
X11900238Y-17243286D01*
X11919286Y-17233762D01*
X11928809Y-17224238D01*
X11938333Y-17205190D01*
X12176428Y-17319476D02*
X12176428Y-17119476D01*
X12262143Y-17319476D02*
X12262143Y-17214714D01*
X12252619Y-17195667D01*
X12233571Y-17186143D01*
X12205000Y-17186143D01*
X12185952Y-17195667D01*
X12176428Y-17205190D01*
X12385952Y-17319476D02*
X12366905Y-17309952D01*
X12357381Y-17300429D01*
X12347857Y-17281381D01*
X12347857Y-17224238D01*
X12357381Y-17205190D01*
X12366905Y-17195667D01*
X12385952Y-17186143D01*
X12414524Y-17186143D01*
X12433571Y-17195667D01*
X12443095Y-17205190D01*
X12452619Y-17224238D01*
X12452619Y-17281381D01*
X12443095Y-17300429D01*
X12433571Y-17309952D01*
X12414524Y-17319476D01*
X12385952Y-17319476D01*
X12566905Y-17319476D02*
X12547857Y-17309952D01*
X12538333Y-17290905D01*
X12538333Y-17119476D01*
X12719286Y-17309952D02*
X12700238Y-17319476D01*
X12662143Y-17319476D01*
X12643095Y-17309952D01*
X12633571Y-17290905D01*
X12633571Y-17214714D01*
X12643095Y-17195667D01*
X12662143Y-17186143D01*
X12700238Y-17186143D01*
X12719286Y-17195667D01*
X12728809Y-17214714D01*
X12728809Y-17233762D01*
X12633571Y-17252810D01*
X12805000Y-17309952D02*
X12824048Y-17319476D01*
X12862143Y-17319476D01*
X12881190Y-17309952D01*
X12890714Y-17290905D01*
X12890714Y-17281381D01*
X12881190Y-17262333D01*
X12862143Y-17252810D01*
X12833571Y-17252810D01*
X12814524Y-17243286D01*
X12805000Y-17224238D01*
X12805000Y-17214714D01*
X12814524Y-17195667D01*
X12833571Y-17186143D01*
X12862143Y-17186143D01*
X12881190Y-17195667D01*
X12957381Y-17395667D02*
X12966905Y-17386143D01*
X12985952Y-17357571D01*
X12995476Y-17338524D01*
X13005000Y-17309952D01*
X13014524Y-17262333D01*
X13014524Y-17224238D01*
X13005000Y-17176619D01*
X12995476Y-17148048D01*
X12985952Y-17129000D01*
X12966905Y-17100429D01*
X12957381Y-17090905D01*
D18*
X7885000Y-17438000D02*
X7995000Y-17548000D01*
X7995000Y-17438000D02*
X7885000Y-17548000D01*
X7978891Y-17531891D02*
X7978891Y-17454109D01*
X7901109Y-17454109D01*
X7901109Y-17531891D01*
X7978891Y-17531891D01*
D12*
X8357381Y-17583476D02*
X8243095Y-17583476D01*
X8300238Y-17583476D02*
X8300238Y-17383476D01*
X8281190Y-17412048D01*
X8262143Y-17431095D01*
X8243095Y-17440619D01*
X8443095Y-17564429D02*
X8452619Y-17573952D01*
X8443095Y-17583476D01*
X8433571Y-17573952D01*
X8443095Y-17564429D01*
X8443095Y-17583476D01*
X8643095Y-17583476D02*
X8528810Y-17583476D01*
X8585952Y-17583476D02*
X8585952Y-17383476D01*
X8566905Y-17412048D01*
X8547857Y-17431095D01*
X8528810Y-17440619D01*
X8766905Y-17383476D02*
X8785952Y-17383476D01*
X8805000Y-17393000D01*
X8814524Y-17402524D01*
X8824048Y-17421571D01*
X8833571Y-17459667D01*
X8833571Y-17507286D01*
X8824048Y-17545381D01*
X8814524Y-17564429D01*
X8805000Y-17573952D01*
X8785952Y-17583476D01*
X8766905Y-17583476D01*
X8747857Y-17573952D01*
X8738333Y-17564429D01*
X8728810Y-17545381D01*
X8719286Y-17507286D01*
X8719286Y-17459667D01*
X8728810Y-17421571D01*
X8738333Y-17402524D01*
X8747857Y-17393000D01*
X8766905Y-17383476D01*
X8957381Y-17383476D02*
X8976429Y-17383476D01*
X8995476Y-17393000D01*
X9005000Y-17402524D01*
X9014524Y-17421571D01*
X9024048Y-17459667D01*
X9024048Y-17507286D01*
X9014524Y-17545381D01*
X9005000Y-17564429D01*
X8995476Y-17573952D01*
X8976429Y-17583476D01*
X8957381Y-17583476D01*
X8938333Y-17573952D01*
X8928810Y-17564429D01*
X8919286Y-17545381D01*
X8909762Y-17507286D01*
X8909762Y-17459667D01*
X8919286Y-17421571D01*
X8928810Y-17402524D01*
X8938333Y-17393000D01*
X8957381Y-17383476D01*
X9109762Y-17583476D02*
X9109762Y-17450143D01*
X9109762Y-17469190D02*
X9119286Y-17459667D01*
X9138333Y-17450143D01*
X9166905Y-17450143D01*
X9185952Y-17459667D01*
X9195476Y-17478714D01*
X9195476Y-17583476D01*
X9195476Y-17478714D02*
X9205000Y-17459667D01*
X9224048Y-17450143D01*
X9252619Y-17450143D01*
X9271667Y-17459667D01*
X9281190Y-17478714D01*
X9281190Y-17583476D01*
X9376429Y-17583476D02*
X9376429Y-17450143D01*
X9376429Y-17469190D02*
X9385952Y-17459667D01*
X9405000Y-17450143D01*
X9433571Y-17450143D01*
X9452619Y-17459667D01*
X9462143Y-17478714D01*
X9462143Y-17583476D01*
X9462143Y-17478714D02*
X9471667Y-17459667D01*
X9490714Y-17450143D01*
X9519286Y-17450143D01*
X9538333Y-17459667D01*
X9547857Y-17478714D01*
X9547857Y-17583476D01*
X9938333Y-17373952D02*
X9766905Y-17631095D01*
X10195476Y-17383476D02*
X10214524Y-17383476D01*
X10233571Y-17393000D01*
X10243095Y-17402524D01*
X10252619Y-17421571D01*
X10262143Y-17459667D01*
X10262143Y-17507286D01*
X10252619Y-17545381D01*
X10243095Y-17564429D01*
X10233571Y-17573952D01*
X10214524Y-17583476D01*
X10195476Y-17583476D01*
X10176429Y-17573952D01*
X10166905Y-17564429D01*
X10157381Y-17545381D01*
X10147857Y-17507286D01*
X10147857Y-17459667D01*
X10157381Y-17421571D01*
X10166905Y-17402524D01*
X10176429Y-17393000D01*
X10195476Y-17383476D01*
X10347857Y-17564429D02*
X10357381Y-17573952D01*
X10347857Y-17583476D01*
X10338333Y-17573952D01*
X10347857Y-17564429D01*
X10347857Y-17583476D01*
X10481190Y-17383476D02*
X10500238Y-17383476D01*
X10519286Y-17393000D01*
X10528810Y-17402524D01*
X10538333Y-17421571D01*
X10547857Y-17459667D01*
X10547857Y-17507286D01*
X10538333Y-17545381D01*
X10528810Y-17564429D01*
X10519286Y-17573952D01*
X10500238Y-17583476D01*
X10481190Y-17583476D01*
X10462143Y-17573952D01*
X10452619Y-17564429D01*
X10443095Y-17545381D01*
X10433571Y-17507286D01*
X10433571Y-17459667D01*
X10443095Y-17421571D01*
X10452619Y-17402524D01*
X10462143Y-17393000D01*
X10481190Y-17383476D01*
X10719286Y-17450143D02*
X10719286Y-17583476D01*
X10671667Y-17373952D02*
X10624048Y-17516810D01*
X10747857Y-17516810D01*
X10805000Y-17383476D02*
X10928810Y-17383476D01*
X10862143Y-17459667D01*
X10890714Y-17459667D01*
X10909762Y-17469190D01*
X10919286Y-17478714D01*
X10928810Y-17497762D01*
X10928810Y-17545381D01*
X10919286Y-17564429D01*
X10909762Y-17573952D01*
X10890714Y-17583476D01*
X10833571Y-17583476D01*
X10814524Y-17573952D01*
X10805000Y-17564429D01*
X10995476Y-17383476D02*
X11119286Y-17383476D01*
X11052619Y-17459667D01*
X11081190Y-17459667D01*
X11100238Y-17469190D01*
X11109762Y-17478714D01*
X11119286Y-17497762D01*
X11119286Y-17545381D01*
X11109762Y-17564429D01*
X11100238Y-17573952D01*
X11081190Y-17583476D01*
X11024048Y-17583476D01*
X11005000Y-17573952D01*
X10995476Y-17564429D01*
X11195476Y-17383476D02*
X11195476Y-17421571D01*
X11271667Y-17383476D02*
X11271667Y-17421571D01*
X11566905Y-17659667D02*
X11557381Y-17650143D01*
X11538333Y-17621571D01*
X11528809Y-17602524D01*
X11519286Y-17573952D01*
X11509762Y-17526333D01*
X11509762Y-17488238D01*
X11519286Y-17440619D01*
X11528809Y-17412048D01*
X11538333Y-17393000D01*
X11557381Y-17364429D01*
X11566905Y-17354905D01*
X11747857Y-17583476D02*
X11633571Y-17583476D01*
X11690714Y-17583476D02*
X11690714Y-17383476D01*
X11671667Y-17412048D01*
X11652619Y-17431095D01*
X11633571Y-17440619D01*
X11871667Y-17383476D02*
X11890714Y-17383476D01*
X11909762Y-17393000D01*
X11919286Y-17402524D01*
X11928809Y-17421571D01*
X11938333Y-17459667D01*
X11938333Y-17507286D01*
X11928809Y-17545381D01*
X11919286Y-17564429D01*
X11909762Y-17573952D01*
X11890714Y-17583476D01*
X11871667Y-17583476D01*
X11852619Y-17573952D01*
X11843095Y-17564429D01*
X11833571Y-17545381D01*
X11824048Y-17507286D01*
X11824048Y-17459667D01*
X11833571Y-17421571D01*
X11843095Y-17402524D01*
X11852619Y-17393000D01*
X11871667Y-17383476D01*
X12176428Y-17583476D02*
X12176428Y-17383476D01*
X12262143Y-17583476D02*
X12262143Y-17478714D01*
X12252619Y-17459667D01*
X12233571Y-17450143D01*
X12205000Y-17450143D01*
X12185952Y-17459667D01*
X12176428Y-17469190D01*
X12385952Y-17583476D02*
X12366905Y-17573952D01*
X12357381Y-17564429D01*
X12347857Y-17545381D01*
X12347857Y-17488238D01*
X12357381Y-17469190D01*
X12366905Y-17459667D01*
X12385952Y-17450143D01*
X12414524Y-17450143D01*
X12433571Y-17459667D01*
X12443095Y-17469190D01*
X12452619Y-17488238D01*
X12452619Y-17545381D01*
X12443095Y-17564429D01*
X12433571Y-17573952D01*
X12414524Y-17583476D01*
X12385952Y-17583476D01*
X12566905Y-17583476D02*
X12547857Y-17573952D01*
X12538333Y-17554905D01*
X12538333Y-17383476D01*
X12719286Y-17573952D02*
X12700238Y-17583476D01*
X12662143Y-17583476D01*
X12643095Y-17573952D01*
X12633571Y-17554905D01*
X12633571Y-17478714D01*
X12643095Y-17459667D01*
X12662143Y-17450143D01*
X12700238Y-17450143D01*
X12719286Y-17459667D01*
X12728809Y-17478714D01*
X12728809Y-17497762D01*
X12633571Y-17516810D01*
X12805000Y-17573952D02*
X12824048Y-17583476D01*
X12862143Y-17583476D01*
X12881190Y-17573952D01*
X12890714Y-17554905D01*
X12890714Y-17545381D01*
X12881190Y-17526333D01*
X12862143Y-17516810D01*
X12833571Y-17516810D01*
X12814524Y-17507286D01*
X12805000Y-17488238D01*
X12805000Y-17478714D01*
X12814524Y-17459667D01*
X12833571Y-17450143D01*
X12862143Y-17450143D01*
X12881190Y-17459667D01*
X12957381Y-17659667D02*
X12966905Y-17650143D01*
X12985952Y-17621571D01*
X12995476Y-17602524D01*
X13005000Y-17573952D01*
X13014524Y-17526333D01*
X13014524Y-17488238D01*
X13005000Y-17440619D01*
X12995476Y-17412048D01*
X12985952Y-17393000D01*
X12966905Y-17364429D01*
X12957381Y-17354905D01*
D19*
X7875000Y-17697000D02*
X7995000Y-17817000D01*
X7995000Y-17697000D02*
X7875000Y-17817000D01*
X7935000Y-17817000D02*
X7995000Y-17757000D01*
X7935000Y-17697000D01*
X7875000Y-17757000D01*
X7935000Y-17817000D01*
D12*
X8357381Y-17847476D02*
X8243095Y-17847476D01*
X8300238Y-17847476D02*
X8300238Y-17647476D01*
X8281190Y-17676048D01*
X8262143Y-17695095D01*
X8243095Y-17704619D01*
X8443095Y-17828429D02*
X8452619Y-17837952D01*
X8443095Y-17847476D01*
X8433571Y-17837952D01*
X8443095Y-17828429D01*
X8443095Y-17847476D01*
X8528810Y-17666524D02*
X8538333Y-17657000D01*
X8557381Y-17647476D01*
X8605000Y-17647476D01*
X8624048Y-17657000D01*
X8633571Y-17666524D01*
X8643095Y-17685571D01*
X8643095Y-17704619D01*
X8633571Y-17733190D01*
X8519286Y-17847476D01*
X8643095Y-17847476D01*
X8766905Y-17647476D02*
X8785952Y-17647476D01*
X8805000Y-17657000D01*
X8814524Y-17666524D01*
X8824048Y-17685571D01*
X8833571Y-17723667D01*
X8833571Y-17771286D01*
X8824048Y-17809381D01*
X8814524Y-17828429D01*
X8805000Y-17837952D01*
X8785952Y-17847476D01*
X8766905Y-17847476D01*
X8747857Y-17837952D01*
X8738333Y-17828429D01*
X8728810Y-17809381D01*
X8719286Y-17771286D01*
X8719286Y-17723667D01*
X8728810Y-17685571D01*
X8738333Y-17666524D01*
X8747857Y-17657000D01*
X8766905Y-17647476D01*
X8957381Y-17647476D02*
X8976429Y-17647476D01*
X8995476Y-17657000D01*
X9005000Y-17666524D01*
X9014524Y-17685571D01*
X9024048Y-17723667D01*
X9024048Y-17771286D01*
X9014524Y-17809381D01*
X9005000Y-17828429D01*
X8995476Y-17837952D01*
X8976429Y-17847476D01*
X8957381Y-17847476D01*
X8938333Y-17837952D01*
X8928810Y-17828429D01*
X8919286Y-17809381D01*
X8909762Y-17771286D01*
X8909762Y-17723667D01*
X8919286Y-17685571D01*
X8928810Y-17666524D01*
X8938333Y-17657000D01*
X8957381Y-17647476D01*
X9109762Y-17847476D02*
X9109762Y-17714143D01*
X9109762Y-17733190D02*
X9119286Y-17723667D01*
X9138333Y-17714143D01*
X9166905Y-17714143D01*
X9185952Y-17723667D01*
X9195476Y-17742714D01*
X9195476Y-17847476D01*
X9195476Y-17742714D02*
X9205000Y-17723667D01*
X9224048Y-17714143D01*
X9252619Y-17714143D01*
X9271667Y-17723667D01*
X9281190Y-17742714D01*
X9281190Y-17847476D01*
X9376429Y-17847476D02*
X9376429Y-17714143D01*
X9376429Y-17733190D02*
X9385952Y-17723667D01*
X9405000Y-17714143D01*
X9433571Y-17714143D01*
X9452619Y-17723667D01*
X9462143Y-17742714D01*
X9462143Y-17847476D01*
X9462143Y-17742714D02*
X9471667Y-17723667D01*
X9490714Y-17714143D01*
X9519286Y-17714143D01*
X9538333Y-17723667D01*
X9547857Y-17742714D01*
X9547857Y-17847476D01*
X9938333Y-17637952D02*
X9766905Y-17895095D01*
X10195476Y-17647476D02*
X10214524Y-17647476D01*
X10233571Y-17657000D01*
X10243095Y-17666524D01*
X10252619Y-17685571D01*
X10262143Y-17723667D01*
X10262143Y-17771286D01*
X10252619Y-17809381D01*
X10243095Y-17828429D01*
X10233571Y-17837952D01*
X10214524Y-17847476D01*
X10195476Y-17847476D01*
X10176429Y-17837952D01*
X10166905Y-17828429D01*
X10157381Y-17809381D01*
X10147857Y-17771286D01*
X10147857Y-17723667D01*
X10157381Y-17685571D01*
X10166905Y-17666524D01*
X10176429Y-17657000D01*
X10195476Y-17647476D01*
X10347857Y-17828429D02*
X10357381Y-17837952D01*
X10347857Y-17847476D01*
X10338333Y-17837952D01*
X10347857Y-17828429D01*
X10347857Y-17847476D01*
X10481190Y-17647476D02*
X10500238Y-17647476D01*
X10519286Y-17657000D01*
X10528810Y-17666524D01*
X10538333Y-17685571D01*
X10547857Y-17723667D01*
X10547857Y-17771286D01*
X10538333Y-17809381D01*
X10528810Y-17828429D01*
X10519286Y-17837952D01*
X10500238Y-17847476D01*
X10481190Y-17847476D01*
X10462143Y-17837952D01*
X10452619Y-17828429D01*
X10443095Y-17809381D01*
X10433571Y-17771286D01*
X10433571Y-17723667D01*
X10443095Y-17685571D01*
X10452619Y-17666524D01*
X10462143Y-17657000D01*
X10481190Y-17647476D01*
X10719286Y-17714143D02*
X10719286Y-17847476D01*
X10671667Y-17637952D02*
X10624048Y-17780810D01*
X10747857Y-17780810D01*
X10805000Y-17647476D02*
X10938333Y-17647476D01*
X10852619Y-17847476D01*
X11005000Y-17666524D02*
X11014524Y-17657000D01*
X11033571Y-17647476D01*
X11081190Y-17647476D01*
X11100238Y-17657000D01*
X11109762Y-17666524D01*
X11119286Y-17685571D01*
X11119286Y-17704619D01*
X11109762Y-17733190D01*
X10995476Y-17847476D01*
X11119286Y-17847476D01*
X11195476Y-17647476D02*
X11195476Y-17685571D01*
X11271667Y-17647476D02*
X11271667Y-17685571D01*
X11566905Y-17923667D02*
X11557381Y-17914143D01*
X11538333Y-17885571D01*
X11528809Y-17866524D01*
X11519286Y-17837952D01*
X11509762Y-17790333D01*
X11509762Y-17752238D01*
X11519286Y-17704619D01*
X11528809Y-17676048D01*
X11538333Y-17657000D01*
X11557381Y-17628429D01*
X11566905Y-17618905D01*
X11624048Y-17647476D02*
X11757381Y-17647476D01*
X11671667Y-17847476D01*
X11985952Y-17847476D02*
X11985952Y-17647476D01*
X12071667Y-17847476D02*
X12071667Y-17742714D01*
X12062143Y-17723667D01*
X12043095Y-17714143D01*
X12014524Y-17714143D01*
X11995476Y-17723667D01*
X11985952Y-17733190D01*
X12195476Y-17847476D02*
X12176428Y-17837952D01*
X12166905Y-17828429D01*
X12157381Y-17809381D01*
X12157381Y-17752238D01*
X12166905Y-17733190D01*
X12176428Y-17723667D01*
X12195476Y-17714143D01*
X12224048Y-17714143D01*
X12243095Y-17723667D01*
X12252619Y-17733190D01*
X12262143Y-17752238D01*
X12262143Y-17809381D01*
X12252619Y-17828429D01*
X12243095Y-17837952D01*
X12224048Y-17847476D01*
X12195476Y-17847476D01*
X12376428Y-17847476D02*
X12357381Y-17837952D01*
X12347857Y-17818905D01*
X12347857Y-17647476D01*
X12528809Y-17837952D02*
X12509762Y-17847476D01*
X12471667Y-17847476D01*
X12452619Y-17837952D01*
X12443095Y-17818905D01*
X12443095Y-17742714D01*
X12452619Y-17723667D01*
X12471667Y-17714143D01*
X12509762Y-17714143D01*
X12528809Y-17723667D01*
X12538333Y-17742714D01*
X12538333Y-17761762D01*
X12443095Y-17780810D01*
X12614524Y-17837952D02*
X12633571Y-17847476D01*
X12671667Y-17847476D01*
X12690714Y-17837952D01*
X12700238Y-17818905D01*
X12700238Y-17809381D01*
X12690714Y-17790333D01*
X12671667Y-17780810D01*
X12643095Y-17780810D01*
X12624048Y-17771286D01*
X12614524Y-17752238D01*
X12614524Y-17742714D01*
X12624048Y-17723667D01*
X12643095Y-17714143D01*
X12671667Y-17714143D01*
X12690714Y-17723667D01*
X12766905Y-17923667D02*
X12776428Y-17914143D01*
X12795476Y-17885571D01*
X12805000Y-17866524D01*
X12814524Y-17837952D01*
X12824048Y-17790333D01*
X12824048Y-17752238D01*
X12814524Y-17704619D01*
X12805000Y-17676048D01*
X12795476Y-17657000D01*
X12776428Y-17628429D01*
X12766905Y-17618905D01*
D20*
X7905000Y-17931000D02*
X7905000Y-18111000D01*
X7815000Y-18021000D02*
X7995000Y-18021000D01*
X7995000Y-18021000D02*
G75*
G03*
X7995000Y-18021000I-90000J0D01*
G01*
D12*
X8357381Y-18111476D02*
X8243095Y-18111476D01*
X8300238Y-18111476D02*
X8300238Y-17911476D01*
X8281190Y-17940048D01*
X8262143Y-17959095D01*
X8243095Y-17968619D01*
X8443095Y-18092429D02*
X8452619Y-18101952D01*
X8443095Y-18111476D01*
X8433571Y-18101952D01*
X8443095Y-18092429D01*
X8443095Y-18111476D01*
X8566905Y-17997190D02*
X8547857Y-17987667D01*
X8538333Y-17978143D01*
X8528810Y-17959095D01*
X8528810Y-17949571D01*
X8538333Y-17930524D01*
X8547857Y-17921000D01*
X8566905Y-17911476D01*
X8605000Y-17911476D01*
X8624048Y-17921000D01*
X8633571Y-17930524D01*
X8643095Y-17949571D01*
X8643095Y-17959095D01*
X8633571Y-17978143D01*
X8624048Y-17987667D01*
X8605000Y-17997190D01*
X8566905Y-17997190D01*
X8547857Y-18006714D01*
X8538333Y-18016238D01*
X8528810Y-18035286D01*
X8528810Y-18073381D01*
X8538333Y-18092429D01*
X8547857Y-18101952D01*
X8566905Y-18111476D01*
X8605000Y-18111476D01*
X8624048Y-18101952D01*
X8633571Y-18092429D01*
X8643095Y-18073381D01*
X8643095Y-18035286D01*
X8633571Y-18016238D01*
X8624048Y-18006714D01*
X8605000Y-17997190D01*
X8766905Y-17911476D02*
X8785952Y-17911476D01*
X8805000Y-17921000D01*
X8814524Y-17930524D01*
X8824048Y-17949571D01*
X8833571Y-17987667D01*
X8833571Y-18035286D01*
X8824048Y-18073381D01*
X8814524Y-18092429D01*
X8805000Y-18101952D01*
X8785952Y-18111476D01*
X8766905Y-18111476D01*
X8747857Y-18101952D01*
X8738333Y-18092429D01*
X8728810Y-18073381D01*
X8719286Y-18035286D01*
X8719286Y-17987667D01*
X8728810Y-17949571D01*
X8738333Y-17930524D01*
X8747857Y-17921000D01*
X8766905Y-17911476D01*
X8957381Y-17911476D02*
X8976429Y-17911476D01*
X8995476Y-17921000D01*
X9005000Y-17930524D01*
X9014524Y-17949571D01*
X9024048Y-17987667D01*
X9024048Y-18035286D01*
X9014524Y-18073381D01*
X9005000Y-18092429D01*
X8995476Y-18101952D01*
X8976429Y-18111476D01*
X8957381Y-18111476D01*
X8938333Y-18101952D01*
X8928810Y-18092429D01*
X8919286Y-18073381D01*
X8909762Y-18035286D01*
X8909762Y-17987667D01*
X8919286Y-17949571D01*
X8928810Y-17930524D01*
X8938333Y-17921000D01*
X8957381Y-17911476D01*
X9109762Y-18111476D02*
X9109762Y-17978143D01*
X9109762Y-17997190D02*
X9119286Y-17987667D01*
X9138333Y-17978143D01*
X9166905Y-17978143D01*
X9185952Y-17987667D01*
X9195476Y-18006714D01*
X9195476Y-18111476D01*
X9195476Y-18006714D02*
X9205000Y-17987667D01*
X9224048Y-17978143D01*
X9252619Y-17978143D01*
X9271667Y-17987667D01*
X9281190Y-18006714D01*
X9281190Y-18111476D01*
X9376429Y-18111476D02*
X9376429Y-17978143D01*
X9376429Y-17997190D02*
X9385952Y-17987667D01*
X9405000Y-17978143D01*
X9433571Y-17978143D01*
X9452619Y-17987667D01*
X9462143Y-18006714D01*
X9462143Y-18111476D01*
X9462143Y-18006714D02*
X9471667Y-17987667D01*
X9490714Y-17978143D01*
X9519286Y-17978143D01*
X9538333Y-17987667D01*
X9547857Y-18006714D01*
X9547857Y-18111476D01*
X9938333Y-17901952D02*
X9766905Y-18159095D01*
X10195476Y-17911476D02*
X10214524Y-17911476D01*
X10233571Y-17921000D01*
X10243095Y-17930524D01*
X10252619Y-17949571D01*
X10262143Y-17987667D01*
X10262143Y-18035286D01*
X10252619Y-18073381D01*
X10243095Y-18092429D01*
X10233571Y-18101952D01*
X10214524Y-18111476D01*
X10195476Y-18111476D01*
X10176429Y-18101952D01*
X10166905Y-18092429D01*
X10157381Y-18073381D01*
X10147857Y-18035286D01*
X10147857Y-17987667D01*
X10157381Y-17949571D01*
X10166905Y-17930524D01*
X10176429Y-17921000D01*
X10195476Y-17911476D01*
X10347857Y-18092429D02*
X10357381Y-18101952D01*
X10347857Y-18111476D01*
X10338333Y-18101952D01*
X10347857Y-18092429D01*
X10347857Y-18111476D01*
X10481190Y-17911476D02*
X10500238Y-17911476D01*
X10519286Y-17921000D01*
X10528810Y-17930524D01*
X10538333Y-17949571D01*
X10547857Y-17987667D01*
X10547857Y-18035286D01*
X10538333Y-18073381D01*
X10528810Y-18092429D01*
X10519286Y-18101952D01*
X10500238Y-18111476D01*
X10481190Y-18111476D01*
X10462143Y-18101952D01*
X10452619Y-18092429D01*
X10443095Y-18073381D01*
X10433571Y-18035286D01*
X10433571Y-17987667D01*
X10443095Y-17949571D01*
X10452619Y-17930524D01*
X10462143Y-17921000D01*
X10481190Y-17911476D01*
X10614524Y-17911476D02*
X10747857Y-17911476D01*
X10662143Y-18111476D01*
X10862143Y-17911476D02*
X10881190Y-17911476D01*
X10900238Y-17921000D01*
X10909762Y-17930524D01*
X10919286Y-17949571D01*
X10928810Y-17987667D01*
X10928810Y-18035286D01*
X10919286Y-18073381D01*
X10909762Y-18092429D01*
X10900238Y-18101952D01*
X10881190Y-18111476D01*
X10862143Y-18111476D01*
X10843095Y-18101952D01*
X10833571Y-18092429D01*
X10824048Y-18073381D01*
X10814524Y-18035286D01*
X10814524Y-17987667D01*
X10824048Y-17949571D01*
X10833571Y-17930524D01*
X10843095Y-17921000D01*
X10862143Y-17911476D01*
X11024048Y-18111476D02*
X11062143Y-18111476D01*
X11081190Y-18101952D01*
X11090714Y-18092429D01*
X11109762Y-18063857D01*
X11119286Y-18025762D01*
X11119286Y-17949571D01*
X11109762Y-17930524D01*
X11100238Y-17921000D01*
X11081190Y-17911476D01*
X11043095Y-17911476D01*
X11024048Y-17921000D01*
X11014524Y-17930524D01*
X11005000Y-17949571D01*
X11005000Y-17997190D01*
X11014524Y-18016238D01*
X11024048Y-18025762D01*
X11043095Y-18035286D01*
X11081190Y-18035286D01*
X11100238Y-18025762D01*
X11109762Y-18016238D01*
X11119286Y-17997190D01*
X11195476Y-17911476D02*
X11195476Y-17949571D01*
X11271667Y-17911476D02*
X11271667Y-17949571D01*
X11566905Y-18187667D02*
X11557381Y-18178143D01*
X11538333Y-18149571D01*
X11528809Y-18130524D01*
X11519286Y-18101952D01*
X11509762Y-18054333D01*
X11509762Y-18016238D01*
X11519286Y-17968619D01*
X11528809Y-17940048D01*
X11538333Y-17921000D01*
X11557381Y-17892429D01*
X11566905Y-17882905D01*
X11671667Y-17997190D02*
X11652619Y-17987667D01*
X11643095Y-17978143D01*
X11633571Y-17959095D01*
X11633571Y-17949571D01*
X11643095Y-17930524D01*
X11652619Y-17921000D01*
X11671667Y-17911476D01*
X11709762Y-17911476D01*
X11728809Y-17921000D01*
X11738333Y-17930524D01*
X11747857Y-17949571D01*
X11747857Y-17959095D01*
X11738333Y-17978143D01*
X11728809Y-17987667D01*
X11709762Y-17997190D01*
X11671667Y-17997190D01*
X11652619Y-18006714D01*
X11643095Y-18016238D01*
X11633571Y-18035286D01*
X11633571Y-18073381D01*
X11643095Y-18092429D01*
X11652619Y-18101952D01*
X11671667Y-18111476D01*
X11709762Y-18111476D01*
X11728809Y-18101952D01*
X11738333Y-18092429D01*
X11747857Y-18073381D01*
X11747857Y-18035286D01*
X11738333Y-18016238D01*
X11728809Y-18006714D01*
X11709762Y-17997190D01*
X11985952Y-18111476D02*
X11985952Y-17911476D01*
X12071667Y-18111476D02*
X12071667Y-18006714D01*
X12062143Y-17987667D01*
X12043095Y-17978143D01*
X12014524Y-17978143D01*
X11995476Y-17987667D01*
X11985952Y-17997190D01*
X12195476Y-18111476D02*
X12176428Y-18101952D01*
X12166905Y-18092429D01*
X12157381Y-18073381D01*
X12157381Y-18016238D01*
X12166905Y-17997190D01*
X12176428Y-17987667D01*
X12195476Y-17978143D01*
X12224048Y-17978143D01*
X12243095Y-17987667D01*
X12252619Y-17997190D01*
X12262143Y-18016238D01*
X12262143Y-18073381D01*
X12252619Y-18092429D01*
X12243095Y-18101952D01*
X12224048Y-18111476D01*
X12195476Y-18111476D01*
X12376428Y-18111476D02*
X12357381Y-18101952D01*
X12347857Y-18082905D01*
X12347857Y-17911476D01*
X12528809Y-18101952D02*
X12509762Y-18111476D01*
X12471667Y-18111476D01*
X12452619Y-18101952D01*
X12443095Y-18082905D01*
X12443095Y-18006714D01*
X12452619Y-17987667D01*
X12471667Y-17978143D01*
X12509762Y-17978143D01*
X12528809Y-17987667D01*
X12538333Y-18006714D01*
X12538333Y-18025762D01*
X12443095Y-18044810D01*
X12614524Y-18101952D02*
X12633571Y-18111476D01*
X12671667Y-18111476D01*
X12690714Y-18101952D01*
X12700238Y-18082905D01*
X12700238Y-18073381D01*
X12690714Y-18054333D01*
X12671667Y-18044810D01*
X12643095Y-18044810D01*
X12624048Y-18035286D01*
X12614524Y-18016238D01*
X12614524Y-18006714D01*
X12624048Y-17987667D01*
X12643095Y-17978143D01*
X12671667Y-17978143D01*
X12690714Y-17987667D01*
X12766905Y-18187667D02*
X12776428Y-18178143D01*
X12795476Y-18149571D01*
X12805000Y-18130524D01*
X12814524Y-18101952D01*
X12824048Y-18054333D01*
X12824048Y-18016238D01*
X12814524Y-17968619D01*
X12805000Y-17940048D01*
X12795476Y-17921000D01*
X12776428Y-17892429D01*
X12766905Y-17882905D01*
M02*
