%TF.GenerationSoftware,KiCad,Pcbnew,(6.0.8)*%
%TF.CreationDate,2023-01-20T12:33:50-07:00*%
%TF.ProjectId,Panel,50616e65-6c2e-46b6-9963-61645f706362,rev?*%
%TF.SameCoordinates,Original*%
%TF.FileFunction,Drillmap*%
%TF.FilePolarity,Positive*%
%FSLAX45Y45*%
G04 Gerber Fmt 4.5, Leading zero omitted, Abs format (unit mm)*
G04 Created by KiCad (PCBNEW (6.0.8)) date 2023-01-20 12:33:50*
%MOMM*%
%LPD*%
G01*
G04 APERTURE LIST*
%ADD10C,0.352776*%
%ADD11C,0.100000*%
%ADD12C,0.200000*%
%ADD13C,0.035000*%
%ADD14C,0.040000*%
%ADD15C,0.060000*%
%ADD16C,0.065000*%
%ADD17C,0.080000*%
%ADD18C,0.110000*%
%ADD19C,0.120000*%
%ADD20C,0.180000*%
G04 APERTURE END LIST*
D10*
X9059920Y-13837518D02*
X9068179Y-13836468D01*
X8992783Y-14137491D02*
X8986313Y-14132890D01*
X17000202Y-5920503D02*
X17000202Y-5920503D01*
X8952809Y-14099386D02*
X8948208Y-14092916D01*
X17064438Y-5933472D02*
X17071749Y-5936777D01*
X16836024Y-14017551D02*
X16835386Y-14009172D01*
X9183792Y-5953254D02*
X9190026Y-5958153D01*
X17064389Y-13848654D02*
X17071698Y-13851958D01*
X9240068Y-13943904D02*
X9242662Y-13951572D01*
X9076560Y-14165461D02*
X9068179Y-14164823D01*
X17165160Y-14000681D02*
X17165160Y-14000681D01*
X9190026Y-5958153D02*
X9196014Y-5963340D01*
X9240068Y-14057389D02*
X9237113Y-14064883D01*
X9248180Y-6110629D02*
X9246729Y-6118756D01*
X16883498Y-14117350D02*
X16878034Y-14111620D01*
X9226190Y-6171071D02*
X9221897Y-6177767D01*
X9177322Y-13863801D02*
X9183792Y-13868402D01*
X8920023Y-6085497D02*
X8920023Y-6085497D01*
X16838525Y-6118792D02*
X16837073Y-6110665D01*
X8927443Y-6134572D02*
X8925219Y-6126741D01*
X16907916Y-13863866D02*
X16914611Y-13859575D01*
X9118312Y-5923821D02*
X9126296Y-5925664D01*
X9085053Y-5920468D02*
X9085053Y-5920468D01*
X9051793Y-6247173D02*
X9043809Y-6245331D01*
X16966942Y-6247209D02*
X16958958Y-6245366D01*
X17152262Y-6149769D02*
X17148957Y-6157080D01*
X8957708Y-13895672D02*
X8962895Y-13889684D01*
X17122359Y-5974571D02*
X17127546Y-5980559D01*
X8957708Y-6190471D02*
X8952809Y-6184237D01*
X9244886Y-13959403D02*
X9246729Y-13967387D01*
X17155217Y-6142275D02*
X17152262Y-6149769D01*
X17127546Y-5980559D02*
X17132445Y-5986793D01*
X9250082Y-6085497D02*
X9249867Y-6093990D01*
X16921520Y-13855602D02*
X16928634Y-13851958D01*
X9250082Y-6085497D02*
X9250082Y-6085497D01*
X16848141Y-6149769D02*
X16845186Y-6142275D01*
X9250082Y-14000646D02*
X9249867Y-14009139D01*
X8925219Y-14041890D02*
X8923376Y-14033905D01*
X8943915Y-5999924D02*
X8948208Y-5993228D01*
X17111104Y-13878550D02*
X17116834Y-13884013D01*
X17141273Y-14086237D02*
X17136982Y-14092932D01*
X16878034Y-13889744D02*
X16883498Y-13884013D01*
X16859064Y-6171106D02*
X16855090Y-6164195D01*
X16975069Y-6248660D02*
X16966942Y-6247209D01*
X9028310Y-5930482D02*
X9035978Y-5927888D01*
X16951127Y-5927923D02*
X16958958Y-5925699D01*
X9149289Y-5933437D02*
X9156599Y-5936742D01*
X9068179Y-13836468D02*
X9076560Y-13835831D01*
X8943915Y-13915072D02*
X8948208Y-13908377D01*
X9249230Y-13983773D02*
X9249867Y-13992154D01*
X9249230Y-14017520D02*
X9248180Y-14025779D01*
X9201746Y-13883953D02*
X9207210Y-13889684D01*
X16966914Y-13839040D02*
X16975039Y-13837589D01*
X17056944Y-5930517D02*
X17064438Y-5933472D01*
X16901447Y-13868466D02*
X16907916Y-13863866D01*
X8952809Y-5986758D02*
X8957708Y-5980524D01*
D11*
X17400000Y-15000000D02*
X18000000Y-14400000D01*
D10*
X17085721Y-13859575D02*
X17092416Y-13863866D01*
X9212397Y-6190471D02*
X9207210Y-6196459D01*
X16907916Y-14137497D02*
X16901447Y-14132897D01*
X17064389Y-14152709D02*
X17056896Y-14155664D01*
X9028310Y-13845630D02*
X9035978Y-13843036D01*
X9035978Y-13843036D02*
X9043809Y-13840812D01*
X8930037Y-6028755D02*
X8932992Y-6021261D01*
X16889228Y-13878550D02*
X16895214Y-13873365D01*
X16895227Y-5958188D02*
X16901462Y-5953289D01*
X16838525Y-6052274D02*
X16840367Y-6044289D01*
X16855086Y-14079328D02*
X16851442Y-14072214D01*
X16855086Y-13922036D02*
X16859059Y-13915126D01*
X9051793Y-14162323D02*
X9043809Y-14160480D01*
X17105175Y-5958188D02*
X17111163Y-5963375D01*
X8930037Y-13943904D02*
X8932992Y-13936409D01*
X9240068Y-6028755D02*
X9242662Y-6036423D01*
X9013506Y-5936742D02*
X9020816Y-5933437D01*
X9237113Y-6149734D02*
X9233808Y-6157044D01*
X8986313Y-6217741D02*
X8980079Y-6212842D01*
X16991675Y-13835903D02*
X17000166Y-13835688D01*
X9248180Y-13975514D02*
X9249230Y-13983773D01*
X9085053Y-13835616D02*
X9093545Y-13835831D01*
X9043809Y-6245331D02*
X9035978Y-6243107D01*
X9249230Y-6102370D02*
X9248180Y-6110629D01*
X16895214Y-14127999D02*
X16889228Y-14122813D01*
X9013506Y-6234253D02*
X9006390Y-6230608D01*
X9149289Y-6237557D02*
X9141795Y-6240512D01*
X16855090Y-6006870D02*
X16859064Y-5999959D01*
X16975069Y-5922405D02*
X16983328Y-5921355D01*
X9177322Y-14137491D02*
X9170626Y-14141784D01*
X16835386Y-6077040D02*
X16836024Y-6068660D01*
X9207210Y-5974536D02*
X9212397Y-5980524D01*
X16921539Y-6230644D02*
X16914628Y-6226670D01*
X9246729Y-14033905D02*
X9244886Y-14041890D01*
X16835172Y-6085533D02*
X16835386Y-6077040D01*
X9242662Y-13951572D02*
X9244886Y-13959403D01*
X9163715Y-6230608D02*
X9156599Y-6234253D01*
X17152194Y-14064905D02*
X17148890Y-14072214D01*
X16878044Y-5974571D02*
X16883508Y-5968839D01*
X8962895Y-14111608D02*
X8957708Y-14105620D01*
X9177322Y-6222342D02*
X9170626Y-6226634D01*
X17098941Y-5953289D02*
X17105175Y-5958188D01*
X17078864Y-5940422D02*
X17085775Y-5944395D01*
X17116895Y-6202226D02*
X17111163Y-6207690D01*
X17078812Y-14145762D02*
X17071698Y-14149405D01*
X17000166Y-14165675D02*
X16991675Y-14165461D01*
X17000202Y-6250562D02*
X16991709Y-6250347D01*
X8936297Y-13929099D02*
X8939941Y-13921983D01*
X17132381Y-13901963D02*
X17136982Y-13908432D01*
X16983296Y-14164824D02*
X16975039Y-14163774D01*
X9190026Y-14127991D02*
X9183792Y-14132890D01*
X16842591Y-6134607D02*
X16840367Y-6126776D01*
X9233808Y-6013950D02*
X9237113Y-6021261D01*
X17136982Y-13908432D02*
X17141273Y-13915126D01*
X9076560Y-6250312D02*
X9068179Y-6249674D01*
X17049230Y-14158258D02*
X17041400Y-14160481D01*
X17122297Y-14111620D02*
X17116834Y-14117350D01*
X17025293Y-13837589D02*
X17033418Y-13839040D01*
X17049230Y-13843106D02*
X17056896Y-13845700D01*
X8932992Y-6021261D02*
X8936297Y-6013950D01*
X16951102Y-14158258D02*
X16943435Y-14155664D01*
X9242662Y-6134572D02*
X9240068Y-6142240D01*
X16935965Y-6237593D02*
X16928655Y-6234288D01*
X8939941Y-6006835D02*
X8943915Y-5999924D01*
X9126296Y-5925664D02*
X9134127Y-5927888D01*
X8999479Y-6226634D02*
X8992783Y-6222342D01*
X17157811Y-6036458D02*
X17160035Y-6044289D01*
X17132445Y-6184272D02*
X17127546Y-6190506D01*
X17165231Y-6085533D02*
X17165016Y-6094025D01*
X17116895Y-5968839D02*
X17122359Y-5974571D01*
X16848141Y-6021296D02*
X16851446Y-6013986D01*
X9068179Y-5921320D02*
X9076560Y-5920683D01*
X8986313Y-14132890D02*
X8980079Y-14127991D01*
X9051793Y-13838969D02*
X9059920Y-13837518D01*
X8957708Y-14105620D02*
X8952809Y-14099386D01*
X16983328Y-6249710D02*
X16975069Y-6248660D01*
X9240068Y-6142240D02*
X9237113Y-6149734D01*
X8986313Y-5953254D02*
X8992783Y-5948653D01*
X8999479Y-14141784D02*
X8992783Y-14137491D01*
X9141795Y-13845630D02*
X9149289Y-13848585D01*
X8920238Y-6093990D02*
X8920023Y-6085497D01*
X9085053Y-6250526D02*
X9076560Y-6250312D01*
X17155148Y-13943951D02*
X17157742Y-13951617D01*
X9196014Y-6207655D02*
X9190026Y-6212842D01*
X8968359Y-14117339D02*
X8962895Y-14111608D01*
X16914628Y-6226670D02*
X16907932Y-6222377D01*
X17160035Y-6126776D02*
X17157811Y-6134607D01*
X16872857Y-5980559D02*
X16878044Y-5974571D01*
X9134127Y-5927888D02*
X9141795Y-5930482D01*
X8927443Y-6036423D02*
X8930037Y-6028755D01*
X17145246Y-14079328D02*
X17141273Y-14086237D01*
X9207210Y-6196459D02*
X9201746Y-6202190D01*
X16838524Y-13967429D02*
X16840366Y-13959447D01*
X17041445Y-6245366D02*
X17033461Y-6247209D01*
X16840367Y-6044289D02*
X16842591Y-6036458D01*
X9035978Y-6243107D02*
X9028310Y-6240512D01*
X16872849Y-14105633D02*
X16867950Y-14099400D01*
X8952809Y-6184237D02*
X8948208Y-6177767D01*
X16935965Y-5933472D02*
X16943459Y-5930517D01*
X9093545Y-5920683D02*
X9101926Y-5921320D01*
X9246729Y-13967387D02*
X9248180Y-13975514D01*
X16975039Y-14163774D02*
X16966914Y-14162323D01*
X9221897Y-14092916D02*
X9217296Y-14099386D01*
X9068179Y-14164823D02*
X9059920Y-14163774D01*
X9059920Y-5922370D02*
X9068179Y-5921320D01*
X17164308Y-14017551D02*
X17163259Y-14025809D01*
X8925219Y-13959403D02*
X8927443Y-13951572D01*
X17116834Y-13884013D02*
X17122297Y-13889744D01*
X17165160Y-14000681D02*
X17164945Y-14009172D01*
X17111104Y-14122813D02*
X17105117Y-14127999D01*
X9201746Y-14117339D02*
X9196014Y-14122804D01*
X16863356Y-5993263D02*
X16867957Y-5986793D01*
X9237113Y-13936409D02*
X9240068Y-13943904D01*
X17092416Y-13863866D02*
X17098884Y-13868466D01*
X16859064Y-5999959D02*
X16863356Y-5993263D01*
X17041445Y-5925699D02*
X17049276Y-5927923D01*
X16840366Y-13959447D02*
X16842590Y-13951617D01*
X16975039Y-13837589D02*
X16983296Y-13836540D01*
X16845186Y-6028790D02*
X16848141Y-6021296D01*
X17161878Y-6052274D02*
X17163329Y-6060400D01*
X9244886Y-6126741D02*
X9242662Y-6134572D01*
X8936297Y-6013950D02*
X8939941Y-6006835D01*
X17161808Y-14033934D02*
X17159965Y-14041916D01*
X16878034Y-14111620D02*
X16872849Y-14105633D01*
X16837073Y-6060400D02*
X16838525Y-6052274D01*
D11*
X18000000Y-5600000D02*
X18000000Y-14400000D01*
D10*
X9085053Y-5920468D02*
X9093545Y-5920683D01*
X8980079Y-5958153D02*
X8986313Y-5953254D01*
X16836024Y-6068660D02*
X16837073Y-6060400D01*
X8992783Y-5948653D02*
X8999479Y-5944360D01*
X16983328Y-5921355D02*
X16991709Y-5920718D01*
X9226190Y-14086220D02*
X9221897Y-14092916D01*
X9085053Y-6250526D02*
X9085053Y-6250526D01*
X16914628Y-5944395D02*
X16921539Y-5940422D01*
X8974091Y-5963340D02*
X8980079Y-5958153D01*
X17111163Y-6207690D02*
X17105175Y-6212877D01*
X9028310Y-14155661D02*
X9020816Y-14152707D01*
X9043809Y-5925664D02*
X9051793Y-5923821D01*
X16840367Y-6126776D02*
X16838525Y-6118792D01*
X17033418Y-13839040D02*
X17041400Y-13840882D01*
X17148890Y-13929150D02*
X17152194Y-13936459D01*
X16889228Y-14122813D02*
X16883498Y-14117350D01*
X16837073Y-14025809D02*
X16836024Y-14017551D01*
X8939941Y-13921983D02*
X8943915Y-13915072D01*
X9101926Y-6249674D02*
X9093545Y-6250312D01*
X9196014Y-5963340D02*
X9201746Y-5968804D01*
X17033461Y-5923856D02*
X17041445Y-5925699D01*
X17165231Y-6085533D02*
X17165231Y-6085533D01*
X9233808Y-13929099D02*
X9237113Y-13936409D01*
X16914611Y-14141789D02*
X16907916Y-14137497D01*
X9237113Y-6021261D02*
X9240068Y-6028755D01*
X9201746Y-6202190D02*
X9196014Y-6207655D01*
X17141339Y-6171106D02*
X17137046Y-6177802D01*
X9085053Y-14165675D02*
X9085053Y-14165675D01*
X9028310Y-6240512D02*
X9020816Y-6237557D01*
X17159965Y-13959447D02*
X17161808Y-13967429D01*
X16837073Y-6110665D02*
X16836024Y-6102406D01*
X9020816Y-5933437D02*
X9028310Y-5930482D01*
X8968359Y-5968804D02*
X8974091Y-5963340D01*
X9248180Y-6060365D02*
X9249230Y-6068624D01*
X8925219Y-6044254D02*
X8927443Y-6036423D01*
X17145246Y-13922036D02*
X17148890Y-13929150D01*
X9212397Y-5980524D02*
X9217296Y-5986758D01*
X16855090Y-6164195D02*
X16851446Y-6157080D01*
X16842590Y-13951617D02*
X16845184Y-13943951D01*
X16895227Y-6212877D02*
X16889239Y-6207690D01*
X9076560Y-13835831D02*
X9085053Y-13835616D01*
X9226190Y-13915072D02*
X9230163Y-13921983D01*
X17164308Y-13983812D02*
X17164945Y-13992191D01*
X9156599Y-14149402D02*
X9149289Y-14152707D01*
X8923376Y-6118756D02*
X8921925Y-6110629D01*
X9250082Y-14000646D02*
X9250082Y-14000646D01*
X17025334Y-6248660D02*
X17017075Y-6249710D01*
X9190026Y-13873301D02*
X9196014Y-13878488D01*
X9085053Y-14165675D02*
X9076560Y-14165461D01*
X9207210Y-14111608D02*
X9201746Y-14117339D01*
X8932992Y-6149734D02*
X8930037Y-6142240D01*
X9093545Y-13835831D02*
X9101926Y-13836468D01*
X17122297Y-13889744D02*
X17127483Y-13895730D01*
X8927443Y-14049721D02*
X8925219Y-14041890D01*
D11*
X18000000Y-5600000D02*
X17400000Y-5000000D01*
D10*
X16835172Y-14000681D02*
X16835172Y-14000681D01*
X17041400Y-13840882D02*
X17049230Y-13843106D01*
X9233808Y-6157044D02*
X9230163Y-6164160D01*
X17111163Y-5963375D02*
X17116895Y-5968839D01*
X9134127Y-14158256D02*
X9126296Y-14160480D01*
X16851446Y-6013986D02*
X16855090Y-6006870D01*
X9076560Y-5920683D02*
X9085053Y-5920468D01*
X8992783Y-6222342D02*
X8986313Y-6217741D01*
X17033461Y-6247209D02*
X17025334Y-6248660D01*
X9212397Y-14105620D02*
X9207210Y-14111608D01*
D11*
X17400000Y-15000000D02*
X8600000Y-15000000D01*
D10*
X16838524Y-14033934D02*
X16837073Y-14025809D01*
X9183792Y-14132890D02*
X9177322Y-14137491D01*
X9068179Y-6249674D02*
X9059920Y-6248625D01*
X9249867Y-6077005D02*
X9250082Y-6085497D01*
X9156599Y-5936742D02*
X9163715Y-5940386D01*
X9177322Y-5948653D02*
X9183792Y-5953254D01*
X9170626Y-13859508D02*
X9177322Y-13863801D01*
X17098941Y-6217776D02*
X17092471Y-6222377D01*
X17163259Y-13975555D02*
X17164308Y-13983812D01*
X8923376Y-14033905D02*
X8921925Y-14025779D01*
X8921925Y-6110629D02*
X8920875Y-6102370D01*
X9217296Y-5986758D02*
X9221897Y-5993228D01*
X16867957Y-5986793D02*
X16872857Y-5980559D01*
X16845184Y-14057412D02*
X16842590Y-14049746D01*
X16863356Y-6177802D02*
X16859064Y-6171106D01*
X8992783Y-13863801D02*
X8999479Y-13859508D01*
X9051793Y-5923821D02*
X9059920Y-5922370D01*
X16958958Y-5925699D02*
X16966942Y-5923856D01*
X17127546Y-6190506D02*
X17122359Y-6196494D01*
D11*
X8000000Y-14400000D02*
X8000000Y-5600000D01*
D10*
X17008694Y-5920718D02*
X17017075Y-5921355D01*
X9118312Y-14162323D02*
X9110185Y-14163774D01*
X16991709Y-5920718D02*
X17000202Y-5920503D01*
X17161808Y-13967429D02*
X17163259Y-13975555D01*
X16867950Y-14099400D02*
X16863350Y-14092932D01*
X17164945Y-14009172D02*
X17164308Y-14017551D01*
X16943459Y-6240548D02*
X16935965Y-6237593D01*
X17008656Y-14165461D02*
X17000166Y-14165675D01*
X8927443Y-13951572D02*
X8930037Y-13943904D01*
X17071698Y-14149405D02*
X17064389Y-14152709D01*
X16883498Y-13884013D02*
X16889228Y-13878550D01*
X9126296Y-14160480D02*
X9118312Y-14162323D01*
X9250082Y-6085497D02*
X9250082Y-6085497D01*
X9141795Y-6240512D02*
X9134127Y-6243107D01*
X17136982Y-14092932D02*
X17132381Y-14099400D01*
X17155148Y-14057412D02*
X17152194Y-14064905D01*
X9249867Y-13992154D02*
X9250082Y-14000646D01*
X17105117Y-14127999D02*
X17098884Y-14132897D01*
X17165016Y-6077040D02*
X17165231Y-6085533D01*
X16872857Y-6190506D02*
X16867957Y-6184272D01*
X8930037Y-14057389D02*
X8927443Y-14049721D01*
X9233808Y-14072193D02*
X9230163Y-14079309D01*
X17092471Y-6222377D02*
X17085775Y-6226670D01*
X17141273Y-13915126D02*
X17145246Y-13922036D01*
X8980079Y-14127991D02*
X8974091Y-14122804D01*
X9020816Y-13848585D02*
X9028310Y-13845630D01*
X16943435Y-13845700D02*
X16951102Y-13843106D01*
X16851446Y-6157080D02*
X16848141Y-6149769D01*
X17033418Y-14162323D02*
X17025293Y-14163774D01*
X9226190Y-5999924D02*
X9230163Y-6006835D01*
X9183792Y-13868402D02*
X9190026Y-13873301D01*
X9246729Y-6052238D02*
X9248180Y-6060365D01*
X17164945Y-13992191D02*
X17165160Y-14000681D01*
X16835386Y-6094025D02*
X16835172Y-6085533D01*
X16951102Y-13843106D02*
X16958931Y-13840882D01*
X9126296Y-6245331D02*
X9118312Y-6247173D01*
X17160035Y-6044289D02*
X17161878Y-6052274D01*
X9118312Y-6247173D02*
X9110185Y-6248625D01*
X16901462Y-6217776D02*
X16895227Y-6212877D01*
X16872849Y-13895730D02*
X16878034Y-13889744D01*
X17148957Y-6013986D02*
X17152262Y-6021296D01*
X16951127Y-6243142D02*
X16943459Y-6240548D01*
X16991709Y-6250347D02*
X16983328Y-6249710D01*
X17092416Y-14137497D02*
X17085721Y-14141789D01*
X8921925Y-14025779D02*
X8920875Y-14017520D01*
X8920875Y-6102370D02*
X8920238Y-6093990D01*
X9163715Y-14145757D02*
X9156599Y-14149402D01*
X9093545Y-14165461D02*
X9085053Y-14165675D01*
X16889239Y-5963375D02*
X16895227Y-5958188D01*
X17025293Y-14163774D02*
X17017036Y-14164824D01*
X9043809Y-13840812D02*
X9051793Y-13838969D01*
X17071749Y-6234288D02*
X17064438Y-6237593D01*
X8921925Y-6060365D02*
X8923376Y-6052238D01*
X16928634Y-14149405D02*
X16921520Y-14145762D01*
X16848138Y-13936459D02*
X16851442Y-13929150D01*
X9170626Y-6226634D02*
X9163715Y-6230608D01*
X16835386Y-14009172D02*
X16835172Y-14000681D01*
X9118312Y-13838969D02*
X9126296Y-13840812D01*
X9170626Y-14141784D02*
X9163715Y-14145757D01*
X9163715Y-13855535D02*
X9170626Y-13859508D01*
X16958931Y-14160481D02*
X16951102Y-14158258D01*
X16966942Y-5923856D02*
X16975069Y-5922405D01*
X9242662Y-6036423D02*
X9244886Y-6044254D01*
X8939941Y-14079309D02*
X8936297Y-14072193D01*
X9207210Y-13889684D02*
X9212397Y-13895672D01*
X9212397Y-13895672D02*
X9217296Y-13901906D01*
X8930037Y-6142240D02*
X8927443Y-6134572D01*
X8974091Y-14122804D02*
X8968359Y-14117339D01*
X16867950Y-13901963D02*
X16872849Y-13895730D01*
X17155217Y-6028790D02*
X17157811Y-6036458D01*
X17163329Y-6110665D02*
X17161878Y-6118792D01*
X16991675Y-14165461D02*
X16983296Y-14164824D01*
X9043809Y-14160480D02*
X9035978Y-14158256D01*
X17127483Y-13895730D02*
X17132381Y-13901963D01*
X17157742Y-13951617D02*
X17159965Y-13959447D01*
X17017036Y-13836540D02*
X17025293Y-13837589D01*
X9141795Y-14155661D02*
X9134127Y-14158256D01*
X8920023Y-6085497D02*
X8920238Y-6077005D01*
X17008656Y-13835903D02*
X17017036Y-13836540D01*
X17157742Y-14049746D02*
X17155148Y-14057412D01*
X9141795Y-5930482D02*
X9149289Y-5933437D01*
X9110185Y-5922370D02*
X9118312Y-5923821D01*
X16983296Y-13836540D02*
X16991675Y-13835903D01*
X9006390Y-5940386D02*
X9013506Y-5936742D01*
X16907932Y-6222377D02*
X16901462Y-6217776D01*
X17000166Y-13835688D02*
X17000166Y-13835688D01*
X17071749Y-5936777D02*
X17078864Y-5940422D01*
X8962895Y-5974536D02*
X8968359Y-5968804D01*
X16859059Y-14086237D02*
X16855086Y-14079328D01*
D11*
X8000000Y-14400000D02*
X8600000Y-15000000D01*
D10*
X8920238Y-14009139D02*
X8920023Y-14000646D01*
X8957708Y-5980524D02*
X8962895Y-5974536D01*
X17132381Y-14099400D02*
X17127483Y-14105633D01*
X8936297Y-6157044D02*
X8932992Y-6149734D01*
X8968359Y-13883953D02*
X8974091Y-13878488D01*
X8920023Y-14000646D02*
X8920023Y-14000646D01*
X8974091Y-6207655D02*
X8968359Y-6202190D01*
X17092471Y-5948688D02*
X17098941Y-5953289D01*
X9237113Y-14064883D02*
X9233808Y-14072193D01*
X8920875Y-14017520D02*
X8920238Y-14009139D01*
X16845184Y-13943951D02*
X16848138Y-13936459D01*
X9101926Y-14164823D02*
X9093545Y-14165461D01*
X9035978Y-5927888D02*
X9043809Y-5925664D01*
D11*
X8600000Y-5000000D02*
X17400000Y-5000000D01*
D10*
X16863350Y-14092932D02*
X16859059Y-14086237D01*
X8920023Y-14000646D02*
X8920238Y-13992154D01*
X9244886Y-6044254D02*
X9246729Y-6052238D01*
X16851442Y-14072214D02*
X16848138Y-14064905D01*
X17141339Y-5999959D02*
X17145313Y-6006870D01*
X17085775Y-5944395D02*
X17092471Y-5948688D01*
X17000166Y-14165675D02*
X17000166Y-14165675D01*
X16836024Y-6102406D02*
X16835386Y-6094025D01*
X17085721Y-14141789D02*
X17078812Y-14145762D01*
X17049276Y-6243142D02*
X17041445Y-6245366D01*
X16928655Y-6234288D02*
X16921539Y-6230644D01*
X8948208Y-13908377D02*
X8952809Y-13901906D01*
X17105117Y-13873365D02*
X17111104Y-13878550D01*
X17157811Y-6134607D02*
X17155217Y-6142275D01*
X17152262Y-6021296D02*
X17155217Y-6028790D01*
X9249867Y-14009139D02*
X9249230Y-14017520D01*
X17165231Y-6085533D02*
X17165231Y-6085533D01*
X17105175Y-6212877D02*
X17098941Y-6217776D01*
X16921520Y-14145762D02*
X16914611Y-14141789D01*
X9020816Y-14152707D02*
X9013506Y-14149402D01*
X16935943Y-14152709D02*
X16928634Y-14149405D01*
X17163259Y-14025809D02*
X17161808Y-14033934D01*
X9110185Y-13837518D02*
X9118312Y-13838969D01*
X9059920Y-6248625D02*
X9051793Y-6247173D01*
X9221897Y-6177767D02*
X9217296Y-6184237D01*
X9134127Y-6243107D02*
X9126296Y-6245331D01*
X17017036Y-14164824D02*
X17008656Y-14165461D01*
X9035978Y-14158256D02*
X9028310Y-14155661D01*
X8968359Y-6202190D02*
X8962895Y-6196459D01*
X9149289Y-13848585D02*
X9156599Y-13851890D01*
X9230163Y-13921983D02*
X9233808Y-13929099D01*
X16914611Y-13859575D02*
X16921520Y-13855602D01*
X9217296Y-6184237D02*
X9212397Y-6190471D01*
X8920238Y-6077005D02*
X8920875Y-6068624D01*
X17000166Y-13835688D02*
X17008656Y-13835903D01*
X8980079Y-6212842D02*
X8974091Y-6207655D01*
X17085775Y-6226670D02*
X17078864Y-6230644D01*
X16863350Y-13908432D02*
X16867950Y-13901963D01*
X17000202Y-5920503D02*
X17008694Y-5920718D01*
X8962895Y-13889684D02*
X8968359Y-13883953D01*
X17000202Y-6250562D02*
X17000202Y-6250562D01*
X16921539Y-5940422D02*
X16928655Y-5936777D01*
X8999479Y-13859508D02*
X9006390Y-13855535D01*
X9250082Y-14000646D02*
X9250082Y-14000646D01*
X16840366Y-14041916D02*
X16838524Y-14033934D01*
X9221897Y-13908377D02*
X9226190Y-13915072D01*
X17165160Y-14000681D02*
X17165160Y-14000681D01*
X17148957Y-6157080D02*
X17145313Y-6164195D01*
X16966914Y-14162323D02*
X16958931Y-14160481D01*
X16889239Y-6207690D02*
X16883508Y-6202226D01*
X17041400Y-14160481D02*
X17033418Y-14162323D01*
X8920875Y-6068624D02*
X8921925Y-6060365D01*
X9013506Y-14149402D02*
X9006390Y-14145757D01*
X9196014Y-14122804D02*
X9190026Y-14127991D01*
X16835172Y-6085533D02*
X16835172Y-6085533D01*
X9242662Y-14049721D02*
X9240068Y-14057389D01*
X8939941Y-6164160D02*
X8936297Y-6157044D01*
X9170626Y-5944360D02*
X9177322Y-5948653D01*
X17152194Y-13936459D02*
X17155148Y-13943951D01*
X16883508Y-5968839D02*
X16889239Y-5963375D01*
X9126296Y-13840812D02*
X9134127Y-13843036D01*
X8986313Y-13868402D02*
X8992783Y-13863801D01*
X17078812Y-13855602D02*
X17085721Y-13859575D01*
X17008694Y-6250347D02*
X17000202Y-6250562D01*
X16935943Y-13848654D02*
X16943435Y-13845700D01*
X17056896Y-13845700D02*
X17064389Y-13848654D01*
X9059920Y-14163774D02*
X9051793Y-14162323D01*
X8932992Y-13936409D02*
X8936297Y-13929099D01*
X16842591Y-6036458D02*
X16845186Y-6028790D01*
X17145313Y-6164195D02*
X17141339Y-6171106D01*
X17145313Y-6006870D02*
X17148957Y-6013986D01*
X17017075Y-5921355D02*
X17025334Y-5922405D01*
X8999479Y-5944360D02*
X9006390Y-5940386D01*
X17159965Y-14041916D02*
X17157742Y-14049746D01*
X9156599Y-13851890D02*
X9163715Y-13855535D01*
X9085053Y-13835616D02*
X9085053Y-13835616D01*
X9006390Y-13855535D02*
X9013506Y-13851890D01*
X16842590Y-14049746D02*
X16840366Y-14041916D01*
X9101926Y-5921320D02*
X9110185Y-5922370D01*
X8974091Y-13878488D02*
X8980079Y-13873301D01*
X16859059Y-13915126D02*
X16863350Y-13908432D01*
X9230163Y-14079309D02*
X9226190Y-14086220D01*
X9221897Y-5993228D02*
X9226190Y-5999924D01*
X9244886Y-14041890D02*
X9242662Y-14049721D01*
X17098884Y-13868466D02*
X17105117Y-13873365D01*
X9248180Y-14025779D02*
X9246729Y-14033905D01*
X9101926Y-13836468D02*
X9110185Y-13837518D01*
X16867957Y-6184272D02*
X16863356Y-6177802D01*
X9183792Y-6217741D02*
X9177322Y-6222342D01*
X9190026Y-6212842D02*
X9183792Y-6217741D01*
X16928634Y-13851958D02*
X16935943Y-13848654D01*
X16836024Y-13983812D02*
X16837073Y-13975555D01*
X9163715Y-5940386D02*
X9170626Y-5944360D01*
X8920875Y-13983773D02*
X8921925Y-13975514D01*
X17132445Y-5986793D02*
X17137046Y-5993263D01*
X17164379Y-6068660D02*
X17165016Y-6077040D01*
X9217296Y-14099386D02*
X9212397Y-14105620D01*
X17122359Y-6196494D02*
X17116895Y-6202226D01*
X16958931Y-13840882D02*
X16966914Y-13839040D01*
X16928655Y-5936777D02*
X16935965Y-5933472D01*
X16883508Y-6202226D02*
X16878044Y-6196494D01*
X16835386Y-13992191D02*
X16836024Y-13983812D01*
X17078864Y-6230644D02*
X17071749Y-6234288D01*
X9201746Y-5968804D02*
X9207210Y-5974536D01*
X16958958Y-6245366D02*
X16951127Y-6243142D01*
X17116834Y-14117350D02*
X17111104Y-14122813D01*
X8936297Y-14072193D02*
X8932992Y-14064883D01*
X17049276Y-5927923D02*
X17056944Y-5930517D01*
X16845186Y-6142275D02*
X16842591Y-6134607D01*
X17161878Y-6118792D02*
X17160035Y-6126776D01*
X17098884Y-14132897D02*
X17092416Y-14137497D01*
X9217296Y-13901906D02*
X9221897Y-13908377D01*
X16943459Y-5930517D02*
X16951127Y-5927923D01*
X17071698Y-13851958D02*
X17078812Y-13855602D01*
X17137046Y-6177802D02*
X17132445Y-6184272D01*
X8923376Y-6052238D02*
X8925219Y-6044254D01*
X8943915Y-6171071D02*
X8939941Y-6164160D01*
X8980079Y-13873301D02*
X8986313Y-13868402D01*
X17137046Y-5993263D02*
X17141339Y-5999959D01*
X9230163Y-6006835D02*
X9233808Y-6013950D01*
X17148890Y-14072214D02*
X17145246Y-14079328D01*
X9249867Y-6093990D02*
X9249230Y-6102370D01*
X17025334Y-5922405D02*
X17033461Y-5923856D01*
X8948208Y-5993228D02*
X8952809Y-5986758D01*
X9013506Y-13851890D02*
X9020816Y-13848585D01*
X9006390Y-14145757D02*
X8999479Y-14141784D01*
X9156599Y-6234253D02*
X9149289Y-6237557D01*
X9093545Y-6250312D02*
X9085053Y-6250526D01*
X8948208Y-6177767D02*
X8943915Y-6171071D01*
X8921925Y-13975514D02*
X8923376Y-13967387D01*
X9249230Y-6068624D02*
X9249867Y-6077005D01*
X16848138Y-14064905D02*
X16845184Y-14057412D01*
X9020816Y-6237557D02*
X9013506Y-6234253D01*
X8948208Y-14092916D02*
X8943915Y-14086220D01*
X9110185Y-6248625D02*
X9101926Y-6249674D01*
X17064438Y-6237593D02*
X17056944Y-6240548D01*
X17127483Y-14105633D02*
X17122297Y-14111620D01*
X17056896Y-14155664D02*
X17049230Y-14158258D01*
X16907932Y-5948688D02*
X16914628Y-5944395D01*
X8962895Y-6196459D02*
X8957708Y-6190471D01*
X17164379Y-6102406D02*
X17163329Y-6110665D01*
X16837073Y-13975555D02*
X16838524Y-13967429D01*
X16851442Y-13929150D02*
X16855086Y-13922036D01*
X16835172Y-14000681D02*
X16835386Y-13992191D01*
X8925219Y-6126741D02*
X8923376Y-6118756D01*
X9134127Y-13843036D02*
X9141795Y-13845630D01*
X16878044Y-6196494D02*
X16872857Y-6190506D01*
X16901462Y-5953289D02*
X16907932Y-5948688D01*
X8920238Y-13992154D02*
X8920875Y-13983773D01*
X16943435Y-14155664D02*
X16935943Y-14152709D01*
X8952809Y-13901906D02*
X8957708Y-13895672D01*
X9246729Y-6118756D02*
X9244886Y-6126741D01*
X9110185Y-14163774D02*
X9101926Y-14164823D01*
X17017075Y-6249710D02*
X17008694Y-6250347D01*
X8932992Y-14064883D02*
X8930037Y-14057389D01*
X16901447Y-14132897D02*
X16895214Y-14127999D01*
X17056944Y-6240548D02*
X17049276Y-6243142D01*
X9230163Y-6164160D02*
X9226190Y-6171071D01*
X17163329Y-6060400D02*
X17164379Y-6068660D01*
X9149289Y-14152707D02*
X9141795Y-14155661D01*
X9196014Y-13878488D02*
X9201746Y-13883953D01*
X16895214Y-13873365D02*
X16901447Y-13868466D01*
X8943915Y-14086220D02*
X8939941Y-14079309D01*
X8923376Y-13967387D02*
X8925219Y-13959403D01*
D11*
X8000000Y-5600000D02*
X8600000Y-5000000D01*
D10*
X9006390Y-6230608D02*
X8999479Y-6226634D01*
X17165016Y-6094025D02*
X17164379Y-6102406D01*
D12*
D13*
X10978997Y-5721550D02*
X11013997Y-5756550D01*
X11013997Y-5721550D02*
X10978997Y-5756550D01*
X10978997Y-5849050D02*
X11013997Y-5884050D01*
X11013997Y-5849050D02*
X10978997Y-5884050D01*
X10978997Y-5976550D02*
X11013997Y-6011550D01*
X11013997Y-5976550D02*
X10978997Y-6011550D01*
X11106497Y-5721550D02*
X11141497Y-5756550D01*
X11141497Y-5721550D02*
X11106497Y-5756550D01*
X11106497Y-5849050D02*
X11141497Y-5884050D01*
X11141497Y-5849050D02*
X11106497Y-5884050D01*
X11106497Y-5976550D02*
X11141497Y-6011550D01*
X11141497Y-5976550D02*
X11106497Y-6011550D01*
X11233997Y-5721550D02*
X11268997Y-5756550D01*
X11268997Y-5721550D02*
X11233997Y-5756550D01*
X11233997Y-5849050D02*
X11268997Y-5884050D01*
X11268997Y-5849050D02*
X11233997Y-5884050D01*
X11233997Y-5976550D02*
X11268997Y-6011550D01*
X11268997Y-5976550D02*
X11233997Y-6011550D01*
D14*
X8473120Y-7014020D02*
G75*
G03*
X8473120Y-7014020I-20000J0D01*
G01*
X8502879Y-6476279D02*
G75*
G03*
X8502879Y-6476279I-20000J0D01*
G01*
X8747440Y-6791960D02*
G75*
G03*
X8747440Y-6791960I-20000J0D01*
G01*
X9570400Y-5867400D02*
G75*
G03*
X9570400Y-5867400I-20000J0D01*
G01*
X9570400Y-5966460D02*
G75*
G03*
X9570400Y-5966460I-20000J0D01*
G01*
X10268150Y-6107950D02*
G75*
G03*
X10268150Y-6107950I-20000J0D01*
G01*
X10332400Y-5886430D02*
G75*
G03*
X10332400Y-5886430I-20000J0D01*
G01*
X10421300Y-14884400D02*
G75*
G03*
X10421300Y-14884400I-20000J0D01*
G01*
X10449240Y-6532880D02*
G75*
G03*
X10449240Y-6532880I-20000J0D01*
G01*
X10599250Y-5956450D02*
G75*
G03*
X10599250Y-5956450I-20000J0D01*
G01*
X10642280Y-5486400D02*
G75*
G03*
X10642280Y-5486400I-20000J0D01*
G01*
X10809920Y-6248400D02*
G75*
G03*
X10809920Y-6248400I-20000J0D01*
G01*
X11130374Y-6577750D02*
G75*
G03*
X11130374Y-6577750I-20000J0D01*
G01*
X11223024Y-6577750D02*
G75*
G03*
X11223024Y-6577750I-20000J0D01*
G01*
X11360000Y-5368000D02*
G75*
G03*
X11360000Y-5368000I-20000J0D01*
G01*
X11546520Y-6248400D02*
G75*
G03*
X11546520Y-6248400I-20000J0D01*
G01*
X11599860Y-6090920D02*
G75*
G03*
X11599860Y-6090920I-20000J0D01*
G01*
X11602400Y-5537200D02*
G75*
G03*
X11602400Y-5537200I-20000J0D01*
G01*
X11643000Y-5215000D02*
G75*
G03*
X11643000Y-5215000I-20000J0D01*
G01*
X11764960Y-6334760D02*
G75*
G03*
X11764960Y-6334760I-20000J0D01*
G01*
X11805875Y-5320725D02*
G75*
G03*
X11805875Y-5320725I-20000J0D01*
G01*
X11832050Y-5552440D02*
G75*
G03*
X11832050Y-5552440I-20000J0D01*
G01*
X11932600Y-5943600D02*
G75*
G03*
X11932600Y-5943600I-20000J0D01*
G01*
X12598652Y-6577750D02*
G75*
G03*
X12598652Y-6577750I-20000J0D01*
G01*
X12691302Y-6577750D02*
G75*
G03*
X12691302Y-6577750I-20000J0D01*
G01*
X15107600Y-5232400D02*
G75*
G03*
X15107600Y-5232400I-20000J0D01*
G01*
X9302500Y-5454500D02*
X9302500Y-5494500D01*
X9282500Y-5474500D02*
X9322500Y-5474500D01*
X9302500Y-5589500D02*
X9302500Y-5629500D01*
X9282500Y-5609500D02*
X9322500Y-5609500D01*
X9387500Y-5454500D02*
X9387500Y-5494500D01*
X9367500Y-5474500D02*
X9407500Y-5474500D01*
X9387500Y-5589500D02*
X9387500Y-5629500D01*
X9367500Y-5609500D02*
X9407500Y-5609500D01*
X9472500Y-5454500D02*
X9472500Y-5494500D01*
X9452500Y-5474500D02*
X9492500Y-5474500D01*
X9472500Y-5589500D02*
X9472500Y-5629500D01*
X9452500Y-5609500D02*
X9492500Y-5609500D01*
X9557500Y-5454500D02*
X9557500Y-5494500D01*
X9537500Y-5474500D02*
X9577500Y-5474500D01*
X9557500Y-5589500D02*
X9557500Y-5629500D01*
X9537500Y-5609500D02*
X9577500Y-5609500D01*
X9642500Y-5454500D02*
X9642500Y-5494500D01*
X9622500Y-5474500D02*
X9662500Y-5474500D01*
X9642500Y-5589500D02*
X9642500Y-5629500D01*
X9622500Y-5609500D02*
X9662500Y-5609500D01*
X9727500Y-5454500D02*
X9727500Y-5494500D01*
X9707500Y-5474500D02*
X9747500Y-5474500D01*
X9727500Y-5589500D02*
X9727500Y-5629500D01*
X9707500Y-5609500D02*
X9747500Y-5609500D01*
X9812500Y-5454500D02*
X9812500Y-5494500D01*
X9792500Y-5474500D02*
X9832500Y-5474500D01*
X9812500Y-5589500D02*
X9812500Y-5629500D01*
X9792500Y-5609500D02*
X9832500Y-5609500D01*
X9897500Y-5454500D02*
X9897500Y-5494500D01*
X9877500Y-5474500D02*
X9917500Y-5474500D01*
X9897500Y-5589500D02*
X9897500Y-5629500D01*
X9877500Y-5609500D02*
X9917500Y-5609500D01*
D15*
X9188713Y-5194713D02*
X9188713Y-5152287D01*
X9146287Y-5152287D01*
X9146287Y-5194713D01*
X9188713Y-5194713D01*
D12*
X9197500Y-5213500D02*
X9197500Y-5133500D01*
X9137500Y-5213500D02*
X9137500Y-5133500D01*
X9197500Y-5133500D02*
G75*
G03*
X9137500Y-5133500I-30000J0D01*
G01*
X9137500Y-5213500D02*
G75*
G03*
X9197500Y-5213500I30000J0D01*
G01*
D15*
X9188713Y-5532713D02*
X9188713Y-5490287D01*
X9146287Y-5490287D01*
X9146287Y-5532713D01*
X9188713Y-5532713D01*
D12*
X9197500Y-5586500D02*
X9197500Y-5436500D01*
X9137500Y-5586500D02*
X9137500Y-5436500D01*
X9197500Y-5436500D02*
G75*
G03*
X9137500Y-5436500I-30000J0D01*
G01*
X9137500Y-5586500D02*
G75*
G03*
X9197500Y-5586500I30000J0D01*
G01*
D15*
X10053713Y-5194713D02*
X10053713Y-5152287D01*
X10011287Y-5152287D01*
X10011287Y-5194713D01*
X10053713Y-5194713D01*
D12*
X10062500Y-5213500D02*
X10062500Y-5133500D01*
X10002500Y-5213500D02*
X10002500Y-5133500D01*
X10062500Y-5133500D02*
G75*
G03*
X10002500Y-5133500I-30000J0D01*
G01*
X10002500Y-5213500D02*
G75*
G03*
X10062500Y-5213500I30000J0D01*
G01*
D15*
X10053713Y-5532713D02*
X10053713Y-5490287D01*
X10011287Y-5490287D01*
X10011287Y-5532713D01*
X10053713Y-5532713D01*
D12*
X10062500Y-5586500D02*
X10062500Y-5436500D01*
X10002500Y-5586500D02*
X10002500Y-5436500D01*
X10062500Y-5436500D02*
G75*
G03*
X10002500Y-5436500I-30000J0D01*
G01*
X10002500Y-5586500D02*
G75*
G03*
X10062500Y-5586500I30000J0D01*
G01*
D16*
X9829300Y-6461240D02*
X9861800Y-6428740D01*
X9829300Y-6396240D01*
X9796800Y-6428740D01*
X9829300Y-6461240D01*
X9956300Y-6461240D02*
X9988800Y-6428740D01*
X9956300Y-6396240D01*
X9923800Y-6428740D01*
X9956300Y-6461240D01*
X10083300Y-6461240D02*
X10115800Y-6428740D01*
X10083300Y-6396240D01*
X10050800Y-6428740D01*
X10083300Y-6461240D01*
X16560800Y-12909800D02*
X16593300Y-12877300D01*
X16560800Y-12844800D01*
X16528300Y-12877300D01*
X16560800Y-12909800D01*
X16560800Y-13036800D02*
X16593300Y-13004300D01*
X16560800Y-12971800D01*
X16528300Y-13004300D01*
X16560800Y-13036800D01*
X16560800Y-13163800D02*
X16593300Y-13131300D01*
X16560800Y-13098800D01*
X16528300Y-13131300D01*
X16560800Y-13163800D01*
D17*
X12339960Y-5750040D02*
X12419960Y-5830040D01*
X12419960Y-5750040D02*
X12339960Y-5830040D01*
X12419960Y-5790040D02*
G75*
G03*
X12419960Y-5790040I-40000J0D01*
G01*
X12339960Y-6238040D02*
X12419960Y-6318040D01*
X12419960Y-6238040D02*
X12339960Y-6318040D01*
X12419960Y-6278040D02*
G75*
G03*
X12419960Y-6278040I-40000J0D01*
G01*
D11*
X8920840Y-9131560D02*
X9020840Y-9231560D01*
X9020840Y-9131560D02*
X8920840Y-9231560D01*
X8970840Y-9131560D02*
X8970840Y-9231560D01*
X8920840Y-9181560D02*
X9020840Y-9181560D01*
X8920840Y-9381560D02*
X9020840Y-9481560D01*
X9020840Y-9381560D02*
X8920840Y-9481560D01*
X8970840Y-9381560D02*
X8970840Y-9481560D01*
X8920840Y-9431560D02*
X9020840Y-9431560D01*
X12372100Y-5182400D02*
X12472100Y-5282400D01*
X12472100Y-5182400D02*
X12372100Y-5282400D01*
X12422100Y-5182400D02*
X12422100Y-5282400D01*
X12372100Y-5232400D02*
X12472100Y-5232400D01*
X12626100Y-5182400D02*
X12726100Y-5282400D01*
X12726100Y-5182400D02*
X12626100Y-5282400D01*
X12676100Y-5182400D02*
X12676100Y-5282400D01*
X12626100Y-5232400D02*
X12726100Y-5232400D01*
X12880100Y-5182400D02*
X12980100Y-5282400D01*
X12980100Y-5182400D02*
X12880100Y-5282400D01*
X12930100Y-5182400D02*
X12930100Y-5282400D01*
X12880100Y-5232400D02*
X12980100Y-5232400D01*
X14275600Y-5919500D02*
X14375600Y-6019500D01*
X14375600Y-5919500D02*
X14275600Y-6019500D01*
X14325600Y-5919500D02*
X14325600Y-6019500D01*
X14275600Y-5969500D02*
X14375600Y-5969500D01*
X14275600Y-6173500D02*
X14375600Y-6273500D01*
X14375600Y-6173500D02*
X14275600Y-6273500D01*
X14325600Y-6173500D02*
X14325600Y-6273500D01*
X14275600Y-6223500D02*
X14375600Y-6223500D01*
X14529600Y-5919500D02*
X14629600Y-6019500D01*
X14629600Y-5919500D02*
X14529600Y-6019500D01*
X14579600Y-5919500D02*
X14579600Y-6019500D01*
X14529600Y-5969500D02*
X14629600Y-5969500D01*
X14529600Y-6173500D02*
X14629600Y-6273500D01*
X14629600Y-6173500D02*
X14529600Y-6273500D01*
X14579600Y-6173500D02*
X14579600Y-6273500D01*
X14529600Y-6223500D02*
X14629600Y-6223500D01*
X14783600Y-5919500D02*
X14883600Y-6019500D01*
X14883600Y-5919500D02*
X14783600Y-6019500D01*
X14833600Y-5919500D02*
X14833600Y-6019500D01*
X14783600Y-5969500D02*
X14883600Y-5969500D01*
X14783600Y-6173500D02*
X14883600Y-6273500D01*
X14883600Y-6173500D02*
X14783600Y-6273500D01*
X14833600Y-6173500D02*
X14833600Y-6273500D01*
X14783600Y-6223500D02*
X14883600Y-6223500D01*
X15037600Y-5919500D02*
X15137600Y-6019500D01*
X15137600Y-5919500D02*
X15037600Y-6019500D01*
X15087600Y-5919500D02*
X15087600Y-6019500D01*
X15037600Y-5969500D02*
X15137600Y-5969500D01*
X15037600Y-6173500D02*
X15137600Y-6273500D01*
X15137600Y-6173500D02*
X15037600Y-6273500D01*
X15087600Y-6173500D02*
X15087600Y-6273500D01*
X15037600Y-6223500D02*
X15137600Y-6223500D01*
X15291600Y-5919500D02*
X15391600Y-6019500D01*
X15391600Y-5919500D02*
X15291600Y-6019500D01*
X15341600Y-5919500D02*
X15341600Y-6019500D01*
X15291600Y-5969500D02*
X15391600Y-5969500D01*
X15291600Y-6173500D02*
X15391600Y-6273500D01*
X15391600Y-6173500D02*
X15291600Y-6273500D01*
X15341600Y-6173500D02*
X15341600Y-6273500D01*
X15291600Y-6223500D02*
X15391600Y-6223500D01*
X15545600Y-5919500D02*
X15645600Y-6019500D01*
X15645600Y-5919500D02*
X15545600Y-6019500D01*
X15595600Y-5919500D02*
X15595600Y-6019500D01*
X15545600Y-5969500D02*
X15645600Y-5969500D01*
X15545600Y-6173500D02*
X15645600Y-6273500D01*
X15645600Y-6173500D02*
X15545600Y-6273500D01*
X15595600Y-6173500D02*
X15595600Y-6273500D01*
X15545600Y-6223500D02*
X15645600Y-6223500D01*
X16129300Y-6077100D02*
X16229300Y-6177100D01*
X16229300Y-6077100D02*
X16129300Y-6177100D01*
X16179300Y-6077100D02*
X16179300Y-6177100D01*
X16129300Y-6127100D02*
X16229300Y-6127100D01*
X16383300Y-6077100D02*
X16483300Y-6177100D01*
X16483300Y-6077100D02*
X16383300Y-6177100D01*
X16433300Y-6077100D02*
X16433300Y-6177100D01*
X16383300Y-6127100D02*
X16483300Y-6127100D01*
D18*
X8200000Y-7653900D02*
X8310000Y-7763900D01*
X8310000Y-7653900D02*
X8200000Y-7763900D01*
X8293891Y-7747791D02*
X8293891Y-7670009D01*
X8216109Y-7670009D01*
X8216109Y-7747791D01*
X8293891Y-7747791D01*
X8200000Y-8669900D02*
X8310000Y-8779900D01*
X8310000Y-8669900D02*
X8200000Y-8779900D01*
X8293891Y-8763791D02*
X8293891Y-8686009D01*
X8216109Y-8686009D01*
X8216109Y-8763791D01*
X8293891Y-8763791D01*
X8559200Y-7849600D02*
X8669200Y-7959600D01*
X8669200Y-7849600D02*
X8559200Y-7959600D01*
X8653091Y-7943491D02*
X8653091Y-7865709D01*
X8575309Y-7865709D01*
X8575309Y-7943491D01*
X8653091Y-7943491D01*
X8559200Y-8499600D02*
X8669200Y-8609600D01*
X8669200Y-8499600D02*
X8559200Y-8609600D01*
X8653091Y-8593491D02*
X8653091Y-8515709D01*
X8575309Y-8515709D01*
X8575309Y-8593491D01*
X8653091Y-8593491D01*
X9009200Y-7849600D02*
X9119200Y-7959600D01*
X9119200Y-7849600D02*
X9009200Y-7959600D01*
X9103091Y-7943491D02*
X9103091Y-7865709D01*
X9025309Y-7865709D01*
X9025309Y-7943491D01*
X9103091Y-7943491D01*
X9009200Y-8499600D02*
X9119200Y-8609600D01*
X9119200Y-8499600D02*
X9009200Y-8609600D01*
X9103091Y-8593491D02*
X9103091Y-8515709D01*
X9025309Y-8515709D01*
X9025309Y-8593491D01*
X9103091Y-8593491D01*
X12978800Y-5550900D02*
X13088800Y-5660900D01*
X13088800Y-5550900D02*
X12978800Y-5660900D01*
X13072691Y-5644791D02*
X13072691Y-5567009D01*
X12994909Y-5567009D01*
X12994909Y-5644791D01*
X13072691Y-5644791D01*
X12978800Y-6200900D02*
X13088800Y-6310900D01*
X13088800Y-6200900D02*
X12978800Y-6310900D01*
X13072691Y-6294791D02*
X13072691Y-6217009D01*
X12994909Y-6217009D01*
X12994909Y-6294791D01*
X13072691Y-6294791D01*
X13428800Y-5550900D02*
X13538800Y-5660900D01*
X13538800Y-5550900D02*
X13428800Y-5660900D01*
X13522691Y-5644791D02*
X13522691Y-5567009D01*
X13444909Y-5567009D01*
X13444909Y-5644791D01*
X13522691Y-5644791D01*
X13428800Y-6200900D02*
X13538800Y-6310900D01*
X13538800Y-6200900D02*
X13428800Y-6310900D01*
X13522691Y-6294791D02*
X13522691Y-6217009D01*
X13444909Y-6217009D01*
X13444909Y-6294791D01*
X13522691Y-6294791D01*
D19*
X13947400Y-5411200D02*
X14067400Y-5531200D01*
X14067400Y-5411200D02*
X13947400Y-5531200D01*
X14007400Y-5531200D02*
X14067400Y-5471200D01*
X14007400Y-5411200D01*
X13947400Y-5471200D01*
X14007400Y-5531200D01*
X14197400Y-5411200D02*
X14317400Y-5531200D01*
X14317400Y-5411200D02*
X14197400Y-5531200D01*
X14257400Y-5531200D02*
X14317400Y-5471200D01*
X14257400Y-5411200D01*
X14197400Y-5471200D01*
X14257400Y-5531200D01*
X14447400Y-5411200D02*
X14567400Y-5531200D01*
X14567400Y-5411200D02*
X14447400Y-5531200D01*
X14507400Y-5531200D02*
X14567400Y-5471200D01*
X14507400Y-5411200D01*
X14447400Y-5471200D01*
X14507400Y-5531200D01*
X14697400Y-5411200D02*
X14817400Y-5531200D01*
X14817400Y-5411200D02*
X14697400Y-5531200D01*
X14757400Y-5531200D02*
X14817400Y-5471200D01*
X14757400Y-5411200D01*
X14697400Y-5471200D01*
X14757400Y-5531200D01*
X14947400Y-5411200D02*
X15067400Y-5531200D01*
X15067400Y-5411200D02*
X14947400Y-5531200D01*
X15007400Y-5531200D02*
X15067400Y-5471200D01*
X15007400Y-5411200D01*
X14947400Y-5471200D01*
X15007400Y-5531200D01*
X15197400Y-5411200D02*
X15317400Y-5531200D01*
X15317400Y-5411200D02*
X15197400Y-5531200D01*
X15257400Y-5531200D02*
X15317400Y-5471200D01*
X15257400Y-5411200D01*
X15197400Y-5471200D01*
X15257400Y-5531200D01*
X15447400Y-5411200D02*
X15567400Y-5531200D01*
X15567400Y-5411200D02*
X15447400Y-5531200D01*
X15507400Y-5531200D02*
X15567400Y-5471200D01*
X15507400Y-5411200D01*
X15447400Y-5471200D01*
X15507400Y-5531200D01*
D20*
X8376920Y-12914960D02*
X8376920Y-13094960D01*
X8286920Y-13004960D02*
X8466920Y-13004960D01*
X8466920Y-13004960D02*
G75*
G03*
X8466920Y-13004960I-90000J0D01*
G01*
X8376920Y-13464960D02*
X8376920Y-13644960D01*
X8286920Y-13554960D02*
X8466920Y-13554960D01*
X8466920Y-13554960D02*
G75*
G03*
X8466920Y-13554960I-90000J0D01*
G01*
X9446100Y-10666900D02*
X9446100Y-10846900D01*
X9356100Y-10756900D02*
X9536100Y-10756900D01*
X9536100Y-10756900D02*
G75*
G03*
X9536100Y-10756900I-90000J0D01*
G01*
X9996100Y-10666900D02*
X9996100Y-10846900D01*
X9906100Y-10756900D02*
X10086100Y-10756900D01*
X10086100Y-10756900D02*
G75*
G03*
X10086100Y-10756900I-90000J0D01*
G01*
X16013500Y-14535320D02*
X16013500Y-14715320D01*
X15923500Y-14625320D02*
X16103500Y-14625320D01*
X16103500Y-14625320D02*
G75*
G03*
X16103500Y-14625320I-90000J0D01*
G01*
X16563500Y-14535320D02*
X16563500Y-14715320D01*
X16473500Y-14625320D02*
X16653500Y-14625320D01*
X16653500Y-14625320D02*
G75*
G03*
X16653500Y-14625320I-90000J0D01*
G01*
X17622520Y-6343660D02*
X17622520Y-6523660D01*
X17532520Y-6433660D02*
X17712520Y-6433660D01*
X17712520Y-6433660D02*
G75*
G03*
X17712520Y-6433660I-90000J0D01*
G01*
X17622520Y-6893660D02*
X17622520Y-7073660D01*
X17532520Y-6983660D02*
X17712520Y-6983660D01*
X17712520Y-6983660D02*
G75*
G03*
X17712520Y-6983660I-90000J0D01*
G01*
D12*
X8252619Y-15315476D02*
X8252619Y-15115476D01*
X8300238Y-15115476D01*
X8328809Y-15125000D01*
X8347857Y-15144048D01*
X8357381Y-15163095D01*
X8366905Y-15201190D01*
X8366905Y-15229762D01*
X8357381Y-15267857D01*
X8347857Y-15286905D01*
X8328809Y-15305952D01*
X8300238Y-15315476D01*
X8252619Y-15315476D01*
X8452619Y-15315476D02*
X8452619Y-15182143D01*
X8452619Y-15220238D02*
X8462143Y-15201190D01*
X8471667Y-15191667D01*
X8490714Y-15182143D01*
X8509762Y-15182143D01*
X8576429Y-15315476D02*
X8576429Y-15182143D01*
X8576429Y-15115476D02*
X8566905Y-15125000D01*
X8576429Y-15134524D01*
X8585952Y-15125000D01*
X8576429Y-15115476D01*
X8576429Y-15134524D01*
X8700238Y-15315476D02*
X8681190Y-15305952D01*
X8671667Y-15286905D01*
X8671667Y-15115476D01*
X8805000Y-15315476D02*
X8785952Y-15305952D01*
X8776429Y-15286905D01*
X8776429Y-15115476D01*
X9033571Y-15315476D02*
X9033571Y-15115476D01*
X9100238Y-15258333D01*
X9166905Y-15115476D01*
X9166905Y-15315476D01*
X9347857Y-15315476D02*
X9347857Y-15210714D01*
X9338333Y-15191667D01*
X9319286Y-15182143D01*
X9281190Y-15182143D01*
X9262143Y-15191667D01*
X9347857Y-15305952D02*
X9328810Y-15315476D01*
X9281190Y-15315476D01*
X9262143Y-15305952D01*
X9252619Y-15286905D01*
X9252619Y-15267857D01*
X9262143Y-15248809D01*
X9281190Y-15239286D01*
X9328810Y-15239286D01*
X9347857Y-15229762D01*
X9443095Y-15182143D02*
X9443095Y-15382143D01*
X9443095Y-15191667D02*
X9462143Y-15182143D01*
X9500238Y-15182143D01*
X9519286Y-15191667D01*
X9528810Y-15201190D01*
X9538333Y-15220238D01*
X9538333Y-15277381D01*
X9528810Y-15296428D01*
X9519286Y-15305952D01*
X9500238Y-15315476D01*
X9462143Y-15315476D01*
X9443095Y-15305952D01*
X9624048Y-15296428D02*
X9633571Y-15305952D01*
X9624048Y-15315476D01*
X9614524Y-15305952D01*
X9624048Y-15296428D01*
X9624048Y-15315476D01*
X9624048Y-15191667D02*
X9633571Y-15201190D01*
X9624048Y-15210714D01*
X9614524Y-15201190D01*
X9624048Y-15191667D01*
X9624048Y-15210714D01*
D13*
X7960000Y-15627500D02*
X7995000Y-15662500D01*
X7995000Y-15627500D02*
X7960000Y-15662500D01*
D12*
X8290714Y-15535476D02*
X8309762Y-15535476D01*
X8328809Y-15545000D01*
X8338333Y-15554524D01*
X8347857Y-15573571D01*
X8357381Y-15611667D01*
X8357381Y-15659286D01*
X8347857Y-15697381D01*
X8338333Y-15716428D01*
X8328809Y-15725952D01*
X8309762Y-15735476D01*
X8290714Y-15735476D01*
X8271667Y-15725952D01*
X8262143Y-15716428D01*
X8252619Y-15697381D01*
X8243095Y-15659286D01*
X8243095Y-15611667D01*
X8252619Y-15573571D01*
X8262143Y-15554524D01*
X8271667Y-15545000D01*
X8290714Y-15535476D01*
X8443095Y-15716428D02*
X8452619Y-15725952D01*
X8443095Y-15735476D01*
X8433571Y-15725952D01*
X8443095Y-15716428D01*
X8443095Y-15735476D01*
X8519286Y-15535476D02*
X8643095Y-15535476D01*
X8576429Y-15611667D01*
X8605000Y-15611667D01*
X8624048Y-15621190D01*
X8633571Y-15630714D01*
X8643095Y-15649762D01*
X8643095Y-15697381D01*
X8633571Y-15716428D01*
X8624048Y-15725952D01*
X8605000Y-15735476D01*
X8547857Y-15735476D01*
X8528810Y-15725952D01*
X8519286Y-15716428D01*
X8824048Y-15535476D02*
X8728810Y-15535476D01*
X8719286Y-15630714D01*
X8728810Y-15621190D01*
X8747857Y-15611667D01*
X8795476Y-15611667D01*
X8814524Y-15621190D01*
X8824048Y-15630714D01*
X8833571Y-15649762D01*
X8833571Y-15697381D01*
X8824048Y-15716428D01*
X8814524Y-15725952D01*
X8795476Y-15735476D01*
X8747857Y-15735476D01*
X8728810Y-15725952D01*
X8719286Y-15716428D01*
X8957381Y-15535476D02*
X8976429Y-15535476D01*
X8995476Y-15545000D01*
X9005000Y-15554524D01*
X9014524Y-15573571D01*
X9024048Y-15611667D01*
X9024048Y-15659286D01*
X9014524Y-15697381D01*
X9005000Y-15716428D01*
X8995476Y-15725952D01*
X8976429Y-15735476D01*
X8957381Y-15735476D01*
X8938333Y-15725952D01*
X8928810Y-15716428D01*
X8919286Y-15697381D01*
X8909762Y-15659286D01*
X8909762Y-15611667D01*
X8919286Y-15573571D01*
X8928810Y-15554524D01*
X8938333Y-15545000D01*
X8957381Y-15535476D01*
X9109762Y-15735476D02*
X9109762Y-15602143D01*
X9109762Y-15621190D02*
X9119286Y-15611667D01*
X9138333Y-15602143D01*
X9166905Y-15602143D01*
X9185952Y-15611667D01*
X9195476Y-15630714D01*
X9195476Y-15735476D01*
X9195476Y-15630714D02*
X9205000Y-15611667D01*
X9224048Y-15602143D01*
X9252619Y-15602143D01*
X9271667Y-15611667D01*
X9281190Y-15630714D01*
X9281190Y-15735476D01*
X9376429Y-15735476D02*
X9376429Y-15602143D01*
X9376429Y-15621190D02*
X9385952Y-15611667D01*
X9405000Y-15602143D01*
X9433571Y-15602143D01*
X9452619Y-15611667D01*
X9462143Y-15630714D01*
X9462143Y-15735476D01*
X9462143Y-15630714D02*
X9471667Y-15611667D01*
X9490714Y-15602143D01*
X9519286Y-15602143D01*
X9538333Y-15611667D01*
X9547857Y-15630714D01*
X9547857Y-15735476D01*
X9938333Y-15525952D02*
X9766905Y-15783095D01*
X10195476Y-15535476D02*
X10214524Y-15535476D01*
X10233571Y-15545000D01*
X10243095Y-15554524D01*
X10252619Y-15573571D01*
X10262143Y-15611667D01*
X10262143Y-15659286D01*
X10252619Y-15697381D01*
X10243095Y-15716428D01*
X10233571Y-15725952D01*
X10214524Y-15735476D01*
X10195476Y-15735476D01*
X10176429Y-15725952D01*
X10166905Y-15716428D01*
X10157381Y-15697381D01*
X10147857Y-15659286D01*
X10147857Y-15611667D01*
X10157381Y-15573571D01*
X10166905Y-15554524D01*
X10176429Y-15545000D01*
X10195476Y-15535476D01*
X10347857Y-15716428D02*
X10357381Y-15725952D01*
X10347857Y-15735476D01*
X10338333Y-15725952D01*
X10347857Y-15716428D01*
X10347857Y-15735476D01*
X10481190Y-15535476D02*
X10500238Y-15535476D01*
X10519286Y-15545000D01*
X10528810Y-15554524D01*
X10538333Y-15573571D01*
X10547857Y-15611667D01*
X10547857Y-15659286D01*
X10538333Y-15697381D01*
X10528810Y-15716428D01*
X10519286Y-15725952D01*
X10500238Y-15735476D01*
X10481190Y-15735476D01*
X10462143Y-15725952D01*
X10452619Y-15716428D01*
X10443095Y-15697381D01*
X10433571Y-15659286D01*
X10433571Y-15611667D01*
X10443095Y-15573571D01*
X10452619Y-15554524D01*
X10462143Y-15545000D01*
X10481190Y-15535476D01*
X10738333Y-15735476D02*
X10624048Y-15735476D01*
X10681190Y-15735476D02*
X10681190Y-15535476D01*
X10662143Y-15564048D01*
X10643095Y-15583095D01*
X10624048Y-15592619D01*
X10805000Y-15535476D02*
X10928810Y-15535476D01*
X10862143Y-15611667D01*
X10890714Y-15611667D01*
X10909762Y-15621190D01*
X10919286Y-15630714D01*
X10928810Y-15649762D01*
X10928810Y-15697381D01*
X10919286Y-15716428D01*
X10909762Y-15725952D01*
X10890714Y-15735476D01*
X10833571Y-15735476D01*
X10814524Y-15725952D01*
X10805000Y-15716428D01*
X11043095Y-15621190D02*
X11024048Y-15611667D01*
X11014524Y-15602143D01*
X11005000Y-15583095D01*
X11005000Y-15573571D01*
X11014524Y-15554524D01*
X11024048Y-15545000D01*
X11043095Y-15535476D01*
X11081190Y-15535476D01*
X11100238Y-15545000D01*
X11109762Y-15554524D01*
X11119286Y-15573571D01*
X11119286Y-15583095D01*
X11109762Y-15602143D01*
X11100238Y-15611667D01*
X11081190Y-15621190D01*
X11043095Y-15621190D01*
X11024048Y-15630714D01*
X11014524Y-15640238D01*
X11005000Y-15659286D01*
X11005000Y-15697381D01*
X11014524Y-15716428D01*
X11024048Y-15725952D01*
X11043095Y-15735476D01*
X11081190Y-15735476D01*
X11100238Y-15725952D01*
X11109762Y-15716428D01*
X11119286Y-15697381D01*
X11119286Y-15659286D01*
X11109762Y-15640238D01*
X11100238Y-15630714D01*
X11081190Y-15621190D01*
X11195476Y-15535476D02*
X11195476Y-15573571D01*
X11271667Y-15535476D02*
X11271667Y-15573571D01*
X11566905Y-15811667D02*
X11557381Y-15802143D01*
X11538333Y-15773571D01*
X11528809Y-15754524D01*
X11519286Y-15725952D01*
X11509762Y-15678333D01*
X11509762Y-15640238D01*
X11519286Y-15592619D01*
X11528809Y-15564048D01*
X11538333Y-15545000D01*
X11557381Y-15516428D01*
X11566905Y-15506905D01*
X11652619Y-15735476D02*
X11690714Y-15735476D01*
X11709762Y-15725952D01*
X11719286Y-15716428D01*
X11738333Y-15687857D01*
X11747857Y-15649762D01*
X11747857Y-15573571D01*
X11738333Y-15554524D01*
X11728809Y-15545000D01*
X11709762Y-15535476D01*
X11671667Y-15535476D01*
X11652619Y-15545000D01*
X11643095Y-15554524D01*
X11633571Y-15573571D01*
X11633571Y-15621190D01*
X11643095Y-15640238D01*
X11652619Y-15649762D01*
X11671667Y-15659286D01*
X11709762Y-15659286D01*
X11728809Y-15649762D01*
X11738333Y-15640238D01*
X11747857Y-15621190D01*
X11985952Y-15735476D02*
X11985952Y-15535476D01*
X12071667Y-15735476D02*
X12071667Y-15630714D01*
X12062143Y-15611667D01*
X12043095Y-15602143D01*
X12014524Y-15602143D01*
X11995476Y-15611667D01*
X11985952Y-15621190D01*
X12195476Y-15735476D02*
X12176428Y-15725952D01*
X12166905Y-15716428D01*
X12157381Y-15697381D01*
X12157381Y-15640238D01*
X12166905Y-15621190D01*
X12176428Y-15611667D01*
X12195476Y-15602143D01*
X12224048Y-15602143D01*
X12243095Y-15611667D01*
X12252619Y-15621190D01*
X12262143Y-15640238D01*
X12262143Y-15697381D01*
X12252619Y-15716428D01*
X12243095Y-15725952D01*
X12224048Y-15735476D01*
X12195476Y-15735476D01*
X12376428Y-15735476D02*
X12357381Y-15725952D01*
X12347857Y-15706905D01*
X12347857Y-15535476D01*
X12528809Y-15725952D02*
X12509762Y-15735476D01*
X12471667Y-15735476D01*
X12452619Y-15725952D01*
X12443095Y-15706905D01*
X12443095Y-15630714D01*
X12452619Y-15611667D01*
X12471667Y-15602143D01*
X12509762Y-15602143D01*
X12528809Y-15611667D01*
X12538333Y-15630714D01*
X12538333Y-15649762D01*
X12443095Y-15668809D01*
X12614524Y-15725952D02*
X12633571Y-15735476D01*
X12671667Y-15735476D01*
X12690714Y-15725952D01*
X12700238Y-15706905D01*
X12700238Y-15697381D01*
X12690714Y-15678333D01*
X12671667Y-15668809D01*
X12643095Y-15668809D01*
X12624048Y-15659286D01*
X12614524Y-15640238D01*
X12614524Y-15630714D01*
X12624048Y-15611667D01*
X12643095Y-15602143D01*
X12671667Y-15602143D01*
X12690714Y-15611667D01*
X12766905Y-15811667D02*
X12776428Y-15802143D01*
X12795476Y-15773571D01*
X12805000Y-15754524D01*
X12814524Y-15725952D01*
X12824048Y-15678333D01*
X12824048Y-15640238D01*
X12814524Y-15592619D01*
X12805000Y-15564048D01*
X12795476Y-15545000D01*
X12776428Y-15516428D01*
X12766905Y-15506905D01*
D14*
X7995000Y-15909000D02*
G75*
G03*
X7995000Y-15909000I-20000J0D01*
G01*
D12*
X8290714Y-15799476D02*
X8309762Y-15799476D01*
X8328809Y-15809000D01*
X8338333Y-15818524D01*
X8347857Y-15837571D01*
X8357381Y-15875667D01*
X8357381Y-15923286D01*
X8347857Y-15961381D01*
X8338333Y-15980428D01*
X8328809Y-15989952D01*
X8309762Y-15999476D01*
X8290714Y-15999476D01*
X8271667Y-15989952D01*
X8262143Y-15980428D01*
X8252619Y-15961381D01*
X8243095Y-15923286D01*
X8243095Y-15875667D01*
X8252619Y-15837571D01*
X8262143Y-15818524D01*
X8271667Y-15809000D01*
X8290714Y-15799476D01*
X8443095Y-15980428D02*
X8452619Y-15989952D01*
X8443095Y-15999476D01*
X8433571Y-15989952D01*
X8443095Y-15980428D01*
X8443095Y-15999476D01*
X8624048Y-15866143D02*
X8624048Y-15999476D01*
X8576429Y-15789952D02*
X8528810Y-15932809D01*
X8652619Y-15932809D01*
X8766905Y-15799476D02*
X8785952Y-15799476D01*
X8805000Y-15809000D01*
X8814524Y-15818524D01*
X8824048Y-15837571D01*
X8833571Y-15875667D01*
X8833571Y-15923286D01*
X8824048Y-15961381D01*
X8814524Y-15980428D01*
X8805000Y-15989952D01*
X8785952Y-15999476D01*
X8766905Y-15999476D01*
X8747857Y-15989952D01*
X8738333Y-15980428D01*
X8728810Y-15961381D01*
X8719286Y-15923286D01*
X8719286Y-15875667D01*
X8728810Y-15837571D01*
X8738333Y-15818524D01*
X8747857Y-15809000D01*
X8766905Y-15799476D01*
X8957381Y-15799476D02*
X8976429Y-15799476D01*
X8995476Y-15809000D01*
X9005000Y-15818524D01*
X9014524Y-15837571D01*
X9024048Y-15875667D01*
X9024048Y-15923286D01*
X9014524Y-15961381D01*
X9005000Y-15980428D01*
X8995476Y-15989952D01*
X8976429Y-15999476D01*
X8957381Y-15999476D01*
X8938333Y-15989952D01*
X8928810Y-15980428D01*
X8919286Y-15961381D01*
X8909762Y-15923286D01*
X8909762Y-15875667D01*
X8919286Y-15837571D01*
X8928810Y-15818524D01*
X8938333Y-15809000D01*
X8957381Y-15799476D01*
X9109762Y-15999476D02*
X9109762Y-15866143D01*
X9109762Y-15885190D02*
X9119286Y-15875667D01*
X9138333Y-15866143D01*
X9166905Y-15866143D01*
X9185952Y-15875667D01*
X9195476Y-15894714D01*
X9195476Y-15999476D01*
X9195476Y-15894714D02*
X9205000Y-15875667D01*
X9224048Y-15866143D01*
X9252619Y-15866143D01*
X9271667Y-15875667D01*
X9281190Y-15894714D01*
X9281190Y-15999476D01*
X9376429Y-15999476D02*
X9376429Y-15866143D01*
X9376429Y-15885190D02*
X9385952Y-15875667D01*
X9405000Y-15866143D01*
X9433571Y-15866143D01*
X9452619Y-15875667D01*
X9462143Y-15894714D01*
X9462143Y-15999476D01*
X9462143Y-15894714D02*
X9471667Y-15875667D01*
X9490714Y-15866143D01*
X9519286Y-15866143D01*
X9538333Y-15875667D01*
X9547857Y-15894714D01*
X9547857Y-15999476D01*
X9938333Y-15789952D02*
X9766905Y-16047095D01*
X10195476Y-15799476D02*
X10214524Y-15799476D01*
X10233571Y-15809000D01*
X10243095Y-15818524D01*
X10252619Y-15837571D01*
X10262143Y-15875667D01*
X10262143Y-15923286D01*
X10252619Y-15961381D01*
X10243095Y-15980428D01*
X10233571Y-15989952D01*
X10214524Y-15999476D01*
X10195476Y-15999476D01*
X10176429Y-15989952D01*
X10166905Y-15980428D01*
X10157381Y-15961381D01*
X10147857Y-15923286D01*
X10147857Y-15875667D01*
X10157381Y-15837571D01*
X10166905Y-15818524D01*
X10176429Y-15809000D01*
X10195476Y-15799476D01*
X10347857Y-15980428D02*
X10357381Y-15989952D01*
X10347857Y-15999476D01*
X10338333Y-15989952D01*
X10347857Y-15980428D01*
X10347857Y-15999476D01*
X10481190Y-15799476D02*
X10500238Y-15799476D01*
X10519286Y-15809000D01*
X10528810Y-15818524D01*
X10538333Y-15837571D01*
X10547857Y-15875667D01*
X10547857Y-15923286D01*
X10538333Y-15961381D01*
X10528810Y-15980428D01*
X10519286Y-15989952D01*
X10500238Y-15999476D01*
X10481190Y-15999476D01*
X10462143Y-15989952D01*
X10452619Y-15980428D01*
X10443095Y-15961381D01*
X10433571Y-15923286D01*
X10433571Y-15875667D01*
X10443095Y-15837571D01*
X10452619Y-15818524D01*
X10462143Y-15809000D01*
X10481190Y-15799476D01*
X10738333Y-15999476D02*
X10624048Y-15999476D01*
X10681190Y-15999476D02*
X10681190Y-15799476D01*
X10662143Y-15828048D01*
X10643095Y-15847095D01*
X10624048Y-15856619D01*
X10919286Y-15799476D02*
X10824048Y-15799476D01*
X10814524Y-15894714D01*
X10824048Y-15885190D01*
X10843095Y-15875667D01*
X10890714Y-15875667D01*
X10909762Y-15885190D01*
X10919286Y-15894714D01*
X10928810Y-15913762D01*
X10928810Y-15961381D01*
X10919286Y-15980428D01*
X10909762Y-15989952D01*
X10890714Y-15999476D01*
X10843095Y-15999476D01*
X10824048Y-15989952D01*
X10814524Y-15980428D01*
X10995476Y-15799476D02*
X11128810Y-15799476D01*
X11043095Y-15999476D01*
X11195476Y-15799476D02*
X11195476Y-15837571D01*
X11271667Y-15799476D02*
X11271667Y-15837571D01*
X11566905Y-16075667D02*
X11557381Y-16066143D01*
X11538333Y-16037571D01*
X11528809Y-16018524D01*
X11519286Y-15989952D01*
X11509762Y-15942333D01*
X11509762Y-15904238D01*
X11519286Y-15856619D01*
X11528809Y-15828048D01*
X11538333Y-15809000D01*
X11557381Y-15780428D01*
X11566905Y-15770905D01*
X11633571Y-15818524D02*
X11643095Y-15809000D01*
X11662143Y-15799476D01*
X11709762Y-15799476D01*
X11728809Y-15809000D01*
X11738333Y-15818524D01*
X11747857Y-15837571D01*
X11747857Y-15856619D01*
X11738333Y-15885190D01*
X11624048Y-15999476D01*
X11747857Y-15999476D01*
X11919286Y-15799476D02*
X11881190Y-15799476D01*
X11862143Y-15809000D01*
X11852619Y-15818524D01*
X11833571Y-15847095D01*
X11824048Y-15885190D01*
X11824048Y-15961381D01*
X11833571Y-15980428D01*
X11843095Y-15989952D01*
X11862143Y-15999476D01*
X11900238Y-15999476D01*
X11919286Y-15989952D01*
X11928809Y-15980428D01*
X11938333Y-15961381D01*
X11938333Y-15913762D01*
X11928809Y-15894714D01*
X11919286Y-15885190D01*
X11900238Y-15875667D01*
X11862143Y-15875667D01*
X11843095Y-15885190D01*
X11833571Y-15894714D01*
X11824048Y-15913762D01*
X12176428Y-15999476D02*
X12176428Y-15799476D01*
X12262143Y-15999476D02*
X12262143Y-15894714D01*
X12252619Y-15875667D01*
X12233571Y-15866143D01*
X12205000Y-15866143D01*
X12185952Y-15875667D01*
X12176428Y-15885190D01*
X12385952Y-15999476D02*
X12366905Y-15989952D01*
X12357381Y-15980428D01*
X12347857Y-15961381D01*
X12347857Y-15904238D01*
X12357381Y-15885190D01*
X12366905Y-15875667D01*
X12385952Y-15866143D01*
X12414524Y-15866143D01*
X12433571Y-15875667D01*
X12443095Y-15885190D01*
X12452619Y-15904238D01*
X12452619Y-15961381D01*
X12443095Y-15980428D01*
X12433571Y-15989952D01*
X12414524Y-15999476D01*
X12385952Y-15999476D01*
X12566905Y-15999476D02*
X12547857Y-15989952D01*
X12538333Y-15970905D01*
X12538333Y-15799476D01*
X12719286Y-15989952D02*
X12700238Y-15999476D01*
X12662143Y-15999476D01*
X12643095Y-15989952D01*
X12633571Y-15970905D01*
X12633571Y-15894714D01*
X12643095Y-15875667D01*
X12662143Y-15866143D01*
X12700238Y-15866143D01*
X12719286Y-15875667D01*
X12728809Y-15894714D01*
X12728809Y-15913762D01*
X12633571Y-15932809D01*
X12805000Y-15989952D02*
X12824048Y-15999476D01*
X12862143Y-15999476D01*
X12881190Y-15989952D01*
X12890714Y-15970905D01*
X12890714Y-15961381D01*
X12881190Y-15942333D01*
X12862143Y-15932809D01*
X12833571Y-15932809D01*
X12814524Y-15923286D01*
X12805000Y-15904238D01*
X12805000Y-15894714D01*
X12814524Y-15875667D01*
X12833571Y-15866143D01*
X12862143Y-15866143D01*
X12881190Y-15875667D01*
X12957381Y-16075667D02*
X12966905Y-16066143D01*
X12985952Y-16037571D01*
X12995476Y-16018524D01*
X13005000Y-15989952D01*
X13014524Y-15942333D01*
X13014524Y-15904238D01*
X13005000Y-15856619D01*
X12995476Y-15828048D01*
X12985952Y-15809000D01*
X12966905Y-15780428D01*
X12957381Y-15770905D01*
D14*
X7975000Y-16153000D02*
X7975000Y-16193000D01*
X7955000Y-16173000D02*
X7995000Y-16173000D01*
D12*
X8290714Y-16063476D02*
X8309762Y-16063476D01*
X8328809Y-16073000D01*
X8338333Y-16082524D01*
X8347857Y-16101571D01*
X8357381Y-16139667D01*
X8357381Y-16187286D01*
X8347857Y-16225381D01*
X8338333Y-16244428D01*
X8328809Y-16253952D01*
X8309762Y-16263476D01*
X8290714Y-16263476D01*
X8271667Y-16253952D01*
X8262143Y-16244428D01*
X8252619Y-16225381D01*
X8243095Y-16187286D01*
X8243095Y-16139667D01*
X8252619Y-16101571D01*
X8262143Y-16082524D01*
X8271667Y-16073000D01*
X8290714Y-16063476D01*
X8443095Y-16244428D02*
X8452619Y-16253952D01*
X8443095Y-16263476D01*
X8433571Y-16253952D01*
X8443095Y-16244428D01*
X8443095Y-16263476D01*
X8624048Y-16130143D02*
X8624048Y-16263476D01*
X8576429Y-16053952D02*
X8528810Y-16196809D01*
X8652619Y-16196809D01*
X8766905Y-16063476D02*
X8785952Y-16063476D01*
X8805000Y-16073000D01*
X8814524Y-16082524D01*
X8824048Y-16101571D01*
X8833571Y-16139667D01*
X8833571Y-16187286D01*
X8824048Y-16225381D01*
X8814524Y-16244428D01*
X8805000Y-16253952D01*
X8785952Y-16263476D01*
X8766905Y-16263476D01*
X8747857Y-16253952D01*
X8738333Y-16244428D01*
X8728810Y-16225381D01*
X8719286Y-16187286D01*
X8719286Y-16139667D01*
X8728810Y-16101571D01*
X8738333Y-16082524D01*
X8747857Y-16073000D01*
X8766905Y-16063476D01*
X8957381Y-16063476D02*
X8976429Y-16063476D01*
X8995476Y-16073000D01*
X9005000Y-16082524D01*
X9014524Y-16101571D01*
X9024048Y-16139667D01*
X9024048Y-16187286D01*
X9014524Y-16225381D01*
X9005000Y-16244428D01*
X8995476Y-16253952D01*
X8976429Y-16263476D01*
X8957381Y-16263476D01*
X8938333Y-16253952D01*
X8928810Y-16244428D01*
X8919286Y-16225381D01*
X8909762Y-16187286D01*
X8909762Y-16139667D01*
X8919286Y-16101571D01*
X8928810Y-16082524D01*
X8938333Y-16073000D01*
X8957381Y-16063476D01*
X9109762Y-16263476D02*
X9109762Y-16130143D01*
X9109762Y-16149190D02*
X9119286Y-16139667D01*
X9138333Y-16130143D01*
X9166905Y-16130143D01*
X9185952Y-16139667D01*
X9195476Y-16158714D01*
X9195476Y-16263476D01*
X9195476Y-16158714D02*
X9205000Y-16139667D01*
X9224048Y-16130143D01*
X9252619Y-16130143D01*
X9271667Y-16139667D01*
X9281190Y-16158714D01*
X9281190Y-16263476D01*
X9376429Y-16263476D02*
X9376429Y-16130143D01*
X9376429Y-16149190D02*
X9385952Y-16139667D01*
X9405000Y-16130143D01*
X9433571Y-16130143D01*
X9452619Y-16139667D01*
X9462143Y-16158714D01*
X9462143Y-16263476D01*
X9462143Y-16158714D02*
X9471667Y-16139667D01*
X9490714Y-16130143D01*
X9519286Y-16130143D01*
X9538333Y-16139667D01*
X9547857Y-16158714D01*
X9547857Y-16263476D01*
X9938333Y-16053952D02*
X9766905Y-16311095D01*
X10195476Y-16063476D02*
X10214524Y-16063476D01*
X10233571Y-16073000D01*
X10243095Y-16082524D01*
X10252619Y-16101571D01*
X10262143Y-16139667D01*
X10262143Y-16187286D01*
X10252619Y-16225381D01*
X10243095Y-16244428D01*
X10233571Y-16253952D01*
X10214524Y-16263476D01*
X10195476Y-16263476D01*
X10176429Y-16253952D01*
X10166905Y-16244428D01*
X10157381Y-16225381D01*
X10147857Y-16187286D01*
X10147857Y-16139667D01*
X10157381Y-16101571D01*
X10166905Y-16082524D01*
X10176429Y-16073000D01*
X10195476Y-16063476D01*
X10347857Y-16244428D02*
X10357381Y-16253952D01*
X10347857Y-16263476D01*
X10338333Y-16253952D01*
X10347857Y-16244428D01*
X10347857Y-16263476D01*
X10481190Y-16063476D02*
X10500238Y-16063476D01*
X10519286Y-16073000D01*
X10528810Y-16082524D01*
X10538333Y-16101571D01*
X10547857Y-16139667D01*
X10547857Y-16187286D01*
X10538333Y-16225381D01*
X10528810Y-16244428D01*
X10519286Y-16253952D01*
X10500238Y-16263476D01*
X10481190Y-16263476D01*
X10462143Y-16253952D01*
X10452619Y-16244428D01*
X10443095Y-16225381D01*
X10433571Y-16187286D01*
X10433571Y-16139667D01*
X10443095Y-16101571D01*
X10452619Y-16082524D01*
X10462143Y-16073000D01*
X10481190Y-16063476D01*
X10738333Y-16263476D02*
X10624048Y-16263476D01*
X10681190Y-16263476D02*
X10681190Y-16063476D01*
X10662143Y-16092048D01*
X10643095Y-16111095D01*
X10624048Y-16120619D01*
X10919286Y-16063476D02*
X10824048Y-16063476D01*
X10814524Y-16158714D01*
X10824048Y-16149190D01*
X10843095Y-16139667D01*
X10890714Y-16139667D01*
X10909762Y-16149190D01*
X10919286Y-16158714D01*
X10928810Y-16177762D01*
X10928810Y-16225381D01*
X10919286Y-16244428D01*
X10909762Y-16253952D01*
X10890714Y-16263476D01*
X10843095Y-16263476D01*
X10824048Y-16253952D01*
X10814524Y-16244428D01*
X10995476Y-16063476D02*
X11128810Y-16063476D01*
X11043095Y-16263476D01*
X11195476Y-16063476D02*
X11195476Y-16101571D01*
X11271667Y-16063476D02*
X11271667Y-16101571D01*
X11566905Y-16339667D02*
X11557381Y-16330143D01*
X11538333Y-16301571D01*
X11528809Y-16282524D01*
X11519286Y-16253952D01*
X11509762Y-16206333D01*
X11509762Y-16168238D01*
X11519286Y-16120619D01*
X11528809Y-16092048D01*
X11538333Y-16073000D01*
X11557381Y-16044428D01*
X11566905Y-16034905D01*
X11747857Y-16263476D02*
X11633571Y-16263476D01*
X11690714Y-16263476D02*
X11690714Y-16063476D01*
X11671667Y-16092048D01*
X11652619Y-16111095D01*
X11633571Y-16120619D01*
X11919286Y-16063476D02*
X11881190Y-16063476D01*
X11862143Y-16073000D01*
X11852619Y-16082524D01*
X11833571Y-16111095D01*
X11824048Y-16149190D01*
X11824048Y-16225381D01*
X11833571Y-16244428D01*
X11843095Y-16253952D01*
X11862143Y-16263476D01*
X11900238Y-16263476D01*
X11919286Y-16253952D01*
X11928809Y-16244428D01*
X11938333Y-16225381D01*
X11938333Y-16177762D01*
X11928809Y-16158714D01*
X11919286Y-16149190D01*
X11900238Y-16139667D01*
X11862143Y-16139667D01*
X11843095Y-16149190D01*
X11833571Y-16158714D01*
X11824048Y-16177762D01*
X12176428Y-16263476D02*
X12176428Y-16063476D01*
X12262143Y-16263476D02*
X12262143Y-16158714D01*
X12252619Y-16139667D01*
X12233571Y-16130143D01*
X12205000Y-16130143D01*
X12185952Y-16139667D01*
X12176428Y-16149190D01*
X12385952Y-16263476D02*
X12366905Y-16253952D01*
X12357381Y-16244428D01*
X12347857Y-16225381D01*
X12347857Y-16168238D01*
X12357381Y-16149190D01*
X12366905Y-16139667D01*
X12385952Y-16130143D01*
X12414524Y-16130143D01*
X12433571Y-16139667D01*
X12443095Y-16149190D01*
X12452619Y-16168238D01*
X12452619Y-16225381D01*
X12443095Y-16244428D01*
X12433571Y-16253952D01*
X12414524Y-16263476D01*
X12385952Y-16263476D01*
X12566905Y-16263476D02*
X12547857Y-16253952D01*
X12538333Y-16234905D01*
X12538333Y-16063476D01*
X12719286Y-16253952D02*
X12700238Y-16263476D01*
X12662143Y-16263476D01*
X12643095Y-16253952D01*
X12633571Y-16234905D01*
X12633571Y-16158714D01*
X12643095Y-16139667D01*
X12662143Y-16130143D01*
X12700238Y-16130143D01*
X12719286Y-16139667D01*
X12728809Y-16158714D01*
X12728809Y-16177762D01*
X12633571Y-16196809D01*
X12805000Y-16253952D02*
X12824048Y-16263476D01*
X12862143Y-16263476D01*
X12881190Y-16253952D01*
X12890714Y-16234905D01*
X12890714Y-16225381D01*
X12881190Y-16206333D01*
X12862143Y-16196809D01*
X12833571Y-16196809D01*
X12814524Y-16187286D01*
X12805000Y-16168238D01*
X12805000Y-16158714D01*
X12814524Y-16139667D01*
X12833571Y-16130143D01*
X12862143Y-16130143D01*
X12881190Y-16139667D01*
X12957381Y-16339667D02*
X12966905Y-16330143D01*
X12985952Y-16301571D01*
X12995476Y-16282524D01*
X13005000Y-16253952D01*
X13014524Y-16206333D01*
X13014524Y-16168238D01*
X13005000Y-16120619D01*
X12995476Y-16092048D01*
X12985952Y-16073000D01*
X12966905Y-16044428D01*
X12957381Y-16034905D01*
D15*
X7986213Y-16458213D02*
X7986213Y-16415787D01*
X7943787Y-16415787D01*
X7943787Y-16458213D01*
X7986213Y-16458213D01*
D12*
X8290714Y-16327476D02*
X8309762Y-16327476D01*
X8328809Y-16337000D01*
X8338333Y-16346524D01*
X8347857Y-16365571D01*
X8357381Y-16403667D01*
X8357381Y-16451286D01*
X8347857Y-16489381D01*
X8338333Y-16508428D01*
X8328809Y-16517952D01*
X8309762Y-16527476D01*
X8290714Y-16527476D01*
X8271667Y-16517952D01*
X8262143Y-16508428D01*
X8252619Y-16489381D01*
X8243095Y-16451286D01*
X8243095Y-16403667D01*
X8252619Y-16365571D01*
X8262143Y-16346524D01*
X8271667Y-16337000D01*
X8290714Y-16327476D01*
X8443095Y-16508428D02*
X8452619Y-16517952D01*
X8443095Y-16527476D01*
X8433571Y-16517952D01*
X8443095Y-16508428D01*
X8443095Y-16527476D01*
X8624048Y-16327476D02*
X8585952Y-16327476D01*
X8566905Y-16337000D01*
X8557381Y-16346524D01*
X8538333Y-16375095D01*
X8528810Y-16413190D01*
X8528810Y-16489381D01*
X8538333Y-16508428D01*
X8547857Y-16517952D01*
X8566905Y-16527476D01*
X8605000Y-16527476D01*
X8624048Y-16517952D01*
X8633571Y-16508428D01*
X8643095Y-16489381D01*
X8643095Y-16441762D01*
X8633571Y-16422714D01*
X8624048Y-16413190D01*
X8605000Y-16403667D01*
X8566905Y-16403667D01*
X8547857Y-16413190D01*
X8538333Y-16422714D01*
X8528810Y-16441762D01*
X8766905Y-16327476D02*
X8785952Y-16327476D01*
X8805000Y-16337000D01*
X8814524Y-16346524D01*
X8824048Y-16365571D01*
X8833571Y-16403667D01*
X8833571Y-16451286D01*
X8824048Y-16489381D01*
X8814524Y-16508428D01*
X8805000Y-16517952D01*
X8785952Y-16527476D01*
X8766905Y-16527476D01*
X8747857Y-16517952D01*
X8738333Y-16508428D01*
X8728810Y-16489381D01*
X8719286Y-16451286D01*
X8719286Y-16403667D01*
X8728810Y-16365571D01*
X8738333Y-16346524D01*
X8747857Y-16337000D01*
X8766905Y-16327476D01*
X8957381Y-16327476D02*
X8976429Y-16327476D01*
X8995476Y-16337000D01*
X9005000Y-16346524D01*
X9014524Y-16365571D01*
X9024048Y-16403667D01*
X9024048Y-16451286D01*
X9014524Y-16489381D01*
X9005000Y-16508428D01*
X8995476Y-16517952D01*
X8976429Y-16527476D01*
X8957381Y-16527476D01*
X8938333Y-16517952D01*
X8928810Y-16508428D01*
X8919286Y-16489381D01*
X8909762Y-16451286D01*
X8909762Y-16403667D01*
X8919286Y-16365571D01*
X8928810Y-16346524D01*
X8938333Y-16337000D01*
X8957381Y-16327476D01*
X9109762Y-16527476D02*
X9109762Y-16394143D01*
X9109762Y-16413190D02*
X9119286Y-16403667D01*
X9138333Y-16394143D01*
X9166905Y-16394143D01*
X9185952Y-16403667D01*
X9195476Y-16422714D01*
X9195476Y-16527476D01*
X9195476Y-16422714D02*
X9205000Y-16403667D01*
X9224048Y-16394143D01*
X9252619Y-16394143D01*
X9271667Y-16403667D01*
X9281190Y-16422714D01*
X9281190Y-16527476D01*
X9376429Y-16527476D02*
X9376429Y-16394143D01*
X9376429Y-16413190D02*
X9385952Y-16403667D01*
X9405000Y-16394143D01*
X9433571Y-16394143D01*
X9452619Y-16403667D01*
X9462143Y-16422714D01*
X9462143Y-16527476D01*
X9462143Y-16422714D02*
X9471667Y-16403667D01*
X9490714Y-16394143D01*
X9519286Y-16394143D01*
X9538333Y-16403667D01*
X9547857Y-16422714D01*
X9547857Y-16527476D01*
X9938333Y-16317952D02*
X9766905Y-16575095D01*
X10195476Y-16327476D02*
X10214524Y-16327476D01*
X10233571Y-16337000D01*
X10243095Y-16346524D01*
X10252619Y-16365571D01*
X10262143Y-16403667D01*
X10262143Y-16451286D01*
X10252619Y-16489381D01*
X10243095Y-16508428D01*
X10233571Y-16517952D01*
X10214524Y-16527476D01*
X10195476Y-16527476D01*
X10176429Y-16517952D01*
X10166905Y-16508428D01*
X10157381Y-16489381D01*
X10147857Y-16451286D01*
X10147857Y-16403667D01*
X10157381Y-16365571D01*
X10166905Y-16346524D01*
X10176429Y-16337000D01*
X10195476Y-16327476D01*
X10347857Y-16508428D02*
X10357381Y-16517952D01*
X10347857Y-16527476D01*
X10338333Y-16517952D01*
X10347857Y-16508428D01*
X10347857Y-16527476D01*
X10481190Y-16327476D02*
X10500238Y-16327476D01*
X10519286Y-16337000D01*
X10528810Y-16346524D01*
X10538333Y-16365571D01*
X10547857Y-16403667D01*
X10547857Y-16451286D01*
X10538333Y-16489381D01*
X10528810Y-16508428D01*
X10519286Y-16517952D01*
X10500238Y-16527476D01*
X10481190Y-16527476D01*
X10462143Y-16517952D01*
X10452619Y-16508428D01*
X10443095Y-16489381D01*
X10433571Y-16451286D01*
X10433571Y-16403667D01*
X10443095Y-16365571D01*
X10452619Y-16346524D01*
X10462143Y-16337000D01*
X10481190Y-16327476D01*
X10624048Y-16346524D02*
X10633571Y-16337000D01*
X10652619Y-16327476D01*
X10700238Y-16327476D01*
X10719286Y-16337000D01*
X10728810Y-16346524D01*
X10738333Y-16365571D01*
X10738333Y-16384619D01*
X10728810Y-16413190D01*
X10614524Y-16527476D01*
X10738333Y-16527476D01*
X10805000Y-16327476D02*
X10928810Y-16327476D01*
X10862143Y-16403667D01*
X10890714Y-16403667D01*
X10909762Y-16413190D01*
X10919286Y-16422714D01*
X10928810Y-16441762D01*
X10928810Y-16489381D01*
X10919286Y-16508428D01*
X10909762Y-16517952D01*
X10890714Y-16527476D01*
X10833571Y-16527476D01*
X10814524Y-16517952D01*
X10805000Y-16508428D01*
X11100238Y-16327476D02*
X11062143Y-16327476D01*
X11043095Y-16337000D01*
X11033571Y-16346524D01*
X11014524Y-16375095D01*
X11005000Y-16413190D01*
X11005000Y-16489381D01*
X11014524Y-16508428D01*
X11024048Y-16517952D01*
X11043095Y-16527476D01*
X11081190Y-16527476D01*
X11100238Y-16517952D01*
X11109762Y-16508428D01*
X11119286Y-16489381D01*
X11119286Y-16441762D01*
X11109762Y-16422714D01*
X11100238Y-16413190D01*
X11081190Y-16403667D01*
X11043095Y-16403667D01*
X11024048Y-16413190D01*
X11014524Y-16422714D01*
X11005000Y-16441762D01*
X11195476Y-16327476D02*
X11195476Y-16365571D01*
X11271667Y-16327476D02*
X11271667Y-16365571D01*
X11566905Y-16603667D02*
X11557381Y-16594143D01*
X11538333Y-16565571D01*
X11528809Y-16546524D01*
X11519286Y-16517952D01*
X11509762Y-16470333D01*
X11509762Y-16432238D01*
X11519286Y-16384619D01*
X11528809Y-16356048D01*
X11538333Y-16337000D01*
X11557381Y-16308428D01*
X11566905Y-16298905D01*
X11681190Y-16327476D02*
X11700238Y-16327476D01*
X11719286Y-16337000D01*
X11728809Y-16346524D01*
X11738333Y-16365571D01*
X11747857Y-16403667D01*
X11747857Y-16451286D01*
X11738333Y-16489381D01*
X11728809Y-16508428D01*
X11719286Y-16517952D01*
X11700238Y-16527476D01*
X11681190Y-16527476D01*
X11662143Y-16517952D01*
X11652619Y-16508428D01*
X11643095Y-16489381D01*
X11633571Y-16451286D01*
X11633571Y-16403667D01*
X11643095Y-16365571D01*
X11652619Y-16346524D01*
X11662143Y-16337000D01*
X11681190Y-16327476D01*
X11985952Y-16527476D02*
X11985952Y-16327476D01*
X12071667Y-16527476D02*
X12071667Y-16422714D01*
X12062143Y-16403667D01*
X12043095Y-16394143D01*
X12014524Y-16394143D01*
X11995476Y-16403667D01*
X11985952Y-16413190D01*
X12195476Y-16527476D02*
X12176428Y-16517952D01*
X12166905Y-16508428D01*
X12157381Y-16489381D01*
X12157381Y-16432238D01*
X12166905Y-16413190D01*
X12176428Y-16403667D01*
X12195476Y-16394143D01*
X12224048Y-16394143D01*
X12243095Y-16403667D01*
X12252619Y-16413190D01*
X12262143Y-16432238D01*
X12262143Y-16489381D01*
X12252619Y-16508428D01*
X12243095Y-16517952D01*
X12224048Y-16527476D01*
X12195476Y-16527476D01*
X12376428Y-16527476D02*
X12357381Y-16517952D01*
X12347857Y-16498905D01*
X12347857Y-16327476D01*
X12528809Y-16517952D02*
X12509762Y-16527476D01*
X12471667Y-16527476D01*
X12452619Y-16517952D01*
X12443095Y-16498905D01*
X12443095Y-16422714D01*
X12452619Y-16403667D01*
X12471667Y-16394143D01*
X12509762Y-16394143D01*
X12528809Y-16403667D01*
X12538333Y-16422714D01*
X12538333Y-16441762D01*
X12443095Y-16460809D01*
X12614524Y-16517952D02*
X12633571Y-16527476D01*
X12671667Y-16527476D01*
X12690714Y-16517952D01*
X12700238Y-16498905D01*
X12700238Y-16489381D01*
X12690714Y-16470333D01*
X12671667Y-16460809D01*
X12643095Y-16460809D01*
X12624048Y-16451286D01*
X12614524Y-16432238D01*
X12614524Y-16422714D01*
X12624048Y-16403667D01*
X12643095Y-16394143D01*
X12671667Y-16394143D01*
X12690714Y-16403667D01*
X12938333Y-16451286D02*
X13090714Y-16451286D01*
X13014524Y-16527476D02*
X13014524Y-16375095D01*
X13424048Y-16394143D02*
X13424048Y-16527476D01*
X13376428Y-16317952D02*
X13328809Y-16460809D01*
X13452619Y-16460809D01*
X13671667Y-16517952D02*
X13690714Y-16527476D01*
X13728809Y-16527476D01*
X13747857Y-16517952D01*
X13757381Y-16498905D01*
X13757381Y-16489381D01*
X13747857Y-16470333D01*
X13728809Y-16460809D01*
X13700238Y-16460809D01*
X13681190Y-16451286D01*
X13671667Y-16432238D01*
X13671667Y-16422714D01*
X13681190Y-16403667D01*
X13700238Y-16394143D01*
X13728809Y-16394143D01*
X13747857Y-16403667D01*
X13871667Y-16527476D02*
X13852619Y-16517952D01*
X13843095Y-16498905D01*
X13843095Y-16327476D01*
X13976428Y-16527476D02*
X13957381Y-16517952D01*
X13947857Y-16508428D01*
X13938333Y-16489381D01*
X13938333Y-16432238D01*
X13947857Y-16413190D01*
X13957381Y-16403667D01*
X13976428Y-16394143D01*
X14005000Y-16394143D01*
X14024048Y-16403667D01*
X14033571Y-16413190D01*
X14043095Y-16432238D01*
X14043095Y-16489381D01*
X14033571Y-16508428D01*
X14024048Y-16517952D01*
X14005000Y-16527476D01*
X13976428Y-16527476D01*
X14100238Y-16394143D02*
X14176428Y-16394143D01*
X14128809Y-16327476D02*
X14128809Y-16498905D01*
X14138333Y-16517952D01*
X14157381Y-16527476D01*
X14176428Y-16527476D01*
X14233571Y-16517952D02*
X14252619Y-16527476D01*
X14290714Y-16527476D01*
X14309762Y-16517952D01*
X14319286Y-16498905D01*
X14319286Y-16489381D01*
X14309762Y-16470333D01*
X14290714Y-16460809D01*
X14262143Y-16460809D01*
X14243095Y-16451286D01*
X14233571Y-16432238D01*
X14233571Y-16422714D01*
X14243095Y-16403667D01*
X14262143Y-16394143D01*
X14290714Y-16394143D01*
X14309762Y-16403667D01*
X14385952Y-16603667D02*
X14395476Y-16594143D01*
X14414524Y-16565571D01*
X14424048Y-16546524D01*
X14433571Y-16517952D01*
X14443095Y-16470333D01*
X14443095Y-16432238D01*
X14433571Y-16384619D01*
X14424048Y-16356048D01*
X14414524Y-16337000D01*
X14395476Y-16308428D01*
X14385952Y-16298905D01*
D16*
X7962500Y-16733500D02*
X7995000Y-16701000D01*
X7962500Y-16668500D01*
X7930000Y-16701000D01*
X7962500Y-16733500D01*
D12*
X8290714Y-16591476D02*
X8309762Y-16591476D01*
X8328809Y-16601000D01*
X8338333Y-16610524D01*
X8347857Y-16629571D01*
X8357381Y-16667667D01*
X8357381Y-16715286D01*
X8347857Y-16753381D01*
X8338333Y-16772428D01*
X8328809Y-16781952D01*
X8309762Y-16791476D01*
X8290714Y-16791476D01*
X8271667Y-16781952D01*
X8262143Y-16772428D01*
X8252619Y-16753381D01*
X8243095Y-16715286D01*
X8243095Y-16667667D01*
X8252619Y-16629571D01*
X8262143Y-16610524D01*
X8271667Y-16601000D01*
X8290714Y-16591476D01*
X8443095Y-16772428D02*
X8452619Y-16781952D01*
X8443095Y-16791476D01*
X8433571Y-16781952D01*
X8443095Y-16772428D01*
X8443095Y-16791476D01*
X8624048Y-16591476D02*
X8585952Y-16591476D01*
X8566905Y-16601000D01*
X8557381Y-16610524D01*
X8538333Y-16639095D01*
X8528810Y-16677190D01*
X8528810Y-16753381D01*
X8538333Y-16772428D01*
X8547857Y-16781952D01*
X8566905Y-16791476D01*
X8605000Y-16791476D01*
X8624048Y-16781952D01*
X8633571Y-16772428D01*
X8643095Y-16753381D01*
X8643095Y-16705762D01*
X8633571Y-16686714D01*
X8624048Y-16677190D01*
X8605000Y-16667667D01*
X8566905Y-16667667D01*
X8547857Y-16677190D01*
X8538333Y-16686714D01*
X8528810Y-16705762D01*
X8824048Y-16591476D02*
X8728810Y-16591476D01*
X8719286Y-16686714D01*
X8728810Y-16677190D01*
X8747857Y-16667667D01*
X8795476Y-16667667D01*
X8814524Y-16677190D01*
X8824048Y-16686714D01*
X8833571Y-16705762D01*
X8833571Y-16753381D01*
X8824048Y-16772428D01*
X8814524Y-16781952D01*
X8795476Y-16791476D01*
X8747857Y-16791476D01*
X8728810Y-16781952D01*
X8719286Y-16772428D01*
X8957381Y-16591476D02*
X8976429Y-16591476D01*
X8995476Y-16601000D01*
X9005000Y-16610524D01*
X9014524Y-16629571D01*
X9024048Y-16667667D01*
X9024048Y-16715286D01*
X9014524Y-16753381D01*
X9005000Y-16772428D01*
X8995476Y-16781952D01*
X8976429Y-16791476D01*
X8957381Y-16791476D01*
X8938333Y-16781952D01*
X8928810Y-16772428D01*
X8919286Y-16753381D01*
X8909762Y-16715286D01*
X8909762Y-16667667D01*
X8919286Y-16629571D01*
X8928810Y-16610524D01*
X8938333Y-16601000D01*
X8957381Y-16591476D01*
X9109762Y-16791476D02*
X9109762Y-16658143D01*
X9109762Y-16677190D02*
X9119286Y-16667667D01*
X9138333Y-16658143D01*
X9166905Y-16658143D01*
X9185952Y-16667667D01*
X9195476Y-16686714D01*
X9195476Y-16791476D01*
X9195476Y-16686714D02*
X9205000Y-16667667D01*
X9224048Y-16658143D01*
X9252619Y-16658143D01*
X9271667Y-16667667D01*
X9281190Y-16686714D01*
X9281190Y-16791476D01*
X9376429Y-16791476D02*
X9376429Y-16658143D01*
X9376429Y-16677190D02*
X9385952Y-16667667D01*
X9405000Y-16658143D01*
X9433571Y-16658143D01*
X9452619Y-16667667D01*
X9462143Y-16686714D01*
X9462143Y-16791476D01*
X9462143Y-16686714D02*
X9471667Y-16667667D01*
X9490714Y-16658143D01*
X9519286Y-16658143D01*
X9538333Y-16667667D01*
X9547857Y-16686714D01*
X9547857Y-16791476D01*
X9938333Y-16581952D02*
X9766905Y-16839095D01*
X10195476Y-16591476D02*
X10214524Y-16591476D01*
X10233571Y-16601000D01*
X10243095Y-16610524D01*
X10252619Y-16629571D01*
X10262143Y-16667667D01*
X10262143Y-16715286D01*
X10252619Y-16753381D01*
X10243095Y-16772428D01*
X10233571Y-16781952D01*
X10214524Y-16791476D01*
X10195476Y-16791476D01*
X10176429Y-16781952D01*
X10166905Y-16772428D01*
X10157381Y-16753381D01*
X10147857Y-16715286D01*
X10147857Y-16667667D01*
X10157381Y-16629571D01*
X10166905Y-16610524D01*
X10176429Y-16601000D01*
X10195476Y-16591476D01*
X10347857Y-16772428D02*
X10357381Y-16781952D01*
X10347857Y-16791476D01*
X10338333Y-16781952D01*
X10347857Y-16772428D01*
X10347857Y-16791476D01*
X10481190Y-16591476D02*
X10500238Y-16591476D01*
X10519286Y-16601000D01*
X10528810Y-16610524D01*
X10538333Y-16629571D01*
X10547857Y-16667667D01*
X10547857Y-16715286D01*
X10538333Y-16753381D01*
X10528810Y-16772428D01*
X10519286Y-16781952D01*
X10500238Y-16791476D01*
X10481190Y-16791476D01*
X10462143Y-16781952D01*
X10452619Y-16772428D01*
X10443095Y-16753381D01*
X10433571Y-16715286D01*
X10433571Y-16667667D01*
X10443095Y-16629571D01*
X10452619Y-16610524D01*
X10462143Y-16601000D01*
X10481190Y-16591476D01*
X10624048Y-16610524D02*
X10633571Y-16601000D01*
X10652619Y-16591476D01*
X10700238Y-16591476D01*
X10719286Y-16601000D01*
X10728810Y-16610524D01*
X10738333Y-16629571D01*
X10738333Y-16648619D01*
X10728810Y-16677190D01*
X10614524Y-16791476D01*
X10738333Y-16791476D01*
X10919286Y-16591476D02*
X10824048Y-16591476D01*
X10814524Y-16686714D01*
X10824048Y-16677190D01*
X10843095Y-16667667D01*
X10890714Y-16667667D01*
X10909762Y-16677190D01*
X10919286Y-16686714D01*
X10928810Y-16705762D01*
X10928810Y-16753381D01*
X10919286Y-16772428D01*
X10909762Y-16781952D01*
X10890714Y-16791476D01*
X10843095Y-16791476D01*
X10824048Y-16781952D01*
X10814524Y-16772428D01*
X11100238Y-16591476D02*
X11062143Y-16591476D01*
X11043095Y-16601000D01*
X11033571Y-16610524D01*
X11014524Y-16639095D01*
X11005000Y-16677190D01*
X11005000Y-16753381D01*
X11014524Y-16772428D01*
X11024048Y-16781952D01*
X11043095Y-16791476D01*
X11081190Y-16791476D01*
X11100238Y-16781952D01*
X11109762Y-16772428D01*
X11119286Y-16753381D01*
X11119286Y-16705762D01*
X11109762Y-16686714D01*
X11100238Y-16677190D01*
X11081190Y-16667667D01*
X11043095Y-16667667D01*
X11024048Y-16677190D01*
X11014524Y-16686714D01*
X11005000Y-16705762D01*
X11195476Y-16591476D02*
X11195476Y-16629571D01*
X11271667Y-16591476D02*
X11271667Y-16629571D01*
X11566905Y-16867667D02*
X11557381Y-16858143D01*
X11538333Y-16829571D01*
X11528809Y-16810524D01*
X11519286Y-16781952D01*
X11509762Y-16734333D01*
X11509762Y-16696238D01*
X11519286Y-16648619D01*
X11528809Y-16620048D01*
X11538333Y-16601000D01*
X11557381Y-16572428D01*
X11566905Y-16562905D01*
X11728809Y-16591476D02*
X11690714Y-16591476D01*
X11671667Y-16601000D01*
X11662143Y-16610524D01*
X11643095Y-16639095D01*
X11633571Y-16677190D01*
X11633571Y-16753381D01*
X11643095Y-16772428D01*
X11652619Y-16781952D01*
X11671667Y-16791476D01*
X11709762Y-16791476D01*
X11728809Y-16781952D01*
X11738333Y-16772428D01*
X11747857Y-16753381D01*
X11747857Y-16705762D01*
X11738333Y-16686714D01*
X11728809Y-16677190D01*
X11709762Y-16667667D01*
X11671667Y-16667667D01*
X11652619Y-16677190D01*
X11643095Y-16686714D01*
X11633571Y-16705762D01*
X11985952Y-16791476D02*
X11985952Y-16591476D01*
X12071667Y-16791476D02*
X12071667Y-16686714D01*
X12062143Y-16667667D01*
X12043095Y-16658143D01*
X12014524Y-16658143D01*
X11995476Y-16667667D01*
X11985952Y-16677190D01*
X12195476Y-16791476D02*
X12176428Y-16781952D01*
X12166905Y-16772428D01*
X12157381Y-16753381D01*
X12157381Y-16696238D01*
X12166905Y-16677190D01*
X12176428Y-16667667D01*
X12195476Y-16658143D01*
X12224048Y-16658143D01*
X12243095Y-16667667D01*
X12252619Y-16677190D01*
X12262143Y-16696238D01*
X12262143Y-16753381D01*
X12252619Y-16772428D01*
X12243095Y-16781952D01*
X12224048Y-16791476D01*
X12195476Y-16791476D01*
X12376428Y-16791476D02*
X12357381Y-16781952D01*
X12347857Y-16762905D01*
X12347857Y-16591476D01*
X12528809Y-16781952D02*
X12509762Y-16791476D01*
X12471667Y-16791476D01*
X12452619Y-16781952D01*
X12443095Y-16762905D01*
X12443095Y-16686714D01*
X12452619Y-16667667D01*
X12471667Y-16658143D01*
X12509762Y-16658143D01*
X12528809Y-16667667D01*
X12538333Y-16686714D01*
X12538333Y-16705762D01*
X12443095Y-16724809D01*
X12614524Y-16781952D02*
X12633571Y-16791476D01*
X12671667Y-16791476D01*
X12690714Y-16781952D01*
X12700238Y-16762905D01*
X12700238Y-16753381D01*
X12690714Y-16734333D01*
X12671667Y-16724809D01*
X12643095Y-16724809D01*
X12624048Y-16715286D01*
X12614524Y-16696238D01*
X12614524Y-16686714D01*
X12624048Y-16667667D01*
X12643095Y-16658143D01*
X12671667Y-16658143D01*
X12690714Y-16667667D01*
X12766905Y-16867667D02*
X12776428Y-16858143D01*
X12795476Y-16829571D01*
X12805000Y-16810524D01*
X12814524Y-16781952D01*
X12824048Y-16734333D01*
X12824048Y-16696238D01*
X12814524Y-16648619D01*
X12805000Y-16620048D01*
X12795476Y-16601000D01*
X12776428Y-16572428D01*
X12766905Y-16562905D01*
D17*
X7915000Y-16925000D02*
X7995000Y-17005000D01*
X7995000Y-16925000D02*
X7915000Y-17005000D01*
X7995000Y-16965000D02*
G75*
G03*
X7995000Y-16965000I-40000J0D01*
G01*
D12*
X8290714Y-16855476D02*
X8309762Y-16855476D01*
X8328809Y-16865000D01*
X8338333Y-16874524D01*
X8347857Y-16893571D01*
X8357381Y-16931667D01*
X8357381Y-16979286D01*
X8347857Y-17017381D01*
X8338333Y-17036429D01*
X8328809Y-17045952D01*
X8309762Y-17055476D01*
X8290714Y-17055476D01*
X8271667Y-17045952D01*
X8262143Y-17036429D01*
X8252619Y-17017381D01*
X8243095Y-16979286D01*
X8243095Y-16931667D01*
X8252619Y-16893571D01*
X8262143Y-16874524D01*
X8271667Y-16865000D01*
X8290714Y-16855476D01*
X8443095Y-17036429D02*
X8452619Y-17045952D01*
X8443095Y-17055476D01*
X8433571Y-17045952D01*
X8443095Y-17036429D01*
X8443095Y-17055476D01*
X8566905Y-16941190D02*
X8547857Y-16931667D01*
X8538333Y-16922143D01*
X8528810Y-16903095D01*
X8528810Y-16893571D01*
X8538333Y-16874524D01*
X8547857Y-16865000D01*
X8566905Y-16855476D01*
X8605000Y-16855476D01*
X8624048Y-16865000D01*
X8633571Y-16874524D01*
X8643095Y-16893571D01*
X8643095Y-16903095D01*
X8633571Y-16922143D01*
X8624048Y-16931667D01*
X8605000Y-16941190D01*
X8566905Y-16941190D01*
X8547857Y-16950714D01*
X8538333Y-16960238D01*
X8528810Y-16979286D01*
X8528810Y-17017381D01*
X8538333Y-17036429D01*
X8547857Y-17045952D01*
X8566905Y-17055476D01*
X8605000Y-17055476D01*
X8624048Y-17045952D01*
X8633571Y-17036429D01*
X8643095Y-17017381D01*
X8643095Y-16979286D01*
X8633571Y-16960238D01*
X8624048Y-16950714D01*
X8605000Y-16941190D01*
X8766905Y-16855476D02*
X8785952Y-16855476D01*
X8805000Y-16865000D01*
X8814524Y-16874524D01*
X8824048Y-16893571D01*
X8833571Y-16931667D01*
X8833571Y-16979286D01*
X8824048Y-17017381D01*
X8814524Y-17036429D01*
X8805000Y-17045952D01*
X8785952Y-17055476D01*
X8766905Y-17055476D01*
X8747857Y-17045952D01*
X8738333Y-17036429D01*
X8728810Y-17017381D01*
X8719286Y-16979286D01*
X8719286Y-16931667D01*
X8728810Y-16893571D01*
X8738333Y-16874524D01*
X8747857Y-16865000D01*
X8766905Y-16855476D01*
X8957381Y-16855476D02*
X8976429Y-16855476D01*
X8995476Y-16865000D01*
X9005000Y-16874524D01*
X9014524Y-16893571D01*
X9024048Y-16931667D01*
X9024048Y-16979286D01*
X9014524Y-17017381D01*
X9005000Y-17036429D01*
X8995476Y-17045952D01*
X8976429Y-17055476D01*
X8957381Y-17055476D01*
X8938333Y-17045952D01*
X8928810Y-17036429D01*
X8919286Y-17017381D01*
X8909762Y-16979286D01*
X8909762Y-16931667D01*
X8919286Y-16893571D01*
X8928810Y-16874524D01*
X8938333Y-16865000D01*
X8957381Y-16855476D01*
X9109762Y-17055476D02*
X9109762Y-16922143D01*
X9109762Y-16941190D02*
X9119286Y-16931667D01*
X9138333Y-16922143D01*
X9166905Y-16922143D01*
X9185952Y-16931667D01*
X9195476Y-16950714D01*
X9195476Y-17055476D01*
X9195476Y-16950714D02*
X9205000Y-16931667D01*
X9224048Y-16922143D01*
X9252619Y-16922143D01*
X9271667Y-16931667D01*
X9281190Y-16950714D01*
X9281190Y-17055476D01*
X9376429Y-17055476D02*
X9376429Y-16922143D01*
X9376429Y-16941190D02*
X9385952Y-16931667D01*
X9405000Y-16922143D01*
X9433571Y-16922143D01*
X9452619Y-16931667D01*
X9462143Y-16950714D01*
X9462143Y-17055476D01*
X9462143Y-16950714D02*
X9471667Y-16931667D01*
X9490714Y-16922143D01*
X9519286Y-16922143D01*
X9538333Y-16931667D01*
X9547857Y-16950714D01*
X9547857Y-17055476D01*
X9938333Y-16845952D02*
X9766905Y-17103095D01*
X10195476Y-16855476D02*
X10214524Y-16855476D01*
X10233571Y-16865000D01*
X10243095Y-16874524D01*
X10252619Y-16893571D01*
X10262143Y-16931667D01*
X10262143Y-16979286D01*
X10252619Y-17017381D01*
X10243095Y-17036429D01*
X10233571Y-17045952D01*
X10214524Y-17055476D01*
X10195476Y-17055476D01*
X10176429Y-17045952D01*
X10166905Y-17036429D01*
X10157381Y-17017381D01*
X10147857Y-16979286D01*
X10147857Y-16931667D01*
X10157381Y-16893571D01*
X10166905Y-16874524D01*
X10176429Y-16865000D01*
X10195476Y-16855476D01*
X10347857Y-17036429D02*
X10357381Y-17045952D01*
X10347857Y-17055476D01*
X10338333Y-17045952D01*
X10347857Y-17036429D01*
X10347857Y-17055476D01*
X10481190Y-16855476D02*
X10500238Y-16855476D01*
X10519286Y-16865000D01*
X10528810Y-16874524D01*
X10538333Y-16893571D01*
X10547857Y-16931667D01*
X10547857Y-16979286D01*
X10538333Y-17017381D01*
X10528810Y-17036429D01*
X10519286Y-17045952D01*
X10500238Y-17055476D01*
X10481190Y-17055476D01*
X10462143Y-17045952D01*
X10452619Y-17036429D01*
X10443095Y-17017381D01*
X10433571Y-16979286D01*
X10433571Y-16931667D01*
X10443095Y-16893571D01*
X10452619Y-16874524D01*
X10462143Y-16865000D01*
X10481190Y-16855476D01*
X10614524Y-16855476D02*
X10738333Y-16855476D01*
X10671667Y-16931667D01*
X10700238Y-16931667D01*
X10719286Y-16941190D01*
X10728810Y-16950714D01*
X10738333Y-16969762D01*
X10738333Y-17017381D01*
X10728810Y-17036429D01*
X10719286Y-17045952D01*
X10700238Y-17055476D01*
X10643095Y-17055476D01*
X10624048Y-17045952D01*
X10614524Y-17036429D01*
X10928810Y-17055476D02*
X10814524Y-17055476D01*
X10871667Y-17055476D02*
X10871667Y-16855476D01*
X10852619Y-16884048D01*
X10833571Y-16903095D01*
X10814524Y-16912619D01*
X11109762Y-16855476D02*
X11014524Y-16855476D01*
X11005000Y-16950714D01*
X11014524Y-16941190D01*
X11033571Y-16931667D01*
X11081190Y-16931667D01*
X11100238Y-16941190D01*
X11109762Y-16950714D01*
X11119286Y-16969762D01*
X11119286Y-17017381D01*
X11109762Y-17036429D01*
X11100238Y-17045952D01*
X11081190Y-17055476D01*
X11033571Y-17055476D01*
X11014524Y-17045952D01*
X11005000Y-17036429D01*
X11195476Y-16855476D02*
X11195476Y-16893571D01*
X11271667Y-16855476D02*
X11271667Y-16893571D01*
X11566905Y-17131667D02*
X11557381Y-17122143D01*
X11538333Y-17093571D01*
X11528809Y-17074524D01*
X11519286Y-17045952D01*
X11509762Y-16998333D01*
X11509762Y-16960238D01*
X11519286Y-16912619D01*
X11528809Y-16884048D01*
X11538333Y-16865000D01*
X11557381Y-16836429D01*
X11566905Y-16826905D01*
X11633571Y-16874524D02*
X11643095Y-16865000D01*
X11662143Y-16855476D01*
X11709762Y-16855476D01*
X11728809Y-16865000D01*
X11738333Y-16874524D01*
X11747857Y-16893571D01*
X11747857Y-16912619D01*
X11738333Y-16941190D01*
X11624048Y-17055476D01*
X11747857Y-17055476D01*
X11985952Y-17055476D02*
X11985952Y-16855476D01*
X12071667Y-17055476D02*
X12071667Y-16950714D01*
X12062143Y-16931667D01*
X12043095Y-16922143D01*
X12014524Y-16922143D01*
X11995476Y-16931667D01*
X11985952Y-16941190D01*
X12195476Y-17055476D02*
X12176428Y-17045952D01*
X12166905Y-17036429D01*
X12157381Y-17017381D01*
X12157381Y-16960238D01*
X12166905Y-16941190D01*
X12176428Y-16931667D01*
X12195476Y-16922143D01*
X12224048Y-16922143D01*
X12243095Y-16931667D01*
X12252619Y-16941190D01*
X12262143Y-16960238D01*
X12262143Y-17017381D01*
X12252619Y-17036429D01*
X12243095Y-17045952D01*
X12224048Y-17055476D01*
X12195476Y-17055476D01*
X12376428Y-17055476D02*
X12357381Y-17045952D01*
X12347857Y-17026905D01*
X12347857Y-16855476D01*
X12528809Y-17045952D02*
X12509762Y-17055476D01*
X12471667Y-17055476D01*
X12452619Y-17045952D01*
X12443095Y-17026905D01*
X12443095Y-16950714D01*
X12452619Y-16931667D01*
X12471667Y-16922143D01*
X12509762Y-16922143D01*
X12528809Y-16931667D01*
X12538333Y-16950714D01*
X12538333Y-16969762D01*
X12443095Y-16988810D01*
X12614524Y-17045952D02*
X12633571Y-17055476D01*
X12671667Y-17055476D01*
X12690714Y-17045952D01*
X12700238Y-17026905D01*
X12700238Y-17017381D01*
X12690714Y-16998333D01*
X12671667Y-16988810D01*
X12643095Y-16988810D01*
X12624048Y-16979286D01*
X12614524Y-16960238D01*
X12614524Y-16950714D01*
X12624048Y-16931667D01*
X12643095Y-16922143D01*
X12671667Y-16922143D01*
X12690714Y-16931667D01*
X12766905Y-17131667D02*
X12776428Y-17122143D01*
X12795476Y-17093571D01*
X12805000Y-17074524D01*
X12814524Y-17045952D01*
X12824048Y-16998333D01*
X12824048Y-16960238D01*
X12814524Y-16912619D01*
X12805000Y-16884048D01*
X12795476Y-16865000D01*
X12776428Y-16836429D01*
X12766905Y-16826905D01*
D11*
X7895000Y-17179000D02*
X7995000Y-17279000D01*
X7995000Y-17179000D02*
X7895000Y-17279000D01*
X7945000Y-17179000D02*
X7945000Y-17279000D01*
X7895000Y-17229000D02*
X7995000Y-17229000D01*
D12*
X8357381Y-17319476D02*
X8243095Y-17319476D01*
X8300238Y-17319476D02*
X8300238Y-17119476D01*
X8281190Y-17148048D01*
X8262143Y-17167095D01*
X8243095Y-17176619D01*
X8443095Y-17300429D02*
X8452619Y-17309952D01*
X8443095Y-17319476D01*
X8433571Y-17309952D01*
X8443095Y-17300429D01*
X8443095Y-17319476D01*
X8576429Y-17119476D02*
X8595476Y-17119476D01*
X8614524Y-17129000D01*
X8624048Y-17138524D01*
X8633571Y-17157571D01*
X8643095Y-17195667D01*
X8643095Y-17243286D01*
X8633571Y-17281381D01*
X8624048Y-17300429D01*
X8614524Y-17309952D01*
X8595476Y-17319476D01*
X8576429Y-17319476D01*
X8557381Y-17309952D01*
X8547857Y-17300429D01*
X8538333Y-17281381D01*
X8528810Y-17243286D01*
X8528810Y-17195667D01*
X8538333Y-17157571D01*
X8547857Y-17138524D01*
X8557381Y-17129000D01*
X8576429Y-17119476D01*
X8766905Y-17119476D02*
X8785952Y-17119476D01*
X8805000Y-17129000D01*
X8814524Y-17138524D01*
X8824048Y-17157571D01*
X8833571Y-17195667D01*
X8833571Y-17243286D01*
X8824048Y-17281381D01*
X8814524Y-17300429D01*
X8805000Y-17309952D01*
X8785952Y-17319476D01*
X8766905Y-17319476D01*
X8747857Y-17309952D01*
X8738333Y-17300429D01*
X8728810Y-17281381D01*
X8719286Y-17243286D01*
X8719286Y-17195667D01*
X8728810Y-17157571D01*
X8738333Y-17138524D01*
X8747857Y-17129000D01*
X8766905Y-17119476D01*
X8957381Y-17119476D02*
X8976429Y-17119476D01*
X8995476Y-17129000D01*
X9005000Y-17138524D01*
X9014524Y-17157571D01*
X9024048Y-17195667D01*
X9024048Y-17243286D01*
X9014524Y-17281381D01*
X9005000Y-17300429D01*
X8995476Y-17309952D01*
X8976429Y-17319476D01*
X8957381Y-17319476D01*
X8938333Y-17309952D01*
X8928810Y-17300429D01*
X8919286Y-17281381D01*
X8909762Y-17243286D01*
X8909762Y-17195667D01*
X8919286Y-17157571D01*
X8928810Y-17138524D01*
X8938333Y-17129000D01*
X8957381Y-17119476D01*
X9109762Y-17319476D02*
X9109762Y-17186143D01*
X9109762Y-17205190D02*
X9119286Y-17195667D01*
X9138333Y-17186143D01*
X9166905Y-17186143D01*
X9185952Y-17195667D01*
X9195476Y-17214714D01*
X9195476Y-17319476D01*
X9195476Y-17214714D02*
X9205000Y-17195667D01*
X9224048Y-17186143D01*
X9252619Y-17186143D01*
X9271667Y-17195667D01*
X9281190Y-17214714D01*
X9281190Y-17319476D01*
X9376429Y-17319476D02*
X9376429Y-17186143D01*
X9376429Y-17205190D02*
X9385952Y-17195667D01*
X9405000Y-17186143D01*
X9433571Y-17186143D01*
X9452619Y-17195667D01*
X9462143Y-17214714D01*
X9462143Y-17319476D01*
X9462143Y-17214714D02*
X9471667Y-17195667D01*
X9490714Y-17186143D01*
X9519286Y-17186143D01*
X9538333Y-17195667D01*
X9547857Y-17214714D01*
X9547857Y-17319476D01*
X9938333Y-17109952D02*
X9766905Y-17367095D01*
X10195476Y-17119476D02*
X10214524Y-17119476D01*
X10233571Y-17129000D01*
X10243095Y-17138524D01*
X10252619Y-17157571D01*
X10262143Y-17195667D01*
X10262143Y-17243286D01*
X10252619Y-17281381D01*
X10243095Y-17300429D01*
X10233571Y-17309952D01*
X10214524Y-17319476D01*
X10195476Y-17319476D01*
X10176429Y-17309952D01*
X10166905Y-17300429D01*
X10157381Y-17281381D01*
X10147857Y-17243286D01*
X10147857Y-17195667D01*
X10157381Y-17157571D01*
X10166905Y-17138524D01*
X10176429Y-17129000D01*
X10195476Y-17119476D01*
X10347857Y-17300429D02*
X10357381Y-17309952D01*
X10347857Y-17319476D01*
X10338333Y-17309952D01*
X10347857Y-17300429D01*
X10347857Y-17319476D01*
X10481190Y-17119476D02*
X10500238Y-17119476D01*
X10519286Y-17129000D01*
X10528810Y-17138524D01*
X10538333Y-17157571D01*
X10547857Y-17195667D01*
X10547857Y-17243286D01*
X10538333Y-17281381D01*
X10528810Y-17300429D01*
X10519286Y-17309952D01*
X10500238Y-17319476D01*
X10481190Y-17319476D01*
X10462143Y-17309952D01*
X10452619Y-17300429D01*
X10443095Y-17281381D01*
X10433571Y-17243286D01*
X10433571Y-17195667D01*
X10443095Y-17157571D01*
X10452619Y-17138524D01*
X10462143Y-17129000D01*
X10481190Y-17119476D01*
X10614524Y-17119476D02*
X10738333Y-17119476D01*
X10671667Y-17195667D01*
X10700238Y-17195667D01*
X10719286Y-17205190D01*
X10728810Y-17214714D01*
X10738333Y-17233762D01*
X10738333Y-17281381D01*
X10728810Y-17300429D01*
X10719286Y-17309952D01*
X10700238Y-17319476D01*
X10643095Y-17319476D01*
X10624048Y-17309952D01*
X10614524Y-17300429D01*
X10833571Y-17319476D02*
X10871667Y-17319476D01*
X10890714Y-17309952D01*
X10900238Y-17300429D01*
X10919286Y-17271857D01*
X10928810Y-17233762D01*
X10928810Y-17157571D01*
X10919286Y-17138524D01*
X10909762Y-17129000D01*
X10890714Y-17119476D01*
X10852619Y-17119476D01*
X10833571Y-17129000D01*
X10824048Y-17138524D01*
X10814524Y-17157571D01*
X10814524Y-17205190D01*
X10824048Y-17224238D01*
X10833571Y-17233762D01*
X10852619Y-17243286D01*
X10890714Y-17243286D01*
X10909762Y-17233762D01*
X10919286Y-17224238D01*
X10928810Y-17205190D01*
X11100238Y-17186143D02*
X11100238Y-17319476D01*
X11052619Y-17109952D02*
X11005000Y-17252810D01*
X11128810Y-17252810D01*
X11195476Y-17119476D02*
X11195476Y-17157571D01*
X11271667Y-17119476D02*
X11271667Y-17157571D01*
X11566905Y-17395667D02*
X11557381Y-17386143D01*
X11538333Y-17357571D01*
X11528809Y-17338524D01*
X11519286Y-17309952D01*
X11509762Y-17262333D01*
X11509762Y-17224238D01*
X11519286Y-17176619D01*
X11528809Y-17148048D01*
X11538333Y-17129000D01*
X11557381Y-17100429D01*
X11566905Y-17090905D01*
X11747857Y-17319476D02*
X11633571Y-17319476D01*
X11690714Y-17319476D02*
X11690714Y-17119476D01*
X11671667Y-17148048D01*
X11652619Y-17167095D01*
X11633571Y-17176619D01*
X11843095Y-17319476D02*
X11881190Y-17319476D01*
X11900238Y-17309952D01*
X11909762Y-17300429D01*
X11928809Y-17271857D01*
X11938333Y-17233762D01*
X11938333Y-17157571D01*
X11928809Y-17138524D01*
X11919286Y-17129000D01*
X11900238Y-17119476D01*
X11862143Y-17119476D01*
X11843095Y-17129000D01*
X11833571Y-17138524D01*
X11824048Y-17157571D01*
X11824048Y-17205190D01*
X11833571Y-17224238D01*
X11843095Y-17233762D01*
X11862143Y-17243286D01*
X11900238Y-17243286D01*
X11919286Y-17233762D01*
X11928809Y-17224238D01*
X11938333Y-17205190D01*
X12176428Y-17319476D02*
X12176428Y-17119476D01*
X12262143Y-17319476D02*
X12262143Y-17214714D01*
X12252619Y-17195667D01*
X12233571Y-17186143D01*
X12205000Y-17186143D01*
X12185952Y-17195667D01*
X12176428Y-17205190D01*
X12385952Y-17319476D02*
X12366905Y-17309952D01*
X12357381Y-17300429D01*
X12347857Y-17281381D01*
X12347857Y-17224238D01*
X12357381Y-17205190D01*
X12366905Y-17195667D01*
X12385952Y-17186143D01*
X12414524Y-17186143D01*
X12433571Y-17195667D01*
X12443095Y-17205190D01*
X12452619Y-17224238D01*
X12452619Y-17281381D01*
X12443095Y-17300429D01*
X12433571Y-17309952D01*
X12414524Y-17319476D01*
X12385952Y-17319476D01*
X12566905Y-17319476D02*
X12547857Y-17309952D01*
X12538333Y-17290905D01*
X12538333Y-17119476D01*
X12719286Y-17309952D02*
X12700238Y-17319476D01*
X12662143Y-17319476D01*
X12643095Y-17309952D01*
X12633571Y-17290905D01*
X12633571Y-17214714D01*
X12643095Y-17195667D01*
X12662143Y-17186143D01*
X12700238Y-17186143D01*
X12719286Y-17195667D01*
X12728809Y-17214714D01*
X12728809Y-17233762D01*
X12633571Y-17252810D01*
X12805000Y-17309952D02*
X12824048Y-17319476D01*
X12862143Y-17319476D01*
X12881190Y-17309952D01*
X12890714Y-17290905D01*
X12890714Y-17281381D01*
X12881190Y-17262333D01*
X12862143Y-17252810D01*
X12833571Y-17252810D01*
X12814524Y-17243286D01*
X12805000Y-17224238D01*
X12805000Y-17214714D01*
X12814524Y-17195667D01*
X12833571Y-17186143D01*
X12862143Y-17186143D01*
X12881190Y-17195667D01*
X12957381Y-17395667D02*
X12966905Y-17386143D01*
X12985952Y-17357571D01*
X12995476Y-17338524D01*
X13005000Y-17309952D01*
X13014524Y-17262333D01*
X13014524Y-17224238D01*
X13005000Y-17176619D01*
X12995476Y-17148048D01*
X12985952Y-17129000D01*
X12966905Y-17100429D01*
X12957381Y-17090905D01*
D18*
X7885000Y-17438000D02*
X7995000Y-17548000D01*
X7995000Y-17438000D02*
X7885000Y-17548000D01*
X7978891Y-17531891D02*
X7978891Y-17454109D01*
X7901109Y-17454109D01*
X7901109Y-17531891D01*
X7978891Y-17531891D01*
D12*
X8357381Y-17583476D02*
X8243095Y-17583476D01*
X8300238Y-17583476D02*
X8300238Y-17383476D01*
X8281190Y-17412048D01*
X8262143Y-17431095D01*
X8243095Y-17440619D01*
X8443095Y-17564429D02*
X8452619Y-17573952D01*
X8443095Y-17583476D01*
X8433571Y-17573952D01*
X8443095Y-17564429D01*
X8443095Y-17583476D01*
X8643095Y-17583476D02*
X8528810Y-17583476D01*
X8585952Y-17583476D02*
X8585952Y-17383476D01*
X8566905Y-17412048D01*
X8547857Y-17431095D01*
X8528810Y-17440619D01*
X8766905Y-17383476D02*
X8785952Y-17383476D01*
X8805000Y-17393000D01*
X8814524Y-17402524D01*
X8824048Y-17421571D01*
X8833571Y-17459667D01*
X8833571Y-17507286D01*
X8824048Y-17545381D01*
X8814524Y-17564429D01*
X8805000Y-17573952D01*
X8785952Y-17583476D01*
X8766905Y-17583476D01*
X8747857Y-17573952D01*
X8738333Y-17564429D01*
X8728810Y-17545381D01*
X8719286Y-17507286D01*
X8719286Y-17459667D01*
X8728810Y-17421571D01*
X8738333Y-17402524D01*
X8747857Y-17393000D01*
X8766905Y-17383476D01*
X8957381Y-17383476D02*
X8976429Y-17383476D01*
X8995476Y-17393000D01*
X9005000Y-17402524D01*
X9014524Y-17421571D01*
X9024048Y-17459667D01*
X9024048Y-17507286D01*
X9014524Y-17545381D01*
X9005000Y-17564429D01*
X8995476Y-17573952D01*
X8976429Y-17583476D01*
X8957381Y-17583476D01*
X8938333Y-17573952D01*
X8928810Y-17564429D01*
X8919286Y-17545381D01*
X8909762Y-17507286D01*
X8909762Y-17459667D01*
X8919286Y-17421571D01*
X8928810Y-17402524D01*
X8938333Y-17393000D01*
X8957381Y-17383476D01*
X9109762Y-17583476D02*
X9109762Y-17450143D01*
X9109762Y-17469190D02*
X9119286Y-17459667D01*
X9138333Y-17450143D01*
X9166905Y-17450143D01*
X9185952Y-17459667D01*
X9195476Y-17478714D01*
X9195476Y-17583476D01*
X9195476Y-17478714D02*
X9205000Y-17459667D01*
X9224048Y-17450143D01*
X9252619Y-17450143D01*
X9271667Y-17459667D01*
X9281190Y-17478714D01*
X9281190Y-17583476D01*
X9376429Y-17583476D02*
X9376429Y-17450143D01*
X9376429Y-17469190D02*
X9385952Y-17459667D01*
X9405000Y-17450143D01*
X9433571Y-17450143D01*
X9452619Y-17459667D01*
X9462143Y-17478714D01*
X9462143Y-17583476D01*
X9462143Y-17478714D02*
X9471667Y-17459667D01*
X9490714Y-17450143D01*
X9519286Y-17450143D01*
X9538333Y-17459667D01*
X9547857Y-17478714D01*
X9547857Y-17583476D01*
X9938333Y-17373952D02*
X9766905Y-17631095D01*
X10195476Y-17383476D02*
X10214524Y-17383476D01*
X10233571Y-17393000D01*
X10243095Y-17402524D01*
X10252619Y-17421571D01*
X10262143Y-17459667D01*
X10262143Y-17507286D01*
X10252619Y-17545381D01*
X10243095Y-17564429D01*
X10233571Y-17573952D01*
X10214524Y-17583476D01*
X10195476Y-17583476D01*
X10176429Y-17573952D01*
X10166905Y-17564429D01*
X10157381Y-17545381D01*
X10147857Y-17507286D01*
X10147857Y-17459667D01*
X10157381Y-17421571D01*
X10166905Y-17402524D01*
X10176429Y-17393000D01*
X10195476Y-17383476D01*
X10347857Y-17564429D02*
X10357381Y-17573952D01*
X10347857Y-17583476D01*
X10338333Y-17573952D01*
X10347857Y-17564429D01*
X10347857Y-17583476D01*
X10481190Y-17383476D02*
X10500238Y-17383476D01*
X10519286Y-17393000D01*
X10528810Y-17402524D01*
X10538333Y-17421571D01*
X10547857Y-17459667D01*
X10547857Y-17507286D01*
X10538333Y-17545381D01*
X10528810Y-17564429D01*
X10519286Y-17573952D01*
X10500238Y-17583476D01*
X10481190Y-17583476D01*
X10462143Y-17573952D01*
X10452619Y-17564429D01*
X10443095Y-17545381D01*
X10433571Y-17507286D01*
X10433571Y-17459667D01*
X10443095Y-17421571D01*
X10452619Y-17402524D01*
X10462143Y-17393000D01*
X10481190Y-17383476D01*
X10719286Y-17450143D02*
X10719286Y-17583476D01*
X10671667Y-17373952D02*
X10624048Y-17516810D01*
X10747857Y-17516810D01*
X10805000Y-17383476D02*
X10928810Y-17383476D01*
X10862143Y-17459667D01*
X10890714Y-17459667D01*
X10909762Y-17469190D01*
X10919286Y-17478714D01*
X10928810Y-17497762D01*
X10928810Y-17545381D01*
X10919286Y-17564429D01*
X10909762Y-17573952D01*
X10890714Y-17583476D01*
X10833571Y-17583476D01*
X10814524Y-17573952D01*
X10805000Y-17564429D01*
X10995476Y-17383476D02*
X11119286Y-17383476D01*
X11052619Y-17459667D01*
X11081190Y-17459667D01*
X11100238Y-17469190D01*
X11109762Y-17478714D01*
X11119286Y-17497762D01*
X11119286Y-17545381D01*
X11109762Y-17564429D01*
X11100238Y-17573952D01*
X11081190Y-17583476D01*
X11024048Y-17583476D01*
X11005000Y-17573952D01*
X10995476Y-17564429D01*
X11195476Y-17383476D02*
X11195476Y-17421571D01*
X11271667Y-17383476D02*
X11271667Y-17421571D01*
X11566905Y-17659667D02*
X11557381Y-17650143D01*
X11538333Y-17621571D01*
X11528809Y-17602524D01*
X11519286Y-17573952D01*
X11509762Y-17526333D01*
X11509762Y-17488238D01*
X11519286Y-17440619D01*
X11528809Y-17412048D01*
X11538333Y-17393000D01*
X11557381Y-17364429D01*
X11566905Y-17354905D01*
X11747857Y-17583476D02*
X11633571Y-17583476D01*
X11690714Y-17583476D02*
X11690714Y-17383476D01*
X11671667Y-17412048D01*
X11652619Y-17431095D01*
X11633571Y-17440619D01*
X11871667Y-17383476D02*
X11890714Y-17383476D01*
X11909762Y-17393000D01*
X11919286Y-17402524D01*
X11928809Y-17421571D01*
X11938333Y-17459667D01*
X11938333Y-17507286D01*
X11928809Y-17545381D01*
X11919286Y-17564429D01*
X11909762Y-17573952D01*
X11890714Y-17583476D01*
X11871667Y-17583476D01*
X11852619Y-17573952D01*
X11843095Y-17564429D01*
X11833571Y-17545381D01*
X11824048Y-17507286D01*
X11824048Y-17459667D01*
X11833571Y-17421571D01*
X11843095Y-17402524D01*
X11852619Y-17393000D01*
X11871667Y-17383476D01*
X12176428Y-17583476D02*
X12176428Y-17383476D01*
X12262143Y-17583476D02*
X12262143Y-17478714D01*
X12252619Y-17459667D01*
X12233571Y-17450143D01*
X12205000Y-17450143D01*
X12185952Y-17459667D01*
X12176428Y-17469190D01*
X12385952Y-17583476D02*
X12366905Y-17573952D01*
X12357381Y-17564429D01*
X12347857Y-17545381D01*
X12347857Y-17488238D01*
X12357381Y-17469190D01*
X12366905Y-17459667D01*
X12385952Y-17450143D01*
X12414524Y-17450143D01*
X12433571Y-17459667D01*
X12443095Y-17469190D01*
X12452619Y-17488238D01*
X12452619Y-17545381D01*
X12443095Y-17564429D01*
X12433571Y-17573952D01*
X12414524Y-17583476D01*
X12385952Y-17583476D01*
X12566905Y-17583476D02*
X12547857Y-17573952D01*
X12538333Y-17554905D01*
X12538333Y-17383476D01*
X12719286Y-17573952D02*
X12700238Y-17583476D01*
X12662143Y-17583476D01*
X12643095Y-17573952D01*
X12633571Y-17554905D01*
X12633571Y-17478714D01*
X12643095Y-17459667D01*
X12662143Y-17450143D01*
X12700238Y-17450143D01*
X12719286Y-17459667D01*
X12728809Y-17478714D01*
X12728809Y-17497762D01*
X12633571Y-17516810D01*
X12805000Y-17573952D02*
X12824048Y-17583476D01*
X12862143Y-17583476D01*
X12881190Y-17573952D01*
X12890714Y-17554905D01*
X12890714Y-17545381D01*
X12881190Y-17526333D01*
X12862143Y-17516810D01*
X12833571Y-17516810D01*
X12814524Y-17507286D01*
X12805000Y-17488238D01*
X12805000Y-17478714D01*
X12814524Y-17459667D01*
X12833571Y-17450143D01*
X12862143Y-17450143D01*
X12881190Y-17459667D01*
X12957381Y-17659667D02*
X12966905Y-17650143D01*
X12985952Y-17621571D01*
X12995476Y-17602524D01*
X13005000Y-17573952D01*
X13014524Y-17526333D01*
X13014524Y-17488238D01*
X13005000Y-17440619D01*
X12995476Y-17412048D01*
X12985952Y-17393000D01*
X12966905Y-17364429D01*
X12957381Y-17354905D01*
D19*
X7875000Y-17697000D02*
X7995000Y-17817000D01*
X7995000Y-17697000D02*
X7875000Y-17817000D01*
X7935000Y-17817000D02*
X7995000Y-17757000D01*
X7935000Y-17697000D01*
X7875000Y-17757000D01*
X7935000Y-17817000D01*
D12*
X8357381Y-17847476D02*
X8243095Y-17847476D01*
X8300238Y-17847476D02*
X8300238Y-17647476D01*
X8281190Y-17676048D01*
X8262143Y-17695095D01*
X8243095Y-17704619D01*
X8443095Y-17828429D02*
X8452619Y-17837952D01*
X8443095Y-17847476D01*
X8433571Y-17837952D01*
X8443095Y-17828429D01*
X8443095Y-17847476D01*
X8528810Y-17666524D02*
X8538333Y-17657000D01*
X8557381Y-17647476D01*
X8605000Y-17647476D01*
X8624048Y-17657000D01*
X8633571Y-17666524D01*
X8643095Y-17685571D01*
X8643095Y-17704619D01*
X8633571Y-17733190D01*
X8519286Y-17847476D01*
X8643095Y-17847476D01*
X8766905Y-17647476D02*
X8785952Y-17647476D01*
X8805000Y-17657000D01*
X8814524Y-17666524D01*
X8824048Y-17685571D01*
X8833571Y-17723667D01*
X8833571Y-17771286D01*
X8824048Y-17809381D01*
X8814524Y-17828429D01*
X8805000Y-17837952D01*
X8785952Y-17847476D01*
X8766905Y-17847476D01*
X8747857Y-17837952D01*
X8738333Y-17828429D01*
X8728810Y-17809381D01*
X8719286Y-17771286D01*
X8719286Y-17723667D01*
X8728810Y-17685571D01*
X8738333Y-17666524D01*
X8747857Y-17657000D01*
X8766905Y-17647476D01*
X8957381Y-17647476D02*
X8976429Y-17647476D01*
X8995476Y-17657000D01*
X9005000Y-17666524D01*
X9014524Y-17685571D01*
X9024048Y-17723667D01*
X9024048Y-17771286D01*
X9014524Y-17809381D01*
X9005000Y-17828429D01*
X8995476Y-17837952D01*
X8976429Y-17847476D01*
X8957381Y-17847476D01*
X8938333Y-17837952D01*
X8928810Y-17828429D01*
X8919286Y-17809381D01*
X8909762Y-17771286D01*
X8909762Y-17723667D01*
X8919286Y-17685571D01*
X8928810Y-17666524D01*
X8938333Y-17657000D01*
X8957381Y-17647476D01*
X9109762Y-17847476D02*
X9109762Y-17714143D01*
X9109762Y-17733190D02*
X9119286Y-17723667D01*
X9138333Y-17714143D01*
X9166905Y-17714143D01*
X9185952Y-17723667D01*
X9195476Y-17742714D01*
X9195476Y-17847476D01*
X9195476Y-17742714D02*
X9205000Y-17723667D01*
X9224048Y-17714143D01*
X9252619Y-17714143D01*
X9271667Y-17723667D01*
X9281190Y-17742714D01*
X9281190Y-17847476D01*
X9376429Y-17847476D02*
X9376429Y-17714143D01*
X9376429Y-17733190D02*
X9385952Y-17723667D01*
X9405000Y-17714143D01*
X9433571Y-17714143D01*
X9452619Y-17723667D01*
X9462143Y-17742714D01*
X9462143Y-17847476D01*
X9462143Y-17742714D02*
X9471667Y-17723667D01*
X9490714Y-17714143D01*
X9519286Y-17714143D01*
X9538333Y-17723667D01*
X9547857Y-17742714D01*
X9547857Y-17847476D01*
X9938333Y-17637952D02*
X9766905Y-17895095D01*
X10195476Y-17647476D02*
X10214524Y-17647476D01*
X10233571Y-17657000D01*
X10243095Y-17666524D01*
X10252619Y-17685571D01*
X10262143Y-17723667D01*
X10262143Y-17771286D01*
X10252619Y-17809381D01*
X10243095Y-17828429D01*
X10233571Y-17837952D01*
X10214524Y-17847476D01*
X10195476Y-17847476D01*
X10176429Y-17837952D01*
X10166905Y-17828429D01*
X10157381Y-17809381D01*
X10147857Y-17771286D01*
X10147857Y-17723667D01*
X10157381Y-17685571D01*
X10166905Y-17666524D01*
X10176429Y-17657000D01*
X10195476Y-17647476D01*
X10347857Y-17828429D02*
X10357381Y-17837952D01*
X10347857Y-17847476D01*
X10338333Y-17837952D01*
X10347857Y-17828429D01*
X10347857Y-17847476D01*
X10481190Y-17647476D02*
X10500238Y-17647476D01*
X10519286Y-17657000D01*
X10528810Y-17666524D01*
X10538333Y-17685571D01*
X10547857Y-17723667D01*
X10547857Y-17771286D01*
X10538333Y-17809381D01*
X10528810Y-17828429D01*
X10519286Y-17837952D01*
X10500238Y-17847476D01*
X10481190Y-17847476D01*
X10462143Y-17837952D01*
X10452619Y-17828429D01*
X10443095Y-17809381D01*
X10433571Y-17771286D01*
X10433571Y-17723667D01*
X10443095Y-17685571D01*
X10452619Y-17666524D01*
X10462143Y-17657000D01*
X10481190Y-17647476D01*
X10719286Y-17714143D02*
X10719286Y-17847476D01*
X10671667Y-17637952D02*
X10624048Y-17780810D01*
X10747857Y-17780810D01*
X10805000Y-17647476D02*
X10938333Y-17647476D01*
X10852619Y-17847476D01*
X11005000Y-17666524D02*
X11014524Y-17657000D01*
X11033571Y-17647476D01*
X11081190Y-17647476D01*
X11100238Y-17657000D01*
X11109762Y-17666524D01*
X11119286Y-17685571D01*
X11119286Y-17704619D01*
X11109762Y-17733190D01*
X10995476Y-17847476D01*
X11119286Y-17847476D01*
X11195476Y-17647476D02*
X11195476Y-17685571D01*
X11271667Y-17647476D02*
X11271667Y-17685571D01*
X11566905Y-17923667D02*
X11557381Y-17914143D01*
X11538333Y-17885571D01*
X11528809Y-17866524D01*
X11519286Y-17837952D01*
X11509762Y-17790333D01*
X11509762Y-17752238D01*
X11519286Y-17704619D01*
X11528809Y-17676048D01*
X11538333Y-17657000D01*
X11557381Y-17628429D01*
X11566905Y-17618905D01*
X11624048Y-17647476D02*
X11757381Y-17647476D01*
X11671667Y-17847476D01*
X11985952Y-17847476D02*
X11985952Y-17647476D01*
X12071667Y-17847476D02*
X12071667Y-17742714D01*
X12062143Y-17723667D01*
X12043095Y-17714143D01*
X12014524Y-17714143D01*
X11995476Y-17723667D01*
X11985952Y-17733190D01*
X12195476Y-17847476D02*
X12176428Y-17837952D01*
X12166905Y-17828429D01*
X12157381Y-17809381D01*
X12157381Y-17752238D01*
X12166905Y-17733190D01*
X12176428Y-17723667D01*
X12195476Y-17714143D01*
X12224048Y-17714143D01*
X12243095Y-17723667D01*
X12252619Y-17733190D01*
X12262143Y-17752238D01*
X12262143Y-17809381D01*
X12252619Y-17828429D01*
X12243095Y-17837952D01*
X12224048Y-17847476D01*
X12195476Y-17847476D01*
X12376428Y-17847476D02*
X12357381Y-17837952D01*
X12347857Y-17818905D01*
X12347857Y-17647476D01*
X12528809Y-17837952D02*
X12509762Y-17847476D01*
X12471667Y-17847476D01*
X12452619Y-17837952D01*
X12443095Y-17818905D01*
X12443095Y-17742714D01*
X12452619Y-17723667D01*
X12471667Y-17714143D01*
X12509762Y-17714143D01*
X12528809Y-17723667D01*
X12538333Y-17742714D01*
X12538333Y-17761762D01*
X12443095Y-17780810D01*
X12614524Y-17837952D02*
X12633571Y-17847476D01*
X12671667Y-17847476D01*
X12690714Y-17837952D01*
X12700238Y-17818905D01*
X12700238Y-17809381D01*
X12690714Y-17790333D01*
X12671667Y-17780810D01*
X12643095Y-17780810D01*
X12624048Y-17771286D01*
X12614524Y-17752238D01*
X12614524Y-17742714D01*
X12624048Y-17723667D01*
X12643095Y-17714143D01*
X12671667Y-17714143D01*
X12690714Y-17723667D01*
X12766905Y-17923667D02*
X12776428Y-17914143D01*
X12795476Y-17885571D01*
X12805000Y-17866524D01*
X12814524Y-17837952D01*
X12824048Y-17790333D01*
X12824048Y-17752238D01*
X12814524Y-17704619D01*
X12805000Y-17676048D01*
X12795476Y-17657000D01*
X12776428Y-17628429D01*
X12766905Y-17618905D01*
D20*
X7905000Y-17931000D02*
X7905000Y-18111000D01*
X7815000Y-18021000D02*
X7995000Y-18021000D01*
X7995000Y-18021000D02*
G75*
G03*
X7995000Y-18021000I-90000J0D01*
G01*
D12*
X8357381Y-18111476D02*
X8243095Y-18111476D01*
X8300238Y-18111476D02*
X8300238Y-17911476D01*
X8281190Y-17940048D01*
X8262143Y-17959095D01*
X8243095Y-17968619D01*
X8443095Y-18092429D02*
X8452619Y-18101952D01*
X8443095Y-18111476D01*
X8433571Y-18101952D01*
X8443095Y-18092429D01*
X8443095Y-18111476D01*
X8566905Y-17997190D02*
X8547857Y-17987667D01*
X8538333Y-17978143D01*
X8528810Y-17959095D01*
X8528810Y-17949571D01*
X8538333Y-17930524D01*
X8547857Y-17921000D01*
X8566905Y-17911476D01*
X8605000Y-17911476D01*
X8624048Y-17921000D01*
X8633571Y-17930524D01*
X8643095Y-17949571D01*
X8643095Y-17959095D01*
X8633571Y-17978143D01*
X8624048Y-17987667D01*
X8605000Y-17997190D01*
X8566905Y-17997190D01*
X8547857Y-18006714D01*
X8538333Y-18016238D01*
X8528810Y-18035286D01*
X8528810Y-18073381D01*
X8538333Y-18092429D01*
X8547857Y-18101952D01*
X8566905Y-18111476D01*
X8605000Y-18111476D01*
X8624048Y-18101952D01*
X8633571Y-18092429D01*
X8643095Y-18073381D01*
X8643095Y-18035286D01*
X8633571Y-18016238D01*
X8624048Y-18006714D01*
X8605000Y-17997190D01*
X8766905Y-17911476D02*
X8785952Y-17911476D01*
X8805000Y-17921000D01*
X8814524Y-17930524D01*
X8824048Y-17949571D01*
X8833571Y-17987667D01*
X8833571Y-18035286D01*
X8824048Y-18073381D01*
X8814524Y-18092429D01*
X8805000Y-18101952D01*
X8785952Y-18111476D01*
X8766905Y-18111476D01*
X8747857Y-18101952D01*
X8738333Y-18092429D01*
X8728810Y-18073381D01*
X8719286Y-18035286D01*
X8719286Y-17987667D01*
X8728810Y-17949571D01*
X8738333Y-17930524D01*
X8747857Y-17921000D01*
X8766905Y-17911476D01*
X8957381Y-17911476D02*
X8976429Y-17911476D01*
X8995476Y-17921000D01*
X9005000Y-17930524D01*
X9014524Y-17949571D01*
X9024048Y-17987667D01*
X9024048Y-18035286D01*
X9014524Y-18073381D01*
X9005000Y-18092429D01*
X8995476Y-18101952D01*
X8976429Y-18111476D01*
X8957381Y-18111476D01*
X8938333Y-18101952D01*
X8928810Y-18092429D01*
X8919286Y-18073381D01*
X8909762Y-18035286D01*
X8909762Y-17987667D01*
X8919286Y-17949571D01*
X8928810Y-17930524D01*
X8938333Y-17921000D01*
X8957381Y-17911476D01*
X9109762Y-18111476D02*
X9109762Y-17978143D01*
X9109762Y-17997190D02*
X9119286Y-17987667D01*
X9138333Y-17978143D01*
X9166905Y-17978143D01*
X9185952Y-17987667D01*
X9195476Y-18006714D01*
X9195476Y-18111476D01*
X9195476Y-18006714D02*
X9205000Y-17987667D01*
X9224048Y-17978143D01*
X9252619Y-17978143D01*
X9271667Y-17987667D01*
X9281190Y-18006714D01*
X9281190Y-18111476D01*
X9376429Y-18111476D02*
X9376429Y-17978143D01*
X9376429Y-17997190D02*
X9385952Y-17987667D01*
X9405000Y-17978143D01*
X9433571Y-17978143D01*
X9452619Y-17987667D01*
X9462143Y-18006714D01*
X9462143Y-18111476D01*
X9462143Y-18006714D02*
X9471667Y-17987667D01*
X9490714Y-17978143D01*
X9519286Y-17978143D01*
X9538333Y-17987667D01*
X9547857Y-18006714D01*
X9547857Y-18111476D01*
X9938333Y-17901952D02*
X9766905Y-18159095D01*
X10195476Y-17911476D02*
X10214524Y-17911476D01*
X10233571Y-17921000D01*
X10243095Y-17930524D01*
X10252619Y-17949571D01*
X10262143Y-17987667D01*
X10262143Y-18035286D01*
X10252619Y-18073381D01*
X10243095Y-18092429D01*
X10233571Y-18101952D01*
X10214524Y-18111476D01*
X10195476Y-18111476D01*
X10176429Y-18101952D01*
X10166905Y-18092429D01*
X10157381Y-18073381D01*
X10147857Y-18035286D01*
X10147857Y-17987667D01*
X10157381Y-17949571D01*
X10166905Y-17930524D01*
X10176429Y-17921000D01*
X10195476Y-17911476D01*
X10347857Y-18092429D02*
X10357381Y-18101952D01*
X10347857Y-18111476D01*
X10338333Y-18101952D01*
X10347857Y-18092429D01*
X10347857Y-18111476D01*
X10481190Y-17911476D02*
X10500238Y-17911476D01*
X10519286Y-17921000D01*
X10528810Y-17930524D01*
X10538333Y-17949571D01*
X10547857Y-17987667D01*
X10547857Y-18035286D01*
X10538333Y-18073381D01*
X10528810Y-18092429D01*
X10519286Y-18101952D01*
X10500238Y-18111476D01*
X10481190Y-18111476D01*
X10462143Y-18101952D01*
X10452619Y-18092429D01*
X10443095Y-18073381D01*
X10433571Y-18035286D01*
X10433571Y-17987667D01*
X10443095Y-17949571D01*
X10452619Y-17930524D01*
X10462143Y-17921000D01*
X10481190Y-17911476D01*
X10614524Y-17911476D02*
X10747857Y-17911476D01*
X10662143Y-18111476D01*
X10862143Y-17911476D02*
X10881190Y-17911476D01*
X10900238Y-17921000D01*
X10909762Y-17930524D01*
X10919286Y-17949571D01*
X10928810Y-17987667D01*
X10928810Y-18035286D01*
X10919286Y-18073381D01*
X10909762Y-18092429D01*
X10900238Y-18101952D01*
X10881190Y-18111476D01*
X10862143Y-18111476D01*
X10843095Y-18101952D01*
X10833571Y-18092429D01*
X10824048Y-18073381D01*
X10814524Y-18035286D01*
X10814524Y-17987667D01*
X10824048Y-17949571D01*
X10833571Y-17930524D01*
X10843095Y-17921000D01*
X10862143Y-17911476D01*
X11024048Y-18111476D02*
X11062143Y-18111476D01*
X11081190Y-18101952D01*
X11090714Y-18092429D01*
X11109762Y-18063857D01*
X11119286Y-18025762D01*
X11119286Y-17949571D01*
X11109762Y-17930524D01*
X11100238Y-17921000D01*
X11081190Y-17911476D01*
X11043095Y-17911476D01*
X11024048Y-17921000D01*
X11014524Y-17930524D01*
X11005000Y-17949571D01*
X11005000Y-17997190D01*
X11014524Y-18016238D01*
X11024048Y-18025762D01*
X11043095Y-18035286D01*
X11081190Y-18035286D01*
X11100238Y-18025762D01*
X11109762Y-18016238D01*
X11119286Y-17997190D01*
X11195476Y-17911476D02*
X11195476Y-17949571D01*
X11271667Y-17911476D02*
X11271667Y-17949571D01*
X11566905Y-18187667D02*
X11557381Y-18178143D01*
X11538333Y-18149571D01*
X11528809Y-18130524D01*
X11519286Y-18101952D01*
X11509762Y-18054333D01*
X11509762Y-18016238D01*
X11519286Y-17968619D01*
X11528809Y-17940048D01*
X11538333Y-17921000D01*
X11557381Y-17892429D01*
X11566905Y-17882905D01*
X11671667Y-17997190D02*
X11652619Y-17987667D01*
X11643095Y-17978143D01*
X11633571Y-17959095D01*
X11633571Y-17949571D01*
X11643095Y-17930524D01*
X11652619Y-17921000D01*
X11671667Y-17911476D01*
X11709762Y-17911476D01*
X11728809Y-17921000D01*
X11738333Y-17930524D01*
X11747857Y-17949571D01*
X11747857Y-17959095D01*
X11738333Y-17978143D01*
X11728809Y-17987667D01*
X11709762Y-17997190D01*
X11671667Y-17997190D01*
X11652619Y-18006714D01*
X11643095Y-18016238D01*
X11633571Y-18035286D01*
X11633571Y-18073381D01*
X11643095Y-18092429D01*
X11652619Y-18101952D01*
X11671667Y-18111476D01*
X11709762Y-18111476D01*
X11728809Y-18101952D01*
X11738333Y-18092429D01*
X11747857Y-18073381D01*
X11747857Y-18035286D01*
X11738333Y-18016238D01*
X11728809Y-18006714D01*
X11709762Y-17997190D01*
X11985952Y-18111476D02*
X11985952Y-17911476D01*
X12071667Y-18111476D02*
X12071667Y-18006714D01*
X12062143Y-17987667D01*
X12043095Y-17978143D01*
X12014524Y-17978143D01*
X11995476Y-17987667D01*
X11985952Y-17997190D01*
X12195476Y-18111476D02*
X12176428Y-18101952D01*
X12166905Y-18092429D01*
X12157381Y-18073381D01*
X12157381Y-18016238D01*
X12166905Y-17997190D01*
X12176428Y-17987667D01*
X12195476Y-17978143D01*
X12224048Y-17978143D01*
X12243095Y-17987667D01*
X12252619Y-17997190D01*
X12262143Y-18016238D01*
X12262143Y-18073381D01*
X12252619Y-18092429D01*
X12243095Y-18101952D01*
X12224048Y-18111476D01*
X12195476Y-18111476D01*
X12376428Y-18111476D02*
X12357381Y-18101952D01*
X12347857Y-18082905D01*
X12347857Y-17911476D01*
X12528809Y-18101952D02*
X12509762Y-18111476D01*
X12471667Y-18111476D01*
X12452619Y-18101952D01*
X12443095Y-18082905D01*
X12443095Y-18006714D01*
X12452619Y-17987667D01*
X12471667Y-17978143D01*
X12509762Y-17978143D01*
X12528809Y-17987667D01*
X12538333Y-18006714D01*
X12538333Y-18025762D01*
X12443095Y-18044810D01*
X12614524Y-18101952D02*
X12633571Y-18111476D01*
X12671667Y-18111476D01*
X12690714Y-18101952D01*
X12700238Y-18082905D01*
X12700238Y-18073381D01*
X12690714Y-18054333D01*
X12671667Y-18044810D01*
X12643095Y-18044810D01*
X12624048Y-18035286D01*
X12614524Y-18016238D01*
X12614524Y-18006714D01*
X12624048Y-17987667D01*
X12643095Y-17978143D01*
X12671667Y-17978143D01*
X12690714Y-17987667D01*
X12766905Y-18187667D02*
X12776428Y-18178143D01*
X12795476Y-18149571D01*
X12805000Y-18130524D01*
X12814524Y-18101952D01*
X12824048Y-18054333D01*
X12824048Y-18016238D01*
X12814524Y-17968619D01*
X12805000Y-17940048D01*
X12795476Y-17921000D01*
X12776428Y-17892429D01*
X12766905Y-17882905D01*
M02*
