%TF.GenerationSoftware,KiCad,Pcbnew,(6.0.8)*%
%TF.CreationDate,2023-01-27T02:25:54-07:00*%
%TF.ProjectId,Panel,50616e65-6c2e-46b6-9963-61645f706362,rev?*%
%TF.SameCoordinates,Original*%
%TF.FileFunction,Drillmap*%
%TF.FilePolarity,Positive*%
%FSLAX45Y45*%
G04 Gerber Fmt 4.5, Leading zero omitted, Abs format (unit mm)*
G04 Created by KiCad (PCBNEW (6.0.8)) date 2023-01-27 02:25:54*
%MOMM*%
%LPD*%
G01*
G04 APERTURE LIST*
%ADD10C,0.352776*%
%ADD11C,0.100000*%
%ADD12C,0.200000*%
%ADD13C,0.300000*%
G04 APERTURE END LIST*
D10*
X9013090Y-13804771D02*
X9021349Y-13803722D01*
X8945953Y-14104744D02*
X8939482Y-14100143D01*
X16953371Y-5887757D02*
X16953371Y-5887757D01*
X8905978Y-14066639D02*
X8901377Y-14060169D01*
X17017608Y-5900726D02*
X17024918Y-5904031D01*
X16789193Y-13984805D02*
X16788556Y-13976425D01*
X9136961Y-5920507D02*
X9143196Y-5925406D01*
X17017558Y-13815907D02*
X17024867Y-13819212D01*
X9193237Y-13911157D02*
X9195832Y-13918825D01*
X9029730Y-14132714D02*
X9021349Y-14132077D01*
X17118329Y-13967935D02*
X17118329Y-13967935D01*
X9143196Y-5925406D02*
X9149184Y-5930593D01*
X9193237Y-14024642D02*
X9190282Y-14032136D01*
X9201350Y-6077883D02*
X9199898Y-6086010D01*
X16836667Y-14084604D02*
X16831204Y-14078873D01*
X9179359Y-6138324D02*
X9175067Y-6145020D01*
X9130491Y-13831054D02*
X9136961Y-13835655D01*
X8873193Y-6052751D02*
X8873193Y-6052751D01*
X16791694Y-6086045D02*
X16790243Y-6077918D01*
X8880612Y-6101825D02*
X8878388Y-6093994D01*
X16861086Y-13831120D02*
X16867780Y-13826828D01*
X9071481Y-5891075D02*
X9079465Y-5892917D01*
X9038222Y-5887722D02*
X9038222Y-5887722D01*
X9004963Y-6214427D02*
X8996979Y-6212584D01*
X16920112Y-6214462D02*
X16912128Y-6212620D01*
X17105431Y-6117023D02*
X17102127Y-6124333D01*
X8910877Y-13862925D02*
X8916064Y-13856937D01*
X17075529Y-5941824D02*
X17080716Y-5947812D01*
X8910877Y-6157724D02*
X8905978Y-6151490D01*
X9198055Y-13926656D02*
X9199898Y-13934640D01*
X17108386Y-6109529D02*
X17105431Y-6117023D01*
X17080716Y-5947812D02*
X17085615Y-5954047D01*
X9203251Y-6052751D02*
X9203036Y-6061243D01*
X16874689Y-13822855D02*
X16881804Y-13819212D01*
X9203251Y-6052751D02*
X9203251Y-6052751D01*
X16801310Y-6117023D02*
X16798355Y-6109529D01*
X9203251Y-13967900D02*
X9203036Y-13976392D01*
X8878388Y-14009143D02*
X8876545Y-14001159D01*
X8897085Y-5967177D02*
X8901377Y-5960481D01*
X17064274Y-13845804D02*
X17070004Y-13851267D01*
X17094443Y-14053491D02*
X17090151Y-14060185D01*
X16831204Y-13856997D02*
X16836667Y-13851267D01*
X16812233Y-6138360D02*
X16808259Y-6131449D01*
X16928239Y-6215914D02*
X16920112Y-6214462D01*
X8981479Y-5897736D02*
X8989147Y-5895141D01*
X16904296Y-5895176D02*
X16912128Y-5892952D01*
X9102459Y-5900691D02*
X9109769Y-5903995D01*
X9021349Y-13803722D02*
X9029730Y-13803084D01*
X8897085Y-13882326D02*
X8901377Y-13875630D01*
X9202399Y-13951026D02*
X9203036Y-13959407D01*
X9202399Y-13984773D02*
X9201350Y-13993032D01*
X9154915Y-13851206D02*
X9160379Y-13856937D01*
X16920083Y-13806294D02*
X16928208Y-13804843D01*
X17010114Y-5897771D02*
X17017608Y-5900726D01*
X16854617Y-13835720D02*
X16861086Y-13831120D01*
X8905978Y-5954011D02*
X8910877Y-5947777D01*
D11*
X17400000Y-15000000D02*
X18000000Y-14400000D01*
D10*
X17038891Y-13826828D02*
X17045585Y-13831120D01*
X9165566Y-6157724D02*
X9160379Y-6163712D01*
X16861086Y-14104751D02*
X16854617Y-14100151D01*
X17017558Y-14119963D02*
X17010066Y-14122917D01*
X8981479Y-13812884D02*
X8989147Y-13810289D01*
X8989147Y-13810289D02*
X8996979Y-13808065D01*
X8883207Y-5996008D02*
X8886162Y-5988514D01*
X16842397Y-13845804D02*
X16848384Y-13840618D01*
X16848397Y-5925442D02*
X16854631Y-5920542D01*
X16791694Y-6019527D02*
X16793537Y-6011543D01*
X16808255Y-14046581D02*
X16804611Y-14039467D01*
X16808255Y-13889289D02*
X16812228Y-13882380D01*
X9004963Y-14129576D02*
X8996979Y-14127733D01*
X17058345Y-5925442D02*
X17064333Y-5930629D01*
X8883207Y-13911157D02*
X8886162Y-13903663D01*
X9193237Y-5996008D02*
X9195832Y-6003676D01*
X8966675Y-5903995D02*
X8973985Y-5900691D01*
X9190282Y-6116987D02*
X9186977Y-6124298D01*
X8939482Y-6184994D02*
X8933248Y-6180095D01*
X16944845Y-13803156D02*
X16953335Y-13802941D01*
X9201350Y-13942767D02*
X9202399Y-13951026D01*
X9038222Y-13802870D02*
X9046714Y-13803084D01*
X8996979Y-6212584D02*
X8989147Y-6210360D01*
X9202399Y-6069624D02*
X9201350Y-6077883D01*
X16848384Y-14095252D02*
X16842397Y-14090067D01*
X8966675Y-6201506D02*
X8959559Y-6197862D01*
X9102459Y-6204811D02*
X9094964Y-6207766D01*
X16808259Y-5974123D02*
X16812233Y-5967213D01*
X16928239Y-5889658D02*
X16936498Y-5888609D01*
X9130491Y-14104744D02*
X9123795Y-14109037D01*
X16788556Y-6044294D02*
X16789193Y-6035913D01*
X9160379Y-5941789D02*
X9165566Y-5947777D01*
X16874708Y-6197897D02*
X16867797Y-6193923D01*
X9199898Y-14001159D02*
X9198055Y-14009143D01*
X16788341Y-6052786D02*
X16788556Y-6044294D01*
X9195832Y-13918825D02*
X9198055Y-13926656D01*
X9116884Y-6197862D02*
X9109769Y-6201506D01*
X17105363Y-14032158D02*
X17102059Y-14039467D01*
X16831213Y-5941824D02*
X16836677Y-5936093D01*
X8916064Y-14078861D02*
X8910877Y-14072873D01*
X9130491Y-6189595D02*
X9123795Y-6193888D01*
X17052111Y-5920542D02*
X17058345Y-5925442D01*
X17032034Y-5907675D02*
X17038945Y-5911649D01*
X17070064Y-6169479D02*
X17064333Y-6174944D01*
X17031981Y-14113015D02*
X17024867Y-14116659D01*
X16953335Y-14132929D02*
X16944845Y-14132714D01*
X16953371Y-6217815D02*
X16944879Y-6217600D01*
X8889466Y-13896353D02*
X8893111Y-13889237D01*
X17085551Y-13869217D02*
X17090151Y-13875685D01*
X16936466Y-14132077D02*
X16928208Y-14131028D01*
X9143196Y-14095244D02*
X9136961Y-14100143D01*
X16795761Y-6101861D02*
X16793537Y-6094029D01*
X9186977Y-5981204D02*
X9190282Y-5988514D01*
X17090151Y-13875685D02*
X17094443Y-13882380D01*
X9029730Y-6217565D02*
X9021349Y-6216928D01*
X17002399Y-14125511D02*
X16994570Y-14127734D01*
X17075467Y-14078873D02*
X17070004Y-14084604D01*
X16978462Y-13804843D02*
X16986587Y-13806294D01*
X17002399Y-13810359D02*
X17010066Y-13812953D01*
X8886162Y-5988514D02*
X8889466Y-5981204D01*
X16904271Y-14125511D02*
X16896605Y-14122917D01*
X9195832Y-6101825D02*
X9193237Y-6109493D01*
X16889134Y-6204846D02*
X16881824Y-6201541D01*
X8893111Y-5974088D02*
X8897085Y-5967177D01*
X9079465Y-5892917D02*
X9087296Y-5895141D01*
X8952648Y-6193888D02*
X8945953Y-6189595D01*
X17110981Y-6003712D02*
X17113205Y-6011543D01*
X17085615Y-6151526D02*
X17080716Y-6157760D01*
X17118400Y-6052786D02*
X17118185Y-6061279D01*
X17070064Y-5936093D02*
X17075529Y-5941824D01*
X16801310Y-5988549D02*
X16804615Y-5981239D01*
X9021349Y-5888574D02*
X9029730Y-5887936D01*
X8939482Y-14100143D02*
X8933248Y-14095244D01*
X9004963Y-13806223D02*
X9013090Y-13804771D01*
X8910877Y-14072873D02*
X8905978Y-14066639D01*
X16936498Y-6216963D02*
X16928239Y-6215914D01*
X9193237Y-6109493D02*
X9190282Y-6116987D01*
X8939482Y-5920507D02*
X8945953Y-5915906D01*
X8952648Y-14109037D02*
X8945953Y-14104744D01*
X9094964Y-13812884D02*
X9102459Y-13815839D01*
X8873407Y-6061243D02*
X8873193Y-6052751D01*
X9038222Y-6217780D02*
X9029730Y-6217565D01*
X17108317Y-13911205D02*
X17110911Y-13918871D01*
X9149184Y-6174908D02*
X9143196Y-6180095D01*
X8921529Y-14084593D02*
X8916064Y-14078861D01*
X16867797Y-6193923D02*
X16861101Y-6189631D01*
X17113205Y-6094029D02*
X17110981Y-6101861D01*
X16826026Y-5947812D02*
X16831213Y-5941824D01*
X9087296Y-5895141D02*
X9094964Y-5897736D01*
X8880612Y-6003676D02*
X8883207Y-5996008D01*
X17098415Y-14046581D02*
X17094443Y-14053491D01*
X9160379Y-6163712D02*
X9154915Y-6169444D01*
X16791693Y-13934683D02*
X16793536Y-13926700D01*
X16994614Y-6212620D02*
X16986630Y-6214462D01*
X16793537Y-6011543D02*
X16795761Y-6003712D01*
X8989147Y-6210360D02*
X8981479Y-6207766D01*
X16826018Y-14072887D02*
X16821120Y-14066654D01*
X8905978Y-6151490D02*
X8901377Y-6145020D01*
X16889134Y-5900726D02*
X16896628Y-5897771D01*
X9046714Y-5887936D02*
X9055095Y-5888574D01*
X9199898Y-13934640D02*
X9201350Y-13942767D01*
X16928208Y-14131028D02*
X16920083Y-14129577D01*
X9175067Y-14060169D02*
X9170466Y-14066639D01*
X9021349Y-14132077D02*
X9013090Y-14131027D01*
X9013090Y-5889623D02*
X9021349Y-5888574D01*
X17117477Y-13984805D02*
X17116428Y-13993062D01*
X8878388Y-13926656D02*
X8880612Y-13918825D01*
X17070004Y-13851267D02*
X17075467Y-13856997D01*
X17118329Y-13967935D02*
X17118115Y-13976425D01*
X17064274Y-14090067D02*
X17058287Y-14095252D01*
X9154915Y-14084593D02*
X9149184Y-14090057D01*
X16816526Y-5960517D02*
X16821127Y-5954047D01*
X9190282Y-13903663D02*
X9193237Y-13911157D01*
X17045585Y-13831120D02*
X17052054Y-13835720D01*
X16812233Y-5967213D02*
X16816526Y-5960517D01*
X16994614Y-5892952D02*
X17002446Y-5895176D01*
X16793536Y-13926700D02*
X16795759Y-13918871D01*
X16928208Y-13804843D02*
X16936466Y-13803793D01*
X16798355Y-5996044D02*
X16801310Y-5988549D01*
X17115047Y-6019527D02*
X17116499Y-6027654D01*
X9198055Y-6093994D02*
X9195832Y-6101825D01*
X8889466Y-5981204D02*
X8893111Y-5974088D01*
X17114977Y-14001187D02*
X17113135Y-14009170D01*
X16831204Y-14078873D02*
X16826018Y-14072887D01*
X16790243Y-6027654D02*
X16791694Y-6019527D01*
D11*
X18000000Y-5600000D02*
X18000000Y-14400000D01*
D10*
X9038222Y-5887722D02*
X9046714Y-5887936D01*
X8933248Y-5925406D02*
X8939482Y-5920507D01*
X16789193Y-6035913D02*
X16790243Y-6027654D01*
X8945953Y-5915906D02*
X8952648Y-5911614D01*
X16936498Y-5888609D02*
X16944879Y-5887972D01*
X9179359Y-14053473D02*
X9175067Y-14060169D01*
X9038222Y-6217780D02*
X9038222Y-6217780D01*
X16867797Y-5911649D02*
X16874708Y-5907675D01*
X8927260Y-5930593D02*
X8933248Y-5925406D01*
X17064333Y-6174944D02*
X17058345Y-6180130D01*
X8981479Y-14122915D02*
X8973985Y-14119960D01*
X8996979Y-5892917D02*
X9004963Y-5891075D01*
X16793537Y-6094029D02*
X16791694Y-6086045D01*
X16986587Y-13806294D02*
X16994570Y-13808136D01*
X17102059Y-13896403D02*
X17105363Y-13903712D01*
X16842397Y-14090067D02*
X16836667Y-14084604D01*
X16790242Y-13993062D02*
X16789193Y-13984805D01*
X8893111Y-13889237D02*
X8897085Y-13882326D01*
X9055095Y-6216928D02*
X9046714Y-6217565D01*
X9149184Y-5930593D02*
X9154915Y-5936058D01*
X16986630Y-5891110D02*
X16994614Y-5892952D01*
X17118400Y-6052786D02*
X17118400Y-6052786D01*
X9186977Y-13896353D02*
X9190282Y-13903663D01*
X16867780Y-14109042D02*
X16861086Y-14104751D01*
X9190282Y-5988514D02*
X9193237Y-5996008D01*
X9154915Y-6169444D02*
X9149184Y-6174908D01*
X17094508Y-6138360D02*
X17090216Y-6145055D01*
X9038222Y-14132929D02*
X9038222Y-14132929D01*
X8981479Y-6207766D02*
X8973985Y-6204811D01*
X17113135Y-13926700D02*
X17114977Y-13934683D01*
X16790243Y-6077918D02*
X16789193Y-6069659D01*
X8973985Y-5900691D02*
X8981479Y-5897736D01*
X8921529Y-5936058D02*
X8927260Y-5930593D01*
X9201350Y-6027618D02*
X9202399Y-6035877D01*
X8878388Y-6011507D02*
X8880612Y-6003676D01*
X17098415Y-13889289D02*
X17102059Y-13896403D01*
X9165566Y-5947777D02*
X9170466Y-5954011D01*
X16808259Y-6131449D02*
X16804615Y-6124333D01*
X16795759Y-13918871D02*
X16798353Y-13911205D01*
X16848397Y-6180130D02*
X16842409Y-6174944D01*
X9029730Y-13803084D02*
X9038222Y-13802870D01*
X9179359Y-13882326D02*
X9183333Y-13889237D01*
X17117477Y-13951065D02*
X17118115Y-13959444D01*
X9109769Y-14116655D02*
X9102459Y-14119960D01*
X8876545Y-6086010D02*
X8875094Y-6077883D01*
X9203251Y-13967900D02*
X9203251Y-13967900D01*
X16978503Y-6215914D02*
X16970244Y-6216963D01*
X9143196Y-13840555D02*
X9149184Y-13845742D01*
X9038222Y-14132929D02*
X9029730Y-14132714D01*
X9160379Y-14078861D02*
X9154915Y-14084593D01*
X8886162Y-6116987D02*
X8883207Y-6109493D01*
X9046714Y-13803084D02*
X9055095Y-13803722D01*
X17075467Y-13856997D02*
X17080653Y-13862984D01*
X8880612Y-14016974D02*
X8878388Y-14009143D01*
D11*
X18000000Y-5600000D02*
X17400000Y-5000000D01*
D10*
X16788341Y-13967935D02*
X16788341Y-13967935D01*
X16994570Y-13808136D02*
X17002399Y-13810359D01*
X9186977Y-6124298D02*
X9183333Y-6131413D01*
X17064333Y-5930629D02*
X17070064Y-5936093D01*
X9087296Y-14125509D02*
X9079465Y-14127733D01*
X16804615Y-5981239D02*
X16808259Y-5974123D01*
X9029730Y-5887936D02*
X9038222Y-5887722D01*
X8945953Y-6189595D02*
X8939482Y-6184994D01*
X16986630Y-6214462D02*
X16978503Y-6215914D01*
X9165566Y-14072873D02*
X9160379Y-14078861D01*
D11*
X17400000Y-15000000D02*
X8600000Y-15000000D01*
D10*
X16791693Y-14001187D02*
X16790242Y-13993062D01*
X9136961Y-14100143D02*
X9130491Y-14104744D01*
X9021349Y-6216928D02*
X9013090Y-6215878D01*
X9203036Y-6044258D02*
X9203251Y-6052751D01*
X9109769Y-5903995D02*
X9116884Y-5907640D01*
X9130491Y-5915906D02*
X9136961Y-5920507D01*
X9123795Y-13826762D02*
X9130491Y-13831054D01*
X17052111Y-6185030D02*
X17045640Y-6189631D01*
X17116428Y-13942808D02*
X17117477Y-13951065D01*
X8876545Y-14001159D02*
X8875094Y-13993032D01*
X8875094Y-6077883D02*
X8874045Y-6069624D01*
X9170466Y-5954011D02*
X9175067Y-5960481D01*
X16821127Y-5954047D02*
X16826026Y-5947812D01*
X16798353Y-14024666D02*
X16795759Y-14016999D01*
X16816526Y-6145055D02*
X16812233Y-6138360D01*
X8945953Y-13831054D02*
X8952648Y-13826762D01*
X9004963Y-5891075D02*
X9013090Y-5889623D01*
X16912128Y-5892952D02*
X16920112Y-5891110D01*
X17080716Y-6157760D02*
X17075529Y-6163748D01*
D11*
X8000000Y-14400000D02*
X8000000Y-5600000D01*
D10*
X16961863Y-5887972D02*
X16970244Y-5888609D01*
X9071481Y-14129576D02*
X9063354Y-14131027D01*
X16944879Y-5887972D02*
X16953371Y-5887757D01*
X17114977Y-13934683D02*
X17116428Y-13942808D01*
X16821120Y-14066654D02*
X16816520Y-14060185D01*
X17118115Y-13976425D02*
X17117477Y-13984805D01*
X16896628Y-6207801D02*
X16889134Y-6204846D01*
X16961826Y-14132714D02*
X16953335Y-14132929D01*
X8880612Y-13918825D02*
X8883207Y-13911157D01*
X17024867Y-14116659D02*
X17017558Y-14119963D01*
X16836667Y-13851267D02*
X16842397Y-13845804D01*
X9079465Y-14127733D02*
X9071481Y-14129576D01*
X9203251Y-6052751D02*
X9203251Y-6052751D01*
X9094964Y-6207766D02*
X9087296Y-6210360D01*
X17090151Y-14060185D02*
X17085551Y-14066654D01*
X17108317Y-14024666D02*
X17105363Y-14032158D01*
X9203036Y-13959407D02*
X9203251Y-13967900D01*
X17058287Y-14095252D02*
X17052054Y-14100151D01*
X17118185Y-6044294D02*
X17118400Y-6052786D01*
X16826026Y-6157760D02*
X16821127Y-6151526D01*
X8883207Y-14024642D02*
X8880612Y-14016974D01*
X9186977Y-14039447D02*
X9183333Y-14046562D01*
X17045640Y-6189631D02*
X17038945Y-6193923D01*
X17094443Y-13882380D02*
X17098415Y-13889289D01*
X8933248Y-14095244D02*
X8927260Y-14090057D01*
X8973985Y-13815839D02*
X8981479Y-13812884D01*
X16896605Y-13812953D02*
X16904271Y-13810359D01*
X16804615Y-6124333D02*
X16801310Y-6117023D01*
X16986587Y-14129577D02*
X16978462Y-14131028D01*
X9179359Y-5967177D02*
X9183333Y-5974088D01*
X9136961Y-13835655D02*
X9143196Y-13840555D01*
X9199898Y-6019492D02*
X9201350Y-6027618D01*
X17118115Y-13959444D02*
X17118329Y-13967935D01*
X16788556Y-6061279D02*
X16788341Y-6052786D01*
X16904271Y-13810359D02*
X16912101Y-13808136D01*
X9079465Y-6212584D02*
X9071481Y-6214427D01*
X17113205Y-6011543D02*
X17115047Y-6019527D01*
X9071481Y-6214427D02*
X9063354Y-6215878D01*
X16854631Y-6185030D02*
X16848397Y-6180130D01*
X16826018Y-13862984D02*
X16831204Y-13856997D01*
X17102127Y-5981239D02*
X17105431Y-5988549D01*
X16904296Y-6210396D02*
X16896628Y-6207801D01*
X16944879Y-6217600D02*
X16936498Y-6216963D01*
X17045585Y-14104751D02*
X17038891Y-14109042D01*
X8875094Y-13993032D02*
X8874045Y-13984773D01*
X8874045Y-6069624D02*
X8873407Y-6061243D01*
X9116884Y-14113011D02*
X9109769Y-14116655D01*
X9046714Y-14132714D02*
X9038222Y-14132929D01*
X16842409Y-5930629D02*
X16848397Y-5925442D01*
X16978462Y-14131028D02*
X16970205Y-14132077D01*
X8996979Y-13808065D02*
X9004963Y-13806223D01*
X17024918Y-6201541D02*
X17017608Y-6204846D01*
X8875094Y-6027618D02*
X8876545Y-6019492D01*
X16881804Y-14116659D02*
X16874689Y-14113015D01*
X16801307Y-13903712D02*
X16804611Y-13896403D01*
X9123795Y-6193888D02*
X9116884Y-6197862D01*
X16788556Y-13976425D02*
X16788341Y-13967935D01*
X9071481Y-13806223D02*
X9079465Y-13808065D01*
X9123795Y-14109037D02*
X9116884Y-14113011D01*
X9116884Y-13822788D02*
X9123795Y-13826762D01*
X16912101Y-14127734D02*
X16904271Y-14125511D01*
X16920112Y-5891110D02*
X16928239Y-5889658D01*
X9195832Y-6003676D02*
X9198055Y-6011507D01*
X8893111Y-14046562D02*
X8889466Y-14039447D01*
X9160379Y-13856937D02*
X9165566Y-13862925D01*
X9165566Y-13862925D02*
X9170466Y-13869160D01*
X8883207Y-6109493D02*
X8880612Y-6101825D01*
X8927260Y-14090057D02*
X8921529Y-14084593D01*
X16821120Y-13869217D02*
X16826018Y-13862984D01*
X17108386Y-5996044D02*
X17110981Y-6003712D01*
X17116499Y-6077918D02*
X17115047Y-6086045D01*
X16944845Y-14132714D02*
X16936466Y-14132077D01*
X8996979Y-14127733D02*
X8989147Y-14125509D01*
X17080653Y-13862984D02*
X17085551Y-13869217D01*
X17110911Y-13918871D02*
X17113135Y-13926700D01*
X16970205Y-13803793D02*
X16978462Y-13804843D01*
X9094964Y-14122915D02*
X9087296Y-14125509D01*
X8873193Y-6052751D02*
X8873407Y-6044258D01*
X16961826Y-13803156D02*
X16970205Y-13803793D01*
X17110911Y-14016999D02*
X17108317Y-14024666D01*
X9094964Y-5897736D02*
X9102459Y-5900691D01*
X9063354Y-5889623D02*
X9071481Y-5891075D01*
X16936466Y-13803793D02*
X16944845Y-13803156D01*
X8959559Y-5907640D02*
X8966675Y-5903995D01*
X16861101Y-6189631D02*
X16854631Y-6185030D01*
X16953335Y-13802941D02*
X16953335Y-13802941D01*
X17024918Y-5904031D02*
X17032034Y-5907675D01*
X8916064Y-5941789D02*
X8921529Y-5936058D01*
X16812228Y-14053491D02*
X16808255Y-14046581D01*
D11*
X8000000Y-14400000D02*
X8600000Y-15000000D01*
D10*
X8873407Y-13976392D02*
X8873193Y-13967900D01*
X8910877Y-5947777D02*
X8916064Y-5941789D01*
X17085551Y-14066654D02*
X17080653Y-14072887D01*
X8889466Y-6124298D02*
X8886162Y-6116987D01*
X8921529Y-13851206D02*
X8927260Y-13845742D01*
X8873193Y-13967900D02*
X8873193Y-13967900D01*
X8927260Y-6174908D02*
X8921529Y-6169444D01*
X17045640Y-5915941D02*
X17052111Y-5920542D01*
X9190282Y-14032136D02*
X9186977Y-14039447D01*
X8874045Y-13984773D02*
X8873407Y-13976392D01*
X16798353Y-13911205D02*
X16801307Y-13903712D01*
X9055095Y-14132077D02*
X9046714Y-14132714D01*
X8989147Y-5895141D02*
X8996979Y-5892917D01*
D11*
X8600000Y-5000000D02*
X17400000Y-5000000D01*
D10*
X16816520Y-14060185D02*
X16812228Y-14053491D01*
X8873193Y-13967900D02*
X8873407Y-13959407D01*
X9198055Y-6011507D02*
X9199898Y-6019492D01*
X16804611Y-14039467D02*
X16801307Y-14032158D01*
X17094508Y-5967213D02*
X17098482Y-5974123D01*
X17038945Y-5911649D02*
X17045640Y-5915941D01*
X16953335Y-14132929D02*
X16953335Y-14132929D01*
X16789193Y-6069659D02*
X16788556Y-6061279D01*
X17038891Y-14109042D02*
X17031981Y-14113015D01*
X17002446Y-6210396D02*
X16994614Y-6212620D01*
X16881824Y-6201541D02*
X16874708Y-6197897D01*
X8901377Y-13875630D02*
X8905978Y-13869160D01*
X17058287Y-13840618D02*
X17064274Y-13845804D01*
X17110981Y-6101861D02*
X17108386Y-6109529D01*
X17105431Y-5988549D02*
X17108386Y-5996044D01*
X9203036Y-13976392D02*
X9202399Y-13984773D01*
X17118400Y-6052786D02*
X17118400Y-6052786D01*
X17058345Y-6180130D02*
X17052111Y-6185030D01*
X16874689Y-14113015D02*
X16867780Y-14109042D01*
X8973985Y-14119960D02*
X8966675Y-14116655D01*
X16889112Y-14119963D02*
X16881804Y-14116659D01*
X17116428Y-13993062D02*
X17114977Y-14001187D01*
X9063354Y-13804771D02*
X9071481Y-13806223D01*
X9013090Y-6215878D02*
X9004963Y-6214427D01*
X9175067Y-6145020D02*
X9170466Y-6151490D01*
X9087296Y-6210360D02*
X9079465Y-6212584D01*
X16970205Y-14132077D02*
X16961826Y-14132714D01*
X8989147Y-14125509D02*
X8981479Y-14122915D01*
X8921529Y-6169444D02*
X8916064Y-6163712D01*
X9102459Y-13815839D02*
X9109769Y-13819144D01*
X9183333Y-13889237D02*
X9186977Y-13896353D01*
X16867780Y-13826828D02*
X16874689Y-13822855D01*
X9170466Y-6151490D02*
X9165566Y-6157724D01*
X8873407Y-6044258D02*
X8874045Y-6035877D01*
X16953335Y-13802941D02*
X16961826Y-13803156D01*
X8933248Y-6180095D02*
X8927260Y-6174908D01*
X17038945Y-6193923D02*
X17032034Y-6197897D01*
X16816520Y-13875685D02*
X16821120Y-13869217D01*
X16953371Y-5887757D02*
X16961863Y-5887972D01*
X8916064Y-13856937D02*
X8921529Y-13851206D01*
X16953371Y-6217815D02*
X16953371Y-6217815D01*
X16874708Y-5907675D02*
X16881824Y-5904031D01*
X8952648Y-13826762D02*
X8959559Y-13822788D01*
X9203251Y-13967900D02*
X9203251Y-13967900D01*
X16793536Y-14009170D02*
X16791693Y-14001187D01*
X9175067Y-13875630D02*
X9179359Y-13882326D01*
X17118329Y-13967935D02*
X17118329Y-13967935D01*
X17102127Y-6124333D02*
X17098482Y-6131449D01*
X16920083Y-14129577D02*
X16912101Y-14127734D01*
X16842409Y-6174944D02*
X16836677Y-6169479D01*
X16994570Y-14127734D02*
X16986587Y-14129577D01*
X8874045Y-6035877D02*
X8875094Y-6027618D01*
X8966675Y-14116655D02*
X8959559Y-14113011D01*
X9149184Y-14090057D02*
X9143196Y-14095244D01*
X16788341Y-6052786D02*
X16788341Y-6052786D01*
X9195832Y-14016974D02*
X9193237Y-14024642D01*
X8893111Y-6131413D02*
X8889466Y-6124298D01*
X9123795Y-5911614D02*
X9130491Y-5915906D01*
X17105363Y-13903712D02*
X17108317Y-13911205D01*
X16836677Y-5936093D02*
X16842409Y-5930629D01*
X9079465Y-13808065D02*
X9087296Y-13810289D01*
X8939482Y-13835655D02*
X8945953Y-13831054D01*
X17031981Y-13822855D02*
X17038891Y-13826828D01*
X16961863Y-6217600D02*
X16953371Y-6217815D01*
X16889112Y-13815907D02*
X16896605Y-13812953D01*
X17010066Y-13812953D02*
X17017558Y-13815907D01*
X9013090Y-14131027D02*
X9004963Y-14129576D01*
X8886162Y-13903663D02*
X8889466Y-13896353D01*
X16795761Y-6003712D02*
X16798355Y-5996044D01*
X17098482Y-6131449D02*
X17094508Y-6138360D01*
X17098482Y-5974123D02*
X17102127Y-5981239D01*
X16970244Y-5888609D02*
X16978503Y-5889658D01*
X8952648Y-5911614D02*
X8959559Y-5907640D01*
X17113135Y-14009170D02*
X17110911Y-14016999D01*
X9109769Y-13819144D02*
X9116884Y-13822788D01*
X9038222Y-13802870D02*
X9038222Y-13802870D01*
X8959559Y-13822788D02*
X8966675Y-13819144D01*
X16795759Y-14016999D02*
X16793536Y-14009170D01*
X9055095Y-5888574D02*
X9063354Y-5889623D01*
X8927260Y-13845742D02*
X8933248Y-13840555D01*
X16812228Y-13882380D02*
X16816520Y-13875685D01*
X9183333Y-14046562D02*
X9179359Y-14053473D01*
X9175067Y-5960481D02*
X9179359Y-5967177D01*
X9198055Y-14009143D02*
X9195832Y-14016974D01*
X17052054Y-13835720D02*
X17058287Y-13840618D01*
X9201350Y-13993032D02*
X9199898Y-14001159D01*
X9055095Y-13803722D02*
X9063354Y-13804771D01*
X16821127Y-6151526D02*
X16816526Y-6145055D01*
X9136961Y-6184994D02*
X9130491Y-6189595D01*
X9143196Y-6180095D02*
X9136961Y-6184994D01*
X16881804Y-13819212D02*
X16889112Y-13815907D01*
X16789193Y-13951065D02*
X16790242Y-13942808D01*
X9116884Y-5907640D02*
X9123795Y-5911614D01*
X8874045Y-13951026D02*
X8875094Y-13942767D01*
X17085615Y-5954047D02*
X17090216Y-5960517D01*
X17117548Y-6035913D02*
X17118185Y-6044294D01*
X9170466Y-14066639D02*
X9165566Y-14072873D01*
X17075529Y-6163748D02*
X17070064Y-6169479D01*
X16912101Y-13808136D02*
X16920083Y-13806294D01*
X16881824Y-5904031D02*
X16889134Y-5900726D01*
X16836677Y-6169479D02*
X16831213Y-6163748D01*
X16788556Y-13959444D02*
X16789193Y-13951065D01*
X17032034Y-6197897D02*
X17024918Y-6201541D01*
X9154915Y-5936058D02*
X9160379Y-5941789D01*
X16912128Y-6212620D02*
X16904296Y-6210396D01*
X17070004Y-14084604D02*
X17064274Y-14090067D01*
X8889466Y-14039447D02*
X8886162Y-14032136D01*
X17002446Y-5895176D02*
X17010114Y-5897771D01*
X16798355Y-6109529D02*
X16795761Y-6101861D01*
X17115047Y-6086045D02*
X17113205Y-6094029D01*
X17052054Y-14100151D02*
X17045585Y-14104751D01*
X9170466Y-13869160D02*
X9175067Y-13875630D01*
X16896628Y-5897771D02*
X16904296Y-5895176D01*
X17024867Y-13819212D02*
X17031981Y-13822855D01*
X17090216Y-6145055D02*
X17085615Y-6151526D01*
X8876545Y-6019492D02*
X8878388Y-6011507D01*
X8897085Y-6138324D02*
X8893111Y-6131413D01*
X8933248Y-13840555D02*
X8939482Y-13835655D01*
X17090216Y-5960517D02*
X17094508Y-5967213D01*
X9183333Y-5974088D02*
X9186977Y-5981204D01*
X17102059Y-14039467D02*
X17098415Y-14046581D01*
X9203036Y-6061243D02*
X9202399Y-6069624D01*
X16978503Y-5889658D02*
X16986630Y-5891110D01*
X8901377Y-5960481D02*
X8905978Y-5954011D01*
X8966675Y-13819144D02*
X8973985Y-13815839D01*
X8959559Y-14113011D02*
X8952648Y-14109037D01*
X9109769Y-6201506D02*
X9102459Y-6204811D01*
X9046714Y-6217565D02*
X9038222Y-6217780D01*
X8901377Y-6145020D02*
X8897085Y-6138324D01*
X8875094Y-13942767D02*
X8876545Y-13934640D01*
X9202399Y-6035877D02*
X9203036Y-6044258D01*
X16801307Y-14032158D02*
X16798353Y-14024666D01*
X8973985Y-6204811D02*
X8966675Y-6201506D01*
X8901377Y-14060169D02*
X8897085Y-14053473D01*
X9063354Y-6215878D02*
X9055095Y-6216928D01*
X17017608Y-6204846D02*
X17010114Y-6207801D01*
X17080653Y-14072887D02*
X17075467Y-14078873D01*
X17010066Y-14122917D02*
X17002399Y-14125511D01*
X16861101Y-5915941D02*
X16867797Y-5911649D01*
X8916064Y-6163712D02*
X8910877Y-6157724D01*
X17117548Y-6069659D02*
X17116499Y-6077918D01*
X16790242Y-13942808D02*
X16791693Y-13934683D01*
X16804611Y-13896403D02*
X16808255Y-13889289D01*
X16788341Y-13967935D02*
X16788556Y-13959444D01*
X8878388Y-6093994D02*
X8876545Y-6086010D01*
X9087296Y-13810289D02*
X9094964Y-13812884D01*
X16831213Y-6163748D02*
X16826026Y-6157760D01*
X16854631Y-5920542D02*
X16861101Y-5915941D01*
X8873407Y-13959407D02*
X8874045Y-13951026D01*
X16896605Y-14122917D02*
X16889112Y-14119963D01*
X8905978Y-13869160D02*
X8910877Y-13862925D01*
X9199898Y-6086010D02*
X9198055Y-6093994D01*
X9063354Y-14131027D02*
X9055095Y-14132077D01*
X16970244Y-6216963D02*
X16961863Y-6217600D01*
X8886162Y-14032136D02*
X8883207Y-14024642D01*
X16854617Y-14100151D02*
X16848384Y-14095252D01*
X17010114Y-6207801D02*
X17002446Y-6210396D01*
X9183333Y-6131413D02*
X9179359Y-6138324D01*
X17116499Y-6027654D02*
X17117548Y-6035913D01*
X9102459Y-14119960D02*
X9094964Y-14122915D01*
X9149184Y-13845742D02*
X9154915Y-13851206D01*
X16848384Y-13840618D02*
X16854617Y-13835720D01*
X8897085Y-14053473D02*
X8893111Y-14046562D01*
X8876545Y-13934640D02*
X8878388Y-13926656D01*
D11*
X8000000Y-5600000D02*
X8600000Y-5000000D01*
D10*
X8959559Y-6197862D02*
X8952648Y-6193888D01*
X17118185Y-6061279D02*
X17117548Y-6069659D01*
D12*
D13*
X8226920Y-14134960D02*
X8526920Y-14434960D01*
X8526920Y-14134960D02*
X8226920Y-14434960D01*
X8566100Y-10505300D02*
X8866100Y-10805300D01*
X8866100Y-10505300D02*
X8566100Y-10805300D01*
X17143500Y-14475320D02*
X17443500Y-14775320D01*
X17443500Y-14475320D02*
X17143500Y-14775320D01*
X17472520Y-5553660D02*
X17772520Y-5853660D01*
X17772520Y-5553660D02*
X17472520Y-5853660D01*
D12*
X8252619Y-15315476D02*
X8252619Y-15115476D01*
X8300238Y-15115476D01*
X8328809Y-15125000D01*
X8347857Y-15144048D01*
X8357381Y-15163095D01*
X8366905Y-15201190D01*
X8366905Y-15229762D01*
X8357381Y-15267857D01*
X8347857Y-15286905D01*
X8328809Y-15305952D01*
X8300238Y-15315476D01*
X8252619Y-15315476D01*
X8452619Y-15315476D02*
X8452619Y-15182143D01*
X8452619Y-15220238D02*
X8462143Y-15201190D01*
X8471667Y-15191667D01*
X8490714Y-15182143D01*
X8509762Y-15182143D01*
X8576429Y-15315476D02*
X8576429Y-15182143D01*
X8576429Y-15115476D02*
X8566905Y-15125000D01*
X8576429Y-15134524D01*
X8585952Y-15125000D01*
X8576429Y-15115476D01*
X8576429Y-15134524D01*
X8700238Y-15315476D02*
X8681190Y-15305952D01*
X8671667Y-15286905D01*
X8671667Y-15115476D01*
X8805000Y-15315476D02*
X8785952Y-15305952D01*
X8776429Y-15286905D01*
X8776429Y-15115476D01*
X9033571Y-15315476D02*
X9033571Y-15115476D01*
X9100238Y-15258333D01*
X9166905Y-15115476D01*
X9166905Y-15315476D01*
X9347857Y-15315476D02*
X9347857Y-15210714D01*
X9338333Y-15191667D01*
X9319286Y-15182143D01*
X9281190Y-15182143D01*
X9262143Y-15191667D01*
X9347857Y-15305952D02*
X9328810Y-15315476D01*
X9281190Y-15315476D01*
X9262143Y-15305952D01*
X9252619Y-15286905D01*
X9252619Y-15267857D01*
X9262143Y-15248809D01*
X9281190Y-15239286D01*
X9328810Y-15239286D01*
X9347857Y-15229762D01*
X9443095Y-15182143D02*
X9443095Y-15382143D01*
X9443095Y-15191667D02*
X9462143Y-15182143D01*
X9500238Y-15182143D01*
X9519286Y-15191667D01*
X9528810Y-15201190D01*
X9538333Y-15220238D01*
X9538333Y-15277381D01*
X9528810Y-15296428D01*
X9519286Y-15305952D01*
X9500238Y-15315476D01*
X9462143Y-15315476D01*
X9443095Y-15305952D01*
X9624048Y-15296428D02*
X9633571Y-15305952D01*
X9624048Y-15315476D01*
X9614524Y-15305952D01*
X9624048Y-15296428D01*
X9624048Y-15315476D01*
X9624048Y-15191667D02*
X9633571Y-15201190D01*
X9624048Y-15210714D01*
X9614524Y-15201190D01*
X9624048Y-15191667D01*
X9624048Y-15210714D01*
X7795000Y-15545000D02*
X7995000Y-15745000D01*
X7995000Y-15545000D02*
X7795000Y-15745000D01*
X8233571Y-15535476D02*
X8357381Y-15535476D01*
X8290714Y-15611667D01*
X8319286Y-15611667D01*
X8338333Y-15621190D01*
X8347857Y-15630714D01*
X8357381Y-15649762D01*
X8357381Y-15697381D01*
X8347857Y-15716428D01*
X8338333Y-15725952D01*
X8319286Y-15735476D01*
X8262143Y-15735476D01*
X8243095Y-15725952D01*
X8233571Y-15716428D01*
X8443095Y-15716428D02*
X8452619Y-15725952D01*
X8443095Y-15735476D01*
X8433571Y-15725952D01*
X8443095Y-15716428D01*
X8443095Y-15735476D01*
X8576429Y-15535476D02*
X8595476Y-15535476D01*
X8614524Y-15545000D01*
X8624048Y-15554524D01*
X8633571Y-15573571D01*
X8643095Y-15611667D01*
X8643095Y-15659286D01*
X8633571Y-15697381D01*
X8624048Y-15716428D01*
X8614524Y-15725952D01*
X8595476Y-15735476D01*
X8576429Y-15735476D01*
X8557381Y-15725952D01*
X8547857Y-15716428D01*
X8538333Y-15697381D01*
X8528810Y-15659286D01*
X8528810Y-15611667D01*
X8538333Y-15573571D01*
X8547857Y-15554524D01*
X8557381Y-15545000D01*
X8576429Y-15535476D01*
X8766905Y-15535476D02*
X8785952Y-15535476D01*
X8805000Y-15545000D01*
X8814524Y-15554524D01*
X8824048Y-15573571D01*
X8833571Y-15611667D01*
X8833571Y-15659286D01*
X8824048Y-15697381D01*
X8814524Y-15716428D01*
X8805000Y-15725952D01*
X8785952Y-15735476D01*
X8766905Y-15735476D01*
X8747857Y-15725952D01*
X8738333Y-15716428D01*
X8728810Y-15697381D01*
X8719286Y-15659286D01*
X8719286Y-15611667D01*
X8728810Y-15573571D01*
X8738333Y-15554524D01*
X8747857Y-15545000D01*
X8766905Y-15535476D01*
X8957381Y-15535476D02*
X8976429Y-15535476D01*
X8995476Y-15545000D01*
X9005000Y-15554524D01*
X9014524Y-15573571D01*
X9024048Y-15611667D01*
X9024048Y-15659286D01*
X9014524Y-15697381D01*
X9005000Y-15716428D01*
X8995476Y-15725952D01*
X8976429Y-15735476D01*
X8957381Y-15735476D01*
X8938333Y-15725952D01*
X8928810Y-15716428D01*
X8919286Y-15697381D01*
X8909762Y-15659286D01*
X8909762Y-15611667D01*
X8919286Y-15573571D01*
X8928810Y-15554524D01*
X8938333Y-15545000D01*
X8957381Y-15535476D01*
X9109762Y-15735476D02*
X9109762Y-15602143D01*
X9109762Y-15621190D02*
X9119286Y-15611667D01*
X9138333Y-15602143D01*
X9166905Y-15602143D01*
X9185952Y-15611667D01*
X9195476Y-15630714D01*
X9195476Y-15735476D01*
X9195476Y-15630714D02*
X9205000Y-15611667D01*
X9224048Y-15602143D01*
X9252619Y-15602143D01*
X9271667Y-15611667D01*
X9281190Y-15630714D01*
X9281190Y-15735476D01*
X9376429Y-15735476D02*
X9376429Y-15602143D01*
X9376429Y-15621190D02*
X9385952Y-15611667D01*
X9405000Y-15602143D01*
X9433571Y-15602143D01*
X9452619Y-15611667D01*
X9462143Y-15630714D01*
X9462143Y-15735476D01*
X9462143Y-15630714D02*
X9471667Y-15611667D01*
X9490714Y-15602143D01*
X9519286Y-15602143D01*
X9538333Y-15611667D01*
X9547857Y-15630714D01*
X9547857Y-15735476D01*
X9938333Y-15525952D02*
X9766905Y-15783095D01*
X10195476Y-15535476D02*
X10214524Y-15535476D01*
X10233571Y-15545000D01*
X10243095Y-15554524D01*
X10252619Y-15573571D01*
X10262143Y-15611667D01*
X10262143Y-15659286D01*
X10252619Y-15697381D01*
X10243095Y-15716428D01*
X10233571Y-15725952D01*
X10214524Y-15735476D01*
X10195476Y-15735476D01*
X10176429Y-15725952D01*
X10166905Y-15716428D01*
X10157381Y-15697381D01*
X10147857Y-15659286D01*
X10147857Y-15611667D01*
X10157381Y-15573571D01*
X10166905Y-15554524D01*
X10176429Y-15545000D01*
X10195476Y-15535476D01*
X10347857Y-15716428D02*
X10357381Y-15725952D01*
X10347857Y-15735476D01*
X10338333Y-15725952D01*
X10347857Y-15716428D01*
X10347857Y-15735476D01*
X10547857Y-15735476D02*
X10433571Y-15735476D01*
X10490714Y-15735476D02*
X10490714Y-15535476D01*
X10471667Y-15564048D01*
X10452619Y-15583095D01*
X10433571Y-15592619D01*
X10738333Y-15735476D02*
X10624048Y-15735476D01*
X10681190Y-15735476D02*
X10681190Y-15535476D01*
X10662143Y-15564048D01*
X10643095Y-15583095D01*
X10624048Y-15592619D01*
X10852619Y-15621190D02*
X10833571Y-15611667D01*
X10824048Y-15602143D01*
X10814524Y-15583095D01*
X10814524Y-15573571D01*
X10824048Y-15554524D01*
X10833571Y-15545000D01*
X10852619Y-15535476D01*
X10890714Y-15535476D01*
X10909762Y-15545000D01*
X10919286Y-15554524D01*
X10928810Y-15573571D01*
X10928810Y-15583095D01*
X10919286Y-15602143D01*
X10909762Y-15611667D01*
X10890714Y-15621190D01*
X10852619Y-15621190D01*
X10833571Y-15630714D01*
X10824048Y-15640238D01*
X10814524Y-15659286D01*
X10814524Y-15697381D01*
X10824048Y-15716428D01*
X10833571Y-15725952D01*
X10852619Y-15735476D01*
X10890714Y-15735476D01*
X10909762Y-15725952D01*
X10919286Y-15716428D01*
X10928810Y-15697381D01*
X10928810Y-15659286D01*
X10919286Y-15640238D01*
X10909762Y-15630714D01*
X10890714Y-15621190D01*
X11119286Y-15735476D02*
X11005000Y-15735476D01*
X11062143Y-15735476D02*
X11062143Y-15535476D01*
X11043095Y-15564048D01*
X11024048Y-15583095D01*
X11005000Y-15592619D01*
X11195476Y-15535476D02*
X11195476Y-15573571D01*
X11271667Y-15535476D02*
X11271667Y-15573571D01*
X11566905Y-15811667D02*
X11557381Y-15802143D01*
X11538333Y-15773571D01*
X11528809Y-15754524D01*
X11519286Y-15725952D01*
X11509762Y-15678333D01*
X11509762Y-15640238D01*
X11519286Y-15592619D01*
X11528809Y-15564048D01*
X11538333Y-15545000D01*
X11557381Y-15516428D01*
X11566905Y-15506905D01*
X11728809Y-15602143D02*
X11728809Y-15735476D01*
X11681190Y-15525952D02*
X11633571Y-15668809D01*
X11757381Y-15668809D01*
X11985952Y-15735476D02*
X11985952Y-15535476D01*
X12071667Y-15735476D02*
X12071667Y-15630714D01*
X12062143Y-15611667D01*
X12043095Y-15602143D01*
X12014524Y-15602143D01*
X11995476Y-15611667D01*
X11985952Y-15621190D01*
X12195476Y-15735476D02*
X12176428Y-15725952D01*
X12166905Y-15716428D01*
X12157381Y-15697381D01*
X12157381Y-15640238D01*
X12166905Y-15621190D01*
X12176428Y-15611667D01*
X12195476Y-15602143D01*
X12224048Y-15602143D01*
X12243095Y-15611667D01*
X12252619Y-15621190D01*
X12262143Y-15640238D01*
X12262143Y-15697381D01*
X12252619Y-15716428D01*
X12243095Y-15725952D01*
X12224048Y-15735476D01*
X12195476Y-15735476D01*
X12376428Y-15735476D02*
X12357381Y-15725952D01*
X12347857Y-15706905D01*
X12347857Y-15535476D01*
X12528809Y-15725952D02*
X12509762Y-15735476D01*
X12471667Y-15735476D01*
X12452619Y-15725952D01*
X12443095Y-15706905D01*
X12443095Y-15630714D01*
X12452619Y-15611667D01*
X12471667Y-15602143D01*
X12509762Y-15602143D01*
X12528809Y-15611667D01*
X12538333Y-15630714D01*
X12538333Y-15649762D01*
X12443095Y-15668809D01*
X12614524Y-15725952D02*
X12633571Y-15735476D01*
X12671667Y-15735476D01*
X12690714Y-15725952D01*
X12700238Y-15706905D01*
X12700238Y-15697381D01*
X12690714Y-15678333D01*
X12671667Y-15668809D01*
X12643095Y-15668809D01*
X12624048Y-15659286D01*
X12614524Y-15640238D01*
X12614524Y-15630714D01*
X12624048Y-15611667D01*
X12643095Y-15602143D01*
X12671667Y-15602143D01*
X12690714Y-15611667D01*
X12766905Y-15811667D02*
X12776428Y-15802143D01*
X12795476Y-15773571D01*
X12805000Y-15754524D01*
X12814524Y-15725952D01*
X12824048Y-15678333D01*
X12824048Y-15640238D01*
X12814524Y-15592619D01*
X12805000Y-15564048D01*
X12795476Y-15545000D01*
X12776428Y-15516428D01*
X12766905Y-15506905D01*
X13128809Y-15811667D02*
X13119286Y-15802143D01*
X13100238Y-15773571D01*
X13090714Y-15754524D01*
X13081190Y-15725952D01*
X13071667Y-15678333D01*
X13071667Y-15640238D01*
X13081190Y-15592619D01*
X13090714Y-15564048D01*
X13100238Y-15545000D01*
X13119286Y-15516428D01*
X13128809Y-15506905D01*
X13205000Y-15602143D02*
X13205000Y-15735476D01*
X13205000Y-15621190D02*
X13214524Y-15611667D01*
X13233571Y-15602143D01*
X13262143Y-15602143D01*
X13281190Y-15611667D01*
X13290714Y-15630714D01*
X13290714Y-15735476D01*
X13414524Y-15735476D02*
X13395476Y-15725952D01*
X13385952Y-15716428D01*
X13376428Y-15697381D01*
X13376428Y-15640238D01*
X13385952Y-15621190D01*
X13395476Y-15611667D01*
X13414524Y-15602143D01*
X13443095Y-15602143D01*
X13462143Y-15611667D01*
X13471667Y-15621190D01*
X13481190Y-15640238D01*
X13481190Y-15697381D01*
X13471667Y-15716428D01*
X13462143Y-15725952D01*
X13443095Y-15735476D01*
X13414524Y-15735476D01*
X13538333Y-15602143D02*
X13614524Y-15602143D01*
X13566905Y-15535476D02*
X13566905Y-15706905D01*
X13576428Y-15725952D01*
X13595476Y-15735476D01*
X13614524Y-15735476D01*
X13833571Y-15602143D02*
X13833571Y-15802143D01*
X13833571Y-15611667D02*
X13852619Y-15602143D01*
X13890714Y-15602143D01*
X13909762Y-15611667D01*
X13919286Y-15621190D01*
X13928809Y-15640238D01*
X13928809Y-15697381D01*
X13919286Y-15716428D01*
X13909762Y-15725952D01*
X13890714Y-15735476D01*
X13852619Y-15735476D01*
X13833571Y-15725952D01*
X14043095Y-15735476D02*
X14024048Y-15725952D01*
X14014524Y-15706905D01*
X14014524Y-15535476D01*
X14205000Y-15735476D02*
X14205000Y-15630714D01*
X14195476Y-15611667D01*
X14176428Y-15602143D01*
X14138333Y-15602143D01*
X14119286Y-15611667D01*
X14205000Y-15725952D02*
X14185952Y-15735476D01*
X14138333Y-15735476D01*
X14119286Y-15725952D01*
X14109762Y-15706905D01*
X14109762Y-15687857D01*
X14119286Y-15668809D01*
X14138333Y-15659286D01*
X14185952Y-15659286D01*
X14205000Y-15649762D01*
X14271667Y-15602143D02*
X14347857Y-15602143D01*
X14300238Y-15535476D02*
X14300238Y-15706905D01*
X14309762Y-15725952D01*
X14328809Y-15735476D01*
X14347857Y-15735476D01*
X14490714Y-15725952D02*
X14471667Y-15735476D01*
X14433571Y-15735476D01*
X14414524Y-15725952D01*
X14405000Y-15706905D01*
X14405000Y-15630714D01*
X14414524Y-15611667D01*
X14433571Y-15602143D01*
X14471667Y-15602143D01*
X14490714Y-15611667D01*
X14500238Y-15630714D01*
X14500238Y-15649762D01*
X14405000Y-15668809D01*
X14671667Y-15735476D02*
X14671667Y-15535476D01*
X14671667Y-15725952D02*
X14652619Y-15735476D01*
X14614524Y-15735476D01*
X14595476Y-15725952D01*
X14585952Y-15716428D01*
X14576428Y-15697381D01*
X14576428Y-15640238D01*
X14585952Y-15621190D01*
X14595476Y-15611667D01*
X14614524Y-15602143D01*
X14652619Y-15602143D01*
X14671667Y-15611667D01*
X14747857Y-15811667D02*
X14757381Y-15802143D01*
X14776428Y-15773571D01*
X14785952Y-15754524D01*
X14795476Y-15725952D01*
X14805000Y-15678333D01*
X14805000Y-15640238D01*
X14795476Y-15592619D01*
X14785952Y-15564048D01*
X14776428Y-15545000D01*
X14757381Y-15516428D01*
X14747857Y-15506905D01*
M02*
