%TF.GenerationSoftware,KiCad,Pcbnew,(6.0.8)*%
%TF.CreationDate,2023-01-19T16:40:18-07:00*%
%TF.ProjectId,Panel,50616e65-6c2e-46b6-9963-61645f706362,rev?*%
%TF.SameCoordinates,Original*%
%TF.FileFunction,Profile,NP*%
%FSLAX46Y46*%
G04 Gerber Fmt 4.6, Leading zero omitted, Abs format (unit mm)*
G04 Created by KiCad (PCBNEW (6.0.8)) date 2023-01-19 16:40:18*
%MOMM*%
%LPD*%
G01*
G04 APERTURE LIST*
%TA.AperFunction,Profile*%
%ADD10C,0.352776*%
%TD*%
%TA.AperFunction,Profile*%
%ADD11C,0.100000*%
%TD*%
G04 APERTURE END LIST*
D10*
X90599202Y-138375179D02*
X90681792Y-138364684D01*
X89927831Y-141374910D02*
X89863129Y-141328900D01*
X170002016Y-59205035D02*
X170002016Y-59205035D01*
X89528087Y-140993858D02*
X89482077Y-140929156D01*
X170644384Y-59334723D02*
X170717485Y-59367772D01*
X168360235Y-140175512D02*
X168353864Y-140091720D01*
X91837919Y-59532538D02*
X91900262Y-59581530D01*
X170643890Y-138486541D02*
X170716976Y-138519582D01*
X92400676Y-139439037D02*
X92426622Y-139515716D01*
X90765601Y-141654607D02*
X90681792Y-141648234D01*
X171651598Y-140006814D02*
X171651598Y-140006814D01*
X91900262Y-59581530D02*
X91960142Y-59633400D01*
X92400676Y-140573888D02*
X92371128Y-140648831D01*
X92481801Y-61106295D02*
X92467288Y-61187563D01*
X168834975Y-141173502D02*
X168780343Y-141116201D01*
X92261897Y-61710709D02*
X92218971Y-61777666D01*
X91773217Y-138638010D02*
X91837919Y-138684021D01*
X89200232Y-60854972D02*
X89200232Y-60854972D01*
X168385245Y-61187918D02*
X168370732Y-61106651D01*
X89274426Y-61345718D02*
X89252188Y-61267406D01*
X169079162Y-138638664D02*
X169146105Y-138595748D01*
X91183115Y-59238212D02*
X91262957Y-59256640D01*
X90850525Y-59204684D02*
X90850525Y-59204684D01*
X90517934Y-62471735D02*
X90438091Y-62453308D01*
X169669424Y-62472090D02*
X169589582Y-62453662D01*
X171522619Y-61497694D02*
X171489571Y-61570796D01*
X89577079Y-138956721D02*
X89628949Y-138896841D01*
X171223591Y-59745709D02*
X171275461Y-59805589D01*
X89577079Y-61904711D02*
X89528087Y-61842368D01*
X92448860Y-139594029D02*
X92467288Y-139673871D01*
X171552168Y-61422752D02*
X171522619Y-61497694D01*
X171275461Y-59805589D02*
X171324453Y-59867932D01*
X92500816Y-60854972D02*
X92498669Y-60939896D01*
X169215200Y-138556019D02*
X169286342Y-138519582D01*
X92500816Y-60854972D02*
X92500816Y-60854972D01*
X168481406Y-61497694D02*
X168451857Y-61422752D01*
X92500816Y-140006463D02*
X92498669Y-140091387D01*
X89252188Y-140418896D02*
X89233760Y-140339054D01*
X89439151Y-59999239D02*
X89482077Y-59932281D01*
X171111041Y-138785504D02*
X171168342Y-138840135D01*
X171412731Y-140862373D02*
X171369815Y-140929316D01*
X168780343Y-138897437D02*
X168834975Y-138840135D01*
X168590637Y-61711062D02*
X168550900Y-61641953D01*
X169750693Y-62486603D02*
X169669424Y-62472090D01*
X90283099Y-59304823D02*
X90359779Y-59278878D01*
X169511269Y-59279229D02*
X169589582Y-59256991D01*
X91492891Y-59334372D02*
X91565993Y-59367421D01*
X90681792Y-138364684D02*
X90765601Y-138358311D01*
X89439151Y-139150725D02*
X89482077Y-139083767D01*
X92492296Y-139837730D02*
X92498669Y-139921539D01*
X92492296Y-140175196D02*
X92481801Y-140257786D01*
X92017455Y-138839527D02*
X92072099Y-138896841D01*
X169669138Y-138390402D02*
X169750389Y-138375892D01*
X170569441Y-59305174D02*
X170644384Y-59334723D01*
X169014474Y-138684664D02*
X169079162Y-138638664D01*
X89528087Y-59867579D02*
X89577079Y-59805236D01*
D11*
X174000000Y-150000000D02*
X180000000Y-144000000D01*
D10*
X170857213Y-138595748D02*
X170924156Y-138638664D01*
X92123969Y-61904711D02*
X92072099Y-61964591D01*
X169079162Y-141374973D02*
X169014474Y-141328973D01*
X170643890Y-141527095D02*
X170568963Y-141556638D01*
X90283099Y-138456304D02*
X90359779Y-138430358D01*
X90359779Y-138430358D02*
X90438091Y-138408120D01*
X89300372Y-60287548D02*
X89329921Y-60212606D01*
X168892277Y-138785504D02*
X168952144Y-138733646D01*
X168952274Y-59581882D02*
X169014618Y-59532890D01*
X168385245Y-60522737D02*
X168403673Y-60442895D01*
X168550857Y-140793278D02*
X168514420Y-140722136D01*
X168550857Y-139220358D02*
X168590585Y-139151264D01*
X90517934Y-141623226D02*
X90438091Y-141604799D01*
X171051754Y-59581882D02*
X171111634Y-59633752D01*
X89300372Y-139439037D02*
X89329921Y-139364094D01*
X92400676Y-60287548D02*
X92426622Y-60364227D01*
X90135055Y-59367421D02*
X90208157Y-59334372D01*
X92371128Y-61497340D02*
X92338079Y-61570442D01*
X89863129Y-62177409D02*
X89800786Y-62128417D01*
X169916752Y-138359028D02*
X170001657Y-138356881D01*
X92481801Y-139755140D02*
X92492296Y-139837730D01*
X90850525Y-138356164D02*
X90935448Y-138358311D01*
X90438091Y-62453308D02*
X90359779Y-62431069D01*
X92492296Y-61023705D02*
X92481801Y-61106295D01*
X168952144Y-141279991D02*
X168892277Y-141228133D01*
X90135055Y-62342527D02*
X90063898Y-62306082D01*
X91492891Y-62375575D02*
X91417949Y-62405124D01*
X168550900Y-60068701D02*
X168590637Y-59999592D01*
X169750693Y-59224050D02*
X169833283Y-59213555D01*
X91773217Y-141374910D02*
X91706259Y-141417836D01*
X168353864Y-60770405D02*
X168360237Y-60686596D01*
X92072099Y-59745356D02*
X92123969Y-59805236D01*
X169215387Y-62306436D02*
X169146278Y-62266699D01*
X92467288Y-140339054D02*
X92448860Y-140418896D01*
X168351717Y-60855328D02*
X168353864Y-60770405D01*
X92426622Y-139515716D02*
X92448860Y-139594029D01*
X91637150Y-62306082D02*
X91565993Y-62342527D01*
X171521938Y-140649050D02*
X171488896Y-140722136D01*
X168780436Y-59745709D02*
X168835080Y-59688395D01*
X89628949Y-141116081D02*
X89577079Y-141056201D01*
X91773217Y-62223420D02*
X91706259Y-62266345D01*
X170989411Y-59532890D02*
X171051754Y-59581882D01*
X170788643Y-59404217D02*
X170857752Y-59443954D01*
X171168948Y-62022258D02*
X171111634Y-62076902D01*
X170788118Y-141457618D02*
X170716976Y-141494054D01*
X170001657Y-141656754D02*
X169916752Y-141654607D01*
X170002016Y-62505618D02*
X169917092Y-62503471D01*
X89362969Y-139290992D02*
X89399414Y-139219834D01*
X171323814Y-139019633D02*
X171369815Y-139084321D01*
X169832961Y-141648236D02*
X169750389Y-141637744D01*
X91900262Y-141279908D02*
X91837919Y-141328900D01*
X168425911Y-61346073D02*
X168403673Y-61267760D01*
X92338079Y-60139505D02*
X92371128Y-60212606D01*
X171369815Y-139084321D02*
X171412731Y-139151264D01*
X90765601Y-62503116D02*
X90681792Y-62496743D01*
X170492300Y-141582577D02*
X170414004Y-141604811D01*
X171222974Y-141116201D02*
X171168342Y-141173502D01*
X170252928Y-138375892D02*
X170334179Y-138390402D01*
X170492300Y-138431059D02*
X170568963Y-138456999D01*
X89329921Y-60212606D02*
X89362969Y-60139505D01*
X169511017Y-141582577D02*
X169434354Y-141556638D01*
X92426622Y-61345718D02*
X92400676Y-61422398D01*
X169359647Y-62375930D02*
X169286545Y-62342881D01*
X89399414Y-60068348D02*
X89439151Y-59999239D01*
X91262957Y-59256640D02*
X91341269Y-59278878D01*
X89994789Y-62266345D02*
X89927831Y-62223420D01*
X171578114Y-60364582D02*
X171600352Y-60442895D01*
X171324453Y-61842722D02*
X171275461Y-61905064D01*
X171652307Y-60855328D02*
X171650160Y-60940252D01*
X171168948Y-59688395D02*
X171223591Y-59745709D01*
X168481406Y-60212960D02*
X168514455Y-60139858D01*
X90681792Y-59213204D02*
X90765601Y-59206831D01*
X89863129Y-141328900D02*
X89800786Y-141279908D01*
X90517934Y-138389692D02*
X90599202Y-138375179D01*
X89577079Y-141056201D02*
X89528087Y-140993858D01*
X169833283Y-62497098D02*
X169750693Y-62486603D01*
X92400676Y-61422398D02*
X92371128Y-61497340D01*
X89863129Y-59532538D02*
X89927831Y-59486528D01*
X89994789Y-141417836D02*
X89927831Y-141374910D01*
X91417949Y-138456304D02*
X91492891Y-138485853D01*
X89202380Y-60939896D02*
X89200232Y-60854972D01*
X90850525Y-62505263D02*
X90765601Y-62503116D01*
X171551480Y-139439512D02*
X171577420Y-139516175D01*
X91960142Y-62076548D02*
X91900262Y-62128417D01*
X89683592Y-141173395D02*
X89628949Y-141116081D01*
X169146278Y-62266699D02*
X169079320Y-62223774D01*
X171600352Y-61267760D02*
X171578114Y-61346073D01*
X168728566Y-59805589D02*
X168780436Y-59745709D01*
X91341269Y-59278878D02*
X91417949Y-59304823D01*
X89274426Y-60364227D02*
X89300372Y-60287548D01*
X171452459Y-140793278D02*
X171412731Y-140862373D01*
X92072099Y-61964591D02*
X92017455Y-62021905D01*
X168385238Y-139674295D02*
X168403662Y-139594470D01*
X170414449Y-62453662D02*
X170334607Y-62472090D01*
X168403673Y-60442895D02*
X168425911Y-60364582D01*
X90359779Y-62431069D02*
X90283099Y-62405124D01*
X168728485Y-141056334D02*
X168679503Y-140994004D01*
X89528087Y-61842368D02*
X89482077Y-61777666D01*
X169359647Y-59334723D02*
X169434590Y-59305174D01*
X90935448Y-59206831D02*
X91019257Y-59213204D01*
X92467288Y-139673871D02*
X92481801Y-139755140D01*
X169750389Y-141637744D02*
X169669138Y-141623234D01*
X92218971Y-140929156D02*
X92172961Y-140993858D01*
X90681792Y-141648234D02*
X90599202Y-141637739D01*
X90599202Y-59223699D02*
X90681792Y-59213204D01*
X171643079Y-140175512D02*
X171632587Y-140258086D01*
X89252188Y-139594029D02*
X89274426Y-139515716D01*
X171168342Y-138840135D02*
X171222974Y-138897437D01*
X171651598Y-140006814D02*
X171649451Y-140091720D01*
X171111041Y-141228133D02*
X171051174Y-141279991D01*
X92017455Y-141173395D02*
X91960142Y-141228038D01*
X168633563Y-59932634D02*
X168679574Y-59867932D01*
X92371128Y-139364094D02*
X92400676Y-139439037D01*
X170924156Y-138638664D02*
X170988844Y-138684664D01*
X168590637Y-59999592D02*
X168633563Y-59932634D01*
X170414449Y-59256991D02*
X170492762Y-59279229D01*
X168403662Y-139594470D02*
X168425895Y-139516175D01*
X169750389Y-138375892D02*
X169832961Y-138365399D01*
X168451857Y-60287902D02*
X168481406Y-60212960D01*
X171618779Y-60522737D02*
X171633292Y-60604005D01*
X92448860Y-61267406D02*
X92426622Y-61345718D01*
X89362969Y-60139505D02*
X89399414Y-60068348D01*
X171618077Y-140339337D02*
X171599654Y-140419163D01*
X168780343Y-141116201D02*
X168728485Y-141056334D01*
X168370732Y-60604005D02*
X168385245Y-60522737D01*
D11*
X180000000Y-56000000D02*
X180000000Y-144000000D01*
D10*
X90850525Y-59204684D02*
X90935448Y-59206831D01*
X89800786Y-59581530D02*
X89863129Y-59532538D01*
X168360237Y-60686596D02*
X168370732Y-60604005D01*
X89927831Y-59486528D02*
X89994789Y-59443602D01*
X169833283Y-59213555D02*
X169917092Y-59207182D01*
X92261897Y-140862199D02*
X92218971Y-140929156D01*
X90850525Y-62505263D02*
X90850525Y-62505263D01*
X169146278Y-59443954D02*
X169215387Y-59404217D01*
X89740906Y-59633400D02*
X89800786Y-59581530D01*
X171111634Y-62076902D02*
X171051754Y-62128771D01*
X90283099Y-141556615D02*
X90208157Y-141527066D01*
X90438091Y-59256640D02*
X90517934Y-59238212D01*
X168403673Y-61267760D02*
X168385245Y-61187918D01*
X170334179Y-138390402D02*
X170414004Y-138408825D01*
X171488896Y-139291500D02*
X171521938Y-139364586D01*
X168892277Y-141228133D02*
X168834975Y-141173502D01*
X168370728Y-140258086D02*
X168360235Y-140175512D01*
X89399414Y-139219834D02*
X89439151Y-139150725D01*
X91019257Y-62496743D02*
X90935448Y-62503116D01*
X91960142Y-59633400D02*
X92017455Y-59688043D01*
X170334607Y-59238563D02*
X170414449Y-59256991D01*
X171652307Y-60855328D02*
X171652307Y-60855328D01*
X92338079Y-139290992D02*
X92371128Y-139364094D01*
X169146105Y-141417889D02*
X169079162Y-141374973D01*
X92371128Y-60212606D02*
X92400676Y-60287548D01*
X92017455Y-62021905D02*
X91960142Y-62076548D01*
X171413389Y-61711062D02*
X171370463Y-61778020D01*
X90850525Y-141656754D02*
X90850525Y-141656754D01*
X90283099Y-62405124D02*
X90208157Y-62375575D01*
X171599654Y-139594470D02*
X171618077Y-139674295D01*
X168370732Y-61106651D02*
X168360237Y-61024060D01*
X90208157Y-59334372D02*
X90283099Y-59304823D01*
X89683592Y-59688043D02*
X89740906Y-59633400D01*
X92481801Y-60603650D02*
X92492296Y-60686240D01*
X89252188Y-60442540D02*
X89274426Y-60364227D01*
X171452459Y-139220358D02*
X171488896Y-139291500D01*
X92123969Y-59805236D02*
X92172961Y-59867579D01*
X168550900Y-61641953D02*
X168514455Y-61570796D01*
X168425895Y-139516175D02*
X168451835Y-139439512D01*
X168952274Y-62128771D02*
X168892394Y-62076902D01*
X90765601Y-138358311D02*
X90850525Y-138356164D01*
X92261897Y-139150725D02*
X92301634Y-139219834D01*
X171643079Y-139838118D02*
X171649451Y-139921909D01*
X91565993Y-141494018D02*
X91492891Y-141527066D01*
X89233760Y-61187563D02*
X89219247Y-61106295D01*
X92500816Y-140006463D02*
X92500816Y-140006463D01*
X170253339Y-62486603D02*
X170170749Y-62497098D01*
X91900262Y-138733013D02*
X91960142Y-138784883D01*
X90850525Y-141656754D02*
X90765601Y-141654607D01*
X92072099Y-141116081D02*
X92017455Y-141173395D01*
X89329921Y-61497340D02*
X89300372Y-61422398D01*
X90935448Y-138358311D02*
X91019257Y-138364684D01*
X171222974Y-138897437D02*
X171274833Y-138957304D01*
X89274426Y-140497209D02*
X89252188Y-140418896D01*
D11*
X180000000Y-56000000D02*
X174000000Y-50000000D01*
D10*
X168351717Y-140006814D02*
X168351717Y-140006814D01*
X170414004Y-138408825D02*
X170492300Y-138431059D01*
X92338079Y-61570442D02*
X92301634Y-61641599D01*
X171111634Y-59633752D02*
X171168948Y-59688395D01*
X91341269Y-141582560D02*
X91262957Y-141604799D01*
X168514455Y-60139858D02*
X168550900Y-60068701D01*
X90765601Y-59206831D02*
X90850525Y-59204684D01*
X89927831Y-62223420D02*
X89863129Y-62177409D01*
X170334607Y-62472090D02*
X170253339Y-62486603D01*
X92123969Y-141056201D02*
X92072099Y-141116081D01*
D11*
X174000000Y-150000000D02*
X86000000Y-150000000D01*
D10*
X168385238Y-140339337D02*
X168370728Y-140258086D01*
X91837919Y-141328900D02*
X91773217Y-141374910D01*
X90681792Y-62496743D02*
X90599202Y-62486248D01*
X92498669Y-60770048D02*
X92500816Y-60854972D01*
X91565993Y-59367421D02*
X91637150Y-59403865D01*
X91773217Y-59486528D02*
X91837919Y-59532538D01*
X91706259Y-138595084D02*
X91773217Y-138638010D01*
X170989411Y-62177763D02*
X170924709Y-62223774D01*
X171632587Y-139755546D02*
X171643079Y-139838118D01*
X89233760Y-140339054D02*
X89219247Y-140257786D01*
X89219247Y-61106295D02*
X89208753Y-61023705D01*
X92172961Y-59867579D02*
X92218971Y-59932281D01*
X168679574Y-59867932D02*
X168728566Y-59805589D01*
X168451835Y-140574123D02*
X168425895Y-140497460D01*
X168633563Y-61778020D02*
X168590637Y-61711062D01*
X89927831Y-138638010D02*
X89994789Y-138595084D01*
X90517934Y-59238212D02*
X90599202Y-59223699D01*
X169589582Y-59256991D02*
X169669424Y-59238563D01*
X171275461Y-61905064D02*
X171223591Y-61964945D01*
D11*
X80000000Y-144000000D02*
X80000000Y-56000000D01*
D10*
X170086940Y-59207182D02*
X170170749Y-59213555D01*
X91183115Y-141623226D02*
X91101847Y-141637739D01*
X169917092Y-59207182D02*
X170002016Y-59205035D01*
X171618077Y-139674295D02*
X171632587Y-139755546D01*
X168679503Y-140994004D02*
X168633502Y-140929316D01*
X171649451Y-140091720D02*
X171643079Y-140175512D01*
X169434590Y-62405478D02*
X169359647Y-62375930D01*
X170086563Y-141654607D02*
X170001657Y-141656754D01*
X89274426Y-139515716D02*
X89300372Y-139439037D01*
X170716976Y-141494054D02*
X170643890Y-141527095D01*
X168834975Y-138840135D02*
X168892277Y-138785504D01*
X91262957Y-141604799D02*
X91183115Y-141623226D01*
X92500816Y-60854972D02*
X92500816Y-60854972D01*
X91417949Y-62405124D02*
X91341269Y-62431069D01*
X171369815Y-140929316D02*
X171323814Y-140994004D01*
X171551480Y-140574123D02*
X171521938Y-140649050D01*
X92498669Y-139921539D02*
X92500816Y-140006463D01*
X171051174Y-141279991D02*
X170988844Y-141328973D01*
X171650160Y-60770405D02*
X171652307Y-60855328D01*
X168728566Y-61905064D02*
X168679574Y-61842722D01*
X89300372Y-140573888D02*
X89274426Y-140497209D01*
X92338079Y-140721932D02*
X92301634Y-140793090D01*
X170924709Y-62223774D02*
X170857752Y-62266699D01*
X171412731Y-139151264D02*
X171452459Y-139220358D01*
X89800786Y-141279908D02*
X89740906Y-141228038D01*
X90208157Y-138485853D02*
X90283099Y-138456304D01*
X169434354Y-138456999D02*
X169511017Y-138431059D01*
X168514455Y-61570796D02*
X168481406Y-61497694D01*
X170334179Y-141623234D02*
X170252928Y-141637744D01*
X92261897Y-59999239D02*
X92301634Y-60068348D01*
X91837919Y-138684021D02*
X91900262Y-138733013D01*
X92467288Y-60522382D02*
X92481801Y-60603650D01*
X171649451Y-139921909D02*
X171651598Y-140006814D01*
X168353864Y-60940252D02*
X168351717Y-60855328D01*
X169511017Y-138431059D02*
X169589313Y-138408825D01*
X91262957Y-62453308D02*
X91183115Y-62471735D01*
X171600352Y-60442895D02*
X171618779Y-60522737D01*
X91183115Y-62471735D02*
X91101847Y-62486248D01*
X169014618Y-62177763D02*
X168952274Y-62128771D01*
X168728485Y-138957304D02*
X168780343Y-138897437D01*
X171489571Y-60139858D02*
X171522619Y-60212960D01*
X169511269Y-62431424D02*
X169434590Y-62405478D01*
X169917092Y-62503471D02*
X169833283Y-62497098D01*
X170924156Y-141374973D02*
X170857213Y-141417889D01*
X89219247Y-140257786D02*
X89208753Y-140175196D01*
X89208753Y-61023705D02*
X89202380Y-60939896D01*
X91637150Y-141457573D02*
X91565993Y-141494018D01*
X90935448Y-141654607D02*
X90850525Y-141656754D01*
X168892394Y-59633752D02*
X168952274Y-59581882D01*
X170252928Y-141637744D02*
X170170355Y-141648236D01*
X90438091Y-138408120D02*
X90517934Y-138389692D01*
X170717485Y-62342881D02*
X170644384Y-62375930D01*
X89219247Y-60603650D02*
X89233760Y-60522382D01*
X169286342Y-141494054D02*
X169215200Y-141457618D01*
X168481378Y-139364586D02*
X168514420Y-139291500D01*
X91706259Y-62266345D02*
X91637150Y-62306082D01*
X168353864Y-140091720D02*
X168351717Y-140006814D01*
X91183115Y-138389692D02*
X91262957Y-138408120D01*
X91706259Y-141417836D02*
X91637150Y-141457573D01*
X91637150Y-138555347D02*
X91706259Y-138595084D01*
X169589313Y-141604811D02*
X169511017Y-141582577D01*
X169669424Y-59238563D02*
X169750693Y-59224050D01*
X92426622Y-60364227D02*
X92448860Y-60442540D01*
X89399414Y-140793090D02*
X89362969Y-140721932D01*
X92072099Y-138896841D02*
X92123969Y-138956721D01*
X92123969Y-138956721D02*
X92172961Y-139019065D01*
X89300372Y-61422398D02*
X89274426Y-61345718D01*
X89740906Y-141228038D02*
X89683592Y-141173395D01*
X168679503Y-139019633D02*
X168728485Y-138957304D01*
X171552168Y-60287902D02*
X171578114Y-60364582D01*
X171633292Y-61106651D02*
X171618779Y-61187918D01*
X169916752Y-141654607D02*
X169832961Y-141648236D01*
X90438091Y-141604799D02*
X90359779Y-141582560D01*
X171274833Y-138957304D02*
X171323814Y-139019633D01*
X171577420Y-139516175D02*
X171599654Y-139594470D01*
X170170355Y-138365399D02*
X170252928Y-138375892D01*
X91417949Y-141556615D02*
X91341269Y-141582560D01*
X89200232Y-60854972D02*
X89202380Y-60770048D01*
X170086563Y-138359028D02*
X170170355Y-138365399D01*
X171577420Y-140497460D02*
X171551480Y-140574123D01*
X91417949Y-59304823D02*
X91492891Y-59334372D01*
X91101847Y-59223699D02*
X91183115Y-59238212D01*
X169832961Y-138365399D02*
X169916752Y-138359028D01*
X90063898Y-59403865D02*
X90135055Y-59367421D01*
X169079320Y-62223774D02*
X169014618Y-62177763D01*
X170001657Y-138356881D02*
X170001657Y-138356881D01*
X170717485Y-59367772D02*
X170788643Y-59404217D01*
X89628949Y-59745356D02*
X89683592Y-59688043D01*
X168590585Y-140862373D02*
X168550857Y-140793278D01*
D11*
X80000000Y-144000000D02*
X86000000Y-150000000D01*
D10*
X89202380Y-140091387D02*
X89200232Y-140006463D01*
X89577079Y-59805236D02*
X89628949Y-59745356D01*
X171323814Y-140994004D02*
X171274833Y-141056334D01*
X89362969Y-61570442D02*
X89329921Y-61497340D01*
X89683592Y-138839527D02*
X89740906Y-138784883D01*
X89200232Y-140006463D02*
X89200232Y-140006463D01*
X89740906Y-62076548D02*
X89683592Y-62021905D01*
X170924709Y-59486879D02*
X170989411Y-59532890D01*
X92371128Y-140648831D02*
X92338079Y-140721932D01*
X89208753Y-140175196D02*
X89202380Y-140091387D01*
X168451835Y-139439512D02*
X168481378Y-139364586D01*
X91019257Y-141648234D02*
X90935448Y-141654607D01*
X90359779Y-59278878D02*
X90438091Y-59256640D01*
D11*
X86000000Y-50000000D02*
X174000000Y-50000000D01*
D10*
X168633502Y-140929316D02*
X168590585Y-140862373D01*
X89200232Y-140006463D02*
X89202380Y-139921539D01*
X92448860Y-60442540D02*
X92467288Y-60522382D01*
X168514420Y-140722136D02*
X168481378Y-140649050D01*
X171413389Y-59999592D02*
X171453126Y-60068701D01*
X170857752Y-59443954D02*
X170924709Y-59486879D01*
X170001657Y-141656754D02*
X170001657Y-141656754D01*
X168360237Y-61024060D02*
X168353864Y-60940252D01*
X170857213Y-141417889D02*
X170788118Y-141457618D01*
X170492762Y-62431424D02*
X170414449Y-62453662D01*
X169286545Y-62342881D02*
X169215387Y-62306436D01*
X89482077Y-139083767D02*
X89528087Y-139019065D01*
X171051174Y-138733646D02*
X171111041Y-138785504D01*
X171578114Y-61346073D02*
X171552168Y-61422752D01*
X171522619Y-60212960D02*
X171552168Y-60287902D01*
X92498669Y-140091387D02*
X92492296Y-140175196D01*
X171652307Y-60855328D02*
X171652307Y-60855328D01*
X171051754Y-62128771D02*
X170989411Y-62177763D01*
X169215200Y-141457618D02*
X169146105Y-141417889D01*
X90208157Y-141527066D02*
X90135055Y-141494018D01*
X169359428Y-141527095D02*
X169286342Y-141494054D01*
X171632587Y-140258086D02*
X171618077Y-140339337D01*
X91101847Y-138375179D02*
X91183115Y-138389692D01*
X90599202Y-62486248D02*
X90517934Y-62471735D01*
X92218971Y-61777666D02*
X92172961Y-61842368D01*
X91341269Y-62431069D02*
X91262957Y-62453308D01*
X170170355Y-141648236D02*
X170086563Y-141654607D01*
X90359779Y-141582560D02*
X90283099Y-141556615D01*
X89683592Y-62021905D02*
X89628949Y-61964591D01*
X91492891Y-138485853D02*
X91565993Y-138518902D01*
X92301634Y-139219834D02*
X92338079Y-139290992D01*
X169146105Y-138595748D02*
X169215200Y-138556019D01*
X92172961Y-61842368D02*
X92123969Y-61904711D01*
X89202380Y-60770048D02*
X89208753Y-60686240D01*
X170001657Y-138356881D02*
X170086563Y-138359028D01*
X89800786Y-62128417D02*
X89740906Y-62076548D01*
X170857752Y-62266699D02*
X170788643Y-62306436D01*
X168633502Y-139084321D02*
X168679503Y-139019633D01*
X170002016Y-59205035D02*
X170086940Y-59207182D01*
X89628949Y-138896841D02*
X89683592Y-138839527D01*
X170002016Y-62505618D02*
X170002016Y-62505618D01*
X169215387Y-59404217D02*
X169286545Y-59367772D01*
X89994789Y-138595084D02*
X90063898Y-138555347D01*
X92500816Y-140006463D02*
X92500816Y-140006463D01*
X168403662Y-140419163D02*
X168385238Y-140339337D01*
X92218971Y-139083767D02*
X92261897Y-139150725D01*
X171651598Y-140006814D02*
X171651598Y-140006814D01*
X171489571Y-61570796D02*
X171453126Y-61641953D01*
X169669138Y-141623234D02*
X169589313Y-141604811D01*
X168892394Y-62076902D02*
X168835080Y-62022258D01*
X170414004Y-141604811D02*
X170334179Y-141623234D01*
X89208753Y-60686240D02*
X89219247Y-60603650D01*
X90135055Y-141494018D02*
X90063898Y-141457573D01*
X91960142Y-141228038D02*
X91900262Y-141279908D01*
X168351717Y-60855328D02*
X168351717Y-60855328D01*
X92426622Y-140497209D02*
X92400676Y-140573888D01*
X89399414Y-61641599D02*
X89362969Y-61570442D01*
X91706259Y-59443602D02*
X91773217Y-59486528D01*
X171521938Y-139364586D02*
X171551480Y-139439512D01*
X168835080Y-59688395D02*
X168892394Y-59633752D01*
X91262957Y-138408120D02*
X91341269Y-138430358D01*
X89863129Y-138684021D02*
X89927831Y-138638010D01*
X170788118Y-138556019D02*
X170857213Y-138595748D01*
X170086940Y-62503471D02*
X170002016Y-62505618D01*
X169359428Y-138486541D02*
X169434354Y-138456999D01*
X170568963Y-138456999D02*
X170643890Y-138486541D01*
X90599202Y-141637739D02*
X90517934Y-141623226D01*
X89329921Y-139364094D02*
X89362969Y-139290992D01*
X168425911Y-60364582D02*
X168451857Y-60287902D01*
X171453126Y-61641953D02*
X171413389Y-61711062D01*
X171453126Y-60068701D02*
X171489571Y-60139858D01*
X170170749Y-59213555D02*
X170253339Y-59224050D01*
X89994789Y-59443602D02*
X90063898Y-59403865D01*
X171599654Y-140419163D02*
X171577420Y-140497460D01*
X91565993Y-138518902D02*
X91637150Y-138555347D01*
X90850525Y-138356164D02*
X90850525Y-138356164D01*
X90063898Y-138555347D02*
X90135055Y-138518902D01*
X168425895Y-140497460D02*
X168403662Y-140419163D01*
X91019257Y-59213204D02*
X91101847Y-59223699D01*
X89740906Y-138784883D02*
X89800786Y-138733013D01*
X168590585Y-139151264D02*
X168633502Y-139084321D01*
X92301634Y-140793090D02*
X92261897Y-140862199D01*
X92218971Y-59932281D02*
X92261897Y-59999239D01*
X92448860Y-140418896D02*
X92426622Y-140497209D01*
X170988844Y-138684664D02*
X171051174Y-138733646D01*
X92481801Y-140257786D02*
X92467288Y-140339054D01*
X91019257Y-138364684D02*
X91101847Y-138375179D01*
X168679574Y-61842722D02*
X168633563Y-61778020D01*
X91837919Y-62177409D02*
X91773217Y-62223420D01*
X91900262Y-62128417D02*
X91837919Y-62177409D01*
X169286342Y-138519582D02*
X169359428Y-138486541D01*
X168360235Y-139838118D02*
X168370728Y-139755546D01*
X91637150Y-59403865D02*
X91706259Y-59443602D01*
X89208753Y-139837730D02*
X89219247Y-139755140D01*
X171324453Y-59867932D02*
X171370463Y-59932634D01*
X171643787Y-60686596D02*
X171650160Y-60770405D01*
X92172961Y-140993858D02*
X92123969Y-141056201D01*
X171223591Y-61964945D02*
X171168948Y-62022258D01*
X169589313Y-138408825D02*
X169669138Y-138390402D01*
X169286545Y-59367772D02*
X169359647Y-59334723D01*
X168835080Y-62022258D02*
X168780436Y-61964945D01*
X168353864Y-139921909D02*
X168360235Y-139838118D01*
X170788643Y-62306436D02*
X170717485Y-62342881D01*
X92017455Y-59688043D02*
X92072099Y-59745356D01*
X169589582Y-62453662D02*
X169511269Y-62431424D01*
X171168342Y-141173502D02*
X171111041Y-141228133D01*
X89362969Y-140721932D02*
X89329921Y-140648831D01*
X170492762Y-59279229D02*
X170569441Y-59305174D01*
X168451857Y-61422752D02*
X168425911Y-61346073D01*
X171618779Y-61187918D02*
X171600352Y-61267760D01*
X170988844Y-141328973D02*
X170924156Y-141374973D01*
X92172961Y-139019065D02*
X92218971Y-139083767D01*
X169434590Y-59305174D02*
X169511269Y-59279229D01*
X170716976Y-138519582D02*
X170788118Y-138556019D01*
X171370463Y-61778020D02*
X171324453Y-61842722D01*
X89233760Y-60522382D02*
X89252188Y-60442540D01*
X89439151Y-61710709D02*
X89399414Y-61641599D01*
X89800786Y-138733013D02*
X89863129Y-138684021D01*
X171370463Y-59932634D02*
X171413389Y-59999592D01*
X92301634Y-60068348D02*
X92338079Y-60139505D01*
X171488896Y-140722136D02*
X171452459Y-140793278D01*
X92498669Y-60939896D02*
X92492296Y-61023705D01*
X170253339Y-59224050D02*
X170334607Y-59238563D01*
X89482077Y-59932281D02*
X89528087Y-59867579D01*
X90135055Y-138518902D02*
X90208157Y-138485853D01*
X90063898Y-141457573D02*
X89994789Y-141417836D01*
X91565993Y-62342527D02*
X91492891Y-62375575D01*
X90935448Y-62503116D02*
X90850525Y-62505263D01*
X89482077Y-61777666D02*
X89439151Y-61710709D01*
X89219247Y-139755140D02*
X89233760Y-139673871D01*
X92492296Y-60686240D02*
X92498669Y-60770048D01*
X168481378Y-140649050D02*
X168451835Y-140574123D01*
X90208157Y-62375575D02*
X90135055Y-62342527D01*
X89482077Y-140929156D02*
X89439151Y-140862199D01*
X91101847Y-62486248D02*
X91019257Y-62496743D01*
X170644384Y-62375930D02*
X170569441Y-62405478D01*
X171274833Y-141056334D02*
X171222974Y-141116201D01*
X170568963Y-141556638D02*
X170492300Y-141582577D01*
X169079320Y-59486879D02*
X169146278Y-59443954D01*
X89628949Y-61964591D02*
X89577079Y-61904711D01*
X171643787Y-61024060D02*
X171633292Y-61106651D01*
X168370728Y-139755546D02*
X168385238Y-139674295D01*
X168514420Y-139291500D02*
X168550857Y-139220358D01*
X168351717Y-140006814D02*
X168353864Y-139921909D01*
X89252188Y-61267406D02*
X89233760Y-61187563D01*
X91341269Y-138430358D02*
X91417949Y-138456304D01*
X168780436Y-61964945D02*
X168728566Y-61905064D01*
X169014618Y-59532890D02*
X169079320Y-59486879D01*
X89202380Y-139921539D02*
X89208753Y-139837730D01*
X169434354Y-141556638D02*
X169359428Y-141527095D01*
X89528087Y-139019065D02*
X89577079Y-138956721D01*
X92467288Y-61187563D02*
X92448860Y-61267406D01*
X91101847Y-141637739D02*
X91019257Y-141648234D01*
X170170749Y-62497098D02*
X170086940Y-62503471D01*
X89329921Y-140648831D02*
X89300372Y-140573888D01*
X169014474Y-141328973D02*
X168952144Y-141279991D01*
X170569441Y-62405478D02*
X170492762Y-62431424D01*
X92301634Y-61641599D02*
X92261897Y-61710709D01*
X171633292Y-60604005D02*
X171643787Y-60686596D01*
X91492891Y-141527066D02*
X91417949Y-141556615D01*
X91960142Y-138784883D02*
X92017455Y-138839527D01*
X168952144Y-138733646D02*
X169014474Y-138684664D01*
X89439151Y-140862199D02*
X89399414Y-140793090D01*
X89233760Y-139673871D02*
X89252188Y-139594029D01*
D11*
X80000000Y-56000000D02*
X86000000Y-50000000D01*
D10*
X90063898Y-62306082D02*
X89994789Y-62266345D01*
X171650160Y-60940252D02*
X171643787Y-61024060D01*
M02*
