%TF.GenerationSoftware,KiCad,Pcbnew,(6.0.8)*%
%TF.CreationDate,2023-01-19T16:40:20-07:00*%
%TF.ProjectId,Panel,50616e65-6c2e-46b6-9963-61645f706362,rev?*%
%TF.SameCoordinates,Original*%
%TF.FileFunction,Drillmap*%
%TF.FilePolarity,Positive*%
%FSLAX45Y45*%
G04 Gerber Fmt 4.5, Leading zero omitted, Abs format (unit mm)*
G04 Created by KiCad (PCBNEW (6.0.8)) date 2023-01-19 16:40:20*
%MOMM*%
%LPD*%
G01*
G04 APERTURE LIST*
%ADD10C,0.352776*%
%ADD11C,0.100000*%
%ADD12C,0.200000*%
%ADD13C,0.300000*%
G04 APERTURE END LIST*
D10*
X9059920Y-13837518D02*
X9068179Y-13836468D01*
X8992783Y-14137491D02*
X8986313Y-14132890D01*
X17000202Y-5920503D02*
X17000202Y-5920503D01*
X8952809Y-14099386D02*
X8948208Y-14092916D01*
X17064438Y-5933472D02*
X17071749Y-5936777D01*
X16836024Y-14017551D02*
X16835386Y-14009172D01*
X9183792Y-5953254D02*
X9190026Y-5958153D01*
X17064389Y-13848654D02*
X17071698Y-13851958D01*
X9240068Y-13943904D02*
X9242662Y-13951572D01*
X9076560Y-14165461D02*
X9068179Y-14164823D01*
X17165160Y-14000681D02*
X17165160Y-14000681D01*
X9190026Y-5958153D02*
X9196014Y-5963340D01*
X9240068Y-14057389D02*
X9237113Y-14064883D01*
X9248180Y-6110629D02*
X9246729Y-6118756D01*
X16883498Y-14117350D02*
X16878034Y-14111620D01*
X9226190Y-6171071D02*
X9221897Y-6177767D01*
X9177322Y-13863801D02*
X9183792Y-13868402D01*
X8920023Y-6085497D02*
X8920023Y-6085497D01*
X16838525Y-6118792D02*
X16837073Y-6110665D01*
X8927443Y-6134572D02*
X8925219Y-6126741D01*
X16907916Y-13863866D02*
X16914611Y-13859575D01*
X9118312Y-5923821D02*
X9126296Y-5925664D01*
X9085053Y-5920468D02*
X9085053Y-5920468D01*
X9051793Y-6247173D02*
X9043809Y-6245331D01*
X16966942Y-6247209D02*
X16958958Y-6245366D01*
X17152262Y-6149769D02*
X17148957Y-6157080D01*
X8957708Y-13895672D02*
X8962895Y-13889684D01*
X17122359Y-5974571D02*
X17127546Y-5980559D01*
X8957708Y-6190471D02*
X8952809Y-6184237D01*
X9244886Y-13959403D02*
X9246729Y-13967387D01*
X17155217Y-6142275D02*
X17152262Y-6149769D01*
X17127546Y-5980559D02*
X17132445Y-5986793D01*
X9250082Y-6085497D02*
X9249867Y-6093990D01*
X16921520Y-13855602D02*
X16928634Y-13851958D01*
X9250082Y-6085497D02*
X9250082Y-6085497D01*
X16848141Y-6149769D02*
X16845186Y-6142275D01*
X9250082Y-14000646D02*
X9249867Y-14009139D01*
X8925219Y-14041890D02*
X8923376Y-14033905D01*
X8943915Y-5999924D02*
X8948208Y-5993228D01*
X17111104Y-13878550D02*
X17116834Y-13884013D01*
X17141273Y-14086237D02*
X17136982Y-14092932D01*
X16878034Y-13889744D02*
X16883498Y-13884013D01*
X16859064Y-6171106D02*
X16855090Y-6164195D01*
X16975069Y-6248660D02*
X16966942Y-6247209D01*
X9028310Y-5930482D02*
X9035978Y-5927888D01*
X16951127Y-5927923D02*
X16958958Y-5925699D01*
X9149289Y-5933437D02*
X9156599Y-5936742D01*
X9068179Y-13836468D02*
X9076560Y-13835831D01*
X8943915Y-13915072D02*
X8948208Y-13908377D01*
X9249230Y-13983773D02*
X9249867Y-13992154D01*
X9249230Y-14017520D02*
X9248180Y-14025779D01*
X9201746Y-13883953D02*
X9207210Y-13889684D01*
X16966914Y-13839040D02*
X16975039Y-13837589D01*
X17056944Y-5930517D02*
X17064438Y-5933472D01*
X16901447Y-13868466D02*
X16907916Y-13863866D01*
X8952809Y-5986758D02*
X8957708Y-5980524D01*
D11*
X17400000Y-15000000D02*
X18000000Y-14400000D01*
D10*
X17085721Y-13859575D02*
X17092416Y-13863866D01*
X9212397Y-6190471D02*
X9207210Y-6196459D01*
X16907916Y-14137497D02*
X16901447Y-14132897D01*
X17064389Y-14152709D02*
X17056896Y-14155664D01*
X9028310Y-13845630D02*
X9035978Y-13843036D01*
X9035978Y-13843036D02*
X9043809Y-13840812D01*
X8930037Y-6028755D02*
X8932992Y-6021261D01*
X16889228Y-13878550D02*
X16895214Y-13873365D01*
X16895227Y-5958188D02*
X16901462Y-5953289D01*
X16838525Y-6052274D02*
X16840367Y-6044289D01*
X16855086Y-14079328D02*
X16851442Y-14072214D01*
X16855086Y-13922036D02*
X16859059Y-13915126D01*
X9051793Y-14162323D02*
X9043809Y-14160480D01*
X17105175Y-5958188D02*
X17111163Y-5963375D01*
X8930037Y-13943904D02*
X8932992Y-13936409D01*
X9240068Y-6028755D02*
X9242662Y-6036423D01*
X9013506Y-5936742D02*
X9020816Y-5933437D01*
X9237113Y-6149734D02*
X9233808Y-6157044D01*
X8986313Y-6217741D02*
X8980079Y-6212842D01*
X16991675Y-13835903D02*
X17000166Y-13835688D01*
X9248180Y-13975514D02*
X9249230Y-13983773D01*
X9085053Y-13835616D02*
X9093545Y-13835831D01*
X9043809Y-6245331D02*
X9035978Y-6243107D01*
X9249230Y-6102370D02*
X9248180Y-6110629D01*
X16895214Y-14127999D02*
X16889228Y-14122813D01*
X9013506Y-6234253D02*
X9006390Y-6230608D01*
X9149289Y-6237557D02*
X9141795Y-6240512D01*
X16855090Y-6006870D02*
X16859064Y-5999959D01*
X16975069Y-5922405D02*
X16983328Y-5921355D01*
X9177322Y-14137491D02*
X9170626Y-14141784D01*
X16835386Y-6077040D02*
X16836024Y-6068660D01*
X9207210Y-5974536D02*
X9212397Y-5980524D01*
X16921539Y-6230644D02*
X16914628Y-6226670D01*
X9246729Y-14033905D02*
X9244886Y-14041890D01*
X16835172Y-6085533D02*
X16835386Y-6077040D01*
X9242662Y-13951572D02*
X9244886Y-13959403D01*
X9163715Y-6230608D02*
X9156599Y-6234253D01*
X17152194Y-14064905D02*
X17148890Y-14072214D01*
X16878044Y-5974571D02*
X16883508Y-5968839D01*
X8962895Y-14111608D02*
X8957708Y-14105620D01*
X9177322Y-6222342D02*
X9170626Y-6226634D01*
X17098941Y-5953289D02*
X17105175Y-5958188D01*
X17078864Y-5940422D02*
X17085775Y-5944395D01*
X17116895Y-6202226D02*
X17111163Y-6207690D01*
X17078812Y-14145762D02*
X17071698Y-14149405D01*
X17000166Y-14165675D02*
X16991675Y-14165461D01*
X17000202Y-6250562D02*
X16991709Y-6250347D01*
X8936297Y-13929099D02*
X8939941Y-13921983D01*
X17132381Y-13901963D02*
X17136982Y-13908432D01*
X16983296Y-14164824D02*
X16975039Y-14163774D01*
X9190026Y-14127991D02*
X9183792Y-14132890D01*
X16842591Y-6134607D02*
X16840367Y-6126776D01*
X9233808Y-6013950D02*
X9237113Y-6021261D01*
X17136982Y-13908432D02*
X17141273Y-13915126D01*
X9076560Y-6250312D02*
X9068179Y-6249674D01*
X17049230Y-14158258D02*
X17041400Y-14160481D01*
X17122297Y-14111620D02*
X17116834Y-14117350D01*
X17025293Y-13837589D02*
X17033418Y-13839040D01*
X17049230Y-13843106D02*
X17056896Y-13845700D01*
X8932992Y-6021261D02*
X8936297Y-6013950D01*
X16951102Y-14158258D02*
X16943435Y-14155664D01*
X9242662Y-6134572D02*
X9240068Y-6142240D01*
X16935965Y-6237593D02*
X16928655Y-6234288D01*
X8939941Y-6006835D02*
X8943915Y-5999924D01*
X9126296Y-5925664D02*
X9134127Y-5927888D01*
X8999479Y-6226634D02*
X8992783Y-6222342D01*
X17157811Y-6036458D02*
X17160035Y-6044289D01*
X17132445Y-6184272D02*
X17127546Y-6190506D01*
X17165231Y-6085533D02*
X17165016Y-6094025D01*
X17116895Y-5968839D02*
X17122359Y-5974571D01*
X16848141Y-6021296D02*
X16851446Y-6013986D01*
X9068179Y-5921320D02*
X9076560Y-5920683D01*
X8986313Y-14132890D02*
X8980079Y-14127991D01*
X9051793Y-13838969D02*
X9059920Y-13837518D01*
X8957708Y-14105620D02*
X8952809Y-14099386D01*
X16983328Y-6249710D02*
X16975069Y-6248660D01*
X9240068Y-6142240D02*
X9237113Y-6149734D01*
X8986313Y-5953254D02*
X8992783Y-5948653D01*
X8999479Y-14141784D02*
X8992783Y-14137491D01*
X9141795Y-13845630D02*
X9149289Y-13848585D01*
X8920238Y-6093990D02*
X8920023Y-6085497D01*
X9085053Y-6250526D02*
X9076560Y-6250312D01*
X17155148Y-13943951D02*
X17157742Y-13951617D01*
X9196014Y-6207655D02*
X9190026Y-6212842D01*
X8968359Y-14117339D02*
X8962895Y-14111608D01*
X16914628Y-6226670D02*
X16907932Y-6222377D01*
X17160035Y-6126776D02*
X17157811Y-6134607D01*
X16872857Y-5980559D02*
X16878044Y-5974571D01*
X9134127Y-5927888D02*
X9141795Y-5930482D01*
X8927443Y-6036423D02*
X8930037Y-6028755D01*
X17145246Y-14079328D02*
X17141273Y-14086237D01*
X9207210Y-6196459D02*
X9201746Y-6202190D01*
X16838524Y-13967429D02*
X16840366Y-13959447D01*
X17041445Y-6245366D02*
X17033461Y-6247209D01*
X16840367Y-6044289D02*
X16842591Y-6036458D01*
X9035978Y-6243107D02*
X9028310Y-6240512D01*
X16872849Y-14105633D02*
X16867950Y-14099400D01*
X8952809Y-6184237D02*
X8948208Y-6177767D01*
X16935965Y-5933472D02*
X16943459Y-5930517D01*
X9093545Y-5920683D02*
X9101926Y-5921320D01*
X9246729Y-13967387D02*
X9248180Y-13975514D01*
X16975039Y-14163774D02*
X16966914Y-14162323D01*
X9221897Y-14092916D02*
X9217296Y-14099386D01*
X9068179Y-14164823D02*
X9059920Y-14163774D01*
X9059920Y-5922370D02*
X9068179Y-5921320D01*
X17164308Y-14017551D02*
X17163259Y-14025809D01*
X8925219Y-13959403D02*
X8927443Y-13951572D01*
X17116834Y-13884013D02*
X17122297Y-13889744D01*
X17165160Y-14000681D02*
X17164945Y-14009172D01*
X17111104Y-14122813D02*
X17105117Y-14127999D01*
X9201746Y-14117339D02*
X9196014Y-14122804D01*
X16863356Y-5993263D02*
X16867957Y-5986793D01*
X9237113Y-13936409D02*
X9240068Y-13943904D01*
X17092416Y-13863866D02*
X17098884Y-13868466D01*
X16859064Y-5999959D02*
X16863356Y-5993263D01*
X17041445Y-5925699D02*
X17049276Y-5927923D01*
X16840366Y-13959447D02*
X16842590Y-13951617D01*
X16975039Y-13837589D02*
X16983296Y-13836540D01*
X16845186Y-6028790D02*
X16848141Y-6021296D01*
X17161878Y-6052274D02*
X17163329Y-6060400D01*
X9244886Y-6126741D02*
X9242662Y-6134572D01*
X8936297Y-6013950D02*
X8939941Y-6006835D01*
X17161808Y-14033934D02*
X17159965Y-14041916D01*
X16878034Y-14111620D02*
X16872849Y-14105633D01*
X16837073Y-6060400D02*
X16838525Y-6052274D01*
D11*
X18000000Y-5600000D02*
X18000000Y-14400000D01*
D10*
X9085053Y-5920468D02*
X9093545Y-5920683D01*
X8980079Y-5958153D02*
X8986313Y-5953254D01*
X16836024Y-6068660D02*
X16837073Y-6060400D01*
X8992783Y-5948653D02*
X8999479Y-5944360D01*
X16983328Y-5921355D02*
X16991709Y-5920718D01*
X9226190Y-14086220D02*
X9221897Y-14092916D01*
X9085053Y-6250526D02*
X9085053Y-6250526D01*
X16914628Y-5944395D02*
X16921539Y-5940422D01*
X8974091Y-5963340D02*
X8980079Y-5958153D01*
X17111163Y-6207690D02*
X17105175Y-6212877D01*
X9028310Y-14155661D02*
X9020816Y-14152707D01*
X9043809Y-5925664D02*
X9051793Y-5923821D01*
X16840367Y-6126776D02*
X16838525Y-6118792D01*
X17033418Y-13839040D02*
X17041400Y-13840882D01*
X17148890Y-13929150D02*
X17152194Y-13936459D01*
X16889228Y-14122813D02*
X16883498Y-14117350D01*
X16837073Y-14025809D02*
X16836024Y-14017551D01*
X8939941Y-13921983D02*
X8943915Y-13915072D01*
X9101926Y-6249674D02*
X9093545Y-6250312D01*
X9196014Y-5963340D02*
X9201746Y-5968804D01*
X17033461Y-5923856D02*
X17041445Y-5925699D01*
X17165231Y-6085533D02*
X17165231Y-6085533D01*
X9233808Y-13929099D02*
X9237113Y-13936409D01*
X16914611Y-14141789D02*
X16907916Y-14137497D01*
X9237113Y-6021261D02*
X9240068Y-6028755D01*
X9201746Y-6202190D02*
X9196014Y-6207655D01*
X17141339Y-6171106D02*
X17137046Y-6177802D01*
X9085053Y-14165675D02*
X9085053Y-14165675D01*
X9028310Y-6240512D02*
X9020816Y-6237557D01*
X17159965Y-13959447D02*
X17161808Y-13967429D01*
X16837073Y-6110665D02*
X16836024Y-6102406D01*
X9020816Y-5933437D02*
X9028310Y-5930482D01*
X8968359Y-5968804D02*
X8974091Y-5963340D01*
X9248180Y-6060365D02*
X9249230Y-6068624D01*
X8925219Y-6044254D02*
X8927443Y-6036423D01*
X17145246Y-13922036D02*
X17148890Y-13929150D01*
X9212397Y-5980524D02*
X9217296Y-5986758D01*
X16855090Y-6164195D02*
X16851446Y-6157080D01*
X16842590Y-13951617D02*
X16845184Y-13943951D01*
X16895227Y-6212877D02*
X16889239Y-6207690D01*
X9076560Y-13835831D02*
X9085053Y-13835616D01*
X9226190Y-13915072D02*
X9230163Y-13921983D01*
X17164308Y-13983812D02*
X17164945Y-13992191D01*
X9156599Y-14149402D02*
X9149289Y-14152707D01*
X8923376Y-6118756D02*
X8921925Y-6110629D01*
X9250082Y-14000646D02*
X9250082Y-14000646D01*
X17025334Y-6248660D02*
X17017075Y-6249710D01*
X9190026Y-13873301D02*
X9196014Y-13878488D01*
X9085053Y-14165675D02*
X9076560Y-14165461D01*
X9207210Y-14111608D02*
X9201746Y-14117339D01*
X8932992Y-6149734D02*
X8930037Y-6142240D01*
X9093545Y-13835831D02*
X9101926Y-13836468D01*
X17122297Y-13889744D02*
X17127483Y-13895730D01*
X8927443Y-14049721D02*
X8925219Y-14041890D01*
D11*
X18000000Y-5600000D02*
X17400000Y-5000000D01*
D10*
X16835172Y-14000681D02*
X16835172Y-14000681D01*
X17041400Y-13840882D02*
X17049230Y-13843106D01*
X9233808Y-6157044D02*
X9230163Y-6164160D01*
X17111163Y-5963375D02*
X17116895Y-5968839D01*
X9134127Y-14158256D02*
X9126296Y-14160480D01*
X16851446Y-6013986D02*
X16855090Y-6006870D01*
X9076560Y-5920683D02*
X9085053Y-5920468D01*
X8992783Y-6222342D02*
X8986313Y-6217741D01*
X17033461Y-6247209D02*
X17025334Y-6248660D01*
X9212397Y-14105620D02*
X9207210Y-14111608D01*
D11*
X17400000Y-15000000D02*
X8600000Y-15000000D01*
D10*
X16838524Y-14033934D02*
X16837073Y-14025809D01*
X9183792Y-14132890D02*
X9177322Y-14137491D01*
X9068179Y-6249674D02*
X9059920Y-6248625D01*
X9249867Y-6077005D02*
X9250082Y-6085497D01*
X9156599Y-5936742D02*
X9163715Y-5940386D01*
X9177322Y-5948653D02*
X9183792Y-5953254D01*
X9170626Y-13859508D02*
X9177322Y-13863801D01*
X17098941Y-6217776D02*
X17092471Y-6222377D01*
X17163259Y-13975555D02*
X17164308Y-13983812D01*
X8923376Y-14033905D02*
X8921925Y-14025779D01*
X8921925Y-6110629D02*
X8920875Y-6102370D01*
X9217296Y-5986758D02*
X9221897Y-5993228D01*
X16867957Y-5986793D02*
X16872857Y-5980559D01*
X16845184Y-14057412D02*
X16842590Y-14049746D01*
X16863356Y-6177802D02*
X16859064Y-6171106D01*
X8992783Y-13863801D02*
X8999479Y-13859508D01*
X9051793Y-5923821D02*
X9059920Y-5922370D01*
X16958958Y-5925699D02*
X16966942Y-5923856D01*
X17127546Y-6190506D02*
X17122359Y-6196494D01*
D11*
X8000000Y-14400000D02*
X8000000Y-5600000D01*
D10*
X17008694Y-5920718D02*
X17017075Y-5921355D01*
X9118312Y-14162323D02*
X9110185Y-14163774D01*
X16991709Y-5920718D02*
X17000202Y-5920503D01*
X17161808Y-13967429D02*
X17163259Y-13975555D01*
X16867950Y-14099400D02*
X16863350Y-14092932D01*
X17164945Y-14009172D02*
X17164308Y-14017551D01*
X16943459Y-6240548D02*
X16935965Y-6237593D01*
X17008656Y-14165461D02*
X17000166Y-14165675D01*
X8927443Y-13951572D02*
X8930037Y-13943904D01*
X17071698Y-14149405D02*
X17064389Y-14152709D01*
X16883498Y-13884013D02*
X16889228Y-13878550D01*
X9126296Y-14160480D02*
X9118312Y-14162323D01*
X9250082Y-6085497D02*
X9250082Y-6085497D01*
X9141795Y-6240512D02*
X9134127Y-6243107D01*
X17136982Y-14092932D02*
X17132381Y-14099400D01*
X17155148Y-14057412D02*
X17152194Y-14064905D01*
X9249867Y-13992154D02*
X9250082Y-14000646D01*
X17105117Y-14127999D02*
X17098884Y-14132897D01*
X17165016Y-6077040D02*
X17165231Y-6085533D01*
X16872857Y-6190506D02*
X16867957Y-6184272D01*
X8930037Y-14057389D02*
X8927443Y-14049721D01*
X9233808Y-14072193D02*
X9230163Y-14079309D01*
X17092471Y-6222377D02*
X17085775Y-6226670D01*
X17141273Y-13915126D02*
X17145246Y-13922036D01*
X8980079Y-14127991D02*
X8974091Y-14122804D01*
X9020816Y-13848585D02*
X9028310Y-13845630D01*
X16943435Y-13845700D02*
X16951102Y-13843106D01*
X16851446Y-6157080D02*
X16848141Y-6149769D01*
X17033418Y-14162323D02*
X17025293Y-14163774D01*
X9226190Y-5999924D02*
X9230163Y-6006835D01*
X9183792Y-13868402D02*
X9190026Y-13873301D01*
X9246729Y-6052238D02*
X9248180Y-6060365D01*
X17164945Y-13992191D02*
X17165160Y-14000681D01*
X16835386Y-6094025D02*
X16835172Y-6085533D01*
X16951102Y-13843106D02*
X16958931Y-13840882D01*
X9126296Y-6245331D02*
X9118312Y-6247173D01*
X17160035Y-6044289D02*
X17161878Y-6052274D01*
X9118312Y-6247173D02*
X9110185Y-6248625D01*
X16901462Y-6217776D02*
X16895227Y-6212877D01*
X16872849Y-13895730D02*
X16878034Y-13889744D01*
X17148957Y-6013986D02*
X17152262Y-6021296D01*
X16951127Y-6243142D02*
X16943459Y-6240548D01*
X16991709Y-6250347D02*
X16983328Y-6249710D01*
X17092416Y-14137497D02*
X17085721Y-14141789D01*
X8921925Y-14025779D02*
X8920875Y-14017520D01*
X8920875Y-6102370D02*
X8920238Y-6093990D01*
X9163715Y-14145757D02*
X9156599Y-14149402D01*
X9093545Y-14165461D02*
X9085053Y-14165675D01*
X16889239Y-5963375D02*
X16895227Y-5958188D01*
X17025293Y-14163774D02*
X17017036Y-14164824D01*
X9043809Y-13840812D02*
X9051793Y-13838969D01*
X17071749Y-6234288D02*
X17064438Y-6237593D01*
X8921925Y-6060365D02*
X8923376Y-6052238D01*
X16928634Y-14149405D02*
X16921520Y-14145762D01*
X16848138Y-13936459D02*
X16851442Y-13929150D01*
X9170626Y-6226634D02*
X9163715Y-6230608D01*
X16835386Y-14009172D02*
X16835172Y-14000681D01*
X9118312Y-13838969D02*
X9126296Y-13840812D01*
X9170626Y-14141784D02*
X9163715Y-14145757D01*
X9163715Y-13855535D02*
X9170626Y-13859508D01*
X16958931Y-14160481D02*
X16951102Y-14158258D01*
X16966942Y-5923856D02*
X16975069Y-5922405D01*
X9242662Y-6036423D02*
X9244886Y-6044254D01*
X8939941Y-14079309D02*
X8936297Y-14072193D01*
X9207210Y-13889684D02*
X9212397Y-13895672D01*
X9212397Y-13895672D02*
X9217296Y-13901906D01*
X8930037Y-6142240D02*
X8927443Y-6134572D01*
X8974091Y-14122804D02*
X8968359Y-14117339D01*
X16867950Y-13901963D02*
X16872849Y-13895730D01*
X17155217Y-6028790D02*
X17157811Y-6036458D01*
X17163329Y-6110665D02*
X17161878Y-6118792D01*
X16991675Y-14165461D02*
X16983296Y-14164824D01*
X9043809Y-14160480D02*
X9035978Y-14158256D01*
X17127483Y-13895730D02*
X17132381Y-13901963D01*
X17157742Y-13951617D02*
X17159965Y-13959447D01*
X17017036Y-13836540D02*
X17025293Y-13837589D01*
X9141795Y-14155661D02*
X9134127Y-14158256D01*
X8920023Y-6085497D02*
X8920238Y-6077005D01*
X17008656Y-13835903D02*
X17017036Y-13836540D01*
X17157742Y-14049746D02*
X17155148Y-14057412D01*
X9141795Y-5930482D02*
X9149289Y-5933437D01*
X9110185Y-5922370D02*
X9118312Y-5923821D01*
X16983296Y-13836540D02*
X16991675Y-13835903D01*
X9006390Y-5940386D02*
X9013506Y-5936742D01*
X16907932Y-6222377D02*
X16901462Y-6217776D01*
X17000166Y-13835688D02*
X17000166Y-13835688D01*
X17071749Y-5936777D02*
X17078864Y-5940422D01*
X8962895Y-5974536D02*
X8968359Y-5968804D01*
X16859059Y-14086237D02*
X16855086Y-14079328D01*
D11*
X8000000Y-14400000D02*
X8600000Y-15000000D01*
D10*
X8920238Y-14009139D02*
X8920023Y-14000646D01*
X8957708Y-5980524D02*
X8962895Y-5974536D01*
X17132381Y-14099400D02*
X17127483Y-14105633D01*
X8936297Y-6157044D02*
X8932992Y-6149734D01*
X8968359Y-13883953D02*
X8974091Y-13878488D01*
X8920023Y-14000646D02*
X8920023Y-14000646D01*
X8974091Y-6207655D02*
X8968359Y-6202190D01*
X17092471Y-5948688D02*
X17098941Y-5953289D01*
X9237113Y-14064883D02*
X9233808Y-14072193D01*
X8920875Y-14017520D02*
X8920238Y-14009139D01*
X16845184Y-13943951D02*
X16848138Y-13936459D01*
X9101926Y-14164823D02*
X9093545Y-14165461D01*
X9035978Y-5927888D02*
X9043809Y-5925664D01*
D11*
X8600000Y-5000000D02*
X17400000Y-5000000D01*
D10*
X16863350Y-14092932D02*
X16859059Y-14086237D01*
X8920023Y-14000646D02*
X8920238Y-13992154D01*
X9244886Y-6044254D02*
X9246729Y-6052238D01*
X16851442Y-14072214D02*
X16848138Y-14064905D01*
X17141339Y-5999959D02*
X17145313Y-6006870D01*
X17085775Y-5944395D02*
X17092471Y-5948688D01*
X17000166Y-14165675D02*
X17000166Y-14165675D01*
X16836024Y-6102406D02*
X16835386Y-6094025D01*
X17085721Y-14141789D02*
X17078812Y-14145762D01*
X17049276Y-6243142D02*
X17041445Y-6245366D01*
X16928655Y-6234288D02*
X16921539Y-6230644D01*
X8948208Y-13908377D02*
X8952809Y-13901906D01*
X17105117Y-13873365D02*
X17111104Y-13878550D01*
X17157811Y-6134607D02*
X17155217Y-6142275D01*
X17152262Y-6021296D02*
X17155217Y-6028790D01*
X9249867Y-14009139D02*
X9249230Y-14017520D01*
X17165231Y-6085533D02*
X17165231Y-6085533D01*
X17105175Y-6212877D02*
X17098941Y-6217776D01*
X16921520Y-14145762D02*
X16914611Y-14141789D01*
X9020816Y-14152707D02*
X9013506Y-14149402D01*
X16935943Y-14152709D02*
X16928634Y-14149405D01*
X17163259Y-14025809D02*
X17161808Y-14033934D01*
X9110185Y-13837518D02*
X9118312Y-13838969D01*
X9059920Y-6248625D02*
X9051793Y-6247173D01*
X9221897Y-6177767D02*
X9217296Y-6184237D01*
X9134127Y-6243107D02*
X9126296Y-6245331D01*
X17017036Y-14164824D02*
X17008656Y-14165461D01*
X9035978Y-14158256D02*
X9028310Y-14155661D01*
X8968359Y-6202190D02*
X8962895Y-6196459D01*
X9149289Y-13848585D02*
X9156599Y-13851890D01*
X9230163Y-13921983D02*
X9233808Y-13929099D01*
X16914611Y-13859575D02*
X16921520Y-13855602D01*
X9217296Y-6184237D02*
X9212397Y-6190471D01*
X8920238Y-6077005D02*
X8920875Y-6068624D01*
X17000166Y-13835688D02*
X17008656Y-13835903D01*
X8980079Y-6212842D02*
X8974091Y-6207655D01*
X17085775Y-6226670D02*
X17078864Y-6230644D01*
X16863350Y-13908432D02*
X16867950Y-13901963D01*
X17000202Y-5920503D02*
X17008694Y-5920718D01*
X8962895Y-13889684D02*
X8968359Y-13883953D01*
X17000202Y-6250562D02*
X17000202Y-6250562D01*
X16921539Y-5940422D02*
X16928655Y-5936777D01*
X8999479Y-13859508D02*
X9006390Y-13855535D01*
X9250082Y-14000646D02*
X9250082Y-14000646D01*
X16840366Y-14041916D02*
X16838524Y-14033934D01*
X9221897Y-13908377D02*
X9226190Y-13915072D01*
X17165160Y-14000681D02*
X17165160Y-14000681D01*
X17148957Y-6157080D02*
X17145313Y-6164195D01*
X16966914Y-14162323D02*
X16958931Y-14160481D01*
X16889239Y-6207690D02*
X16883508Y-6202226D01*
X17041400Y-14160481D02*
X17033418Y-14162323D01*
X8920875Y-6068624D02*
X8921925Y-6060365D01*
X9013506Y-14149402D02*
X9006390Y-14145757D01*
X9196014Y-14122804D02*
X9190026Y-14127991D01*
X16835172Y-6085533D02*
X16835172Y-6085533D01*
X9242662Y-14049721D02*
X9240068Y-14057389D01*
X8939941Y-6164160D02*
X8936297Y-6157044D01*
X9170626Y-5944360D02*
X9177322Y-5948653D01*
X17152194Y-13936459D02*
X17155148Y-13943951D01*
X16883508Y-5968839D02*
X16889239Y-5963375D01*
X9126296Y-13840812D02*
X9134127Y-13843036D01*
X8986313Y-13868402D02*
X8992783Y-13863801D01*
X17078812Y-13855602D02*
X17085721Y-13859575D01*
X17008694Y-6250347D02*
X17000202Y-6250562D01*
X16935943Y-13848654D02*
X16943435Y-13845700D01*
X17056896Y-13845700D02*
X17064389Y-13848654D01*
X9059920Y-14163774D02*
X9051793Y-14162323D01*
X8932992Y-13936409D02*
X8936297Y-13929099D01*
X16842591Y-6036458D02*
X16845186Y-6028790D01*
X17145313Y-6164195D02*
X17141339Y-6171106D01*
X17145313Y-6006870D02*
X17148957Y-6013986D01*
X17017075Y-5921355D02*
X17025334Y-5922405D01*
X8999479Y-5944360D02*
X9006390Y-5940386D01*
X17159965Y-14041916D02*
X17157742Y-14049746D01*
X9156599Y-13851890D02*
X9163715Y-13855535D01*
X9085053Y-13835616D02*
X9085053Y-13835616D01*
X9006390Y-13855535D02*
X9013506Y-13851890D01*
X16842590Y-14049746D02*
X16840366Y-14041916D01*
X9101926Y-5921320D02*
X9110185Y-5922370D01*
X8974091Y-13878488D02*
X8980079Y-13873301D01*
X16859059Y-13915126D02*
X16863350Y-13908432D01*
X9230163Y-14079309D02*
X9226190Y-14086220D01*
X9221897Y-5993228D02*
X9226190Y-5999924D01*
X9244886Y-14041890D02*
X9242662Y-14049721D01*
X17098884Y-13868466D02*
X17105117Y-13873365D01*
X9248180Y-14025779D02*
X9246729Y-14033905D01*
X9101926Y-13836468D02*
X9110185Y-13837518D01*
X16867957Y-6184272D02*
X16863356Y-6177802D01*
X9183792Y-6217741D02*
X9177322Y-6222342D01*
X9190026Y-6212842D02*
X9183792Y-6217741D01*
X16928634Y-13851958D02*
X16935943Y-13848654D01*
X16836024Y-13983812D02*
X16837073Y-13975555D01*
X9163715Y-5940386D02*
X9170626Y-5944360D01*
X8920875Y-13983773D02*
X8921925Y-13975514D01*
X17132445Y-5986793D02*
X17137046Y-5993263D01*
X17164379Y-6068660D02*
X17165016Y-6077040D01*
X9217296Y-14099386D02*
X9212397Y-14105620D01*
X17122359Y-6196494D02*
X17116895Y-6202226D01*
X16958931Y-13840882D02*
X16966914Y-13839040D01*
X16928655Y-5936777D02*
X16935965Y-5933472D01*
X16883508Y-6202226D02*
X16878044Y-6196494D01*
X16835386Y-13992191D02*
X16836024Y-13983812D01*
X17078864Y-6230644D02*
X17071749Y-6234288D01*
X9201746Y-5968804D02*
X9207210Y-5974536D01*
X16958958Y-6245366D02*
X16951127Y-6243142D01*
X17116834Y-14117350D02*
X17111104Y-14122813D01*
X8936297Y-14072193D02*
X8932992Y-14064883D01*
X17049276Y-5927923D02*
X17056944Y-5930517D01*
X16845186Y-6142275D02*
X16842591Y-6134607D01*
X17161878Y-6118792D02*
X17160035Y-6126776D01*
X17098884Y-14132897D02*
X17092416Y-14137497D01*
X9217296Y-13901906D02*
X9221897Y-13908377D01*
X16943459Y-5930517D02*
X16951127Y-5927923D01*
X17071698Y-13851958D02*
X17078812Y-13855602D01*
X17137046Y-6177802D02*
X17132445Y-6184272D01*
X8923376Y-6052238D02*
X8925219Y-6044254D01*
X8943915Y-6171071D02*
X8939941Y-6164160D01*
X8980079Y-13873301D02*
X8986313Y-13868402D01*
X17137046Y-5993263D02*
X17141339Y-5999959D01*
X9230163Y-6006835D02*
X9233808Y-6013950D01*
X17148890Y-14072214D02*
X17145246Y-14079328D01*
X9249867Y-6093990D02*
X9249230Y-6102370D01*
X17025334Y-5922405D02*
X17033461Y-5923856D01*
X8948208Y-5993228D02*
X8952809Y-5986758D01*
X9013506Y-13851890D02*
X9020816Y-13848585D01*
X9006390Y-14145757D02*
X8999479Y-14141784D01*
X9156599Y-6234253D02*
X9149289Y-6237557D01*
X9093545Y-6250312D02*
X9085053Y-6250526D01*
X8948208Y-6177767D02*
X8943915Y-6171071D01*
X8921925Y-13975514D02*
X8923376Y-13967387D01*
X9249230Y-6068624D02*
X9249867Y-6077005D01*
X16848138Y-14064905D02*
X16845184Y-14057412D01*
X9020816Y-6237557D02*
X9013506Y-6234253D01*
X8948208Y-14092916D02*
X8943915Y-14086220D01*
X9110185Y-6248625D02*
X9101926Y-6249674D01*
X17064438Y-6237593D02*
X17056944Y-6240548D01*
X17127483Y-14105633D02*
X17122297Y-14111620D01*
X17056896Y-14155664D02*
X17049230Y-14158258D01*
X16907932Y-5948688D02*
X16914628Y-5944395D01*
X8962895Y-6196459D02*
X8957708Y-6190471D01*
X17164379Y-6102406D02*
X17163329Y-6110665D01*
X16837073Y-13975555D02*
X16838524Y-13967429D01*
X16851442Y-13929150D02*
X16855086Y-13922036D01*
X16835172Y-14000681D02*
X16835386Y-13992191D01*
X8925219Y-6126741D02*
X8923376Y-6118756D01*
X9134127Y-13843036D02*
X9141795Y-13845630D01*
X16878044Y-6196494D02*
X16872857Y-6190506D01*
X16901462Y-5953289D02*
X16907932Y-5948688D01*
X8920238Y-13992154D02*
X8920875Y-13983773D01*
X16943435Y-14155664D02*
X16935943Y-14152709D01*
X8952809Y-13901906D02*
X8957708Y-13895672D01*
X9246729Y-6118756D02*
X9244886Y-6126741D01*
X9110185Y-14163774D02*
X9101926Y-14164823D01*
X17017075Y-6249710D02*
X17008694Y-6250347D01*
X8932992Y-14064883D02*
X8930037Y-14057389D01*
X16901447Y-14132897D02*
X16895214Y-14127999D01*
X17056944Y-6240548D02*
X17049276Y-6243142D01*
X9230163Y-6164160D02*
X9226190Y-6171071D01*
X17163329Y-6060400D02*
X17164379Y-6068660D01*
X9149289Y-14152707D02*
X9141795Y-14155661D01*
X9196014Y-13878488D02*
X9201746Y-13883953D01*
X16895214Y-13873365D02*
X16901447Y-13868466D01*
X8943915Y-14086220D02*
X8939941Y-14079309D01*
X8923376Y-13967387D02*
X8925219Y-13959403D01*
D11*
X8000000Y-5600000D02*
X8600000Y-5000000D01*
D10*
X9006390Y-6230608D02*
X8999479Y-6226634D01*
X17165016Y-6094025D02*
X17164379Y-6102406D01*
D12*
D13*
X8226920Y-14134960D02*
X8526920Y-14434960D01*
X8526920Y-14134960D02*
X8226920Y-14434960D01*
X8566100Y-10606900D02*
X8866100Y-10906900D01*
X8866100Y-10606900D02*
X8566100Y-10906900D01*
X17143500Y-14475320D02*
X17443500Y-14775320D01*
X17443500Y-14475320D02*
X17143500Y-14775320D01*
X17472520Y-5553660D02*
X17772520Y-5853660D01*
X17772520Y-5553660D02*
X17472520Y-5853660D01*
D12*
X8252619Y-15315476D02*
X8252619Y-15115476D01*
X8300238Y-15115476D01*
X8328809Y-15125000D01*
X8347857Y-15144048D01*
X8357381Y-15163095D01*
X8366905Y-15201190D01*
X8366905Y-15229762D01*
X8357381Y-15267857D01*
X8347857Y-15286905D01*
X8328809Y-15305952D01*
X8300238Y-15315476D01*
X8252619Y-15315476D01*
X8452619Y-15315476D02*
X8452619Y-15182143D01*
X8452619Y-15220238D02*
X8462143Y-15201190D01*
X8471667Y-15191667D01*
X8490714Y-15182143D01*
X8509762Y-15182143D01*
X8576429Y-15315476D02*
X8576429Y-15182143D01*
X8576429Y-15115476D02*
X8566905Y-15125000D01*
X8576429Y-15134524D01*
X8585952Y-15125000D01*
X8576429Y-15115476D01*
X8576429Y-15134524D01*
X8700238Y-15315476D02*
X8681190Y-15305952D01*
X8671667Y-15286905D01*
X8671667Y-15115476D01*
X8805000Y-15315476D02*
X8785952Y-15305952D01*
X8776429Y-15286905D01*
X8776429Y-15115476D01*
X9033571Y-15315476D02*
X9033571Y-15115476D01*
X9100238Y-15258333D01*
X9166905Y-15115476D01*
X9166905Y-15315476D01*
X9347857Y-15315476D02*
X9347857Y-15210714D01*
X9338333Y-15191667D01*
X9319286Y-15182143D01*
X9281190Y-15182143D01*
X9262143Y-15191667D01*
X9347857Y-15305952D02*
X9328810Y-15315476D01*
X9281190Y-15315476D01*
X9262143Y-15305952D01*
X9252619Y-15286905D01*
X9252619Y-15267857D01*
X9262143Y-15248809D01*
X9281190Y-15239286D01*
X9328810Y-15239286D01*
X9347857Y-15229762D01*
X9443095Y-15182143D02*
X9443095Y-15382143D01*
X9443095Y-15191667D02*
X9462143Y-15182143D01*
X9500238Y-15182143D01*
X9519286Y-15191667D01*
X9528810Y-15201190D01*
X9538333Y-15220238D01*
X9538333Y-15277381D01*
X9528810Y-15296428D01*
X9519286Y-15305952D01*
X9500238Y-15315476D01*
X9462143Y-15315476D01*
X9443095Y-15305952D01*
X9624048Y-15296428D02*
X9633571Y-15305952D01*
X9624048Y-15315476D01*
X9614524Y-15305952D01*
X9624048Y-15296428D01*
X9624048Y-15315476D01*
X9624048Y-15191667D02*
X9633571Y-15201190D01*
X9624048Y-15210714D01*
X9614524Y-15201190D01*
X9624048Y-15191667D01*
X9624048Y-15210714D01*
X7795000Y-15545000D02*
X7995000Y-15745000D01*
X7995000Y-15545000D02*
X7795000Y-15745000D01*
X8233571Y-15535476D02*
X8357381Y-15535476D01*
X8290714Y-15611667D01*
X8319286Y-15611667D01*
X8338333Y-15621190D01*
X8347857Y-15630714D01*
X8357381Y-15649762D01*
X8357381Y-15697381D01*
X8347857Y-15716428D01*
X8338333Y-15725952D01*
X8319286Y-15735476D01*
X8262143Y-15735476D01*
X8243095Y-15725952D01*
X8233571Y-15716428D01*
X8443095Y-15716428D02*
X8452619Y-15725952D01*
X8443095Y-15735476D01*
X8433571Y-15725952D01*
X8443095Y-15716428D01*
X8443095Y-15735476D01*
X8576429Y-15535476D02*
X8595476Y-15535476D01*
X8614524Y-15545000D01*
X8624048Y-15554524D01*
X8633571Y-15573571D01*
X8643095Y-15611667D01*
X8643095Y-15659286D01*
X8633571Y-15697381D01*
X8624048Y-15716428D01*
X8614524Y-15725952D01*
X8595476Y-15735476D01*
X8576429Y-15735476D01*
X8557381Y-15725952D01*
X8547857Y-15716428D01*
X8538333Y-15697381D01*
X8528810Y-15659286D01*
X8528810Y-15611667D01*
X8538333Y-15573571D01*
X8547857Y-15554524D01*
X8557381Y-15545000D01*
X8576429Y-15535476D01*
X8766905Y-15535476D02*
X8785952Y-15535476D01*
X8805000Y-15545000D01*
X8814524Y-15554524D01*
X8824048Y-15573571D01*
X8833571Y-15611667D01*
X8833571Y-15659286D01*
X8824048Y-15697381D01*
X8814524Y-15716428D01*
X8805000Y-15725952D01*
X8785952Y-15735476D01*
X8766905Y-15735476D01*
X8747857Y-15725952D01*
X8738333Y-15716428D01*
X8728810Y-15697381D01*
X8719286Y-15659286D01*
X8719286Y-15611667D01*
X8728810Y-15573571D01*
X8738333Y-15554524D01*
X8747857Y-15545000D01*
X8766905Y-15535476D01*
X8957381Y-15535476D02*
X8976429Y-15535476D01*
X8995476Y-15545000D01*
X9005000Y-15554524D01*
X9014524Y-15573571D01*
X9024048Y-15611667D01*
X9024048Y-15659286D01*
X9014524Y-15697381D01*
X9005000Y-15716428D01*
X8995476Y-15725952D01*
X8976429Y-15735476D01*
X8957381Y-15735476D01*
X8938333Y-15725952D01*
X8928810Y-15716428D01*
X8919286Y-15697381D01*
X8909762Y-15659286D01*
X8909762Y-15611667D01*
X8919286Y-15573571D01*
X8928810Y-15554524D01*
X8938333Y-15545000D01*
X8957381Y-15535476D01*
X9109762Y-15735476D02*
X9109762Y-15602143D01*
X9109762Y-15621190D02*
X9119286Y-15611667D01*
X9138333Y-15602143D01*
X9166905Y-15602143D01*
X9185952Y-15611667D01*
X9195476Y-15630714D01*
X9195476Y-15735476D01*
X9195476Y-15630714D02*
X9205000Y-15611667D01*
X9224048Y-15602143D01*
X9252619Y-15602143D01*
X9271667Y-15611667D01*
X9281190Y-15630714D01*
X9281190Y-15735476D01*
X9376429Y-15735476D02*
X9376429Y-15602143D01*
X9376429Y-15621190D02*
X9385952Y-15611667D01*
X9405000Y-15602143D01*
X9433571Y-15602143D01*
X9452619Y-15611667D01*
X9462143Y-15630714D01*
X9462143Y-15735476D01*
X9462143Y-15630714D02*
X9471667Y-15611667D01*
X9490714Y-15602143D01*
X9519286Y-15602143D01*
X9538333Y-15611667D01*
X9547857Y-15630714D01*
X9547857Y-15735476D01*
X9938333Y-15525952D02*
X9766905Y-15783095D01*
X10195476Y-15535476D02*
X10214524Y-15535476D01*
X10233571Y-15545000D01*
X10243095Y-15554524D01*
X10252619Y-15573571D01*
X10262143Y-15611667D01*
X10262143Y-15659286D01*
X10252619Y-15697381D01*
X10243095Y-15716428D01*
X10233571Y-15725952D01*
X10214524Y-15735476D01*
X10195476Y-15735476D01*
X10176429Y-15725952D01*
X10166905Y-15716428D01*
X10157381Y-15697381D01*
X10147857Y-15659286D01*
X10147857Y-15611667D01*
X10157381Y-15573571D01*
X10166905Y-15554524D01*
X10176429Y-15545000D01*
X10195476Y-15535476D01*
X10347857Y-15716428D02*
X10357381Y-15725952D01*
X10347857Y-15735476D01*
X10338333Y-15725952D01*
X10347857Y-15716428D01*
X10347857Y-15735476D01*
X10547857Y-15735476D02*
X10433571Y-15735476D01*
X10490714Y-15735476D02*
X10490714Y-15535476D01*
X10471667Y-15564048D01*
X10452619Y-15583095D01*
X10433571Y-15592619D01*
X10738333Y-15735476D02*
X10624048Y-15735476D01*
X10681190Y-15735476D02*
X10681190Y-15535476D01*
X10662143Y-15564048D01*
X10643095Y-15583095D01*
X10624048Y-15592619D01*
X10852619Y-15621190D02*
X10833571Y-15611667D01*
X10824048Y-15602143D01*
X10814524Y-15583095D01*
X10814524Y-15573571D01*
X10824048Y-15554524D01*
X10833571Y-15545000D01*
X10852619Y-15535476D01*
X10890714Y-15535476D01*
X10909762Y-15545000D01*
X10919286Y-15554524D01*
X10928810Y-15573571D01*
X10928810Y-15583095D01*
X10919286Y-15602143D01*
X10909762Y-15611667D01*
X10890714Y-15621190D01*
X10852619Y-15621190D01*
X10833571Y-15630714D01*
X10824048Y-15640238D01*
X10814524Y-15659286D01*
X10814524Y-15697381D01*
X10824048Y-15716428D01*
X10833571Y-15725952D01*
X10852619Y-15735476D01*
X10890714Y-15735476D01*
X10909762Y-15725952D01*
X10919286Y-15716428D01*
X10928810Y-15697381D01*
X10928810Y-15659286D01*
X10919286Y-15640238D01*
X10909762Y-15630714D01*
X10890714Y-15621190D01*
X11119286Y-15735476D02*
X11005000Y-15735476D01*
X11062143Y-15735476D02*
X11062143Y-15535476D01*
X11043095Y-15564048D01*
X11024048Y-15583095D01*
X11005000Y-15592619D01*
X11195476Y-15535476D02*
X11195476Y-15573571D01*
X11271667Y-15535476D02*
X11271667Y-15573571D01*
X11566905Y-15811667D02*
X11557381Y-15802143D01*
X11538333Y-15773571D01*
X11528809Y-15754524D01*
X11519286Y-15725952D01*
X11509762Y-15678333D01*
X11509762Y-15640238D01*
X11519286Y-15592619D01*
X11528809Y-15564048D01*
X11538333Y-15545000D01*
X11557381Y-15516428D01*
X11566905Y-15506905D01*
X11728809Y-15602143D02*
X11728809Y-15735476D01*
X11681190Y-15525952D02*
X11633571Y-15668809D01*
X11757381Y-15668809D01*
X11985952Y-15735476D02*
X11985952Y-15535476D01*
X12071667Y-15735476D02*
X12071667Y-15630714D01*
X12062143Y-15611667D01*
X12043095Y-15602143D01*
X12014524Y-15602143D01*
X11995476Y-15611667D01*
X11985952Y-15621190D01*
X12195476Y-15735476D02*
X12176428Y-15725952D01*
X12166905Y-15716428D01*
X12157381Y-15697381D01*
X12157381Y-15640238D01*
X12166905Y-15621190D01*
X12176428Y-15611667D01*
X12195476Y-15602143D01*
X12224048Y-15602143D01*
X12243095Y-15611667D01*
X12252619Y-15621190D01*
X12262143Y-15640238D01*
X12262143Y-15697381D01*
X12252619Y-15716428D01*
X12243095Y-15725952D01*
X12224048Y-15735476D01*
X12195476Y-15735476D01*
X12376428Y-15735476D02*
X12357381Y-15725952D01*
X12347857Y-15706905D01*
X12347857Y-15535476D01*
X12528809Y-15725952D02*
X12509762Y-15735476D01*
X12471667Y-15735476D01*
X12452619Y-15725952D01*
X12443095Y-15706905D01*
X12443095Y-15630714D01*
X12452619Y-15611667D01*
X12471667Y-15602143D01*
X12509762Y-15602143D01*
X12528809Y-15611667D01*
X12538333Y-15630714D01*
X12538333Y-15649762D01*
X12443095Y-15668809D01*
X12614524Y-15725952D02*
X12633571Y-15735476D01*
X12671667Y-15735476D01*
X12690714Y-15725952D01*
X12700238Y-15706905D01*
X12700238Y-15697381D01*
X12690714Y-15678333D01*
X12671667Y-15668809D01*
X12643095Y-15668809D01*
X12624048Y-15659286D01*
X12614524Y-15640238D01*
X12614524Y-15630714D01*
X12624048Y-15611667D01*
X12643095Y-15602143D01*
X12671667Y-15602143D01*
X12690714Y-15611667D01*
X12766905Y-15811667D02*
X12776428Y-15802143D01*
X12795476Y-15773571D01*
X12805000Y-15754524D01*
X12814524Y-15725952D01*
X12824048Y-15678333D01*
X12824048Y-15640238D01*
X12814524Y-15592619D01*
X12805000Y-15564048D01*
X12795476Y-15545000D01*
X12776428Y-15516428D01*
X12766905Y-15506905D01*
X13128809Y-15811667D02*
X13119286Y-15802143D01*
X13100238Y-15773571D01*
X13090714Y-15754524D01*
X13081190Y-15725952D01*
X13071667Y-15678333D01*
X13071667Y-15640238D01*
X13081190Y-15592619D01*
X13090714Y-15564048D01*
X13100238Y-15545000D01*
X13119286Y-15516428D01*
X13128809Y-15506905D01*
X13205000Y-15602143D02*
X13205000Y-15735476D01*
X13205000Y-15621190D02*
X13214524Y-15611667D01*
X13233571Y-15602143D01*
X13262143Y-15602143D01*
X13281190Y-15611667D01*
X13290714Y-15630714D01*
X13290714Y-15735476D01*
X13414524Y-15735476D02*
X13395476Y-15725952D01*
X13385952Y-15716428D01*
X13376428Y-15697381D01*
X13376428Y-15640238D01*
X13385952Y-15621190D01*
X13395476Y-15611667D01*
X13414524Y-15602143D01*
X13443095Y-15602143D01*
X13462143Y-15611667D01*
X13471667Y-15621190D01*
X13481190Y-15640238D01*
X13481190Y-15697381D01*
X13471667Y-15716428D01*
X13462143Y-15725952D01*
X13443095Y-15735476D01*
X13414524Y-15735476D01*
X13538333Y-15602143D02*
X13614524Y-15602143D01*
X13566905Y-15535476D02*
X13566905Y-15706905D01*
X13576428Y-15725952D01*
X13595476Y-15735476D01*
X13614524Y-15735476D01*
X13833571Y-15602143D02*
X13833571Y-15802143D01*
X13833571Y-15611667D02*
X13852619Y-15602143D01*
X13890714Y-15602143D01*
X13909762Y-15611667D01*
X13919286Y-15621190D01*
X13928809Y-15640238D01*
X13928809Y-15697381D01*
X13919286Y-15716428D01*
X13909762Y-15725952D01*
X13890714Y-15735476D01*
X13852619Y-15735476D01*
X13833571Y-15725952D01*
X14043095Y-15735476D02*
X14024048Y-15725952D01*
X14014524Y-15706905D01*
X14014524Y-15535476D01*
X14205000Y-15735476D02*
X14205000Y-15630714D01*
X14195476Y-15611667D01*
X14176428Y-15602143D01*
X14138333Y-15602143D01*
X14119286Y-15611667D01*
X14205000Y-15725952D02*
X14185952Y-15735476D01*
X14138333Y-15735476D01*
X14119286Y-15725952D01*
X14109762Y-15706905D01*
X14109762Y-15687857D01*
X14119286Y-15668809D01*
X14138333Y-15659286D01*
X14185952Y-15659286D01*
X14205000Y-15649762D01*
X14271667Y-15602143D02*
X14347857Y-15602143D01*
X14300238Y-15535476D02*
X14300238Y-15706905D01*
X14309762Y-15725952D01*
X14328809Y-15735476D01*
X14347857Y-15735476D01*
X14490714Y-15725952D02*
X14471667Y-15735476D01*
X14433571Y-15735476D01*
X14414524Y-15725952D01*
X14405000Y-15706905D01*
X14405000Y-15630714D01*
X14414524Y-15611667D01*
X14433571Y-15602143D01*
X14471667Y-15602143D01*
X14490714Y-15611667D01*
X14500238Y-15630714D01*
X14500238Y-15649762D01*
X14405000Y-15668809D01*
X14671667Y-15735476D02*
X14671667Y-15535476D01*
X14671667Y-15725952D02*
X14652619Y-15735476D01*
X14614524Y-15735476D01*
X14595476Y-15725952D01*
X14585952Y-15716428D01*
X14576428Y-15697381D01*
X14576428Y-15640238D01*
X14585952Y-15621190D01*
X14595476Y-15611667D01*
X14614524Y-15602143D01*
X14652619Y-15602143D01*
X14671667Y-15611667D01*
X14747857Y-15811667D02*
X14757381Y-15802143D01*
X14776428Y-15773571D01*
X14785952Y-15754524D01*
X14795476Y-15725952D01*
X14805000Y-15678333D01*
X14805000Y-15640238D01*
X14795476Y-15592619D01*
X14785952Y-15564048D01*
X14776428Y-15545000D01*
X14757381Y-15516428D01*
X14747857Y-15506905D01*
M02*
