%TF.GenerationSoftware,KiCad,Pcbnew,(6.0.8)*%
%TF.CreationDate,2023-02-13T15:05:07-07:00*%
%TF.ProjectId,Panel,50616e65-6c2e-46b6-9963-61645f706362,rev?*%
%TF.SameCoordinates,Original*%
%TF.FileFunction,Profile,NP*%
%FSLAX46Y46*%
G04 Gerber Fmt 4.6, Leading zero omitted, Abs format (unit mm)*
G04 Created by KiCad (PCBNEW (6.0.8)) date 2023-02-13 15:05:07*
%MOMM*%
%LPD*%
G01*
G04 APERTURE LIST*
%TA.AperFunction,Profile*%
%ADD10C,0.433916*%
%TD*%
%TA.AperFunction,Profile*%
%ADD11C,0.100000*%
%TD*%
G04 APERTURE END LIST*
D10*
X171567299Y-139675751D02*
X171567299Y-139675751D01*
X171567299Y-139675751D02*
X171567299Y-139675751D01*
X171564658Y-139571317D02*
X171567299Y-139675751D01*
X171556821Y-139468254D02*
X171564658Y-139571317D01*
X171543915Y-139366690D02*
X171556821Y-139468254D01*
X171526068Y-139266752D02*
X171543915Y-139366690D01*
X171503407Y-139168567D02*
X171526068Y-139266752D01*
X171476060Y-139072263D02*
X171503407Y-139168567D01*
X171444154Y-138977968D02*
X171476060Y-139072263D01*
X171407816Y-138885809D02*
X171444154Y-138977968D01*
X171367175Y-138795913D02*
X171407816Y-138885809D01*
X171322358Y-138708408D02*
X171367175Y-138795913D01*
X171273492Y-138623422D02*
X171322358Y-138708408D01*
X171220704Y-138541083D02*
X171273492Y-138623422D01*
X171164123Y-138461516D02*
X171220704Y-138541083D01*
X171103876Y-138384851D02*
X171164123Y-138461516D01*
X171040090Y-138311215D02*
X171103876Y-138384851D01*
X170972893Y-138240734D02*
X171040090Y-138311215D01*
X170902412Y-138173537D02*
X170972893Y-138240734D01*
X170828775Y-138109752D02*
X170902412Y-138173537D01*
X170752110Y-138049505D02*
X170828775Y-138109752D01*
X170672543Y-137992924D02*
X170752110Y-138049505D01*
X170590203Y-137940137D02*
X170672543Y-137992924D01*
X170505217Y-137891271D02*
X170590203Y-137940137D01*
X170417712Y-137846454D02*
X170505217Y-137891271D01*
X170327816Y-137805813D02*
X170417712Y-137846454D01*
X170235656Y-137769476D02*
X170327816Y-137805813D01*
X170141361Y-137737570D02*
X170235656Y-137769476D01*
X170045057Y-137710223D02*
X170141361Y-137737570D01*
X169946872Y-137687562D02*
X170045057Y-137710223D01*
X169846933Y-137669715D02*
X169946872Y-137687562D01*
X169745369Y-137656810D02*
X169846933Y-137669715D01*
X169642306Y-137648973D02*
X169745369Y-137656810D01*
X169537872Y-137646332D02*
X169642306Y-137648973D01*
X169537872Y-137646332D02*
X169537872Y-137646332D01*
X169433439Y-137648973D02*
X169537872Y-137646332D01*
X169330376Y-137656810D02*
X169433439Y-137648973D01*
X169228811Y-137669715D02*
X169330376Y-137656810D01*
X169128873Y-137687562D02*
X169228811Y-137669715D01*
X169030688Y-137710223D02*
X169128873Y-137687562D01*
X168934385Y-137737570D02*
X169030688Y-137710223D01*
X168840089Y-137769476D02*
X168934385Y-137737570D01*
X168747930Y-137805813D02*
X168840089Y-137769476D01*
X168658034Y-137846454D02*
X168747930Y-137805813D01*
X168570530Y-137891271D02*
X168658034Y-137846454D01*
X168485544Y-137940137D02*
X168570530Y-137891271D01*
X168403204Y-137992924D02*
X168485544Y-137940137D01*
X168323638Y-138049505D02*
X168403204Y-137992924D01*
X168246973Y-138109752D02*
X168323638Y-138049505D01*
X168173336Y-138173537D02*
X168246973Y-138109752D01*
X168102856Y-138240734D02*
X168173336Y-138173537D01*
X168035659Y-138311215D02*
X168102856Y-138240734D01*
X167971873Y-138384851D02*
X168035659Y-138311215D01*
X167911627Y-138461516D02*
X167971873Y-138384851D01*
X167855046Y-138541083D02*
X167911627Y-138461516D01*
X167802259Y-138623422D02*
X167855046Y-138541083D01*
X167753393Y-138708408D02*
X167802259Y-138623422D01*
X167708576Y-138795913D02*
X167753393Y-138708408D01*
X167667935Y-138885809D02*
X167708576Y-138795913D01*
X167631598Y-138977968D02*
X167667935Y-138885809D01*
X167599692Y-139072263D02*
X167631598Y-138977968D01*
X167572345Y-139168567D02*
X167599692Y-139072263D01*
X167549684Y-139266752D02*
X167572345Y-139168567D01*
X167531837Y-139366690D02*
X167549684Y-139266752D01*
X167518931Y-139468254D02*
X167531837Y-139366690D01*
X167511094Y-139571317D02*
X167518931Y-139468254D01*
X167508453Y-139675751D02*
X167511094Y-139571317D01*
X167508453Y-139675751D02*
X167508453Y-139675751D01*
X167511094Y-139780185D02*
X167508453Y-139675751D01*
X167518931Y-139883249D02*
X167511094Y-139780185D01*
X167531837Y-139984814D02*
X167518931Y-139883249D01*
X167549684Y-140084753D02*
X167531837Y-139984814D01*
X167572345Y-140182938D02*
X167549684Y-140084753D01*
X167599692Y-140279242D02*
X167572345Y-140182938D01*
X167631598Y-140373538D02*
X167599692Y-140279242D01*
X167667935Y-140465698D02*
X167631598Y-140373538D01*
X167708576Y-140555594D02*
X167667935Y-140465698D01*
X167753393Y-140643098D02*
X167708576Y-140555594D01*
X167802259Y-140728085D02*
X167753393Y-140643098D01*
X167855046Y-140810425D02*
X167802259Y-140728085D01*
X167911627Y-140889991D02*
X167855046Y-140810425D01*
X167971873Y-140966657D02*
X167911627Y-140889991D01*
X168035659Y-141040294D02*
X167971873Y-140966657D01*
X168102856Y-141110774D02*
X168035659Y-141040294D01*
X168173336Y-141177971D02*
X168102856Y-141110774D01*
X168246973Y-141241757D02*
X168173336Y-141177971D01*
X168323638Y-141302004D02*
X168246973Y-141241757D01*
X168403204Y-141358585D02*
X168323638Y-141302004D01*
X168485544Y-141411372D02*
X168403204Y-141358585D01*
X168570530Y-141460238D02*
X168485544Y-141411372D01*
X168658034Y-141505055D02*
X168570530Y-141460238D01*
X168747930Y-141545696D02*
X168658034Y-141505055D01*
X168840089Y-141582033D02*
X168747930Y-141545696D01*
X168934385Y-141613939D02*
X168840089Y-141582033D01*
X169030688Y-141641286D02*
X168934385Y-141613939D01*
X169128873Y-141663947D02*
X169030688Y-141641286D01*
X169228811Y-141681794D02*
X169128873Y-141663947D01*
X169330376Y-141694700D02*
X169228811Y-141681794D01*
X169433439Y-141702537D02*
X169330376Y-141694700D01*
X169537872Y-141705177D02*
X169433439Y-141702537D01*
X169537872Y-141705177D02*
X169537872Y-141705177D01*
X169642306Y-141702537D02*
X169537872Y-141705177D01*
X169745369Y-141694700D02*
X169642306Y-141702537D01*
X169846933Y-141681794D02*
X169745369Y-141694700D01*
X169946872Y-141663947D02*
X169846933Y-141681794D01*
X170045057Y-141641286D02*
X169946872Y-141663947D01*
X170141361Y-141613939D02*
X170045057Y-141641286D01*
X170235656Y-141582033D02*
X170141361Y-141613939D01*
X170327816Y-141545696D02*
X170235656Y-141582033D01*
X170417712Y-141505055D02*
X170327816Y-141545696D01*
X170505217Y-141460238D02*
X170417712Y-141505055D01*
X170590203Y-141411372D02*
X170505217Y-141460238D01*
X170672543Y-141358585D02*
X170590203Y-141411372D01*
X170752110Y-141302004D02*
X170672543Y-141358585D01*
X170828775Y-141241757D02*
X170752110Y-141302004D01*
X170902412Y-141177971D02*
X170828775Y-141241757D01*
X170972893Y-141110774D02*
X170902412Y-141177971D01*
X171040090Y-141040294D02*
X170972893Y-141110774D01*
X171103876Y-140966657D02*
X171040090Y-141040294D01*
X171164123Y-140889991D02*
X171103876Y-140966657D01*
X171220704Y-140810425D02*
X171164123Y-140889991D01*
X171273492Y-140728085D02*
X171220704Y-140810425D01*
X171322358Y-140643098D02*
X171273492Y-140728085D01*
X171367175Y-140555594D02*
X171322358Y-140643098D01*
X171407816Y-140465698D02*
X171367175Y-140555594D01*
X171444154Y-140373538D02*
X171407816Y-140465698D01*
X171476060Y-140279242D02*
X171444154Y-140373538D01*
X171503407Y-140182938D02*
X171476060Y-140279242D01*
X171526068Y-140084753D02*
X171503407Y-140182938D01*
X171543915Y-139984814D02*
X171526068Y-140084753D01*
X171556821Y-139883249D02*
X171543915Y-139984814D01*
X171564658Y-139780185D02*
X171556821Y-139883249D01*
X171567299Y-139675751D02*
X171564658Y-139780185D01*
X92416594Y-60523909D02*
X92416594Y-60523909D01*
X92416594Y-60523909D02*
X92416594Y-60523909D01*
X92413952Y-60419453D02*
X92416594Y-60523909D01*
X92406114Y-60316368D02*
X92413952Y-60419453D01*
X92393205Y-60214782D02*
X92406114Y-60316368D01*
X92375354Y-60114822D02*
X92393205Y-60214782D01*
X92352688Y-60016616D02*
X92375354Y-60114822D01*
X92325335Y-59920292D02*
X92352688Y-60016616D01*
X92293423Y-59825976D02*
X92325335Y-59920292D01*
X92257078Y-59733797D02*
X92293423Y-59825976D01*
X92216428Y-59643882D02*
X92257078Y-59733797D01*
X92171601Y-59556359D02*
X92216428Y-59643882D01*
X92122725Y-59471354D02*
X92171601Y-59556359D01*
X92069926Y-59388997D02*
X92122725Y-59471354D01*
X92013333Y-59309413D02*
X92069926Y-59388997D01*
X91953074Y-59232732D02*
X92013333Y-59309413D01*
X91889274Y-59159079D02*
X91953074Y-59232732D01*
X91822063Y-59088583D02*
X91889274Y-59159079D01*
X91751567Y-59021372D02*
X91822063Y-59088583D01*
X91677915Y-58957573D02*
X91751567Y-59021372D01*
X91601233Y-58897313D02*
X91677915Y-58957573D01*
X91521650Y-58840720D02*
X91601233Y-58897313D01*
X91439292Y-58787921D02*
X91521650Y-58840720D01*
X91354288Y-58739045D02*
X91439292Y-58787921D01*
X91266765Y-58694218D02*
X91354288Y-58739045D01*
X91176850Y-58653568D02*
X91266765Y-58694218D01*
X91084671Y-58617223D02*
X91176850Y-58653568D01*
X90990355Y-58585310D02*
X91084671Y-58617223D01*
X90894031Y-58557957D02*
X90990355Y-58585310D01*
X90795825Y-58535292D02*
X90894031Y-58557957D01*
X90695865Y-58517441D02*
X90795825Y-58535292D01*
X90594279Y-58504532D02*
X90695865Y-58517441D01*
X90491194Y-58496693D02*
X90594279Y-58504532D01*
X90386738Y-58494052D02*
X90491194Y-58496693D01*
X90386738Y-58494052D02*
X90386738Y-58494052D01*
X90282282Y-58496693D02*
X90386738Y-58494052D01*
X90179197Y-58504532D02*
X90282282Y-58496693D01*
X90077611Y-58517441D02*
X90179197Y-58504532D01*
X89977651Y-58535292D02*
X90077611Y-58517441D01*
X89879445Y-58557957D02*
X89977651Y-58535292D01*
X89783120Y-58585310D02*
X89879445Y-58557957D01*
X89688805Y-58617223D02*
X89783120Y-58585310D01*
X89596626Y-58653568D02*
X89688805Y-58617223D01*
X89506711Y-58694218D02*
X89596626Y-58653568D01*
X89419187Y-58739045D02*
X89506711Y-58694218D01*
X89334183Y-58787921D02*
X89419187Y-58739045D01*
X89251825Y-58840720D02*
X89334183Y-58787921D01*
X89172242Y-58897313D02*
X89251825Y-58840720D01*
X89095560Y-58957573D02*
X89172242Y-58897313D01*
X89021907Y-59021372D02*
X89095560Y-58957573D01*
X88951412Y-59088583D02*
X89021907Y-59021372D01*
X88884200Y-59159079D02*
X88951412Y-59088583D01*
X88820401Y-59232732D02*
X88884200Y-59159079D01*
X88760141Y-59309413D02*
X88820401Y-59232732D01*
X88703548Y-59388997D02*
X88760141Y-59309413D01*
X88650750Y-59471354D02*
X88703548Y-59388997D01*
X88601873Y-59556359D02*
X88650750Y-59471354D01*
X88557046Y-59643882D02*
X88601873Y-59556359D01*
X88516397Y-59733797D02*
X88557046Y-59643882D01*
X88480051Y-59825976D02*
X88516397Y-59733797D01*
X88448139Y-59920292D02*
X88480051Y-59825976D01*
X88420786Y-60016616D02*
X88448139Y-59920292D01*
X88398120Y-60114822D02*
X88420786Y-60016616D01*
X88380269Y-60214782D02*
X88398120Y-60114822D01*
X88367360Y-60316368D02*
X88380269Y-60214782D01*
X88359521Y-60419453D02*
X88367360Y-60316368D01*
X88356880Y-60523909D02*
X88359521Y-60419453D01*
X88356880Y-60523909D02*
X88356880Y-60523909D01*
X88359521Y-60628365D02*
X88356880Y-60523909D01*
X88367360Y-60731450D02*
X88359521Y-60628365D01*
X88380269Y-60833036D02*
X88367360Y-60731450D01*
X88398120Y-60932996D02*
X88380269Y-60833036D01*
X88420786Y-61031202D02*
X88398120Y-60932996D01*
X88448139Y-61127526D02*
X88420786Y-61031202D01*
X88480051Y-61221842D02*
X88448139Y-61127526D01*
X88516397Y-61314021D02*
X88480051Y-61221842D01*
X88557046Y-61403936D02*
X88516397Y-61314021D01*
X88601873Y-61491459D02*
X88557046Y-61403936D01*
X88650750Y-61576464D02*
X88601873Y-61491459D01*
X88703548Y-61658821D02*
X88650750Y-61576464D01*
X88760141Y-61738405D02*
X88703548Y-61658821D01*
X88820401Y-61815087D02*
X88760141Y-61738405D01*
X88884200Y-61888739D02*
X88820401Y-61815087D01*
X88951412Y-61959235D02*
X88884200Y-61888739D01*
X89021907Y-62026446D02*
X88951412Y-61959235D01*
X89095560Y-62090246D02*
X89021907Y-62026446D01*
X89172242Y-62150506D02*
X89095560Y-62090246D01*
X89251825Y-62207099D02*
X89172242Y-62150506D01*
X89334183Y-62259897D02*
X89251825Y-62207099D01*
X89419187Y-62308774D02*
X89334183Y-62259897D01*
X89506711Y-62353600D02*
X89419187Y-62308774D01*
X89596626Y-62394250D02*
X89506711Y-62353600D01*
X89688805Y-62430595D02*
X89596626Y-62394250D01*
X89783120Y-62462508D02*
X89688805Y-62430595D01*
X89879445Y-62489861D02*
X89783120Y-62462508D01*
X89977651Y-62512527D02*
X89879445Y-62489861D01*
X90077611Y-62530378D02*
X89977651Y-62512527D01*
X90179197Y-62543286D02*
X90077611Y-62530378D01*
X90282282Y-62551125D02*
X90179197Y-62543286D01*
X90386738Y-62553766D02*
X90282282Y-62551125D01*
X90386738Y-62553766D02*
X90386738Y-62553766D01*
X90491194Y-62551125D02*
X90386738Y-62553766D01*
X90594279Y-62543286D02*
X90491194Y-62551125D01*
X90695865Y-62530378D02*
X90594279Y-62543286D01*
X90795825Y-62512527D02*
X90695865Y-62530378D01*
X90894031Y-62489861D02*
X90795825Y-62512527D01*
X90990355Y-62462508D02*
X90894031Y-62489861D01*
X91084671Y-62430595D02*
X90990355Y-62462508D01*
X91176850Y-62394250D02*
X91084671Y-62430595D01*
X91266765Y-62353600D02*
X91176850Y-62394250D01*
X91354288Y-62308774D02*
X91266765Y-62353600D01*
X91439292Y-62259897D02*
X91354288Y-62308774D01*
X91521650Y-62207099D02*
X91439292Y-62259897D01*
X91601233Y-62150506D02*
X91521650Y-62207099D01*
X91677915Y-62090246D02*
X91601233Y-62150506D01*
X91751567Y-62026446D02*
X91677915Y-62090246D01*
X91822063Y-61959235D02*
X91751567Y-62026446D01*
X91889274Y-61888739D02*
X91822063Y-61959235D01*
X91953074Y-61815087D02*
X91889274Y-61888739D01*
X92013333Y-61738405D02*
X91953074Y-61815087D01*
X92069926Y-61658821D02*
X92013333Y-61738405D01*
X92122725Y-61576464D02*
X92069926Y-61658821D01*
X92171601Y-61491459D02*
X92122725Y-61576464D01*
X92216428Y-61403936D02*
X92171601Y-61491459D01*
X92257078Y-61314021D02*
X92216428Y-61403936D01*
X92293423Y-61221842D02*
X92257078Y-61314021D01*
X92325335Y-61127526D02*
X92293423Y-61221842D01*
X92352688Y-61031202D02*
X92325335Y-61127526D01*
X92375354Y-60932996D02*
X92352688Y-61031202D01*
X92393205Y-60833036D02*
X92375354Y-60932996D01*
X92406114Y-60731450D02*
X92393205Y-60833036D01*
X92413952Y-60628365D02*
X92406114Y-60731450D01*
X92416594Y-60523909D02*
X92413952Y-60628365D01*
X92416594Y-139675400D02*
X92416594Y-139675400D01*
X92416594Y-139675400D02*
X92416594Y-139675400D01*
X92413952Y-139570944D02*
X92416594Y-139675400D01*
X92406114Y-139467859D02*
X92413952Y-139570944D01*
X92393205Y-139366273D02*
X92406114Y-139467859D01*
X92375354Y-139266314D02*
X92393205Y-139366273D01*
X92352688Y-139168108D02*
X92375354Y-139266314D01*
X92325335Y-139071783D02*
X92352688Y-139168108D01*
X92293423Y-138977468D02*
X92325335Y-139071783D01*
X92257078Y-138885289D02*
X92293423Y-138977468D01*
X92216428Y-138795374D02*
X92257078Y-138885289D01*
X92171601Y-138707850D02*
X92216428Y-138795374D01*
X92122725Y-138622846D02*
X92171601Y-138707850D01*
X92069926Y-138540488D02*
X92122725Y-138622846D01*
X92013333Y-138460904D02*
X92069926Y-138540488D01*
X91953074Y-138384222D02*
X92013333Y-138460904D01*
X91889274Y-138310569D02*
X91953074Y-138384222D01*
X91822063Y-138240073D02*
X91889274Y-138310569D01*
X91751567Y-138172862D02*
X91822063Y-138240073D01*
X91677915Y-138109062D02*
X91751567Y-138172862D01*
X91601233Y-138048802D02*
X91677915Y-138109062D01*
X91521650Y-137992208D02*
X91601233Y-138048802D01*
X91439292Y-137939410D02*
X91521650Y-137992208D01*
X91354288Y-137890533D02*
X91439292Y-137939410D01*
X91266765Y-137845706D02*
X91354288Y-137890533D01*
X91176850Y-137805056D02*
X91266765Y-137845706D01*
X91084671Y-137768711D02*
X91176850Y-137805056D01*
X90990355Y-137736798D02*
X91084671Y-137768711D01*
X90894031Y-137709444D02*
X90990355Y-137736798D01*
X90795825Y-137686778D02*
X90894031Y-137709444D01*
X90695865Y-137668927D02*
X90795825Y-137686778D01*
X90594279Y-137656018D02*
X90695865Y-137668927D01*
X90491194Y-137648180D02*
X90594279Y-137656018D01*
X90386738Y-137645538D02*
X90491194Y-137648180D01*
X90386738Y-137645538D02*
X90386738Y-137645538D01*
X90282282Y-137648180D02*
X90386738Y-137645538D01*
X90179197Y-137656018D02*
X90282282Y-137648180D01*
X90077611Y-137668927D02*
X90179197Y-137656018D01*
X89977651Y-137686778D02*
X90077611Y-137668927D01*
X89879445Y-137709444D02*
X89977651Y-137686778D01*
X89783120Y-137736798D02*
X89879445Y-137709444D01*
X89688805Y-137768711D02*
X89783120Y-137736798D01*
X89596626Y-137805056D02*
X89688805Y-137768711D01*
X89506711Y-137845706D02*
X89596626Y-137805056D01*
X89419187Y-137890533D02*
X89506711Y-137845706D01*
X89334183Y-137939410D02*
X89419187Y-137890533D01*
X89251825Y-137992208D02*
X89334183Y-137939410D01*
X89172242Y-138048802D02*
X89251825Y-137992208D01*
X89095560Y-138109062D02*
X89172242Y-138048802D01*
X89021907Y-138172862D02*
X89095560Y-138109062D01*
X88951412Y-138240073D02*
X89021907Y-138172862D01*
X88884200Y-138310569D02*
X88951412Y-138240073D01*
X88820401Y-138384222D02*
X88884200Y-138310569D01*
X88760141Y-138460904D02*
X88820401Y-138384222D01*
X88703548Y-138540488D02*
X88760141Y-138460904D01*
X88650750Y-138622846D02*
X88703548Y-138540488D01*
X88601873Y-138707850D02*
X88650750Y-138622846D01*
X88557046Y-138795374D02*
X88601873Y-138707850D01*
X88516397Y-138885289D02*
X88557046Y-138795374D01*
X88480051Y-138977468D02*
X88516397Y-138885289D01*
X88448139Y-139071783D02*
X88480051Y-138977468D01*
X88420786Y-139168108D02*
X88448139Y-139071783D01*
X88398120Y-139266314D02*
X88420786Y-139168108D01*
X88380269Y-139366273D02*
X88398120Y-139266314D01*
X88367360Y-139467859D02*
X88380269Y-139366273D01*
X88359521Y-139570944D02*
X88367360Y-139467859D01*
X88356880Y-139675400D02*
X88359521Y-139570944D01*
X88356880Y-139675400D02*
X88356880Y-139675400D01*
X88359521Y-139779856D02*
X88356880Y-139675400D01*
X88367360Y-139882940D02*
X88359521Y-139779856D01*
X88380269Y-139984526D02*
X88367360Y-139882940D01*
X88398120Y-140084486D02*
X88380269Y-139984526D01*
X88420786Y-140182691D02*
X88398120Y-140084486D01*
X88448139Y-140279016D02*
X88420786Y-140182691D01*
X88480051Y-140373331D02*
X88448139Y-140279016D01*
X88516397Y-140465510D02*
X88480051Y-140373331D01*
X88557046Y-140555425D02*
X88516397Y-140465510D01*
X88601873Y-140642948D02*
X88557046Y-140555425D01*
X88650750Y-140727952D02*
X88601873Y-140642948D01*
X88703548Y-140810310D02*
X88650750Y-140727952D01*
X88760141Y-140889893D02*
X88703548Y-140810310D01*
X88820401Y-140966575D02*
X88760141Y-140889893D01*
X88884200Y-141040227D02*
X88820401Y-140966575D01*
X88951412Y-141110723D02*
X88884200Y-141040227D01*
X89021907Y-141177934D02*
X88951412Y-141110723D01*
X89095560Y-141241733D02*
X89021907Y-141177934D01*
X89172242Y-141301993D02*
X89095560Y-141241733D01*
X89251825Y-141358586D02*
X89172242Y-141301993D01*
X89334183Y-141411385D02*
X89251825Y-141358586D01*
X89419187Y-141460261D02*
X89334183Y-141411385D01*
X89506711Y-141505088D02*
X89419187Y-141460261D01*
X89596626Y-141545738D02*
X89506711Y-141505088D01*
X89688805Y-141582083D02*
X89596626Y-141545738D01*
X89783120Y-141613995D02*
X89688805Y-141582083D01*
X89879445Y-141641348D02*
X89783120Y-141613995D01*
X89977651Y-141664014D02*
X89879445Y-141641348D01*
X90077611Y-141681865D02*
X89977651Y-141664014D01*
X90179197Y-141694774D02*
X90077611Y-141681865D01*
X90282282Y-141702612D02*
X90179197Y-141694774D01*
X90386738Y-141705254D02*
X90282282Y-141702612D01*
X90386738Y-141705254D02*
X90386738Y-141705254D01*
X90491194Y-141702612D02*
X90386738Y-141705254D01*
X90594279Y-141694774D02*
X90491194Y-141702612D01*
X90695865Y-141681865D02*
X90594279Y-141694774D01*
X90795825Y-141664014D02*
X90695865Y-141681865D01*
X90894031Y-141641348D02*
X90795825Y-141664014D01*
X90990355Y-141613995D02*
X90894031Y-141641348D01*
X91084671Y-141582083D02*
X90990355Y-141613995D01*
X91176850Y-141545738D02*
X91084671Y-141582083D01*
X91266765Y-141505088D02*
X91176850Y-141545738D01*
X91354288Y-141460261D02*
X91266765Y-141505088D01*
X91439292Y-141411385D02*
X91354288Y-141460261D01*
X91521650Y-141358586D02*
X91439292Y-141411385D01*
X91601233Y-141301993D02*
X91521650Y-141358586D01*
X91677915Y-141241733D02*
X91601233Y-141301993D01*
X91751567Y-141177934D02*
X91677915Y-141241733D01*
X91822063Y-141110723D02*
X91751567Y-141177934D01*
X91889274Y-141040227D02*
X91822063Y-141110723D01*
X91953074Y-140966575D02*
X91889274Y-141040227D01*
X92013333Y-140889893D02*
X91953074Y-140966575D01*
X92069926Y-140810310D02*
X92013333Y-140889893D01*
X92122725Y-140727952D02*
X92069926Y-140810310D01*
X92171601Y-140642948D02*
X92122725Y-140727952D01*
X92216428Y-140555425D02*
X92171601Y-140642948D01*
X92257078Y-140465510D02*
X92216428Y-140555425D01*
X92293423Y-140373331D02*
X92257078Y-140465510D01*
X92325335Y-140279016D02*
X92293423Y-140373331D01*
X92352688Y-140182691D02*
X92325335Y-140279016D01*
X92375354Y-140084486D02*
X92352688Y-140182691D01*
X92393205Y-139984526D02*
X92375354Y-140084486D01*
X92406114Y-139882940D02*
X92393205Y-139984526D01*
X92413952Y-139779856D02*
X92406114Y-139882940D01*
X92416594Y-139675400D02*
X92413952Y-139779856D01*
X171568085Y-60524264D02*
X171568085Y-60524264D01*
X171568085Y-60524264D02*
X171568085Y-60524264D01*
X171565444Y-60419807D02*
X171568085Y-60524264D01*
X171557605Y-60316722D02*
X171565444Y-60419807D01*
X171544696Y-60215136D02*
X171557605Y-60316722D01*
X171526845Y-60115176D02*
X171544696Y-60215136D01*
X171504179Y-60016970D02*
X171526845Y-60115176D01*
X171476826Y-59920646D02*
X171504179Y-60016970D01*
X171444914Y-59826330D02*
X171476826Y-59920646D01*
X171408569Y-59734151D02*
X171444914Y-59826330D01*
X171367919Y-59644236D02*
X171408569Y-59734151D01*
X171323092Y-59556712D02*
X171367919Y-59644236D01*
X171274216Y-59471708D02*
X171323092Y-59556712D01*
X171221417Y-59389350D02*
X171274216Y-59471708D01*
X171164824Y-59309767D02*
X171221417Y-59389350D01*
X171104564Y-59233085D02*
X171164824Y-59309767D01*
X171040765Y-59159433D02*
X171104564Y-59233085D01*
X170973554Y-59088937D02*
X171040765Y-59159433D01*
X170903058Y-59021726D02*
X170973554Y-59088937D01*
X170829406Y-58957926D02*
X170903058Y-59021726D01*
X170752724Y-58897666D02*
X170829406Y-58957926D01*
X170673141Y-58841073D02*
X170752724Y-58897666D01*
X170590783Y-58788275D02*
X170673141Y-58841073D01*
X170505779Y-58739399D02*
X170590783Y-58788275D01*
X170418256Y-58694572D02*
X170505779Y-58739399D01*
X170328341Y-58653922D02*
X170418256Y-58694572D01*
X170236162Y-58617577D02*
X170328341Y-58653922D01*
X170141847Y-58585664D02*
X170236162Y-58617577D01*
X170045522Y-58558311D02*
X170141847Y-58585664D01*
X169947317Y-58535645D02*
X170045522Y-58558311D01*
X169847357Y-58517794D02*
X169947317Y-58535645D01*
X169745771Y-58504886D02*
X169847357Y-58517794D01*
X169642687Y-58497047D02*
X169745771Y-58504886D01*
X169538231Y-58494406D02*
X169642687Y-58497047D01*
X169538231Y-58494406D02*
X169538231Y-58494406D01*
X169433775Y-58497047D02*
X169538231Y-58494406D01*
X169330690Y-58504886D02*
X169433775Y-58497047D01*
X169229104Y-58517794D02*
X169330690Y-58504886D01*
X169129145Y-58535645D02*
X169229104Y-58517794D01*
X169030939Y-58558311D02*
X169129145Y-58535645D01*
X168934614Y-58585664D02*
X169030939Y-58558311D01*
X168840299Y-58617577D02*
X168934614Y-58585664D01*
X168748120Y-58653922D02*
X168840299Y-58617577D01*
X168658205Y-58694572D02*
X168748120Y-58653922D01*
X168570681Y-58739399D02*
X168658205Y-58694572D01*
X168485677Y-58788275D02*
X168570681Y-58739399D01*
X168403319Y-58841073D02*
X168485677Y-58788275D01*
X168323735Y-58897666D02*
X168403319Y-58841073D01*
X168247053Y-58957926D02*
X168323735Y-58897666D01*
X168173400Y-59021726D02*
X168247053Y-58957926D01*
X168102904Y-59088937D02*
X168173400Y-59021726D01*
X168035693Y-59159433D02*
X168102904Y-59088937D01*
X167971893Y-59233085D02*
X168035693Y-59159433D01*
X167911633Y-59309767D02*
X167971893Y-59233085D01*
X167855040Y-59389350D02*
X167911633Y-59309767D01*
X167802241Y-59471708D02*
X167855040Y-59389350D01*
X167753364Y-59556712D02*
X167802241Y-59471708D01*
X167708537Y-59644236D02*
X167753364Y-59556712D01*
X167667887Y-59734151D02*
X167708537Y-59644236D01*
X167631542Y-59826330D02*
X167667887Y-59734151D01*
X167599629Y-59920646D02*
X167631542Y-59826330D01*
X167572275Y-60016970D02*
X167599629Y-59920646D01*
X167549609Y-60115176D02*
X167572275Y-60016970D01*
X167531758Y-60215136D02*
X167549609Y-60115176D01*
X167518850Y-60316722D02*
X167531758Y-60215136D01*
X167511011Y-60419807D02*
X167518850Y-60316722D01*
X167508369Y-60524264D02*
X167511011Y-60419807D01*
X167508369Y-60524264D02*
X167508369Y-60524264D01*
X167511011Y-60628720D02*
X167508369Y-60524264D01*
X167518850Y-60731805D02*
X167511011Y-60628720D01*
X167531758Y-60833391D02*
X167518850Y-60731805D01*
X167549609Y-60933351D02*
X167531758Y-60833391D01*
X167572275Y-61031556D02*
X167549609Y-60933351D01*
X167599629Y-61127881D02*
X167572275Y-61031556D01*
X167631542Y-61222196D02*
X167599629Y-61127881D01*
X167667887Y-61314375D02*
X167631542Y-61222196D01*
X167708537Y-61404290D02*
X167667887Y-61314375D01*
X167753364Y-61491814D02*
X167708537Y-61404290D01*
X167802241Y-61576818D02*
X167753364Y-61491814D01*
X167855040Y-61659176D02*
X167802241Y-61576818D01*
X167911633Y-61738759D02*
X167855040Y-61659176D01*
X167971893Y-61815441D02*
X167911633Y-61738759D01*
X168035693Y-61889093D02*
X167971893Y-61815441D01*
X168102904Y-61959589D02*
X168035693Y-61889093D01*
X168173400Y-62026800D02*
X168102904Y-61959589D01*
X168247053Y-62090599D02*
X168173400Y-62026800D01*
X168323735Y-62150859D02*
X168247053Y-62090599D01*
X168403319Y-62207452D02*
X168323735Y-62150859D01*
X168485677Y-62260250D02*
X168403319Y-62207452D01*
X168570681Y-62309127D02*
X168485677Y-62260250D01*
X168658205Y-62353954D02*
X168570681Y-62309127D01*
X168748120Y-62394603D02*
X168658205Y-62353954D01*
X168840299Y-62430948D02*
X168748120Y-62394603D01*
X168934614Y-62462861D02*
X168840299Y-62430948D01*
X169030939Y-62490214D02*
X168934614Y-62462861D01*
X169129145Y-62512880D02*
X169030939Y-62490214D01*
X169229104Y-62530731D02*
X169129145Y-62512880D01*
X169330690Y-62543639D02*
X169229104Y-62530731D01*
X169433775Y-62551478D02*
X169330690Y-62543639D01*
X169538231Y-62554119D02*
X169433775Y-62551478D01*
X169538231Y-62554119D02*
X169538231Y-62554119D01*
X169642687Y-62551478D02*
X169538231Y-62554119D01*
X169745771Y-62543639D02*
X169642687Y-62551478D01*
X169847357Y-62530731D02*
X169745771Y-62543639D01*
X169947317Y-62512880D02*
X169847357Y-62530731D01*
X170045522Y-62490214D02*
X169947317Y-62512880D01*
X170141847Y-62462861D02*
X170045522Y-62490214D01*
X170236162Y-62430948D02*
X170141847Y-62462861D01*
X170328341Y-62394603D02*
X170236162Y-62430948D01*
X170418256Y-62353954D02*
X170328341Y-62394603D01*
X170505779Y-62309127D02*
X170418256Y-62353954D01*
X170590783Y-62260250D02*
X170505779Y-62309127D01*
X170673141Y-62207452D02*
X170590783Y-62260250D01*
X170752724Y-62150859D02*
X170673141Y-62207452D01*
X170829406Y-62090599D02*
X170752724Y-62150859D01*
X170903058Y-62026800D02*
X170829406Y-62090599D01*
X170973554Y-61959589D02*
X170903058Y-62026800D01*
X171040765Y-61889093D02*
X170973554Y-61959589D01*
X171104564Y-61815441D02*
X171040765Y-61889093D01*
X171164824Y-61738759D02*
X171104564Y-61815441D01*
X171221417Y-61659176D02*
X171164824Y-61738759D01*
X171274216Y-61576818D02*
X171221417Y-61659176D01*
X171323092Y-61491814D02*
X171274216Y-61576818D01*
X171367919Y-61404290D02*
X171323092Y-61491814D01*
X171408569Y-61314375D02*
X171367919Y-61404290D01*
X171444914Y-61222196D02*
X171408569Y-61314375D01*
X171476826Y-61127881D02*
X171444914Y-61222196D01*
X171504179Y-61031556D02*
X171476826Y-61127881D01*
X171526845Y-60933351D02*
X171504179Y-61031556D01*
X171544696Y-60833391D02*
X171526845Y-60933351D01*
X171557605Y-60731805D02*
X171544696Y-60833391D01*
X171565444Y-60628720D02*
X171557605Y-60731805D01*
X171568085Y-60524264D02*
X171565444Y-60628720D01*
D11*
X159500000Y-50400000D02*
G75*
G03*
X159100000Y-50000000I-400000J0D01*
G01*
X167000000Y-50000000D02*
G75*
G03*
X166600000Y-50400000I0J-400000D01*
G01*
X166600000Y-57000000D02*
X159500000Y-57000000D01*
X174000000Y-50000000D02*
X167000000Y-50000000D01*
X166600000Y-57000000D02*
X166600000Y-50400000D01*
X159500000Y-57000000D02*
X159500000Y-50400000D01*
X174000000Y-150000000D02*
X180000000Y-144000000D01*
X180000000Y-56000000D02*
X180000000Y-144000000D01*
X180000000Y-56000000D02*
X174000000Y-50000000D01*
X174000000Y-150000000D02*
X86000000Y-150000000D01*
X80000000Y-144000000D02*
X80000000Y-56000000D01*
X80000000Y-144000000D02*
X86000000Y-150000000D01*
X86000000Y-50000000D02*
X159100000Y-50000000D01*
X80000000Y-56000000D02*
X86000000Y-50000000D01*
M02*
