%TF.GenerationSoftware,KiCad,Pcbnew,(6.0.8)*%
%TF.CreationDate,2023-01-30T22:30:07-07:00*%
%TF.ProjectId,Power,506f7765-722e-46b6-9963-61645f706362,rev?*%
%TF.SameCoordinates,Original*%
%TF.FileFunction,Copper,L1,Top*%
%TF.FilePolarity,Positive*%
%FSLAX46Y46*%
G04 Gerber Fmt 4.6, Leading zero omitted, Abs format (unit mm)*
G04 Created by KiCad (PCBNEW (6.0.8)) date 2023-01-30 22:30:07*
%MOMM*%
%LPD*%
G01*
G04 APERTURE LIST*
G04 Aperture macros list*
%AMRoundRect*
0 Rectangle with rounded corners*
0 $1 Rounding radius*
0 $2 $3 $4 $5 $6 $7 $8 $9 X,Y pos of 4 corners*
0 Add a 4 corners polygon primitive as box body*
4,1,4,$2,$3,$4,$5,$6,$7,$8,$9,$2,$3,0*
0 Add four circle primitives for the rounded corners*
1,1,$1+$1,$2,$3*
1,1,$1+$1,$4,$5*
1,1,$1+$1,$6,$7*
1,1,$1+$1,$8,$9*
0 Add four rect primitives between the rounded corners*
20,1,$1+$1,$2,$3,$4,$5,0*
20,1,$1+$1,$4,$5,$6,$7,0*
20,1,$1+$1,$6,$7,$8,$9,0*
20,1,$1+$1,$8,$9,$2,$3,0*%
G04 Aperture macros list end*
%TA.AperFunction,SMDPad,CuDef*%
%ADD10RoundRect,0.250000X-0.337500X-0.475000X0.337500X-0.475000X0.337500X0.475000X-0.337500X0.475000X0*%
%TD*%
%TA.AperFunction,ComponentPad*%
%ADD11RoundRect,0.250000X-0.600000X-0.750000X0.600000X-0.750000X0.600000X0.750000X-0.600000X0.750000X0*%
%TD*%
%TA.AperFunction,ComponentPad*%
%ADD12O,1.700000X2.000000*%
%TD*%
%TA.AperFunction,ComponentPad*%
%ADD13R,2.000000X4.000000*%
%TD*%
%TA.AperFunction,ComponentPad*%
%ADD14O,2.000000X3.300000*%
%TD*%
%TA.AperFunction,ComponentPad*%
%ADD15O,3.500000X2.000000*%
%TD*%
%TA.AperFunction,ComponentPad*%
%ADD16R,3.000000X3.000000*%
%TD*%
%TA.AperFunction,ComponentPad*%
%ADD17C,3.000000*%
%TD*%
%TA.AperFunction,Conductor*%
%ADD18C,1.000000*%
%TD*%
G04 APERTURE END LIST*
D10*
%TO.P,C1,1*%
%TO.N,+5V*%
X116344000Y-98874000D03*
%TO.P,C1,2*%
%TO.N,GND*%
X118419000Y-98874000D03*
%TD*%
D11*
%TO.P,J6,1,Pin_1*%
%TO.N,+5V*%
X141092500Y-103700000D03*
D12*
%TO.P,J6,2,Pin_2*%
%TO.N,GND*%
X143592500Y-103700000D03*
%TD*%
D11*
%TO.P,J5,1,Pin_1*%
%TO.N,+5V*%
X132242500Y-103700000D03*
D12*
%TO.P,J5,2,Pin_2*%
%TO.N,GND*%
X134742500Y-103700000D03*
%TD*%
D13*
%TO.P,J2,1*%
%TO.N,+5V*%
X123700000Y-91000000D03*
D14*
%TO.P,J2,2*%
%TO.N,GND*%
X117700000Y-91000000D03*
D15*
%TO.P,J2,MP*%
X116700000Y-95500000D03*
X116700000Y-86500000D03*
%TD*%
D10*
%TO.P,C2,1*%
%TO.N,+5V*%
X125212500Y-98874000D03*
%TO.P,C2,2*%
%TO.N,GND*%
X127287500Y-98874000D03*
%TD*%
D11*
%TO.P,J4,1,Pin_1*%
%TO.N,+5V*%
X123312500Y-103700000D03*
D12*
%TO.P,J4,2,Pin_2*%
%TO.N,GND*%
X125812500Y-103700000D03*
%TD*%
D10*
%TO.P,C4,1*%
%TO.N,+5V*%
X151861000Y-98874000D03*
%TO.P,C4,2*%
%TO.N,GND*%
X153936000Y-98874000D03*
%TD*%
D16*
%TO.P,J1,1,Pin_1*%
%TO.N,+5V*%
X134510000Y-88000000D03*
D17*
%TO.P,J1,2,Pin_2*%
%TO.N,GND*%
X129430000Y-88000000D03*
%TD*%
D11*
%TO.P,J7,1,Pin_1*%
%TO.N,+5V*%
X149982500Y-103700000D03*
D12*
%TO.P,J7,2,Pin_2*%
%TO.N,GND*%
X152482500Y-103700000D03*
%TD*%
D10*
%TO.P,C3,1*%
%TO.N,+5V*%
X134081000Y-98874000D03*
%TO.P,C3,2*%
%TO.N,GND*%
X136156000Y-98874000D03*
%TD*%
%TO.P,C5,1*%
%TO.N,+5V*%
X142971000Y-98874000D03*
%TO.P,C5,2*%
%TO.N,GND*%
X145046000Y-98874000D03*
%TD*%
D11*
%TO.P,J3,1,Pin_1*%
%TO.N,+5V*%
X114422500Y-103700000D03*
D12*
%TO.P,J3,2,Pin_2*%
%TO.N,GND*%
X116922500Y-103700000D03*
%TD*%
D18*
%TO.N,+5V*%
X123312500Y-103700000D02*
X123312500Y-101392500D01*
X142971000Y-99492500D02*
X142971000Y-98874000D01*
X123312500Y-101392500D02*
X125212500Y-99492500D01*
X116344000Y-99492500D02*
X116344000Y-98874000D01*
X114422500Y-101414000D02*
X116344000Y-99492500D01*
X151861000Y-99492500D02*
X151861000Y-98874000D01*
X125212500Y-99492500D02*
X125212500Y-98874000D01*
X141092500Y-101371000D02*
X142971000Y-99492500D01*
X141092500Y-103700000D02*
X141092500Y-101371000D01*
X134081000Y-99492500D02*
X134081000Y-98874000D01*
X132242500Y-103700000D02*
X132242500Y-101331000D01*
X149982500Y-103700000D02*
X149982500Y-101371000D01*
X132242500Y-101331000D02*
X134081000Y-99492500D01*
X114422500Y-103700000D02*
X114422500Y-101414000D01*
X149982500Y-101371000D02*
X151861000Y-99492500D01*
%TD*%
%TA.AperFunction,Conductor*%
%TO.N,GND*%
G36*
X154516000Y-100049080D02*
G01*
X154519973Y-100062611D01*
X154526799Y-100063592D01*
X154590284Y-100042412D01*
X154603462Y-100036239D01*
X154741307Y-99950937D01*
X154752708Y-99941901D01*
X154776327Y-99918241D01*
X154838610Y-99884162D01*
X154909430Y-99889165D01*
X154966303Y-99931663D01*
X154991171Y-99998161D01*
X154991500Y-100007259D01*
X154991500Y-106450633D01*
X154990000Y-106470018D01*
X154987690Y-106484851D01*
X154987690Y-106484855D01*
X154986309Y-106493724D01*
X154988439Y-106510010D01*
X154989233Y-106534590D01*
X154975002Y-106751701D01*
X154972851Y-106768041D01*
X154934592Y-106960386D01*
X154925252Y-107007340D01*
X154920986Y-107023260D01*
X154842561Y-107254292D01*
X154836254Y-107269519D01*
X154728343Y-107488342D01*
X154720102Y-107502616D01*
X154584553Y-107705478D01*
X154574520Y-107718553D01*
X154413648Y-107901993D01*
X154401993Y-107913648D01*
X154218553Y-108074520D01*
X154205478Y-108084553D01*
X154002616Y-108220102D01*
X153988342Y-108228343D01*
X153769519Y-108336254D01*
X153754292Y-108342561D01*
X153712593Y-108356716D01*
X153523257Y-108420987D01*
X153507343Y-108425251D01*
X153387691Y-108449051D01*
X153268041Y-108472851D01*
X153251701Y-108475002D01*
X153110437Y-108484262D01*
X153041763Y-108488763D01*
X153018650Y-108487733D01*
X153015146Y-108487690D01*
X153006276Y-108486309D01*
X152997374Y-108487473D01*
X152997372Y-108487473D01*
X152982323Y-108489441D01*
X152974714Y-108490436D01*
X152958379Y-108491500D01*
X113549367Y-108491500D01*
X113529982Y-108490000D01*
X113515149Y-108487690D01*
X113515145Y-108487690D01*
X113506276Y-108486309D01*
X113491019Y-108488304D01*
X113465698Y-108489047D01*
X113296715Y-108476961D01*
X113278936Y-108474404D01*
X113088607Y-108433001D01*
X113071359Y-108427937D01*
X112888850Y-108359864D01*
X112872498Y-108352396D01*
X112701542Y-108259048D01*
X112686418Y-108249328D01*
X112530486Y-108132598D01*
X112516900Y-108120825D01*
X112379175Y-107983100D01*
X112367402Y-107969514D01*
X112250672Y-107813582D01*
X112240952Y-107798458D01*
X112147604Y-107627502D01*
X112140136Y-107611150D01*
X112072063Y-107428641D01*
X112066999Y-107411392D01*
X112034525Y-107262114D01*
X112025596Y-107221064D01*
X112023038Y-107203278D01*
X112011719Y-107045012D01*
X112012805Y-107022245D01*
X112012334Y-107022203D01*
X112012770Y-107017345D01*
X112013576Y-107012552D01*
X112013729Y-107000000D01*
X112009773Y-106972376D01*
X112008500Y-106954514D01*
X112008500Y-99245143D01*
X112028502Y-99177022D01*
X112082158Y-99130529D01*
X112134328Y-99119143D01*
X112529169Y-99118605D01*
X114990655Y-99115248D01*
X115058803Y-99135157D01*
X115105369Y-99188749D01*
X115115569Y-99259010D01*
X115086164Y-99323631D01*
X115079922Y-99330343D01*
X113753121Y-100657145D01*
X113742978Y-100666247D01*
X113713475Y-100689968D01*
X113699250Y-100706921D01*
X113681209Y-100728421D01*
X113678028Y-100732069D01*
X113676385Y-100733881D01*
X113674191Y-100736075D01*
X113646858Y-100769349D01*
X113646196Y-100770147D01*
X113586346Y-100841474D01*
X113583778Y-100846144D01*
X113580397Y-100850261D01*
X113559235Y-100889728D01*
X113536523Y-100932086D01*
X113535894Y-100933245D01*
X113494038Y-101009381D01*
X113494035Y-101009389D01*
X113491067Y-101014787D01*
X113489455Y-101019869D01*
X113486938Y-101024563D01*
X113459738Y-101113531D01*
X113459418Y-101114559D01*
X113431265Y-101203306D01*
X113430671Y-101208602D01*
X113429113Y-101213698D01*
X113421769Y-101285999D01*
X113419718Y-101306187D01*
X113419589Y-101307393D01*
X113414000Y-101357227D01*
X113414000Y-101360754D01*
X113413945Y-101361739D01*
X113413498Y-101367419D01*
X113409126Y-101410462D01*
X113410497Y-101424967D01*
X113413441Y-101456109D01*
X113414000Y-101467967D01*
X113414000Y-102240572D01*
X113393998Y-102308693D01*
X113359612Y-102342495D01*
X113360112Y-102343125D01*
X113354380Y-102347668D01*
X113348152Y-102351522D01*
X113223195Y-102476697D01*
X113219355Y-102482927D01*
X113219354Y-102482928D01*
X113149454Y-102596327D01*
X113130385Y-102627262D01*
X113074703Y-102795139D01*
X113064000Y-102899600D01*
X113064000Y-104500400D01*
X113074974Y-104606166D01*
X113130950Y-104773946D01*
X113224022Y-104924348D01*
X113349197Y-105049305D01*
X113355427Y-105053145D01*
X113355428Y-105053146D01*
X113492590Y-105137694D01*
X113499762Y-105142115D01*
X113579505Y-105168564D01*
X113661111Y-105195632D01*
X113661113Y-105195632D01*
X113667639Y-105197797D01*
X113674475Y-105198497D01*
X113674478Y-105198498D01*
X113717531Y-105202909D01*
X113772100Y-105208500D01*
X115072900Y-105208500D01*
X115076146Y-105208163D01*
X115076150Y-105208163D01*
X115171808Y-105198238D01*
X115171812Y-105198237D01*
X115178666Y-105197526D01*
X115185202Y-105195345D01*
X115185204Y-105195345D01*
X115317306Y-105151272D01*
X115346446Y-105141550D01*
X115496848Y-105048478D01*
X115621805Y-104923303D01*
X115711853Y-104777220D01*
X115764624Y-104729727D01*
X115834696Y-104718303D01*
X115899820Y-104746577D01*
X115910282Y-104756364D01*
X116015734Y-104866906D01*
X116023686Y-104873941D01*
X116200025Y-105005141D01*
X116209062Y-105010745D01*
X116326353Y-105070379D01*
X116340213Y-105072969D01*
X116342181Y-105070172D01*
X116342500Y-105068243D01*
X116342500Y-105062927D01*
X117502500Y-105062927D01*
X117506473Y-105076458D01*
X117512070Y-105077263D01*
X117523529Y-105072737D01*
X117533061Y-105068006D01*
X117720962Y-104953984D01*
X117729552Y-104947720D01*
X117895552Y-104803673D01*
X117902972Y-104796042D01*
X118042326Y-104626089D01*
X118048350Y-104617322D01*
X118157076Y-104426318D01*
X118161541Y-104416654D01*
X118204963Y-104297028D01*
X118205845Y-104282955D01*
X118200319Y-104280000D01*
X117520615Y-104280000D01*
X117505376Y-104284475D01*
X117504171Y-104285865D01*
X117502500Y-104293548D01*
X117502500Y-105062927D01*
X116342500Y-105062927D01*
X116342500Y-103101885D01*
X117502500Y-103101885D01*
X117506975Y-103117124D01*
X117508365Y-103118329D01*
X117516048Y-103120000D01*
X118195806Y-103120000D01*
X118209337Y-103116027D01*
X118210603Y-103107217D01*
X118209369Y-103102459D01*
X118205837Y-103092431D01*
X118115563Y-102892030D01*
X118110394Y-102882744D01*
X117987650Y-102700425D01*
X117980981Y-102692130D01*
X117829272Y-102533100D01*
X117821314Y-102526059D01*
X117644975Y-102394859D01*
X117635938Y-102389255D01*
X117518647Y-102329621D01*
X117504787Y-102327031D01*
X117502819Y-102329828D01*
X117502500Y-102331757D01*
X117502500Y-103101885D01*
X116342500Y-103101885D01*
X116342500Y-102337073D01*
X116338527Y-102323542D01*
X116332930Y-102322737D01*
X116321471Y-102327263D01*
X116311939Y-102331994D01*
X116124038Y-102446016D01*
X116115448Y-102452280D01*
X115949448Y-102596327D01*
X115942030Y-102603956D01*
X115916109Y-102635569D01*
X115857449Y-102675564D01*
X115786479Y-102677496D01*
X115725730Y-102640752D01*
X115711530Y-102621982D01*
X115624832Y-102481880D01*
X115620978Y-102475652D01*
X115495803Y-102350695D01*
X115489572Y-102346854D01*
X115483827Y-102342317D01*
X115484877Y-102340987D01*
X115443392Y-102294893D01*
X115431000Y-102240403D01*
X115431000Y-101883925D01*
X115451002Y-101815804D01*
X115467905Y-101794830D01*
X117013379Y-100249355D01*
X117023522Y-100240253D01*
X117048218Y-100220397D01*
X117053025Y-100216532D01*
X117085320Y-100178044D01*
X117088478Y-100174425D01*
X117090124Y-100172610D01*
X117092309Y-100170425D01*
X117094264Y-100168045D01*
X117094273Y-100168035D01*
X117119549Y-100137264D01*
X117120391Y-100136249D01*
X117176194Y-100069745D01*
X117176195Y-100069744D01*
X117180154Y-100065026D01*
X117182723Y-100060352D01*
X117186102Y-100056239D01*
X117196516Y-100036818D01*
X117229955Y-99974453D01*
X117230584Y-99973293D01*
X117272464Y-99897114D01*
X117272465Y-99897111D01*
X117275433Y-99891713D01*
X117277045Y-99886631D01*
X117279562Y-99881937D01*
X117281366Y-99876037D01*
X117283731Y-99870355D01*
X117286236Y-99871398D01*
X117318880Y-99821887D01*
X117383801Y-99793152D01*
X117453952Y-99804078D01*
X117489290Y-99828898D01*
X117603329Y-99942739D01*
X117614740Y-99951751D01*
X117752745Y-100036818D01*
X117765922Y-100042962D01*
X117821806Y-100061498D01*
X117835898Y-100061987D01*
X117839000Y-100055775D01*
X117839000Y-99111363D01*
X118999000Y-99109781D01*
X118999000Y-100049080D01*
X119002973Y-100062611D01*
X119009799Y-100063592D01*
X119073284Y-100042412D01*
X119086462Y-100036239D01*
X119224307Y-99950937D01*
X119235708Y-99941901D01*
X119350239Y-99827171D01*
X119359251Y-99815760D01*
X119444316Y-99677757D01*
X119450463Y-99664576D01*
X119501638Y-99510290D01*
X119504505Y-99496914D01*
X119514172Y-99402562D01*
X119514500Y-99396146D01*
X119514500Y-99234906D01*
X119534502Y-99166785D01*
X119588158Y-99120292D01*
X119640327Y-99108906D01*
X123385977Y-99103798D01*
X123871268Y-99103136D01*
X123939416Y-99123045D01*
X123985982Y-99176637D01*
X123996182Y-99246898D01*
X123966777Y-99311519D01*
X123960535Y-99318231D01*
X122643121Y-100635645D01*
X122632978Y-100644747D01*
X122603475Y-100668468D01*
X122587757Y-100687200D01*
X122571209Y-100706921D01*
X122568028Y-100710569D01*
X122566385Y-100712381D01*
X122564191Y-100714575D01*
X122536858Y-100747849D01*
X122536196Y-100748647D01*
X122476346Y-100819974D01*
X122473778Y-100824644D01*
X122470397Y-100828761D01*
X122439360Y-100886645D01*
X122426523Y-100910586D01*
X122425894Y-100911745D01*
X122384038Y-100987881D01*
X122384035Y-100987889D01*
X122381067Y-100993287D01*
X122379455Y-100998369D01*
X122376938Y-101003063D01*
X122349738Y-101092031D01*
X122349418Y-101093059D01*
X122321265Y-101181806D01*
X122320671Y-101187102D01*
X122319113Y-101192198D01*
X122310781Y-101274227D01*
X122309718Y-101284687D01*
X122309589Y-101285893D01*
X122304000Y-101335727D01*
X122304000Y-101339254D01*
X122303945Y-101340239D01*
X122303498Y-101345919D01*
X122299126Y-101388962D01*
X122301409Y-101413109D01*
X122303441Y-101434609D01*
X122304000Y-101446467D01*
X122304000Y-102240572D01*
X122283998Y-102308693D01*
X122249612Y-102342495D01*
X122250112Y-102343125D01*
X122244380Y-102347668D01*
X122238152Y-102351522D01*
X122113195Y-102476697D01*
X122109355Y-102482927D01*
X122109354Y-102482928D01*
X122039454Y-102596327D01*
X122020385Y-102627262D01*
X121964703Y-102795139D01*
X121954000Y-102899600D01*
X121954000Y-104500400D01*
X121964974Y-104606166D01*
X122020950Y-104773946D01*
X122114022Y-104924348D01*
X122239197Y-105049305D01*
X122245427Y-105053145D01*
X122245428Y-105053146D01*
X122382590Y-105137694D01*
X122389762Y-105142115D01*
X122469505Y-105168564D01*
X122551111Y-105195632D01*
X122551113Y-105195632D01*
X122557639Y-105197797D01*
X122564475Y-105198497D01*
X122564478Y-105198498D01*
X122607531Y-105202909D01*
X122662100Y-105208500D01*
X123962900Y-105208500D01*
X123966146Y-105208163D01*
X123966150Y-105208163D01*
X124061808Y-105198238D01*
X124061812Y-105198237D01*
X124068666Y-105197526D01*
X124075202Y-105195345D01*
X124075204Y-105195345D01*
X124207306Y-105151272D01*
X124236446Y-105141550D01*
X124386848Y-105048478D01*
X124511805Y-104923303D01*
X124601853Y-104777220D01*
X124654624Y-104729727D01*
X124724696Y-104718303D01*
X124789820Y-104746577D01*
X124800282Y-104756364D01*
X124905734Y-104866906D01*
X124913686Y-104873941D01*
X125090025Y-105005141D01*
X125099062Y-105010745D01*
X125216353Y-105070379D01*
X125230213Y-105072969D01*
X125232181Y-105070172D01*
X125232500Y-105068243D01*
X125232500Y-105062927D01*
X126392500Y-105062927D01*
X126396473Y-105076458D01*
X126402070Y-105077263D01*
X126413529Y-105072737D01*
X126423061Y-105068006D01*
X126610962Y-104953984D01*
X126619552Y-104947720D01*
X126785552Y-104803673D01*
X126792972Y-104796042D01*
X126932326Y-104626089D01*
X126938350Y-104617322D01*
X127047076Y-104426318D01*
X127051541Y-104416654D01*
X127094963Y-104297028D01*
X127095845Y-104282955D01*
X127090319Y-104280000D01*
X126410615Y-104280000D01*
X126395376Y-104284475D01*
X126394171Y-104285865D01*
X126392500Y-104293548D01*
X126392500Y-105062927D01*
X125232500Y-105062927D01*
X125232500Y-103101885D01*
X126392500Y-103101885D01*
X126396975Y-103117124D01*
X126398365Y-103118329D01*
X126406048Y-103120000D01*
X127085806Y-103120000D01*
X127099337Y-103116027D01*
X127100603Y-103107217D01*
X127099369Y-103102459D01*
X127095837Y-103092431D01*
X127005563Y-102892030D01*
X127000394Y-102882744D01*
X126877650Y-102700425D01*
X126870981Y-102692130D01*
X126719272Y-102533100D01*
X126711314Y-102526059D01*
X126534975Y-102394859D01*
X126525938Y-102389255D01*
X126408647Y-102329621D01*
X126394787Y-102327031D01*
X126392819Y-102329828D01*
X126392500Y-102331757D01*
X126392500Y-103101885D01*
X125232500Y-103101885D01*
X125232500Y-102337073D01*
X125228527Y-102323542D01*
X125222930Y-102322737D01*
X125211471Y-102327263D01*
X125201939Y-102331994D01*
X125014038Y-102446016D01*
X125005448Y-102452280D01*
X124839448Y-102596327D01*
X124832030Y-102603956D01*
X124806109Y-102635569D01*
X124747449Y-102675564D01*
X124676479Y-102677496D01*
X124615730Y-102640752D01*
X124601530Y-102621982D01*
X124514832Y-102481880D01*
X124510978Y-102475652D01*
X124385803Y-102350695D01*
X124379572Y-102346854D01*
X124373827Y-102342317D01*
X124374877Y-102340987D01*
X124333392Y-102294893D01*
X124321000Y-102240403D01*
X124321000Y-101862425D01*
X124341002Y-101794304D01*
X124357905Y-101773330D01*
X125881879Y-100249355D01*
X125892022Y-100240253D01*
X125916718Y-100220397D01*
X125921525Y-100216532D01*
X125953792Y-100178078D01*
X125956972Y-100174431D01*
X125958615Y-100172619D01*
X125960809Y-100170425D01*
X125988142Y-100137151D01*
X125988848Y-100136300D01*
X126044695Y-100069744D01*
X126048654Y-100065026D01*
X126051222Y-100060356D01*
X126054603Y-100056239D01*
X126098515Y-99974342D01*
X126099124Y-99973220D01*
X126140966Y-99897111D01*
X126140968Y-99897106D01*
X126143933Y-99891713D01*
X126145544Y-99886635D01*
X126148063Y-99881937D01*
X126149863Y-99876049D01*
X126152230Y-99870362D01*
X126154762Y-99871416D01*
X126187255Y-99821993D01*
X126252139Y-99793174D01*
X126322304Y-99804008D01*
X126357790Y-99828898D01*
X126471829Y-99942739D01*
X126483240Y-99951751D01*
X126621245Y-100036818D01*
X126634422Y-100042962D01*
X126690306Y-100061498D01*
X126704398Y-100061987D01*
X126707500Y-100055775D01*
X126707500Y-99099268D01*
X127867500Y-99097686D01*
X127867500Y-100049080D01*
X127871473Y-100062611D01*
X127878299Y-100063592D01*
X127941784Y-100042412D01*
X127954962Y-100036239D01*
X128092807Y-99950937D01*
X128104208Y-99941901D01*
X128218739Y-99827171D01*
X128227751Y-99815760D01*
X128312816Y-99677757D01*
X128318963Y-99664576D01*
X128370138Y-99510290D01*
X128373005Y-99496914D01*
X128382672Y-99402562D01*
X128383000Y-99396146D01*
X128383000Y-99222811D01*
X128403002Y-99154690D01*
X128456658Y-99108197D01*
X128508827Y-99096811D01*
X129411557Y-99095580D01*
X132751879Y-99091025D01*
X132820027Y-99110934D01*
X132866593Y-99164526D01*
X132876793Y-99234787D01*
X132847388Y-99299408D01*
X132841146Y-99306120D01*
X131573121Y-100574145D01*
X131562978Y-100583247D01*
X131533475Y-100606968D01*
X131529508Y-100611696D01*
X131501209Y-100645421D01*
X131498028Y-100649069D01*
X131496385Y-100650881D01*
X131494191Y-100653075D01*
X131466858Y-100686349D01*
X131466196Y-100687147D01*
X131406346Y-100758474D01*
X131403778Y-100763144D01*
X131400397Y-100767261D01*
X131378849Y-100807449D01*
X131356523Y-100849086D01*
X131355894Y-100850245D01*
X131314038Y-100926381D01*
X131314035Y-100926389D01*
X131311067Y-100931787D01*
X131309455Y-100936869D01*
X131306938Y-100941563D01*
X131279761Y-101030456D01*
X131279418Y-101031559D01*
X131251265Y-101120306D01*
X131250671Y-101125602D01*
X131249113Y-101130698D01*
X131240059Y-101219834D01*
X131239718Y-101223187D01*
X131239589Y-101224393D01*
X131234000Y-101274227D01*
X131234000Y-101277754D01*
X131233945Y-101278739D01*
X131233498Y-101284419D01*
X131229126Y-101327462D01*
X131231609Y-101353730D01*
X131233441Y-101373109D01*
X131234000Y-101384967D01*
X131234000Y-102240572D01*
X131213998Y-102308693D01*
X131179612Y-102342495D01*
X131180112Y-102343125D01*
X131174380Y-102347668D01*
X131168152Y-102351522D01*
X131043195Y-102476697D01*
X131039355Y-102482927D01*
X131039354Y-102482928D01*
X130969454Y-102596327D01*
X130950385Y-102627262D01*
X130894703Y-102795139D01*
X130884000Y-102899600D01*
X130884000Y-104500400D01*
X130894974Y-104606166D01*
X130950950Y-104773946D01*
X131044022Y-104924348D01*
X131169197Y-105049305D01*
X131175427Y-105053145D01*
X131175428Y-105053146D01*
X131312590Y-105137694D01*
X131319762Y-105142115D01*
X131399505Y-105168564D01*
X131481111Y-105195632D01*
X131481113Y-105195632D01*
X131487639Y-105197797D01*
X131494475Y-105198497D01*
X131494478Y-105198498D01*
X131537531Y-105202909D01*
X131592100Y-105208500D01*
X132892900Y-105208500D01*
X132896146Y-105208163D01*
X132896150Y-105208163D01*
X132991808Y-105198238D01*
X132991812Y-105198237D01*
X132998666Y-105197526D01*
X133005202Y-105195345D01*
X133005204Y-105195345D01*
X133137306Y-105151272D01*
X133166446Y-105141550D01*
X133316848Y-105048478D01*
X133441805Y-104923303D01*
X133531853Y-104777220D01*
X133584624Y-104729727D01*
X133654696Y-104718303D01*
X133719820Y-104746577D01*
X133730282Y-104756364D01*
X133835734Y-104866906D01*
X133843686Y-104873941D01*
X134020025Y-105005141D01*
X134029062Y-105010745D01*
X134146353Y-105070379D01*
X134160213Y-105072969D01*
X134162181Y-105070172D01*
X134162500Y-105068243D01*
X134162500Y-105062927D01*
X135322500Y-105062927D01*
X135326473Y-105076458D01*
X135332070Y-105077263D01*
X135343529Y-105072737D01*
X135353061Y-105068006D01*
X135540962Y-104953984D01*
X135549552Y-104947720D01*
X135715552Y-104803673D01*
X135722972Y-104796042D01*
X135862326Y-104626089D01*
X135868350Y-104617322D01*
X135977076Y-104426318D01*
X135981541Y-104416654D01*
X136024963Y-104297028D01*
X136025845Y-104282955D01*
X136020319Y-104280000D01*
X135340615Y-104280000D01*
X135325376Y-104284475D01*
X135324171Y-104285865D01*
X135322500Y-104293548D01*
X135322500Y-105062927D01*
X134162500Y-105062927D01*
X134162500Y-103101885D01*
X135322500Y-103101885D01*
X135326975Y-103117124D01*
X135328365Y-103118329D01*
X135336048Y-103120000D01*
X136015806Y-103120000D01*
X136029337Y-103116027D01*
X136030603Y-103107217D01*
X136029369Y-103102459D01*
X136025837Y-103092431D01*
X135935563Y-102892030D01*
X135930394Y-102882744D01*
X135807650Y-102700425D01*
X135800981Y-102692130D01*
X135649272Y-102533100D01*
X135641314Y-102526059D01*
X135464975Y-102394859D01*
X135455938Y-102389255D01*
X135338647Y-102329621D01*
X135324787Y-102327031D01*
X135322819Y-102329828D01*
X135322500Y-102331757D01*
X135322500Y-103101885D01*
X134162500Y-103101885D01*
X134162500Y-102337073D01*
X134158527Y-102323542D01*
X134152930Y-102322737D01*
X134141471Y-102327263D01*
X134131939Y-102331994D01*
X133944038Y-102446016D01*
X133935448Y-102452280D01*
X133769448Y-102596327D01*
X133762030Y-102603956D01*
X133736109Y-102635569D01*
X133677449Y-102675564D01*
X133606479Y-102677496D01*
X133545730Y-102640752D01*
X133531530Y-102621982D01*
X133444832Y-102481880D01*
X133440978Y-102475652D01*
X133315803Y-102350695D01*
X133309572Y-102346854D01*
X133303827Y-102342317D01*
X133304877Y-102340987D01*
X133263392Y-102294893D01*
X133251000Y-102240403D01*
X133251000Y-101800925D01*
X133271002Y-101732804D01*
X133287905Y-101711830D01*
X134750379Y-100249355D01*
X134760522Y-100240253D01*
X134785218Y-100220397D01*
X134790025Y-100216532D01*
X134822292Y-100178078D01*
X134825472Y-100174431D01*
X134827115Y-100172619D01*
X134829309Y-100170425D01*
X134856642Y-100137151D01*
X134857348Y-100136300D01*
X134913195Y-100069744D01*
X134917154Y-100065026D01*
X134919722Y-100060356D01*
X134923103Y-100056239D01*
X134967015Y-99974342D01*
X134967624Y-99973220D01*
X135009466Y-99897111D01*
X135009468Y-99897106D01*
X135012433Y-99891713D01*
X135014044Y-99886635D01*
X135016563Y-99881937D01*
X135018363Y-99876049D01*
X135020730Y-99870362D01*
X135023262Y-99871416D01*
X135055755Y-99821993D01*
X135120639Y-99793174D01*
X135190804Y-99804008D01*
X135226290Y-99828898D01*
X135340329Y-99942739D01*
X135351740Y-99951751D01*
X135489745Y-100036818D01*
X135502922Y-100042962D01*
X135558806Y-100061498D01*
X135572898Y-100061987D01*
X135576000Y-100055775D01*
X135576000Y-99087173D01*
X136736000Y-99085591D01*
X136736000Y-100049080D01*
X136739973Y-100062611D01*
X136746799Y-100063592D01*
X136810284Y-100042412D01*
X136823462Y-100036239D01*
X136961307Y-99950937D01*
X136972708Y-99941901D01*
X137087239Y-99827171D01*
X137096251Y-99815760D01*
X137181316Y-99677757D01*
X137187463Y-99664576D01*
X137238638Y-99510290D01*
X137241505Y-99496914D01*
X137251172Y-99402562D01*
X137251500Y-99396146D01*
X137251500Y-99210716D01*
X137271502Y-99142595D01*
X137325158Y-99096102D01*
X137377328Y-99084716D01*
X141654022Y-99078883D01*
X141722168Y-99098792D01*
X141768734Y-99152384D01*
X141778934Y-99222645D01*
X141749529Y-99287265D01*
X141743287Y-99293978D01*
X140423121Y-100614145D01*
X140412978Y-100623247D01*
X140383475Y-100646968D01*
X140367298Y-100666247D01*
X140351209Y-100685421D01*
X140348028Y-100689069D01*
X140346385Y-100690881D01*
X140344191Y-100693075D01*
X140316858Y-100726349D01*
X140316196Y-100727147D01*
X140256346Y-100798474D01*
X140253778Y-100803144D01*
X140250397Y-100807261D01*
X140227341Y-100850261D01*
X140206523Y-100889086D01*
X140205894Y-100890245D01*
X140164038Y-100966381D01*
X140164035Y-100966389D01*
X140161067Y-100971787D01*
X140159455Y-100976869D01*
X140156938Y-100981563D01*
X140129738Y-101070531D01*
X140129418Y-101071559D01*
X140101265Y-101160306D01*
X140100671Y-101165602D01*
X140099113Y-101170698D01*
X140093715Y-101223843D01*
X140089718Y-101263187D01*
X140089589Y-101264393D01*
X140087340Y-101284447D01*
X140084755Y-101307499D01*
X140084000Y-101314227D01*
X140084000Y-101317754D01*
X140083945Y-101318739D01*
X140083498Y-101324419D01*
X140079126Y-101367462D01*
X140081738Y-101395093D01*
X140083441Y-101413109D01*
X140084000Y-101424967D01*
X140084000Y-102240572D01*
X140063998Y-102308693D01*
X140029612Y-102342495D01*
X140030112Y-102343125D01*
X140024380Y-102347668D01*
X140018152Y-102351522D01*
X139893195Y-102476697D01*
X139889355Y-102482927D01*
X139889354Y-102482928D01*
X139819454Y-102596327D01*
X139800385Y-102627262D01*
X139744703Y-102795139D01*
X139734000Y-102899600D01*
X139734000Y-104500400D01*
X139744974Y-104606166D01*
X139800950Y-104773946D01*
X139894022Y-104924348D01*
X140019197Y-105049305D01*
X140025427Y-105053145D01*
X140025428Y-105053146D01*
X140162590Y-105137694D01*
X140169762Y-105142115D01*
X140249505Y-105168564D01*
X140331111Y-105195632D01*
X140331113Y-105195632D01*
X140337639Y-105197797D01*
X140344475Y-105198497D01*
X140344478Y-105198498D01*
X140387531Y-105202909D01*
X140442100Y-105208500D01*
X141742900Y-105208500D01*
X141746146Y-105208163D01*
X141746150Y-105208163D01*
X141841808Y-105198238D01*
X141841812Y-105198237D01*
X141848666Y-105197526D01*
X141855202Y-105195345D01*
X141855204Y-105195345D01*
X141987306Y-105151272D01*
X142016446Y-105141550D01*
X142166848Y-105048478D01*
X142291805Y-104923303D01*
X142381853Y-104777220D01*
X142434624Y-104729727D01*
X142504696Y-104718303D01*
X142569820Y-104746577D01*
X142580282Y-104756364D01*
X142685734Y-104866906D01*
X142693686Y-104873941D01*
X142870025Y-105005141D01*
X142879062Y-105010745D01*
X142996353Y-105070379D01*
X143010213Y-105072969D01*
X143012181Y-105070172D01*
X143012500Y-105068243D01*
X143012500Y-105062927D01*
X144172500Y-105062927D01*
X144176473Y-105076458D01*
X144182070Y-105077263D01*
X144193529Y-105072737D01*
X144203061Y-105068006D01*
X144390962Y-104953984D01*
X144399552Y-104947720D01*
X144565552Y-104803673D01*
X144572972Y-104796042D01*
X144712326Y-104626089D01*
X144718350Y-104617322D01*
X144827076Y-104426318D01*
X144831541Y-104416654D01*
X144874963Y-104297028D01*
X144875845Y-104282955D01*
X144870319Y-104280000D01*
X144190615Y-104280000D01*
X144175376Y-104284475D01*
X144174171Y-104285865D01*
X144172500Y-104293548D01*
X144172500Y-105062927D01*
X143012500Y-105062927D01*
X143012500Y-103101885D01*
X144172500Y-103101885D01*
X144176975Y-103117124D01*
X144178365Y-103118329D01*
X144186048Y-103120000D01*
X144865806Y-103120000D01*
X144879337Y-103116027D01*
X144880603Y-103107217D01*
X144879369Y-103102459D01*
X144875837Y-103092431D01*
X144785563Y-102892030D01*
X144780394Y-102882744D01*
X144657650Y-102700425D01*
X144650981Y-102692130D01*
X144499272Y-102533100D01*
X144491314Y-102526059D01*
X144314975Y-102394859D01*
X144305938Y-102389255D01*
X144188647Y-102329621D01*
X144174787Y-102327031D01*
X144172819Y-102329828D01*
X144172500Y-102331757D01*
X144172500Y-103101885D01*
X143012500Y-103101885D01*
X143012500Y-102337073D01*
X143008527Y-102323542D01*
X143002930Y-102322737D01*
X142991471Y-102327263D01*
X142981939Y-102331994D01*
X142794038Y-102446016D01*
X142785448Y-102452280D01*
X142619448Y-102596327D01*
X142612030Y-102603956D01*
X142586109Y-102635569D01*
X142527449Y-102675564D01*
X142456479Y-102677496D01*
X142395730Y-102640752D01*
X142381530Y-102621982D01*
X142294832Y-102481880D01*
X142290978Y-102475652D01*
X142165803Y-102350695D01*
X142159572Y-102346854D01*
X142153827Y-102342317D01*
X142154877Y-102340987D01*
X142113392Y-102294893D01*
X142101000Y-102240403D01*
X142101000Y-101840925D01*
X142121002Y-101772804D01*
X142137905Y-101751830D01*
X143640379Y-100249355D01*
X143650522Y-100240253D01*
X143675218Y-100220397D01*
X143680025Y-100216532D01*
X143712292Y-100178078D01*
X143715472Y-100174431D01*
X143717115Y-100172619D01*
X143719309Y-100170425D01*
X143746642Y-100137151D01*
X143747348Y-100136300D01*
X143803195Y-100069744D01*
X143807154Y-100065026D01*
X143809722Y-100060356D01*
X143813103Y-100056239D01*
X143856995Y-99974380D01*
X143857606Y-99973255D01*
X143899462Y-99897119D01*
X143899465Y-99897111D01*
X143902433Y-99891713D01*
X143904045Y-99886631D01*
X143906562Y-99881937D01*
X143908366Y-99876037D01*
X143910731Y-99870355D01*
X143913236Y-99871398D01*
X143945880Y-99821887D01*
X144010801Y-99793152D01*
X144080952Y-99804078D01*
X144116290Y-99828898D01*
X144230329Y-99942739D01*
X144241740Y-99951751D01*
X144379745Y-100036818D01*
X144392922Y-100042962D01*
X144448806Y-100061498D01*
X144462898Y-100061987D01*
X144466000Y-100055775D01*
X144466000Y-99075048D01*
X145626000Y-99073466D01*
X145626000Y-100049080D01*
X145629973Y-100062611D01*
X145636799Y-100063592D01*
X145700284Y-100042412D01*
X145713462Y-100036239D01*
X145851307Y-99950937D01*
X145862708Y-99941901D01*
X145977239Y-99827171D01*
X145986251Y-99815760D01*
X146071316Y-99677757D01*
X146077463Y-99664576D01*
X146128638Y-99510290D01*
X146131505Y-99496914D01*
X146141172Y-99402562D01*
X146141500Y-99396146D01*
X146141500Y-99198591D01*
X146161502Y-99130470D01*
X146215158Y-99083977D01*
X146267325Y-99072592D01*
X148845579Y-99069075D01*
X150556160Y-99066743D01*
X150624308Y-99086652D01*
X150670874Y-99140244D01*
X150681074Y-99210505D01*
X150651669Y-99275126D01*
X150645427Y-99281838D01*
X149313121Y-100614145D01*
X149302978Y-100623247D01*
X149273475Y-100646968D01*
X149257298Y-100666247D01*
X149241209Y-100685421D01*
X149238028Y-100689069D01*
X149236385Y-100690881D01*
X149234191Y-100693075D01*
X149206858Y-100726349D01*
X149206196Y-100727147D01*
X149146346Y-100798474D01*
X149143778Y-100803144D01*
X149140397Y-100807261D01*
X149117341Y-100850261D01*
X149096523Y-100889086D01*
X149095894Y-100890245D01*
X149054038Y-100966381D01*
X149054035Y-100966389D01*
X149051067Y-100971787D01*
X149049455Y-100976869D01*
X149046938Y-100981563D01*
X149019738Y-101070531D01*
X149019418Y-101071559D01*
X148991265Y-101160306D01*
X148990671Y-101165602D01*
X148989113Y-101170698D01*
X148983715Y-101223843D01*
X148979718Y-101263187D01*
X148979589Y-101264393D01*
X148977340Y-101284447D01*
X148974755Y-101307499D01*
X148974000Y-101314227D01*
X148974000Y-101317754D01*
X148973945Y-101318739D01*
X148973498Y-101324419D01*
X148969126Y-101367462D01*
X148971738Y-101395093D01*
X148973441Y-101413109D01*
X148974000Y-101424967D01*
X148974000Y-102240572D01*
X148953998Y-102308693D01*
X148919612Y-102342495D01*
X148920112Y-102343125D01*
X148914380Y-102347668D01*
X148908152Y-102351522D01*
X148783195Y-102476697D01*
X148779355Y-102482927D01*
X148779354Y-102482928D01*
X148709454Y-102596327D01*
X148690385Y-102627262D01*
X148634703Y-102795139D01*
X148624000Y-102899600D01*
X148624000Y-104500400D01*
X148634974Y-104606166D01*
X148690950Y-104773946D01*
X148784022Y-104924348D01*
X148909197Y-105049305D01*
X148915427Y-105053145D01*
X148915428Y-105053146D01*
X149052590Y-105137694D01*
X149059762Y-105142115D01*
X149139505Y-105168564D01*
X149221111Y-105195632D01*
X149221113Y-105195632D01*
X149227639Y-105197797D01*
X149234475Y-105198497D01*
X149234478Y-105198498D01*
X149277531Y-105202909D01*
X149332100Y-105208500D01*
X150632900Y-105208500D01*
X150636146Y-105208163D01*
X150636150Y-105208163D01*
X150731808Y-105198238D01*
X150731812Y-105198237D01*
X150738666Y-105197526D01*
X150745202Y-105195345D01*
X150745204Y-105195345D01*
X150877306Y-105151272D01*
X150906446Y-105141550D01*
X151056848Y-105048478D01*
X151181805Y-104923303D01*
X151271853Y-104777220D01*
X151324624Y-104729727D01*
X151394696Y-104718303D01*
X151459820Y-104746577D01*
X151470282Y-104756364D01*
X151575734Y-104866906D01*
X151583686Y-104873941D01*
X151760025Y-105005141D01*
X151769062Y-105010745D01*
X151886353Y-105070379D01*
X151900213Y-105072969D01*
X151902181Y-105070172D01*
X151902500Y-105068243D01*
X151902500Y-105062927D01*
X153062500Y-105062927D01*
X153066473Y-105076458D01*
X153072070Y-105077263D01*
X153083529Y-105072737D01*
X153093061Y-105068006D01*
X153280962Y-104953984D01*
X153289552Y-104947720D01*
X153455552Y-104803673D01*
X153462972Y-104796042D01*
X153602326Y-104626089D01*
X153608350Y-104617322D01*
X153717076Y-104426318D01*
X153721541Y-104416654D01*
X153764963Y-104297028D01*
X153765845Y-104282955D01*
X153760319Y-104280000D01*
X153080615Y-104280000D01*
X153065376Y-104284475D01*
X153064171Y-104285865D01*
X153062500Y-104293548D01*
X153062500Y-105062927D01*
X151902500Y-105062927D01*
X151902500Y-103101885D01*
X153062500Y-103101885D01*
X153066975Y-103117124D01*
X153068365Y-103118329D01*
X153076048Y-103120000D01*
X153755806Y-103120000D01*
X153769337Y-103116027D01*
X153770603Y-103107217D01*
X153769369Y-103102459D01*
X153765837Y-103092431D01*
X153675563Y-102892030D01*
X153670394Y-102882744D01*
X153547650Y-102700425D01*
X153540981Y-102692130D01*
X153389272Y-102533100D01*
X153381314Y-102526059D01*
X153204975Y-102394859D01*
X153195938Y-102389255D01*
X153078647Y-102329621D01*
X153064787Y-102327031D01*
X153062819Y-102329828D01*
X153062500Y-102331757D01*
X153062500Y-103101885D01*
X151902500Y-103101885D01*
X151902500Y-102337073D01*
X151898527Y-102323542D01*
X151892930Y-102322737D01*
X151881471Y-102327263D01*
X151871939Y-102331994D01*
X151684038Y-102446016D01*
X151675448Y-102452280D01*
X151509448Y-102596327D01*
X151502030Y-102603956D01*
X151476109Y-102635569D01*
X151417449Y-102675564D01*
X151346479Y-102677496D01*
X151285730Y-102640752D01*
X151271530Y-102621982D01*
X151184832Y-102481880D01*
X151180978Y-102475652D01*
X151055803Y-102350695D01*
X151049572Y-102346854D01*
X151043827Y-102342317D01*
X151044877Y-102340987D01*
X151003392Y-102294893D01*
X150991000Y-102240403D01*
X150991000Y-101840925D01*
X151011002Y-101772804D01*
X151027905Y-101751830D01*
X152530379Y-100249355D01*
X152540522Y-100240253D01*
X152565218Y-100220397D01*
X152570025Y-100216532D01*
X152602292Y-100178078D01*
X152605472Y-100174431D01*
X152607115Y-100172619D01*
X152609309Y-100170425D01*
X152636642Y-100137151D01*
X152637348Y-100136300D01*
X152693195Y-100069744D01*
X152697154Y-100065026D01*
X152699722Y-100060356D01*
X152703103Y-100056239D01*
X152746995Y-99974380D01*
X152747606Y-99973255D01*
X152789462Y-99897119D01*
X152789465Y-99897111D01*
X152792433Y-99891713D01*
X152794045Y-99886631D01*
X152796562Y-99881937D01*
X152798366Y-99876037D01*
X152800731Y-99870355D01*
X152803236Y-99871398D01*
X152835880Y-99821887D01*
X152900801Y-99793152D01*
X152970952Y-99804078D01*
X153006290Y-99828898D01*
X153120329Y-99942739D01*
X153131740Y-99951751D01*
X153269745Y-100036818D01*
X153282922Y-100042962D01*
X153338806Y-100061498D01*
X153352898Y-100061987D01*
X153356000Y-100055775D01*
X153356000Y-99062924D01*
X154516000Y-99061342D01*
X154516000Y-100049080D01*
G37*
%TD.AperFunction*%
%TD*%
%TA.AperFunction,Conductor*%
%TO.N,+5V*%
G36*
X153470018Y-84510000D02*
G01*
X153484851Y-84512310D01*
X153484855Y-84512310D01*
X153493724Y-84513691D01*
X153508981Y-84511696D01*
X153534302Y-84510953D01*
X153703285Y-84523039D01*
X153721064Y-84525596D01*
X153911392Y-84566999D01*
X153928641Y-84572063D01*
X154111150Y-84640136D01*
X154127502Y-84647604D01*
X154298458Y-84740952D01*
X154313582Y-84750672D01*
X154469514Y-84867402D01*
X154483100Y-84879175D01*
X154620825Y-85016900D01*
X154632598Y-85030486D01*
X154749328Y-85186418D01*
X154759048Y-85201542D01*
X154852396Y-85372498D01*
X154859864Y-85388850D01*
X154927937Y-85571359D01*
X154933001Y-85588607D01*
X154974404Y-85778936D01*
X154976961Y-85796715D01*
X154988540Y-85958601D01*
X154987793Y-85976565D01*
X154987692Y-85984845D01*
X154986309Y-85993724D01*
X154988136Y-86007693D01*
X154990436Y-86025283D01*
X154991500Y-86041621D01*
X154991500Y-97740149D01*
X154971498Y-97808270D01*
X154917842Y-97854763D01*
X154847568Y-97864867D01*
X154782988Y-97835373D01*
X154776483Y-97829323D01*
X154751984Y-97804867D01*
X154751983Y-97804866D01*
X154746803Y-97799695D01*
X154650202Y-97740149D01*
X154602468Y-97710725D01*
X154602466Y-97710724D01*
X154596238Y-97706885D01*
X154435754Y-97653655D01*
X154434889Y-97653368D01*
X154434887Y-97653368D01*
X154428361Y-97651203D01*
X154421525Y-97650503D01*
X154421522Y-97650502D01*
X154378469Y-97646091D01*
X154323900Y-97640500D01*
X153548100Y-97640500D01*
X153544854Y-97640837D01*
X153544850Y-97640837D01*
X153449192Y-97650762D01*
X153449188Y-97650763D01*
X153442334Y-97651474D01*
X153435798Y-97653655D01*
X153435796Y-97653655D01*
X153320189Y-97692225D01*
X153274554Y-97707450D01*
X153124152Y-97800522D01*
X152999195Y-97925697D01*
X152996398Y-97930235D01*
X152939147Y-97970824D01*
X152868224Y-97974054D01*
X152806813Y-97938428D01*
X152799438Y-97929932D01*
X152791402Y-97919793D01*
X152676671Y-97805261D01*
X152665260Y-97796249D01*
X152527255Y-97711182D01*
X152514078Y-97705038D01*
X152458194Y-97686502D01*
X152444102Y-97686013D01*
X152441000Y-97692225D01*
X152441000Y-98519600D01*
X151281000Y-98519600D01*
X151281000Y-97698920D01*
X151277027Y-97685389D01*
X151270201Y-97684408D01*
X151206716Y-97705588D01*
X151193538Y-97711761D01*
X151055693Y-97797063D01*
X151044292Y-97806099D01*
X150929761Y-97920829D01*
X150920749Y-97932240D01*
X150835684Y-98070243D01*
X150829537Y-98083424D01*
X150778362Y-98237710D01*
X150775495Y-98251086D01*
X150765828Y-98345438D01*
X150765500Y-98351855D01*
X150765500Y-98393600D01*
X150745498Y-98461721D01*
X150691842Y-98508214D01*
X150639500Y-98519600D01*
X146268000Y-98519600D01*
X146199879Y-98499598D01*
X146153386Y-98445942D01*
X146142000Y-98393600D01*
X146142000Y-98348600D01*
X146141663Y-98345350D01*
X146131738Y-98249692D01*
X146131737Y-98249688D01*
X146131026Y-98242834D01*
X146075050Y-98075054D01*
X145981978Y-97924652D01*
X145856803Y-97799695D01*
X145760202Y-97740149D01*
X145712468Y-97710725D01*
X145712466Y-97710724D01*
X145706238Y-97706885D01*
X145545754Y-97653655D01*
X145544889Y-97653368D01*
X145544887Y-97653368D01*
X145538361Y-97651203D01*
X145531525Y-97650503D01*
X145531522Y-97650502D01*
X145488469Y-97646091D01*
X145433900Y-97640500D01*
X144658100Y-97640500D01*
X144654854Y-97640837D01*
X144654850Y-97640837D01*
X144559192Y-97650762D01*
X144559188Y-97650763D01*
X144552334Y-97651474D01*
X144545798Y-97653655D01*
X144545796Y-97653655D01*
X144430189Y-97692225D01*
X144384554Y-97707450D01*
X144234152Y-97800522D01*
X144109195Y-97925697D01*
X144106398Y-97930235D01*
X144049147Y-97970824D01*
X143978224Y-97974054D01*
X143916813Y-97938428D01*
X143909438Y-97929932D01*
X143901402Y-97919793D01*
X143786671Y-97805261D01*
X143775260Y-97796249D01*
X143637255Y-97711182D01*
X143624078Y-97705038D01*
X143568194Y-97686502D01*
X143554102Y-97686013D01*
X143551000Y-97692225D01*
X143551000Y-98519600D01*
X142391000Y-98519600D01*
X142391000Y-97698920D01*
X142387027Y-97685389D01*
X142380201Y-97684408D01*
X142316716Y-97705588D01*
X142303538Y-97711761D01*
X142165693Y-97797063D01*
X142154292Y-97806099D01*
X142039761Y-97920829D01*
X142030749Y-97932240D01*
X141945684Y-98070243D01*
X141939537Y-98083424D01*
X141888362Y-98237710D01*
X141885495Y-98251086D01*
X141875828Y-98345438D01*
X141875500Y-98351855D01*
X141875500Y-98393600D01*
X141855498Y-98461721D01*
X141801842Y-98508214D01*
X141749500Y-98519600D01*
X137378000Y-98519600D01*
X137309879Y-98499598D01*
X137263386Y-98445942D01*
X137252000Y-98393600D01*
X137252000Y-98348600D01*
X137251663Y-98345350D01*
X137241738Y-98249692D01*
X137241737Y-98249688D01*
X137241026Y-98242834D01*
X137185050Y-98075054D01*
X137091978Y-97924652D01*
X136966803Y-97799695D01*
X136870202Y-97740149D01*
X136822468Y-97710725D01*
X136822466Y-97710724D01*
X136816238Y-97706885D01*
X136655754Y-97653655D01*
X136654889Y-97653368D01*
X136654887Y-97653368D01*
X136648361Y-97651203D01*
X136641525Y-97650503D01*
X136641522Y-97650502D01*
X136598469Y-97646091D01*
X136543900Y-97640500D01*
X135768100Y-97640500D01*
X135764854Y-97640837D01*
X135764850Y-97640837D01*
X135669192Y-97650762D01*
X135669188Y-97650763D01*
X135662334Y-97651474D01*
X135655798Y-97653655D01*
X135655796Y-97653655D01*
X135540189Y-97692225D01*
X135494554Y-97707450D01*
X135344152Y-97800522D01*
X135219195Y-97925697D01*
X135216398Y-97930235D01*
X135159147Y-97970824D01*
X135088224Y-97974054D01*
X135026813Y-97938428D01*
X135019438Y-97929932D01*
X135011402Y-97919793D01*
X134896671Y-97805261D01*
X134885260Y-97796249D01*
X134747255Y-97711182D01*
X134734078Y-97705038D01*
X134678194Y-97686502D01*
X134664102Y-97686013D01*
X134661000Y-97692225D01*
X134661000Y-98519600D01*
X133501000Y-98519600D01*
X133501000Y-97698920D01*
X133497027Y-97685389D01*
X133490201Y-97684408D01*
X133426716Y-97705588D01*
X133413538Y-97711761D01*
X133275693Y-97797063D01*
X133264292Y-97806099D01*
X133149761Y-97920829D01*
X133140749Y-97932240D01*
X133055684Y-98070243D01*
X133049537Y-98083424D01*
X132998362Y-98237710D01*
X132995495Y-98251086D01*
X132985828Y-98345438D01*
X132985500Y-98351855D01*
X132985500Y-98393600D01*
X132965498Y-98461721D01*
X132911842Y-98508214D01*
X132859500Y-98519600D01*
X128509500Y-98519600D01*
X128441379Y-98499598D01*
X128394886Y-98445942D01*
X128383500Y-98393600D01*
X128383500Y-98348600D01*
X128383163Y-98345350D01*
X128373238Y-98249692D01*
X128373237Y-98249688D01*
X128372526Y-98242834D01*
X128316550Y-98075054D01*
X128223478Y-97924652D01*
X128098303Y-97799695D01*
X128001702Y-97740149D01*
X127953968Y-97710725D01*
X127953966Y-97710724D01*
X127947738Y-97706885D01*
X127787254Y-97653655D01*
X127786389Y-97653368D01*
X127786387Y-97653368D01*
X127779861Y-97651203D01*
X127773025Y-97650503D01*
X127773022Y-97650502D01*
X127729969Y-97646091D01*
X127675400Y-97640500D01*
X126899600Y-97640500D01*
X126896354Y-97640837D01*
X126896350Y-97640837D01*
X126800692Y-97650762D01*
X126800688Y-97650763D01*
X126793834Y-97651474D01*
X126787298Y-97653655D01*
X126787296Y-97653655D01*
X126671689Y-97692225D01*
X126626054Y-97707450D01*
X126475652Y-97800522D01*
X126350695Y-97925697D01*
X126347898Y-97930235D01*
X126290647Y-97970824D01*
X126219724Y-97974054D01*
X126158313Y-97938428D01*
X126150938Y-97929932D01*
X126142902Y-97919793D01*
X126028171Y-97805261D01*
X126016760Y-97796249D01*
X125878755Y-97711182D01*
X125865578Y-97705038D01*
X125809694Y-97686502D01*
X125795602Y-97686013D01*
X125792500Y-97692225D01*
X125792500Y-98519600D01*
X124632500Y-98519600D01*
X124632500Y-97698920D01*
X124628527Y-97685389D01*
X124621701Y-97684408D01*
X124558216Y-97705588D01*
X124545038Y-97711761D01*
X124407193Y-97797063D01*
X124395792Y-97806099D01*
X124281261Y-97920829D01*
X124272249Y-97932240D01*
X124187184Y-98070243D01*
X124181037Y-98083424D01*
X124129862Y-98237710D01*
X124126995Y-98251086D01*
X124117328Y-98345438D01*
X124117000Y-98351855D01*
X124117000Y-98393600D01*
X124096998Y-98461721D01*
X124043342Y-98508214D01*
X123991000Y-98519600D01*
X119641000Y-98519600D01*
X119572879Y-98499598D01*
X119526386Y-98445942D01*
X119515000Y-98393600D01*
X119515000Y-98348600D01*
X119514663Y-98345350D01*
X119504738Y-98249692D01*
X119504737Y-98249688D01*
X119504026Y-98242834D01*
X119448050Y-98075054D01*
X119354978Y-97924652D01*
X119229803Y-97799695D01*
X119133202Y-97740149D01*
X119085468Y-97710725D01*
X119085466Y-97710724D01*
X119079238Y-97706885D01*
X118918754Y-97653655D01*
X118917889Y-97653368D01*
X118917887Y-97653368D01*
X118911361Y-97651203D01*
X118904525Y-97650503D01*
X118904522Y-97650502D01*
X118861469Y-97646091D01*
X118806900Y-97640500D01*
X118031100Y-97640500D01*
X118027854Y-97640837D01*
X118027850Y-97640837D01*
X117932192Y-97650762D01*
X117932188Y-97650763D01*
X117925334Y-97651474D01*
X117918798Y-97653655D01*
X117918796Y-97653655D01*
X117803189Y-97692225D01*
X117757554Y-97707450D01*
X117607152Y-97800522D01*
X117482195Y-97925697D01*
X117479398Y-97930235D01*
X117422147Y-97970824D01*
X117351224Y-97974054D01*
X117289813Y-97938428D01*
X117282438Y-97929932D01*
X117274402Y-97919793D01*
X117159671Y-97805261D01*
X117148260Y-97796249D01*
X117010255Y-97711182D01*
X116997078Y-97705038D01*
X116941194Y-97686502D01*
X116927102Y-97686013D01*
X116924000Y-97692225D01*
X116924000Y-98519600D01*
X115764000Y-98519600D01*
X115764000Y-97698920D01*
X115760027Y-97685389D01*
X115753201Y-97684408D01*
X115689716Y-97705588D01*
X115676538Y-97711761D01*
X115538693Y-97797063D01*
X115527292Y-97806099D01*
X115412761Y-97920829D01*
X115403749Y-97932240D01*
X115318684Y-98070243D01*
X115312537Y-98083424D01*
X115261362Y-98237710D01*
X115258495Y-98251086D01*
X115248828Y-98345438D01*
X115248500Y-98351855D01*
X115248500Y-98393600D01*
X115228498Y-98461721D01*
X115174842Y-98508214D01*
X115122500Y-98519600D01*
X112134500Y-98519600D01*
X112066379Y-98499598D01*
X112019886Y-98445942D01*
X112008500Y-98393600D01*
X112008500Y-95552817D01*
X114437514Y-95552817D01*
X114438095Y-95557837D01*
X114438095Y-95557841D01*
X114453923Y-95694631D01*
X114465415Y-95793956D01*
X114466791Y-95798820D01*
X114466792Y-95798823D01*
X114512476Y-95960266D01*
X114531510Y-96027532D01*
X114533644Y-96032108D01*
X114533646Y-96032114D01*
X114590446Y-96153922D01*
X114634099Y-96247536D01*
X114770544Y-96448307D01*
X114937332Y-96624681D01*
X114941358Y-96627759D01*
X114941359Y-96627760D01*
X115126154Y-96769047D01*
X115126158Y-96769050D01*
X115130174Y-96772120D01*
X115344109Y-96886831D01*
X115573631Y-96965862D01*
X115672978Y-96983022D01*
X115808926Y-97006504D01*
X115808932Y-97006505D01*
X115812836Y-97007179D01*
X115816797Y-97007359D01*
X115816798Y-97007359D01*
X115840506Y-97008436D01*
X115840525Y-97008436D01*
X115841925Y-97008500D01*
X117511001Y-97008500D01*
X117513509Y-97008298D01*
X117513514Y-97008298D01*
X117686924Y-96994346D01*
X117686929Y-96994345D01*
X117691965Y-96993940D01*
X117696873Y-96992734D01*
X117696876Y-96992734D01*
X117922792Y-96937244D01*
X117927706Y-96936037D01*
X117932358Y-96934062D01*
X117932362Y-96934061D01*
X118146498Y-96843165D01*
X118151156Y-96841188D01*
X118257037Y-96774511D01*
X118352288Y-96714528D01*
X118352291Y-96714526D01*
X118356567Y-96711833D01*
X118455422Y-96624681D01*
X118534858Y-96554650D01*
X118534861Y-96554647D01*
X118538655Y-96551302D01*
X118692734Y-96363722D01*
X118814841Y-96153922D01*
X118901833Y-95927298D01*
X118951474Y-95689680D01*
X118962486Y-95447183D01*
X118947235Y-95315373D01*
X118935167Y-95211071D01*
X118935166Y-95211067D01*
X118934585Y-95206044D01*
X118895517Y-95067978D01*
X118869866Y-94977331D01*
X118868490Y-94972468D01*
X118866356Y-94967892D01*
X118866354Y-94967886D01*
X118768038Y-94757046D01*
X118768036Y-94757042D01*
X118765901Y-94752464D01*
X118629456Y-94551693D01*
X118462668Y-94375319D01*
X118458641Y-94372240D01*
X118273846Y-94230953D01*
X118273842Y-94230950D01*
X118269826Y-94227880D01*
X118055891Y-94113169D01*
X117826369Y-94034138D01*
X117727022Y-94016978D01*
X117591074Y-93993496D01*
X117591068Y-93993495D01*
X117587164Y-93992821D01*
X117583203Y-93992641D01*
X117583202Y-93992641D01*
X117559494Y-93991564D01*
X117559475Y-93991564D01*
X117558075Y-93991500D01*
X115888999Y-93991500D01*
X115886491Y-93991702D01*
X115886486Y-93991702D01*
X115713076Y-94005654D01*
X115713071Y-94005655D01*
X115708035Y-94006060D01*
X115703127Y-94007266D01*
X115703124Y-94007266D01*
X115587007Y-94035787D01*
X115472294Y-94063963D01*
X115467642Y-94065938D01*
X115467638Y-94065939D01*
X115360252Y-94111522D01*
X115248844Y-94158812D01*
X115244560Y-94161510D01*
X115047712Y-94285472D01*
X115047709Y-94285474D01*
X115043433Y-94288167D01*
X115039639Y-94291512D01*
X114865142Y-94445350D01*
X114865139Y-94445353D01*
X114861345Y-94448698D01*
X114707266Y-94636278D01*
X114585159Y-94846078D01*
X114498167Y-95072702D01*
X114448526Y-95310320D01*
X114437514Y-95552817D01*
X112008500Y-95552817D01*
X112008500Y-91000000D01*
X113386502Y-91000000D01*
X113406457Y-91228087D01*
X113465716Y-91449243D01*
X113468039Y-91454224D01*
X113468039Y-91454225D01*
X113560151Y-91651762D01*
X113560154Y-91651767D01*
X113562477Y-91656749D01*
X113632436Y-91756661D01*
X113651021Y-91783202D01*
X113693802Y-91844300D01*
X113855700Y-92006198D01*
X113860208Y-92009355D01*
X113860211Y-92009357D01*
X113884507Y-92026369D01*
X114043251Y-92137523D01*
X114048233Y-92139846D01*
X114048238Y-92139849D01*
X114245775Y-92231961D01*
X114250757Y-92234284D01*
X114256065Y-92235706D01*
X114256067Y-92235707D01*
X114466598Y-92292119D01*
X114466600Y-92292119D01*
X114471913Y-92293543D01*
X114571480Y-92302254D01*
X114640149Y-92308262D01*
X114640156Y-92308262D01*
X114642873Y-92308500D01*
X114757127Y-92308500D01*
X114759844Y-92308262D01*
X114759851Y-92308262D01*
X114828520Y-92302254D01*
X114928087Y-92293543D01*
X114933400Y-92292119D01*
X114933402Y-92292119D01*
X115143933Y-92235707D01*
X115143935Y-92235706D01*
X115149243Y-92234284D01*
X115154225Y-92231961D01*
X115351762Y-92139849D01*
X115351767Y-92139846D01*
X115356749Y-92137523D01*
X115515493Y-92026369D01*
X115539789Y-92009357D01*
X115539792Y-92009355D01*
X115544300Y-92006198D01*
X115706198Y-91844300D01*
X115748980Y-91783202D01*
X115767564Y-91756661D01*
X115837523Y-91656749D01*
X115839846Y-91651767D01*
X115839849Y-91651762D01*
X115931961Y-91454225D01*
X115931961Y-91454224D01*
X115934284Y-91449243D01*
X115943793Y-91413755D01*
X115980745Y-91353132D01*
X116044605Y-91322111D01*
X116115100Y-91330539D01*
X116169847Y-91375742D01*
X116191500Y-91446366D01*
X116191500Y-91711001D01*
X116191702Y-91713509D01*
X116191702Y-91713514D01*
X116202539Y-91848197D01*
X116206060Y-91891965D01*
X116263963Y-92127706D01*
X116358812Y-92351156D01*
X116488167Y-92556567D01*
X116491512Y-92560361D01*
X116645350Y-92734858D01*
X116645353Y-92734861D01*
X116648698Y-92738655D01*
X116652606Y-92741865D01*
X116652607Y-92741866D01*
X116759242Y-92829456D01*
X116836278Y-92892734D01*
X117046078Y-93014841D01*
X117050801Y-93016654D01*
X117267978Y-93100020D01*
X117267982Y-93100021D01*
X117272702Y-93101833D01*
X117277652Y-93102867D01*
X117277655Y-93102868D01*
X117505369Y-93150440D01*
X117505373Y-93150440D01*
X117510320Y-93151474D01*
X117752817Y-93162486D01*
X117757837Y-93161905D01*
X117757841Y-93161905D01*
X117988929Y-93135167D01*
X117988933Y-93135166D01*
X117993956Y-93134585D01*
X117998820Y-93133209D01*
X117998823Y-93133208D01*
X118222669Y-93069866D01*
X118222668Y-93069866D01*
X118227532Y-93068490D01*
X118232108Y-93066356D01*
X118232114Y-93066354D01*
X118278618Y-93044669D01*
X122192001Y-93044669D01*
X122192371Y-93051490D01*
X122197895Y-93102352D01*
X122201521Y-93117604D01*
X122246676Y-93238054D01*
X122255214Y-93253649D01*
X122331715Y-93355724D01*
X122344276Y-93368285D01*
X122446351Y-93444786D01*
X122461946Y-93453324D01*
X122582394Y-93498478D01*
X122597649Y-93502105D01*
X122648514Y-93507631D01*
X122655328Y-93508000D01*
X123101885Y-93508000D01*
X123117124Y-93503525D01*
X123118329Y-93502135D01*
X123120000Y-93494452D01*
X123120000Y-93489884D01*
X124280000Y-93489884D01*
X124284475Y-93505123D01*
X124285865Y-93506328D01*
X124293548Y-93507999D01*
X124744669Y-93507999D01*
X124751490Y-93507629D01*
X124802352Y-93502105D01*
X124817604Y-93498479D01*
X124938054Y-93453324D01*
X124953649Y-93444786D01*
X125055724Y-93368285D01*
X125068285Y-93355724D01*
X125144786Y-93253649D01*
X125153324Y-93238054D01*
X125198478Y-93117606D01*
X125202105Y-93102351D01*
X125207631Y-93051486D01*
X125208000Y-93044672D01*
X125208000Y-91598115D01*
X125203525Y-91582876D01*
X125202135Y-91581671D01*
X125194452Y-91580000D01*
X124298115Y-91580000D01*
X124282876Y-91584475D01*
X124281671Y-91585865D01*
X124280000Y-91593548D01*
X124280000Y-93489884D01*
X123120000Y-93489884D01*
X123120000Y-91598115D01*
X123115525Y-91582876D01*
X123114135Y-91581671D01*
X123106452Y-91580000D01*
X122210116Y-91580000D01*
X122194877Y-91584475D01*
X122193672Y-91585865D01*
X122192001Y-91593548D01*
X122192001Y-93044669D01*
X118278618Y-93044669D01*
X118442954Y-92968038D01*
X118442958Y-92968036D01*
X118447536Y-92965901D01*
X118648307Y-92829456D01*
X118824681Y-92662668D01*
X118902901Y-92560361D01*
X118969047Y-92473846D01*
X118969050Y-92473842D01*
X118972120Y-92469826D01*
X119086831Y-92255891D01*
X119165862Y-92026369D01*
X119197310Y-91844300D01*
X119206504Y-91791074D01*
X119206505Y-91791068D01*
X119207179Y-91787164D01*
X119208500Y-91758075D01*
X119208500Y-90401885D01*
X122192000Y-90401885D01*
X122196475Y-90417124D01*
X122197865Y-90418329D01*
X122205548Y-90420000D01*
X123101885Y-90420000D01*
X123117124Y-90415525D01*
X123118329Y-90414135D01*
X123120000Y-90406452D01*
X123120000Y-90401885D01*
X124280000Y-90401885D01*
X124284475Y-90417124D01*
X124285865Y-90418329D01*
X124293548Y-90420000D01*
X125189884Y-90420000D01*
X125205123Y-90415525D01*
X125206328Y-90414135D01*
X125207999Y-90406452D01*
X125207999Y-88955331D01*
X125207629Y-88948510D01*
X125202105Y-88897648D01*
X125198479Y-88882396D01*
X125153324Y-88761946D01*
X125144786Y-88746351D01*
X125068285Y-88644276D01*
X125055724Y-88631715D01*
X124953649Y-88555214D01*
X124938054Y-88546676D01*
X124817606Y-88501522D01*
X124802351Y-88497895D01*
X124751486Y-88492369D01*
X124744672Y-88492000D01*
X124298115Y-88492000D01*
X124282876Y-88496475D01*
X124281671Y-88497865D01*
X124280000Y-88505548D01*
X124280000Y-90401885D01*
X123120000Y-90401885D01*
X123120000Y-88510116D01*
X123115525Y-88494877D01*
X123114135Y-88493672D01*
X123106452Y-88492001D01*
X122655331Y-88492001D01*
X122648510Y-88492371D01*
X122597648Y-88497895D01*
X122582396Y-88501521D01*
X122461946Y-88546676D01*
X122446351Y-88555214D01*
X122344276Y-88631715D01*
X122331715Y-88644276D01*
X122255214Y-88746351D01*
X122246676Y-88761946D01*
X122201522Y-88882394D01*
X122197895Y-88897649D01*
X122192369Y-88948514D01*
X122192000Y-88955328D01*
X122192000Y-90401885D01*
X119208500Y-90401885D01*
X119208500Y-90288999D01*
X119208298Y-90286486D01*
X119194346Y-90113076D01*
X119194345Y-90113071D01*
X119193940Y-90108035D01*
X119169841Y-90009918D01*
X119137244Y-89877208D01*
X119136037Y-89872294D01*
X119129004Y-89855724D01*
X119043165Y-89653502D01*
X119041188Y-89648844D01*
X118944996Y-89496094D01*
X118914528Y-89447712D01*
X118914526Y-89447709D01*
X118911833Y-89443433D01*
X118871633Y-89397834D01*
X118754650Y-89265142D01*
X118754647Y-89265139D01*
X118751302Y-89261345D01*
X118644993Y-89174022D01*
X118567628Y-89110474D01*
X118567625Y-89110472D01*
X118563722Y-89107266D01*
X118353922Y-88985159D01*
X118258458Y-88948514D01*
X118132022Y-88899980D01*
X118132018Y-88899979D01*
X118127298Y-88898167D01*
X118122348Y-88897133D01*
X118122345Y-88897132D01*
X117894631Y-88849560D01*
X117894627Y-88849560D01*
X117889680Y-88848526D01*
X117647183Y-88837514D01*
X117642163Y-88838095D01*
X117642159Y-88838095D01*
X117411071Y-88864833D01*
X117411067Y-88864834D01*
X117406044Y-88865415D01*
X117401180Y-88866791D01*
X117401177Y-88866792D01*
X117346041Y-88882394D01*
X117172468Y-88931510D01*
X117167892Y-88933644D01*
X117167886Y-88933646D01*
X116957046Y-89031962D01*
X116957042Y-89031964D01*
X116952464Y-89034099D01*
X116948283Y-89036940D01*
X116948282Y-89036941D01*
X116877408Y-89085107D01*
X116751693Y-89170544D01*
X116575319Y-89337332D01*
X116572241Y-89341358D01*
X116572240Y-89341359D01*
X116430953Y-89526154D01*
X116430950Y-89526158D01*
X116427880Y-89530174D01*
X116313169Y-89744109D01*
X116234138Y-89973631D01*
X116228266Y-90007629D01*
X116201911Y-90160211D01*
X116192821Y-90212836D01*
X116191500Y-90241925D01*
X116191500Y-90553634D01*
X116171498Y-90621755D01*
X116117842Y-90668248D01*
X116047568Y-90678352D01*
X115982988Y-90648858D01*
X115943793Y-90586245D01*
X115935707Y-90556067D01*
X115935706Y-90556065D01*
X115934284Y-90550757D01*
X115931961Y-90545775D01*
X115839849Y-90348238D01*
X115839846Y-90348233D01*
X115837523Y-90343251D01*
X115764098Y-90238389D01*
X115709357Y-90160211D01*
X115709355Y-90160208D01*
X115706198Y-90155700D01*
X115544300Y-89993802D01*
X115539792Y-89990645D01*
X115539789Y-89990643D01*
X115419476Y-89906399D01*
X115356749Y-89862477D01*
X115351767Y-89860154D01*
X115351762Y-89860151D01*
X115154225Y-89768039D01*
X115154224Y-89768039D01*
X115149243Y-89765716D01*
X115143935Y-89764294D01*
X115143933Y-89764293D01*
X114933402Y-89707881D01*
X114933400Y-89707881D01*
X114928087Y-89706457D01*
X114828520Y-89697746D01*
X114759851Y-89691738D01*
X114759844Y-89691738D01*
X114757127Y-89691500D01*
X114642873Y-89691500D01*
X114640156Y-89691738D01*
X114640149Y-89691738D01*
X114571480Y-89697746D01*
X114471913Y-89706457D01*
X114466600Y-89707881D01*
X114466598Y-89707881D01*
X114256067Y-89764293D01*
X114256065Y-89764294D01*
X114250757Y-89765716D01*
X114245776Y-89768039D01*
X114245775Y-89768039D01*
X114048238Y-89860151D01*
X114048233Y-89860154D01*
X114043251Y-89862477D01*
X113980524Y-89906399D01*
X113860211Y-89990643D01*
X113860208Y-89990645D01*
X113855700Y-89993802D01*
X113693802Y-90155700D01*
X113690645Y-90160208D01*
X113690643Y-90160211D01*
X113635902Y-90238389D01*
X113562477Y-90343251D01*
X113560154Y-90348233D01*
X113560151Y-90348238D01*
X113468039Y-90545775D01*
X113465716Y-90550757D01*
X113406457Y-90771913D01*
X113386502Y-91000000D01*
X112008500Y-91000000D01*
X112008500Y-86552817D01*
X114437514Y-86552817D01*
X114438095Y-86557837D01*
X114438095Y-86557841D01*
X114458369Y-86733057D01*
X114465415Y-86793956D01*
X114466791Y-86798820D01*
X114466792Y-86798823D01*
X114505512Y-86935657D01*
X114531510Y-87027532D01*
X114533644Y-87032108D01*
X114533646Y-87032114D01*
X114631962Y-87242954D01*
X114634099Y-87247536D01*
X114770544Y-87448307D01*
X114937332Y-87624681D01*
X114941358Y-87627759D01*
X114941359Y-87627760D01*
X115126154Y-87769047D01*
X115126158Y-87769050D01*
X115130174Y-87772120D01*
X115344109Y-87886831D01*
X115573631Y-87965862D01*
X115624498Y-87974648D01*
X115808926Y-88006504D01*
X115808932Y-88006505D01*
X115812836Y-88007179D01*
X115816797Y-88007359D01*
X115816798Y-88007359D01*
X115840506Y-88008436D01*
X115840525Y-88008436D01*
X115841925Y-88008500D01*
X117511001Y-88008500D01*
X117513509Y-88008298D01*
X117513514Y-88008298D01*
X117686924Y-87994346D01*
X117686929Y-87994345D01*
X117691965Y-87993940D01*
X117696873Y-87992734D01*
X117696876Y-87992734D01*
X117753125Y-87978918D01*
X127416917Y-87978918D01*
X127432682Y-88252320D01*
X127433507Y-88256525D01*
X127433508Y-88256533D01*
X127444127Y-88310657D01*
X127485405Y-88521053D01*
X127486792Y-88525103D01*
X127486793Y-88525108D01*
X127562542Y-88746351D01*
X127574112Y-88780144D01*
X127697160Y-89024799D01*
X127699586Y-89028328D01*
X127699589Y-89028334D01*
X127849843Y-89246953D01*
X127852274Y-89250490D01*
X128036582Y-89453043D01*
X128246675Y-89628707D01*
X128250316Y-89630991D01*
X128475024Y-89771951D01*
X128475028Y-89771953D01*
X128478664Y-89774234D01*
X128546544Y-89804883D01*
X128724345Y-89885164D01*
X128724349Y-89885166D01*
X128728257Y-89886930D01*
X128732377Y-89888150D01*
X128732376Y-89888150D01*
X128986723Y-89963491D01*
X128986727Y-89963492D01*
X128990836Y-89964709D01*
X128995070Y-89965357D01*
X128995075Y-89965358D01*
X129257298Y-90005483D01*
X129257300Y-90005483D01*
X129261540Y-90006132D01*
X129400912Y-90008322D01*
X129531071Y-90010367D01*
X129531077Y-90010367D01*
X129535362Y-90010434D01*
X129807235Y-89977534D01*
X130072127Y-89908041D01*
X130076087Y-89906401D01*
X130076092Y-89906399D01*
X130198631Y-89855641D01*
X130325136Y-89803241D01*
X130491582Y-89705978D01*
X130557879Y-89667237D01*
X130557880Y-89667236D01*
X130561582Y-89665073D01*
X130715139Y-89544669D01*
X132502001Y-89544669D01*
X132502371Y-89551490D01*
X132507895Y-89602352D01*
X132511521Y-89617604D01*
X132556676Y-89738054D01*
X132565214Y-89753649D01*
X132641715Y-89855724D01*
X132654276Y-89868285D01*
X132756351Y-89944786D01*
X132771946Y-89953324D01*
X132892394Y-89998478D01*
X132907649Y-90002105D01*
X132958514Y-90007631D01*
X132965328Y-90008000D01*
X133911885Y-90008000D01*
X133927124Y-90003525D01*
X133928329Y-90002135D01*
X133930000Y-89994452D01*
X133930000Y-89989884D01*
X135090000Y-89989884D01*
X135094475Y-90005123D01*
X135095865Y-90006328D01*
X135103548Y-90007999D01*
X136054669Y-90007999D01*
X136061490Y-90007629D01*
X136112352Y-90002105D01*
X136127604Y-89998479D01*
X136248054Y-89953324D01*
X136263649Y-89944786D01*
X136365724Y-89868285D01*
X136378285Y-89855724D01*
X136454786Y-89753649D01*
X136463324Y-89738054D01*
X136508478Y-89617606D01*
X136512105Y-89602351D01*
X136517631Y-89551486D01*
X136518000Y-89544672D01*
X136518000Y-88598115D01*
X136513525Y-88582876D01*
X136512135Y-88581671D01*
X136504452Y-88580000D01*
X135108115Y-88580000D01*
X135092876Y-88584475D01*
X135091671Y-88585865D01*
X135090000Y-88593548D01*
X135090000Y-89989884D01*
X133930000Y-89989884D01*
X133930000Y-88598115D01*
X133925525Y-88582876D01*
X133924135Y-88581671D01*
X133916452Y-88580000D01*
X132520116Y-88580000D01*
X132504877Y-88584475D01*
X132503672Y-88585865D01*
X132502001Y-88593548D01*
X132502001Y-89544669D01*
X130715139Y-89544669D01*
X130777089Y-89496094D01*
X130818809Y-89453043D01*
X130964686Y-89302509D01*
X130967669Y-89299431D01*
X130970202Y-89295983D01*
X130970206Y-89295978D01*
X131127257Y-89082178D01*
X131129795Y-89078723D01*
X131157154Y-89028334D01*
X131258418Y-88841830D01*
X131258419Y-88841828D01*
X131260468Y-88838054D01*
X131308869Y-88709965D01*
X131355751Y-88585895D01*
X131355752Y-88585891D01*
X131357269Y-88581877D01*
X131418407Y-88314933D01*
X131442751Y-88042161D01*
X131443193Y-88000000D01*
X131440866Y-87965862D01*
X131424859Y-87731055D01*
X131424858Y-87731049D01*
X131424567Y-87726778D01*
X131369032Y-87458612D01*
X131348944Y-87401885D01*
X132502000Y-87401885D01*
X132506475Y-87417124D01*
X132507865Y-87418329D01*
X132515548Y-87420000D01*
X133911885Y-87420000D01*
X133927124Y-87415525D01*
X133928329Y-87414135D01*
X133930000Y-87406452D01*
X133930000Y-87401885D01*
X135090000Y-87401885D01*
X135094475Y-87417124D01*
X135095865Y-87418329D01*
X135103548Y-87420000D01*
X136499884Y-87420000D01*
X136515123Y-87415525D01*
X136516328Y-87414135D01*
X136517999Y-87406452D01*
X136517999Y-86455331D01*
X136517629Y-86448510D01*
X136512105Y-86397648D01*
X136508479Y-86382396D01*
X136463324Y-86261946D01*
X136454786Y-86246351D01*
X136378285Y-86144276D01*
X136365724Y-86131715D01*
X136263649Y-86055214D01*
X136248054Y-86046676D01*
X136127606Y-86001522D01*
X136112351Y-85997895D01*
X136061486Y-85992369D01*
X136054672Y-85992000D01*
X135108115Y-85992000D01*
X135092876Y-85996475D01*
X135091671Y-85997865D01*
X135090000Y-86005548D01*
X135090000Y-87401885D01*
X133930000Y-87401885D01*
X133930000Y-86010116D01*
X133925525Y-85994877D01*
X133924135Y-85993672D01*
X133916452Y-85992001D01*
X132965331Y-85992001D01*
X132958510Y-85992371D01*
X132907648Y-85997895D01*
X132892396Y-86001521D01*
X132771946Y-86046676D01*
X132756351Y-86055214D01*
X132654276Y-86131715D01*
X132641715Y-86144276D01*
X132565214Y-86246351D01*
X132556676Y-86261946D01*
X132511522Y-86382394D01*
X132507895Y-86397649D01*
X132502369Y-86448514D01*
X132502000Y-86455328D01*
X132502000Y-87401885D01*
X131348944Y-87401885D01*
X131277617Y-87200465D01*
X131152013Y-86957112D01*
X131142040Y-86942921D01*
X130997008Y-86736562D01*
X130994545Y-86733057D01*
X130924466Y-86657643D01*
X130811046Y-86535588D01*
X130811043Y-86535585D01*
X130808125Y-86532445D01*
X130804810Y-86529731D01*
X130804806Y-86529728D01*
X130599523Y-86361706D01*
X130596205Y-86358990D01*
X130362704Y-86215901D01*
X130351701Y-86211071D01*
X130115873Y-86107549D01*
X130115869Y-86107548D01*
X130111945Y-86105825D01*
X129848566Y-86030800D01*
X129844324Y-86030196D01*
X129844318Y-86030195D01*
X129642844Y-86001521D01*
X129577443Y-85992213D01*
X129433589Y-85991460D01*
X129307877Y-85990802D01*
X129307871Y-85990802D01*
X129303591Y-85990780D01*
X129299347Y-85991339D01*
X129299343Y-85991339D01*
X129191416Y-86005548D01*
X129032078Y-86026525D01*
X129027938Y-86027658D01*
X129027936Y-86027658D01*
X129006874Y-86033420D01*
X128767928Y-86098788D01*
X128763980Y-86100472D01*
X128519982Y-86204546D01*
X128519978Y-86204548D01*
X128516030Y-86206232D01*
X128496125Y-86218145D01*
X128284725Y-86344664D01*
X128284721Y-86344667D01*
X128281043Y-86346868D01*
X128067318Y-86518094D01*
X127955964Y-86635436D01*
X127899791Y-86694631D01*
X127878808Y-86716742D01*
X127719002Y-86939136D01*
X127590857Y-87181161D01*
X127589385Y-87185184D01*
X127589383Y-87185188D01*
X127525647Y-87359354D01*
X127496743Y-87438337D01*
X127438404Y-87705907D01*
X127437092Y-87722581D01*
X127417945Y-87965862D01*
X127416917Y-87978918D01*
X117753125Y-87978918D01*
X117922792Y-87937244D01*
X117927706Y-87936037D01*
X117932358Y-87934062D01*
X117932362Y-87934061D01*
X118146498Y-87843165D01*
X118151156Y-87841188D01*
X118257037Y-87774511D01*
X118352288Y-87714528D01*
X118352291Y-87714526D01*
X118356567Y-87711833D01*
X118455422Y-87624681D01*
X118534858Y-87554650D01*
X118534861Y-87554647D01*
X118538655Y-87551302D01*
X118647880Y-87418329D01*
X118689526Y-87367628D01*
X118689528Y-87367625D01*
X118692734Y-87363722D01*
X118796644Y-87185188D01*
X118812299Y-87158290D01*
X118812300Y-87158288D01*
X118814841Y-87153922D01*
X118865224Y-87022669D01*
X118900020Y-86932022D01*
X118900021Y-86932018D01*
X118901833Y-86927298D01*
X118942412Y-86733057D01*
X118950440Y-86694631D01*
X118950440Y-86694627D01*
X118951474Y-86689680D01*
X118962486Y-86447183D01*
X118952023Y-86356751D01*
X118935167Y-86211071D01*
X118935166Y-86211067D01*
X118934585Y-86206044D01*
X118903915Y-86097656D01*
X118884107Y-86027658D01*
X118868490Y-85972468D01*
X118866356Y-85967892D01*
X118866354Y-85967886D01*
X118768038Y-85757046D01*
X118768036Y-85757042D01*
X118765901Y-85752464D01*
X118629456Y-85551693D01*
X118462668Y-85375319D01*
X118458641Y-85372240D01*
X118273846Y-85230953D01*
X118273842Y-85230950D01*
X118269826Y-85227880D01*
X118055891Y-85113169D01*
X117826369Y-85034138D01*
X117726570Y-85016900D01*
X117591074Y-84993496D01*
X117591068Y-84993495D01*
X117587164Y-84992821D01*
X117583203Y-84992641D01*
X117583202Y-84992641D01*
X117559494Y-84991564D01*
X117559475Y-84991564D01*
X117558075Y-84991500D01*
X115888999Y-84991500D01*
X115886491Y-84991702D01*
X115886486Y-84991702D01*
X115713076Y-85005654D01*
X115713071Y-85005655D01*
X115708035Y-85006060D01*
X115703127Y-85007266D01*
X115703124Y-85007266D01*
X115587007Y-85035787D01*
X115472294Y-85063963D01*
X115467642Y-85065938D01*
X115467638Y-85065939D01*
X115360252Y-85111522D01*
X115248844Y-85158812D01*
X115244560Y-85161510D01*
X115047712Y-85285472D01*
X115047709Y-85285474D01*
X115043433Y-85288167D01*
X115039639Y-85291512D01*
X114865142Y-85445350D01*
X114865139Y-85445353D01*
X114861345Y-85448698D01*
X114858135Y-85452606D01*
X114858134Y-85452607D01*
X114753661Y-85579796D01*
X114707266Y-85636278D01*
X114704724Y-85640646D01*
X114613886Y-85796721D01*
X114585159Y-85846078D01*
X114583346Y-85850801D01*
X114509675Y-86042723D01*
X114498167Y-86072702D01*
X114497133Y-86077652D01*
X114497132Y-86077655D01*
X114485839Y-86131715D01*
X114448526Y-86310320D01*
X114437514Y-86552817D01*
X112008500Y-86552817D01*
X112008500Y-86053250D01*
X112010246Y-86032345D01*
X112012770Y-86017344D01*
X112012770Y-86017341D01*
X112013576Y-86012552D01*
X112013650Y-86006475D01*
X112013670Y-86004865D01*
X112013670Y-86004861D01*
X112013729Y-86000000D01*
X112013040Y-85995186D01*
X112013039Y-85995176D01*
X112012157Y-85989017D01*
X112011206Y-85962172D01*
X112019171Y-85850801D01*
X112023039Y-85796718D01*
X112025596Y-85778934D01*
X112066999Y-85588607D01*
X112072063Y-85571359D01*
X112140136Y-85388850D01*
X112147604Y-85372498D01*
X112240952Y-85201542D01*
X112250672Y-85186418D01*
X112367402Y-85030486D01*
X112379175Y-85016900D01*
X112516900Y-84879175D01*
X112530486Y-84867402D01*
X112686418Y-84750672D01*
X112701542Y-84740952D01*
X112872498Y-84647604D01*
X112888850Y-84640136D01*
X113071359Y-84572063D01*
X113088608Y-84566999D01*
X113278936Y-84525596D01*
X113296715Y-84523039D01*
X113458605Y-84511460D01*
X113476565Y-84512207D01*
X113484845Y-84512308D01*
X113493724Y-84513691D01*
X113525286Y-84509564D01*
X113541621Y-84508500D01*
X153450633Y-84508500D01*
X153470018Y-84510000D01*
G37*
%TD.AperFunction*%
%TD*%
M02*
