%TF.GenerationSoftware,KiCad,Pcbnew,(6.0.8)*%
%TF.CreationDate,2023-01-24T15:15:15-07:00*%
%TF.ProjectId,Power,506f7765-722e-46b6-9963-61645f706362,rev?*%
%TF.SameCoordinates,Original*%
%TF.FileFunction,Legend,Top*%
%TF.FilePolarity,Positive*%
%FSLAX46Y46*%
G04 Gerber Fmt 4.6, Leading zero omitted, Abs format (unit mm)*
G04 Created by KiCad (PCBNEW (6.0.8)) date 2023-01-24 15:15:15*
%MOMM*%
%LPD*%
G01*
G04 APERTURE LIST*
G04 Aperture macros list*
%AMRoundRect*
0 Rectangle with rounded corners*
0 $1 Rounding radius*
0 $2 $3 $4 $5 $6 $7 $8 $9 X,Y pos of 4 corners*
0 Add a 4 corners polygon primitive as box body*
4,1,4,$2,$3,$4,$5,$6,$7,$8,$9,$2,$3,0*
0 Add four circle primitives for the rounded corners*
1,1,$1+$1,$2,$3*
1,1,$1+$1,$4,$5*
1,1,$1+$1,$6,$7*
1,1,$1+$1,$8,$9*
0 Add four rect primitives between the rounded corners*
20,1,$1+$1,$2,$3,$4,$5,0*
20,1,$1+$1,$4,$5,$6,$7,0*
20,1,$1+$1,$6,$7,$8,$9,0*
20,1,$1+$1,$8,$9,$2,$3,0*%
G04 Aperture macros list end*
%ADD10C,0.150000*%
%ADD11C,0.125000*%
%ADD12C,0.100000*%
%ADD13C,0.120000*%
%ADD14C,0.500000*%
%ADD15O,1.700000X2.000000*%
%ADD16RoundRect,0.250000X-0.600000X-0.750000X0.600000X-0.750000X0.600000X0.750000X-0.600000X0.750000X0*%
%ADD17RoundRect,0.250000X-0.337500X-0.475000X0.337500X-0.475000X0.337500X0.475000X-0.337500X0.475000X0*%
%ADD18C,1.600000*%
%ADD19R,2.000000X4.000000*%
%ADD20O,2.000000X3.300000*%
%ADD21O,3.500000X2.000000*%
%ADD22R,3.000000X3.000000*%
%ADD23C,3.000000*%
G04 APERTURE END LIST*
D10*
X143825000Y-85737473D02*
X143925000Y-85737473D01*
X145125000Y-85337473D02*
X143625000Y-85337473D01*
X143625000Y-85737473D02*
X143825000Y-85737473D01*
X144825000Y-85737473D02*
X145125000Y-85737473D01*
X144225000Y-85737473D02*
X144525000Y-85737473D01*
X142919047Y-87583901D02*
X143680952Y-87583901D01*
X125619047Y-85471428D02*
X126380952Y-85471428D01*
D11*
X129652678Y-92885535D02*
X129795535Y-92885535D01*
X129866964Y-92921250D01*
X129938392Y-92992678D01*
X129974107Y-93135535D01*
X129974107Y-93385535D01*
X129938392Y-93528392D01*
X129866964Y-93599821D01*
X129795535Y-93635535D01*
X129652678Y-93635535D01*
X129581250Y-93599821D01*
X129509821Y-93528392D01*
X129474107Y-93385535D01*
X129474107Y-93135535D01*
X129509821Y-92992678D01*
X129581250Y-92921250D01*
X129652678Y-92885535D01*
X130224107Y-93135535D02*
X130402678Y-93635535D01*
X130581250Y-93135535D01*
X131152678Y-93599821D02*
X131081250Y-93635535D01*
X130938392Y-93635535D01*
X130866964Y-93599821D01*
X130831250Y-93528392D01*
X130831250Y-93242678D01*
X130866964Y-93171250D01*
X130938392Y-93135535D01*
X131081250Y-93135535D01*
X131152678Y-93171250D01*
X131188392Y-93242678D01*
X131188392Y-93314107D01*
X130831250Y-93385535D01*
X131509821Y-93635535D02*
X131509821Y-93135535D01*
X131509821Y-93278392D02*
X131545535Y-93206964D01*
X131581250Y-93171250D01*
X131652678Y-93135535D01*
X131724107Y-93135535D01*
X131974107Y-93635535D02*
X131974107Y-92885535D01*
X132045535Y-93349821D02*
X132259821Y-93635535D01*
X132259821Y-93135535D02*
X131974107Y-93421250D01*
X132581250Y-93635535D02*
X132581250Y-93135535D01*
X132581250Y-92885535D02*
X132545535Y-92921250D01*
X132581250Y-92956964D01*
X132616964Y-92921250D01*
X132581250Y-92885535D01*
X132581250Y-92956964D01*
X133045535Y-93635535D02*
X132974107Y-93599821D01*
X132938392Y-93528392D01*
X132938392Y-92885535D01*
X133438392Y-93635535D02*
X133366964Y-93599821D01*
X133331250Y-93528392D01*
X133331250Y-92885535D01*
X134295535Y-93635535D02*
X134295535Y-92885535D01*
X134581250Y-92885535D01*
X134652678Y-92921250D01*
X134688392Y-92956964D01*
X134724107Y-93028392D01*
X134724107Y-93135535D01*
X134688392Y-93206964D01*
X134652678Y-93242678D01*
X134581250Y-93278392D01*
X134295535Y-93278392D01*
X135045535Y-93635535D02*
X135045535Y-92885535D01*
X135402678Y-92885535D02*
X135402678Y-93492678D01*
X135438392Y-93564107D01*
X135474107Y-93599821D01*
X135545535Y-93635535D01*
X135688392Y-93635535D01*
X135759821Y-93599821D01*
X135795535Y-93564107D01*
X135831250Y-93492678D01*
X135831250Y-92885535D01*
X136759821Y-93635535D02*
X136759821Y-92885535D01*
X137045535Y-92885535D01*
X137116964Y-92921250D01*
X137152678Y-92956964D01*
X137188392Y-93028392D01*
X137188392Y-93135535D01*
X137152678Y-93206964D01*
X137116964Y-93242678D01*
X137045535Y-93278392D01*
X136759821Y-93278392D01*
X137831250Y-93635535D02*
X137831250Y-93242678D01*
X137795535Y-93171250D01*
X137724107Y-93135535D01*
X137581250Y-93135535D01*
X137509821Y-93171250D01*
X137831250Y-93599821D02*
X137759821Y-93635535D01*
X137581250Y-93635535D01*
X137509821Y-93599821D01*
X137474107Y-93528392D01*
X137474107Y-93456964D01*
X137509821Y-93385535D01*
X137581250Y-93349821D01*
X137759821Y-93349821D01*
X137831250Y-93314107D01*
X138509821Y-93635535D02*
X138509821Y-92885535D01*
X138509821Y-93599821D02*
X138438392Y-93635535D01*
X138295535Y-93635535D01*
X138224107Y-93599821D01*
X138188392Y-93564107D01*
X138152678Y-93492678D01*
X138152678Y-93278392D01*
X138188392Y-93206964D01*
X138224107Y-93171250D01*
X138295535Y-93135535D01*
X138438392Y-93135535D01*
X138509821Y-93171250D01*
X139795535Y-93635535D02*
X139438392Y-93635535D01*
X139438392Y-92885535D01*
X140045535Y-93635535D02*
X140045535Y-93135535D01*
X140045535Y-92885535D02*
X140009821Y-92921250D01*
X140045535Y-92956964D01*
X140081250Y-92921250D01*
X140045535Y-92885535D01*
X140045535Y-92956964D01*
X140724107Y-93135535D02*
X140724107Y-93742678D01*
X140688392Y-93814107D01*
X140652678Y-93849821D01*
X140581250Y-93885535D01*
X140474107Y-93885535D01*
X140402678Y-93849821D01*
X140724107Y-93599821D02*
X140652678Y-93635535D01*
X140509821Y-93635535D01*
X140438392Y-93599821D01*
X140402678Y-93564107D01*
X140366964Y-93492678D01*
X140366964Y-93278392D01*
X140402678Y-93206964D01*
X140438392Y-93171250D01*
X140509821Y-93135535D01*
X140652678Y-93135535D01*
X140724107Y-93171250D01*
X141081250Y-93635535D02*
X141081250Y-92885535D01*
X141402678Y-93635535D02*
X141402678Y-93242678D01*
X141366964Y-93171250D01*
X141295535Y-93135535D01*
X141188392Y-93135535D01*
X141116964Y-93171250D01*
X141081250Y-93206964D01*
X141652678Y-93135535D02*
X141938392Y-93135535D01*
X141759821Y-92885535D02*
X141759821Y-93528392D01*
X141795535Y-93599821D01*
X141866964Y-93635535D01*
X141938392Y-93635535D01*
X142188392Y-93635535D02*
X142188392Y-93135535D01*
X142188392Y-92885535D02*
X142152678Y-92921250D01*
X142188392Y-92956964D01*
X142224107Y-92921250D01*
X142188392Y-92885535D01*
X142188392Y-92956964D01*
X142545535Y-93135535D02*
X142545535Y-93635535D01*
X142545535Y-93206964D02*
X142581250Y-93171250D01*
X142652678Y-93135535D01*
X142759821Y-93135535D01*
X142831250Y-93171250D01*
X142866964Y-93242678D01*
X142866964Y-93635535D01*
X143545535Y-93135535D02*
X143545535Y-93742678D01*
X143509821Y-93814107D01*
X143474107Y-93849821D01*
X143402678Y-93885535D01*
X143295535Y-93885535D01*
X143224107Y-93849821D01*
X143545535Y-93599821D02*
X143474107Y-93635535D01*
X143331250Y-93635535D01*
X143259821Y-93599821D01*
X143224107Y-93564107D01*
X143188392Y-93492678D01*
X143188392Y-93278392D01*
X143224107Y-93206964D01*
X143259821Y-93171250D01*
X143331250Y-93135535D01*
X143474107Y-93135535D01*
X143545535Y-93171250D01*
X144474107Y-93635535D02*
X144474107Y-92885535D01*
X144902678Y-93635535D02*
X144581250Y-93206964D01*
X144902678Y-92885535D02*
X144474107Y-93314107D01*
X145224107Y-93635535D02*
X145224107Y-93135535D01*
X145224107Y-92885535D02*
X145188392Y-92921250D01*
X145224107Y-92956964D01*
X145259821Y-92921250D01*
X145224107Y-92885535D01*
X145224107Y-92956964D01*
X145474107Y-93135535D02*
X145759821Y-93135535D01*
X145581250Y-92885535D02*
X145581250Y-93528392D01*
X145616964Y-93599821D01*
X145688392Y-93635535D01*
X145759821Y-93635535D01*
X129509821Y-94843035D02*
X129509821Y-94093035D01*
X129795535Y-94093035D01*
X129866964Y-94128750D01*
X129902678Y-94164464D01*
X129938392Y-94235892D01*
X129938392Y-94343035D01*
X129902678Y-94414464D01*
X129866964Y-94450178D01*
X129795535Y-94485892D01*
X129509821Y-94485892D01*
X130366964Y-94843035D02*
X130295535Y-94807321D01*
X130259821Y-94771607D01*
X130224107Y-94700178D01*
X130224107Y-94485892D01*
X130259821Y-94414464D01*
X130295535Y-94378750D01*
X130366964Y-94343035D01*
X130474107Y-94343035D01*
X130545535Y-94378750D01*
X130581250Y-94414464D01*
X130616964Y-94485892D01*
X130616964Y-94700178D01*
X130581250Y-94771607D01*
X130545535Y-94807321D01*
X130474107Y-94843035D01*
X130366964Y-94843035D01*
X130866964Y-94343035D02*
X131009821Y-94843035D01*
X131152678Y-94485892D01*
X131295535Y-94843035D01*
X131438392Y-94343035D01*
X132009821Y-94807321D02*
X131938392Y-94843035D01*
X131795535Y-94843035D01*
X131724107Y-94807321D01*
X131688392Y-94735892D01*
X131688392Y-94450178D01*
X131724107Y-94378750D01*
X131795535Y-94343035D01*
X131938392Y-94343035D01*
X132009821Y-94378750D01*
X132045535Y-94450178D01*
X132045535Y-94521607D01*
X131688392Y-94593035D01*
X132366964Y-94843035D02*
X132366964Y-94343035D01*
X132366964Y-94485892D02*
X132402678Y-94414464D01*
X132438392Y-94378750D01*
X132509821Y-94343035D01*
X132581250Y-94343035D01*
X133402678Y-94843035D02*
X133402678Y-94093035D01*
X133581250Y-94093035D01*
X133688392Y-94128750D01*
X133759821Y-94200178D01*
X133795535Y-94271607D01*
X133831250Y-94414464D01*
X133831250Y-94521607D01*
X133795535Y-94664464D01*
X133759821Y-94735892D01*
X133688392Y-94807321D01*
X133581250Y-94843035D01*
X133402678Y-94843035D01*
X134152678Y-94843035D02*
X134152678Y-94343035D01*
X134152678Y-94093035D02*
X134116964Y-94128750D01*
X134152678Y-94164464D01*
X134188392Y-94128750D01*
X134152678Y-94093035D01*
X134152678Y-94164464D01*
X134474107Y-94807321D02*
X134545535Y-94843035D01*
X134688392Y-94843035D01*
X134759821Y-94807321D01*
X134795535Y-94735892D01*
X134795535Y-94700178D01*
X134759821Y-94628750D01*
X134688392Y-94593035D01*
X134581250Y-94593035D01*
X134509821Y-94557321D01*
X134474107Y-94485892D01*
X134474107Y-94450178D01*
X134509821Y-94378750D01*
X134581250Y-94343035D01*
X134688392Y-94343035D01*
X134759821Y-94378750D01*
X135009821Y-94343035D02*
X135295535Y-94343035D01*
X135116964Y-94093035D02*
X135116964Y-94735892D01*
X135152678Y-94807321D01*
X135224107Y-94843035D01*
X135295535Y-94843035D01*
X135545535Y-94843035D02*
X135545535Y-94343035D01*
X135545535Y-94485892D02*
X135581250Y-94414464D01*
X135616964Y-94378750D01*
X135688392Y-94343035D01*
X135759821Y-94343035D01*
X136009821Y-94843035D02*
X136009821Y-94343035D01*
X136009821Y-94093035D02*
X135974107Y-94128750D01*
X136009821Y-94164464D01*
X136045535Y-94128750D01*
X136009821Y-94093035D01*
X136009821Y-94164464D01*
X136366964Y-94843035D02*
X136366964Y-94093035D01*
X136366964Y-94378750D02*
X136438392Y-94343035D01*
X136581250Y-94343035D01*
X136652678Y-94378750D01*
X136688392Y-94414464D01*
X136724107Y-94485892D01*
X136724107Y-94700178D01*
X136688392Y-94771607D01*
X136652678Y-94807321D01*
X136581250Y-94843035D01*
X136438392Y-94843035D01*
X136366964Y-94807321D01*
X137366964Y-94343035D02*
X137366964Y-94843035D01*
X137045535Y-94343035D02*
X137045535Y-94735892D01*
X137081250Y-94807321D01*
X137152678Y-94843035D01*
X137259821Y-94843035D01*
X137331250Y-94807321D01*
X137366964Y-94771607D01*
X137616964Y-94343035D02*
X137902678Y-94343035D01*
X137724107Y-94093035D02*
X137724107Y-94735892D01*
X137759821Y-94807321D01*
X137831250Y-94843035D01*
X137902678Y-94843035D01*
X138152678Y-94843035D02*
X138152678Y-94343035D01*
X138152678Y-94093035D02*
X138116964Y-94128750D01*
X138152678Y-94164464D01*
X138188392Y-94128750D01*
X138152678Y-94093035D01*
X138152678Y-94164464D01*
X138616964Y-94843035D02*
X138545535Y-94807321D01*
X138509821Y-94771607D01*
X138474107Y-94700178D01*
X138474107Y-94485892D01*
X138509821Y-94414464D01*
X138545535Y-94378750D01*
X138616964Y-94343035D01*
X138724107Y-94343035D01*
X138795535Y-94378750D01*
X138831250Y-94414464D01*
X138866964Y-94485892D01*
X138866964Y-94700178D01*
X138831250Y-94771607D01*
X138795535Y-94807321D01*
X138724107Y-94843035D01*
X138616964Y-94843035D01*
X139188392Y-94343035D02*
X139188392Y-94843035D01*
X139188392Y-94414464D02*
X139224107Y-94378750D01*
X139295535Y-94343035D01*
X139402678Y-94343035D01*
X139474107Y-94378750D01*
X139509821Y-94450178D01*
X139509821Y-94843035D01*
X140438392Y-94843035D02*
X140438392Y-94093035D01*
X140724107Y-94093035D01*
X140795535Y-94128750D01*
X140831250Y-94164464D01*
X140866964Y-94235892D01*
X140866964Y-94343035D01*
X140831250Y-94414464D01*
X140795535Y-94450178D01*
X140724107Y-94485892D01*
X140438392Y-94485892D01*
X141616964Y-94771607D02*
X141581250Y-94807321D01*
X141474107Y-94843035D01*
X141402678Y-94843035D01*
X141295535Y-94807321D01*
X141224107Y-94735892D01*
X141188392Y-94664464D01*
X141152678Y-94521607D01*
X141152678Y-94414464D01*
X141188392Y-94271607D01*
X141224107Y-94200178D01*
X141295535Y-94128750D01*
X141402678Y-94093035D01*
X141474107Y-94093035D01*
X141581250Y-94128750D01*
X141616964Y-94164464D01*
X142188392Y-94450178D02*
X142295535Y-94485892D01*
X142331250Y-94521607D01*
X142366964Y-94593035D01*
X142366964Y-94700178D01*
X142331250Y-94771607D01*
X142295535Y-94807321D01*
X142224107Y-94843035D01*
X141938392Y-94843035D01*
X141938392Y-94093035D01*
X142188392Y-94093035D01*
X142259821Y-94128750D01*
X142295535Y-94164464D01*
X142331250Y-94235892D01*
X142331250Y-94307321D01*
X142295535Y-94378750D01*
X142259821Y-94414464D01*
X142188392Y-94450178D01*
X141938392Y-94450178D01*
D10*
X146417857Y-85126758D02*
X146060714Y-85126758D01*
X146025000Y-85483901D01*
X146060714Y-85448187D01*
X146132142Y-85412473D01*
X146310714Y-85412473D01*
X146382142Y-85448187D01*
X146417857Y-85483901D01*
X146453571Y-85555330D01*
X146453571Y-85733901D01*
X146417857Y-85805330D01*
X146382142Y-85841044D01*
X146310714Y-85876758D01*
X146132142Y-85876758D01*
X146060714Y-85841044D01*
X146025000Y-85805330D01*
X146667857Y-85126758D02*
X146917857Y-85876758D01*
X147167857Y-85126758D01*
X148096428Y-85448187D02*
X148025000Y-85412473D01*
X147989285Y-85376758D01*
X147953571Y-85305330D01*
X147953571Y-85269615D01*
X147989285Y-85198187D01*
X148025000Y-85162473D01*
X148096428Y-85126758D01*
X148239285Y-85126758D01*
X148310714Y-85162473D01*
X148346428Y-85198187D01*
X148382142Y-85269615D01*
X148382142Y-85305330D01*
X148346428Y-85376758D01*
X148310714Y-85412473D01*
X148239285Y-85448187D01*
X148096428Y-85448187D01*
X148025000Y-85483901D01*
X147989285Y-85519615D01*
X147953571Y-85591044D01*
X147953571Y-85733901D01*
X147989285Y-85805330D01*
X148025000Y-85841044D01*
X148096428Y-85876758D01*
X148239285Y-85876758D01*
X148310714Y-85841044D01*
X148346428Y-85805330D01*
X148382142Y-85733901D01*
X148382142Y-85591044D01*
X148346428Y-85519615D01*
X148310714Y-85483901D01*
X148239285Y-85448187D01*
X148667857Y-85662473D02*
X149025000Y-85662473D01*
X148596428Y-85876758D02*
X148846428Y-85126758D01*
X149096428Y-85876758D01*
D12*
X129507857Y-95771428D02*
X129507857Y-95171428D01*
X129765000Y-95771428D02*
X129765000Y-95457142D01*
X129736428Y-95400000D01*
X129679285Y-95371428D01*
X129593571Y-95371428D01*
X129536428Y-95400000D01*
X129507857Y-95428571D01*
X129965000Y-95371428D02*
X130193571Y-95371428D01*
X130050714Y-95171428D02*
X130050714Y-95685714D01*
X130079285Y-95742857D01*
X130136428Y-95771428D01*
X130193571Y-95771428D01*
X130307857Y-95371428D02*
X130536428Y-95371428D01*
X130393571Y-95171428D02*
X130393571Y-95685714D01*
X130422142Y-95742857D01*
X130479285Y-95771428D01*
X130536428Y-95771428D01*
X130736428Y-95371428D02*
X130736428Y-95971428D01*
X130736428Y-95400000D02*
X130793571Y-95371428D01*
X130907857Y-95371428D01*
X130965000Y-95400000D01*
X130993571Y-95428571D01*
X131022142Y-95485714D01*
X131022142Y-95657142D01*
X130993571Y-95714285D01*
X130965000Y-95742857D01*
X130907857Y-95771428D01*
X130793571Y-95771428D01*
X130736428Y-95742857D01*
X131250714Y-95742857D02*
X131307857Y-95771428D01*
X131422142Y-95771428D01*
X131479285Y-95742857D01*
X131507857Y-95685714D01*
X131507857Y-95657142D01*
X131479285Y-95600000D01*
X131422142Y-95571428D01*
X131336428Y-95571428D01*
X131279285Y-95542857D01*
X131250714Y-95485714D01*
X131250714Y-95457142D01*
X131279285Y-95400000D01*
X131336428Y-95371428D01*
X131422142Y-95371428D01*
X131479285Y-95400000D01*
X131765000Y-95714285D02*
X131793571Y-95742857D01*
X131765000Y-95771428D01*
X131736428Y-95742857D01*
X131765000Y-95714285D01*
X131765000Y-95771428D01*
X131765000Y-95400000D02*
X131793571Y-95428571D01*
X131765000Y-95457142D01*
X131736428Y-95428571D01*
X131765000Y-95400000D01*
X131765000Y-95457142D01*
X132479285Y-95142857D02*
X131965000Y-95914285D01*
X133107857Y-95142857D02*
X132593571Y-95914285D01*
X133565000Y-95371428D02*
X133565000Y-95857142D01*
X133536428Y-95914285D01*
X133507857Y-95942857D01*
X133450714Y-95971428D01*
X133365000Y-95971428D01*
X133307857Y-95942857D01*
X133565000Y-95742857D02*
X133507857Y-95771428D01*
X133393571Y-95771428D01*
X133336428Y-95742857D01*
X133307857Y-95714285D01*
X133279285Y-95657142D01*
X133279285Y-95485714D01*
X133307857Y-95428571D01*
X133336428Y-95400000D01*
X133393571Y-95371428D01*
X133507857Y-95371428D01*
X133565000Y-95400000D01*
X133850714Y-95771428D02*
X133850714Y-95371428D01*
X133850714Y-95171428D02*
X133822142Y-95200000D01*
X133850714Y-95228571D01*
X133879285Y-95200000D01*
X133850714Y-95171428D01*
X133850714Y-95228571D01*
X134050714Y-95371428D02*
X134279285Y-95371428D01*
X134136428Y-95171428D02*
X134136428Y-95685714D01*
X134165000Y-95742857D01*
X134222142Y-95771428D01*
X134279285Y-95771428D01*
X134479285Y-95771428D02*
X134479285Y-95171428D01*
X134736428Y-95771428D02*
X134736428Y-95457142D01*
X134707857Y-95400000D01*
X134650714Y-95371428D01*
X134565000Y-95371428D01*
X134507857Y-95400000D01*
X134479285Y-95428571D01*
X135279285Y-95371428D02*
X135279285Y-95771428D01*
X135022142Y-95371428D02*
X135022142Y-95685714D01*
X135050714Y-95742857D01*
X135107857Y-95771428D01*
X135193571Y-95771428D01*
X135250714Y-95742857D01*
X135279285Y-95714285D01*
X135565000Y-95771428D02*
X135565000Y-95171428D01*
X135565000Y-95400000D02*
X135622142Y-95371428D01*
X135736428Y-95371428D01*
X135793571Y-95400000D01*
X135822142Y-95428571D01*
X135850714Y-95485714D01*
X135850714Y-95657142D01*
X135822142Y-95714285D01*
X135793571Y-95742857D01*
X135736428Y-95771428D01*
X135622142Y-95771428D01*
X135565000Y-95742857D01*
X136107857Y-95714285D02*
X136136428Y-95742857D01*
X136107857Y-95771428D01*
X136079285Y-95742857D01*
X136107857Y-95714285D01*
X136107857Y-95771428D01*
X136650714Y-95742857D02*
X136593571Y-95771428D01*
X136479285Y-95771428D01*
X136422142Y-95742857D01*
X136393571Y-95714285D01*
X136365000Y-95657142D01*
X136365000Y-95485714D01*
X136393571Y-95428571D01*
X136422142Y-95400000D01*
X136479285Y-95371428D01*
X136593571Y-95371428D01*
X136650714Y-95400000D01*
X136993571Y-95771428D02*
X136936428Y-95742857D01*
X136907857Y-95714285D01*
X136879285Y-95657142D01*
X136879285Y-95485714D01*
X136907857Y-95428571D01*
X136936428Y-95400000D01*
X136993571Y-95371428D01*
X137079285Y-95371428D01*
X137136428Y-95400000D01*
X137165000Y-95428571D01*
X137193571Y-95485714D01*
X137193571Y-95657142D01*
X137165000Y-95714285D01*
X137136428Y-95742857D01*
X137079285Y-95771428D01*
X136993571Y-95771428D01*
X137450714Y-95771428D02*
X137450714Y-95371428D01*
X137450714Y-95428571D02*
X137479285Y-95400000D01*
X137536428Y-95371428D01*
X137622142Y-95371428D01*
X137679285Y-95400000D01*
X137707857Y-95457142D01*
X137707857Y-95771428D01*
X137707857Y-95457142D02*
X137736428Y-95400000D01*
X137793571Y-95371428D01*
X137879285Y-95371428D01*
X137936428Y-95400000D01*
X137965000Y-95457142D01*
X137965000Y-95771428D01*
X138679285Y-95142857D02*
X138165000Y-95914285D01*
X139136428Y-95771428D02*
X139136428Y-95171428D01*
X139136428Y-95742857D02*
X139079285Y-95771428D01*
X138965000Y-95771428D01*
X138907857Y-95742857D01*
X138879285Y-95714285D01*
X138850714Y-95657142D01*
X138850714Y-95485714D01*
X138879285Y-95428571D01*
X138907857Y-95400000D01*
X138965000Y-95371428D01*
X139079285Y-95371428D01*
X139136428Y-95400000D01*
X139422142Y-95371428D02*
X139422142Y-95885714D01*
X139393571Y-95942857D01*
X139336428Y-95971428D01*
X139307857Y-95971428D01*
X139422142Y-95171428D02*
X139393571Y-95200000D01*
X139422142Y-95228571D01*
X139450714Y-95200000D01*
X139422142Y-95171428D01*
X139422142Y-95228571D01*
X139993571Y-95171428D02*
X139707857Y-95171428D01*
X139679285Y-95457142D01*
X139707857Y-95428571D01*
X139765000Y-95400000D01*
X139907857Y-95400000D01*
X139965000Y-95428571D01*
X139993571Y-95457142D01*
X140022142Y-95514285D01*
X140022142Y-95657142D01*
X139993571Y-95714285D01*
X139965000Y-95742857D01*
X139907857Y-95771428D01*
X139765000Y-95771428D01*
X139707857Y-95742857D01*
X139679285Y-95714285D01*
X140393571Y-95171428D02*
X140450714Y-95171428D01*
X140507857Y-95200000D01*
X140536428Y-95228571D01*
X140565000Y-95285714D01*
X140593571Y-95400000D01*
X140593571Y-95542857D01*
X140565000Y-95657142D01*
X140536428Y-95714285D01*
X140507857Y-95742857D01*
X140450714Y-95771428D01*
X140393571Y-95771428D01*
X140336428Y-95742857D01*
X140307857Y-95714285D01*
X140279285Y-95657142D01*
X140250714Y-95542857D01*
X140250714Y-95400000D01*
X140279285Y-95285714D01*
X140307857Y-95228571D01*
X140336428Y-95200000D01*
X140393571Y-95171428D01*
X141136428Y-95171428D02*
X140850714Y-95171428D01*
X140822142Y-95457142D01*
X140850714Y-95428571D01*
X140907857Y-95400000D01*
X141050714Y-95400000D01*
X141107857Y-95428571D01*
X141136428Y-95457142D01*
X141165000Y-95514285D01*
X141165000Y-95657142D01*
X141136428Y-95714285D01*
X141107857Y-95742857D01*
X141050714Y-95771428D01*
X140907857Y-95771428D01*
X140850714Y-95742857D01*
X140822142Y-95714285D01*
X141850714Y-95142857D02*
X141336428Y-95914285D01*
X142050714Y-95771428D02*
X142050714Y-95171428D01*
X142279285Y-95171428D01*
X142336428Y-95200000D01*
X142365000Y-95228571D01*
X142393571Y-95285714D01*
X142393571Y-95371428D01*
X142365000Y-95428571D01*
X142336428Y-95457142D01*
X142279285Y-95485714D01*
X142050714Y-95485714D01*
X142907857Y-95771428D02*
X142907857Y-95457142D01*
X142879285Y-95400000D01*
X142822142Y-95371428D01*
X142707857Y-95371428D01*
X142650714Y-95400000D01*
X142907857Y-95742857D02*
X142850714Y-95771428D01*
X142707857Y-95771428D01*
X142650714Y-95742857D01*
X142622142Y-95685714D01*
X142622142Y-95628571D01*
X142650714Y-95571428D01*
X142707857Y-95542857D01*
X142850714Y-95542857D01*
X142907857Y-95514285D01*
X143450714Y-95771428D02*
X143450714Y-95171428D01*
X143450714Y-95742857D02*
X143393571Y-95771428D01*
X143279285Y-95771428D01*
X143222142Y-95742857D01*
X143193571Y-95714285D01*
X143165000Y-95657142D01*
X143165000Y-95485714D01*
X143193571Y-95428571D01*
X143222142Y-95400000D01*
X143279285Y-95371428D01*
X143393571Y-95371428D01*
X143450714Y-95400000D01*
X143736428Y-95542857D02*
X144193571Y-95542857D01*
X144765000Y-95771428D02*
X144479285Y-95771428D01*
X144479285Y-95171428D01*
X144965000Y-95771428D02*
X144965000Y-95371428D01*
X144965000Y-95171428D02*
X144936428Y-95200000D01*
X144965000Y-95228571D01*
X144993571Y-95200000D01*
X144965000Y-95171428D01*
X144965000Y-95228571D01*
X145507857Y-95371428D02*
X145507857Y-95857142D01*
X145479285Y-95914285D01*
X145450714Y-95942857D01*
X145393571Y-95971428D01*
X145307857Y-95971428D01*
X145250714Y-95942857D01*
X145507857Y-95742857D02*
X145450714Y-95771428D01*
X145336428Y-95771428D01*
X145279285Y-95742857D01*
X145250714Y-95714285D01*
X145222142Y-95657142D01*
X145222142Y-95485714D01*
X145250714Y-95428571D01*
X145279285Y-95400000D01*
X145336428Y-95371428D01*
X145450714Y-95371428D01*
X145507857Y-95400000D01*
X145793571Y-95771428D02*
X145793571Y-95171428D01*
X146050714Y-95771428D02*
X146050714Y-95457142D01*
X146022142Y-95400000D01*
X145965000Y-95371428D01*
X145879285Y-95371428D01*
X145822142Y-95400000D01*
X145793571Y-95428571D01*
X146250714Y-95371428D02*
X146479285Y-95371428D01*
X146336428Y-95171428D02*
X146336428Y-95685714D01*
X146365000Y-95742857D01*
X146422142Y-95771428D01*
X146479285Y-95771428D01*
X146679285Y-95542857D02*
X147136428Y-95542857D01*
X147422142Y-95771428D02*
X147422142Y-95171428D01*
X147765000Y-95771428D02*
X147507857Y-95428571D01*
X147765000Y-95171428D02*
X147422142Y-95514285D01*
X148022142Y-95771428D02*
X148022142Y-95371428D01*
X148022142Y-95171428D02*
X147993571Y-95200000D01*
X148022142Y-95228571D01*
X148050714Y-95200000D01*
X148022142Y-95171428D01*
X148022142Y-95228571D01*
X148222142Y-95371428D02*
X148450714Y-95371428D01*
X148307857Y-95171428D02*
X148307857Y-95685714D01*
X148336428Y-95742857D01*
X148393571Y-95771428D01*
X148450714Y-95771428D01*
D10*
X137619047Y-85471428D02*
X138380952Y-85471428D01*
X138000000Y-85852380D02*
X138000000Y-85090476D01*
X148919047Y-87583901D02*
X149680952Y-87583901D01*
X149300000Y-87964853D02*
X149300000Y-87202949D01*
%TO.C,J7*%
X148395371Y-99602380D02*
X148395371Y-100316666D01*
X148347752Y-100459523D01*
X148252514Y-100554761D01*
X148109657Y-100602380D01*
X148014419Y-100602380D01*
X148776324Y-99602380D02*
X149442990Y-99602380D01*
X149014419Y-100602380D01*
%TO.C,J6*%
X139505371Y-99602380D02*
X139505371Y-100316666D01*
X139457752Y-100459523D01*
X139362514Y-100554761D01*
X139219657Y-100602380D01*
X139124419Y-100602380D01*
X140410133Y-99602380D02*
X140219657Y-99602380D01*
X140124419Y-99650000D01*
X140076800Y-99697619D01*
X139981562Y-99840476D01*
X139933943Y-100030952D01*
X139933943Y-100411904D01*
X139981562Y-100507142D01*
X140029181Y-100554761D01*
X140124419Y-100602380D01*
X140314895Y-100602380D01*
X140410133Y-100554761D01*
X140457752Y-100507142D01*
X140505371Y-100411904D01*
X140505371Y-100173809D01*
X140457752Y-100078571D01*
X140410133Y-100030952D01*
X140314895Y-99983333D01*
X140124419Y-99983333D01*
X140029181Y-100030952D01*
X139981562Y-100078571D01*
X139933943Y-100173809D01*
%TO.C,J5*%
X130655371Y-99602380D02*
X130655371Y-100316666D01*
X130607752Y-100459523D01*
X130512514Y-100554761D01*
X130369657Y-100602380D01*
X130274419Y-100602380D01*
X131607752Y-99602380D02*
X131131562Y-99602380D01*
X131083943Y-100078571D01*
X131131562Y-100030952D01*
X131226800Y-99983333D01*
X131464895Y-99983333D01*
X131560133Y-100030952D01*
X131607752Y-100078571D01*
X131655371Y-100173809D01*
X131655371Y-100411904D01*
X131607752Y-100507142D01*
X131560133Y-100554761D01*
X131464895Y-100602380D01*
X131226800Y-100602380D01*
X131131562Y-100554761D01*
X131083943Y-100507142D01*
%TO.C,J4*%
X121725371Y-99602380D02*
X121725371Y-100316666D01*
X121677752Y-100459523D01*
X121582514Y-100554761D01*
X121439657Y-100602380D01*
X121344419Y-100602380D01*
X122630133Y-99935714D02*
X122630133Y-100602380D01*
X122392038Y-99554761D02*
X122153943Y-100269047D01*
X122772990Y-100269047D01*
%TO.C,J3*%
X112835371Y-99602380D02*
X112835371Y-100316666D01*
X112787752Y-100459523D01*
X112692514Y-100554761D01*
X112549657Y-100602380D01*
X112454419Y-100602380D01*
X113216324Y-99602380D02*
X113835371Y-99602380D01*
X113502038Y-99983333D01*
X113644895Y-99983333D01*
X113740133Y-100030952D01*
X113787752Y-100078571D01*
X113835371Y-100173809D01*
X113835371Y-100411904D01*
X113787752Y-100507142D01*
X113740133Y-100554761D01*
X113644895Y-100602380D01*
X113359181Y-100602380D01*
X113263943Y-100554761D01*
X113216324Y-100507142D01*
%TO.C,C1*%
X117214833Y-97551142D02*
X117167214Y-97598761D01*
X117024357Y-97646380D01*
X116929119Y-97646380D01*
X116786261Y-97598761D01*
X116691023Y-97503523D01*
X116643404Y-97408285D01*
X116595785Y-97217809D01*
X116595785Y-97074952D01*
X116643404Y-96884476D01*
X116691023Y-96789238D01*
X116786261Y-96694000D01*
X116929119Y-96646380D01*
X117024357Y-96646380D01*
X117167214Y-96694000D01*
X117214833Y-96741619D01*
X118167214Y-97646380D02*
X117595785Y-97646380D01*
X117881500Y-97646380D02*
X117881500Y-96646380D01*
X117786261Y-96789238D01*
X117691023Y-96884476D01*
X117595785Y-96932095D01*
%TO.C,J2*%
X111952380Y-97583333D02*
X112666666Y-97583333D01*
X112809523Y-97630952D01*
X112904761Y-97726190D01*
X112952380Y-97869047D01*
X112952380Y-97964285D01*
X112047619Y-97154761D02*
X112000000Y-97107142D01*
X111952380Y-97011904D01*
X111952380Y-96773809D01*
X112000000Y-96678571D01*
X112047619Y-96630952D01*
X112142857Y-96583333D01*
X112238095Y-96583333D01*
X112380952Y-96630952D01*
X112952380Y-97202380D01*
X112952380Y-96583333D01*
%TO.C,C2*%
X126083333Y-97551142D02*
X126035714Y-97598761D01*
X125892857Y-97646380D01*
X125797619Y-97646380D01*
X125654761Y-97598761D01*
X125559523Y-97503523D01*
X125511904Y-97408285D01*
X125464285Y-97217809D01*
X125464285Y-97074952D01*
X125511904Y-96884476D01*
X125559523Y-96789238D01*
X125654761Y-96694000D01*
X125797619Y-96646380D01*
X125892857Y-96646380D01*
X126035714Y-96694000D01*
X126083333Y-96741619D01*
X126464285Y-96741619D02*
X126511904Y-96694000D01*
X126607142Y-96646380D01*
X126845238Y-96646380D01*
X126940476Y-96694000D01*
X126988095Y-96741619D01*
X127035714Y-96836857D01*
X127035714Y-96932095D01*
X126988095Y-97074952D01*
X126416666Y-97646380D01*
X127035714Y-97646380D01*
%TO.C,C4*%
X152731833Y-97551142D02*
X152684214Y-97598761D01*
X152541357Y-97646380D01*
X152446119Y-97646380D01*
X152303261Y-97598761D01*
X152208023Y-97503523D01*
X152160404Y-97408285D01*
X152112785Y-97217809D01*
X152112785Y-97074952D01*
X152160404Y-96884476D01*
X152208023Y-96789238D01*
X152303261Y-96694000D01*
X152446119Y-96646380D01*
X152541357Y-96646380D01*
X152684214Y-96694000D01*
X152731833Y-96741619D01*
X153588976Y-96979714D02*
X153588976Y-97646380D01*
X153350880Y-96598761D02*
X153112785Y-97313047D01*
X153731833Y-97313047D01*
%TO.C,J1*%
X137866666Y-90852380D02*
X137866666Y-91566666D01*
X137819047Y-91709523D01*
X137723809Y-91804761D01*
X137580952Y-91852380D01*
X137485714Y-91852380D01*
X138866666Y-91852380D02*
X138295238Y-91852380D01*
X138580952Y-91852380D02*
X138580952Y-90852380D01*
X138485714Y-90995238D01*
X138390476Y-91090476D01*
X138295238Y-91138095D01*
%TO.C,C3*%
X134951833Y-97551142D02*
X134904214Y-97598761D01*
X134761357Y-97646380D01*
X134666119Y-97646380D01*
X134523261Y-97598761D01*
X134428023Y-97503523D01*
X134380404Y-97408285D01*
X134332785Y-97217809D01*
X134332785Y-97074952D01*
X134380404Y-96884476D01*
X134428023Y-96789238D01*
X134523261Y-96694000D01*
X134666119Y-96646380D01*
X134761357Y-96646380D01*
X134904214Y-96694000D01*
X134951833Y-96741619D01*
X135285166Y-96646380D02*
X135904214Y-96646380D01*
X135570880Y-97027333D01*
X135713738Y-97027333D01*
X135808976Y-97074952D01*
X135856595Y-97122571D01*
X135904214Y-97217809D01*
X135904214Y-97455904D01*
X135856595Y-97551142D01*
X135808976Y-97598761D01*
X135713738Y-97646380D01*
X135428023Y-97646380D01*
X135332785Y-97598761D01*
X135285166Y-97551142D01*
%TO.C,C5*%
X143841833Y-97551142D02*
X143794214Y-97598761D01*
X143651357Y-97646380D01*
X143556119Y-97646380D01*
X143413261Y-97598761D01*
X143318023Y-97503523D01*
X143270404Y-97408285D01*
X143222785Y-97217809D01*
X143222785Y-97074952D01*
X143270404Y-96884476D01*
X143318023Y-96789238D01*
X143413261Y-96694000D01*
X143556119Y-96646380D01*
X143651357Y-96646380D01*
X143794214Y-96694000D01*
X143841833Y-96741619D01*
X144746595Y-96646380D02*
X144270404Y-96646380D01*
X144222785Y-97122571D01*
X144270404Y-97074952D01*
X144365642Y-97027333D01*
X144603738Y-97027333D01*
X144698976Y-97074952D01*
X144746595Y-97122571D01*
X144794214Y-97217809D01*
X144794214Y-97455904D01*
X144746595Y-97551142D01*
X144698976Y-97598761D01*
X144603738Y-97646380D01*
X144365642Y-97646380D01*
X144270404Y-97598761D01*
X144222785Y-97551142D01*
D13*
%TO.C,J7*%
X149232500Y-102000000D02*
X149232500Y-101250000D01*
X155042500Y-107210000D02*
X155042500Y-101240000D01*
X153232500Y-101250000D02*
X153232500Y-102000000D01*
X148182500Y-106450000D02*
X151232500Y-106450000D01*
X155042500Y-101240000D02*
X147422500Y-101240000D01*
X149232500Y-101250000D02*
X147432500Y-101250000D01*
X155032500Y-102000000D02*
X155032500Y-101250000D01*
X148382500Y-100950000D02*
X147132500Y-100950000D01*
X147432500Y-102000000D02*
X149232500Y-102000000D01*
X147432500Y-103500000D02*
X148182500Y-103500000D01*
X151732500Y-102000000D02*
X151732500Y-101250000D01*
X147422500Y-107210000D02*
X155042500Y-107210000D01*
X147432500Y-101250000D02*
X147432500Y-102000000D01*
X147422500Y-101240000D02*
X147422500Y-107210000D01*
X147132500Y-100950000D02*
X147132500Y-102200000D01*
X155032500Y-101250000D02*
X153232500Y-101250000D01*
X153232500Y-102000000D02*
X155032500Y-102000000D01*
X150732500Y-102000000D02*
X151732500Y-102000000D01*
X150732500Y-101250000D02*
X150732500Y-102000000D01*
X151732500Y-101250000D02*
X150732500Y-101250000D01*
X148182500Y-103500000D02*
X148182500Y-106450000D01*
X154282500Y-106450000D02*
X151232500Y-106450000D01*
X154282500Y-103500000D02*
X154282500Y-106450000D01*
X155032500Y-103500000D02*
X154282500Y-103500000D01*
%TO.C,J6*%
X140342500Y-102000000D02*
X140342500Y-101250000D01*
X146152500Y-107210000D02*
X146152500Y-101240000D01*
X144342500Y-101250000D02*
X144342500Y-102000000D01*
X139292500Y-106450000D02*
X142342500Y-106450000D01*
X146152500Y-101240000D02*
X138532500Y-101240000D01*
X140342500Y-101250000D02*
X138542500Y-101250000D01*
X146142500Y-102000000D02*
X146142500Y-101250000D01*
X139492500Y-100950000D02*
X138242500Y-100950000D01*
X138542500Y-102000000D02*
X140342500Y-102000000D01*
X138542500Y-103500000D02*
X139292500Y-103500000D01*
X142842500Y-102000000D02*
X142842500Y-101250000D01*
X138532500Y-107210000D02*
X146152500Y-107210000D01*
X138542500Y-101250000D02*
X138542500Y-102000000D01*
X138532500Y-101240000D02*
X138532500Y-107210000D01*
X138242500Y-100950000D02*
X138242500Y-102200000D01*
X146142500Y-101250000D02*
X144342500Y-101250000D01*
X144342500Y-102000000D02*
X146142500Y-102000000D01*
X141842500Y-102000000D02*
X142842500Y-102000000D01*
X141842500Y-101250000D02*
X141842500Y-102000000D01*
X142842500Y-101250000D02*
X141842500Y-101250000D01*
X139292500Y-103500000D02*
X139292500Y-106450000D01*
X145392500Y-106450000D02*
X142342500Y-106450000D01*
X145392500Y-103500000D02*
X145392500Y-106450000D01*
X146142500Y-103500000D02*
X145392500Y-103500000D01*
%TO.C,J5*%
X131492500Y-102000000D02*
X131492500Y-101250000D01*
X137302500Y-107210000D02*
X137302500Y-101240000D01*
X135492500Y-101250000D02*
X135492500Y-102000000D01*
X130442500Y-106450000D02*
X133492500Y-106450000D01*
X137302500Y-101240000D02*
X129682500Y-101240000D01*
X131492500Y-101250000D02*
X129692500Y-101250000D01*
X137292500Y-102000000D02*
X137292500Y-101250000D01*
X130642500Y-100950000D02*
X129392500Y-100950000D01*
X129692500Y-102000000D02*
X131492500Y-102000000D01*
X129692500Y-103500000D02*
X130442500Y-103500000D01*
X133992500Y-102000000D02*
X133992500Y-101250000D01*
X129682500Y-107210000D02*
X137302500Y-107210000D01*
X129692500Y-101250000D02*
X129692500Y-102000000D01*
X129682500Y-101240000D02*
X129682500Y-107210000D01*
X129392500Y-100950000D02*
X129392500Y-102200000D01*
X137292500Y-101250000D02*
X135492500Y-101250000D01*
X135492500Y-102000000D02*
X137292500Y-102000000D01*
X132992500Y-102000000D02*
X133992500Y-102000000D01*
X132992500Y-101250000D02*
X132992500Y-102000000D01*
X133992500Y-101250000D02*
X132992500Y-101250000D01*
X130442500Y-103500000D02*
X130442500Y-106450000D01*
X136542500Y-106450000D02*
X133492500Y-106450000D01*
X136542500Y-103500000D02*
X136542500Y-106450000D01*
X137292500Y-103500000D02*
X136542500Y-103500000D01*
%TO.C,J4*%
X122562500Y-102000000D02*
X122562500Y-101250000D01*
X128372500Y-107210000D02*
X128372500Y-101240000D01*
X126562500Y-101250000D02*
X126562500Y-102000000D01*
X121512500Y-106450000D02*
X124562500Y-106450000D01*
X128372500Y-101240000D02*
X120752500Y-101240000D01*
X122562500Y-101250000D02*
X120762500Y-101250000D01*
X128362500Y-102000000D02*
X128362500Y-101250000D01*
X121712500Y-100950000D02*
X120462500Y-100950000D01*
X120762500Y-102000000D02*
X122562500Y-102000000D01*
X120762500Y-103500000D02*
X121512500Y-103500000D01*
X125062500Y-102000000D02*
X125062500Y-101250000D01*
X120752500Y-107210000D02*
X128372500Y-107210000D01*
X120762500Y-101250000D02*
X120762500Y-102000000D01*
X120752500Y-101240000D02*
X120752500Y-107210000D01*
X120462500Y-100950000D02*
X120462500Y-102200000D01*
X128362500Y-101250000D02*
X126562500Y-101250000D01*
X126562500Y-102000000D02*
X128362500Y-102000000D01*
X124062500Y-102000000D02*
X125062500Y-102000000D01*
X124062500Y-101250000D02*
X124062500Y-102000000D01*
X125062500Y-101250000D02*
X124062500Y-101250000D01*
X121512500Y-103500000D02*
X121512500Y-106450000D01*
X127612500Y-106450000D02*
X124562500Y-106450000D01*
X127612500Y-103500000D02*
X127612500Y-106450000D01*
X128362500Y-103500000D02*
X127612500Y-103500000D01*
%TO.C,J3*%
X113672500Y-102000000D02*
X113672500Y-101250000D01*
X119482500Y-107210000D02*
X119482500Y-101240000D01*
X117672500Y-101250000D02*
X117672500Y-102000000D01*
X112622500Y-106450000D02*
X115672500Y-106450000D01*
X119482500Y-101240000D02*
X111862500Y-101240000D01*
X113672500Y-101250000D02*
X111872500Y-101250000D01*
X119472500Y-102000000D02*
X119472500Y-101250000D01*
X112822500Y-100950000D02*
X111572500Y-100950000D01*
X111872500Y-102000000D02*
X113672500Y-102000000D01*
X111872500Y-103500000D02*
X112622500Y-103500000D01*
X116172500Y-102000000D02*
X116172500Y-101250000D01*
X111862500Y-107210000D02*
X119482500Y-107210000D01*
X111872500Y-101250000D02*
X111872500Y-102000000D01*
X111862500Y-101240000D02*
X111862500Y-107210000D01*
X111572500Y-100950000D02*
X111572500Y-102200000D01*
X119472500Y-101250000D02*
X117672500Y-101250000D01*
X117672500Y-102000000D02*
X119472500Y-102000000D01*
X115172500Y-102000000D02*
X116172500Y-102000000D01*
X115172500Y-101250000D02*
X115172500Y-102000000D01*
X116172500Y-101250000D02*
X115172500Y-101250000D01*
X112622500Y-103500000D02*
X112622500Y-106450000D01*
X118722500Y-106450000D02*
X115672500Y-106450000D01*
X118722500Y-103500000D02*
X118722500Y-106450000D01*
X119472500Y-103500000D02*
X118722500Y-103500000D01*
%TO.C,C1*%
X117120248Y-98139000D02*
X117642752Y-98139000D01*
X117120248Y-99609000D02*
X117642752Y-99609000D01*
%TO.C,J2*%
X125000000Y-90000000D02*
X125000000Y-92000000D01*
X111590000Y-85890000D02*
X114650000Y-85890000D01*
X124810000Y-96110000D02*
X118750000Y-96110000D01*
X114650000Y-96110000D02*
X111590000Y-96110000D01*
X124810000Y-93300000D02*
X124810000Y-96110000D01*
X124810000Y-85890000D02*
X124810000Y-88700000D01*
X118750000Y-85890000D02*
X124810000Y-85890000D01*
X111590000Y-96110000D02*
X111590000Y-85890000D01*
%TO.C,C2*%
X125988748Y-99609000D02*
X126511252Y-99609000D01*
X125988748Y-98139000D02*
X126511252Y-98139000D01*
%TO.C,G\u002A\u002A\u002A*%
G36*
X126504409Y-92988400D02*
G01*
X126504788Y-92952080D01*
X126505659Y-92925180D01*
X126507216Y-92905542D01*
X126509652Y-92891009D01*
X126513163Y-92879426D01*
X126517943Y-92868634D01*
X126519775Y-92864991D01*
X126540988Y-92835899D01*
X126562692Y-92820619D01*
X126566298Y-92818824D01*
X126570233Y-92817187D01*
X126575120Y-92815702D01*
X126581580Y-92814362D01*
X126590238Y-92813158D01*
X126601714Y-92812083D01*
X126616631Y-92811131D01*
X126635613Y-92810293D01*
X126659281Y-92809563D01*
X126688258Y-92808932D01*
X126723167Y-92808395D01*
X126764629Y-92807942D01*
X126813268Y-92807568D01*
X126869705Y-92807264D01*
X126934564Y-92807023D01*
X127008467Y-92806838D01*
X127092036Y-92806701D01*
X127185894Y-92806606D01*
X127290663Y-92806544D01*
X127406965Y-92806509D01*
X127535424Y-92806493D01*
X127676662Y-92806488D01*
X127757502Y-92806488D01*
X127905820Y-92806489D01*
X128041026Y-92806499D01*
X128163739Y-92806524D01*
X128274581Y-92806572D01*
X128374172Y-92806650D01*
X128463132Y-92806764D01*
X128542082Y-92806924D01*
X128611643Y-92807135D01*
X128672436Y-92807405D01*
X128725080Y-92807741D01*
X128770197Y-92808151D01*
X128808406Y-92808642D01*
X128840330Y-92809222D01*
X128866587Y-92809896D01*
X128887800Y-92810674D01*
X128904588Y-92811561D01*
X128917571Y-92812566D01*
X128927372Y-92813695D01*
X128934609Y-92814956D01*
X128939905Y-92816356D01*
X128943879Y-92817903D01*
X128947152Y-92819604D01*
X128948635Y-92820464D01*
X128968558Y-92836349D01*
X128985239Y-92856333D01*
X128986402Y-92858231D01*
X128988177Y-92861389D01*
X128989796Y-92864953D01*
X128991265Y-92869546D01*
X128992591Y-92875787D01*
X128993782Y-92884297D01*
X128994844Y-92895696D01*
X128995786Y-92910606D01*
X128996615Y-92929647D01*
X128997337Y-92953439D01*
X128997961Y-92982603D01*
X128998493Y-93017759D01*
X128998940Y-93059529D01*
X128999311Y-93108533D01*
X128999611Y-93165391D01*
X128999849Y-93230723D01*
X129000032Y-93305152D01*
X129000167Y-93389296D01*
X129000261Y-93483778D01*
X129000322Y-93589216D01*
X129000357Y-93706233D01*
X129000373Y-93835448D01*
X129000378Y-93977482D01*
X129000378Y-94049364D01*
X129000377Y-94197678D01*
X129000368Y-94332881D01*
X129000343Y-94455595D01*
X129000297Y-94566443D01*
X129000220Y-94666048D01*
X129000107Y-94755032D01*
X128999948Y-94834017D01*
X128999738Y-94903626D01*
X128999469Y-94964481D01*
X128999133Y-95017206D01*
X128998723Y-95062421D01*
X128998232Y-95100751D01*
X128997652Y-95132817D01*
X128996976Y-95159241D01*
X128996196Y-95180647D01*
X128995306Y-95197657D01*
X128994298Y-95210893D01*
X128993164Y-95220977D01*
X128991897Y-95228533D01*
X128990490Y-95234182D01*
X128988935Y-95238548D01*
X128987225Y-95242252D01*
X128986247Y-95244174D01*
X128965239Y-95271417D01*
X128941875Y-95287091D01*
X128930881Y-95292319D01*
X128919786Y-95296215D01*
X128906433Y-95298975D01*
X128888666Y-95300792D01*
X128864327Y-95301861D01*
X128831260Y-95302377D01*
X128787308Y-95302535D01*
X128770570Y-95302541D01*
X128629506Y-95302541D01*
X128375498Y-95048463D01*
X128121490Y-94794386D01*
X127616743Y-95299099D01*
X127111995Y-95803811D01*
X126950072Y-95803811D01*
X126904238Y-95803625D01*
X126863050Y-95803102D01*
X126828472Y-95802296D01*
X126802470Y-95801262D01*
X126787008Y-95800053D01*
X126783572Y-95799234D01*
X126782281Y-95791352D01*
X126781132Y-95771702D01*
X126780177Y-95742248D01*
X126779471Y-95704955D01*
X126779068Y-95661788D01*
X126778994Y-95632676D01*
X126778994Y-95470696D01*
X126557542Y-95249383D01*
X126336090Y-95028069D01*
X126006488Y-95024439D01*
X126004643Y-94859783D01*
X126003296Y-94739470D01*
X126562797Y-94739470D01*
X127067396Y-94739470D01*
X127067396Y-95243860D01*
X127234575Y-95079215D01*
X127401753Y-94914571D01*
X127402809Y-94658786D01*
X127403866Y-94403000D01*
X126899056Y-94403000D01*
X126730927Y-94571235D01*
X126562797Y-94739470D01*
X126003296Y-94739470D01*
X126002800Y-94695127D01*
X126507639Y-94190251D01*
X126645083Y-94052798D01*
X127242704Y-94052798D01*
X127490146Y-94052798D01*
X127560336Y-94052928D01*
X127617728Y-94053339D01*
X127663255Y-94054061D01*
X127697849Y-94055123D01*
X127722442Y-94056557D01*
X127737969Y-94058391D01*
X127745361Y-94060657D01*
X127745828Y-94061038D01*
X127748161Y-94067285D01*
X127750059Y-94081525D01*
X127751551Y-94104692D01*
X127752667Y-94137718D01*
X127753439Y-94181536D01*
X127753895Y-94237080D01*
X127754065Y-94305281D01*
X127754068Y-94316720D01*
X127754068Y-94564162D01*
X127838285Y-94480148D01*
X127922501Y-94396134D01*
X128090538Y-94396134D01*
X128090538Y-93716328D01*
X127410732Y-93716328D01*
X127410732Y-93884365D01*
X127326718Y-93968581D01*
X127242704Y-94052798D01*
X126645083Y-94052798D01*
X127012480Y-93685376D01*
X126758403Y-93431368D01*
X126586983Y-93259995D01*
X127074263Y-93259995D01*
X127187777Y-93372919D01*
X127809108Y-93374672D01*
X128430440Y-93376426D01*
X128432194Y-93997757D01*
X128433947Y-94619089D01*
X128546871Y-94732603D01*
X128660653Y-94732603D01*
X128658848Y-93974332D01*
X128658563Y-93856077D01*
X128658293Y-93750781D01*
X128658023Y-93657671D01*
X128657737Y-93575974D01*
X128657418Y-93504917D01*
X128657051Y-93443725D01*
X128656619Y-93391625D01*
X128656108Y-93347844D01*
X128655500Y-93311609D01*
X128654781Y-93282144D01*
X128653934Y-93258678D01*
X128652944Y-93240436D01*
X128651793Y-93226646D01*
X128650468Y-93216532D01*
X128648951Y-93209323D01*
X128647227Y-93204244D01*
X128645280Y-93200521D01*
X128643095Y-93197382D01*
X128642884Y-93197101D01*
X128626529Y-93178767D01*
X128609765Y-93163982D01*
X128606641Y-93161773D01*
X128603003Y-93159805D01*
X128598079Y-93158062D01*
X128591094Y-93156527D01*
X128581275Y-93155185D01*
X128567849Y-93154020D01*
X128550042Y-93153015D01*
X128527081Y-93152156D01*
X128498191Y-93151426D01*
X128462600Y-93150809D01*
X128419534Y-93150290D01*
X128368219Y-93149852D01*
X128307882Y-93149479D01*
X128237749Y-93149156D01*
X128157047Y-93148868D01*
X128065002Y-93148597D01*
X127960841Y-93148328D01*
X127843790Y-93148045D01*
X127832534Y-93148018D01*
X127074263Y-93146213D01*
X127074263Y-93259995D01*
X126586983Y-93259995D01*
X126504325Y-93177360D01*
X126504325Y-93036296D01*
X126504409Y-92988400D01*
G37*
%TO.C,C4*%
X152637248Y-99609000D02*
X153159752Y-99609000D01*
X152637248Y-98139000D02*
X153159752Y-98139000D01*
%TO.C,J1*%
X137050000Y-91810000D02*
X137050000Y-84190000D01*
X126890000Y-85460000D02*
X137050000Y-85460000D01*
X137050000Y-84190000D02*
X126890000Y-84190000D01*
X126890000Y-84190000D02*
X126890000Y-91810000D01*
X126890000Y-91810000D02*
X137050000Y-91810000D01*
D10*
%TO.C,REF\u002A\u002A*%
X144300000Y-87587473D02*
X145200000Y-87587473D01*
X146300000Y-87587473D02*
X148300000Y-87587473D01*
X146975000Y-86837473D02*
G75*
G03*
X147050000Y-88262473I-675000J-750000D01*
G01*
D14*
X146475000Y-87587473D02*
G75*
G03*
X146475000Y-87587473I-175000J0D01*
G01*
D10*
X150225000Y-87587473D02*
G75*
G03*
X150225000Y-87587473I-925000J0D01*
G01*
X144225000Y-87587473D02*
G75*
G03*
X144225000Y-87587473I-925000J0D01*
G01*
D13*
%TO.C,C3*%
X134857248Y-99609000D02*
X135379752Y-99609000D01*
X134857248Y-98139000D02*
X135379752Y-98139000D01*
%TO.C,C5*%
X143747248Y-99609000D02*
X144269752Y-99609000D01*
X143747248Y-98139000D02*
X144269752Y-98139000D01*
%TD*%
%LPC*%
D15*
%TO.C,J7*%
X152482500Y-103700000D03*
D16*
X149982500Y-103700000D03*
%TD*%
D15*
%TO.C,J6*%
X143592500Y-103700000D03*
D16*
X141092500Y-103700000D03*
%TD*%
D15*
%TO.C,J5*%
X134742500Y-103700000D03*
D16*
X132242500Y-103700000D03*
%TD*%
D15*
%TO.C,J4*%
X125812500Y-103700000D03*
D16*
X123312500Y-103700000D03*
%TD*%
D15*
%TO.C,J3*%
X116922500Y-103700000D03*
D16*
X114422500Y-103700000D03*
%TD*%
D17*
%TO.C,C1*%
X116344000Y-98874000D03*
X118419000Y-98874000D03*
%TD*%
D18*
%TO.C,J2*%
X114700000Y-91000000D03*
D19*
X123700000Y-91000000D03*
D20*
X117700000Y-91000000D03*
D21*
X116700000Y-95500000D03*
X116700000Y-86500000D03*
%TD*%
D17*
%TO.C,C2*%
X125212500Y-98874000D03*
X127287500Y-98874000D03*
%TD*%
%TO.C,C4*%
X151861000Y-98874000D03*
X153936000Y-98874000D03*
%TD*%
D22*
%TO.C,J1*%
X134510000Y-88000000D03*
D23*
X129430000Y-88000000D03*
%TD*%
D17*
%TO.C,C3*%
X134081000Y-98874000D03*
X136156000Y-98874000D03*
%TD*%
%TO.C,C5*%
X142971000Y-98874000D03*
X145046000Y-98874000D03*
%TD*%
M02*
