M48
; DRILL file {KiCad (6.0.8)} date Tue Jan 24 15:15:16 2023
; FORMAT={-:-/ absolute / inch / decimal}
; #@! TF.CreationDate,2023-01-24T15:15:16-07:00
; #@! TF.GenerationSoftware,Kicad,Pcbnew,(6.0.8)
; #@! TF.FileFunction,Plated,1,2,PTH
FMAT,2
INCH
; #@! TA.AperFunction,Plated,PTH,ComponentDrill
T1C0.0394
; #@! TA.AperFunction,Plated,PTH,ComponentDrill
T2C0.0598
%
G90
G05
T1
X4.5048Y-4.0827
X4.6032Y-4.0827
X4.8548Y-4.0827
X4.9532Y-4.0827
X5.2064Y-4.0827
X5.3048Y-4.0827
X5.5548Y-4.0827
X5.6532Y-4.0827
X5.9048Y-4.0827
X6.0032Y-4.0827
T2
X5.0957Y-3.4646
X5.2957Y-3.4646
T1
G00X4.624Y-3.4055
M15
G01X4.565Y-3.4055
M16
G05
G00X4.624Y-3.7598
M15
G01X4.565Y-3.7598
M16
G05
G00X4.6339Y-3.5571
M15
G01X4.6339Y-3.6083
M16
G05
G00X4.8701Y-3.5433
M15
G01X4.8701Y-3.622
M16
G05
T0
M30
