%TF.GenerationSoftware,KiCad,Pcbnew,(6.0.8)*%
%TF.CreationDate,2023-01-30T22:30:10-07:00*%
%TF.ProjectId,Power,506f7765-722e-46b6-9963-61645f706362,rev?*%
%TF.SameCoordinates,Original*%
%TF.FileFunction,Drillmap*%
%TF.FilePolarity,Positive*%
%FSLAX45Y45*%
G04 Gerber Fmt 4.5, Leading zero omitted, Abs format (unit mm)*
G04 Created by KiCad (PCBNEW (6.0.8)) date 2023-01-30 22:30:10*
%MOMM*%
%LPD*%
G01*
G04 APERTURE LIST*
%ADD10C,0.100000*%
%ADD11C,0.200000*%
%ADD12C,0.152000*%
G04 APERTURE END LIST*
D10*
X11150000Y-10700000D02*
G75*
G03*
X11350000Y-10900000I200000J0D01*
G01*
X15350000Y-8400000D02*
X11350000Y-8400000D01*
X15300000Y-10900000D02*
G75*
G03*
X15550000Y-10650000I0J250000D01*
G01*
X15550000Y-10650000D02*
X15550000Y-8600000D01*
X11150000Y-8600000D02*
X11150000Y-10700000D01*
X15550000Y-8600000D02*
G75*
G03*
X15350000Y-8400000I-200000J0D01*
G01*
X11350000Y-10900000D02*
X15300000Y-10900000D01*
X11350000Y-8400000D02*
G75*
G03*
X11150000Y-8600000I0J-200000D01*
G01*
D11*
D10*
X11392250Y-10320000D02*
X11492250Y-10420000D01*
X11492250Y-10320000D02*
X11392250Y-10420000D01*
X11620000Y-8600000D02*
X11720000Y-8700000D01*
X11720000Y-8600000D02*
X11620000Y-8700000D01*
D11*
X11745000Y-8600000D02*
X11595000Y-8600000D01*
X11745000Y-8700000D02*
X11595000Y-8700000D01*
X11595000Y-8600000D02*
G75*
G03*
X11595000Y-8700000I0J-50000D01*
G01*
X11745000Y-8700000D02*
G75*
G03*
X11745000Y-8600000I0J50000D01*
G01*
D10*
X11620000Y-9500000D02*
X11720000Y-9600000D01*
X11720000Y-9500000D02*
X11620000Y-9600000D01*
D11*
X11745000Y-9500000D02*
X11595000Y-9500000D01*
X11745000Y-9600000D02*
X11595000Y-9600000D01*
X11595000Y-9500000D02*
G75*
G03*
X11595000Y-9600000I0J-50000D01*
G01*
X11745000Y-9600000D02*
G75*
G03*
X11745000Y-9500000I0J50000D01*
G01*
D10*
X11642250Y-10320000D02*
X11742250Y-10420000D01*
X11742250Y-10320000D02*
X11642250Y-10420000D01*
X11720000Y-9050000D02*
X11820000Y-9150000D01*
X11820000Y-9050000D02*
X11720000Y-9150000D01*
D11*
X11720000Y-9035000D02*
X11720000Y-9165000D01*
X11820000Y-9035000D02*
X11820000Y-9165000D01*
X11720000Y-9165000D02*
G75*
G03*
X11820000Y-9165000I50000J0D01*
G01*
X11820000Y-9035000D02*
G75*
G03*
X11720000Y-9035000I-50000J0D01*
G01*
D10*
X12281250Y-10320000D02*
X12381250Y-10420000D01*
X12381250Y-10320000D02*
X12281250Y-10420000D01*
X12320000Y-9050000D02*
X12420000Y-9150000D01*
X12420000Y-9050000D02*
X12320000Y-9150000D01*
D11*
X12320000Y-9000000D02*
X12320000Y-9200000D01*
X12420000Y-9000000D02*
X12420000Y-9200000D01*
X12320000Y-9200000D02*
G75*
G03*
X12420000Y-9200000I50000J0D01*
G01*
X12420000Y-9000000D02*
G75*
G03*
X12320000Y-9000000I-50000J0D01*
G01*
D10*
X12531250Y-10320000D02*
X12631250Y-10420000D01*
X12631250Y-10320000D02*
X12531250Y-10420000D01*
X13174250Y-10320000D02*
X13274250Y-10420000D01*
X13274250Y-10320000D02*
X13174250Y-10420000D01*
X13424250Y-10320000D02*
X13524250Y-10420000D01*
X13524250Y-10320000D02*
X13424250Y-10420000D01*
X14059250Y-10320000D02*
X14159250Y-10420000D01*
X14159250Y-10320000D02*
X14059250Y-10420000D01*
X14309250Y-10320000D02*
X14409250Y-10420000D01*
X14409250Y-10320000D02*
X14309250Y-10420000D01*
X14948250Y-10320000D02*
X15048250Y-10420000D01*
X15048250Y-10320000D02*
X14948250Y-10420000D01*
X15198250Y-10320000D02*
X15298250Y-10420000D01*
X15298250Y-10320000D02*
X15198250Y-10420000D01*
D12*
X13019000Y-8800000D02*
G75*
G03*
X13019000Y-8800000I-76000J0D01*
G01*
X13527000Y-8800000D02*
G75*
G03*
X13527000Y-8800000I-76000J0D01*
G01*
D11*
X11402619Y-11215476D02*
X11402619Y-11015476D01*
X11450238Y-11015476D01*
X11478809Y-11025000D01*
X11497857Y-11044048D01*
X11507381Y-11063095D01*
X11516905Y-11101190D01*
X11516905Y-11129762D01*
X11507381Y-11167857D01*
X11497857Y-11186905D01*
X11478809Y-11205952D01*
X11450238Y-11215476D01*
X11402619Y-11215476D01*
X11602619Y-11215476D02*
X11602619Y-11082143D01*
X11602619Y-11120238D02*
X11612143Y-11101190D01*
X11621667Y-11091667D01*
X11640714Y-11082143D01*
X11659762Y-11082143D01*
X11726428Y-11215476D02*
X11726428Y-11082143D01*
X11726428Y-11015476D02*
X11716905Y-11025000D01*
X11726428Y-11034524D01*
X11735952Y-11025000D01*
X11726428Y-11015476D01*
X11726428Y-11034524D01*
X11850238Y-11215476D02*
X11831190Y-11205952D01*
X11821667Y-11186905D01*
X11821667Y-11015476D01*
X11955000Y-11215476D02*
X11935952Y-11205952D01*
X11926428Y-11186905D01*
X11926428Y-11015476D01*
X12183571Y-11215476D02*
X12183571Y-11015476D01*
X12250238Y-11158333D01*
X12316905Y-11015476D01*
X12316905Y-11215476D01*
X12497857Y-11215476D02*
X12497857Y-11110714D01*
X12488333Y-11091667D01*
X12469286Y-11082143D01*
X12431190Y-11082143D01*
X12412143Y-11091667D01*
X12497857Y-11205952D02*
X12478809Y-11215476D01*
X12431190Y-11215476D01*
X12412143Y-11205952D01*
X12402619Y-11186905D01*
X12402619Y-11167857D01*
X12412143Y-11148810D01*
X12431190Y-11139286D01*
X12478809Y-11139286D01*
X12497857Y-11129762D01*
X12593095Y-11082143D02*
X12593095Y-11282143D01*
X12593095Y-11091667D02*
X12612143Y-11082143D01*
X12650238Y-11082143D01*
X12669286Y-11091667D01*
X12678809Y-11101190D01*
X12688333Y-11120238D01*
X12688333Y-11177381D01*
X12678809Y-11196428D01*
X12669286Y-11205952D01*
X12650238Y-11215476D01*
X12612143Y-11215476D01*
X12593095Y-11205952D01*
X12774048Y-11196428D02*
X12783571Y-11205952D01*
X12774048Y-11215476D01*
X12764524Y-11205952D01*
X12774048Y-11196428D01*
X12774048Y-11215476D01*
X12774048Y-11091667D02*
X12783571Y-11101190D01*
X12774048Y-11110714D01*
X12764524Y-11101190D01*
X12774048Y-11091667D01*
X12774048Y-11110714D01*
D10*
X11045000Y-11495000D02*
X11145000Y-11595000D01*
X11145000Y-11495000D02*
X11045000Y-11595000D01*
D11*
X11507381Y-11635476D02*
X11393095Y-11635476D01*
X11450238Y-11635476D02*
X11450238Y-11435476D01*
X11431190Y-11464048D01*
X11412143Y-11483095D01*
X11393095Y-11492619D01*
X11593095Y-11616428D02*
X11602619Y-11625952D01*
X11593095Y-11635476D01*
X11583571Y-11625952D01*
X11593095Y-11616428D01*
X11593095Y-11635476D01*
X11726428Y-11435476D02*
X11745476Y-11435476D01*
X11764524Y-11445000D01*
X11774048Y-11454524D01*
X11783571Y-11473571D01*
X11793095Y-11511667D01*
X11793095Y-11559286D01*
X11783571Y-11597381D01*
X11774048Y-11616428D01*
X11764524Y-11625952D01*
X11745476Y-11635476D01*
X11726428Y-11635476D01*
X11707381Y-11625952D01*
X11697857Y-11616428D01*
X11688333Y-11597381D01*
X11678809Y-11559286D01*
X11678809Y-11511667D01*
X11688333Y-11473571D01*
X11697857Y-11454524D01*
X11707381Y-11445000D01*
X11726428Y-11435476D01*
X11916905Y-11435476D02*
X11935952Y-11435476D01*
X11955000Y-11445000D01*
X11964524Y-11454524D01*
X11974048Y-11473571D01*
X11983571Y-11511667D01*
X11983571Y-11559286D01*
X11974048Y-11597381D01*
X11964524Y-11616428D01*
X11955000Y-11625952D01*
X11935952Y-11635476D01*
X11916905Y-11635476D01*
X11897857Y-11625952D01*
X11888333Y-11616428D01*
X11878809Y-11597381D01*
X11869286Y-11559286D01*
X11869286Y-11511667D01*
X11878809Y-11473571D01*
X11888333Y-11454524D01*
X11897857Y-11445000D01*
X11916905Y-11435476D01*
X12107381Y-11435476D02*
X12126428Y-11435476D01*
X12145476Y-11445000D01*
X12155000Y-11454524D01*
X12164524Y-11473571D01*
X12174048Y-11511667D01*
X12174048Y-11559286D01*
X12164524Y-11597381D01*
X12155000Y-11616428D01*
X12145476Y-11625952D01*
X12126428Y-11635476D01*
X12107381Y-11635476D01*
X12088333Y-11625952D01*
X12078809Y-11616428D01*
X12069286Y-11597381D01*
X12059762Y-11559286D01*
X12059762Y-11511667D01*
X12069286Y-11473571D01*
X12078809Y-11454524D01*
X12088333Y-11445000D01*
X12107381Y-11435476D01*
X12259762Y-11635476D02*
X12259762Y-11502143D01*
X12259762Y-11521190D02*
X12269286Y-11511667D01*
X12288333Y-11502143D01*
X12316905Y-11502143D01*
X12335952Y-11511667D01*
X12345476Y-11530714D01*
X12345476Y-11635476D01*
X12345476Y-11530714D02*
X12355000Y-11511667D01*
X12374048Y-11502143D01*
X12402619Y-11502143D01*
X12421667Y-11511667D01*
X12431190Y-11530714D01*
X12431190Y-11635476D01*
X12526428Y-11635476D02*
X12526428Y-11502143D01*
X12526428Y-11521190D02*
X12535952Y-11511667D01*
X12555000Y-11502143D01*
X12583571Y-11502143D01*
X12602619Y-11511667D01*
X12612143Y-11530714D01*
X12612143Y-11635476D01*
X12612143Y-11530714D02*
X12621667Y-11511667D01*
X12640714Y-11502143D01*
X12669286Y-11502143D01*
X12688333Y-11511667D01*
X12697857Y-11530714D01*
X12697857Y-11635476D01*
X13088333Y-11425952D02*
X12916905Y-11683095D01*
X13345476Y-11435476D02*
X13364524Y-11435476D01*
X13383571Y-11445000D01*
X13393095Y-11454524D01*
X13402619Y-11473571D01*
X13412143Y-11511667D01*
X13412143Y-11559286D01*
X13402619Y-11597381D01*
X13393095Y-11616428D01*
X13383571Y-11625952D01*
X13364524Y-11635476D01*
X13345476Y-11635476D01*
X13326428Y-11625952D01*
X13316905Y-11616428D01*
X13307381Y-11597381D01*
X13297857Y-11559286D01*
X13297857Y-11511667D01*
X13307381Y-11473571D01*
X13316905Y-11454524D01*
X13326428Y-11445000D01*
X13345476Y-11435476D01*
X13497857Y-11616428D02*
X13507381Y-11625952D01*
X13497857Y-11635476D01*
X13488333Y-11625952D01*
X13497857Y-11616428D01*
X13497857Y-11635476D01*
X13631190Y-11435476D02*
X13650238Y-11435476D01*
X13669286Y-11445000D01*
X13678809Y-11454524D01*
X13688333Y-11473571D01*
X13697857Y-11511667D01*
X13697857Y-11559286D01*
X13688333Y-11597381D01*
X13678809Y-11616428D01*
X13669286Y-11625952D01*
X13650238Y-11635476D01*
X13631190Y-11635476D01*
X13612143Y-11625952D01*
X13602619Y-11616428D01*
X13593095Y-11597381D01*
X13583571Y-11559286D01*
X13583571Y-11511667D01*
X13593095Y-11473571D01*
X13602619Y-11454524D01*
X13612143Y-11445000D01*
X13631190Y-11435476D01*
X13764524Y-11435476D02*
X13888333Y-11435476D01*
X13821667Y-11511667D01*
X13850238Y-11511667D01*
X13869286Y-11521190D01*
X13878809Y-11530714D01*
X13888333Y-11549762D01*
X13888333Y-11597381D01*
X13878809Y-11616428D01*
X13869286Y-11625952D01*
X13850238Y-11635476D01*
X13793095Y-11635476D01*
X13774048Y-11625952D01*
X13764524Y-11616428D01*
X13983571Y-11635476D02*
X14021667Y-11635476D01*
X14040714Y-11625952D01*
X14050238Y-11616428D01*
X14069286Y-11587857D01*
X14078809Y-11549762D01*
X14078809Y-11473571D01*
X14069286Y-11454524D01*
X14059762Y-11445000D01*
X14040714Y-11435476D01*
X14002619Y-11435476D01*
X13983571Y-11445000D01*
X13974048Y-11454524D01*
X13964524Y-11473571D01*
X13964524Y-11521190D01*
X13974048Y-11540238D01*
X13983571Y-11549762D01*
X14002619Y-11559286D01*
X14040714Y-11559286D01*
X14059762Y-11549762D01*
X14069286Y-11540238D01*
X14078809Y-11521190D01*
X14250238Y-11502143D02*
X14250238Y-11635476D01*
X14202619Y-11425952D02*
X14155000Y-11568809D01*
X14278809Y-11568809D01*
X14345476Y-11435476D02*
X14345476Y-11473571D01*
X14421667Y-11435476D02*
X14421667Y-11473571D01*
X14716905Y-11711667D02*
X14707381Y-11702143D01*
X14688333Y-11673571D01*
X14678809Y-11654524D01*
X14669286Y-11625952D01*
X14659762Y-11578333D01*
X14659762Y-11540238D01*
X14669286Y-11492619D01*
X14678809Y-11464048D01*
X14688333Y-11445000D01*
X14707381Y-11416428D01*
X14716905Y-11406905D01*
X14897857Y-11635476D02*
X14783571Y-11635476D01*
X14840714Y-11635476D02*
X14840714Y-11435476D01*
X14821667Y-11464048D01*
X14802619Y-11483095D01*
X14783571Y-11492619D01*
X15021667Y-11435476D02*
X15040714Y-11435476D01*
X15059762Y-11445000D01*
X15069286Y-11454524D01*
X15078809Y-11473571D01*
X15088333Y-11511667D01*
X15088333Y-11559286D01*
X15078809Y-11597381D01*
X15069286Y-11616428D01*
X15059762Y-11625952D01*
X15040714Y-11635476D01*
X15021667Y-11635476D01*
X15002619Y-11625952D01*
X14993095Y-11616428D01*
X14983571Y-11597381D01*
X14974048Y-11559286D01*
X14974048Y-11511667D01*
X14983571Y-11473571D01*
X14993095Y-11454524D01*
X15002619Y-11445000D01*
X15021667Y-11435476D01*
X15326428Y-11635476D02*
X15326428Y-11435476D01*
X15412143Y-11635476D02*
X15412143Y-11530714D01*
X15402619Y-11511667D01*
X15383571Y-11502143D01*
X15355000Y-11502143D01*
X15335952Y-11511667D01*
X15326428Y-11521190D01*
X15535952Y-11635476D02*
X15516905Y-11625952D01*
X15507381Y-11616428D01*
X15497857Y-11597381D01*
X15497857Y-11540238D01*
X15507381Y-11521190D01*
X15516905Y-11511667D01*
X15535952Y-11502143D01*
X15564524Y-11502143D01*
X15583571Y-11511667D01*
X15593095Y-11521190D01*
X15602619Y-11540238D01*
X15602619Y-11597381D01*
X15593095Y-11616428D01*
X15583571Y-11625952D01*
X15564524Y-11635476D01*
X15535952Y-11635476D01*
X15716905Y-11635476D02*
X15697857Y-11625952D01*
X15688333Y-11606905D01*
X15688333Y-11435476D01*
X15869286Y-11625952D02*
X15850238Y-11635476D01*
X15812143Y-11635476D01*
X15793095Y-11625952D01*
X15783571Y-11606905D01*
X15783571Y-11530714D01*
X15793095Y-11511667D01*
X15812143Y-11502143D01*
X15850238Y-11502143D01*
X15869286Y-11511667D01*
X15878809Y-11530714D01*
X15878809Y-11549762D01*
X15783571Y-11568809D01*
X15955000Y-11625952D02*
X15974048Y-11635476D01*
X16012143Y-11635476D01*
X16031190Y-11625952D01*
X16040714Y-11606905D01*
X16040714Y-11597381D01*
X16031190Y-11578333D01*
X16012143Y-11568809D01*
X15983571Y-11568809D01*
X15964524Y-11559286D01*
X15955000Y-11540238D01*
X15955000Y-11530714D01*
X15964524Y-11511667D01*
X15983571Y-11502143D01*
X16012143Y-11502143D01*
X16031190Y-11511667D01*
X16278809Y-11559286D02*
X16431190Y-11559286D01*
X16355000Y-11635476D02*
X16355000Y-11483095D01*
X16764524Y-11502143D02*
X16764524Y-11635476D01*
X16716905Y-11425952D02*
X16669286Y-11568809D01*
X16793095Y-11568809D01*
X17012143Y-11625952D02*
X17031190Y-11635476D01*
X17069286Y-11635476D01*
X17088333Y-11625952D01*
X17097857Y-11606905D01*
X17097857Y-11597381D01*
X17088333Y-11578333D01*
X17069286Y-11568809D01*
X17040714Y-11568809D01*
X17021667Y-11559286D01*
X17012143Y-11540238D01*
X17012143Y-11530714D01*
X17021667Y-11511667D01*
X17040714Y-11502143D01*
X17069286Y-11502143D01*
X17088333Y-11511667D01*
X17212143Y-11635476D02*
X17193095Y-11625952D01*
X17183571Y-11606905D01*
X17183571Y-11435476D01*
X17316905Y-11635476D02*
X17297857Y-11625952D01*
X17288333Y-11616428D01*
X17278810Y-11597381D01*
X17278810Y-11540238D01*
X17288333Y-11521190D01*
X17297857Y-11511667D01*
X17316905Y-11502143D01*
X17345476Y-11502143D01*
X17364524Y-11511667D01*
X17374048Y-11521190D01*
X17383571Y-11540238D01*
X17383571Y-11597381D01*
X17374048Y-11616428D01*
X17364524Y-11625952D01*
X17345476Y-11635476D01*
X17316905Y-11635476D01*
X17440714Y-11502143D02*
X17516905Y-11502143D01*
X17469286Y-11435476D02*
X17469286Y-11606905D01*
X17478810Y-11625952D01*
X17497857Y-11635476D01*
X17516905Y-11635476D01*
X17574048Y-11625952D02*
X17593095Y-11635476D01*
X17631190Y-11635476D01*
X17650238Y-11625952D01*
X17659762Y-11606905D01*
X17659762Y-11597381D01*
X17650238Y-11578333D01*
X17631190Y-11568809D01*
X17602619Y-11568809D01*
X17583571Y-11559286D01*
X17574048Y-11540238D01*
X17574048Y-11530714D01*
X17583571Y-11511667D01*
X17602619Y-11502143D01*
X17631190Y-11502143D01*
X17650238Y-11511667D01*
X17726429Y-11711667D02*
X17735952Y-11702143D01*
X17755000Y-11673571D01*
X17764524Y-11654524D01*
X17774048Y-11625952D01*
X17783571Y-11578333D01*
X17783571Y-11540238D01*
X17774048Y-11492619D01*
X17764524Y-11464048D01*
X17755000Y-11445000D01*
X17735952Y-11416428D01*
X17726429Y-11406905D01*
D12*
X11145000Y-11809000D02*
G75*
G03*
X11145000Y-11809000I-76000J0D01*
G01*
D11*
X11507381Y-11899476D02*
X11393095Y-11899476D01*
X11450238Y-11899476D02*
X11450238Y-11699476D01*
X11431190Y-11728048D01*
X11412143Y-11747095D01*
X11393095Y-11756619D01*
X11593095Y-11880428D02*
X11602619Y-11889952D01*
X11593095Y-11899476D01*
X11583571Y-11889952D01*
X11593095Y-11880428D01*
X11593095Y-11899476D01*
X11783571Y-11699476D02*
X11688333Y-11699476D01*
X11678809Y-11794714D01*
X11688333Y-11785190D01*
X11707381Y-11775667D01*
X11755000Y-11775667D01*
X11774048Y-11785190D01*
X11783571Y-11794714D01*
X11793095Y-11813762D01*
X11793095Y-11861381D01*
X11783571Y-11880428D01*
X11774048Y-11889952D01*
X11755000Y-11899476D01*
X11707381Y-11899476D01*
X11688333Y-11889952D01*
X11678809Y-11880428D01*
X11869286Y-11718524D02*
X11878809Y-11709000D01*
X11897857Y-11699476D01*
X11945476Y-11699476D01*
X11964524Y-11709000D01*
X11974048Y-11718524D01*
X11983571Y-11737571D01*
X11983571Y-11756619D01*
X11974048Y-11785190D01*
X11859762Y-11899476D01*
X11983571Y-11899476D01*
X12107381Y-11699476D02*
X12126428Y-11699476D01*
X12145476Y-11709000D01*
X12155000Y-11718524D01*
X12164524Y-11737571D01*
X12174048Y-11775667D01*
X12174048Y-11823286D01*
X12164524Y-11861381D01*
X12155000Y-11880428D01*
X12145476Y-11889952D01*
X12126428Y-11899476D01*
X12107381Y-11899476D01*
X12088333Y-11889952D01*
X12078809Y-11880428D01*
X12069286Y-11861381D01*
X12059762Y-11823286D01*
X12059762Y-11775667D01*
X12069286Y-11737571D01*
X12078809Y-11718524D01*
X12088333Y-11709000D01*
X12107381Y-11699476D01*
X12259762Y-11899476D02*
X12259762Y-11766143D01*
X12259762Y-11785190D02*
X12269286Y-11775667D01*
X12288333Y-11766143D01*
X12316905Y-11766143D01*
X12335952Y-11775667D01*
X12345476Y-11794714D01*
X12345476Y-11899476D01*
X12345476Y-11794714D02*
X12355000Y-11775667D01*
X12374048Y-11766143D01*
X12402619Y-11766143D01*
X12421667Y-11775667D01*
X12431190Y-11794714D01*
X12431190Y-11899476D01*
X12526428Y-11899476D02*
X12526428Y-11766143D01*
X12526428Y-11785190D02*
X12535952Y-11775667D01*
X12555000Y-11766143D01*
X12583571Y-11766143D01*
X12602619Y-11775667D01*
X12612143Y-11794714D01*
X12612143Y-11899476D01*
X12612143Y-11794714D02*
X12621667Y-11775667D01*
X12640714Y-11766143D01*
X12669286Y-11766143D01*
X12688333Y-11775667D01*
X12697857Y-11794714D01*
X12697857Y-11899476D01*
X13088333Y-11689952D02*
X12916905Y-11947095D01*
X13345476Y-11699476D02*
X13364524Y-11699476D01*
X13383571Y-11709000D01*
X13393095Y-11718524D01*
X13402619Y-11737571D01*
X13412143Y-11775667D01*
X13412143Y-11823286D01*
X13402619Y-11861381D01*
X13393095Y-11880428D01*
X13383571Y-11889952D01*
X13364524Y-11899476D01*
X13345476Y-11899476D01*
X13326428Y-11889952D01*
X13316905Y-11880428D01*
X13307381Y-11861381D01*
X13297857Y-11823286D01*
X13297857Y-11775667D01*
X13307381Y-11737571D01*
X13316905Y-11718524D01*
X13326428Y-11709000D01*
X13345476Y-11699476D01*
X13497857Y-11880428D02*
X13507381Y-11889952D01*
X13497857Y-11899476D01*
X13488333Y-11889952D01*
X13497857Y-11880428D01*
X13497857Y-11899476D01*
X13631190Y-11699476D02*
X13650238Y-11699476D01*
X13669286Y-11709000D01*
X13678809Y-11718524D01*
X13688333Y-11737571D01*
X13697857Y-11775667D01*
X13697857Y-11823286D01*
X13688333Y-11861381D01*
X13678809Y-11880428D01*
X13669286Y-11889952D01*
X13650238Y-11899476D01*
X13631190Y-11899476D01*
X13612143Y-11889952D01*
X13602619Y-11880428D01*
X13593095Y-11861381D01*
X13583571Y-11823286D01*
X13583571Y-11775667D01*
X13593095Y-11737571D01*
X13602619Y-11718524D01*
X13612143Y-11709000D01*
X13631190Y-11699476D01*
X13878809Y-11699476D02*
X13783571Y-11699476D01*
X13774048Y-11794714D01*
X13783571Y-11785190D01*
X13802619Y-11775667D01*
X13850238Y-11775667D01*
X13869286Y-11785190D01*
X13878809Y-11794714D01*
X13888333Y-11813762D01*
X13888333Y-11861381D01*
X13878809Y-11880428D01*
X13869286Y-11889952D01*
X13850238Y-11899476D01*
X13802619Y-11899476D01*
X13783571Y-11889952D01*
X13774048Y-11880428D01*
X13983571Y-11899476D02*
X14021667Y-11899476D01*
X14040714Y-11889952D01*
X14050238Y-11880428D01*
X14069286Y-11851857D01*
X14078809Y-11813762D01*
X14078809Y-11737571D01*
X14069286Y-11718524D01*
X14059762Y-11709000D01*
X14040714Y-11699476D01*
X14002619Y-11699476D01*
X13983571Y-11709000D01*
X13974048Y-11718524D01*
X13964524Y-11737571D01*
X13964524Y-11785190D01*
X13974048Y-11804238D01*
X13983571Y-11813762D01*
X14002619Y-11823286D01*
X14040714Y-11823286D01*
X14059762Y-11813762D01*
X14069286Y-11804238D01*
X14078809Y-11785190D01*
X14193095Y-11785190D02*
X14174048Y-11775667D01*
X14164524Y-11766143D01*
X14155000Y-11747095D01*
X14155000Y-11737571D01*
X14164524Y-11718524D01*
X14174048Y-11709000D01*
X14193095Y-11699476D01*
X14231190Y-11699476D01*
X14250238Y-11709000D01*
X14259762Y-11718524D01*
X14269286Y-11737571D01*
X14269286Y-11747095D01*
X14259762Y-11766143D01*
X14250238Y-11775667D01*
X14231190Y-11785190D01*
X14193095Y-11785190D01*
X14174048Y-11794714D01*
X14164524Y-11804238D01*
X14155000Y-11823286D01*
X14155000Y-11861381D01*
X14164524Y-11880428D01*
X14174048Y-11889952D01*
X14193095Y-11899476D01*
X14231190Y-11899476D01*
X14250238Y-11889952D01*
X14259762Y-11880428D01*
X14269286Y-11861381D01*
X14269286Y-11823286D01*
X14259762Y-11804238D01*
X14250238Y-11794714D01*
X14231190Y-11785190D01*
X14345476Y-11699476D02*
X14345476Y-11737571D01*
X14421667Y-11699476D02*
X14421667Y-11737571D01*
X14716905Y-11975667D02*
X14707381Y-11966143D01*
X14688333Y-11937571D01*
X14678809Y-11918524D01*
X14669286Y-11889952D01*
X14659762Y-11842333D01*
X14659762Y-11804238D01*
X14669286Y-11756619D01*
X14678809Y-11728048D01*
X14688333Y-11709000D01*
X14707381Y-11680428D01*
X14716905Y-11670905D01*
X14783571Y-11718524D02*
X14793095Y-11709000D01*
X14812143Y-11699476D01*
X14859762Y-11699476D01*
X14878809Y-11709000D01*
X14888333Y-11718524D01*
X14897857Y-11737571D01*
X14897857Y-11756619D01*
X14888333Y-11785190D01*
X14774048Y-11899476D01*
X14897857Y-11899476D01*
X15135952Y-11899476D02*
X15135952Y-11699476D01*
X15221667Y-11899476D02*
X15221667Y-11794714D01*
X15212143Y-11775667D01*
X15193095Y-11766143D01*
X15164524Y-11766143D01*
X15145476Y-11775667D01*
X15135952Y-11785190D01*
X15345476Y-11899476D02*
X15326428Y-11889952D01*
X15316905Y-11880428D01*
X15307381Y-11861381D01*
X15307381Y-11804238D01*
X15316905Y-11785190D01*
X15326428Y-11775667D01*
X15345476Y-11766143D01*
X15374048Y-11766143D01*
X15393095Y-11775667D01*
X15402619Y-11785190D01*
X15412143Y-11804238D01*
X15412143Y-11861381D01*
X15402619Y-11880428D01*
X15393095Y-11889952D01*
X15374048Y-11899476D01*
X15345476Y-11899476D01*
X15526428Y-11899476D02*
X15507381Y-11889952D01*
X15497857Y-11870905D01*
X15497857Y-11699476D01*
X15678809Y-11889952D02*
X15659762Y-11899476D01*
X15621667Y-11899476D01*
X15602619Y-11889952D01*
X15593095Y-11870905D01*
X15593095Y-11794714D01*
X15602619Y-11775667D01*
X15621667Y-11766143D01*
X15659762Y-11766143D01*
X15678809Y-11775667D01*
X15688333Y-11794714D01*
X15688333Y-11813762D01*
X15593095Y-11832809D01*
X15764524Y-11889952D02*
X15783571Y-11899476D01*
X15821667Y-11899476D01*
X15840714Y-11889952D01*
X15850238Y-11870905D01*
X15850238Y-11861381D01*
X15840714Y-11842333D01*
X15821667Y-11832809D01*
X15793095Y-11832809D01*
X15774048Y-11823286D01*
X15764524Y-11804238D01*
X15764524Y-11794714D01*
X15774048Y-11775667D01*
X15793095Y-11766143D01*
X15821667Y-11766143D01*
X15840714Y-11775667D01*
X15916905Y-11975667D02*
X15926428Y-11966143D01*
X15945476Y-11937571D01*
X15955000Y-11918524D01*
X15964524Y-11889952D01*
X15974048Y-11842333D01*
X15974048Y-11804238D01*
X15964524Y-11756619D01*
X15955000Y-11728048D01*
X15945476Y-11709000D01*
X15926428Y-11680428D01*
X15916905Y-11670905D01*
M02*
