%TF.GenerationSoftware,KiCad,Pcbnew,(6.0.8)*%
%TF.CreationDate,2023-01-24T15:15:15-07:00*%
%TF.ProjectId,Power,506f7765-722e-46b6-9963-61645f706362,rev?*%
%TF.SameCoordinates,Original*%
%TF.FileFunction,Copper,L2,Bot*%
%TF.FilePolarity,Positive*%
%FSLAX46Y46*%
G04 Gerber Fmt 4.6, Leading zero omitted, Abs format (unit mm)*
G04 Created by KiCad (PCBNEW (6.0.8)) date 2023-01-24 15:15:15*
%MOMM*%
%LPD*%
G01*
G04 APERTURE LIST*
G04 Aperture macros list*
%AMRoundRect*
0 Rectangle with rounded corners*
0 $1 Rounding radius*
0 $2 $3 $4 $5 $6 $7 $8 $9 X,Y pos of 4 corners*
0 Add a 4 corners polygon primitive as box body*
4,1,4,$2,$3,$4,$5,$6,$7,$8,$9,$2,$3,0*
0 Add four circle primitives for the rounded corners*
1,1,$1+$1,$2,$3*
1,1,$1+$1,$4,$5*
1,1,$1+$1,$6,$7*
1,1,$1+$1,$8,$9*
0 Add four rect primitives between the rounded corners*
20,1,$1+$1,$2,$3,$4,$5,0*
20,1,$1+$1,$4,$5,$6,$7,0*
20,1,$1+$1,$6,$7,$8,$9,0*
20,1,$1+$1,$8,$9,$2,$3,0*%
G04 Aperture macros list end*
%TA.AperFunction,ComponentPad*%
%ADD10O,1.700000X2.000000*%
%TD*%
%TA.AperFunction,ComponentPad*%
%ADD11RoundRect,0.250000X-0.600000X-0.750000X0.600000X-0.750000X0.600000X0.750000X-0.600000X0.750000X0*%
%TD*%
%TA.AperFunction,ComponentPad*%
%ADD12R,2.000000X4.000000*%
%TD*%
%TA.AperFunction,ComponentPad*%
%ADD13O,2.000000X3.300000*%
%TD*%
%TA.AperFunction,ComponentPad*%
%ADD14O,3.500000X2.000000*%
%TD*%
%TA.AperFunction,ComponentPad*%
%ADD15R,3.000000X3.000000*%
%TD*%
%TA.AperFunction,ComponentPad*%
%ADD16C,3.000000*%
%TD*%
G04 APERTURE END LIST*
D10*
%TO.P,J7,2,Pin_2*%
%TO.N,GND*%
X152482500Y-103700000D03*
D11*
%TO.P,J7,1,Pin_1*%
%TO.N,+5V*%
X149982500Y-103700000D03*
%TD*%
D10*
%TO.P,J6,2,Pin_2*%
%TO.N,GND*%
X143592500Y-103700000D03*
D11*
%TO.P,J6,1,Pin_1*%
%TO.N,+5V*%
X141092500Y-103700000D03*
%TD*%
D10*
%TO.P,J5,2,Pin_2*%
%TO.N,GND*%
X134742500Y-103700000D03*
D11*
%TO.P,J5,1,Pin_1*%
%TO.N,+5V*%
X132242500Y-103700000D03*
%TD*%
D10*
%TO.P,J4,2,Pin_2*%
%TO.N,GND*%
X125812500Y-103700000D03*
D11*
%TO.P,J4,1,Pin_1*%
%TO.N,+5V*%
X123312500Y-103700000D03*
%TD*%
D10*
%TO.P,J3,2,Pin_2*%
%TO.N,GND*%
X116922500Y-103700000D03*
D11*
%TO.P,J3,1,Pin_1*%
%TO.N,+5V*%
X114422500Y-103700000D03*
%TD*%
D12*
%TO.P,J2,1*%
%TO.N,+5V*%
X123700000Y-91000000D03*
D13*
%TO.P,J2,2*%
%TO.N,GND*%
X117700000Y-91000000D03*
D14*
%TO.P,J2,MP*%
X116700000Y-95500000D03*
X116700000Y-86500000D03*
%TD*%
D15*
%TO.P,J1,1,Pin_1*%
%TO.N,+5V*%
X134510000Y-88000000D03*
D16*
%TO.P,J1,2,Pin_2*%
%TO.N,GND*%
X129430000Y-88000000D03*
%TD*%
%TA.AperFunction,Conductor*%
%TO.N,GND*%
G36*
X153470018Y-84510000D02*
G01*
X153484851Y-84512310D01*
X153484855Y-84512310D01*
X153493724Y-84513691D01*
X153508981Y-84511696D01*
X153534302Y-84510953D01*
X153703285Y-84523039D01*
X153721064Y-84525596D01*
X153911392Y-84566999D01*
X153928641Y-84572063D01*
X154111150Y-84640136D01*
X154127502Y-84647604D01*
X154298458Y-84740952D01*
X154313582Y-84750672D01*
X154469514Y-84867402D01*
X154483100Y-84879175D01*
X154620825Y-85016900D01*
X154632598Y-85030486D01*
X154749328Y-85186418D01*
X154759048Y-85201542D01*
X154852396Y-85372498D01*
X154859864Y-85388850D01*
X154927937Y-85571359D01*
X154933001Y-85588607D01*
X154974404Y-85778936D01*
X154976961Y-85796715D01*
X154985779Y-85920000D01*
X154988540Y-85958601D01*
X154987793Y-85976565D01*
X154987692Y-85984845D01*
X154986309Y-85993724D01*
X154987474Y-86002630D01*
X154990436Y-86025283D01*
X154991500Y-86041621D01*
X154991500Y-106450633D01*
X154990000Y-106470018D01*
X154987690Y-106484851D01*
X154987690Y-106484855D01*
X154986309Y-106493724D01*
X154988439Y-106510010D01*
X154989233Y-106534590D01*
X154975002Y-106751701D01*
X154972851Y-106768041D01*
X154934592Y-106960386D01*
X154925252Y-107007340D01*
X154920986Y-107023260D01*
X154842561Y-107254292D01*
X154836254Y-107269519D01*
X154728343Y-107488342D01*
X154720102Y-107502616D01*
X154584553Y-107705478D01*
X154574520Y-107718553D01*
X154413648Y-107901993D01*
X154401993Y-107913648D01*
X154218553Y-108074520D01*
X154205478Y-108084553D01*
X154002616Y-108220102D01*
X153988342Y-108228343D01*
X153769519Y-108336254D01*
X153754292Y-108342561D01*
X153712593Y-108356716D01*
X153523257Y-108420987D01*
X153507343Y-108425251D01*
X153387691Y-108449051D01*
X153268041Y-108472851D01*
X153251701Y-108475002D01*
X153110437Y-108484262D01*
X153041763Y-108488763D01*
X153018650Y-108487733D01*
X153015146Y-108487690D01*
X153006276Y-108486309D01*
X152997374Y-108487473D01*
X152997372Y-108487473D01*
X152982323Y-108489441D01*
X152974714Y-108490436D01*
X152958379Y-108491500D01*
X113549367Y-108491500D01*
X113529982Y-108490000D01*
X113515149Y-108487690D01*
X113515145Y-108487690D01*
X113506276Y-108486309D01*
X113491019Y-108488304D01*
X113465698Y-108489047D01*
X113296715Y-108476961D01*
X113278936Y-108474404D01*
X113088607Y-108433001D01*
X113071359Y-108427937D01*
X112888850Y-108359864D01*
X112872498Y-108352396D01*
X112701542Y-108259048D01*
X112686418Y-108249328D01*
X112530486Y-108132598D01*
X112516900Y-108120825D01*
X112379175Y-107983100D01*
X112367402Y-107969514D01*
X112250672Y-107813582D01*
X112240952Y-107798458D01*
X112147604Y-107627502D01*
X112140136Y-107611150D01*
X112072063Y-107428641D01*
X112066999Y-107411392D01*
X112034525Y-107262114D01*
X112025596Y-107221064D01*
X112023038Y-107203278D01*
X112011719Y-107045012D01*
X112012805Y-107022245D01*
X112012334Y-107022203D01*
X112012770Y-107017345D01*
X112013576Y-107012552D01*
X112013729Y-107000000D01*
X112009773Y-106972376D01*
X112008500Y-106954514D01*
X112008500Y-104500400D01*
X113064000Y-104500400D01*
X113074974Y-104606166D01*
X113130950Y-104773946D01*
X113224022Y-104924348D01*
X113349197Y-105049305D01*
X113355427Y-105053145D01*
X113355428Y-105053146D01*
X113492590Y-105137694D01*
X113499762Y-105142115D01*
X113579505Y-105168564D01*
X113661111Y-105195632D01*
X113661113Y-105195632D01*
X113667639Y-105197797D01*
X113674475Y-105198497D01*
X113674478Y-105198498D01*
X113717531Y-105202909D01*
X113772100Y-105208500D01*
X115072900Y-105208500D01*
X115076146Y-105208163D01*
X115076150Y-105208163D01*
X115171808Y-105198238D01*
X115171812Y-105198237D01*
X115178666Y-105197526D01*
X115185202Y-105195345D01*
X115185204Y-105195345D01*
X115317306Y-105151272D01*
X115346446Y-105141550D01*
X115496848Y-105048478D01*
X115621805Y-104923303D01*
X115711853Y-104777220D01*
X115764624Y-104729727D01*
X115834696Y-104718303D01*
X115899820Y-104746577D01*
X115910282Y-104756364D01*
X116015734Y-104866906D01*
X116023686Y-104873941D01*
X116200025Y-105005141D01*
X116209062Y-105010745D01*
X116326353Y-105070379D01*
X116340213Y-105072969D01*
X116342181Y-105070172D01*
X116342500Y-105068243D01*
X116342500Y-105062927D01*
X117502500Y-105062927D01*
X117506473Y-105076458D01*
X117512070Y-105077263D01*
X117523529Y-105072737D01*
X117533061Y-105068006D01*
X117720962Y-104953984D01*
X117729552Y-104947720D01*
X117895552Y-104803673D01*
X117902972Y-104796042D01*
X118042326Y-104626089D01*
X118048350Y-104617322D01*
X118114906Y-104500400D01*
X121954000Y-104500400D01*
X121964974Y-104606166D01*
X122020950Y-104773946D01*
X122114022Y-104924348D01*
X122239197Y-105049305D01*
X122245427Y-105053145D01*
X122245428Y-105053146D01*
X122382590Y-105137694D01*
X122389762Y-105142115D01*
X122469505Y-105168564D01*
X122551111Y-105195632D01*
X122551113Y-105195632D01*
X122557639Y-105197797D01*
X122564475Y-105198497D01*
X122564478Y-105198498D01*
X122607531Y-105202909D01*
X122662100Y-105208500D01*
X123962900Y-105208500D01*
X123966146Y-105208163D01*
X123966150Y-105208163D01*
X124061808Y-105198238D01*
X124061812Y-105198237D01*
X124068666Y-105197526D01*
X124075202Y-105195345D01*
X124075204Y-105195345D01*
X124207306Y-105151272D01*
X124236446Y-105141550D01*
X124386848Y-105048478D01*
X124511805Y-104923303D01*
X124601853Y-104777220D01*
X124654624Y-104729727D01*
X124724696Y-104718303D01*
X124789820Y-104746577D01*
X124800282Y-104756364D01*
X124905734Y-104866906D01*
X124913686Y-104873941D01*
X125090025Y-105005141D01*
X125099062Y-105010745D01*
X125216353Y-105070379D01*
X125230213Y-105072969D01*
X125232181Y-105070172D01*
X125232500Y-105068243D01*
X125232500Y-105062927D01*
X126392500Y-105062927D01*
X126396473Y-105076458D01*
X126402070Y-105077263D01*
X126413529Y-105072737D01*
X126423061Y-105068006D01*
X126610962Y-104953984D01*
X126619552Y-104947720D01*
X126785552Y-104803673D01*
X126792972Y-104796042D01*
X126932326Y-104626089D01*
X126938350Y-104617322D01*
X127004906Y-104500400D01*
X130884000Y-104500400D01*
X130894974Y-104606166D01*
X130950950Y-104773946D01*
X131044022Y-104924348D01*
X131169197Y-105049305D01*
X131175427Y-105053145D01*
X131175428Y-105053146D01*
X131312590Y-105137694D01*
X131319762Y-105142115D01*
X131399505Y-105168564D01*
X131481111Y-105195632D01*
X131481113Y-105195632D01*
X131487639Y-105197797D01*
X131494475Y-105198497D01*
X131494478Y-105198498D01*
X131537531Y-105202909D01*
X131592100Y-105208500D01*
X132892900Y-105208500D01*
X132896146Y-105208163D01*
X132896150Y-105208163D01*
X132991808Y-105198238D01*
X132991812Y-105198237D01*
X132998666Y-105197526D01*
X133005202Y-105195345D01*
X133005204Y-105195345D01*
X133137306Y-105151272D01*
X133166446Y-105141550D01*
X133316848Y-105048478D01*
X133441805Y-104923303D01*
X133531853Y-104777220D01*
X133584624Y-104729727D01*
X133654696Y-104718303D01*
X133719820Y-104746577D01*
X133730282Y-104756364D01*
X133835734Y-104866906D01*
X133843686Y-104873941D01*
X134020025Y-105005141D01*
X134029062Y-105010745D01*
X134146353Y-105070379D01*
X134160213Y-105072969D01*
X134162181Y-105070172D01*
X134162500Y-105068243D01*
X134162500Y-105062927D01*
X135322500Y-105062927D01*
X135326473Y-105076458D01*
X135332070Y-105077263D01*
X135343529Y-105072737D01*
X135353061Y-105068006D01*
X135540962Y-104953984D01*
X135549552Y-104947720D01*
X135715552Y-104803673D01*
X135722972Y-104796042D01*
X135862326Y-104626089D01*
X135868350Y-104617322D01*
X135934906Y-104500400D01*
X139734000Y-104500400D01*
X139744974Y-104606166D01*
X139800950Y-104773946D01*
X139894022Y-104924348D01*
X140019197Y-105049305D01*
X140025427Y-105053145D01*
X140025428Y-105053146D01*
X140162590Y-105137694D01*
X140169762Y-105142115D01*
X140249505Y-105168564D01*
X140331111Y-105195632D01*
X140331113Y-105195632D01*
X140337639Y-105197797D01*
X140344475Y-105198497D01*
X140344478Y-105198498D01*
X140387531Y-105202909D01*
X140442100Y-105208500D01*
X141742900Y-105208500D01*
X141746146Y-105208163D01*
X141746150Y-105208163D01*
X141841808Y-105198238D01*
X141841812Y-105198237D01*
X141848666Y-105197526D01*
X141855202Y-105195345D01*
X141855204Y-105195345D01*
X141987306Y-105151272D01*
X142016446Y-105141550D01*
X142166848Y-105048478D01*
X142291805Y-104923303D01*
X142381853Y-104777220D01*
X142434624Y-104729727D01*
X142504696Y-104718303D01*
X142569820Y-104746577D01*
X142580282Y-104756364D01*
X142685734Y-104866906D01*
X142693686Y-104873941D01*
X142870025Y-105005141D01*
X142879062Y-105010745D01*
X142996353Y-105070379D01*
X143010213Y-105072969D01*
X143012181Y-105070172D01*
X143012500Y-105068243D01*
X143012500Y-105062927D01*
X144172500Y-105062927D01*
X144176473Y-105076458D01*
X144182070Y-105077263D01*
X144193529Y-105072737D01*
X144203061Y-105068006D01*
X144390962Y-104953984D01*
X144399552Y-104947720D01*
X144565552Y-104803673D01*
X144572972Y-104796042D01*
X144712326Y-104626089D01*
X144718350Y-104617322D01*
X144784906Y-104500400D01*
X148624000Y-104500400D01*
X148634974Y-104606166D01*
X148690950Y-104773946D01*
X148784022Y-104924348D01*
X148909197Y-105049305D01*
X148915427Y-105053145D01*
X148915428Y-105053146D01*
X149052590Y-105137694D01*
X149059762Y-105142115D01*
X149139505Y-105168564D01*
X149221111Y-105195632D01*
X149221113Y-105195632D01*
X149227639Y-105197797D01*
X149234475Y-105198497D01*
X149234478Y-105198498D01*
X149277531Y-105202909D01*
X149332100Y-105208500D01*
X150632900Y-105208500D01*
X150636146Y-105208163D01*
X150636150Y-105208163D01*
X150731808Y-105198238D01*
X150731812Y-105198237D01*
X150738666Y-105197526D01*
X150745202Y-105195345D01*
X150745204Y-105195345D01*
X150877306Y-105151272D01*
X150906446Y-105141550D01*
X151056848Y-105048478D01*
X151181805Y-104923303D01*
X151271853Y-104777220D01*
X151324624Y-104729727D01*
X151394696Y-104718303D01*
X151459820Y-104746577D01*
X151470282Y-104756364D01*
X151575734Y-104866906D01*
X151583686Y-104873941D01*
X151760025Y-105005141D01*
X151769062Y-105010745D01*
X151886353Y-105070379D01*
X151900213Y-105072969D01*
X151902181Y-105070172D01*
X151902500Y-105068243D01*
X151902500Y-105062927D01*
X153062500Y-105062927D01*
X153066473Y-105076458D01*
X153072070Y-105077263D01*
X153083529Y-105072737D01*
X153093061Y-105068006D01*
X153280962Y-104953984D01*
X153289552Y-104947720D01*
X153455552Y-104803673D01*
X153462972Y-104796042D01*
X153602326Y-104626089D01*
X153608350Y-104617322D01*
X153717076Y-104426318D01*
X153721541Y-104416654D01*
X153764963Y-104297028D01*
X153765845Y-104282955D01*
X153760319Y-104280000D01*
X153080615Y-104280000D01*
X153065376Y-104284475D01*
X153064171Y-104285865D01*
X153062500Y-104293548D01*
X153062500Y-105062927D01*
X151902500Y-105062927D01*
X151902500Y-103101885D01*
X153062500Y-103101885D01*
X153066975Y-103117124D01*
X153068365Y-103118329D01*
X153076048Y-103120000D01*
X153755806Y-103120000D01*
X153769337Y-103116027D01*
X153770603Y-103107217D01*
X153769369Y-103102459D01*
X153765837Y-103092431D01*
X153675563Y-102892030D01*
X153670394Y-102882744D01*
X153547650Y-102700425D01*
X153540981Y-102692130D01*
X153389272Y-102533100D01*
X153381314Y-102526059D01*
X153204975Y-102394859D01*
X153195938Y-102389255D01*
X153078647Y-102329621D01*
X153064787Y-102327031D01*
X153062819Y-102329828D01*
X153062500Y-102331757D01*
X153062500Y-103101885D01*
X151902500Y-103101885D01*
X151902500Y-102337073D01*
X151898527Y-102323542D01*
X151892930Y-102322737D01*
X151881471Y-102327263D01*
X151871939Y-102331994D01*
X151684038Y-102446016D01*
X151675448Y-102452280D01*
X151509448Y-102596327D01*
X151502030Y-102603956D01*
X151476109Y-102635569D01*
X151417449Y-102675564D01*
X151346479Y-102677496D01*
X151285730Y-102640752D01*
X151271530Y-102621982D01*
X151184832Y-102481880D01*
X151180978Y-102475652D01*
X151055803Y-102350695D01*
X151021615Y-102329621D01*
X150911468Y-102261725D01*
X150911466Y-102261724D01*
X150905238Y-102257885D01*
X150744754Y-102204655D01*
X150743889Y-102204368D01*
X150743887Y-102204368D01*
X150737361Y-102202203D01*
X150730525Y-102201503D01*
X150730522Y-102201502D01*
X150687469Y-102197091D01*
X150632900Y-102191500D01*
X149332100Y-102191500D01*
X149328854Y-102191837D01*
X149328850Y-102191837D01*
X149233192Y-102201762D01*
X149233188Y-102201763D01*
X149226334Y-102202474D01*
X149219798Y-102204655D01*
X149219796Y-102204655D01*
X149087694Y-102248728D01*
X149058554Y-102258450D01*
X148908152Y-102351522D01*
X148783195Y-102476697D01*
X148779355Y-102482927D01*
X148779354Y-102482928D01*
X148709454Y-102596327D01*
X148690385Y-102627262D01*
X148634703Y-102795139D01*
X148624000Y-102899600D01*
X148624000Y-104500400D01*
X144784906Y-104500400D01*
X144827076Y-104426318D01*
X144831541Y-104416654D01*
X144874963Y-104297028D01*
X144875845Y-104282955D01*
X144870319Y-104280000D01*
X144190615Y-104280000D01*
X144175376Y-104284475D01*
X144174171Y-104285865D01*
X144172500Y-104293548D01*
X144172500Y-105062927D01*
X143012500Y-105062927D01*
X143012500Y-103101885D01*
X144172500Y-103101885D01*
X144176975Y-103117124D01*
X144178365Y-103118329D01*
X144186048Y-103120000D01*
X144865806Y-103120000D01*
X144879337Y-103116027D01*
X144880603Y-103107217D01*
X144879369Y-103102459D01*
X144875837Y-103092431D01*
X144785563Y-102892030D01*
X144780394Y-102882744D01*
X144657650Y-102700425D01*
X144650981Y-102692130D01*
X144499272Y-102533100D01*
X144491314Y-102526059D01*
X144314975Y-102394859D01*
X144305938Y-102389255D01*
X144188647Y-102329621D01*
X144174787Y-102327031D01*
X144172819Y-102329828D01*
X144172500Y-102331757D01*
X144172500Y-103101885D01*
X143012500Y-103101885D01*
X143012500Y-102337073D01*
X143008527Y-102323542D01*
X143002930Y-102322737D01*
X142991471Y-102327263D01*
X142981939Y-102331994D01*
X142794038Y-102446016D01*
X142785448Y-102452280D01*
X142619448Y-102596327D01*
X142612030Y-102603956D01*
X142586109Y-102635569D01*
X142527449Y-102675564D01*
X142456479Y-102677496D01*
X142395730Y-102640752D01*
X142381530Y-102621982D01*
X142294832Y-102481880D01*
X142290978Y-102475652D01*
X142165803Y-102350695D01*
X142131615Y-102329621D01*
X142021468Y-102261725D01*
X142021466Y-102261724D01*
X142015238Y-102257885D01*
X141854754Y-102204655D01*
X141853889Y-102204368D01*
X141853887Y-102204368D01*
X141847361Y-102202203D01*
X141840525Y-102201503D01*
X141840522Y-102201502D01*
X141797469Y-102197091D01*
X141742900Y-102191500D01*
X140442100Y-102191500D01*
X140438854Y-102191837D01*
X140438850Y-102191837D01*
X140343192Y-102201762D01*
X140343188Y-102201763D01*
X140336334Y-102202474D01*
X140329798Y-102204655D01*
X140329796Y-102204655D01*
X140197694Y-102248728D01*
X140168554Y-102258450D01*
X140018152Y-102351522D01*
X139893195Y-102476697D01*
X139889355Y-102482927D01*
X139889354Y-102482928D01*
X139819454Y-102596327D01*
X139800385Y-102627262D01*
X139744703Y-102795139D01*
X139734000Y-102899600D01*
X139734000Y-104500400D01*
X135934906Y-104500400D01*
X135977076Y-104426318D01*
X135981541Y-104416654D01*
X136024963Y-104297028D01*
X136025845Y-104282955D01*
X136020319Y-104280000D01*
X135340615Y-104280000D01*
X135325376Y-104284475D01*
X135324171Y-104285865D01*
X135322500Y-104293548D01*
X135322500Y-105062927D01*
X134162500Y-105062927D01*
X134162500Y-103101885D01*
X135322500Y-103101885D01*
X135326975Y-103117124D01*
X135328365Y-103118329D01*
X135336048Y-103120000D01*
X136015806Y-103120000D01*
X136029337Y-103116027D01*
X136030603Y-103107217D01*
X136029369Y-103102459D01*
X136025837Y-103092431D01*
X135935563Y-102892030D01*
X135930394Y-102882744D01*
X135807650Y-102700425D01*
X135800981Y-102692130D01*
X135649272Y-102533100D01*
X135641314Y-102526059D01*
X135464975Y-102394859D01*
X135455938Y-102389255D01*
X135338647Y-102329621D01*
X135324787Y-102327031D01*
X135322819Y-102329828D01*
X135322500Y-102331757D01*
X135322500Y-103101885D01*
X134162500Y-103101885D01*
X134162500Y-102337073D01*
X134158527Y-102323542D01*
X134152930Y-102322737D01*
X134141471Y-102327263D01*
X134131939Y-102331994D01*
X133944038Y-102446016D01*
X133935448Y-102452280D01*
X133769448Y-102596327D01*
X133762030Y-102603956D01*
X133736109Y-102635569D01*
X133677449Y-102675564D01*
X133606479Y-102677496D01*
X133545730Y-102640752D01*
X133531530Y-102621982D01*
X133444832Y-102481880D01*
X133440978Y-102475652D01*
X133315803Y-102350695D01*
X133281615Y-102329621D01*
X133171468Y-102261725D01*
X133171466Y-102261724D01*
X133165238Y-102257885D01*
X133004754Y-102204655D01*
X133003889Y-102204368D01*
X133003887Y-102204368D01*
X132997361Y-102202203D01*
X132990525Y-102201503D01*
X132990522Y-102201502D01*
X132947469Y-102197091D01*
X132892900Y-102191500D01*
X131592100Y-102191500D01*
X131588854Y-102191837D01*
X131588850Y-102191837D01*
X131493192Y-102201762D01*
X131493188Y-102201763D01*
X131486334Y-102202474D01*
X131479798Y-102204655D01*
X131479796Y-102204655D01*
X131347694Y-102248728D01*
X131318554Y-102258450D01*
X131168152Y-102351522D01*
X131043195Y-102476697D01*
X131039355Y-102482927D01*
X131039354Y-102482928D01*
X130969454Y-102596327D01*
X130950385Y-102627262D01*
X130894703Y-102795139D01*
X130884000Y-102899600D01*
X130884000Y-104500400D01*
X127004906Y-104500400D01*
X127047076Y-104426318D01*
X127051541Y-104416654D01*
X127094963Y-104297028D01*
X127095845Y-104282955D01*
X127090319Y-104280000D01*
X126410615Y-104280000D01*
X126395376Y-104284475D01*
X126394171Y-104285865D01*
X126392500Y-104293548D01*
X126392500Y-105062927D01*
X125232500Y-105062927D01*
X125232500Y-103101885D01*
X126392500Y-103101885D01*
X126396975Y-103117124D01*
X126398365Y-103118329D01*
X126406048Y-103120000D01*
X127085806Y-103120000D01*
X127099337Y-103116027D01*
X127100603Y-103107217D01*
X127099369Y-103102459D01*
X127095837Y-103092431D01*
X127005563Y-102892030D01*
X127000394Y-102882744D01*
X126877650Y-102700425D01*
X126870981Y-102692130D01*
X126719272Y-102533100D01*
X126711314Y-102526059D01*
X126534975Y-102394859D01*
X126525938Y-102389255D01*
X126408647Y-102329621D01*
X126394787Y-102327031D01*
X126392819Y-102329828D01*
X126392500Y-102331757D01*
X126392500Y-103101885D01*
X125232500Y-103101885D01*
X125232500Y-102337073D01*
X125228527Y-102323542D01*
X125222930Y-102322737D01*
X125211471Y-102327263D01*
X125201939Y-102331994D01*
X125014038Y-102446016D01*
X125005448Y-102452280D01*
X124839448Y-102596327D01*
X124832030Y-102603956D01*
X124806109Y-102635569D01*
X124747449Y-102675564D01*
X124676479Y-102677496D01*
X124615730Y-102640752D01*
X124601530Y-102621982D01*
X124514832Y-102481880D01*
X124510978Y-102475652D01*
X124385803Y-102350695D01*
X124351615Y-102329621D01*
X124241468Y-102261725D01*
X124241466Y-102261724D01*
X124235238Y-102257885D01*
X124074754Y-102204655D01*
X124073889Y-102204368D01*
X124073887Y-102204368D01*
X124067361Y-102202203D01*
X124060525Y-102201503D01*
X124060522Y-102201502D01*
X124017469Y-102197091D01*
X123962900Y-102191500D01*
X122662100Y-102191500D01*
X122658854Y-102191837D01*
X122658850Y-102191837D01*
X122563192Y-102201762D01*
X122563188Y-102201763D01*
X122556334Y-102202474D01*
X122549798Y-102204655D01*
X122549796Y-102204655D01*
X122417694Y-102248728D01*
X122388554Y-102258450D01*
X122238152Y-102351522D01*
X122113195Y-102476697D01*
X122109355Y-102482927D01*
X122109354Y-102482928D01*
X122039454Y-102596327D01*
X122020385Y-102627262D01*
X121964703Y-102795139D01*
X121954000Y-102899600D01*
X121954000Y-104500400D01*
X118114906Y-104500400D01*
X118157076Y-104426318D01*
X118161541Y-104416654D01*
X118204963Y-104297028D01*
X118205845Y-104282955D01*
X118200319Y-104280000D01*
X117520615Y-104280000D01*
X117505376Y-104284475D01*
X117504171Y-104285865D01*
X117502500Y-104293548D01*
X117502500Y-105062927D01*
X116342500Y-105062927D01*
X116342500Y-103101885D01*
X117502500Y-103101885D01*
X117506975Y-103117124D01*
X117508365Y-103118329D01*
X117516048Y-103120000D01*
X118195806Y-103120000D01*
X118209337Y-103116027D01*
X118210603Y-103107217D01*
X118209369Y-103102459D01*
X118205837Y-103092431D01*
X118115563Y-102892030D01*
X118110394Y-102882744D01*
X117987650Y-102700425D01*
X117980981Y-102692130D01*
X117829272Y-102533100D01*
X117821314Y-102526059D01*
X117644975Y-102394859D01*
X117635938Y-102389255D01*
X117518647Y-102329621D01*
X117504787Y-102327031D01*
X117502819Y-102329828D01*
X117502500Y-102331757D01*
X117502500Y-103101885D01*
X116342500Y-103101885D01*
X116342500Y-102337073D01*
X116338527Y-102323542D01*
X116332930Y-102322737D01*
X116321471Y-102327263D01*
X116311939Y-102331994D01*
X116124038Y-102446016D01*
X116115448Y-102452280D01*
X115949448Y-102596327D01*
X115942030Y-102603956D01*
X115916109Y-102635569D01*
X115857449Y-102675564D01*
X115786479Y-102677496D01*
X115725730Y-102640752D01*
X115711530Y-102621982D01*
X115624832Y-102481880D01*
X115620978Y-102475652D01*
X115495803Y-102350695D01*
X115461615Y-102329621D01*
X115351468Y-102261725D01*
X115351466Y-102261724D01*
X115345238Y-102257885D01*
X115184754Y-102204655D01*
X115183889Y-102204368D01*
X115183887Y-102204368D01*
X115177361Y-102202203D01*
X115170525Y-102201503D01*
X115170522Y-102201502D01*
X115127469Y-102197091D01*
X115072900Y-102191500D01*
X113772100Y-102191500D01*
X113768854Y-102191837D01*
X113768850Y-102191837D01*
X113673192Y-102201762D01*
X113673188Y-102201763D01*
X113666334Y-102202474D01*
X113659798Y-102204655D01*
X113659796Y-102204655D01*
X113527694Y-102248728D01*
X113498554Y-102258450D01*
X113348152Y-102351522D01*
X113223195Y-102476697D01*
X113219355Y-102482927D01*
X113219354Y-102482928D01*
X113149454Y-102596327D01*
X113130385Y-102627262D01*
X113074703Y-102795139D01*
X113064000Y-102899600D01*
X113064000Y-104500400D01*
X112008500Y-104500400D01*
X112008500Y-96088450D01*
X114560469Y-96088450D01*
X114632399Y-96242705D01*
X114637378Y-96251471D01*
X114768087Y-96443802D01*
X114774419Y-96451677D01*
X114934186Y-96620626D01*
X114941695Y-96627387D01*
X115126426Y-96768625D01*
X115134905Y-96774089D01*
X115339847Y-96883978D01*
X115349099Y-96888020D01*
X115568971Y-96963727D01*
X115578743Y-96966236D01*
X115808971Y-97006004D01*
X115816843Y-97006859D01*
X115840551Y-97007936D01*
X115843384Y-97008000D01*
X116101885Y-97008000D01*
X116117124Y-97003525D01*
X116118329Y-97002135D01*
X116120000Y-96994452D01*
X116120000Y-96989885D01*
X117280000Y-96989885D01*
X117284475Y-97005124D01*
X117285865Y-97006329D01*
X117293548Y-97008000D01*
X117508456Y-97008000D01*
X117513488Y-97007798D01*
X117686843Y-96993850D01*
X117696796Y-96992238D01*
X117922633Y-96936767D01*
X117932203Y-96933584D01*
X118146265Y-96842720D01*
X118155207Y-96838045D01*
X118351987Y-96714126D01*
X118360060Y-96708086D01*
X118534500Y-96554297D01*
X118541504Y-96547044D01*
X118689110Y-96367346D01*
X118694866Y-96359064D01*
X118811842Y-96158079D01*
X118816202Y-96148980D01*
X118836188Y-96096914D01*
X118837328Y-96082856D01*
X118832215Y-96080000D01*
X117298115Y-96080000D01*
X117282876Y-96084475D01*
X117281671Y-96085865D01*
X117280000Y-96093548D01*
X117280000Y-96989885D01*
X116120000Y-96989885D01*
X116120000Y-96098115D01*
X116115525Y-96082876D01*
X116114135Y-96081671D01*
X116106452Y-96080000D01*
X114574643Y-96080000D01*
X114561112Y-96083973D01*
X114560469Y-96088450D01*
X112008500Y-96088450D01*
X112008500Y-94917144D01*
X114562672Y-94917144D01*
X114567785Y-94920000D01*
X116101885Y-94920000D01*
X116117124Y-94915525D01*
X116118329Y-94914135D01*
X116120000Y-94906452D01*
X116120000Y-94901885D01*
X117280000Y-94901885D01*
X117284475Y-94917124D01*
X117285865Y-94918329D01*
X117293548Y-94920000D01*
X118825357Y-94920000D01*
X118838888Y-94916027D01*
X118839531Y-94911550D01*
X118767601Y-94757295D01*
X118762622Y-94748529D01*
X118631913Y-94556198D01*
X118625581Y-94548323D01*
X118465814Y-94379374D01*
X118458305Y-94372613D01*
X118273574Y-94231375D01*
X118265095Y-94225911D01*
X118060153Y-94116022D01*
X118050901Y-94111980D01*
X117831029Y-94036273D01*
X117821257Y-94033764D01*
X117591029Y-93993996D01*
X117583157Y-93993141D01*
X117559449Y-93992064D01*
X117556616Y-93992000D01*
X117298115Y-93992000D01*
X117282876Y-93996475D01*
X117281671Y-93997865D01*
X117280000Y-94005548D01*
X117280000Y-94901885D01*
X116120000Y-94901885D01*
X116120000Y-94010115D01*
X116115525Y-93994876D01*
X116114135Y-93993671D01*
X116106452Y-93992000D01*
X115891544Y-93992000D01*
X115886512Y-93992202D01*
X115713157Y-94006150D01*
X115703204Y-94007762D01*
X115477367Y-94063233D01*
X115467797Y-94066416D01*
X115253735Y-94157280D01*
X115244793Y-94161955D01*
X115048013Y-94285874D01*
X115039940Y-94291914D01*
X114865500Y-94445703D01*
X114858496Y-94452956D01*
X114710890Y-94632654D01*
X114705134Y-94640936D01*
X114588158Y-94841921D01*
X114583798Y-94851020D01*
X114563812Y-94903086D01*
X114562672Y-94917144D01*
X112008500Y-94917144D01*
X112008500Y-93048134D01*
X122191500Y-93048134D01*
X122198255Y-93110316D01*
X122249385Y-93246705D01*
X122336739Y-93363261D01*
X122453295Y-93450615D01*
X122589684Y-93501745D01*
X122651866Y-93508500D01*
X124748134Y-93508500D01*
X124810316Y-93501745D01*
X124946705Y-93450615D01*
X125063261Y-93363261D01*
X125150615Y-93246705D01*
X125201745Y-93110316D01*
X125208500Y-93048134D01*
X125208500Y-89772416D01*
X128483448Y-89772416D01*
X128487326Y-89777596D01*
X128724520Y-89884694D01*
X128732551Y-89887680D01*
X128986832Y-89963002D01*
X128995184Y-89964869D01*
X129257340Y-90004984D01*
X129265874Y-90005700D01*
X129531045Y-90009867D01*
X129539596Y-90009418D01*
X129802883Y-89977557D01*
X129811284Y-89975955D01*
X130067824Y-89908653D01*
X130075926Y-89905926D01*
X130320949Y-89804434D01*
X130328617Y-89800628D01*
X130364587Y-89779609D01*
X130374263Y-89769354D01*
X130370945Y-89761189D01*
X130157890Y-89548134D01*
X132501500Y-89548134D01*
X132508255Y-89610316D01*
X132559385Y-89746705D01*
X132646739Y-89863261D01*
X132763295Y-89950615D01*
X132899684Y-90001745D01*
X132961866Y-90008500D01*
X136058134Y-90008500D01*
X136120316Y-90001745D01*
X136256705Y-89950615D01*
X136373261Y-89863261D01*
X136460615Y-89746705D01*
X136511745Y-89610316D01*
X136518500Y-89548134D01*
X136518500Y-86451866D01*
X136511745Y-86389684D01*
X136460615Y-86253295D01*
X136373261Y-86136739D01*
X136256705Y-86049385D01*
X136120316Y-85998255D01*
X136058134Y-85991500D01*
X132961866Y-85991500D01*
X132899684Y-85998255D01*
X132763295Y-86049385D01*
X132646739Y-86136739D01*
X132559385Y-86253295D01*
X132508255Y-86389684D01*
X132501500Y-86451866D01*
X132501500Y-89548134D01*
X130157890Y-89548134D01*
X129442812Y-88833056D01*
X129428868Y-88825442D01*
X129427035Y-88825573D01*
X129420420Y-88829824D01*
X128490208Y-89760036D01*
X128483448Y-89772416D01*
X125208500Y-89772416D01*
X125208500Y-88951866D01*
X125201745Y-88889684D01*
X125150615Y-88753295D01*
X125063261Y-88636739D01*
X124946705Y-88549385D01*
X124810316Y-88498255D01*
X124748134Y-88491500D01*
X122651866Y-88491500D01*
X122589684Y-88498255D01*
X122453295Y-88549385D01*
X122336739Y-88636739D01*
X122249385Y-88753295D01*
X122198255Y-88889684D01*
X122191500Y-88951866D01*
X122191500Y-93048134D01*
X112008500Y-93048134D01*
X112008500Y-91000000D01*
X113386502Y-91000000D01*
X113406457Y-91228087D01*
X113465716Y-91449243D01*
X113468039Y-91454224D01*
X113468039Y-91454225D01*
X113560151Y-91651762D01*
X113560154Y-91651767D01*
X113562477Y-91656749D01*
X113693802Y-91844300D01*
X113855700Y-92006198D01*
X113860208Y-92009355D01*
X113860211Y-92009357D01*
X113877206Y-92021257D01*
X114043251Y-92137523D01*
X114048233Y-92139846D01*
X114048238Y-92139849D01*
X114245775Y-92231961D01*
X114250757Y-92234284D01*
X114256065Y-92235706D01*
X114256067Y-92235707D01*
X114466598Y-92292119D01*
X114466600Y-92292119D01*
X114471913Y-92293543D01*
X114571480Y-92302254D01*
X114640149Y-92308262D01*
X114640156Y-92308262D01*
X114642873Y-92308500D01*
X114757127Y-92308500D01*
X114759844Y-92308262D01*
X114759851Y-92308262D01*
X114828520Y-92302254D01*
X114928087Y-92293543D01*
X114933400Y-92292119D01*
X114933402Y-92292119D01*
X115143933Y-92235707D01*
X115143935Y-92235706D01*
X115149243Y-92234284D01*
X115154225Y-92231961D01*
X115351762Y-92139849D01*
X115351767Y-92139846D01*
X115356749Y-92137523D01*
X115522794Y-92021257D01*
X115539789Y-92009357D01*
X115539792Y-92009355D01*
X115544300Y-92006198D01*
X115706198Y-91844300D01*
X115837523Y-91656749D01*
X115839846Y-91651767D01*
X115839849Y-91651762D01*
X115931961Y-91454225D01*
X115931961Y-91454224D01*
X115934284Y-91449243D01*
X115944293Y-91411889D01*
X115981245Y-91351266D01*
X116045105Y-91320245D01*
X116115600Y-91328673D01*
X116170347Y-91373876D01*
X116192000Y-91444500D01*
X116192000Y-91708456D01*
X116192202Y-91713488D01*
X116206150Y-91886843D01*
X116207762Y-91896796D01*
X116263233Y-92122633D01*
X116266416Y-92132203D01*
X116357280Y-92346265D01*
X116361955Y-92355207D01*
X116485874Y-92551987D01*
X116491914Y-92560060D01*
X116645703Y-92734500D01*
X116652956Y-92741504D01*
X116832654Y-92889110D01*
X116840936Y-92894866D01*
X117041921Y-93011842D01*
X117051020Y-93016202D01*
X117103086Y-93036188D01*
X117117144Y-93037328D01*
X117120000Y-93032215D01*
X117120000Y-93025357D01*
X118280000Y-93025357D01*
X118283973Y-93038888D01*
X118288450Y-93039531D01*
X118442705Y-92967601D01*
X118451471Y-92962622D01*
X118643802Y-92831913D01*
X118651677Y-92825581D01*
X118820626Y-92665814D01*
X118827387Y-92658305D01*
X118968625Y-92473574D01*
X118974089Y-92465095D01*
X119083978Y-92260153D01*
X119088020Y-92250901D01*
X119163727Y-92031029D01*
X119166236Y-92021257D01*
X119206004Y-91791029D01*
X119206859Y-91783157D01*
X119207936Y-91759449D01*
X119208000Y-91756616D01*
X119208000Y-91598115D01*
X119203525Y-91582876D01*
X119202135Y-91581671D01*
X119194452Y-91580000D01*
X118298115Y-91580000D01*
X118282876Y-91584475D01*
X118281671Y-91585865D01*
X118280000Y-91593548D01*
X118280000Y-93025357D01*
X117120000Y-93025357D01*
X117120000Y-90401885D01*
X118280000Y-90401885D01*
X118284475Y-90417124D01*
X118285865Y-90418329D01*
X118293548Y-90420000D01*
X119189885Y-90420000D01*
X119205124Y-90415525D01*
X119206329Y-90414135D01*
X119208000Y-90406452D01*
X119208000Y-90291544D01*
X119207798Y-90286512D01*
X119193850Y-90113157D01*
X119192238Y-90103204D01*
X119136767Y-89877367D01*
X119133584Y-89867797D01*
X119042720Y-89653735D01*
X119038045Y-89644793D01*
X118914126Y-89448013D01*
X118908086Y-89439940D01*
X118754297Y-89265500D01*
X118747044Y-89258496D01*
X118567346Y-89110890D01*
X118559064Y-89105134D01*
X118358079Y-88988158D01*
X118348980Y-88983798D01*
X118296914Y-88963812D01*
X118282856Y-88962672D01*
X118280000Y-88967785D01*
X118280000Y-90401885D01*
X117120000Y-90401885D01*
X117120000Y-88974643D01*
X117116027Y-88961112D01*
X117111550Y-88960469D01*
X116957295Y-89032399D01*
X116948529Y-89037378D01*
X116756198Y-89168087D01*
X116748323Y-89174419D01*
X116579374Y-89334186D01*
X116572613Y-89341695D01*
X116431375Y-89526426D01*
X116425911Y-89534905D01*
X116316022Y-89739847D01*
X116311980Y-89749099D01*
X116236273Y-89968971D01*
X116233764Y-89978743D01*
X116193996Y-90208971D01*
X116193141Y-90216843D01*
X116192064Y-90240551D01*
X116192000Y-90243384D01*
X116192000Y-90555500D01*
X116171998Y-90623621D01*
X116118342Y-90670114D01*
X116048068Y-90680218D01*
X115983488Y-90650724D01*
X115944293Y-90588111D01*
X115935707Y-90556067D01*
X115935706Y-90556065D01*
X115934284Y-90550757D01*
X115931961Y-90545775D01*
X115839849Y-90348238D01*
X115839846Y-90348233D01*
X115837523Y-90343251D01*
X115706198Y-90155700D01*
X115544300Y-89993802D01*
X115539792Y-89990645D01*
X115539789Y-89990643D01*
X115418800Y-89905926D01*
X115356749Y-89862477D01*
X115351767Y-89860154D01*
X115351762Y-89860151D01*
X115154225Y-89768039D01*
X115154224Y-89768039D01*
X115149243Y-89765716D01*
X115143935Y-89764294D01*
X115143933Y-89764293D01*
X114933402Y-89707881D01*
X114933400Y-89707881D01*
X114928087Y-89706457D01*
X114828520Y-89697746D01*
X114759851Y-89691738D01*
X114759844Y-89691738D01*
X114757127Y-89691500D01*
X114642873Y-89691500D01*
X114640156Y-89691738D01*
X114640149Y-89691738D01*
X114571480Y-89697746D01*
X114471913Y-89706457D01*
X114466600Y-89707881D01*
X114466598Y-89707881D01*
X114256067Y-89764293D01*
X114256065Y-89764294D01*
X114250757Y-89765716D01*
X114245776Y-89768039D01*
X114245775Y-89768039D01*
X114048238Y-89860151D01*
X114048233Y-89860154D01*
X114043251Y-89862477D01*
X113981200Y-89905926D01*
X113860211Y-89990643D01*
X113860208Y-89990645D01*
X113855700Y-89993802D01*
X113693802Y-90155700D01*
X113562477Y-90343251D01*
X113560154Y-90348233D01*
X113560151Y-90348238D01*
X113468039Y-90545775D01*
X113465716Y-90550757D01*
X113406457Y-90771913D01*
X113386502Y-91000000D01*
X112008500Y-91000000D01*
X112008500Y-87088450D01*
X114560469Y-87088450D01*
X114632399Y-87242705D01*
X114637378Y-87251471D01*
X114768087Y-87443802D01*
X114774419Y-87451677D01*
X114934186Y-87620626D01*
X114941695Y-87627387D01*
X115126426Y-87768625D01*
X115134905Y-87774089D01*
X115339847Y-87883978D01*
X115349099Y-87888020D01*
X115568971Y-87963727D01*
X115578743Y-87966236D01*
X115808971Y-88006004D01*
X115816843Y-88006859D01*
X115840551Y-88007936D01*
X115843384Y-88008000D01*
X116101885Y-88008000D01*
X116117124Y-88003525D01*
X116118329Y-88002135D01*
X116120000Y-87994452D01*
X116120000Y-87989885D01*
X117280000Y-87989885D01*
X117284475Y-88005124D01*
X117285865Y-88006329D01*
X117293548Y-88008000D01*
X117508456Y-88008000D01*
X117513488Y-88007798D01*
X117686843Y-87993850D01*
X117696796Y-87992238D01*
X117733576Y-87983204D01*
X127417665Y-87983204D01*
X127432932Y-88247969D01*
X127434005Y-88256470D01*
X127485065Y-88516722D01*
X127487276Y-88524974D01*
X127573184Y-88775894D01*
X127576499Y-88783780D01*
X127651845Y-88933588D01*
X127661473Y-88943891D01*
X127668078Y-88941678D01*
X128596944Y-88012812D01*
X128603322Y-88001132D01*
X130255442Y-88001132D01*
X130255573Y-88002965D01*
X130259824Y-88009580D01*
X131186701Y-88936457D01*
X131199081Y-88943217D01*
X131205345Y-88938528D01*
X131257967Y-88841612D01*
X131261528Y-88833833D01*
X131355271Y-88585750D01*
X131357748Y-88577544D01*
X131416954Y-88319038D01*
X131418294Y-88310577D01*
X131442031Y-88044616D01*
X131442277Y-88039677D01*
X131442666Y-88002485D01*
X131442523Y-87997519D01*
X131424362Y-87731123D01*
X131423201Y-87722649D01*
X131369419Y-87462944D01*
X131367120Y-87454709D01*
X131278588Y-87204705D01*
X131275191Y-87196855D01*
X131207992Y-87066660D01*
X131198255Y-87056458D01*
X131191415Y-87058829D01*
X130263056Y-87987188D01*
X130255442Y-88001132D01*
X128603322Y-88001132D01*
X128604558Y-87998868D01*
X128604427Y-87997035D01*
X128600176Y-87990420D01*
X127673295Y-87063539D01*
X127660915Y-87056779D01*
X127654891Y-87061289D01*
X127593325Y-87177567D01*
X127589839Y-87185395D01*
X127498700Y-87434446D01*
X127496311Y-87442670D01*
X127439812Y-87701795D01*
X127438563Y-87710250D01*
X127417754Y-87974653D01*
X127417665Y-87983204D01*
X117733576Y-87983204D01*
X117922633Y-87936767D01*
X117932203Y-87933584D01*
X118146265Y-87842720D01*
X118155207Y-87838045D01*
X118351987Y-87714126D01*
X118360060Y-87708086D01*
X118534500Y-87554297D01*
X118541504Y-87547044D01*
X118689110Y-87367346D01*
X118694866Y-87359064D01*
X118811842Y-87158079D01*
X118816202Y-87148980D01*
X118836188Y-87096914D01*
X118837328Y-87082856D01*
X118832215Y-87080000D01*
X117298115Y-87080000D01*
X117282876Y-87084475D01*
X117281671Y-87085865D01*
X117280000Y-87093548D01*
X117280000Y-87989885D01*
X116120000Y-87989885D01*
X116120000Y-87098115D01*
X116115525Y-87082876D01*
X116114135Y-87081671D01*
X116106452Y-87080000D01*
X114574643Y-87080000D01*
X114561112Y-87083973D01*
X114560469Y-87088450D01*
X112008500Y-87088450D01*
X112008500Y-86229948D01*
X128485113Y-86229948D01*
X128488657Y-86238413D01*
X129417188Y-87166944D01*
X129431132Y-87174558D01*
X129432965Y-87174427D01*
X129439580Y-87170176D01*
X130368843Y-86240913D01*
X130375603Y-86228533D01*
X130369876Y-86220882D01*
X130366130Y-86218587D01*
X130358547Y-86214622D01*
X130115704Y-86108022D01*
X130107644Y-86105120D01*
X129852592Y-86032467D01*
X129844214Y-86030685D01*
X129581656Y-85993318D01*
X129573111Y-85992691D01*
X129307908Y-85991302D01*
X129299374Y-85991839D01*
X129036433Y-86026456D01*
X129028035Y-86028149D01*
X128772238Y-86098127D01*
X128764143Y-86100946D01*
X128520199Y-86204997D01*
X128512577Y-86208880D01*
X128494683Y-86219590D01*
X128485113Y-86229948D01*
X112008500Y-86229948D01*
X112008500Y-86053250D01*
X112010246Y-86032345D01*
X112012770Y-86017344D01*
X112012770Y-86017341D01*
X112013576Y-86012552D01*
X112013729Y-86000000D01*
X112013040Y-85995186D01*
X112013039Y-85995176D01*
X112012157Y-85989017D01*
X112011206Y-85962172D01*
X112014426Y-85917144D01*
X114562672Y-85917144D01*
X114567785Y-85920000D01*
X116101885Y-85920000D01*
X116117124Y-85915525D01*
X116118329Y-85914135D01*
X116120000Y-85906452D01*
X116120000Y-85901885D01*
X117280000Y-85901885D01*
X117284475Y-85917124D01*
X117285865Y-85918329D01*
X117293548Y-85920000D01*
X118825357Y-85920000D01*
X118838888Y-85916027D01*
X118839531Y-85911550D01*
X118767601Y-85757295D01*
X118762622Y-85748529D01*
X118631913Y-85556198D01*
X118625581Y-85548323D01*
X118465814Y-85379374D01*
X118458305Y-85372613D01*
X118273574Y-85231375D01*
X118265095Y-85225911D01*
X118060153Y-85116022D01*
X118050901Y-85111980D01*
X117831029Y-85036273D01*
X117821257Y-85033764D01*
X117591029Y-84993996D01*
X117583157Y-84993141D01*
X117559449Y-84992064D01*
X117556616Y-84992000D01*
X117298115Y-84992000D01*
X117282876Y-84996475D01*
X117281671Y-84997865D01*
X117280000Y-85005548D01*
X117280000Y-85901885D01*
X116120000Y-85901885D01*
X116120000Y-85010115D01*
X116115525Y-84994876D01*
X116114135Y-84993671D01*
X116106452Y-84992000D01*
X115891544Y-84992000D01*
X115886512Y-84992202D01*
X115713157Y-85006150D01*
X115703204Y-85007762D01*
X115477367Y-85063233D01*
X115467797Y-85066416D01*
X115253735Y-85157280D01*
X115244793Y-85161955D01*
X115048013Y-85285874D01*
X115039940Y-85291914D01*
X114865500Y-85445703D01*
X114858496Y-85452956D01*
X114710890Y-85632654D01*
X114705134Y-85640936D01*
X114588158Y-85841921D01*
X114583798Y-85851020D01*
X114563812Y-85903086D01*
X114562672Y-85917144D01*
X112014426Y-85917144D01*
X112023038Y-85796723D01*
X112025596Y-85778934D01*
X112066999Y-85588607D01*
X112072063Y-85571359D01*
X112140136Y-85388850D01*
X112147604Y-85372498D01*
X112240952Y-85201542D01*
X112250672Y-85186418D01*
X112367402Y-85030486D01*
X112379175Y-85016900D01*
X112516900Y-84879175D01*
X112530486Y-84867402D01*
X112686418Y-84750672D01*
X112701542Y-84740952D01*
X112872498Y-84647604D01*
X112888850Y-84640136D01*
X113071359Y-84572063D01*
X113088608Y-84566999D01*
X113278936Y-84525596D01*
X113296715Y-84523039D01*
X113458605Y-84511460D01*
X113476565Y-84512207D01*
X113484845Y-84512308D01*
X113493724Y-84513691D01*
X113525286Y-84509564D01*
X113541621Y-84508500D01*
X153450633Y-84508500D01*
X153470018Y-84510000D01*
G37*
%TD.AperFunction*%
%TD*%
M02*
