%TF.GenerationSoftware,KiCad,Pcbnew,(6.0.8)*%
%TF.CreationDate,2023-01-24T15:15:18-07:00*%
%TF.ProjectId,Power,506f7765-722e-46b6-9963-61645f706362,rev?*%
%TF.SameCoordinates,Original*%
%TF.FileFunction,Drillmap*%
%TF.FilePolarity,Positive*%
%FSLAX45Y45*%
G04 Gerber Fmt 4.5, Leading zero omitted, Abs format (unit mm)*
G04 Created by KiCad (PCBNEW (6.0.8)) date 2023-01-24 15:15:18*
%MOMM*%
%LPD*%
G01*
G04 APERTURE LIST*
%ADD10C,0.100000*%
%ADD11C,0.200000*%
%ADD12C,0.160000*%
G04 APERTURE END LIST*
D10*
X11150000Y-10700000D02*
G75*
G03*
X11350000Y-10900000I200000J0D01*
G01*
X15350000Y-8400000D02*
X11350000Y-8400000D01*
X15300000Y-10900000D02*
G75*
G03*
X15550000Y-10650000I0J250000D01*
G01*
X15550000Y-10650000D02*
X15550000Y-8600000D01*
X11150000Y-8600000D02*
X11150000Y-10700000D01*
X15550000Y-8600000D02*
G75*
G03*
X15350000Y-8400000I-200000J0D01*
G01*
X11350000Y-10900000D02*
X15300000Y-10900000D01*
X11350000Y-8400000D02*
G75*
G03*
X11150000Y-8600000I0J-200000D01*
G01*
D11*
D12*
X11390000Y-9020000D02*
X11550000Y-9180000D01*
X11550000Y-9020000D02*
X11390000Y-9180000D01*
D11*
X11402619Y-11215476D02*
X11402619Y-11015476D01*
X11450238Y-11015476D01*
X11478809Y-11025000D01*
X11497857Y-11044048D01*
X11507381Y-11063095D01*
X11516905Y-11101190D01*
X11516905Y-11129762D01*
X11507381Y-11167857D01*
X11497857Y-11186905D01*
X11478809Y-11205952D01*
X11450238Y-11215476D01*
X11402619Y-11215476D01*
X11602619Y-11215476D02*
X11602619Y-11082143D01*
X11602619Y-11120238D02*
X11612143Y-11101190D01*
X11621667Y-11091667D01*
X11640714Y-11082143D01*
X11659762Y-11082143D01*
X11726428Y-11215476D02*
X11726428Y-11082143D01*
X11726428Y-11015476D02*
X11716905Y-11025000D01*
X11726428Y-11034524D01*
X11735952Y-11025000D01*
X11726428Y-11015476D01*
X11726428Y-11034524D01*
X11850238Y-11215476D02*
X11831190Y-11205952D01*
X11821667Y-11186905D01*
X11821667Y-11015476D01*
X11955000Y-11215476D02*
X11935952Y-11205952D01*
X11926428Y-11186905D01*
X11926428Y-11015476D01*
X12183571Y-11215476D02*
X12183571Y-11015476D01*
X12250238Y-11158333D01*
X12316905Y-11015476D01*
X12316905Y-11215476D01*
X12497857Y-11215476D02*
X12497857Y-11110714D01*
X12488333Y-11091667D01*
X12469286Y-11082143D01*
X12431190Y-11082143D01*
X12412143Y-11091667D01*
X12497857Y-11205952D02*
X12478809Y-11215476D01*
X12431190Y-11215476D01*
X12412143Y-11205952D01*
X12402619Y-11186905D01*
X12402619Y-11167857D01*
X12412143Y-11148810D01*
X12431190Y-11139286D01*
X12478809Y-11139286D01*
X12497857Y-11129762D01*
X12593095Y-11082143D02*
X12593095Y-11282143D01*
X12593095Y-11091667D02*
X12612143Y-11082143D01*
X12650238Y-11082143D01*
X12669286Y-11091667D01*
X12678809Y-11101190D01*
X12688333Y-11120238D01*
X12688333Y-11177381D01*
X12678809Y-11196428D01*
X12669286Y-11205952D01*
X12650238Y-11215476D01*
X12612143Y-11215476D01*
X12593095Y-11205952D01*
X12774048Y-11196428D02*
X12783571Y-11205952D01*
X12774048Y-11215476D01*
X12764524Y-11205952D01*
X12774048Y-11196428D01*
X12774048Y-11215476D01*
X12774048Y-11091667D02*
X12783571Y-11101190D01*
X12774048Y-11110714D01*
X12764524Y-11101190D01*
X12774048Y-11091667D01*
X12774048Y-11110714D01*
D12*
X10985000Y-11465000D02*
X11145000Y-11625000D01*
X11145000Y-11465000D02*
X10985000Y-11625000D01*
D11*
X11507381Y-11635476D02*
X11393095Y-11635476D01*
X11450238Y-11635476D02*
X11450238Y-11435476D01*
X11431190Y-11464048D01*
X11412143Y-11483095D01*
X11393095Y-11492619D01*
X11593095Y-11616428D02*
X11602619Y-11625952D01*
X11593095Y-11635476D01*
X11583571Y-11625952D01*
X11593095Y-11616428D01*
X11593095Y-11635476D01*
X11774048Y-11435476D02*
X11735952Y-11435476D01*
X11716905Y-11445000D01*
X11707381Y-11454524D01*
X11688333Y-11483095D01*
X11678809Y-11521190D01*
X11678809Y-11597381D01*
X11688333Y-11616428D01*
X11697857Y-11625952D01*
X11716905Y-11635476D01*
X11755000Y-11635476D01*
X11774048Y-11625952D01*
X11783571Y-11616428D01*
X11793095Y-11597381D01*
X11793095Y-11549762D01*
X11783571Y-11530714D01*
X11774048Y-11521190D01*
X11755000Y-11511667D01*
X11716905Y-11511667D01*
X11697857Y-11521190D01*
X11688333Y-11530714D01*
X11678809Y-11549762D01*
X11916905Y-11435476D02*
X11935952Y-11435476D01*
X11955000Y-11445000D01*
X11964524Y-11454524D01*
X11974048Y-11473571D01*
X11983571Y-11511667D01*
X11983571Y-11559286D01*
X11974048Y-11597381D01*
X11964524Y-11616428D01*
X11955000Y-11625952D01*
X11935952Y-11635476D01*
X11916905Y-11635476D01*
X11897857Y-11625952D01*
X11888333Y-11616428D01*
X11878809Y-11597381D01*
X11869286Y-11559286D01*
X11869286Y-11511667D01*
X11878809Y-11473571D01*
X11888333Y-11454524D01*
X11897857Y-11445000D01*
X11916905Y-11435476D01*
X12107381Y-11435476D02*
X12126428Y-11435476D01*
X12145476Y-11445000D01*
X12155000Y-11454524D01*
X12164524Y-11473571D01*
X12174048Y-11511667D01*
X12174048Y-11559286D01*
X12164524Y-11597381D01*
X12155000Y-11616428D01*
X12145476Y-11625952D01*
X12126428Y-11635476D01*
X12107381Y-11635476D01*
X12088333Y-11625952D01*
X12078809Y-11616428D01*
X12069286Y-11597381D01*
X12059762Y-11559286D01*
X12059762Y-11511667D01*
X12069286Y-11473571D01*
X12078809Y-11454524D01*
X12088333Y-11445000D01*
X12107381Y-11435476D01*
X12259762Y-11635476D02*
X12259762Y-11502143D01*
X12259762Y-11521190D02*
X12269286Y-11511667D01*
X12288333Y-11502143D01*
X12316905Y-11502143D01*
X12335952Y-11511667D01*
X12345476Y-11530714D01*
X12345476Y-11635476D01*
X12345476Y-11530714D02*
X12355000Y-11511667D01*
X12374048Y-11502143D01*
X12402619Y-11502143D01*
X12421667Y-11511667D01*
X12431190Y-11530714D01*
X12431190Y-11635476D01*
X12526428Y-11635476D02*
X12526428Y-11502143D01*
X12526428Y-11521190D02*
X12535952Y-11511667D01*
X12555000Y-11502143D01*
X12583571Y-11502143D01*
X12602619Y-11511667D01*
X12612143Y-11530714D01*
X12612143Y-11635476D01*
X12612143Y-11530714D02*
X12621667Y-11511667D01*
X12640714Y-11502143D01*
X12669286Y-11502143D01*
X12688333Y-11511667D01*
X12697857Y-11530714D01*
X12697857Y-11635476D01*
X13088333Y-11425952D02*
X12916905Y-11683095D01*
X13345476Y-11435476D02*
X13364524Y-11435476D01*
X13383571Y-11445000D01*
X13393095Y-11454524D01*
X13402619Y-11473571D01*
X13412143Y-11511667D01*
X13412143Y-11559286D01*
X13402619Y-11597381D01*
X13393095Y-11616428D01*
X13383571Y-11625952D01*
X13364524Y-11635476D01*
X13345476Y-11635476D01*
X13326428Y-11625952D01*
X13316905Y-11616428D01*
X13307381Y-11597381D01*
X13297857Y-11559286D01*
X13297857Y-11511667D01*
X13307381Y-11473571D01*
X13316905Y-11454524D01*
X13326428Y-11445000D01*
X13345476Y-11435476D01*
X13497857Y-11616428D02*
X13507381Y-11625952D01*
X13497857Y-11635476D01*
X13488333Y-11625952D01*
X13497857Y-11616428D01*
X13497857Y-11635476D01*
X13631190Y-11435476D02*
X13650238Y-11435476D01*
X13669286Y-11445000D01*
X13678809Y-11454524D01*
X13688333Y-11473571D01*
X13697857Y-11511667D01*
X13697857Y-11559286D01*
X13688333Y-11597381D01*
X13678809Y-11616428D01*
X13669286Y-11625952D01*
X13650238Y-11635476D01*
X13631190Y-11635476D01*
X13612143Y-11625952D01*
X13602619Y-11616428D01*
X13593095Y-11597381D01*
X13583571Y-11559286D01*
X13583571Y-11511667D01*
X13593095Y-11473571D01*
X13602619Y-11454524D01*
X13612143Y-11445000D01*
X13631190Y-11435476D01*
X13869286Y-11435476D02*
X13831190Y-11435476D01*
X13812143Y-11445000D01*
X13802619Y-11454524D01*
X13783571Y-11483095D01*
X13774048Y-11521190D01*
X13774048Y-11597381D01*
X13783571Y-11616428D01*
X13793095Y-11625952D01*
X13812143Y-11635476D01*
X13850238Y-11635476D01*
X13869286Y-11625952D01*
X13878809Y-11616428D01*
X13888333Y-11597381D01*
X13888333Y-11549762D01*
X13878809Y-11530714D01*
X13869286Y-11521190D01*
X13850238Y-11511667D01*
X13812143Y-11511667D01*
X13793095Y-11521190D01*
X13783571Y-11530714D01*
X13774048Y-11549762D01*
X13955000Y-11435476D02*
X14078809Y-11435476D01*
X14012143Y-11511667D01*
X14040714Y-11511667D01*
X14059762Y-11521190D01*
X14069286Y-11530714D01*
X14078809Y-11549762D01*
X14078809Y-11597381D01*
X14069286Y-11616428D01*
X14059762Y-11625952D01*
X14040714Y-11635476D01*
X13983571Y-11635476D01*
X13964524Y-11625952D01*
X13955000Y-11616428D01*
X14202619Y-11435476D02*
X14221667Y-11435476D01*
X14240714Y-11445000D01*
X14250238Y-11454524D01*
X14259762Y-11473571D01*
X14269286Y-11511667D01*
X14269286Y-11559286D01*
X14259762Y-11597381D01*
X14250238Y-11616428D01*
X14240714Y-11625952D01*
X14221667Y-11635476D01*
X14202619Y-11635476D01*
X14183571Y-11625952D01*
X14174048Y-11616428D01*
X14164524Y-11597381D01*
X14155000Y-11559286D01*
X14155000Y-11511667D01*
X14164524Y-11473571D01*
X14174048Y-11454524D01*
X14183571Y-11445000D01*
X14202619Y-11435476D01*
X14345476Y-11435476D02*
X14345476Y-11473571D01*
X14421667Y-11435476D02*
X14421667Y-11473571D01*
X14716905Y-11711667D02*
X14707381Y-11702143D01*
X14688333Y-11673571D01*
X14678809Y-11654524D01*
X14669286Y-11625952D01*
X14659762Y-11578333D01*
X14659762Y-11540238D01*
X14669286Y-11492619D01*
X14678809Y-11464048D01*
X14688333Y-11445000D01*
X14707381Y-11416428D01*
X14716905Y-11406905D01*
X14897857Y-11635476D02*
X14783571Y-11635476D01*
X14840714Y-11635476D02*
X14840714Y-11435476D01*
X14821667Y-11464048D01*
X14802619Y-11483095D01*
X14783571Y-11492619D01*
X15135952Y-11635476D02*
X15135952Y-11435476D01*
X15221667Y-11635476D02*
X15221667Y-11530714D01*
X15212143Y-11511667D01*
X15193095Y-11502143D01*
X15164524Y-11502143D01*
X15145476Y-11511667D01*
X15135952Y-11521190D01*
X15345476Y-11635476D02*
X15326428Y-11625952D01*
X15316905Y-11616428D01*
X15307381Y-11597381D01*
X15307381Y-11540238D01*
X15316905Y-11521190D01*
X15326428Y-11511667D01*
X15345476Y-11502143D01*
X15374048Y-11502143D01*
X15393095Y-11511667D01*
X15402619Y-11521190D01*
X15412143Y-11540238D01*
X15412143Y-11597381D01*
X15402619Y-11616428D01*
X15393095Y-11625952D01*
X15374048Y-11635476D01*
X15345476Y-11635476D01*
X15526428Y-11635476D02*
X15507381Y-11625952D01*
X15497857Y-11606905D01*
X15497857Y-11435476D01*
X15678809Y-11625952D02*
X15659762Y-11635476D01*
X15621667Y-11635476D01*
X15602619Y-11625952D01*
X15593095Y-11606905D01*
X15593095Y-11530714D01*
X15602619Y-11511667D01*
X15621667Y-11502143D01*
X15659762Y-11502143D01*
X15678809Y-11511667D01*
X15688333Y-11530714D01*
X15688333Y-11549762D01*
X15593095Y-11568809D01*
X15755000Y-11711667D02*
X15764524Y-11702143D01*
X15783571Y-11673571D01*
X15793095Y-11654524D01*
X15802619Y-11625952D01*
X15812143Y-11578333D01*
X15812143Y-11540238D01*
X15802619Y-11492619D01*
X15793095Y-11464048D01*
X15783571Y-11445000D01*
X15764524Y-11416428D01*
X15755000Y-11406905D01*
X16116905Y-11711667D02*
X16107381Y-11702143D01*
X16088333Y-11673571D01*
X16078809Y-11654524D01*
X16069286Y-11625952D01*
X16059762Y-11578333D01*
X16059762Y-11540238D01*
X16069286Y-11492619D01*
X16078809Y-11464048D01*
X16088333Y-11445000D01*
X16107381Y-11416428D01*
X16116905Y-11406905D01*
X16193095Y-11502143D02*
X16193095Y-11635476D01*
X16193095Y-11521190D02*
X16202619Y-11511667D01*
X16221667Y-11502143D01*
X16250238Y-11502143D01*
X16269286Y-11511667D01*
X16278809Y-11530714D01*
X16278809Y-11635476D01*
X16402619Y-11635476D02*
X16383571Y-11625952D01*
X16374048Y-11616428D01*
X16364524Y-11597381D01*
X16364524Y-11540238D01*
X16374048Y-11521190D01*
X16383571Y-11511667D01*
X16402619Y-11502143D01*
X16431190Y-11502143D01*
X16450238Y-11511667D01*
X16459762Y-11521190D01*
X16469286Y-11540238D01*
X16469286Y-11597381D01*
X16459762Y-11616428D01*
X16450238Y-11625952D01*
X16431190Y-11635476D01*
X16402619Y-11635476D01*
X16526428Y-11502143D02*
X16602619Y-11502143D01*
X16555000Y-11435476D02*
X16555000Y-11606905D01*
X16564524Y-11625952D01*
X16583571Y-11635476D01*
X16602619Y-11635476D01*
X16821667Y-11502143D02*
X16821667Y-11702143D01*
X16821667Y-11511667D02*
X16840714Y-11502143D01*
X16878810Y-11502143D01*
X16897857Y-11511667D01*
X16907381Y-11521190D01*
X16916905Y-11540238D01*
X16916905Y-11597381D01*
X16907381Y-11616428D01*
X16897857Y-11625952D01*
X16878810Y-11635476D01*
X16840714Y-11635476D01*
X16821667Y-11625952D01*
X17031190Y-11635476D02*
X17012143Y-11625952D01*
X17002619Y-11606905D01*
X17002619Y-11435476D01*
X17193095Y-11635476D02*
X17193095Y-11530714D01*
X17183571Y-11511667D01*
X17164524Y-11502143D01*
X17126429Y-11502143D01*
X17107381Y-11511667D01*
X17193095Y-11625952D02*
X17174048Y-11635476D01*
X17126429Y-11635476D01*
X17107381Y-11625952D01*
X17097857Y-11606905D01*
X17097857Y-11587857D01*
X17107381Y-11568809D01*
X17126429Y-11559286D01*
X17174048Y-11559286D01*
X17193095Y-11549762D01*
X17259762Y-11502143D02*
X17335952Y-11502143D01*
X17288333Y-11435476D02*
X17288333Y-11606905D01*
X17297857Y-11625952D01*
X17316905Y-11635476D01*
X17335952Y-11635476D01*
X17478810Y-11625952D02*
X17459762Y-11635476D01*
X17421667Y-11635476D01*
X17402619Y-11625952D01*
X17393095Y-11606905D01*
X17393095Y-11530714D01*
X17402619Y-11511667D01*
X17421667Y-11502143D01*
X17459762Y-11502143D01*
X17478810Y-11511667D01*
X17488333Y-11530714D01*
X17488333Y-11549762D01*
X17393095Y-11568809D01*
X17659762Y-11635476D02*
X17659762Y-11435476D01*
X17659762Y-11625952D02*
X17640714Y-11635476D01*
X17602619Y-11635476D01*
X17583571Y-11625952D01*
X17574048Y-11616428D01*
X17564524Y-11597381D01*
X17564524Y-11540238D01*
X17574048Y-11521190D01*
X17583571Y-11511667D01*
X17602619Y-11502143D01*
X17640714Y-11502143D01*
X17659762Y-11511667D01*
X17735952Y-11711667D02*
X17745476Y-11702143D01*
X17764524Y-11673571D01*
X17774048Y-11654524D01*
X17783571Y-11625952D01*
X17793095Y-11578333D01*
X17793095Y-11540238D01*
X17783571Y-11492619D01*
X17774048Y-11464048D01*
X17764524Y-11445000D01*
X17745476Y-11416428D01*
X17735952Y-11406905D01*
M02*
