%TF.GenerationSoftware,KiCad,Pcbnew,(6.0.8)*%
%TF.CreationDate,2023-01-24T15:15:15-07:00*%
%TF.ProjectId,Power,506f7765-722e-46b6-9963-61645f706362,rev?*%
%TF.SameCoordinates,Original*%
%TF.FileFunction,Legend,Bot*%
%TF.FilePolarity,Positive*%
%FSLAX46Y46*%
G04 Gerber Fmt 4.6, Leading zero omitted, Abs format (unit mm)*
G04 Created by KiCad (PCBNEW (6.0.8)) date 2023-01-24 15:15:15*
%MOMM*%
%LPD*%
G01*
G04 APERTURE LIST*
G04 Aperture macros list*
%AMRoundRect*
0 Rectangle with rounded corners*
0 $1 Rounding radius*
0 $2 $3 $4 $5 $6 $7 $8 $9 X,Y pos of 4 corners*
0 Add a 4 corners polygon primitive as box body*
4,1,4,$2,$3,$4,$5,$6,$7,$8,$9,$2,$3,0*
0 Add four circle primitives for the rounded corners*
1,1,$1+$1,$2,$3*
1,1,$1+$1,$4,$5*
1,1,$1+$1,$6,$7*
1,1,$1+$1,$8,$9*
0 Add four rect primitives between the rounded corners*
20,1,$1+$1,$2,$3,$4,$5,0*
20,1,$1+$1,$4,$5,$6,$7,0*
20,1,$1+$1,$6,$7,$8,$9,0*
20,1,$1+$1,$8,$9,$2,$3,0*%
G04 Aperture macros list end*
%ADD10C,0.150000*%
%ADD11O,1.700000X2.000000*%
%ADD12RoundRect,0.250000X-0.600000X-0.750000X0.600000X-0.750000X0.600000X0.750000X-0.600000X0.750000X0*%
%ADD13C,1.600000*%
%ADD14R,2.000000X4.000000*%
%ADD15O,2.000000X3.300000*%
%ADD16O,3.500000X2.000000*%
%ADD17R,3.000000X3.000000*%
%ADD18C,3.000000*%
G04 APERTURE END LIST*
D10*
X147380952Y-96666666D02*
X146904761Y-96666666D01*
X147476190Y-96952380D02*
X147142857Y-95952380D01*
X146809523Y-96952380D01*
X146619047Y-96285714D02*
X146238095Y-96285714D01*
X146476190Y-95952380D02*
X146476190Y-96809523D01*
X146428571Y-96904761D01*
X146333333Y-96952380D01*
X146238095Y-96952380D01*
X146047619Y-96285714D02*
X145666666Y-96285714D01*
X145904761Y-95952380D02*
X145904761Y-96809523D01*
X145857142Y-96904761D01*
X145761904Y-96952380D01*
X145666666Y-96952380D01*
X144904761Y-96952380D02*
X144904761Y-96428571D01*
X144952380Y-96333333D01*
X145047619Y-96285714D01*
X145238095Y-96285714D01*
X145333333Y-96333333D01*
X144904761Y-96904761D02*
X145000000Y-96952380D01*
X145238095Y-96952380D01*
X145333333Y-96904761D01*
X145380952Y-96809523D01*
X145380952Y-96714285D01*
X145333333Y-96619047D01*
X145238095Y-96571428D01*
X145000000Y-96571428D01*
X144904761Y-96523809D01*
X144000000Y-96904761D02*
X144095238Y-96952380D01*
X144285714Y-96952380D01*
X144380952Y-96904761D01*
X144428571Y-96857142D01*
X144476190Y-96761904D01*
X144476190Y-96476190D01*
X144428571Y-96380952D01*
X144380952Y-96333333D01*
X144285714Y-96285714D01*
X144095238Y-96285714D01*
X144000000Y-96333333D01*
X143571428Y-96952380D02*
X143571428Y-95952380D01*
X143142857Y-96952380D02*
X143142857Y-96428571D01*
X143190476Y-96333333D01*
X143285714Y-96285714D01*
X143428571Y-96285714D01*
X143523809Y-96333333D01*
X143571428Y-96380952D01*
X142000000Y-96285714D02*
X141809523Y-96952380D01*
X141619047Y-96476190D01*
X141428571Y-96952380D01*
X141238095Y-96285714D01*
X140857142Y-96952380D02*
X140857142Y-96285714D01*
X140857142Y-95952380D02*
X140904761Y-96000000D01*
X140857142Y-96047619D01*
X140809523Y-96000000D01*
X140857142Y-95952380D01*
X140857142Y-96047619D01*
X140523809Y-96285714D02*
X140142857Y-96285714D01*
X140380952Y-95952380D02*
X140380952Y-96809523D01*
X140333333Y-96904761D01*
X140238095Y-96952380D01*
X140142857Y-96952380D01*
X139809523Y-96952380D02*
X139809523Y-95952380D01*
X139380952Y-96952380D02*
X139380952Y-96428571D01*
X139428571Y-96333333D01*
X139523809Y-96285714D01*
X139666666Y-96285714D01*
X139761904Y-96333333D01*
X139809523Y-96380952D01*
X137714285Y-96952380D02*
X137714285Y-95952380D01*
X137714285Y-96904761D02*
X137809523Y-96952380D01*
X138000000Y-96952380D01*
X138095238Y-96904761D01*
X138142857Y-96857142D01*
X138190476Y-96761904D01*
X138190476Y-96476190D01*
X138142857Y-96380952D01*
X138095238Y-96333333D01*
X138000000Y-96285714D01*
X137809523Y-96285714D01*
X137714285Y-96333333D01*
X137095238Y-96952380D02*
X137190476Y-96904761D01*
X137238095Y-96857142D01*
X137285714Y-96761904D01*
X137285714Y-96476190D01*
X137238095Y-96380952D01*
X137190476Y-96333333D01*
X137095238Y-96285714D01*
X136952380Y-96285714D01*
X136857142Y-96333333D01*
X136809523Y-96380952D01*
X136761904Y-96476190D01*
X136761904Y-96761904D01*
X136809523Y-96857142D01*
X136857142Y-96904761D01*
X136952380Y-96952380D01*
X137095238Y-96952380D01*
X135904761Y-96285714D02*
X135904761Y-96952380D01*
X136333333Y-96285714D02*
X136333333Y-96809523D01*
X136285714Y-96904761D01*
X136190476Y-96952380D01*
X136047619Y-96952380D01*
X135952380Y-96904761D01*
X135904761Y-96857142D01*
X135428571Y-96952380D02*
X135428571Y-95952380D01*
X135428571Y-96333333D02*
X135333333Y-96285714D01*
X135142857Y-96285714D01*
X135047619Y-96333333D01*
X135000000Y-96380952D01*
X134952380Y-96476190D01*
X134952380Y-96761904D01*
X135000000Y-96857142D01*
X135047619Y-96904761D01*
X135142857Y-96952380D01*
X135333333Y-96952380D01*
X135428571Y-96904761D01*
X134380952Y-96952380D02*
X134476190Y-96904761D01*
X134523809Y-96809523D01*
X134523809Y-95952380D01*
X133619047Y-96904761D02*
X133714285Y-96952380D01*
X133904761Y-96952380D01*
X134000000Y-96904761D01*
X134047619Y-96809523D01*
X134047619Y-96428571D01*
X134000000Y-96333333D01*
X133904761Y-96285714D01*
X133714285Y-96285714D01*
X133619047Y-96333333D01*
X133571428Y-96428571D01*
X133571428Y-96523809D01*
X134047619Y-96619047D01*
X132428571Y-96904761D02*
X132333333Y-96952380D01*
X132142857Y-96952380D01*
X132047619Y-96904761D01*
X132000000Y-96809523D01*
X132000000Y-96761904D01*
X132047619Y-96666666D01*
X132142857Y-96619047D01*
X132285714Y-96619047D01*
X132380952Y-96571428D01*
X132428571Y-96476190D01*
X132428571Y-96428571D01*
X132380952Y-96333333D01*
X132285714Y-96285714D01*
X132142857Y-96285714D01*
X132047619Y-96333333D01*
X131571428Y-96952380D02*
X131571428Y-96285714D01*
X131571428Y-95952380D02*
X131619047Y-96000000D01*
X131571428Y-96047619D01*
X131523809Y-96000000D01*
X131571428Y-95952380D01*
X131571428Y-96047619D01*
X130666666Y-96952380D02*
X130666666Y-95952380D01*
X130666666Y-96904761D02*
X130761904Y-96952380D01*
X130952380Y-96952380D01*
X131047619Y-96904761D01*
X131095238Y-96857142D01*
X131142857Y-96761904D01*
X131142857Y-96476190D01*
X131095238Y-96380952D01*
X131047619Y-96333333D01*
X130952380Y-96285714D01*
X130761904Y-96285714D01*
X130666666Y-96333333D01*
X129809523Y-96904761D02*
X129904761Y-96952380D01*
X130095238Y-96952380D01*
X130190476Y-96904761D01*
X130238095Y-96809523D01*
X130238095Y-96428571D01*
X130190476Y-96333333D01*
X130095238Y-96285714D01*
X129904761Y-96285714D01*
X129809523Y-96333333D01*
X129761904Y-96428571D01*
X129761904Y-96523809D01*
X130238095Y-96619047D01*
X128904761Y-96952380D02*
X128904761Y-95952380D01*
X128904761Y-96904761D02*
X129000000Y-96952380D01*
X129190476Y-96952380D01*
X129285714Y-96904761D01*
X129333333Y-96857142D01*
X129380952Y-96761904D01*
X129380952Y-96476190D01*
X129333333Y-96380952D01*
X129285714Y-96333333D01*
X129190476Y-96285714D01*
X129000000Y-96285714D01*
X128904761Y-96333333D01*
X127238095Y-96952380D02*
X127238095Y-96428571D01*
X127285714Y-96333333D01*
X127380952Y-96285714D01*
X127571428Y-96285714D01*
X127666666Y-96333333D01*
X127238095Y-96904761D02*
X127333333Y-96952380D01*
X127571428Y-96952380D01*
X127666666Y-96904761D01*
X127714285Y-96809523D01*
X127714285Y-96714285D01*
X127666666Y-96619047D01*
X127571428Y-96571428D01*
X127333333Y-96571428D01*
X127238095Y-96523809D01*
X126333333Y-96952380D02*
X126333333Y-95952380D01*
X126333333Y-96904761D02*
X126428571Y-96952380D01*
X126619047Y-96952380D01*
X126714285Y-96904761D01*
X126761904Y-96857142D01*
X126809523Y-96761904D01*
X126809523Y-96476190D01*
X126761904Y-96380952D01*
X126714285Y-96333333D01*
X126619047Y-96285714D01*
X126428571Y-96285714D01*
X126333333Y-96333333D01*
X125857142Y-96952380D02*
X125857142Y-95952380D01*
X125428571Y-96952380D02*
X125428571Y-96428571D01*
X125476190Y-96333333D01*
X125571428Y-96285714D01*
X125714285Y-96285714D01*
X125809523Y-96333333D01*
X125857142Y-96380952D01*
X124571428Y-96904761D02*
X124666666Y-96952380D01*
X124857142Y-96952380D01*
X124952380Y-96904761D01*
X125000000Y-96809523D01*
X125000000Y-96428571D01*
X124952380Y-96333333D01*
X124857142Y-96285714D01*
X124666666Y-96285714D01*
X124571428Y-96333333D01*
X124523809Y-96428571D01*
X124523809Y-96523809D01*
X125000000Y-96619047D01*
X124142857Y-96904761D02*
X124047619Y-96952380D01*
X123857142Y-96952380D01*
X123761904Y-96904761D01*
X123714285Y-96809523D01*
X123714285Y-96761904D01*
X123761904Y-96666666D01*
X123857142Y-96619047D01*
X124000000Y-96619047D01*
X124095238Y-96571428D01*
X124142857Y-96476190D01*
X124142857Y-96428571D01*
X124095238Y-96333333D01*
X124000000Y-96285714D01*
X123857142Y-96285714D01*
X123761904Y-96333333D01*
X123285714Y-96952380D02*
X123285714Y-96285714D01*
X123285714Y-95952380D02*
X123333333Y-96000000D01*
X123285714Y-96047619D01*
X123238095Y-96000000D01*
X123285714Y-95952380D01*
X123285714Y-96047619D01*
X122904761Y-96285714D02*
X122666666Y-96952380D01*
X122428571Y-96285714D01*
X121666666Y-96904761D02*
X121761904Y-96952380D01*
X121952380Y-96952380D01*
X122047619Y-96904761D01*
X122095238Y-96809523D01*
X122095238Y-96428571D01*
X122047619Y-96333333D01*
X121952380Y-96285714D01*
X121761904Y-96285714D01*
X121666666Y-96333333D01*
X121619047Y-96428571D01*
X121619047Y-96523809D01*
X122095238Y-96619047D01*
%LPC*%
D11*
%TO.C,J7*%
X152482500Y-103700000D03*
D12*
X149982500Y-103700000D03*
%TD*%
D11*
%TO.C,J6*%
X143592500Y-103700000D03*
D12*
X141092500Y-103700000D03*
%TD*%
D11*
%TO.C,J5*%
X134742500Y-103700000D03*
D12*
X132242500Y-103700000D03*
%TD*%
D11*
%TO.C,J4*%
X125812500Y-103700000D03*
D12*
X123312500Y-103700000D03*
%TD*%
D11*
%TO.C,J3*%
X116922500Y-103700000D03*
D12*
X114422500Y-103700000D03*
%TD*%
D13*
%TO.C,J2*%
X114700000Y-91000000D03*
D14*
X123700000Y-91000000D03*
D15*
X117700000Y-91000000D03*
D16*
X116700000Y-95500000D03*
X116700000Y-86500000D03*
%TD*%
D17*
%TO.C,J1*%
X134510000Y-88000000D03*
D18*
X129430000Y-88000000D03*
%TD*%
M02*
